<svg xmlns="http://www.w3.org/2000/svg" viewBox="0 0 1024 1024">
  <polygon points="106.91,1003.52 917.09,1003.52 899.48,570.98 802.61,394.04 696.93,59.80 512.00,20.48 327.07,59.80 221.39,394.04 124.52,570.98" fill="#faffa8" />
  <polygon points="163.43,942.08 860.57,942.08 845.41,570.98 762.06,394.04 671.13,116.33 512.00,81.92 352.87,116.33 261.94,394.04 178.59,570.98" fill="#65f2ff" />
  <polygon points="194.56,901.12 829.44,901.12 829.44,696.32 194.56,696.32" fill="#ff710f" />
  <polygon points="471.70,768.99 486.77,768.99 486.77,758.23 471.70,758.23" fill="#faffa8" />
  <polygon points="488.08,768.99 503.15,768.99 503.15,758.23 488.08,758.23" fill="#faffa8" />
  <polygon points="504.46,768.99 519.54,768.99 519.54,758.23 504.46,758.23" fill="#faffa8" />
  <polygon points="520.85,768.99 535.92,768.99 535.92,758.23 520.85,758.23" fill="#faffa8" />
  <polygon points="537.23,768.99 552.30,768.99 552.30,758.23 537.23,758.23" fill="#faffa8" />
  <polygon points="504.46,780.70 519.54,780.70 519.54,769.93 504.46,769.93" fill="#faffa8" />
  <polygon points="504.46,792.40 519.54,792.40 519.54,781.63 504.46,781.63" fill="#faffa8" />
  <polygon points="504.46,804.10 519.54,804.10 519.54,793.34 504.46,793.34" fill="#faffa8" />
  <polygon points="504.46,815.81 519.54,815.81 519.54,805.04 504.46,805.04" fill="#faffa8" />
  <polygon points="504.46,827.51 519.54,827.51 519.54,816.74 504.46,816.74" fill="#faffa8" />
  <polygon points="471.70,839.21 486.77,839.21 486.77,828.45 471.70,828.45" fill="#faffa8" />
  <polygon points="488.08,839.21 503.15,839.21 503.15,828.45 488.08,828.45" fill="#faffa8" />
  <polygon points="504.46,839.21 519.54,839.21 519.54,828.45 504.46,828.45" fill="#faffa8" />
  <polygon points="520.85,839.21 535.92,839.21 535.92,828.45 520.85,828.45" fill="#faffa8" />
  <polygon points="537.23,839.21 552.30,839.21 552.30,828.45 537.23,828.45" fill="#faffa8" />
  <polygon points="391.09,312.99 436.31,312.99 436.31,278.00 391.09,278.00" fill="#faffa8" />
  <polygon points="440.24,312.99 485.46,312.99 485.46,278.00 440.24,278.00" fill="#faffa8" />
  <polygon points="489.39,312.99 534.61,312.99 534.61,278.00 489.39,278.00" fill="#faffa8" />
  <polygon points="538.54,312.99 583.76,312.99 583.76,278.00 538.54,278.00" fill="#faffa8" />
  <polygon points="587.69,312.99 632.91,312.99 632.91,278.00 587.69,278.00" fill="#faffa8" />
  <polygon points="391.09,351.03 436.31,351.03 436.31,316.04 391.09,316.04" fill="#faffa8" />
  <polygon points="391.09,389.06 436.31,389.06 436.31,354.07 391.09,354.07" fill="#faffa8" />
  <polygon points="440.24,389.06 485.46,389.06 485.46,354.07 440.24,354.07" fill="#faffa8" />
  <polygon points="489.39,389.06 534.61,389.06 534.61,354.07 489.39,354.07" fill="#faffa8" />
  <polygon points="538.54,389.06 583.76,389.06 583.76,354.07 538.54,354.07" fill="#faffa8" />
  <polygon points="587.69,427.10 632.91,427.10 632.91,392.10 587.69,392.10" fill="#faffa8" />
  <polygon points="587.69,465.13 632.91,465.13 632.91,430.14 587.69,430.14" fill="#faffa8" />
  <polygon points="391.09,503.16 436.31,503.16 436.31,468.17 391.09,468.17" fill="#faffa8" />
  <polygon points="587.69,503.16 632.91,503.16 632.91,468.17 587.69,468.17" fill="#faffa8" />
  <polygon points="440.24,541.20 485.46,541.20 485.46,506.21 440.24,506.21" fill="#faffa8" />
  <polygon points="489.39,541.20 534.61,541.20 534.61,506.21 489.39,506.21" fill="#faffa8" />
  <polygon points="538.54,541.20 583.76,541.20 583.76,506.21 538.54,506.21" fill="#faffa8" />
</svg>
