<svg xmlns="http://www.w3.org/2000/svg" viewBox="0 0 1024 1024">
  <polygon points="-30.72,727.04 1054.72,727.04 1054.72,296.96 -30.72,296.96" fill="#faffa8" />
  <polygon points="10.24,686.08 1013.76,686.08 1013.76,337.92 10.24,337.92" fill="#65f2ff" />
  <polygon points="430.08,552.96 225.28,552.96 225.28,471.04 430.08,471.04" fill="#faffa8" />
  <polygon points="81.92,512.00 225.28,614.40 225.28,409.60" fill="#faffa8" />
  <polygon points="369.07,584.67 378.90,584.67 378.90,573.91 369.07,573.91" fill="#faffa8" />
  <polygon points="369.07,596.38 378.90,596.38 378.90,585.61 369.07,585.61" fill="#faffa8" />
  <polygon points="369.07,608.08 378.90,608.08 378.90,597.31 369.07,597.31" fill="#faffa8" />
  <polygon points="369.07,619.78 378.90,619.78 378.90,609.02 369.07,609.02" fill="#faffa8" />
  <polygon points="369.07,631.49 378.90,631.49 378.90,620.72 369.07,620.72" fill="#faffa8" />
  <polygon points="369.07,643.19 378.90,643.19 378.90,632.42 369.07,632.42" fill="#faffa8" />
  <polygon points="369.07,654.89 378.90,654.89 378.90,644.13 369.07,644.13" fill="#faffa8" />
  <polygon points="379.75,654.89 389.58,654.89 389.58,644.13 379.75,644.13" fill="#faffa8" />
  <polygon points="390.44,654.89 400.27,654.89 400.27,644.13 390.44,644.13" fill="#faffa8" />
  <polygon points="401.12,654.89 410.95,654.89 410.95,644.13 401.12,644.13" fill="#faffa8" />
  <polygon points="411.81,654.89 421.64,654.89 421.64,644.13 411.81,644.13" fill="#faffa8" />
  <polygon points="443.86,584.67 453.69,584.67 453.69,573.91 443.86,573.91" fill="#faffa8" />
  <polygon points="454.55,584.67 464.38,584.67 464.38,573.91 454.55,573.91" fill="#faffa8" />
  <polygon points="465.23,584.67 475.06,584.67 475.06,573.91 465.23,573.91" fill="#faffa8" />
  <polygon points="433.18,596.38 443.01,596.38 443.01,585.61 433.18,585.61" fill="#faffa8" />
  <polygon points="475.92,596.38 485.75,596.38 485.75,585.61 475.92,585.61" fill="#faffa8" />
  <polygon points="433.18,608.08 443.01,608.08 443.01,597.31 433.18,597.31" fill="#faffa8" />
  <polygon points="475.92,608.08 485.75,608.08 485.75,597.31 475.92,597.31" fill="#faffa8" />
  <polygon points="433.18,619.78 443.01,619.78 443.01,609.02 433.18,609.02" fill="#faffa8" />
  <polygon points="475.92,619.78 485.75,619.78 485.75,609.02 475.92,609.02" fill="#faffa8" />
  <polygon points="433.18,631.49 443.01,631.49 443.01,620.72 433.18,620.72" fill="#faffa8" />
  <polygon points="475.92,631.49 485.75,631.49 485.75,620.72 475.92,620.72" fill="#faffa8" />
  <polygon points="433.18,643.19 443.01,643.19 443.01,632.42 433.18,632.42" fill="#faffa8" />
  <polygon points="475.92,643.19 485.75,643.19 485.75,632.42 475.92,632.42" fill="#faffa8" />
  <polygon points="443.86,654.89 453.69,654.89 453.69,644.13 443.86,644.13" fill="#faffa8" />
  <polygon points="454.55,654.89 464.38,654.89 464.38,644.13 454.55,644.13" fill="#faffa8" />
  <polygon points="465.23,654.89 475.06,654.89 475.06,644.13 465.23,644.13" fill="#faffa8" />
  <polygon points="518.66,584.67 528.49,584.67 528.49,573.91 518.66,573.91" fill="#faffa8" />
  <polygon points="507.98,596.38 517.81,596.38 517.81,585.61 507.98,585.61" fill="#faffa8" />
  <polygon points="529.35,596.38 539.18,596.38 539.18,585.61 529.35,585.61" fill="#faffa8" />
  <polygon points="497.29,608.08 507.12,608.08 507.12,597.31 497.29,597.31" fill="#faffa8" />
  <polygon points="540.03,608.08 549.86,608.08 549.86,597.31 540.03,597.31" fill="#faffa8" />
  <polygon points="497.29,619.78 507.12,619.78 507.12,609.02 497.29,609.02" fill="#faffa8" />
  <polygon points="540.03,619.78 549.86,619.78 549.86,609.02 540.03,609.02" fill="#faffa8" />
  <polygon points="497.29,631.49 507.12,631.49 507.12,620.72 497.29,620.72" fill="#faffa8" />
  <polygon points="507.98,631.49 517.81,631.49 517.81,620.72 507.98,620.72" fill="#faffa8" />
  <polygon points="518.66,631.49 528.49,631.49 528.49,620.72 518.66,620.72" fill="#faffa8" />
  <polygon points="529.35,631.49 539.18,631.49 539.18,620.72 529.35,620.72" fill="#faffa8" />
  <polygon points="540.03,631.49 549.86,631.49 549.86,620.72 540.03,620.72" fill="#faffa8" />
  <polygon points="497.29,643.19 507.12,643.19 507.12,632.42 497.29,632.42" fill="#faffa8" />
  <polygon points="540.03,643.19 549.86,643.19 549.86,632.42 540.03,632.42" fill="#faffa8" />
  <polygon points="497.29,654.89 507.12,654.89 507.12,644.13 497.29,644.13" fill="#faffa8" />
  <polygon points="540.03,654.89 549.86,654.89 549.86,644.13 540.03,644.13" fill="#faffa8" />
  <polygon points="561.40,584.67 571.23,584.67 571.23,573.91 561.40,573.91" fill="#faffa8" />
  <polygon points="572.09,584.67 581.92,584.67 581.92,573.91 572.09,573.91" fill="#faffa8" />
  <polygon points="582.77,584.67 592.60,584.67 592.60,573.91 582.77,573.91" fill="#faffa8" />
  <polygon points="593.46,584.67 603.29,584.67 603.29,573.91 593.46,573.91" fill="#faffa8" />
  <polygon points="561.40,596.38 571.23,596.38 571.23,585.61 561.40,585.61" fill="#faffa8" />
  <polygon points="604.14,596.38 613.97,596.38 613.97,585.61 604.14,585.61" fill="#faffa8" />
  <polygon points="561.40,608.08 571.23,608.08 571.23,597.31 561.40,597.31" fill="#faffa8" />
  <polygon points="604.14,608.08 613.97,608.08 613.97,597.31 604.14,597.31" fill="#faffa8" />
  <polygon points="561.40,619.78 571.23,619.78 571.23,609.02 561.40,609.02" fill="#faffa8" />
  <polygon points="604.14,619.78 613.97,619.78 613.97,609.02 604.14,609.02" fill="#faffa8" />
  <polygon points="561.40,631.49 571.23,631.49 571.23,620.72 561.40,620.72" fill="#faffa8" />
  <polygon points="604.14,631.49 613.97,631.49 613.97,620.72 604.14,620.72" fill="#faffa8" />
  <polygon points="561.40,643.19 571.23,643.19 571.23,632.42 561.40,632.42" fill="#faffa8" />
  <polygon points="604.14,643.19 613.97,643.19 613.97,632.42 604.14,632.42" fill="#faffa8" />
  <polygon points="561.40,654.89 571.23,654.89 571.23,644.13 561.40,644.13" fill="#faffa8" />
  <polygon points="572.09,654.89 581.92,654.89 581.92,644.13 572.09,644.13" fill="#faffa8" />
  <polygon points="582.77,654.89 592.60,654.89 592.60,644.13 582.77,644.13" fill="#faffa8" />
  <polygon points="593.46,654.89 603.29,654.89 603.29,644.13 593.46,644.13" fill="#faffa8" />
  <polygon points="585.41,359.39 599.02,359.39 599.02,348.63 585.41,348.63" fill="#faffa8" />
  <polygon points="600.20,359.39 613.81,359.39 613.81,348.63 600.20,348.63" fill="#faffa8" />
  <polygon points="614.99,359.39 628.60,359.39 628.60,348.63 614.99,348.63" fill="#faffa8" />
  <polygon points="570.62,371.10 584.23,371.10 584.23,360.33 570.62,360.33" fill="#faffa8" />
  <polygon points="629.78,371.10 643.39,371.10 643.39,360.33 629.78,360.33" fill="#faffa8" />
  <polygon points="570.62,382.80 584.23,382.80 584.23,372.03 570.62,372.03" fill="#faffa8" />
  <polygon points="629.78,382.80 643.39,382.80 643.39,372.03 629.78,372.03" fill="#faffa8" />
  <polygon points="570.62,394.50 584.23,394.50 584.23,383.74 570.62,383.74" fill="#faffa8" />
  <polygon points="629.78,394.50 643.39,394.50 643.39,383.74 629.78,383.74" fill="#faffa8" />
  <polygon points="570.62,406.21 584.23,406.21 584.23,395.44 570.62,395.44" fill="#faffa8" />
  <polygon points="629.78,406.21 643.39,406.21 643.39,395.44 629.78,395.44" fill="#faffa8" />
  <polygon points="570.62,417.91 584.23,417.91 584.23,407.14 570.62,407.14" fill="#faffa8" />
  <polygon points="629.78,417.91 643.39,417.91 643.39,407.14 629.78,407.14" fill="#faffa8" />
  <polygon points="585.41,429.61 599.02,429.61 599.02,418.85 585.41,418.85" fill="#faffa8" />
  <polygon points="600.20,429.61 613.81,429.61 613.81,418.85 600.20,418.85" fill="#faffa8" />
  <polygon points="614.99,429.61 628.60,429.61 628.60,418.85 614.99,418.85" fill="#faffa8" />
  <polygon points="659.36,359.39 672.97,359.39 672.97,348.63 659.36,348.63" fill="#faffa8" />
  <polygon points="718.53,359.39 732.14,359.39 732.14,348.63 718.53,348.63" fill="#faffa8" />
  <polygon points="659.36,371.10 672.97,371.10 672.97,360.33 659.36,360.33" fill="#faffa8" />
  <polygon points="674.16,371.10 687.76,371.10 687.76,360.33 674.16,360.33" fill="#faffa8" />
  <polygon points="718.53,371.10 732.14,371.10 732.14,360.33 718.53,360.33" fill="#faffa8" />
  <polygon points="659.36,382.80 672.97,382.80 672.97,372.03 659.36,372.03" fill="#faffa8" />
  <polygon points="688.95,382.80 702.56,382.80 702.56,372.03 688.95,372.03" fill="#faffa8" />
  <polygon points="718.53,382.80 732.14,382.80 732.14,372.03 718.53,372.03" fill="#faffa8" />
  <polygon points="659.36,394.50 672.97,394.50 672.97,383.74 659.36,383.74" fill="#faffa8" />
  <polygon points="703.74,394.50 717.35,394.50 717.35,383.74 703.74,383.74" fill="#faffa8" />
  <polygon points="718.53,394.50 732.14,394.50 732.14,383.74 718.53,383.74" fill="#faffa8" />
  <polygon points="659.36,406.21 672.97,406.21 672.97,395.44 659.36,395.44" fill="#faffa8" />
  <polygon points="718.53,406.21 732.14,406.21 732.14,395.44 718.53,395.44" fill="#faffa8" />
  <polygon points="659.36,417.91 672.97,417.91 672.97,407.14 659.36,407.14" fill="#faffa8" />
  <polygon points="718.53,417.91 732.14,417.91 732.14,407.14 718.53,407.14" fill="#faffa8" />
  <polygon points="659.36,429.61 672.97,429.61 672.97,418.85 659.36,418.85" fill="#faffa8" />
  <polygon points="718.53,429.61 732.14,429.61 732.14,418.85 718.53,418.85" fill="#faffa8" />
  <polygon points="748.11,359.39 761.72,359.39 761.72,348.63 748.11,348.63" fill="#faffa8" />
  <polygon points="762.90,359.39 776.51,359.39 776.51,348.63 762.90,348.63" fill="#faffa8" />
  <polygon points="777.69,359.39 791.30,359.39 791.30,348.63 777.69,348.63" fill="#faffa8" />
  <polygon points="792.48,359.39 806.09,359.39 806.09,348.63 792.48,348.63" fill="#faffa8" />
  <polygon points="807.28,359.39 820.88,359.39 820.88,348.63 807.28,348.63" fill="#faffa8" />
  <polygon points="748.11,371.10 761.72,371.10 761.72,360.33 748.11,360.33" fill="#faffa8" />
  <polygon points="748.11,382.80 761.72,382.80 761.72,372.03 748.11,372.03" fill="#faffa8" />
  <polygon points="748.11,394.50 761.72,394.50 761.72,383.74 748.11,383.74" fill="#faffa8" />
  <polygon points="762.90,394.50 776.51,394.50 776.51,383.74 762.90,383.74" fill="#faffa8" />
  <polygon points="777.69,394.50 791.30,394.50 791.30,383.74 777.69,383.74" fill="#faffa8" />
  <polygon points="792.48,394.50 806.09,394.50 806.09,383.74 792.48,383.74" fill="#faffa8" />
  <polygon points="748.11,406.21 761.72,406.21 761.72,395.44 748.11,395.44" fill="#faffa8" />
  <polygon points="748.11,417.91 761.72,417.91 761.72,407.14 748.11,407.14" fill="#faffa8" />
  <polygon points="748.11,429.61 761.72,429.61 761.72,418.85 748.11,418.85" fill="#faffa8" />
  <polygon points="762.90,429.61 776.51,429.61 776.51,418.85 762.90,418.85" fill="#faffa8" />
  <polygon points="777.69,429.61 791.30,429.61 791.30,418.85 777.69,418.85" fill="#faffa8" />
  <polygon points="792.48,429.61 806.09,429.61 806.09,418.85 792.48,418.85" fill="#faffa8" />
  <polygon points="807.28,429.61 820.88,429.61 820.88,418.85 807.28,418.85" fill="#faffa8" />
</svg>
