<svg xmlns="http://www.w3.org/2000/svg" viewBox="0 0 1024 1024">
  <polygon points="-40.96,716.80 1064.96,716.80 1064.96,307.20 -40.96,307.20" fill="#65f2ff" />
  <polygon points="30.52,587.78 379.08,587.78 379.08,436.22 30.52,436.22" fill="#faffa8" />
  <polygon points="34.30,633.24 102.50,633.24 102.50,587.78 34.30,587.78" fill="#faffa8" />
  <polygon points="307.10,633.24 375.30,633.24 375.30,587.78 307.10,587.78" fill="#faffa8" />
  <polygon points="144.18,602.93 139.68,583.20 127.06,567.38 108.83,558.61 88.60,558.61 70.37,567.38 57.75,583.20 53.25,602.93 57.75,622.66 70.37,638.48 88.60,647.26 108.83,647.26 127.06,638.48 139.68,622.66" fill="#faffa8" />
  <polygon points="356.35,602.93 351.85,583.20 339.23,567.38 321.00,558.61 300.77,558.61 282.54,567.38 269.92,583.20 265.42,602.93 269.92,622.66 282.54,638.48 300.77,647.26 321.00,647.26 339.23,638.48 351.85,622.66" fill="#faffa8" />
  <polygon points="389.55,482.27 399.42,482.27 399.42,471.51 389.55,471.51" fill="#faffa8" />
  <polygon points="400.28,482.27 410.15,482.27 410.15,471.51 400.28,471.51" fill="#faffa8" />
  <polygon points="411.00,482.27 420.87,482.27 420.87,471.51 411.00,471.51" fill="#faffa8" />
  <polygon points="421.73,482.27 431.60,482.27 431.60,471.51 421.73,471.51" fill="#faffa8" />
  <polygon points="389.55,493.98 399.42,493.98 399.42,483.21 389.55,483.21" fill="#faffa8" />
  <polygon points="432.46,493.98 442.33,493.98 442.33,483.21 432.46,483.21" fill="#faffa8" />
  <polygon points="389.55,505.68 399.42,505.68 399.42,494.91 389.55,494.91" fill="#faffa8" />
  <polygon points="432.46,505.68 442.33,505.68 442.33,494.91 432.46,494.91" fill="#faffa8" />
  <polygon points="389.55,517.38 399.42,517.38 399.42,506.62 389.55,506.62" fill="#faffa8" />
  <polygon points="400.28,517.38 410.15,517.38 410.15,506.62 400.28,506.62" fill="#faffa8" />
  <polygon points="411.00,517.38 420.87,517.38 420.87,506.62 411.00,506.62" fill="#faffa8" />
  <polygon points="421.73,517.38 431.60,517.38 431.60,506.62 421.73,506.62" fill="#faffa8" />
  <polygon points="389.55,529.09 399.42,529.09 399.42,518.32 389.55,518.32" fill="#faffa8" />
  <polygon points="389.55,540.79 399.42,540.79 399.42,530.02 389.55,530.02" fill="#faffa8" />
  <polygon points="389.55,552.49 399.42,552.49 399.42,541.73 389.55,541.73" fill="#faffa8" />
  <polygon points="453.91,482.27 463.78,482.27 463.78,471.51 453.91,471.51" fill="#faffa8" />
  <polygon points="453.91,493.98 463.78,493.98 463.78,483.21 453.91,483.21" fill="#faffa8" />
  <polygon points="453.91,505.68 463.78,505.68 463.78,494.91 453.91,494.91" fill="#faffa8" />
  <polygon points="453.91,517.38 463.78,517.38 463.78,506.62 453.91,506.62" fill="#faffa8" />
  <polygon points="453.91,529.09 463.78,529.09 463.78,518.32 453.91,518.32" fill="#faffa8" />
  <polygon points="453.91,540.79 463.78,540.79 463.78,530.02 453.91,530.02" fill="#faffa8" />
  <polygon points="453.91,552.49 463.78,552.49 463.78,541.73 453.91,541.73" fill="#faffa8" />
  <polygon points="464.64,552.49 474.51,552.49 474.51,541.73 464.64,541.73" fill="#faffa8" />
  <polygon points="475.37,552.49 485.24,552.49 485.24,541.73 475.37,541.73" fill="#faffa8" />
  <polygon points="486.10,552.49 495.97,552.49 495.97,541.73 486.10,541.73" fill="#faffa8" />
  <polygon points="496.83,552.49 506.69,552.49 506.69,541.73 496.83,541.73" fill="#faffa8" />
  <polygon points="539.74,482.27 549.61,482.27 549.61,471.51 539.74,471.51" fill="#faffa8" />
  <polygon points="529.01,493.98 538.88,493.98 538.88,483.21 529.01,483.21" fill="#faffa8" />
  <polygon points="550.46,493.98 560.33,493.98 560.33,483.21 550.46,483.21" fill="#faffa8" />
  <polygon points="518.28,505.68 528.15,505.68 528.15,494.91 518.28,494.91" fill="#faffa8" />
  <polygon points="561.19,505.68 571.06,505.68 571.06,494.91 561.19,494.91" fill="#faffa8" />
  <polygon points="518.28,517.38 528.15,517.38 528.15,506.62 518.28,506.62" fill="#faffa8" />
  <polygon points="561.19,517.38 571.06,517.38 571.06,506.62 561.19,506.62" fill="#faffa8" />
  <polygon points="518.28,529.09 528.15,529.09 528.15,518.32 518.28,518.32" fill="#faffa8" />
  <polygon points="529.01,529.09 538.88,529.09 538.88,518.32 529.01,518.32" fill="#faffa8" />
  <polygon points="539.74,529.09 549.61,529.09 549.61,518.32 539.74,518.32" fill="#faffa8" />
  <polygon points="550.46,529.09 560.33,529.09 560.33,518.32 550.46,518.32" fill="#faffa8" />
  <polygon points="561.19,529.09 571.06,529.09 571.06,518.32 561.19,518.32" fill="#faffa8" />
  <polygon points="518.28,540.79 528.15,540.79 528.15,530.02 518.28,530.02" fill="#faffa8" />
  <polygon points="561.19,540.79 571.06,540.79 571.06,530.02 561.19,530.02" fill="#faffa8" />
  <polygon points="518.28,552.49 528.15,552.49 528.15,541.73 518.28,541.73" fill="#faffa8" />
  <polygon points="561.19,552.49 571.06,552.49 571.06,541.73 561.19,541.73" fill="#faffa8" />
  <polygon points="582.65,482.27 592.52,482.27 592.52,471.51 582.65,471.51" fill="#faffa8" />
  <polygon points="593.37,482.27 603.24,482.27 603.24,471.51 593.37,471.51" fill="#faffa8" />
  <polygon points="604.10,482.27 613.97,482.27 613.97,471.51 604.10,471.51" fill="#faffa8" />
  <polygon points="614.83,482.27 624.70,482.27 624.70,471.51 614.83,471.51" fill="#faffa8" />
  <polygon points="625.56,482.27 635.43,482.27 635.43,471.51 625.56,471.51" fill="#faffa8" />
  <polygon points="604.10,493.98 613.97,493.98 613.97,483.21 604.10,483.21" fill="#faffa8" />
  <polygon points="604.10,505.68 613.97,505.68 613.97,494.91 604.10,494.91" fill="#faffa8" />
  <polygon points="604.10,517.38 613.97,517.38 613.97,506.62 604.10,506.62" fill="#faffa8" />
  <polygon points="604.10,529.09 613.97,529.09 613.97,518.32 604.10,518.32" fill="#faffa8" />
  <polygon points="604.10,540.79 613.97,540.79 613.97,530.02 604.10,530.02" fill="#faffa8" />
  <polygon points="604.10,552.49 613.97,552.49 613.97,541.73 604.10,541.73" fill="#faffa8" />
  <polygon points="722.11,482.27 731.97,482.27 731.97,471.51 722.11,471.51" fill="#faffa8" />
  <polygon points="732.83,482.27 742.70,482.27 742.70,471.51 732.83,471.51" fill="#faffa8" />
  <polygon points="743.56,482.27 753.43,482.27 753.43,471.51 743.56,471.51" fill="#faffa8" />
  <polygon points="711.38,493.98 721.25,493.98 721.25,483.21 711.38,483.21" fill="#faffa8" />
  <polygon points="754.29,493.98 764.16,493.98 764.16,483.21 754.29,483.21" fill="#faffa8" />
  <polygon points="711.38,505.68 721.25,505.68 721.25,494.91 711.38,494.91" fill="#faffa8" />
  <polygon points="754.29,505.68 764.16,505.68 764.16,494.91 754.29,494.91" fill="#faffa8" />
  <polygon points="711.38,517.38 721.25,517.38 721.25,506.62 711.38,506.62" fill="#faffa8" />
  <polygon points="754.29,517.38 764.16,517.38 764.16,506.62 754.29,506.62" fill="#faffa8" />
  <polygon points="711.38,529.09 721.25,529.09 721.25,518.32 711.38,518.32" fill="#faffa8" />
  <polygon points="754.29,529.09 764.16,529.09 764.16,518.32 754.29,518.32" fill="#faffa8" />
  <polygon points="711.38,540.79 721.25,540.79 721.25,530.02 711.38,530.02" fill="#faffa8" />
  <polygon points="754.29,540.79 764.16,540.79 764.16,530.02 754.29,530.02" fill="#faffa8" />
  <polygon points="722.11,552.49 731.97,552.49 731.97,541.73 722.11,541.73" fill="#faffa8" />
  <polygon points="732.83,552.49 742.70,552.49 742.70,541.73 732.83,541.73" fill="#faffa8" />
  <polygon points="743.56,552.49 753.43,552.49 753.43,541.73 743.56,541.73" fill="#faffa8" />
  <polygon points="775.74,482.27 785.61,482.27 785.61,471.51 775.74,471.51" fill="#faffa8" />
  <polygon points="786.47,482.27 796.34,482.27 796.34,471.51 786.47,471.51" fill="#faffa8" />
  <polygon points="797.20,482.27 807.07,482.27 807.07,471.51 797.20,471.51" fill="#faffa8" />
  <polygon points="807.93,482.27 817.80,482.27 817.80,471.51 807.93,471.51" fill="#faffa8" />
  <polygon points="775.74,493.98 785.61,493.98 785.61,483.21 775.74,483.21" fill="#faffa8" />
  <polygon points="818.65,493.98 828.52,493.98 828.52,483.21 818.65,483.21" fill="#faffa8" />
  <polygon points="775.74,505.68 785.61,505.68 785.61,494.91 775.74,494.91" fill="#faffa8" />
  <polygon points="818.65,505.68 828.52,505.68 828.52,494.91 818.65,494.91" fill="#faffa8" />
  <polygon points="775.74,517.38 785.61,517.38 785.61,506.62 775.74,506.62" fill="#faffa8" />
  <polygon points="786.47,517.38 796.34,517.38 796.34,506.62 786.47,506.62" fill="#faffa8" />
  <polygon points="797.20,517.38 807.07,517.38 807.07,506.62 797.20,506.62" fill="#faffa8" />
  <polygon points="807.93,517.38 817.80,517.38 817.80,506.62 807.93,506.62" fill="#faffa8" />
  <polygon points="775.74,529.09 785.61,529.09 785.61,518.32 775.74,518.32" fill="#faffa8" />
  <polygon points="797.20,529.09 807.07,529.09 807.07,518.32 797.20,518.32" fill="#faffa8" />
  <polygon points="775.74,540.79 785.61,540.79 785.61,530.02 775.74,530.02" fill="#faffa8" />
  <polygon points="807.93,540.79 817.80,540.79 817.80,530.02 807.93,530.02" fill="#faffa8" />
  <polygon points="775.74,552.49 785.61,552.49 785.61,541.73 775.74,541.73" fill="#faffa8" />
  <polygon points="818.65,552.49 828.52,552.49 828.52,541.73 818.65,541.73" fill="#faffa8" />
  <polygon points="840.11,482.27 849.98,482.27 849.98,471.51 840.11,471.51" fill="#faffa8" />
  <polygon points="883.02,482.27 892.89,482.27 892.89,471.51 883.02,471.51" fill="#faffa8" />
  <polygon points="840.11,493.98 849.98,493.98 849.98,483.21 840.11,483.21" fill="#faffa8" />
  <polygon points="850.84,493.98 860.71,493.98 860.71,483.21 850.84,483.21" fill="#faffa8" />
  <polygon points="872.29,493.98 882.16,493.98 882.16,483.21 872.29,483.21" fill="#faffa8" />
  <polygon points="883.02,493.98 892.89,493.98 892.89,483.21 883.02,483.21" fill="#faffa8" />
  <polygon points="840.11,505.68 849.98,505.68 849.98,494.91 840.11,494.91" fill="#faffa8" />
  <polygon points="861.56,505.68 871.43,505.68 871.43,494.91 861.56,494.91" fill="#faffa8" />
  <polygon points="883.02,505.68 892.89,505.68 892.89,494.91 883.02,494.91" fill="#faffa8" />
  <polygon points="840.11,517.38 849.98,517.38 849.98,506.62 840.11,506.62" fill="#faffa8" />
  <polygon points="861.56,517.38 871.43,517.38 871.43,506.62 861.56,506.62" fill="#faffa8" />
  <polygon points="883.02,517.38 892.89,517.38 892.89,506.62 883.02,506.62" fill="#faffa8" />
  <polygon points="840.11,529.09 849.98,529.09 849.98,518.32 840.11,518.32" fill="#faffa8" />
  <polygon points="883.02,529.09 892.89,529.09 892.89,518.32 883.02,518.32" fill="#faffa8" />
  <polygon points="840.11,540.79 849.98,540.79 849.98,530.02 840.11,530.02" fill="#faffa8" />
  <polygon points="883.02,540.79 892.89,540.79 892.89,530.02 883.02,530.02" fill="#faffa8" />
  <polygon points="840.11,552.49 849.98,552.49 849.98,541.73 840.11,541.73" fill="#faffa8" />
  <polygon points="883.02,552.49 892.89,552.49 892.89,541.73 883.02,541.73" fill="#faffa8" />
  <polygon points="450.56,552.96 225.28,552.96 225.28,471.04 450.56,471.04" fill="#faffa8" />
  <polygon points="81.92,512.00 225.28,614.40 225.28,409.60" fill="#faffa8" />
</svg>
