<svg xmlns="http://www.w3.org/2000/svg" viewBox="0 0 1024 1024">
  <polygon points="-10.24,716.80 1034.24,716.80 1034.24,307.20 -10.24,307.20" fill="#faffa8" />
  <polygon points="30.72,675.84 993.28,675.84 993.28,348.16 30.72,348.16" fill="#bdff58" />
  <polygon points="430.08,552.96 225.28,552.96 225.28,471.04 430.08,471.04" fill="#faffa8" />
  <polygon points="81.92,512.00 225.28,614.40 225.28,409.60" fill="#faffa8" />
  <polygon points="461.49,478.56 477.32,478.56 477.32,466.45 461.49,466.45" fill="#faffa8" />
  <polygon points="478.69,478.56 494.52,478.56 494.52,466.45 478.69,466.45" fill="#faffa8" />
  <polygon points="495.89,478.56 511.72,478.56 511.72,466.45 495.89,466.45" fill="#faffa8" />
  <polygon points="513.10,478.56 528.92,478.56 528.92,466.45 513.10,466.45" fill="#faffa8" />
  <polygon points="461.49,491.72 477.32,491.72 477.32,479.61 461.49,479.61" fill="#faffa8" />
  <polygon points="530.30,491.72 546.13,491.72 546.13,479.61 530.30,479.61" fill="#faffa8" />
  <polygon points="461.49,504.89 477.32,504.89 477.32,492.78 461.49,492.78" fill="#faffa8" />
  <polygon points="530.30,504.89 546.13,504.89 546.13,492.78 530.30,492.78" fill="#faffa8" />
  <polygon points="461.49,518.06 477.32,518.06 477.32,505.94 461.49,505.94" fill="#faffa8" />
  <polygon points="478.69,518.06 494.52,518.06 494.52,505.94 478.69,505.94" fill="#faffa8" />
  <polygon points="495.89,518.06 511.72,518.06 511.72,505.94 495.89,505.94" fill="#faffa8" />
  <polygon points="513.10,518.06 528.92,518.06 528.92,505.94 513.10,505.94" fill="#faffa8" />
  <polygon points="461.49,531.22 477.32,531.22 477.32,519.11 461.49,519.11" fill="#faffa8" />
  <polygon points="495.89,531.22 511.72,531.22 511.72,519.11 495.89,519.11" fill="#faffa8" />
  <polygon points="461.49,544.39 477.32,544.39 477.32,532.28 461.49,532.28" fill="#faffa8" />
  <polygon points="513.10,544.39 528.92,544.39 528.92,532.28 513.10,532.28" fill="#faffa8" />
  <polygon points="461.49,557.55 477.32,557.55 477.32,545.44 461.49,545.44" fill="#faffa8" />
  <polygon points="530.30,557.55 546.13,557.55 546.13,545.44 530.30,545.44" fill="#faffa8" />
  <polygon points="564.71,478.56 580.53,478.56 580.53,466.45 564.71,466.45" fill="#faffa8" />
  <polygon points="581.91,478.56 597.74,478.56 597.74,466.45 581.91,466.45" fill="#faffa8" />
  <polygon points="599.11,478.56 614.94,478.56 614.94,466.45 599.11,466.45" fill="#faffa8" />
  <polygon points="616.32,478.56 632.14,478.56 632.14,466.45 616.32,466.45" fill="#faffa8" />
  <polygon points="633.52,478.56 649.35,478.56 649.35,466.45 633.52,466.45" fill="#faffa8" />
  <polygon points="564.71,491.72 580.53,491.72 580.53,479.61 564.71,479.61" fill="#faffa8" />
  <polygon points="564.71,504.89 580.53,504.89 580.53,492.78 564.71,492.78" fill="#faffa8" />
  <polygon points="564.71,518.06 580.53,518.06 580.53,505.94 564.71,505.94" fill="#faffa8" />
  <polygon points="581.91,518.06 597.74,518.06 597.74,505.94 581.91,505.94" fill="#faffa8" />
  <polygon points="599.11,518.06 614.94,518.06 614.94,505.94 599.11,505.94" fill="#faffa8" />
  <polygon points="616.32,518.06 632.14,518.06 632.14,505.94 616.32,505.94" fill="#faffa8" />
  <polygon points="564.71,531.22 580.53,531.22 580.53,519.11 564.71,519.11" fill="#faffa8" />
  <polygon points="564.71,544.39 580.53,544.39 580.53,532.28 564.71,532.28" fill="#faffa8" />
  <polygon points="564.71,557.55 580.53,557.55 580.53,545.44 564.71,545.44" fill="#faffa8" />
  <polygon points="581.91,557.55 597.74,557.55 597.74,545.44 581.91,545.44" fill="#faffa8" />
  <polygon points="599.11,557.55 614.94,557.55 614.94,545.44 599.11,545.44" fill="#faffa8" />
  <polygon points="616.32,557.55 632.14,557.55 632.14,545.44 616.32,545.44" fill="#faffa8" />
  <polygon points="633.52,557.55 649.35,557.55 649.35,545.44 633.52,545.44" fill="#faffa8" />
  <polygon points="771.15,478.56 786.97,478.56 786.97,466.45 771.15,466.45" fill="#faffa8" />
  <polygon points="839.96,478.56 855.79,478.56 855.79,466.45 839.96,466.45" fill="#faffa8" />
  <polygon points="771.15,491.72 786.97,491.72 786.97,479.61 771.15,479.61" fill="#faffa8" />
  <polygon points="839.96,491.72 855.79,491.72 855.79,479.61 839.96,479.61" fill="#faffa8" />
  <polygon points="771.15,504.89 786.97,504.89 786.97,492.78 771.15,492.78" fill="#faffa8" />
  <polygon points="839.96,504.89 855.79,504.89 855.79,492.78 839.96,492.78" fill="#faffa8" />
  <polygon points="771.15,518.06 786.97,518.06 786.97,505.94 771.15,505.94" fill="#faffa8" />
  <polygon points="839.96,518.06 855.79,518.06 855.79,505.94 839.96,505.94" fill="#faffa8" />
  <polygon points="771.15,531.22 786.97,531.22 786.97,519.11 771.15,519.11" fill="#faffa8" />
  <polygon points="839.96,531.22 855.79,531.22 855.79,519.11 839.96,519.11" fill="#faffa8" />
  <polygon points="771.15,544.39 786.97,544.39 786.97,532.28 771.15,532.28" fill="#faffa8" />
  <polygon points="839.96,544.39 855.79,544.39 855.79,532.28 839.96,532.28" fill="#faffa8" />
  <polygon points="788.35,557.55 804.18,557.55 804.18,545.44 788.35,545.44" fill="#faffa8" />
  <polygon points="805.55,557.55 821.38,557.55 821.38,545.44 805.55,545.44" fill="#faffa8" />
  <polygon points="822.76,557.55 838.58,557.55 838.58,545.44 822.76,545.44" fill="#faffa8" />
  <polygon points="977.58,478.56 993.41,478.56 993.41,466.45 977.58,466.45" fill="#faffa8" />
  <polygon points="994.79,478.56 1010.61,478.56 1010.61,466.45 994.79,466.45" fill="#faffa8" />
  <polygon points="1011.99,478.56 1027.82,478.56 1027.82,466.45 1011.99,466.45" fill="#faffa8" />
  <polygon points="1029.19,478.56 1045.02,478.56 1045.02,466.45 1029.19,466.45" fill="#faffa8" />
  <polygon points="1046.40,478.56 1062.22,478.56 1062.22,466.45 1046.40,466.45" fill="#faffa8" />
  <polygon points="977.58,491.72 993.41,491.72 993.41,479.61 977.58,479.61" fill="#faffa8" />
  <polygon points="977.58,504.89 993.41,504.89 993.41,492.78 977.58,492.78" fill="#faffa8" />
  <polygon points="977.58,518.06 993.41,518.06 993.41,505.94 977.58,505.94" fill="#faffa8" />
  <polygon points="994.79,518.06 1010.61,518.06 1010.61,505.94 994.79,505.94" fill="#faffa8" />
  <polygon points="1011.99,518.06 1027.82,518.06 1027.82,505.94 1011.99,505.94" fill="#faffa8" />
  <polygon points="1029.19,518.06 1045.02,518.06 1045.02,505.94 1029.19,505.94" fill="#faffa8" />
  <polygon points="977.58,531.22 993.41,531.22 993.41,519.11 977.58,519.11" fill="#faffa8" />
  <polygon points="977.58,544.39 993.41,544.39 993.41,532.28 977.58,532.28" fill="#faffa8" />
  <polygon points="977.58,557.55 993.41,557.55 993.41,545.44 977.58,545.44" fill="#faffa8" />
  <polygon points="994.79,557.55 1010.61,557.55 1010.61,545.44 994.79,545.44" fill="#faffa8" />
  <polygon points="1011.99,557.55 1027.82,557.55 1027.82,545.44 1011.99,545.44" fill="#faffa8" />
  <polygon points="1029.19,557.55 1045.02,557.55 1045.02,545.44 1029.19,545.44" fill="#faffa8" />
  <polygon points="1046.40,557.55 1062.22,557.55 1062.22,545.44 1046.40,545.44" fill="#faffa8" />
</svg>
