<svg xmlns="http://www.w3.org/2000/svg" viewBox="0 0 1024 1024">
  <polygon points="20.48,716.80 1003.52,716.80 1003.52,307.20 20.48,307.20" fill="#faffa8" />
  <polygon points="61.44,675.84 962.56,675.84 962.56,348.16 61.44,348.16" fill="#65f2ff" />
  <polygon points="267.40,463.70 294.00,463.70 294.00,446.20 267.40,446.20" fill="#faffa8" />
  <polygon points="383.05,463.70 409.65,463.70 409.65,446.20 383.05,446.20" fill="#faffa8" />
  <polygon points="267.40,482.71 294.00,482.71 294.00,465.22 267.40,465.22" fill="#faffa8" />
  <polygon points="296.31,482.71 322.91,482.71 322.91,465.22 296.31,465.22" fill="#faffa8" />
  <polygon points="354.14,482.71 380.74,482.71 380.74,465.22 354.14,465.22" fill="#faffa8" />
  <polygon points="383.05,482.71 409.65,482.71 409.65,465.22 383.05,465.22" fill="#faffa8" />
  <polygon points="267.40,501.73 294.00,501.73 294.00,484.23 267.40,484.23" fill="#faffa8" />
  <polygon points="325.22,501.73 351.82,501.73 351.82,484.23 325.22,484.23" fill="#faffa8" />
  <polygon points="383.05,501.73 409.65,501.73 409.65,484.23 383.05,484.23" fill="#faffa8" />
  <polygon points="267.40,520.75 294.00,520.75 294.00,503.25 267.40,503.25" fill="#faffa8" />
  <polygon points="325.22,520.75 351.82,520.75 351.82,503.25 325.22,503.25" fill="#faffa8" />
  <polygon points="383.05,520.75 409.65,520.75 409.65,503.25 383.05,503.25" fill="#faffa8" />
  <polygon points="267.40,539.77 294.00,539.77 294.00,522.27 267.40,522.27" fill="#faffa8" />
  <polygon points="383.05,539.77 409.65,539.77 409.65,522.27 383.05,522.27" fill="#faffa8" />
  <polygon points="267.40,558.78 294.00,558.78 294.00,541.29 267.40,541.29" fill="#faffa8" />
  <polygon points="383.05,558.78 409.65,558.78 409.65,541.29 383.05,541.29" fill="#faffa8" />
  <polygon points="267.40,577.80 294.00,577.80 294.00,560.30 267.40,560.30" fill="#faffa8" />
  <polygon points="383.05,577.80 409.65,577.80 409.65,560.30 383.05,560.30" fill="#faffa8" />
  <polygon points="469.79,463.70 496.39,463.70 496.39,446.20 469.79,446.20" fill="#faffa8" />
  <polygon points="498.70,463.70 525.30,463.70 525.30,446.20 498.70,446.20" fill="#faffa8" />
  <polygon points="527.61,463.70 554.21,463.70 554.21,446.20 527.61,446.20" fill="#faffa8" />
  <polygon points="440.87,482.71 467.47,482.71 467.47,465.22 440.87,465.22" fill="#faffa8" />
  <polygon points="556.53,482.71 583.13,482.71 583.13,465.22 556.53,465.22" fill="#faffa8" />
  <polygon points="556.53,501.73 583.13,501.73 583.13,484.23 556.53,484.23" fill="#faffa8" />
  <polygon points="527.61,520.75 554.21,520.75 554.21,503.25 527.61,503.25" fill="#faffa8" />
  <polygon points="498.70,539.77 525.30,539.77 525.30,522.27 498.70,522.27" fill="#faffa8" />
  <polygon points="469.79,558.78 496.39,558.78 496.39,541.29 469.79,541.29" fill="#faffa8" />
  <polygon points="440.87,577.80 467.47,577.80 467.47,560.30 440.87,560.30" fill="#faffa8" />
  <polygon points="469.79,577.80 496.39,577.80 496.39,560.30 469.79,560.30" fill="#faffa8" />
  <polygon points="498.70,577.80 525.30,577.80 525.30,560.30 498.70,560.30" fill="#faffa8" />
  <polygon points="527.61,577.80 554.21,577.80 554.21,560.30 527.61,560.30" fill="#faffa8" />
  <polygon points="556.53,577.80 583.13,577.80 583.13,560.30 556.53,560.30" fill="#faffa8" />
  <polygon points="614.35,463.70 640.95,463.70 640.95,446.20 614.35,446.20" fill="#faffa8" />
  <polygon points="643.26,463.70 669.86,463.70 669.86,446.20 643.26,446.20" fill="#faffa8" />
  <polygon points="672.18,463.70 698.78,463.70 698.78,446.20 672.18,446.20" fill="#faffa8" />
  <polygon points="701.09,463.70 727.69,463.70 727.69,446.20 701.09,446.20" fill="#faffa8" />
  <polygon points="730.00,463.70 756.60,463.70 756.60,446.20 730.00,446.20" fill="#faffa8" />
  <polygon points="614.35,482.71 640.95,482.71 640.95,465.22 614.35,465.22" fill="#faffa8" />
  <polygon points="614.35,501.73 640.95,501.73 640.95,484.23 614.35,484.23" fill="#faffa8" />
  <polygon points="643.26,501.73 669.86,501.73 669.86,484.23 643.26,484.23" fill="#faffa8" />
  <polygon points="672.18,501.73 698.78,501.73 698.78,484.23 672.18,484.23" fill="#faffa8" />
  <polygon points="701.09,501.73 727.69,501.73 727.69,484.23 701.09,484.23" fill="#faffa8" />
  <polygon points="730.00,520.75 756.60,520.75 756.60,503.25 730.00,503.25" fill="#faffa8" />
  <polygon points="730.00,539.77 756.60,539.77 756.60,522.27 730.00,522.27" fill="#faffa8" />
  <polygon points="614.35,558.78 640.95,558.78 640.95,541.29 614.35,541.29" fill="#faffa8" />
  <polygon points="730.00,558.78 756.60,558.78 756.60,541.29 730.00,541.29" fill="#faffa8" />
  <polygon points="643.26,577.80 669.86,577.80 669.86,560.30 643.26,560.30" fill="#faffa8" />
  <polygon points="672.18,577.80 698.78,577.80 698.78,560.30 672.18,560.30" fill="#faffa8" />
  <polygon points="701.09,577.80 727.69,577.80 727.69,560.30 701.09,560.30" fill="#faffa8" />
</svg>
