<svg xmlns="http://www.w3.org/2000/svg" viewBox="0 0 1024 1024">
  <polygon points="25.60,706.56 998.40,706.56 998.40,317.44 25.60,317.44" fill="#ffc437" />
  <polygon points="532.48,471.04 757.76,471.04 757.76,552.96 532.48,552.96" fill="#f9ffa8" />
  <polygon points="901.12,512.00 757.76,409.60 757.76,614.40" fill="#f9ffa8" />
  <polygon points="72.22,474.84 84.60,474.84 84.60,461.39 72.22,461.39" fill="#f9ffa8" />
  <polygon points="85.68,474.84 98.06,474.84 98.06,461.39 85.68,461.39" fill="#f9ffa8" />
  <polygon points="99.13,474.84 111.52,474.84 111.52,461.39 99.13,461.39" fill="#f9ffa8" />
  <polygon points="112.59,474.84 124.97,474.84 124.97,461.39 112.59,461.39" fill="#f9ffa8" />
  <polygon points="72.22,489.47 84.60,489.47 84.60,476.01 72.22,476.01" fill="#f9ffa8" />
  <polygon points="126.05,489.47 138.43,489.47 138.43,476.01 126.05,476.01" fill="#f9ffa8" />
  <polygon points="72.22,504.10 84.60,504.10 84.60,490.64 72.22,490.64" fill="#f9ffa8" />
  <polygon points="126.05,504.10 138.43,504.10 138.43,490.64 126.05,490.64" fill="#f9ffa8" />
  <polygon points="72.22,518.73 84.60,518.73 84.60,505.27 72.22,505.27" fill="#f9ffa8" />
  <polygon points="126.05,518.73 138.43,518.73 138.43,505.27 126.05,505.27" fill="#f9ffa8" />
  <polygon points="72.22,533.36 84.60,533.36 84.60,519.90 72.22,519.90" fill="#f9ffa8" />
  <polygon points="126.05,533.36 138.43,533.36 138.43,519.90 126.05,519.90" fill="#f9ffa8" />
  <polygon points="72.22,547.99 84.60,547.99 84.60,534.53 72.22,534.53" fill="#f9ffa8" />
  <polygon points="126.05,547.99 138.43,547.99 138.43,534.53 126.05,534.53" fill="#f9ffa8" />
  <polygon points="72.22,562.61 84.60,562.61 84.60,549.16 72.22,549.16" fill="#f9ffa8" />
  <polygon points="85.68,562.61 98.06,562.61 98.06,549.16 85.68,549.16" fill="#f9ffa8" />
  <polygon points="99.13,562.61 111.52,562.61 111.52,549.16 99.13,549.16" fill="#f9ffa8" />
  <polygon points="112.59,562.61 124.97,562.61 124.97,549.16 112.59,549.16" fill="#f9ffa8" />
  <polygon points="152.97,474.84 165.35,474.84 165.35,461.39 152.97,461.39" fill="#f9ffa8" />
  <polygon points="166.43,474.84 178.81,474.84 178.81,461.39 166.43,461.39" fill="#f9ffa8" />
  <polygon points="179.88,474.84 192.27,474.84 192.27,461.39 179.88,461.39" fill="#f9ffa8" />
  <polygon points="193.34,474.84 205.72,474.84 205.72,461.39 193.34,461.39" fill="#f9ffa8" />
  <polygon points="206.80,474.84 219.18,474.84 219.18,461.39 206.80,461.39" fill="#f9ffa8" />
  <polygon points="152.97,489.47 165.35,489.47 165.35,476.01 152.97,476.01" fill="#f9ffa8" />
  <polygon points="152.97,504.10 165.35,504.10 165.35,490.64 152.97,490.64" fill="#f9ffa8" />
  <polygon points="152.97,518.73 165.35,518.73 165.35,505.27 152.97,505.27" fill="#f9ffa8" />
  <polygon points="166.43,518.73 178.81,518.73 178.81,505.27 166.43,505.27" fill="#f9ffa8" />
  <polygon points="179.88,518.73 192.27,518.73 192.27,505.27 179.88,505.27" fill="#f9ffa8" />
  <polygon points="193.34,518.73 205.72,518.73 205.72,505.27 193.34,505.27" fill="#f9ffa8" />
  <polygon points="152.97,533.36 165.35,533.36 165.35,519.90 152.97,519.90" fill="#f9ffa8" />
  <polygon points="152.97,547.99 165.35,547.99 165.35,534.53 152.97,534.53" fill="#f9ffa8" />
  <polygon points="152.97,562.61 165.35,562.61 165.35,549.16 152.97,549.16" fill="#f9ffa8" />
  <polygon points="166.43,562.61 178.81,562.61 178.81,549.16 166.43,549.16" fill="#f9ffa8" />
  <polygon points="179.88,562.61 192.27,562.61 192.27,549.16 179.88,549.16" fill="#f9ffa8" />
  <polygon points="193.34,562.61 205.72,562.61 205.72,549.16 193.34,549.16" fill="#f9ffa8" />
  <polygon points="206.80,562.61 219.18,562.61 219.18,549.16 206.80,549.16" fill="#f9ffa8" />
  <polygon points="233.72,474.84 246.10,474.84 246.10,461.39 233.72,461.39" fill="#f9ffa8" />
  <polygon points="247.18,474.84 259.56,474.84 259.56,461.39 247.18,461.39" fill="#f9ffa8" />
  <polygon points="260.63,474.84 273.02,474.84 273.02,461.39 260.63,461.39" fill="#f9ffa8" />
  <polygon points="274.09,474.84 286.47,474.84 286.47,461.39 274.09,461.39" fill="#f9ffa8" />
  <polygon points="287.55,474.84 299.93,474.84 299.93,461.39 287.55,461.39" fill="#f9ffa8" />
  <polygon points="260.63,489.47 273.02,489.47 273.02,476.01 260.63,476.01" fill="#f9ffa8" />
  <polygon points="260.63,504.10 273.02,504.10 273.02,490.64 260.63,490.64" fill="#f9ffa8" />
  <polygon points="260.63,518.73 273.02,518.73 273.02,505.27 260.63,505.27" fill="#f9ffa8" />
  <polygon points="260.63,533.36 273.02,533.36 273.02,519.90 260.63,519.90" fill="#f9ffa8" />
  <polygon points="260.63,547.99 273.02,547.99 273.02,534.53 260.63,534.53" fill="#f9ffa8" />
  <polygon points="260.63,562.61 273.02,562.61 273.02,549.16 260.63,549.16" fill="#f9ffa8" />
  <polygon points="327.93,474.84 340.31,474.84 340.31,461.39 327.93,461.39" fill="#f9ffa8" />
  <polygon points="341.38,474.84 353.77,474.84 353.77,461.39 341.38,461.39" fill="#f9ffa8" />
  <polygon points="354.84,474.84 367.22,474.84 367.22,461.39 354.84,461.39" fill="#f9ffa8" />
  <polygon points="314.47,489.47 326.85,489.47 326.85,476.01 314.47,476.01" fill="#f9ffa8" />
  <polygon points="368.30,489.47 380.68,489.47 380.68,476.01 368.30,476.01" fill="#f9ffa8" />
  <polygon points="314.47,504.10 326.85,504.10 326.85,490.64 314.47,490.64" fill="#f9ffa8" />
  <polygon points="368.30,504.10 380.68,504.10 380.68,490.64 368.30,490.64" fill="#f9ffa8" />
  <polygon points="314.47,518.73 326.85,518.73 326.85,505.27 314.47,505.27" fill="#f9ffa8" />
  <polygon points="368.30,518.73 380.68,518.73 380.68,505.27 368.30,505.27" fill="#f9ffa8" />
  <polygon points="314.47,533.36 326.85,533.36 326.85,519.90 314.47,519.90" fill="#f9ffa8" />
  <polygon points="368.30,533.36 380.68,533.36 380.68,519.90 368.30,519.90" fill="#f9ffa8" />
  <polygon points="314.47,547.99 326.85,547.99 326.85,534.53 314.47,534.53" fill="#f9ffa8" />
  <polygon points="368.30,547.99 380.68,547.99 380.68,534.53 368.30,534.53" fill="#f9ffa8" />
  <polygon points="327.93,562.61 340.31,562.61 340.31,549.16 327.93,549.16" fill="#f9ffa8" />
  <polygon points="341.38,562.61 353.77,562.61 353.77,549.16 341.38,549.16" fill="#f9ffa8" />
  <polygon points="354.84,562.61 367.22,562.61 367.22,549.16 354.84,549.16" fill="#f9ffa8" />
  <polygon points="395.22,474.84 407.60,474.84 407.60,461.39 395.22,461.39" fill="#f9ffa8" />
  <polygon points="449.05,474.84 461.43,474.84 461.43,461.39 449.05,461.39" fill="#f9ffa8" />
  <polygon points="395.22,489.47 407.60,489.47 407.60,476.01 395.22,476.01" fill="#f9ffa8" />
  <polygon points="449.05,489.47 461.43,489.47 461.43,476.01 449.05,476.01" fill="#f9ffa8" />
  <polygon points="395.22,504.10 407.60,504.10 407.60,490.64 395.22,490.64" fill="#f9ffa8" />
  <polygon points="449.05,504.10 461.43,504.10 461.43,490.64 449.05,490.64" fill="#f9ffa8" />
  <polygon points="395.22,518.73 407.60,518.73 407.60,505.27 395.22,505.27" fill="#f9ffa8" />
  <polygon points="449.05,518.73 461.43,518.73 461.43,505.27 449.05,505.27" fill="#f9ffa8" />
  <polygon points="395.22,533.36 407.60,533.36 407.60,519.90 395.22,519.90" fill="#f9ffa8" />
  <polygon points="449.05,533.36 461.43,533.36 461.43,519.90 449.05,519.90" fill="#f9ffa8" />
  <polygon points="395.22,547.99 407.60,547.99 407.60,534.53 395.22,534.53" fill="#f9ffa8" />
  <polygon points="449.05,547.99 461.43,547.99 461.43,534.53 449.05,534.53" fill="#f9ffa8" />
  <polygon points="408.68,562.61 421.06,562.61 421.06,549.16 408.68,549.16" fill="#f9ffa8" />
  <polygon points="422.13,562.61 434.52,562.61 434.52,549.16 422.13,549.16" fill="#f9ffa8" />
  <polygon points="435.59,562.61 447.97,562.61 447.97,549.16 435.59,549.16" fill="#f9ffa8" />
  <polygon points="475.97,474.84 488.35,474.84 488.35,461.39 475.97,461.39" fill="#f9ffa8" />
  <polygon points="489.43,474.84 501.81,474.84 501.81,461.39 489.43,461.39" fill="#f9ffa8" />
  <polygon points="502.88,474.84 515.27,474.84 515.27,461.39 502.88,461.39" fill="#f9ffa8" />
  <polygon points="516.34,474.84 528.72,474.84 528.72,461.39 516.34,461.39" fill="#f9ffa8" />
  <polygon points="475.97,489.47 488.35,489.47 488.35,476.01 475.97,476.01" fill="#f9ffa8" />
  <polygon points="529.80,489.47 542.18,489.47 542.18,476.01 529.80,476.01" fill="#f9ffa8" />
  <polygon points="475.97,504.10 488.35,504.10 488.35,490.64 475.97,490.64" fill="#f9ffa8" />
  <polygon points="529.80,504.10 542.18,504.10 542.18,490.64 529.80,490.64" fill="#f9ffa8" />
  <polygon points="475.97,518.73 488.35,518.73 488.35,505.27 475.97,505.27" fill="#f9ffa8" />
  <polygon points="489.43,518.73 501.81,518.73 501.81,505.27 489.43,505.27" fill="#f9ffa8" />
  <polygon points="502.88,518.73 515.27,518.73 515.27,505.27 502.88,505.27" fill="#f9ffa8" />
  <polygon points="516.34,518.73 528.72,518.73 528.72,505.27 516.34,505.27" fill="#f9ffa8" />
  <polygon points="475.97,533.36 488.35,533.36 488.35,519.90 475.97,519.90" fill="#f9ffa8" />
  <polygon points="502.88,533.36 515.27,533.36 515.27,519.90 502.88,519.90" fill="#f9ffa8" />
  <polygon points="475.97,547.99 488.35,547.99 488.35,534.53 475.97,534.53" fill="#f9ffa8" />
  <polygon points="516.34,547.99 528.72,547.99 528.72,534.53 516.34,534.53" fill="#f9ffa8" />
  <polygon points="475.97,562.61 488.35,562.61 488.35,549.16 475.97,549.16" fill="#f9ffa8" />
  <polygon points="529.80,562.61 542.18,562.61 542.18,549.16 529.80,549.16" fill="#f9ffa8" />
</svg>
