<svg xmlns="http://www.w3.org/2000/svg" viewBox="0 0 1024 1024">
  <polygon points="10.24,716.80 1013.76,716.80 1013.76,307.20 10.24,307.20" fill="#65f2ff" />
  <polygon points="430.08,552.96 245.76,552.96 245.76,471.04 430.08,471.04" fill="#faffa8" />
  <polygon points="102.40,512.00 245.76,614.40 245.76,409.60" fill="#faffa8" />
  <polygon points="636.79,474.84 654.59,474.84 654.59,461.39 636.79,461.39" fill="#faffa8" />
  <polygon points="617.45,489.47 635.24,489.47 635.24,476.01 617.45,476.01" fill="#faffa8" />
  <polygon points="656.13,489.47 673.93,489.47 673.93,476.01 656.13,476.01" fill="#faffa8" />
  <polygon points="598.11,504.10 615.90,504.10 615.90,490.64 598.11,490.64" fill="#faffa8" />
  <polygon points="675.48,504.10 693.27,504.10 693.27,490.64 675.48,490.64" fill="#faffa8" />
  <polygon points="598.11,518.73 615.90,518.73 615.90,505.27 598.11,505.27" fill="#faffa8" />
  <polygon points="675.48,518.73 693.27,518.73 693.27,505.27 675.48,505.27" fill="#faffa8" />
  <polygon points="598.11,533.36 615.90,533.36 615.90,519.90 598.11,519.90" fill="#faffa8" />
  <polygon points="617.45,533.36 635.24,533.36 635.24,519.90 617.45,519.90" fill="#faffa8" />
  <polygon points="636.79,533.36 654.59,533.36 654.59,519.90 636.79,519.90" fill="#faffa8" />
  <polygon points="656.13,533.36 673.93,533.36 673.93,519.90 656.13,519.90" fill="#faffa8" />
  <polygon points="675.48,533.36 693.27,533.36 693.27,519.90 675.48,519.90" fill="#faffa8" />
  <polygon points="598.11,547.99 615.90,547.99 615.90,534.53 598.11,534.53" fill="#faffa8" />
  <polygon points="675.48,547.99 693.27,547.99 693.27,534.53 675.48,534.53" fill="#faffa8" />
  <polygon points="598.11,562.61 615.90,562.61 615.90,549.16 598.11,549.16" fill="#faffa8" />
  <polygon points="675.48,562.61 693.27,562.61 693.27,549.16 675.48,549.16" fill="#faffa8" />
  <polygon points="714.16,474.84 731.96,474.84 731.96,461.39 714.16,461.39" fill="#faffa8" />
  <polygon points="733.50,474.84 751.30,474.84 751.30,461.39 733.50,461.39" fill="#faffa8" />
  <polygon points="752.84,474.84 770.64,474.84 770.64,461.39 752.84,461.39" fill="#faffa8" />
  <polygon points="772.19,474.84 789.98,474.84 789.98,461.39 772.19,461.39" fill="#faffa8" />
  <polygon points="714.16,489.47 731.96,489.47 731.96,476.01 714.16,476.01" fill="#faffa8" />
  <polygon points="791.53,489.47 809.32,489.47 809.32,476.01 791.53,476.01" fill="#faffa8" />
  <polygon points="714.16,504.10 731.96,504.10 731.96,490.64 714.16,490.64" fill="#faffa8" />
  <polygon points="791.53,504.10 809.32,504.10 809.32,490.64 791.53,490.64" fill="#faffa8" />
  <polygon points="714.16,518.73 731.96,518.73 731.96,505.27 714.16,505.27" fill="#faffa8" />
  <polygon points="733.50,518.73 751.30,518.73 751.30,505.27 733.50,505.27" fill="#faffa8" />
  <polygon points="752.84,518.73 770.64,518.73 770.64,505.27 752.84,505.27" fill="#faffa8" />
  <polygon points="772.19,518.73 789.98,518.73 789.98,505.27 772.19,505.27" fill="#faffa8" />
  <polygon points="714.16,533.36 731.96,533.36 731.96,519.90 714.16,519.90" fill="#faffa8" />
  <polygon points="752.84,533.36 770.64,533.36 770.64,519.90 752.84,519.90" fill="#faffa8" />
  <polygon points="714.16,547.99 731.96,547.99 731.96,534.53 714.16,534.53" fill="#faffa8" />
  <polygon points="772.19,547.99 789.98,547.99 789.98,534.53 772.19,534.53" fill="#faffa8" />
  <polygon points="714.16,562.61 731.96,562.61 731.96,549.16 714.16,549.16" fill="#faffa8" />
  <polygon points="791.53,562.61 809.32,562.61 809.32,549.16 791.53,549.16" fill="#faffa8" />
  <polygon points="830.21,474.84 848.01,474.84 848.01,461.39 830.21,461.39" fill="#faffa8" />
  <polygon points="849.56,474.84 867.35,474.84 867.35,461.39 849.56,461.39" fill="#faffa8" />
  <polygon points="868.90,474.84 886.69,474.84 886.69,461.39 868.90,461.39" fill="#faffa8" />
  <polygon points="888.24,474.84 906.04,474.84 906.04,461.39 888.24,461.39" fill="#faffa8" />
  <polygon points="907.58,474.84 925.38,474.84 925.38,461.39 907.58,461.39" fill="#faffa8" />
  <polygon points="830.21,489.47 848.01,489.47 848.01,476.01 830.21,476.01" fill="#faffa8" />
  <polygon points="830.21,504.10 848.01,504.10 848.01,490.64 830.21,490.64" fill="#faffa8" />
  <polygon points="830.21,518.73 848.01,518.73 848.01,505.27 830.21,505.27" fill="#faffa8" />
  <polygon points="849.56,518.73 867.35,518.73 867.35,505.27 849.56,505.27" fill="#faffa8" />
  <polygon points="868.90,518.73 886.69,518.73 886.69,505.27 868.90,505.27" fill="#faffa8" />
  <polygon points="888.24,518.73 906.04,518.73 906.04,505.27 888.24,505.27" fill="#faffa8" />
  <polygon points="830.21,533.36 848.01,533.36 848.01,519.90 830.21,519.90" fill="#faffa8" />
  <polygon points="830.21,547.99 848.01,547.99 848.01,534.53 830.21,534.53" fill="#faffa8" />
  <polygon points="830.21,562.61 848.01,562.61 848.01,549.16 830.21,549.16" fill="#faffa8" />
  <polygon points="849.56,562.61 867.35,562.61 867.35,549.16 849.56,549.16" fill="#faffa8" />
  <polygon points="868.90,562.61 886.69,562.61 886.69,549.16 868.90,549.16" fill="#faffa8" />
  <polygon points="888.24,562.61 906.04,562.61 906.04,549.16 888.24,549.16" fill="#faffa8" />
  <polygon points="907.58,562.61 925.38,562.61 925.38,549.16 907.58,549.16" fill="#faffa8" />
</svg>
