<svg xmlns="http://www.w3.org/2000/svg" viewBox="0 0 1024 1024">
  <polygon points="20.48,798.72 1003.52,798.72 1003.52,225.28 20.48,225.28" fill="#faffa8" />
  <polygon points="51.20,768.00 972.80,768.00 972.80,256.00 51.20,256.00" fill="#bdff58" />
  <polygon points="496.64,737.28 496.64,286.72 527.36,286.72 527.36,737.28" fill="#faffa8" />
  <polygon points="143.60,608.87 149.22,608.87 149.22,599.45 143.60,599.45" fill="#faffa8" />
  <polygon points="168.01,608.87 173.62,608.87 173.62,599.45 168.01,599.45" fill="#faffa8" />
  <polygon points="143.60,619.11 149.22,619.11 149.22,609.69 143.60,609.69" fill="#faffa8" />
  <polygon points="168.01,619.11 173.62,619.11 173.62,609.69 168.01,609.69" fill="#faffa8" />
  <polygon points="143.60,629.35 149.22,629.35 149.22,619.93 143.60,619.93" fill="#faffa8" />
  <polygon points="168.01,629.35 173.62,629.35 173.62,619.93 168.01,619.93" fill="#faffa8" />
  <polygon points="143.60,639.59 149.22,639.59 149.22,630.17 143.60,630.17" fill="#faffa8" />
  <polygon points="149.70,639.59 155.32,639.59 155.32,630.17 149.70,630.17" fill="#faffa8" />
  <polygon points="155.80,639.59 161.42,639.59 161.42,630.17 155.80,630.17" fill="#faffa8" />
  <polygon points="161.91,639.59 167.52,639.59 167.52,630.17 161.91,630.17" fill="#faffa8" />
  <polygon points="168.01,639.59 173.62,639.59 173.62,630.17 168.01,630.17" fill="#faffa8" />
  <polygon points="143.60,649.83 149.22,649.83 149.22,640.41 143.60,640.41" fill="#faffa8" />
  <polygon points="168.01,649.83 173.62,649.83 173.62,640.41 168.01,640.41" fill="#faffa8" />
  <polygon points="143.60,660.07 149.22,660.07 149.22,650.65 143.60,650.65" fill="#faffa8" />
  <polygon points="168.01,660.07 173.62,660.07 173.62,650.65 168.01,650.65" fill="#faffa8" />
  <polygon points="143.60,670.31 149.22,670.31 149.22,660.89 143.60,660.89" fill="#faffa8" />
  <polygon points="168.01,670.31 173.62,670.31 173.62,660.89 168.01,660.89" fill="#faffa8" />
  <polygon points="186.31,608.87 191.92,608.87 191.92,599.45 186.31,599.45" fill="#faffa8" />
  <polygon points="192.41,608.87 198.02,608.87 198.02,599.45 192.41,599.45" fill="#faffa8" />
  <polygon points="198.51,608.87 204.12,608.87 204.12,599.45 198.51,599.45" fill="#faffa8" />
  <polygon points="180.21,619.11 185.82,619.11 185.82,609.69 180.21,609.69" fill="#faffa8" />
  <polygon points="204.61,619.11 210.22,619.11 210.22,609.69 204.61,609.69" fill="#faffa8" />
  <polygon points="180.21,629.35 185.82,629.35 185.82,619.93 180.21,619.93" fill="#faffa8" />
  <polygon points="204.61,629.35 210.22,629.35 210.22,619.93 204.61,619.93" fill="#faffa8" />
  <polygon points="180.21,639.59 185.82,639.59 185.82,630.17 180.21,630.17" fill="#faffa8" />
  <polygon points="204.61,639.59 210.22,639.59 210.22,630.17 204.61,630.17" fill="#faffa8" />
  <polygon points="180.21,649.83 185.82,649.83 185.82,640.41 180.21,640.41" fill="#faffa8" />
  <polygon points="204.61,649.83 210.22,649.83 210.22,640.41 204.61,640.41" fill="#faffa8" />
  <polygon points="180.21,660.07 185.82,660.07 185.82,650.65 180.21,650.65" fill="#faffa8" />
  <polygon points="204.61,660.07 210.22,660.07 210.22,650.65 204.61,650.65" fill="#faffa8" />
  <polygon points="186.31,670.31 191.92,670.31 191.92,660.89 186.31,660.89" fill="#faffa8" />
  <polygon points="192.41,670.31 198.02,670.31 198.02,660.89 192.41,660.89" fill="#faffa8" />
  <polygon points="198.51,670.31 204.12,670.31 204.12,660.89 198.51,660.89" fill="#faffa8" />
  <polygon points="222.91,608.87 228.52,608.87 228.52,599.45 222.91,599.45" fill="#faffa8" />
  <polygon points="229.01,608.87 234.62,608.87 234.62,599.45 229.01,599.45" fill="#faffa8" />
  <polygon points="235.11,608.87 240.72,608.87 240.72,599.45 235.11,599.45" fill="#faffa8" />
  <polygon points="241.21,608.87 246.82,608.87 246.82,599.45 241.21,599.45" fill="#faffa8" />
  <polygon points="216.81,619.11 222.42,619.11 222.42,609.69 216.81,609.69" fill="#faffa8" />
  <polygon points="216.81,629.35 222.42,629.35 222.42,619.93 216.81,619.93" fill="#faffa8" />
  <polygon points="222.91,639.59 228.52,639.59 228.52,630.17 222.91,630.17" fill="#faffa8" />
  <polygon points="229.01,639.59 234.62,639.59 234.62,630.17 229.01,630.17" fill="#faffa8" />
  <polygon points="235.11,639.59 240.72,639.59 240.72,630.17 235.11,630.17" fill="#faffa8" />
  <polygon points="241.21,649.83 246.82,649.83 246.82,640.41 241.21,640.41" fill="#faffa8" />
  <polygon points="241.21,660.07 246.82,660.07 246.82,650.65 241.21,650.65" fill="#faffa8" />
  <polygon points="216.81,670.31 222.42,670.31 222.42,660.89 216.81,660.89" fill="#faffa8" />
  <polygon points="222.91,670.31 228.52,670.31 228.52,660.89 222.91,660.89" fill="#faffa8" />
  <polygon points="229.01,670.31 234.62,670.31 234.62,660.89 229.01,660.89" fill="#faffa8" />
  <polygon points="235.11,670.31 240.72,670.31 240.72,660.89 235.11,660.89" fill="#faffa8" />
  <polygon points="253.41,608.87 259.02,608.87 259.02,599.45 253.41,599.45" fill="#faffa8" />
  <polygon points="259.51,608.87 265.12,608.87 265.12,599.45 259.51,599.45" fill="#faffa8" />
  <polygon points="265.61,608.87 271.22,608.87 271.22,599.45 265.61,599.45" fill="#faffa8" />
  <polygon points="271.71,608.87 277.33,608.87 277.33,599.45 271.71,599.45" fill="#faffa8" />
  <polygon points="253.41,619.11 259.02,619.11 259.02,609.69 253.41,609.69" fill="#faffa8" />
  <polygon points="277.81,619.11 283.43,619.11 283.43,609.69 277.81,609.69" fill="#faffa8" />
  <polygon points="253.41,629.35 259.02,629.35 259.02,619.93 253.41,619.93" fill="#faffa8" />
  <polygon points="277.81,629.35 283.43,629.35 283.43,619.93 277.81,619.93" fill="#faffa8" />
  <polygon points="253.41,639.59 259.02,639.59 259.02,630.17 253.41,630.17" fill="#faffa8" />
  <polygon points="259.51,639.59 265.12,639.59 265.12,630.17 259.51,630.17" fill="#faffa8" />
  <polygon points="265.61,639.59 271.22,639.59 271.22,630.17 265.61,630.17" fill="#faffa8" />
  <polygon points="271.71,639.59 277.33,639.59 277.33,630.17 271.71,630.17" fill="#faffa8" />
  <polygon points="253.41,649.83 259.02,649.83 259.02,640.41 253.41,640.41" fill="#faffa8" />
  <polygon points="253.41,660.07 259.02,660.07 259.02,650.65 253.41,650.65" fill="#faffa8" />
  <polygon points="253.41,670.31 259.02,670.31 259.02,660.89 253.41,660.89" fill="#faffa8" />
  <polygon points="290.01,608.87 295.63,608.87 295.63,599.45 290.01,599.45" fill="#faffa8" />
  <polygon points="296.11,608.87 301.73,608.87 301.73,599.45 296.11,599.45" fill="#faffa8" />
  <polygon points="302.22,608.87 307.83,608.87 307.83,599.45 302.22,599.45" fill="#faffa8" />
  <polygon points="308.32,608.87 313.93,608.87 313.93,599.45 308.32,599.45" fill="#faffa8" />
  <polygon points="314.42,608.87 320.03,608.87 320.03,599.45 314.42,599.45" fill="#faffa8" />
  <polygon points="302.22,619.11 307.83,619.11 307.83,609.69 302.22,609.69" fill="#faffa8" />
  <polygon points="302.22,629.35 307.83,629.35 307.83,619.93 302.22,619.93" fill="#faffa8" />
  <polygon points="302.22,639.59 307.83,639.59 307.83,630.17 302.22,630.17" fill="#faffa8" />
  <polygon points="302.22,649.83 307.83,649.83 307.83,640.41 302.22,640.41" fill="#faffa8" />
  <polygon points="302.22,660.07 307.83,660.07 307.83,650.65 302.22,650.65" fill="#faffa8" />
  <polygon points="290.01,670.31 295.63,670.31 295.63,660.89 290.01,660.89" fill="#faffa8" />
  <polygon points="296.11,670.31 301.73,670.31 301.73,660.89 296.11,660.89" fill="#faffa8" />
  <polygon points="302.22,670.31 307.83,670.31 307.83,660.89 302.22,660.89" fill="#faffa8" />
  <polygon points="308.32,670.31 313.93,670.31 313.93,660.89 308.32,660.89" fill="#faffa8" />
  <polygon points="314.42,670.31 320.03,670.31 320.03,660.89 314.42,660.89" fill="#faffa8" />
  <polygon points="326.62,608.87 332.23,608.87 332.23,599.45 326.62,599.45" fill="#faffa8" />
  <polygon points="332.72,608.87 338.33,608.87 338.33,599.45 332.72,599.45" fill="#faffa8" />
  <polygon points="338.82,608.87 344.43,608.87 344.43,599.45 338.82,599.45" fill="#faffa8" />
  <polygon points="344.92,608.87 350.53,608.87 350.53,599.45 344.92,599.45" fill="#faffa8" />
  <polygon points="351.02,608.87 356.63,608.87 356.63,599.45 351.02,599.45" fill="#faffa8" />
  <polygon points="338.82,619.11 344.43,619.11 344.43,609.69 338.82,609.69" fill="#faffa8" />
  <polygon points="338.82,629.35 344.43,629.35 344.43,619.93 338.82,619.93" fill="#faffa8" />
  <polygon points="338.82,639.59 344.43,639.59 344.43,630.17 338.82,630.17" fill="#faffa8" />
  <polygon points="338.82,649.83 344.43,649.83 344.43,640.41 338.82,640.41" fill="#faffa8" />
  <polygon points="338.82,660.07 344.43,660.07 344.43,650.65 338.82,650.65" fill="#faffa8" />
  <polygon points="338.82,670.31 344.43,670.31 344.43,660.89 338.82,660.89" fill="#faffa8" />
  <polygon points="375.42,608.87 381.03,608.87 381.03,599.45 375.42,599.45" fill="#faffa8" />
  <polygon points="369.32,619.11 374.93,619.11 374.93,609.69 369.32,609.69" fill="#faffa8" />
  <polygon points="381.52,619.11 387.13,619.11 387.13,609.69 381.52,609.69" fill="#faffa8" />
  <polygon points="363.22,629.35 368.83,629.35 368.83,619.93 363.22,619.93" fill="#faffa8" />
  <polygon points="387.62,629.35 393.23,629.35 393.23,619.93 387.62,619.93" fill="#faffa8" />
  <polygon points="363.22,639.59 368.83,639.59 368.83,630.17 363.22,630.17" fill="#faffa8" />
  <polygon points="387.62,639.59 393.23,639.59 393.23,630.17 387.62,630.17" fill="#faffa8" />
  <polygon points="363.22,649.83 368.83,649.83 368.83,640.41 363.22,640.41" fill="#faffa8" />
  <polygon points="369.32,649.83 374.93,649.83 374.93,640.41 369.32,640.41" fill="#faffa8" />
  <polygon points="375.42,649.83 381.03,649.83 381.03,640.41 375.42,640.41" fill="#faffa8" />
  <polygon points="381.52,649.83 387.13,649.83 387.13,640.41 381.52,640.41" fill="#faffa8" />
  <polygon points="387.62,649.83 393.23,649.83 393.23,640.41 387.62,640.41" fill="#faffa8" />
  <polygon points="363.22,660.07 368.83,660.07 368.83,650.65 363.22,650.65" fill="#faffa8" />
  <polygon points="387.62,660.07 393.23,660.07 393.23,650.65 387.62,650.65" fill="#faffa8" />
  <polygon points="363.22,670.31 368.83,670.31 368.83,660.89 363.22,660.89" fill="#faffa8" />
  <polygon points="387.62,670.31 393.23,670.31 393.23,660.89 387.62,660.89" fill="#faffa8" />
  <polygon points="399.82,608.87 405.43,608.87 405.43,599.45 399.82,599.45" fill="#faffa8" />
  <polygon points="399.82,619.11 405.43,619.11 405.43,609.69 399.82,609.69" fill="#faffa8" />
  <polygon points="399.82,629.35 405.43,629.35 405.43,619.93 399.82,619.93" fill="#faffa8" />
  <polygon points="399.82,639.59 405.43,639.59 405.43,630.17 399.82,630.17" fill="#faffa8" />
  <polygon points="399.82,649.83 405.43,649.83 405.43,640.41 399.82,640.41" fill="#faffa8" />
  <polygon points="399.82,660.07 405.43,660.07 405.43,650.65 399.82,650.65" fill="#faffa8" />
  <polygon points="399.82,670.31 405.43,670.31 405.43,660.89 399.82,660.89" fill="#faffa8" />
  <polygon points="405.92,670.31 411.53,670.31 411.53,660.89 405.92,660.89" fill="#faffa8" />
  <polygon points="412.02,670.31 417.64,670.31 417.64,660.89 412.02,660.89" fill="#faffa8" />
  <polygon points="418.12,670.31 423.74,670.31 423.74,660.89 418.12,660.89" fill="#faffa8" />
  <polygon points="424.22,670.31 429.84,670.31 429.84,660.89 424.22,660.89" fill="#faffa8" />
  <polygon points="594.24,608.87 601.57,608.87 601.57,599.45 594.24,599.45" fill="#faffa8" />
  <polygon points="602.20,608.87 609.53,608.87 609.53,599.45 602.20,599.45" fill="#faffa8" />
  <polygon points="610.17,608.87 617.49,608.87 617.49,599.45 610.17,599.45" fill="#faffa8" />
  <polygon points="618.13,608.87 625.46,608.87 625.46,599.45 618.13,599.45" fill="#faffa8" />
  <polygon points="594.24,619.11 601.57,619.11 601.57,609.69 594.24,609.69" fill="#faffa8" />
  <polygon points="626.10,619.11 633.42,619.11 633.42,609.69 626.10,609.69" fill="#faffa8" />
  <polygon points="594.24,629.35 601.57,629.35 601.57,619.93 594.24,619.93" fill="#faffa8" />
  <polygon points="626.10,629.35 633.42,629.35 633.42,619.93 626.10,619.93" fill="#faffa8" />
  <polygon points="594.24,639.59 601.57,639.59 601.57,630.17 594.24,630.17" fill="#faffa8" />
  <polygon points="602.20,639.59 609.53,639.59 609.53,630.17 602.20,630.17" fill="#faffa8" />
  <polygon points="610.17,639.59 617.49,639.59 617.49,630.17 610.17,630.17" fill="#faffa8" />
  <polygon points="618.13,639.59 625.46,639.59 625.46,630.17 618.13,630.17" fill="#faffa8" />
  <polygon points="594.24,649.83 601.57,649.83 601.57,640.41 594.24,640.41" fill="#faffa8" />
  <polygon points="594.24,660.07 601.57,660.07 601.57,650.65 594.24,650.65" fill="#faffa8" />
  <polygon points="594.24,670.31 601.57,670.31 601.57,660.89 594.24,660.89" fill="#faffa8" />
  <polygon points="657.95,608.87 665.28,608.87 665.28,599.45 657.95,599.45" fill="#faffa8" />
  <polygon points="649.99,619.11 657.32,619.11 657.32,609.69 649.99,609.69" fill="#faffa8" />
  <polygon points="665.92,619.11 673.25,619.11 673.25,609.69 665.92,609.69" fill="#faffa8" />
  <polygon points="642.03,629.35 649.35,629.35 649.35,619.93 642.03,619.93" fill="#faffa8" />
  <polygon points="673.88,629.35 681.21,629.35 681.21,619.93 673.88,619.93" fill="#faffa8" />
  <polygon points="642.03,639.59 649.35,639.59 649.35,630.17 642.03,630.17" fill="#faffa8" />
  <polygon points="673.88,639.59 681.21,639.59 681.21,630.17 673.88,630.17" fill="#faffa8" />
  <polygon points="642.03,649.83 649.35,649.83 649.35,640.41 642.03,640.41" fill="#faffa8" />
  <polygon points="649.99,649.83 657.32,649.83 657.32,640.41 649.99,640.41" fill="#faffa8" />
  <polygon points="657.95,649.83 665.28,649.83 665.28,640.41 657.95,640.41" fill="#faffa8" />
  <polygon points="665.92,649.83 673.25,649.83 673.25,640.41 665.92,640.41" fill="#faffa8" />
  <polygon points="673.88,649.83 681.21,649.83 681.21,640.41 673.88,640.41" fill="#faffa8" />
  <polygon points="642.03,660.07 649.35,660.07 649.35,650.65 642.03,650.65" fill="#faffa8" />
  <polygon points="673.88,660.07 681.21,660.07 681.21,650.65 673.88,650.65" fill="#faffa8" />
  <polygon points="642.03,670.31 649.35,670.31 649.35,660.89 642.03,660.89" fill="#faffa8" />
  <polygon points="673.88,670.31 681.21,670.31 681.21,660.89 673.88,660.89" fill="#faffa8" />
  <polygon points="689.81,608.87 697.14,608.87 697.14,599.45 689.81,599.45" fill="#faffa8" />
  <polygon points="697.78,608.87 705.10,608.87 705.10,599.45 697.78,599.45" fill="#faffa8" />
  <polygon points="705.74,608.87 713.07,608.87 713.07,599.45 705.74,599.45" fill="#faffa8" />
  <polygon points="713.71,608.87 721.03,608.87 721.03,599.45 713.71,599.45" fill="#faffa8" />
  <polygon points="689.81,619.11 697.14,619.11 697.14,609.69 689.81,609.69" fill="#faffa8" />
  <polygon points="721.67,619.11 729.00,619.11 729.00,609.69 721.67,609.69" fill="#faffa8" />
  <polygon points="689.81,629.35 697.14,629.35 697.14,619.93 689.81,619.93" fill="#faffa8" />
  <polygon points="721.67,629.35 729.00,629.35 729.00,619.93 721.67,619.93" fill="#faffa8" />
  <polygon points="689.81,639.59 697.14,639.59 697.14,630.17 689.81,630.17" fill="#faffa8" />
  <polygon points="697.78,639.59 705.10,639.59 705.10,630.17 697.78,630.17" fill="#faffa8" />
  <polygon points="705.74,639.59 713.07,639.59 713.07,630.17 705.74,630.17" fill="#faffa8" />
  <polygon points="713.71,639.59 721.03,639.59 721.03,630.17 713.71,630.17" fill="#faffa8" />
  <polygon points="689.81,649.83 697.14,649.83 697.14,640.41 689.81,640.41" fill="#faffa8" />
  <polygon points="705.74,649.83 713.07,649.83 713.07,640.41 705.74,640.41" fill="#faffa8" />
  <polygon points="689.81,660.07 697.14,660.07 697.14,650.65 689.81,650.65" fill="#faffa8" />
  <polygon points="713.71,660.07 721.03,660.07 721.03,650.65 713.71,650.65" fill="#faffa8" />
  <polygon points="689.81,670.31 697.14,670.31 697.14,660.89 689.81,660.89" fill="#faffa8" />
  <polygon points="721.67,670.31 729.00,670.31 729.00,660.89 721.67,660.89" fill="#faffa8" />
  <polygon points="737.60,608.87 744.93,608.87 744.93,599.45 737.60,599.45" fill="#faffa8" />
  <polygon points="769.46,608.87 776.78,608.87 776.78,599.45 769.46,599.45" fill="#faffa8" />
  <polygon points="737.60,619.11 744.93,619.11 744.93,609.69 737.60,609.69" fill="#faffa8" />
  <polygon points="761.49,619.11 768.82,619.11 768.82,609.69 761.49,609.69" fill="#faffa8" />
  <polygon points="737.60,629.35 744.93,629.35 744.93,619.93 737.60,619.93" fill="#faffa8" />
  <polygon points="753.53,629.35 760.85,629.35 760.85,619.93 753.53,619.93" fill="#faffa8" />
  <polygon points="737.60,639.59 744.93,639.59 744.93,630.17 737.60,630.17" fill="#faffa8" />
  <polygon points="745.56,639.59 752.89,639.59 752.89,630.17 745.56,630.17" fill="#faffa8" />
  <polygon points="737.60,649.83 744.93,649.83 744.93,640.41 737.60,640.41" fill="#faffa8" />
  <polygon points="753.53,649.83 760.85,649.83 760.85,640.41 753.53,640.41" fill="#faffa8" />
  <polygon points="737.60,660.07 744.93,660.07 744.93,650.65 737.60,650.65" fill="#faffa8" />
  <polygon points="761.49,660.07 768.82,660.07 768.82,650.65 761.49,650.65" fill="#faffa8" />
  <polygon points="737.60,670.31 744.93,670.31 744.93,660.89 737.60,660.89" fill="#faffa8" />
  <polygon points="769.46,670.31 776.78,670.31 776.78,660.89 769.46,660.89" fill="#faffa8" />
  <polygon points="785.39,608.87 792.71,608.87 792.71,599.45 785.39,599.45" fill="#faffa8" />
  <polygon points="793.35,608.87 800.68,608.87 800.68,599.45 793.35,599.45" fill="#faffa8" />
  <polygon points="801.31,608.87 808.64,608.87 808.64,599.45 801.31,599.45" fill="#faffa8" />
  <polygon points="809.28,608.87 816.61,608.87 816.61,599.45 809.28,599.45" fill="#faffa8" />
  <polygon points="817.24,608.87 824.57,608.87 824.57,599.45 817.24,599.45" fill="#faffa8" />
  <polygon points="801.31,619.11 808.64,619.11 808.64,609.69 801.31,609.69" fill="#faffa8" />
  <polygon points="801.31,629.35 808.64,629.35 808.64,619.93 801.31,619.93" fill="#faffa8" />
  <polygon points="801.31,639.59 808.64,639.59 808.64,630.17 801.31,630.17" fill="#faffa8" />
  <polygon points="801.31,649.83 808.64,649.83 808.64,640.41 801.31,640.41" fill="#faffa8" />
  <polygon points="801.31,660.07 808.64,660.07 808.64,650.65 801.31,650.65" fill="#faffa8" />
  <polygon points="785.39,670.31 792.71,670.31 792.71,660.89 785.39,660.89" fill="#faffa8" />
  <polygon points="793.35,670.31 800.68,670.31 800.68,660.89 793.35,660.89" fill="#faffa8" />
  <polygon points="801.31,670.31 808.64,670.31 808.64,660.89 801.31,660.89" fill="#faffa8" />
  <polygon points="809.28,670.31 816.61,670.31 816.61,660.89 809.28,660.89" fill="#faffa8" />
  <polygon points="817.24,670.31 824.57,670.31 824.57,660.89 817.24,660.89" fill="#faffa8" />
  <polygon points="833.17,608.87 840.50,608.87 840.50,599.45 833.17,599.45" fill="#faffa8" />
  <polygon points="865.03,608.87 872.36,608.87 872.36,599.45 865.03,599.45" fill="#faffa8" />
  <polygon points="833.17,619.11 840.50,619.11 840.50,609.69 833.17,609.69" fill="#faffa8" />
  <polygon points="841.14,619.11 848.46,619.11 848.46,609.69 841.14,609.69" fill="#faffa8" />
  <polygon points="865.03,619.11 872.36,619.11 872.36,609.69 865.03,609.69" fill="#faffa8" />
  <polygon points="833.17,629.35 840.50,629.35 840.50,619.93 833.17,619.93" fill="#faffa8" />
  <polygon points="849.10,629.35 856.43,629.35 856.43,619.93 849.10,619.93" fill="#faffa8" />
  <polygon points="865.03,629.35 872.36,629.35 872.36,619.93 865.03,619.93" fill="#faffa8" />
  <polygon points="833.17,639.59 840.50,639.59 840.50,630.17 833.17,630.17" fill="#faffa8" />
  <polygon points="857.07,639.59 864.39,639.59 864.39,630.17 857.07,630.17" fill="#faffa8" />
  <polygon points="865.03,639.59 872.36,639.59 872.36,630.17 865.03,630.17" fill="#faffa8" />
  <polygon points="833.17,649.83 840.50,649.83 840.50,640.41 833.17,640.41" fill="#faffa8" />
  <polygon points="865.03,649.83 872.36,649.83 872.36,640.41 865.03,640.41" fill="#faffa8" />
  <polygon points="833.17,660.07 840.50,660.07 840.50,650.65 833.17,650.65" fill="#faffa8" />
  <polygon points="865.03,660.07 872.36,660.07 872.36,650.65 865.03,650.65" fill="#faffa8" />
  <polygon points="833.17,670.31 840.50,670.31 840.50,660.89 833.17,660.89" fill="#faffa8" />
  <polygon points="865.03,670.31 872.36,670.31 872.36,660.89 865.03,660.89" fill="#faffa8" />
  <polygon points="261.12,532.48 261.12,378.88 312.32,378.88 312.32,532.48" fill="#faffa8" />
  <polygon points="286.72,276.48 215.04,378.88 358.40,378.88" fill="#faffa8" />
  <polygon points="711.68,532.48 711.68,378.88 762.88,378.88 762.88,532.48" fill="#faffa8" />
  <polygon points="737.28,276.48 665.60,378.88 808.96,378.88" fill="#faffa8" />
</svg>
