<svg xmlns="http://www.w3.org/2000/svg" viewBox="0 0 1024 1024">
  <polygon points="20.48,798.72 1003.52,798.72 1003.52,225.28 20.48,225.28" fill="#faffa8" />
  <polygon points="51.20,768.00 972.80,768.00 972.80,256.00 51.20,256.00" fill="#bdff58" />
  <polygon points="363.96,605.15 374.17,605.15 374.17,594.39 363.96,594.39" fill="#faffa8" />
  <polygon points="375.06,605.15 385.26,605.15 385.26,594.39 375.06,594.39" fill="#faffa8" />
  <polygon points="386.15,605.15 396.36,605.15 396.36,594.39 386.15,594.39" fill="#faffa8" />
  <polygon points="397.24,605.15 407.45,605.15 407.45,594.39 397.24,594.39" fill="#faffa8" />
  <polygon points="408.34,605.15 418.54,605.15 418.54,594.39 408.34,594.39" fill="#faffa8" />
  <polygon points="363.96,616.86 374.17,616.86 374.17,606.09 363.96,606.09" fill="#faffa8" />
  <polygon points="363.96,628.56 374.17,628.56 374.17,617.79 363.96,617.79" fill="#faffa8" />
  <polygon points="363.96,640.26 374.17,640.26 374.17,629.50 363.96,629.50" fill="#faffa8" />
  <polygon points="375.06,640.26 385.26,640.26 385.26,629.50 375.06,629.50" fill="#faffa8" />
  <polygon points="386.15,640.26 396.36,640.26 396.36,629.50 386.15,629.50" fill="#faffa8" />
  <polygon points="397.24,640.26 407.45,640.26 407.45,629.50 397.24,629.50" fill="#faffa8" />
  <polygon points="363.96,651.97 374.17,651.97 374.17,641.20 363.96,641.20" fill="#faffa8" />
  <polygon points="363.96,663.67 374.17,663.67 374.17,652.90 363.96,652.90" fill="#faffa8" />
  <polygon points="363.96,675.37 374.17,675.37 374.17,664.61 363.96,664.61" fill="#faffa8" />
  <polygon points="375.06,675.37 385.26,675.37 385.26,664.61 375.06,664.61" fill="#faffa8" />
  <polygon points="386.15,675.37 396.36,675.37 396.36,664.61 386.15,664.61" fill="#faffa8" />
  <polygon points="397.24,675.37 407.45,675.37 407.45,664.61 397.24,664.61" fill="#faffa8" />
  <polygon points="408.34,675.37 418.54,675.37 418.54,664.61 408.34,664.61" fill="#faffa8" />
  <polygon points="430.52,605.15 440.73,605.15 440.73,594.39 430.52,594.39" fill="#faffa8" />
  <polygon points="441.62,605.15 451.82,605.15 451.82,594.39 441.62,594.39" fill="#faffa8" />
  <polygon points="452.71,605.15 462.92,605.15 462.92,594.39 452.71,594.39" fill="#faffa8" />
  <polygon points="463.80,605.15 474.01,605.15 474.01,594.39 463.80,594.39" fill="#faffa8" />
  <polygon points="430.52,616.86 440.73,616.86 440.73,606.09 430.52,606.09" fill="#faffa8" />
  <polygon points="474.90,616.86 485.10,616.86 485.10,606.09 474.90,606.09" fill="#faffa8" />
  <polygon points="430.52,628.56 440.73,628.56 440.73,617.79 430.52,617.79" fill="#faffa8" />
  <polygon points="474.90,628.56 485.10,628.56 485.10,617.79 474.90,617.79" fill="#faffa8" />
  <polygon points="430.52,640.26 440.73,640.26 440.73,629.50 430.52,629.50" fill="#faffa8" />
  <polygon points="441.62,640.26 451.82,640.26 451.82,629.50 441.62,629.50" fill="#faffa8" />
  <polygon points="452.71,640.26 462.92,640.26 462.92,629.50 452.71,629.50" fill="#faffa8" />
  <polygon points="463.80,640.26 474.01,640.26 474.01,629.50 463.80,629.50" fill="#faffa8" />
  <polygon points="430.52,651.97 440.73,651.97 440.73,641.20 430.52,641.20" fill="#faffa8" />
  <polygon points="452.71,651.97 462.92,651.97 462.92,641.20 452.71,641.20" fill="#faffa8" />
  <polygon points="430.52,663.67 440.73,663.67 440.73,652.90 430.52,652.90" fill="#faffa8" />
  <polygon points="463.80,663.67 474.01,663.67 474.01,652.90 463.80,652.90" fill="#faffa8" />
  <polygon points="430.52,675.37 440.73,675.37 440.73,664.61 430.52,664.61" fill="#faffa8" />
  <polygon points="474.90,675.37 485.10,675.37 485.10,664.61 474.90,664.61" fill="#faffa8" />
  <polygon points="497.08,605.15 507.29,605.15 507.29,594.39 497.08,594.39" fill="#faffa8" />
  <polygon points="508.18,605.15 518.38,605.15 518.38,594.39 508.18,594.39" fill="#faffa8" />
  <polygon points="519.27,605.15 529.48,605.15 529.48,594.39 519.27,594.39" fill="#faffa8" />
  <polygon points="530.36,605.15 540.57,605.15 540.57,594.39 530.36,594.39" fill="#faffa8" />
  <polygon points="497.08,616.86 507.29,616.86 507.29,606.09 497.08,606.09" fill="#faffa8" />
  <polygon points="541.46,616.86 551.66,616.86 551.66,606.09 541.46,606.09" fill="#faffa8" />
  <polygon points="497.08,628.56 507.29,628.56 507.29,617.79 497.08,617.79" fill="#faffa8" />
  <polygon points="541.46,628.56 551.66,628.56 551.66,617.79 541.46,617.79" fill="#faffa8" />
  <polygon points="497.08,640.26 507.29,640.26 507.29,629.50 497.08,629.50" fill="#faffa8" />
  <polygon points="508.18,640.26 518.38,640.26 518.38,629.50 508.18,629.50" fill="#faffa8" />
  <polygon points="519.27,640.26 529.48,640.26 529.48,629.50 519.27,629.50" fill="#faffa8" />
  <polygon points="530.36,640.26 540.57,640.26 540.57,629.50 530.36,629.50" fill="#faffa8" />
  <polygon points="497.08,651.97 507.29,651.97 507.29,641.20 497.08,641.20" fill="#faffa8" />
  <polygon points="519.27,651.97 529.48,651.97 529.48,641.20 519.27,641.20" fill="#faffa8" />
  <polygon points="497.08,663.67 507.29,663.67 507.29,652.90 497.08,652.90" fill="#faffa8" />
  <polygon points="530.36,663.67 540.57,663.67 540.57,652.90 530.36,652.90" fill="#faffa8" />
  <polygon points="497.08,675.37 507.29,675.37 507.29,664.61 497.08,664.61" fill="#faffa8" />
  <polygon points="541.46,675.37 551.66,675.37 551.66,664.61 541.46,664.61" fill="#faffa8" />
  <polygon points="563.64,605.15 573.85,605.15 573.85,594.39 563.64,594.39" fill="#faffa8" />
  <polygon points="608.02,605.15 618.22,605.15 618.22,594.39 608.02,594.39" fill="#faffa8" />
  <polygon points="563.64,616.86 573.85,616.86 573.85,606.09 563.64,606.09" fill="#faffa8" />
  <polygon points="608.02,616.86 618.22,616.86 618.22,606.09 608.02,606.09" fill="#faffa8" />
  <polygon points="574.74,628.56 584.94,628.56 584.94,617.79 574.74,617.79" fill="#faffa8" />
  <polygon points="596.92,628.56 607.13,628.56 607.13,617.79 596.92,617.79" fill="#faffa8" />
  <polygon points="585.83,640.26 596.04,640.26 596.04,629.50 585.83,629.50" fill="#faffa8" />
  <polygon points="585.83,651.97 596.04,651.97 596.04,641.20 585.83,641.20" fill="#faffa8" />
  <polygon points="585.83,663.67 596.04,663.67 596.04,652.90 585.83,652.90" fill="#faffa8" />
  <polygon points="585.83,675.37 596.04,675.37 596.04,664.61 585.83,664.61" fill="#faffa8" />
  <polygon points="287.07,359.39 295.09,359.39 295.09,348.63 287.07,348.63" fill="#faffa8" />
  <polygon points="295.78,359.39 303.80,359.39 303.80,348.63 295.78,348.63" fill="#faffa8" />
  <polygon points="304.50,359.39 312.52,359.39 312.52,348.63 304.50,348.63" fill="#faffa8" />
  <polygon points="313.21,359.39 321.23,359.39 321.23,348.63 313.21,348.63" fill="#faffa8" />
  <polygon points="321.93,359.39 329.95,359.39 329.95,348.63 321.93,348.63" fill="#faffa8" />
  <polygon points="304.50,371.10 312.52,371.10 312.52,360.33 304.50,360.33" fill="#faffa8" />
  <polygon points="304.50,382.80 312.52,382.80 312.52,372.03 304.50,372.03" fill="#faffa8" />
  <polygon points="304.50,394.50 312.52,394.50 312.52,383.74 304.50,383.74" fill="#faffa8" />
  <polygon points="304.50,406.21 312.52,406.21 312.52,395.44 304.50,395.44" fill="#faffa8" />
  <polygon points="304.50,417.91 312.52,417.91 312.52,407.14 304.50,407.14" fill="#faffa8" />
  <polygon points="304.50,429.61 312.52,429.61 312.52,418.85 304.50,418.85" fill="#faffa8" />
  <polygon points="339.36,359.39 347.38,359.39 347.38,348.63 339.36,348.63" fill="#faffa8" />
  <polygon points="348.07,359.39 356.09,359.39 356.09,348.63 348.07,348.63" fill="#faffa8" />
  <polygon points="356.79,359.39 364.81,359.39 364.81,348.63 356.79,348.63" fill="#faffa8" />
  <polygon points="365.50,359.39 373.52,359.39 373.52,348.63 365.50,348.63" fill="#faffa8" />
  <polygon points="374.22,359.39 382.24,359.39 382.24,348.63 374.22,348.63" fill="#faffa8" />
  <polygon points="339.36,371.10 347.38,371.10 347.38,360.33 339.36,360.33" fill="#faffa8" />
  <polygon points="339.36,382.80 347.38,382.80 347.38,372.03 339.36,372.03" fill="#faffa8" />
  <polygon points="339.36,394.50 347.38,394.50 347.38,383.74 339.36,383.74" fill="#faffa8" />
  <polygon points="348.07,394.50 356.09,394.50 356.09,383.74 348.07,383.74" fill="#faffa8" />
  <polygon points="356.79,394.50 364.81,394.50 364.81,383.74 356.79,383.74" fill="#faffa8" />
  <polygon points="365.50,394.50 373.52,394.50 373.52,383.74 365.50,383.74" fill="#faffa8" />
  <polygon points="339.36,406.21 347.38,406.21 347.38,395.44 339.36,395.44" fill="#faffa8" />
  <polygon points="339.36,417.91 347.38,417.91 347.38,407.14 339.36,407.14" fill="#faffa8" />
  <polygon points="339.36,429.61 347.38,429.61 347.38,418.85 339.36,418.85" fill="#faffa8" />
  <polygon points="348.07,429.61 356.09,429.61 356.09,418.85 348.07,418.85" fill="#faffa8" />
  <polygon points="356.79,429.61 364.81,429.61 364.81,418.85 356.79,418.85" fill="#faffa8" />
  <polygon points="365.50,429.61 373.52,429.61 373.52,418.85 365.50,418.85" fill="#faffa8" />
  <polygon points="374.22,429.61 382.24,429.61 382.24,418.85 374.22,418.85" fill="#faffa8" />
  <polygon points="391.65,359.39 399.67,359.39 399.67,348.63 391.65,348.63" fill="#faffa8" />
  <polygon points="400.36,359.39 408.38,359.39 408.38,348.63 400.36,348.63" fill="#faffa8" />
  <polygon points="409.08,359.39 417.09,359.39 417.09,348.63 409.08,348.63" fill="#faffa8" />
  <polygon points="417.79,359.39 425.81,359.39 425.81,348.63 417.79,348.63" fill="#faffa8" />
  <polygon points="391.65,371.10 399.67,371.10 399.67,360.33 391.65,360.33" fill="#faffa8" />
  <polygon points="426.51,371.10 434.52,371.10 434.52,360.33 426.51,360.33" fill="#faffa8" />
  <polygon points="391.65,382.80 399.67,382.80 399.67,372.03 391.65,372.03" fill="#faffa8" />
  <polygon points="426.51,382.80 434.52,382.80 434.52,372.03 426.51,372.03" fill="#faffa8" />
  <polygon points="391.65,394.50 399.67,394.50 399.67,383.74 391.65,383.74" fill="#faffa8" />
  <polygon points="400.36,394.50 408.38,394.50 408.38,383.74 400.36,383.74" fill="#faffa8" />
  <polygon points="409.08,394.50 417.09,394.50 417.09,383.74 409.08,383.74" fill="#faffa8" />
  <polygon points="417.79,394.50 425.81,394.50 425.81,383.74 417.79,383.74" fill="#faffa8" />
  <polygon points="391.65,406.21 399.67,406.21 399.67,395.44 391.65,395.44" fill="#faffa8" />
  <polygon points="409.08,406.21 417.09,406.21 417.09,395.44 409.08,395.44" fill="#faffa8" />
  <polygon points="391.65,417.91 399.67,417.91 399.67,407.14 391.65,407.14" fill="#faffa8" />
  <polygon points="417.79,417.91 425.81,417.91 425.81,407.14 417.79,407.14" fill="#faffa8" />
  <polygon points="391.65,429.61 399.67,429.61 399.67,418.85 391.65,418.85" fill="#faffa8" />
  <polygon points="426.51,429.61 434.52,429.61 434.52,418.85 426.51,418.85" fill="#faffa8" />
  <polygon points="443.94,359.39 451.95,359.39 451.95,348.63 443.94,348.63" fill="#faffa8" />
  <polygon points="478.80,359.39 486.81,359.39 486.81,348.63 478.80,348.63" fill="#faffa8" />
  <polygon points="443.94,371.10 451.95,371.10 451.95,360.33 443.94,360.33" fill="#faffa8" />
  <polygon points="452.65,371.10 460.67,371.10 460.67,360.33 452.65,360.33" fill="#faffa8" />
  <polygon points="470.08,371.10 478.10,371.10 478.10,360.33 470.08,360.33" fill="#faffa8" />
  <polygon points="478.80,371.10 486.81,371.10 486.81,360.33 478.80,360.33" fill="#faffa8" />
  <polygon points="443.94,382.80 451.95,382.80 451.95,372.03 443.94,372.03" fill="#faffa8" />
  <polygon points="461.37,382.80 469.38,382.80 469.38,372.03 461.37,372.03" fill="#faffa8" />
  <polygon points="478.80,382.80 486.81,382.80 486.81,372.03 478.80,372.03" fill="#faffa8" />
  <polygon points="443.94,394.50 451.95,394.50 451.95,383.74 443.94,383.74" fill="#faffa8" />
  <polygon points="461.37,394.50 469.38,394.50 469.38,383.74 461.37,383.74" fill="#faffa8" />
  <polygon points="478.80,394.50 486.81,394.50 486.81,383.74 478.80,383.74" fill="#faffa8" />
  <polygon points="443.94,406.21 451.95,406.21 451.95,395.44 443.94,395.44" fill="#faffa8" />
  <polygon points="478.80,406.21 486.81,406.21 486.81,395.44 478.80,395.44" fill="#faffa8" />
  <polygon points="443.94,417.91 451.95,417.91 451.95,407.14 443.94,407.14" fill="#faffa8" />
  <polygon points="478.80,417.91 486.81,417.91 486.81,407.14 478.80,407.14" fill="#faffa8" />
  <polygon points="443.94,429.61 451.95,429.61 451.95,418.85 443.94,418.85" fill="#faffa8" />
  <polygon points="478.80,429.61 486.81,429.61 486.81,418.85 478.80,418.85" fill="#faffa8" />
  <polygon points="496.23,359.39 504.24,359.39 504.24,348.63 496.23,348.63" fill="#faffa8" />
  <polygon points="504.94,359.39 512.96,359.39 512.96,348.63 504.94,348.63" fill="#faffa8" />
  <polygon points="513.66,359.39 521.67,359.39 521.67,348.63 513.66,348.63" fill="#faffa8" />
  <polygon points="522.37,359.39 530.39,359.39 530.39,348.63 522.37,348.63" fill="#faffa8" />
  <polygon points="531.09,359.39 539.10,359.39 539.10,348.63 531.09,348.63" fill="#faffa8" />
  <polygon points="513.66,371.10 521.67,371.10 521.67,360.33 513.66,360.33" fill="#faffa8" />
  <polygon points="513.66,382.80 521.67,382.80 521.67,372.03 513.66,372.03" fill="#faffa8" />
  <polygon points="513.66,394.50 521.67,394.50 521.67,383.74 513.66,383.74" fill="#faffa8" />
  <polygon points="513.66,406.21 521.67,406.21 521.67,395.44 513.66,395.44" fill="#faffa8" />
  <polygon points="513.66,417.91 521.67,417.91 521.67,407.14 513.66,407.14" fill="#faffa8" />
  <polygon points="496.23,429.61 504.24,429.61 504.24,418.85 496.23,418.85" fill="#faffa8" />
  <polygon points="504.94,429.61 512.96,429.61 512.96,418.85 504.94,418.85" fill="#faffa8" />
  <polygon points="513.66,429.61 521.67,429.61 521.67,418.85 513.66,418.85" fill="#faffa8" />
  <polygon points="522.37,429.61 530.39,429.61 530.39,418.85 522.37,418.85" fill="#faffa8" />
  <polygon points="531.09,429.61 539.10,429.61 539.10,418.85 531.09,418.85" fill="#faffa8" />
  <polygon points="548.52,359.39 556.53,359.39 556.53,348.63 548.52,348.63" fill="#faffa8" />
  <polygon points="583.37,359.39 591.39,359.39 591.39,348.63 583.37,348.63" fill="#faffa8" />
  <polygon points="548.52,371.10 556.53,371.10 556.53,360.33 548.52,360.33" fill="#faffa8" />
  <polygon points="557.23,371.10 565.25,371.10 565.25,360.33 557.23,360.33" fill="#faffa8" />
  <polygon points="583.37,371.10 591.39,371.10 591.39,360.33 583.37,360.33" fill="#faffa8" />
  <polygon points="548.52,382.80 556.53,382.80 556.53,372.03 548.52,372.03" fill="#faffa8" />
  <polygon points="565.95,382.80 573.96,382.80 573.96,372.03 565.95,372.03" fill="#faffa8" />
  <polygon points="583.37,382.80 591.39,382.80 591.39,372.03 583.37,372.03" fill="#faffa8" />
  <polygon points="548.52,394.50 556.53,394.50 556.53,383.74 548.52,383.74" fill="#faffa8" />
  <polygon points="574.66,394.50 582.68,394.50 582.68,383.74 574.66,383.74" fill="#faffa8" />
  <polygon points="583.37,394.50 591.39,394.50 591.39,383.74 583.37,383.74" fill="#faffa8" />
  <polygon points="548.52,406.21 556.53,406.21 556.53,395.44 548.52,395.44" fill="#faffa8" />
  <polygon points="583.37,406.21 591.39,406.21 591.39,395.44 583.37,395.44" fill="#faffa8" />
  <polygon points="548.52,417.91 556.53,417.91 556.53,407.14 548.52,407.14" fill="#faffa8" />
  <polygon points="583.37,417.91 591.39,417.91 591.39,407.14 583.37,407.14" fill="#faffa8" />
  <polygon points="548.52,429.61 556.53,429.61 556.53,418.85 548.52,418.85" fill="#faffa8" />
  <polygon points="583.37,429.61 591.39,429.61 591.39,418.85 583.37,418.85" fill="#faffa8" />
  <polygon points="618.23,359.39 626.25,359.39 626.25,348.63 618.23,348.63" fill="#faffa8" />
  <polygon points="609.52,371.10 617.54,371.10 617.54,360.33 609.52,360.33" fill="#faffa8" />
  <polygon points="626.95,371.10 634.97,371.10 634.97,360.33 626.95,360.33" fill="#faffa8" />
  <polygon points="600.80,382.80 608.82,382.80 608.82,372.03 600.80,372.03" fill="#faffa8" />
  <polygon points="635.66,382.80 643.68,382.80 643.68,372.03 635.66,372.03" fill="#faffa8" />
  <polygon points="600.80,394.50 608.82,394.50 608.82,383.74 600.80,383.74" fill="#faffa8" />
  <polygon points="635.66,394.50 643.68,394.50 643.68,383.74 635.66,383.74" fill="#faffa8" />
  <polygon points="600.80,406.21 608.82,406.21 608.82,395.44 600.80,395.44" fill="#faffa8" />
  <polygon points="609.52,406.21 617.54,406.21 617.54,395.44 609.52,395.44" fill="#faffa8" />
  <polygon points="618.23,406.21 626.25,406.21 626.25,395.44 618.23,395.44" fill="#faffa8" />
  <polygon points="626.95,406.21 634.97,406.21 634.97,395.44 626.95,395.44" fill="#faffa8" />
  <polygon points="635.66,406.21 643.68,406.21 643.68,395.44 635.66,395.44" fill="#faffa8" />
  <polygon points="600.80,417.91 608.82,417.91 608.82,407.14 600.80,407.14" fill="#faffa8" />
  <polygon points="635.66,417.91 643.68,417.91 643.68,407.14 635.66,407.14" fill="#faffa8" />
  <polygon points="600.80,429.61 608.82,429.61 608.82,418.85 600.80,418.85" fill="#faffa8" />
  <polygon points="635.66,429.61 643.68,429.61 643.68,418.85 635.66,418.85" fill="#faffa8" />
  <polygon points="653.09,359.39 661.11,359.39 661.11,348.63 653.09,348.63" fill="#faffa8" />
  <polygon points="653.09,371.10 661.11,371.10 661.11,360.33 653.09,360.33" fill="#faffa8" />
  <polygon points="653.09,382.80 661.11,382.80 661.11,372.03 653.09,372.03" fill="#faffa8" />
  <polygon points="653.09,394.50 661.11,394.50 661.11,383.74 653.09,383.74" fill="#faffa8" />
  <polygon points="653.09,406.21 661.11,406.21 661.11,395.44 653.09,395.44" fill="#faffa8" />
  <polygon points="653.09,417.91 661.11,417.91 661.11,407.14 653.09,407.14" fill="#faffa8" />
  <polygon points="653.09,429.61 661.11,429.61 661.11,418.85 653.09,418.85" fill="#faffa8" />
  <polygon points="661.81,429.61 669.83,429.61 669.83,418.85 661.81,418.85" fill="#faffa8" />
  <polygon points="670.52,429.61 678.54,429.61 678.54,418.85 670.52,418.85" fill="#faffa8" />
  <polygon points="679.24,429.61 687.26,429.61 687.26,418.85 679.24,418.85" fill="#faffa8" />
  <polygon points="687.95,429.61 695.97,429.61 695.97,418.85 687.95,418.85" fill="#faffa8" />
  <polygon points="655.36,486.40 860.16,486.40 860.16,537.60 655.36,537.60" fill="#faffa8" />
  <polygon points="962.56,512.00 860.16,440.32 860.16,583.68" fill="#faffa8" />
  <polygon points="834.56,532.48 834.56,368.64 885.76,368.64 885.76,532.48" fill="#faffa8" />
  <polygon points="860.16,266.24 788.48,368.64 931.84,368.64" fill="#faffa8" />
</svg>
