<svg xmlns="http://www.w3.org/2000/svg" viewBox="0 0 1024 1024">
  <polygon points="51.20,972.80 972.80,972.80 972.80,51.20 51.20,51.20" fill="#65f2ff" />
  <polygon points="512.00,163.84 860.16,798.72 163.84,798.72" fill="#faffa8" />
  <polygon points="571.90,386.05 567.34,363.12 554.36,343.69 534.92,330.70 512.00,326.14 489.08,330.70 469.64,343.69 456.66,363.12 452.10,386.05 456.66,408.97 469.64,428.41 489.08,441.39 512.00,445.95 534.92,441.39 554.36,428.41 567.34,408.97" fill="#f9ffa8" />
  <polygon points="531.97,465.92 531.97,599.04 492.03,599.04 492.03,465.92" fill="#f9ffa8" />
  <polygon points="516.04,535.31 409.54,561.94 401.47,529.65 507.96,503.02" fill="#f9ffa8" />
  <polygon points="516.04,503.02 622.53,529.65 614.46,561.94 507.96,535.31" fill="#f9ffa8" />
  <polygon points="526.04,607.97 432.85,754.41 404.78,736.54 497.96,590.11" fill="#f9ffa8" />
  <polygon points="524.99,588.65 631.49,721.77 605.50,742.55 499.01,609.43" fill="#f9ffa8" />
</svg>
