<svg xmlns="http://www.w3.org/2000/svg" viewBox="0 0 1024 1024">
  <polygon points="25.60,706.56 998.40,706.56 998.40,317.44 25.60,317.44" fill="#ffc437" />
  <polygon points="491.52,552.96 266.24,552.96 266.24,471.04 491.52,471.04" fill="#f9ffa8" />
  <polygon points="122.88,512.00 266.24,614.40 266.24,409.60" fill="#f9ffa8" />
  <polygon points="481.82,474.84 494.20,474.84 494.20,461.39 481.82,461.39" fill="#f9ffa8" />
  <polygon points="495.28,474.84 507.66,474.84 507.66,461.39 495.28,461.39" fill="#f9ffa8" />
  <polygon points="508.73,474.84 521.12,474.84 521.12,461.39 508.73,461.39" fill="#f9ffa8" />
  <polygon points="522.19,474.84 534.57,474.84 534.57,461.39 522.19,461.39" fill="#f9ffa8" />
  <polygon points="481.82,489.47 494.20,489.47 494.20,476.01 481.82,476.01" fill="#f9ffa8" />
  <polygon points="535.65,489.47 548.03,489.47 548.03,476.01 535.65,476.01" fill="#f9ffa8" />
  <polygon points="481.82,504.10 494.20,504.10 494.20,490.64 481.82,490.64" fill="#f9ffa8" />
  <polygon points="535.65,504.10 548.03,504.10 548.03,490.64 535.65,490.64" fill="#f9ffa8" />
  <polygon points="481.82,518.73 494.20,518.73 494.20,505.27 481.82,505.27" fill="#f9ffa8" />
  <polygon points="535.65,518.73 548.03,518.73 548.03,505.27 535.65,505.27" fill="#f9ffa8" />
  <polygon points="481.82,533.36 494.20,533.36 494.20,519.90 481.82,519.90" fill="#f9ffa8" />
  <polygon points="535.65,533.36 548.03,533.36 548.03,519.90 535.65,519.90" fill="#f9ffa8" />
  <polygon points="481.82,547.99 494.20,547.99 494.20,534.53 481.82,534.53" fill="#f9ffa8" />
  <polygon points="535.65,547.99 548.03,547.99 548.03,534.53 535.65,534.53" fill="#f9ffa8" />
  <polygon points="481.82,562.61 494.20,562.61 494.20,549.16 481.82,549.16" fill="#f9ffa8" />
  <polygon points="495.28,562.61 507.66,562.61 507.66,549.16 495.28,549.16" fill="#f9ffa8" />
  <polygon points="508.73,562.61 521.12,562.61 521.12,549.16 508.73,549.16" fill="#f9ffa8" />
  <polygon points="522.19,562.61 534.57,562.61 534.57,549.16 522.19,549.16" fill="#f9ffa8" />
  <polygon points="562.57,474.84 574.95,474.84 574.95,461.39 562.57,461.39" fill="#f9ffa8" />
  <polygon points="576.03,474.84 588.41,474.84 588.41,461.39 576.03,461.39" fill="#f9ffa8" />
  <polygon points="589.48,474.84 601.87,474.84 601.87,461.39 589.48,461.39" fill="#f9ffa8" />
  <polygon points="602.94,474.84 615.32,474.84 615.32,461.39 602.94,461.39" fill="#f9ffa8" />
  <polygon points="616.40,474.84 628.78,474.84 628.78,461.39 616.40,461.39" fill="#f9ffa8" />
  <polygon points="562.57,489.47 574.95,489.47 574.95,476.01 562.57,476.01" fill="#f9ffa8" />
  <polygon points="562.57,504.10 574.95,504.10 574.95,490.64 562.57,490.64" fill="#f9ffa8" />
  <polygon points="562.57,518.73 574.95,518.73 574.95,505.27 562.57,505.27" fill="#f9ffa8" />
  <polygon points="576.03,518.73 588.41,518.73 588.41,505.27 576.03,505.27" fill="#f9ffa8" />
  <polygon points="589.48,518.73 601.87,518.73 601.87,505.27 589.48,505.27" fill="#f9ffa8" />
  <polygon points="602.94,518.73 615.32,518.73 615.32,505.27 602.94,505.27" fill="#f9ffa8" />
  <polygon points="562.57,533.36 574.95,533.36 574.95,519.90 562.57,519.90" fill="#f9ffa8" />
  <polygon points="562.57,547.99 574.95,547.99 574.95,534.53 562.57,534.53" fill="#f9ffa8" />
  <polygon points="562.57,562.61 574.95,562.61 574.95,549.16 562.57,549.16" fill="#f9ffa8" />
  <polygon points="576.03,562.61 588.41,562.61 588.41,549.16 576.03,549.16" fill="#f9ffa8" />
  <polygon points="589.48,562.61 601.87,562.61 601.87,549.16 589.48,549.16" fill="#f9ffa8" />
  <polygon points="602.94,562.61 615.32,562.61 615.32,549.16 602.94,549.16" fill="#f9ffa8" />
  <polygon points="616.40,562.61 628.78,562.61 628.78,549.16 616.40,549.16" fill="#f9ffa8" />
  <polygon points="643.32,474.84 655.70,474.84 655.70,461.39 643.32,461.39" fill="#f9ffa8" />
  <polygon points="656.78,474.84 669.16,474.84 669.16,461.39 656.78,461.39" fill="#f9ffa8" />
  <polygon points="670.23,474.84 682.62,474.84 682.62,461.39 670.23,461.39" fill="#f9ffa8" />
  <polygon points="683.69,474.84 696.07,474.84 696.07,461.39 683.69,461.39" fill="#f9ffa8" />
  <polygon points="697.15,474.84 709.53,474.84 709.53,461.39 697.15,461.39" fill="#f9ffa8" />
  <polygon points="670.23,489.47 682.62,489.47 682.62,476.01 670.23,476.01" fill="#f9ffa8" />
  <polygon points="670.23,504.10 682.62,504.10 682.62,490.64 670.23,490.64" fill="#f9ffa8" />
  <polygon points="670.23,518.73 682.62,518.73 682.62,505.27 670.23,505.27" fill="#f9ffa8" />
  <polygon points="670.23,533.36 682.62,533.36 682.62,519.90 670.23,519.90" fill="#f9ffa8" />
  <polygon points="670.23,547.99 682.62,547.99 682.62,534.53 670.23,534.53" fill="#f9ffa8" />
  <polygon points="670.23,562.61 682.62,562.61 682.62,549.16 670.23,549.16" fill="#f9ffa8" />
  <polygon points="737.53,474.84 749.91,474.84 749.91,461.39 737.53,461.39" fill="#f9ffa8" />
  <polygon points="750.98,474.84 763.37,474.84 763.37,461.39 750.98,461.39" fill="#f9ffa8" />
  <polygon points="764.44,474.84 776.82,474.84 776.82,461.39 764.44,461.39" fill="#f9ffa8" />
  <polygon points="724.07,489.47 736.45,489.47 736.45,476.01 724.07,476.01" fill="#f9ffa8" />
  <polygon points="777.90,489.47 790.28,489.47 790.28,476.01 777.90,476.01" fill="#f9ffa8" />
  <polygon points="724.07,504.10 736.45,504.10 736.45,490.64 724.07,490.64" fill="#f9ffa8" />
  <polygon points="777.90,504.10 790.28,504.10 790.28,490.64 777.90,490.64" fill="#f9ffa8" />
  <polygon points="724.07,518.73 736.45,518.73 736.45,505.27 724.07,505.27" fill="#f9ffa8" />
  <polygon points="777.90,518.73 790.28,518.73 790.28,505.27 777.90,505.27" fill="#f9ffa8" />
  <polygon points="724.07,533.36 736.45,533.36 736.45,519.90 724.07,519.90" fill="#f9ffa8" />
  <polygon points="777.90,533.36 790.28,533.36 790.28,519.90 777.90,519.90" fill="#f9ffa8" />
  <polygon points="724.07,547.99 736.45,547.99 736.45,534.53 724.07,534.53" fill="#f9ffa8" />
  <polygon points="777.90,547.99 790.28,547.99 790.28,534.53 777.90,534.53" fill="#f9ffa8" />
  <polygon points="737.53,562.61 749.91,562.61 749.91,549.16 737.53,549.16" fill="#f9ffa8" />
  <polygon points="750.98,562.61 763.37,562.61 763.37,549.16 750.98,549.16" fill="#f9ffa8" />
  <polygon points="764.44,562.61 776.82,562.61 776.82,549.16 764.44,549.16" fill="#f9ffa8" />
  <polygon points="804.82,474.84 817.20,474.84 817.20,461.39 804.82,461.39" fill="#f9ffa8" />
  <polygon points="858.65,474.84 871.03,474.84 871.03,461.39 858.65,461.39" fill="#f9ffa8" />
  <polygon points="804.82,489.47 817.20,489.47 817.20,476.01 804.82,476.01" fill="#f9ffa8" />
  <polygon points="858.65,489.47 871.03,489.47 871.03,476.01 858.65,476.01" fill="#f9ffa8" />
  <polygon points="804.82,504.10 817.20,504.10 817.20,490.64 804.82,490.64" fill="#f9ffa8" />
  <polygon points="858.65,504.10 871.03,504.10 871.03,490.64 858.65,490.64" fill="#f9ffa8" />
  <polygon points="804.82,518.73 817.20,518.73 817.20,505.27 804.82,505.27" fill="#f9ffa8" />
  <polygon points="858.65,518.73 871.03,518.73 871.03,505.27 858.65,505.27" fill="#f9ffa8" />
  <polygon points="804.82,533.36 817.20,533.36 817.20,519.90 804.82,519.90" fill="#f9ffa8" />
  <polygon points="858.65,533.36 871.03,533.36 871.03,519.90 858.65,519.90" fill="#f9ffa8" />
  <polygon points="804.82,547.99 817.20,547.99 817.20,534.53 804.82,534.53" fill="#f9ffa8" />
  <polygon points="858.65,547.99 871.03,547.99 871.03,534.53 858.65,534.53" fill="#f9ffa8" />
  <polygon points="818.28,562.61 830.66,562.61 830.66,549.16 818.28,549.16" fill="#f9ffa8" />
  <polygon points="831.73,562.61 844.12,562.61 844.12,549.16 831.73,549.16" fill="#f9ffa8" />
  <polygon points="845.19,562.61 857.57,562.61 857.57,549.16 845.19,549.16" fill="#f9ffa8" />
  <polygon points="885.57,474.84 897.95,474.84 897.95,461.39 885.57,461.39" fill="#f9ffa8" />
  <polygon points="899.03,474.84 911.41,474.84 911.41,461.39 899.03,461.39" fill="#f9ffa8" />
  <polygon points="912.48,474.84 924.87,474.84 924.87,461.39 912.48,461.39" fill="#f9ffa8" />
  <polygon points="925.94,474.84 938.32,474.84 938.32,461.39 925.94,461.39" fill="#f9ffa8" />
  <polygon points="885.57,489.47 897.95,489.47 897.95,476.01 885.57,476.01" fill="#f9ffa8" />
  <polygon points="939.40,489.47 951.78,489.47 951.78,476.01 939.40,476.01" fill="#f9ffa8" />
  <polygon points="885.57,504.10 897.95,504.10 897.95,490.64 885.57,490.64" fill="#f9ffa8" />
  <polygon points="939.40,504.10 951.78,504.10 951.78,490.64 939.40,490.64" fill="#f9ffa8" />
  <polygon points="885.57,518.73 897.95,518.73 897.95,505.27 885.57,505.27" fill="#f9ffa8" />
  <polygon points="899.03,518.73 911.41,518.73 911.41,505.27 899.03,505.27" fill="#f9ffa8" />
  <polygon points="912.48,518.73 924.87,518.73 924.87,505.27 912.48,505.27" fill="#f9ffa8" />
  <polygon points="925.94,518.73 938.32,518.73 938.32,505.27 925.94,505.27" fill="#f9ffa8" />
  <polygon points="885.57,533.36 897.95,533.36 897.95,519.90 885.57,519.90" fill="#f9ffa8" />
  <polygon points="912.48,533.36 924.87,533.36 924.87,519.90 912.48,519.90" fill="#f9ffa8" />
  <polygon points="885.57,547.99 897.95,547.99 897.95,534.53 885.57,534.53" fill="#f9ffa8" />
  <polygon points="925.94,547.99 938.32,547.99 938.32,534.53 925.94,534.53" fill="#f9ffa8" />
  <polygon points="885.57,562.61 897.95,562.61 897.95,549.16 885.57,549.16" fill="#f9ffa8" />
  <polygon points="939.40,562.61 951.78,562.61 951.78,549.16 939.40,549.16" fill="#f9ffa8" />
</svg>
