<svg xmlns="http://www.w3.org/2000/svg" viewBox="0 0 1024 1024">
  <polygon points="966.11,323.90 700.10,57.89 323.90,57.89 57.89,323.90 57.89,700.10 323.90,966.11 700.10,966.11 966.11,700.10" fill="#faffa8" />
  <polygon points="899.88,351.33 672.67,124.12 351.33,124.12 124.12,351.33 124.12,672.67 351.33,899.88 672.67,899.88 899.88,672.67" fill="#ff710f" />
  <polygon points="307.09,430.26 325.12,430.26 325.12,400.65 307.09,400.65" fill="#faffa8" />
  <polygon points="326.68,430.26 344.71,430.26 344.71,400.65 326.68,400.65" fill="#faffa8" />
  <polygon points="346.27,430.26 364.29,430.26 364.29,400.65 346.27,400.65" fill="#faffa8" />
  <polygon points="365.86,430.26 383.88,430.26 383.88,400.65 365.86,400.65" fill="#faffa8" />
  <polygon points="287.50,462.44 305.53,462.44 305.53,432.83 287.50,432.83" fill="#faffa8" />
  <polygon points="287.50,494.62 305.53,494.62 305.53,465.01 287.50,465.01" fill="#faffa8" />
  <polygon points="307.09,526.80 325.12,526.80 325.12,497.20 307.09,497.20" fill="#faffa8" />
  <polygon points="326.68,526.80 344.71,526.80 344.71,497.20 326.68,497.20" fill="#faffa8" />
  <polygon points="346.27,526.80 364.29,526.80 364.29,497.20 346.27,497.20" fill="#faffa8" />
  <polygon points="365.86,558.99 383.88,558.99 383.88,529.38 365.86,529.38" fill="#faffa8" />
  <polygon points="365.86,591.17 383.88,591.17 383.88,561.56 365.86,561.56" fill="#faffa8" />
  <polygon points="287.50,623.35 305.53,623.35 305.53,593.74 287.50,593.74" fill="#faffa8" />
  <polygon points="307.09,623.35 325.12,623.35 325.12,593.74 307.09,593.74" fill="#faffa8" />
  <polygon points="326.68,623.35 344.71,623.35 344.71,593.74 326.68,593.74" fill="#faffa8" />
  <polygon points="346.27,623.35 364.29,623.35 364.29,593.74 346.27,593.74" fill="#faffa8" />
  <polygon points="405.04,430.26 423.06,430.26 423.06,400.65 405.04,400.65" fill="#faffa8" />
  <polygon points="424.63,430.26 442.65,430.26 442.65,400.65 424.63,400.65" fill="#faffa8" />
  <polygon points="444.22,430.26 462.24,430.26 462.24,400.65 444.22,400.65" fill="#faffa8" />
  <polygon points="463.81,430.26 481.83,430.26 481.83,400.65 463.81,400.65" fill="#faffa8" />
  <polygon points="483.40,430.26 501.42,430.26 501.42,400.65 483.40,400.65" fill="#faffa8" />
  <polygon points="444.22,462.44 462.24,462.44 462.24,432.83 444.22,432.83" fill="#faffa8" />
  <polygon points="444.22,494.62 462.24,494.62 462.24,465.01 444.22,465.01" fill="#faffa8" />
  <polygon points="444.22,526.80 462.24,526.80 462.24,497.20 444.22,497.20" fill="#faffa8" />
  <polygon points="444.22,558.99 462.24,558.99 462.24,529.38 444.22,529.38" fill="#faffa8" />
  <polygon points="444.22,591.17 462.24,591.17 462.24,561.56 444.22,561.56" fill="#faffa8" />
  <polygon points="444.22,623.35 462.24,623.35 462.24,593.74 444.22,593.74" fill="#faffa8" />
  <polygon points="542.17,430.26 560.19,430.26 560.19,400.65 542.17,400.65" fill="#faffa8" />
  <polygon points="561.76,430.26 579.78,430.26 579.78,400.65 561.76,400.65" fill="#faffa8" />
  <polygon points="581.35,430.26 599.37,430.26 599.37,400.65 581.35,400.65" fill="#faffa8" />
  <polygon points="522.58,462.44 540.60,462.44 540.60,432.83 522.58,432.83" fill="#faffa8" />
  <polygon points="600.94,462.44 618.96,462.44 618.96,432.83 600.94,432.83" fill="#faffa8" />
  <polygon points="522.58,494.62 540.60,494.62 540.60,465.01 522.58,465.01" fill="#faffa8" />
  <polygon points="600.94,494.62 618.96,494.62 618.96,465.01 600.94,465.01" fill="#faffa8" />
  <polygon points="522.58,526.80 540.60,526.80 540.60,497.20 522.58,497.20" fill="#faffa8" />
  <polygon points="600.94,526.80 618.96,526.80 618.96,497.20 600.94,497.20" fill="#faffa8" />
  <polygon points="522.58,558.99 540.60,558.99 540.60,529.38 522.58,529.38" fill="#faffa8" />
  <polygon points="600.94,558.99 618.96,558.99 618.96,529.38 600.94,529.38" fill="#faffa8" />
  <polygon points="522.58,591.17 540.60,591.17 540.60,561.56 522.58,561.56" fill="#faffa8" />
  <polygon points="600.94,591.17 618.96,591.17 618.96,561.56 600.94,561.56" fill="#faffa8" />
  <polygon points="542.17,623.35 560.19,623.35 560.19,593.74 542.17,593.74" fill="#faffa8" />
  <polygon points="561.76,623.35 579.78,623.35 579.78,593.74 561.76,593.74" fill="#faffa8" />
  <polygon points="581.35,623.35 599.37,623.35 599.37,593.74 581.35,593.74" fill="#faffa8" />
  <polygon points="640.12,430.26 658.14,430.26 658.14,400.65 640.12,400.65" fill="#faffa8" />
  <polygon points="659.71,430.26 677.73,430.26 677.73,400.65 659.71,400.65" fill="#faffa8" />
  <polygon points="679.29,430.26 697.32,430.26 697.32,400.65 679.29,400.65" fill="#faffa8" />
  <polygon points="698.88,430.26 716.91,430.26 716.91,400.65 698.88,400.65" fill="#faffa8" />
  <polygon points="640.12,462.44 658.14,462.44 658.14,432.83 640.12,432.83" fill="#faffa8" />
  <polygon points="718.47,462.44 736.50,462.44 736.50,432.83 718.47,432.83" fill="#faffa8" />
  <polygon points="640.12,494.62 658.14,494.62 658.14,465.01 640.12,465.01" fill="#faffa8" />
  <polygon points="718.47,494.62 736.50,494.62 736.50,465.01 718.47,465.01" fill="#faffa8" />
  <polygon points="640.12,526.80 658.14,526.80 658.14,497.20 640.12,497.20" fill="#faffa8" />
  <polygon points="659.71,526.80 677.73,526.80 677.73,497.20 659.71,497.20" fill="#faffa8" />
  <polygon points="679.29,526.80 697.32,526.80 697.32,497.20 679.29,497.20" fill="#faffa8" />
  <polygon points="698.88,526.80 716.91,526.80 716.91,497.20 698.88,497.20" fill="#faffa8" />
  <polygon points="640.12,558.99 658.14,558.99 658.14,529.38 640.12,529.38" fill="#faffa8" />
  <polygon points="640.12,591.17 658.14,591.17 658.14,561.56 640.12,561.56" fill="#faffa8" />
  <polygon points="640.12,623.35 658.14,623.35 658.14,593.74 640.12,593.74" fill="#faffa8" />
  <polygon points="286.72,855.04 573.44,855.04 573.44,742.40 286.72,742.40" fill="#fff083" />
  <polygon points="623.72,649.76 784.55,618.50 768.92,538.08 608.09,569.34" fill="#fff083" />
  <polygon points="263.86,268.62 673.46,678.22 637.26,714.42 227.66,304.82" fill="#fff083" />
  <polygon points="323.33,474.14 732.93,371.74 741.63,406.50 332.03,508.90" fill="#fff083" />
</svg>
