<svg xmlns="http://www.w3.org/2000/svg" viewBox="0 0 1024 1024">
  <polygon points="25.60,890.88 998.40,890.88 998.40,133.12 25.60,133.12" fill="#faffa8" />
  <polygon points="56.32,849.92 967.68,849.92 967.68,174.08 56.32,174.08" fill="#bdff58" />
  <polygon points="102.40,496.64 921.60,496.64 921.60,527.36 102.40,527.36" fill="#faffa8" />
  <polygon points="348.83,662.88 358.48,662.88 358.48,650.77 348.83,650.77" fill="#faffa8" />
  <polygon points="359.32,662.88 368.97,662.88 368.97,650.77 359.32,650.77" fill="#faffa8" />
  <polygon points="369.81,662.88 379.46,662.88 379.46,650.77 369.81,650.77" fill="#faffa8" />
  <polygon points="380.30,662.88 389.95,662.88 389.95,650.77 380.30,650.77" fill="#faffa8" />
  <polygon points="338.34,676.04 347.99,676.04 347.99,663.93 338.34,663.93" fill="#faffa8" />
  <polygon points="338.34,689.21 347.99,689.21 347.99,677.10 338.34,677.10" fill="#faffa8" />
  <polygon points="348.83,702.38 358.48,702.38 358.48,690.26 348.83,690.26" fill="#faffa8" />
  <polygon points="359.32,702.38 368.97,702.38 368.97,690.26 359.32,690.26" fill="#faffa8" />
  <polygon points="369.81,702.38 379.46,702.38 379.46,690.26 369.81,690.26" fill="#faffa8" />
  <polygon points="380.30,715.54 389.95,715.54 389.95,703.43 380.30,703.43" fill="#faffa8" />
  <polygon points="380.30,728.71 389.95,728.71 389.95,716.60 380.30,716.60" fill="#faffa8" />
  <polygon points="338.34,741.87 347.99,741.87 347.99,729.76 338.34,729.76" fill="#faffa8" />
  <polygon points="348.83,741.87 358.48,741.87 358.48,729.76 348.83,729.76" fill="#faffa8" />
  <polygon points="359.32,741.87 368.97,741.87 368.97,729.76 359.32,729.76" fill="#faffa8" />
  <polygon points="369.81,741.87 379.46,741.87 379.46,729.76 369.81,729.76" fill="#faffa8" />
  <polygon points="401.28,662.88 410.93,662.88 410.93,650.77 401.28,650.77" fill="#faffa8" />
  <polygon points="411.77,662.88 421.42,662.88 421.42,650.77 411.77,650.77" fill="#faffa8" />
  <polygon points="422.26,662.88 431.91,662.88 431.91,650.77 422.26,650.77" fill="#faffa8" />
  <polygon points="432.75,662.88 442.40,662.88 442.40,650.77 432.75,650.77" fill="#faffa8" />
  <polygon points="443.24,662.88 452.89,662.88 452.89,650.77 443.24,650.77" fill="#faffa8" />
  <polygon points="422.26,676.04 431.91,676.04 431.91,663.93 422.26,663.93" fill="#faffa8" />
  <polygon points="422.26,689.21 431.91,689.21 431.91,677.10 422.26,677.10" fill="#faffa8" />
  <polygon points="422.26,702.38 431.91,702.38 431.91,690.26 422.26,690.26" fill="#faffa8" />
  <polygon points="422.26,715.54 431.91,715.54 431.91,703.43 422.26,703.43" fill="#faffa8" />
  <polygon points="422.26,728.71 431.91,728.71 431.91,716.60 422.26,716.60" fill="#faffa8" />
  <polygon points="422.26,741.87 431.91,741.87 431.91,729.76 422.26,729.76" fill="#faffa8" />
  <polygon points="485.20,662.88 494.85,662.88 494.85,650.77 485.20,650.77" fill="#faffa8" />
  <polygon points="474.71,676.04 484.36,676.04 484.36,663.93 474.71,663.93" fill="#faffa8" />
  <polygon points="495.69,676.04 505.34,676.04 505.34,663.93 495.69,663.93" fill="#faffa8" />
  <polygon points="464.22,689.21 473.87,689.21 473.87,677.10 464.22,677.10" fill="#faffa8" />
  <polygon points="506.18,689.21 515.83,689.21 515.83,677.10 506.18,677.10" fill="#faffa8" />
  <polygon points="464.22,702.38 473.87,702.38 473.87,690.26 464.22,690.26" fill="#faffa8" />
  <polygon points="506.18,702.38 515.83,702.38 515.83,690.26 506.18,690.26" fill="#faffa8" />
  <polygon points="464.22,715.54 473.87,715.54 473.87,703.43 464.22,703.43" fill="#faffa8" />
  <polygon points="474.71,715.54 484.36,715.54 484.36,703.43 474.71,703.43" fill="#faffa8" />
  <polygon points="485.20,715.54 494.85,715.54 494.85,703.43 485.20,703.43" fill="#faffa8" />
  <polygon points="495.69,715.54 505.34,715.54 505.34,703.43 495.69,703.43" fill="#faffa8" />
  <polygon points="506.18,715.54 515.83,715.54 515.83,703.43 506.18,703.43" fill="#faffa8" />
  <polygon points="464.22,728.71 473.87,728.71 473.87,716.60 464.22,716.60" fill="#faffa8" />
  <polygon points="506.18,728.71 515.83,728.71 515.83,716.60 506.18,716.60" fill="#faffa8" />
  <polygon points="464.22,741.87 473.87,741.87 473.87,729.76 464.22,729.76" fill="#faffa8" />
  <polygon points="506.18,741.87 515.83,741.87 515.83,729.76 506.18,729.76" fill="#faffa8" />
  <polygon points="527.16,662.88 536.81,662.88 536.81,650.77 527.16,650.77" fill="#faffa8" />
  <polygon points="537.64,662.88 547.30,662.88 547.30,650.77 537.64,650.77" fill="#faffa8" />
  <polygon points="548.13,662.88 557.79,662.88 557.79,650.77 548.13,650.77" fill="#faffa8" />
  <polygon points="558.62,662.88 568.28,662.88 568.28,650.77 558.62,650.77" fill="#faffa8" />
  <polygon points="569.11,662.88 578.76,662.88 578.76,650.77 569.11,650.77" fill="#faffa8" />
  <polygon points="548.13,676.04 557.79,676.04 557.79,663.93 548.13,663.93" fill="#faffa8" />
  <polygon points="548.13,689.21 557.79,689.21 557.79,677.10 548.13,677.10" fill="#faffa8" />
  <polygon points="548.13,702.38 557.79,702.38 557.79,690.26 548.13,690.26" fill="#faffa8" />
  <polygon points="548.13,715.54 557.79,715.54 557.79,703.43 548.13,703.43" fill="#faffa8" />
  <polygon points="548.13,728.71 557.79,728.71 557.79,716.60 548.13,716.60" fill="#faffa8" />
  <polygon points="548.13,741.87 557.79,741.87 557.79,729.76 548.13,729.76" fill="#faffa8" />
  <polygon points="590.09,662.88 599.74,662.88 599.74,650.77 590.09,650.77" fill="#faffa8" />
  <polygon points="600.58,662.88 610.23,662.88 610.23,650.77 600.58,650.77" fill="#faffa8" />
  <polygon points="611.07,662.88 620.72,662.88 620.72,650.77 611.07,650.77" fill="#faffa8" />
  <polygon points="621.56,662.88 631.21,662.88 631.21,650.77 621.56,650.77" fill="#faffa8" />
  <polygon points="632.05,662.88 641.70,662.88 641.70,650.77 632.05,650.77" fill="#faffa8" />
  <polygon points="611.07,676.04 620.72,676.04 620.72,663.93 611.07,663.93" fill="#faffa8" />
  <polygon points="611.07,689.21 620.72,689.21 620.72,677.10 611.07,677.10" fill="#faffa8" />
  <polygon points="611.07,702.38 620.72,702.38 620.72,690.26 611.07,690.26" fill="#faffa8" />
  <polygon points="611.07,715.54 620.72,715.54 620.72,703.43 611.07,703.43" fill="#faffa8" />
  <polygon points="611.07,728.71 620.72,728.71 620.72,716.60 611.07,716.60" fill="#faffa8" />
  <polygon points="590.09,741.87 599.74,741.87 599.74,729.76 590.09,729.76" fill="#faffa8" />
  <polygon points="600.58,741.87 610.23,741.87 610.23,729.76 600.58,729.76" fill="#faffa8" />
  <polygon points="611.07,741.87 620.72,741.87 620.72,729.76 611.07,729.76" fill="#faffa8" />
  <polygon points="621.56,741.87 631.21,741.87 631.21,729.76 621.56,729.76" fill="#faffa8" />
  <polygon points="632.05,741.87 641.70,741.87 641.70,729.76 632.05,729.76" fill="#faffa8" />
  <polygon points="663.52,662.88 673.17,662.88 673.17,650.77 663.52,650.77" fill="#faffa8" />
  <polygon points="674.01,662.88 683.66,662.88 683.66,650.77 674.01,650.77" fill="#faffa8" />
  <polygon points="684.50,662.88 694.15,662.88 694.15,650.77 684.50,650.77" fill="#faffa8" />
  <polygon points="653.03,676.04 662.68,676.04 662.68,663.93 653.03,663.93" fill="#faffa8" />
  <polygon points="694.99,676.04 704.64,676.04 704.64,663.93 694.99,663.93" fill="#faffa8" />
  <polygon points="653.03,689.21 662.68,689.21 662.68,677.10 653.03,677.10" fill="#faffa8" />
  <polygon points="694.99,689.21 704.64,689.21 704.64,677.10 694.99,677.10" fill="#faffa8" />
  <polygon points="653.03,702.38 662.68,702.38 662.68,690.26 653.03,690.26" fill="#faffa8" />
  <polygon points="694.99,702.38 704.64,702.38 704.64,690.26 694.99,690.26" fill="#faffa8" />
  <polygon points="653.03,715.54 662.68,715.54 662.68,703.43 653.03,703.43" fill="#faffa8" />
  <polygon points="694.99,715.54 704.64,715.54 704.64,703.43 694.99,703.43" fill="#faffa8" />
  <polygon points="653.03,728.71 662.68,728.71 662.68,716.60 653.03,716.60" fill="#faffa8" />
  <polygon points="694.99,728.71 704.64,728.71 704.64,716.60 694.99,716.60" fill="#faffa8" />
  <polygon points="663.52,741.87 673.17,741.87 673.17,729.76 663.52,729.76" fill="#faffa8" />
  <polygon points="674.01,741.87 683.66,741.87 683.66,729.76 674.01,729.76" fill="#faffa8" />
  <polygon points="684.50,741.87 694.15,741.87 694.15,729.76 684.50,729.76" fill="#faffa8" />
  <polygon points="715.97,662.88 725.62,662.88 725.62,650.77 715.97,650.77" fill="#faffa8" />
  <polygon points="757.93,662.88 767.58,662.88 767.58,650.77 757.93,650.77" fill="#faffa8" />
  <polygon points="715.97,676.04 725.62,676.04 725.62,663.93 715.97,663.93" fill="#faffa8" />
  <polygon points="726.46,676.04 736.11,676.04 736.11,663.93 726.46,663.93" fill="#faffa8" />
  <polygon points="757.93,676.04 767.58,676.04 767.58,663.93 757.93,663.93" fill="#faffa8" />
  <polygon points="715.97,689.21 725.62,689.21 725.62,677.10 715.97,677.10" fill="#faffa8" />
  <polygon points="736.95,689.21 746.60,689.21 746.60,677.10 736.95,677.10" fill="#faffa8" />
  <polygon points="757.93,689.21 767.58,689.21 767.58,677.10 757.93,677.10" fill="#faffa8" />
  <polygon points="715.97,702.38 725.62,702.38 725.62,690.26 715.97,690.26" fill="#faffa8" />
  <polygon points="747.44,702.38 757.09,702.38 757.09,690.26 747.44,690.26" fill="#faffa8" />
  <polygon points="757.93,702.38 767.58,702.38 767.58,690.26 757.93,690.26" fill="#faffa8" />
  <polygon points="715.97,715.54 725.62,715.54 725.62,703.43 715.97,703.43" fill="#faffa8" />
  <polygon points="757.93,715.54 767.58,715.54 767.58,703.43 757.93,703.43" fill="#faffa8" />
  <polygon points="715.97,728.71 725.62,728.71 725.62,716.60 715.97,716.60" fill="#faffa8" />
  <polygon points="757.93,728.71 767.58,728.71 767.58,716.60 757.93,716.60" fill="#faffa8" />
  <polygon points="715.97,741.87 725.62,741.87 725.62,729.76 715.97,729.76" fill="#faffa8" />
  <polygon points="757.93,741.87 767.58,741.87 767.58,729.76 757.93,729.76" fill="#faffa8" />
  <polygon points="507.46,294.24 520.81,294.24 520.81,282.13 507.46,282.13" fill="#faffa8" />
  <polygon points="521.97,294.24 535.31,294.24 535.31,282.13 521.97,282.13" fill="#faffa8" />
  <polygon points="536.47,294.24 549.82,294.24 549.82,282.13 536.47,282.13" fill="#faffa8" />
  <polygon points="550.98,294.24 564.33,294.24 564.33,282.13 550.98,282.13" fill="#faffa8" />
  <polygon points="565.49,294.24 578.83,294.24 578.83,282.13 565.49,282.13" fill="#faffa8" />
  <polygon points="507.46,307.40 520.81,307.40 520.81,295.29 507.46,295.29" fill="#faffa8" />
  <polygon points="507.46,320.57 520.81,320.57 520.81,308.46 507.46,308.46" fill="#faffa8" />
  <polygon points="507.46,333.74 520.81,333.74 520.81,321.62 507.46,321.62" fill="#faffa8" />
  <polygon points="521.97,333.74 535.31,333.74 535.31,321.62 521.97,321.62" fill="#faffa8" />
  <polygon points="536.47,333.74 549.82,333.74 549.82,321.62 536.47,321.62" fill="#faffa8" />
  <polygon points="550.98,333.74 564.33,333.74 564.33,321.62 550.98,321.62" fill="#faffa8" />
  <polygon points="507.46,346.90 520.81,346.90 520.81,334.79 507.46,334.79" fill="#faffa8" />
  <polygon points="507.46,360.07 520.81,360.07 520.81,347.96 507.46,347.96" fill="#faffa8" />
  <polygon points="507.46,373.23 520.81,373.23 520.81,361.12 507.46,361.12" fill="#faffa8" />
  <polygon points="521.97,373.23 535.31,373.23 535.31,361.12 521.97,361.12" fill="#faffa8" />
  <polygon points="536.47,373.23 549.82,373.23 549.82,361.12 536.47,361.12" fill="#faffa8" />
  <polygon points="550.98,373.23 564.33,373.23 564.33,361.12 550.98,361.12" fill="#faffa8" />
  <polygon points="565.49,373.23 578.83,373.23 578.83,361.12 565.49,361.12" fill="#faffa8" />
  <polygon points="594.50,294.24 607.85,294.24 607.85,282.13 594.50,282.13" fill="#faffa8" />
  <polygon points="609.01,294.24 622.35,294.24 622.35,282.13 609.01,282.13" fill="#faffa8" />
  <polygon points="623.51,294.24 636.86,294.24 636.86,282.13 623.51,282.13" fill="#faffa8" />
  <polygon points="638.02,294.24 651.37,294.24 651.37,282.13 638.02,282.13" fill="#faffa8" />
  <polygon points="594.50,307.40 607.85,307.40 607.85,295.29 594.50,295.29" fill="#faffa8" />
  <polygon points="652.53,307.40 665.87,307.40 665.87,295.29 652.53,295.29" fill="#faffa8" />
  <polygon points="594.50,320.57 607.85,320.57 607.85,308.46 594.50,308.46" fill="#faffa8" />
  <polygon points="652.53,320.57 665.87,320.57 665.87,308.46 652.53,308.46" fill="#faffa8" />
  <polygon points="594.50,333.74 607.85,333.74 607.85,321.62 594.50,321.62" fill="#faffa8" />
  <polygon points="609.01,333.74 622.35,333.74 622.35,321.62 609.01,321.62" fill="#faffa8" />
  <polygon points="623.51,333.74 636.86,333.74 636.86,321.62 623.51,321.62" fill="#faffa8" />
  <polygon points="638.02,333.74 651.37,333.74 651.37,321.62 638.02,321.62" fill="#faffa8" />
  <polygon points="594.50,346.90 607.85,346.90 607.85,334.79 594.50,334.79" fill="#faffa8" />
  <polygon points="623.51,346.90 636.86,346.90 636.86,334.79 623.51,334.79" fill="#faffa8" />
  <polygon points="594.50,360.07 607.85,360.07 607.85,347.96 594.50,347.96" fill="#faffa8" />
  <polygon points="638.02,360.07 651.37,360.07 651.37,347.96 638.02,347.96" fill="#faffa8" />
  <polygon points="594.50,373.23 607.85,373.23 607.85,361.12 594.50,361.12" fill="#faffa8" />
  <polygon points="652.53,373.23 665.87,373.23 665.87,361.12 652.53,361.12" fill="#faffa8" />
  <polygon points="681.54,294.24 694.89,294.24 694.89,282.13 681.54,282.13" fill="#faffa8" />
  <polygon points="696.05,294.24 709.39,294.24 709.39,282.13 696.05,282.13" fill="#faffa8" />
  <polygon points="710.55,294.24 723.90,294.24 723.90,282.13 710.55,282.13" fill="#faffa8" />
  <polygon points="725.06,294.24 738.41,294.24 738.41,282.13 725.06,282.13" fill="#faffa8" />
  <polygon points="681.54,307.40 694.89,307.40 694.89,295.29 681.54,295.29" fill="#faffa8" />
  <polygon points="739.57,307.40 752.91,307.40 752.91,295.29 739.57,295.29" fill="#faffa8" />
  <polygon points="681.54,320.57 694.89,320.57 694.89,308.46 681.54,308.46" fill="#faffa8" />
  <polygon points="739.57,320.57 752.91,320.57 752.91,308.46 739.57,308.46" fill="#faffa8" />
  <polygon points="681.54,333.74 694.89,333.74 694.89,321.62 681.54,321.62" fill="#faffa8" />
  <polygon points="696.05,333.74 709.39,333.74 709.39,321.62 696.05,321.62" fill="#faffa8" />
  <polygon points="710.55,333.74 723.90,333.74 723.90,321.62 710.55,321.62" fill="#faffa8" />
  <polygon points="725.06,333.74 738.41,333.74 738.41,321.62 725.06,321.62" fill="#faffa8" />
  <polygon points="681.54,346.90 694.89,346.90 694.89,334.79 681.54,334.79" fill="#faffa8" />
  <polygon points="710.55,346.90 723.90,346.90 723.90,334.79 710.55,334.79" fill="#faffa8" />
  <polygon points="681.54,360.07 694.89,360.07 694.89,347.96 681.54,347.96" fill="#faffa8" />
  <polygon points="725.06,360.07 738.41,360.07 738.41,347.96 725.06,347.96" fill="#faffa8" />
  <polygon points="681.54,373.23 694.89,373.23 694.89,361.12 681.54,361.12" fill="#faffa8" />
  <polygon points="739.57,373.23 752.91,373.23 752.91,361.12 739.57,361.12" fill="#faffa8" />
  <polygon points="768.58,294.24 781.93,294.24 781.93,282.13 768.58,282.13" fill="#faffa8" />
  <polygon points="826.61,294.24 839.95,294.24 839.95,282.13 826.61,282.13" fill="#faffa8" />
  <polygon points="768.58,307.40 781.93,307.40 781.93,295.29 768.58,295.29" fill="#faffa8" />
  <polygon points="826.61,307.40 839.95,307.40 839.95,295.29 826.61,295.29" fill="#faffa8" />
  <polygon points="783.09,320.57 796.43,320.57 796.43,308.46 783.09,308.46" fill="#faffa8" />
  <polygon points="812.10,320.57 825.45,320.57 825.45,308.46 812.10,308.46" fill="#faffa8" />
  <polygon points="797.59,333.74 810.94,333.74 810.94,321.62 797.59,321.62" fill="#faffa8" />
  <polygon points="797.59,346.90 810.94,346.90 810.94,334.79 797.59,334.79" fill="#faffa8" />
  <polygon points="797.59,360.07 810.94,360.07 810.94,347.96 797.59,347.96" fill="#faffa8" />
  <polygon points="797.59,373.23 810.94,373.23 810.94,361.12 797.59,361.12" fill="#faffa8" />
  <polygon points="368.64,358.40 215.04,358.40 215.04,296.96 368.64,296.96" fill="#faffa8" />
  <polygon points="102.40,327.68 215.04,409.60 215.04,245.76" fill="#faffa8" />
</svg>
