<svg xmlns="http://www.w3.org/2000/svg" viewBox="0 0 1024 1024">
  <polygon points="25.60,706.56 998.40,706.56 998.40,317.44 25.60,317.44" fill="#65f2ff" />
  <polygon points="491.52,552.96 266.24,552.96 266.24,471.04 491.52,471.04" fill="#faffa8" />
  <polygon points="122.88,512.00 266.24,614.40 266.24,409.60" fill="#faffa8" />
  <polygon points="512.56,474.84 525.56,474.84 525.56,461.39 512.56,461.39" fill="#faffa8" />
  <polygon points="569.06,474.84 582.06,474.84 582.06,461.39 569.06,461.39" fill="#faffa8" />
  <polygon points="512.56,489.47 525.56,489.47 525.56,476.01 512.56,476.01" fill="#faffa8" />
  <polygon points="569.06,489.47 582.06,489.47 582.06,476.01 569.06,476.01" fill="#faffa8" />
  <polygon points="512.56,504.10 525.56,504.10 525.56,490.64 512.56,490.64" fill="#faffa8" />
  <polygon points="569.06,504.10 582.06,504.10 582.06,490.64 569.06,490.64" fill="#faffa8" />
  <polygon points="512.56,518.73 525.56,518.73 525.56,505.27 512.56,505.27" fill="#faffa8" />
  <polygon points="526.69,518.73 539.68,518.73 539.68,505.27 526.69,505.27" fill="#faffa8" />
  <polygon points="540.81,518.73 553.81,518.73 553.81,505.27 540.81,505.27" fill="#faffa8" />
  <polygon points="554.94,518.73 567.93,518.73 567.93,505.27 554.94,505.27" fill="#faffa8" />
  <polygon points="569.06,518.73 582.06,518.73 582.06,505.27 569.06,505.27" fill="#faffa8" />
  <polygon points="512.56,533.36 525.56,533.36 525.56,519.90 512.56,519.90" fill="#faffa8" />
  <polygon points="569.06,533.36 582.06,533.36 582.06,519.90 569.06,519.90" fill="#faffa8" />
  <polygon points="512.56,547.99 525.56,547.99 525.56,534.53 512.56,534.53" fill="#faffa8" />
  <polygon points="569.06,547.99 582.06,547.99 582.06,534.53 569.06,534.53" fill="#faffa8" />
  <polygon points="512.56,562.61 525.56,562.61 525.56,549.16 512.56,549.16" fill="#faffa8" />
  <polygon points="569.06,562.61 582.06,562.61 582.06,549.16 569.06,549.16" fill="#faffa8" />
  <polygon points="611.43,474.84 624.43,474.84 624.43,461.39 611.43,461.39" fill="#faffa8" />
  <polygon points="625.56,474.84 638.55,474.84 638.55,461.39 625.56,461.39" fill="#faffa8" />
  <polygon points="639.68,474.84 652.68,474.84 652.68,461.39 639.68,461.39" fill="#faffa8" />
  <polygon points="597.31,489.47 610.30,489.47 610.30,476.01 597.31,476.01" fill="#faffa8" />
  <polygon points="653.81,489.47 666.80,489.47 666.80,476.01 653.81,476.01" fill="#faffa8" />
  <polygon points="597.31,504.10 610.30,504.10 610.30,490.64 597.31,490.64" fill="#faffa8" />
  <polygon points="653.81,504.10 666.80,504.10 666.80,490.64 653.81,490.64" fill="#faffa8" />
  <polygon points="597.31,518.73 610.30,518.73 610.30,505.27 597.31,505.27" fill="#faffa8" />
  <polygon points="653.81,518.73 666.80,518.73 666.80,505.27 653.81,505.27" fill="#faffa8" />
  <polygon points="597.31,533.36 610.30,533.36 610.30,519.90 597.31,519.90" fill="#faffa8" />
  <polygon points="653.81,533.36 666.80,533.36 666.80,519.90 653.81,519.90" fill="#faffa8" />
  <polygon points="597.31,547.99 610.30,547.99 610.30,534.53 597.31,534.53" fill="#faffa8" />
  <polygon points="653.81,547.99 666.80,547.99 666.80,534.53 653.81,534.53" fill="#faffa8" />
  <polygon points="611.43,562.61 624.43,562.61 624.43,549.16 611.43,549.16" fill="#faffa8" />
  <polygon points="625.56,562.61 638.55,562.61 638.55,549.16 625.56,549.16" fill="#faffa8" />
  <polygon points="639.68,562.61 652.68,562.61 652.68,549.16 639.68,549.16" fill="#faffa8" />
  <polygon points="682.05,474.84 695.05,474.84 695.05,461.39 682.05,461.39" fill="#faffa8" />
  <polygon points="696.18,474.84 709.17,474.84 709.17,461.39 696.18,461.39" fill="#faffa8" />
  <polygon points="710.30,474.84 723.30,474.84 723.30,461.39 710.30,461.39" fill="#faffa8" />
  <polygon points="724.43,474.84 737.42,474.84 737.42,461.39 724.43,461.39" fill="#faffa8" />
  <polygon points="738.55,474.84 751.55,474.84 751.55,461.39 738.55,461.39" fill="#faffa8" />
  <polygon points="710.30,489.47 723.30,489.47 723.30,476.01 710.30,476.01" fill="#faffa8" />
  <polygon points="710.30,504.10 723.30,504.10 723.30,490.64 710.30,490.64" fill="#faffa8" />
  <polygon points="710.30,518.73 723.30,518.73 723.30,505.27 710.30,505.27" fill="#faffa8" />
  <polygon points="710.30,533.36 723.30,533.36 723.30,519.90 710.30,519.90" fill="#faffa8" />
  <polygon points="710.30,547.99 723.30,547.99 723.30,534.53 710.30,534.53" fill="#faffa8" />
  <polygon points="710.30,562.61 723.30,562.61 723.30,549.16 710.30,549.16" fill="#faffa8" />
  <polygon points="766.80,474.84 779.79,474.84 779.79,461.39 766.80,461.39" fill="#faffa8" />
  <polygon points="780.92,474.84 793.92,474.84 793.92,461.39 780.92,461.39" fill="#faffa8" />
  <polygon points="795.05,474.84 808.04,474.84 808.04,461.39 795.05,461.39" fill="#faffa8" />
  <polygon points="809.17,474.84 822.17,474.84 822.17,461.39 809.17,461.39" fill="#faffa8" />
  <polygon points="823.30,474.84 836.29,474.84 836.29,461.39 823.30,461.39" fill="#faffa8" />
  <polygon points="766.80,489.47 779.79,489.47 779.79,476.01 766.80,476.01" fill="#faffa8" />
  <polygon points="766.80,504.10 779.79,504.10 779.79,490.64 766.80,490.64" fill="#faffa8" />
  <polygon points="766.80,518.73 779.79,518.73 779.79,505.27 766.80,505.27" fill="#faffa8" />
  <polygon points="780.92,518.73 793.92,518.73 793.92,505.27 780.92,505.27" fill="#faffa8" />
  <polygon points="795.05,518.73 808.04,518.73 808.04,505.27 795.05,505.27" fill="#faffa8" />
  <polygon points="809.17,518.73 822.17,518.73 822.17,505.27 809.17,505.27" fill="#faffa8" />
  <polygon points="766.80,533.36 779.79,533.36 779.79,519.90 766.80,519.90" fill="#faffa8" />
  <polygon points="766.80,547.99 779.79,547.99 779.79,534.53 766.80,534.53" fill="#faffa8" />
  <polygon points="766.80,562.61 779.79,562.61 779.79,549.16 766.80,549.16" fill="#faffa8" />
  <polygon points="780.92,562.61 793.92,562.61 793.92,549.16 780.92,549.16" fill="#faffa8" />
  <polygon points="795.05,562.61 808.04,562.61 808.04,549.16 795.05,549.16" fill="#faffa8" />
  <polygon points="809.17,562.61 822.17,562.61 822.17,549.16 809.17,549.16" fill="#faffa8" />
  <polygon points="823.30,562.61 836.29,562.61 836.29,549.16 823.30,549.16" fill="#faffa8" />
  <polygon points="851.54,474.84 864.54,474.84 864.54,461.39 851.54,461.39" fill="#faffa8" />
  <polygon points="851.54,489.47 864.54,489.47 864.54,476.01 851.54,476.01" fill="#faffa8" />
  <polygon points="851.54,504.10 864.54,504.10 864.54,490.64 851.54,490.64" fill="#faffa8" />
  <polygon points="851.54,518.73 864.54,518.73 864.54,505.27 851.54,505.27" fill="#faffa8" />
  <polygon points="851.54,533.36 864.54,533.36 864.54,519.90 851.54,519.90" fill="#faffa8" />
  <polygon points="851.54,547.99 864.54,547.99 864.54,534.53 851.54,534.53" fill="#faffa8" />
  <polygon points="851.54,562.61 864.54,562.61 864.54,549.16 851.54,549.16" fill="#faffa8" />
  <polygon points="865.67,562.61 878.66,562.61 878.66,549.16 865.67,549.16" fill="#faffa8" />
  <polygon points="879.79,562.61 892.79,562.61 892.79,549.16 879.79,549.16" fill="#faffa8" />
  <polygon points="893.92,562.61 906.91,562.61 906.91,549.16 893.92,549.16" fill="#faffa8" />
  <polygon points="908.04,562.61 921.04,562.61 921.04,549.16 908.04,549.16" fill="#faffa8" />
</svg>
