<svg xmlns="http://www.w3.org/2000/svg" viewBox="0 0 1024 1024">
  <polygon points="20.48,716.80 1003.52,716.80 1003.52,307.20 20.48,307.20" fill="#faffa8" />
  <polygon points="61.44,675.84 962.56,675.84 962.56,348.16 61.44,348.16" fill="#ff710f" />
  <polygon points="396.05,463.70 426.88,463.70 426.88,446.20 396.05,446.20" fill="#faffa8" />
  <polygon points="362.53,482.71 393.36,482.71 393.36,465.22 362.53,465.22" fill="#faffa8" />
  <polygon points="429.56,482.71 460.39,482.71 460.39,465.22 429.56,465.22" fill="#faffa8" />
  <polygon points="329.02,501.73 359.85,501.73 359.85,484.23 329.02,484.23" fill="#faffa8" />
  <polygon points="463.07,501.73 493.90,501.73 493.90,484.23 463.07,484.23" fill="#faffa8" />
  <polygon points="329.02,520.75 359.85,520.75 359.85,503.25 329.02,503.25" fill="#faffa8" />
  <polygon points="463.07,520.75 493.90,520.75 493.90,503.25 463.07,503.25" fill="#faffa8" />
  <polygon points="329.02,539.77 359.85,539.77 359.85,522.27 329.02,522.27" fill="#faffa8" />
  <polygon points="362.53,539.77 393.36,539.77 393.36,522.27 362.53,522.27" fill="#faffa8" />
  <polygon points="396.05,539.77 426.88,539.77 426.88,522.27 396.05,522.27" fill="#faffa8" />
  <polygon points="429.56,539.77 460.39,539.77 460.39,522.27 429.56,522.27" fill="#faffa8" />
  <polygon points="463.07,539.77 493.90,539.77 493.90,522.27 463.07,522.27" fill="#faffa8" />
  <polygon points="329.02,558.78 359.85,558.78 359.85,541.29 329.02,541.29" fill="#faffa8" />
  <polygon points="463.07,558.78 493.90,558.78 493.90,541.29 463.07,541.29" fill="#faffa8" />
  <polygon points="329.02,577.80 359.85,577.80 359.85,560.30 329.02,560.30" fill="#faffa8" />
  <polygon points="463.07,577.80 493.90,577.80 493.90,560.30 463.07,560.30" fill="#faffa8" />
  <polygon points="530.10,463.70 560.93,463.70 560.93,446.20 530.10,446.20" fill="#faffa8" />
  <polygon points="563.61,463.70 594.44,463.70 594.44,446.20 563.61,446.20" fill="#faffa8" />
  <polygon points="597.12,463.70 627.95,463.70 627.95,446.20 597.12,446.20" fill="#faffa8" />
  <polygon points="630.64,463.70 661.47,463.70 661.47,446.20 630.64,446.20" fill="#faffa8" />
  <polygon points="664.15,463.70 694.98,463.70 694.98,446.20 664.15,446.20" fill="#faffa8" />
  <polygon points="664.15,482.71 694.98,482.71 694.98,465.22 664.15,465.22" fill="#faffa8" />
  <polygon points="630.64,501.73 661.47,501.73 661.47,484.23 630.64,484.23" fill="#faffa8" />
  <polygon points="597.12,520.75 627.95,520.75 627.95,503.25 597.12,503.25" fill="#faffa8" />
  <polygon points="563.61,539.77 594.44,539.77 594.44,522.27 563.61,522.27" fill="#faffa8" />
  <polygon points="563.61,558.78 594.44,558.78 594.44,541.29 563.61,541.29" fill="#faffa8" />
  <polygon points="563.61,577.80 594.44,577.80 594.44,560.30 563.61,560.30" fill="#faffa8" />
</svg>
