<svg xmlns="http://www.w3.org/2000/svg" viewBox="0 0 1024 1024">
  <polygon points="20.48,798.72 1003.52,798.72 1003.52,225.28 20.48,225.28" fill="#faffa8" />
  <polygon points="51.20,768.00 972.80,768.00 972.80,256.00 51.20,256.00" fill="#bdff58" />
  <polygon points="496.64,737.28 496.64,286.72 527.36,286.72 527.36,737.28" fill="#faffa8" />
  <polygon points="102.03,605.15 110.76,605.15 110.76,594.39 102.03,594.39" fill="#faffa8" />
  <polygon points="111.52,605.15 120.25,605.15 120.25,594.39 111.52,594.39" fill="#faffa8" />
  <polygon points="121.01,605.15 129.74,605.15 129.74,594.39 121.01,594.39" fill="#faffa8" />
  <polygon points="92.54,616.86 101.27,616.86 101.27,606.09 92.54,606.09" fill="#faffa8" />
  <polygon points="130.50,616.86 139.23,616.86 139.23,606.09 130.50,606.09" fill="#faffa8" />
  <polygon points="92.54,628.56 101.27,628.56 101.27,617.79 92.54,617.79" fill="#faffa8" />
  <polygon points="92.54,640.26 101.27,640.26 101.27,629.50 92.54,629.50" fill="#faffa8" />
  <polygon points="92.54,651.97 101.27,651.97 101.27,641.20 92.54,641.20" fill="#faffa8" />
  <polygon points="92.54,663.67 101.27,663.67 101.27,652.90 92.54,652.90" fill="#faffa8" />
  <polygon points="130.50,663.67 139.23,663.67 139.23,652.90 130.50,652.90" fill="#faffa8" />
  <polygon points="102.03,675.37 110.76,675.37 110.76,664.61 102.03,664.61" fill="#faffa8" />
  <polygon points="111.52,675.37 120.25,675.37 120.25,664.61 111.52,664.61" fill="#faffa8" />
  <polygon points="121.01,675.37 129.74,675.37 129.74,664.61 121.01,664.61" fill="#faffa8" />
  <polygon points="149.48,605.15 158.22,605.15 158.22,594.39 149.48,594.39" fill="#faffa8" />
  <polygon points="158.97,605.15 167.71,605.15 167.71,594.39 158.97,594.39" fill="#faffa8" />
  <polygon points="168.47,605.15 177.20,605.15 177.20,594.39 168.47,594.39" fill="#faffa8" />
  <polygon points="177.96,605.15 186.69,605.15 186.69,594.39 177.96,594.39" fill="#faffa8" />
  <polygon points="187.45,605.15 196.18,605.15 196.18,594.39 187.45,594.39" fill="#faffa8" />
  <polygon points="149.48,616.86 158.22,616.86 158.22,606.09 149.48,606.09" fill="#faffa8" />
  <polygon points="149.48,628.56 158.22,628.56 158.22,617.79 149.48,617.79" fill="#faffa8" />
  <polygon points="149.48,640.26 158.22,640.26 158.22,629.50 149.48,629.50" fill="#faffa8" />
  <polygon points="158.97,640.26 167.71,640.26 167.71,629.50 158.97,629.50" fill="#faffa8" />
  <polygon points="168.47,640.26 177.20,640.26 177.20,629.50 168.47,629.50" fill="#faffa8" />
  <polygon points="177.96,640.26 186.69,640.26 186.69,629.50 177.96,629.50" fill="#faffa8" />
  <polygon points="149.48,651.97 158.22,651.97 158.22,641.20 149.48,641.20" fill="#faffa8" />
  <polygon points="149.48,663.67 158.22,663.67 158.22,652.90 149.48,652.90" fill="#faffa8" />
  <polygon points="149.48,675.37 158.22,675.37 158.22,664.61 149.48,664.61" fill="#faffa8" />
  <polygon points="158.97,675.37 167.71,675.37 167.71,664.61 158.97,664.61" fill="#faffa8" />
  <polygon points="168.47,675.37 177.20,675.37 177.20,664.61 168.47,664.61" fill="#faffa8" />
  <polygon points="177.96,675.37 186.69,675.37 186.69,664.61 177.96,664.61" fill="#faffa8" />
  <polygon points="187.45,675.37 196.18,675.37 196.18,664.61 187.45,664.61" fill="#faffa8" />
  <polygon points="206.43,605.15 215.16,605.15 215.16,594.39 206.43,594.39" fill="#faffa8" />
  <polygon points="244.39,605.15 253.12,605.15 253.12,594.39 244.39,594.39" fill="#faffa8" />
  <polygon points="206.43,616.86 215.16,616.86 215.16,606.09 206.43,606.09" fill="#faffa8" />
  <polygon points="215.92,616.86 224.65,616.86 224.65,606.09 215.92,606.09" fill="#faffa8" />
  <polygon points="244.39,616.86 253.12,616.86 253.12,606.09 244.39,606.09" fill="#faffa8" />
  <polygon points="206.43,628.56 215.16,628.56 215.16,617.79 206.43,617.79" fill="#faffa8" />
  <polygon points="225.41,628.56 234.14,628.56 234.14,617.79 225.41,617.79" fill="#faffa8" />
  <polygon points="244.39,628.56 253.12,628.56 253.12,617.79 244.39,617.79" fill="#faffa8" />
  <polygon points="206.43,640.26 215.16,640.26 215.16,629.50 206.43,629.50" fill="#faffa8" />
  <polygon points="234.90,640.26 243.63,640.26 243.63,629.50 234.90,629.50" fill="#faffa8" />
  <polygon points="244.39,640.26 253.12,640.26 253.12,629.50 244.39,629.50" fill="#faffa8" />
  <polygon points="206.43,651.97 215.16,651.97 215.16,641.20 206.43,641.20" fill="#faffa8" />
  <polygon points="244.39,651.97 253.12,651.97 253.12,641.20 244.39,641.20" fill="#faffa8" />
  <polygon points="206.43,663.67 215.16,663.67 215.16,652.90 206.43,652.90" fill="#faffa8" />
  <polygon points="244.39,663.67 253.12,663.67 253.12,652.90 244.39,652.90" fill="#faffa8" />
  <polygon points="206.43,675.37 215.16,675.37 215.16,664.61 206.43,664.61" fill="#faffa8" />
  <polygon points="244.39,675.37 253.12,675.37 253.12,664.61 244.39,664.61" fill="#faffa8" />
  <polygon points="263.37,605.15 272.10,605.15 272.10,594.39 263.37,594.39" fill="#faffa8" />
  <polygon points="272.86,605.15 281.60,605.15 281.60,594.39 272.86,594.39" fill="#faffa8" />
  <polygon points="282.35,605.15 291.09,605.15 291.09,594.39 282.35,594.39" fill="#faffa8" />
  <polygon points="291.84,605.15 300.58,605.15 300.58,594.39 291.84,594.39" fill="#faffa8" />
  <polygon points="301.34,605.15 310.07,605.15 310.07,594.39 301.34,594.39" fill="#faffa8" />
  <polygon points="282.35,616.86 291.09,616.86 291.09,606.09 282.35,606.09" fill="#faffa8" />
  <polygon points="282.35,628.56 291.09,628.56 291.09,617.79 282.35,617.79" fill="#faffa8" />
  <polygon points="282.35,640.26 291.09,640.26 291.09,629.50 282.35,629.50" fill="#faffa8" />
  <polygon points="282.35,651.97 291.09,651.97 291.09,641.20 282.35,641.20" fill="#faffa8" />
  <polygon points="282.35,663.67 291.09,663.67 291.09,652.90 282.35,652.90" fill="#faffa8" />
  <polygon points="282.35,675.37 291.09,675.37 291.09,664.61 282.35,664.61" fill="#faffa8" />
  <polygon points="320.32,605.15 329.05,605.15 329.05,594.39 320.32,594.39" fill="#faffa8" />
  <polygon points="329.81,605.15 338.54,605.15 338.54,594.39 329.81,594.39" fill="#faffa8" />
  <polygon points="339.30,605.15 348.03,605.15 348.03,594.39 339.30,594.39" fill="#faffa8" />
  <polygon points="348.79,605.15 357.52,605.15 357.52,594.39 348.79,594.39" fill="#faffa8" />
  <polygon points="320.32,616.86 329.05,616.86 329.05,606.09 320.32,606.09" fill="#faffa8" />
  <polygon points="358.28,616.86 367.01,616.86 367.01,606.09 358.28,606.09" fill="#faffa8" />
  <polygon points="320.32,628.56 329.05,628.56 329.05,617.79 320.32,617.79" fill="#faffa8" />
  <polygon points="358.28,628.56 367.01,628.56 367.01,617.79 358.28,617.79" fill="#faffa8" />
  <polygon points="320.32,640.26 329.05,640.26 329.05,629.50 320.32,629.50" fill="#faffa8" />
  <polygon points="329.81,640.26 338.54,640.26 338.54,629.50 329.81,629.50" fill="#faffa8" />
  <polygon points="339.30,640.26 348.03,640.26 348.03,629.50 339.30,629.50" fill="#faffa8" />
  <polygon points="348.79,640.26 357.52,640.26 357.52,629.50 348.79,629.50" fill="#faffa8" />
  <polygon points="320.32,651.97 329.05,651.97 329.05,641.20 320.32,641.20" fill="#faffa8" />
  <polygon points="339.30,651.97 348.03,651.97 348.03,641.20 339.30,641.20" fill="#faffa8" />
  <polygon points="320.32,663.67 329.05,663.67 329.05,652.90 320.32,652.90" fill="#faffa8" />
  <polygon points="348.79,663.67 357.52,663.67 357.52,652.90 348.79,652.90" fill="#faffa8" />
  <polygon points="320.32,675.37 329.05,675.37 329.05,664.61 320.32,664.61" fill="#faffa8" />
  <polygon points="358.28,675.37 367.01,675.37 367.01,664.61 358.28,664.61" fill="#faffa8" />
  <polygon points="377.26,605.15 385.99,605.15 385.99,594.39 377.26,594.39" fill="#faffa8" />
  <polygon points="415.22,605.15 423.96,605.15 423.96,594.39 415.22,594.39" fill="#faffa8" />
  <polygon points="377.26,616.86 385.99,616.86 385.99,606.09 377.26,606.09" fill="#faffa8" />
  <polygon points="415.22,616.86 423.96,616.86 423.96,606.09 415.22,606.09" fill="#faffa8" />
  <polygon points="377.26,628.56 385.99,628.56 385.99,617.79 377.26,617.79" fill="#faffa8" />
  <polygon points="415.22,628.56 423.96,628.56 423.96,617.79 415.22,617.79" fill="#faffa8" />
  <polygon points="377.26,640.26 385.99,640.26 385.99,629.50 377.26,629.50" fill="#faffa8" />
  <polygon points="415.22,640.26 423.96,640.26 423.96,629.50 415.22,629.50" fill="#faffa8" />
  <polygon points="377.26,651.97 385.99,651.97 385.99,641.20 377.26,641.20" fill="#faffa8" />
  <polygon points="415.22,651.97 423.96,651.97 423.96,641.20 415.22,641.20" fill="#faffa8" />
  <polygon points="377.26,663.67 385.99,663.67 385.99,652.90 377.26,652.90" fill="#faffa8" />
  <polygon points="415.22,663.67 423.96,663.67 423.96,652.90 415.22,652.90" fill="#faffa8" />
  <polygon points="386.75,675.37 395.48,675.37 395.48,664.61 386.75,664.61" fill="#faffa8" />
  <polygon points="396.24,675.37 404.97,675.37 404.97,664.61 396.24,664.61" fill="#faffa8" />
  <polygon points="405.73,675.37 414.47,675.37 414.47,664.61 405.73,664.61" fill="#faffa8" />
  <polygon points="434.21,605.15 442.94,605.15 442.94,594.39 434.21,594.39" fill="#faffa8" />
  <polygon points="472.17,605.15 480.90,605.15 480.90,594.39 472.17,594.39" fill="#faffa8" />
  <polygon points="434.21,616.86 442.94,616.86 442.94,606.09 434.21,606.09" fill="#faffa8" />
  <polygon points="443.70,616.86 452.43,616.86 452.43,606.09 443.70,606.09" fill="#faffa8" />
  <polygon points="462.68,616.86 471.41,616.86 471.41,606.09 462.68,606.09" fill="#faffa8" />
  <polygon points="472.17,616.86 480.90,616.86 480.90,606.09 472.17,606.09" fill="#faffa8" />
  <polygon points="434.21,628.56 442.94,628.56 442.94,617.79 434.21,617.79" fill="#faffa8" />
  <polygon points="453.19,628.56 461.92,628.56 461.92,617.79 453.19,617.79" fill="#faffa8" />
  <polygon points="472.17,628.56 480.90,628.56 480.90,617.79 472.17,617.79" fill="#faffa8" />
  <polygon points="434.21,640.26 442.94,640.26 442.94,629.50 434.21,629.50" fill="#faffa8" />
  <polygon points="453.19,640.26 461.92,640.26 461.92,629.50 453.19,629.50" fill="#faffa8" />
  <polygon points="472.17,640.26 480.90,640.26 480.90,629.50 472.17,629.50" fill="#faffa8" />
  <polygon points="434.21,651.97 442.94,651.97 442.94,641.20 434.21,641.20" fill="#faffa8" />
  <polygon points="472.17,651.97 480.90,651.97 480.90,641.20 472.17,641.20" fill="#faffa8" />
  <polygon points="434.21,663.67 442.94,663.67 442.94,652.90 434.21,652.90" fill="#faffa8" />
  <polygon points="472.17,663.67 480.90,663.67 480.90,652.90 472.17,652.90" fill="#faffa8" />
  <polygon points="434.21,675.37 442.94,675.37 442.94,664.61 434.21,664.61" fill="#faffa8" />
  <polygon points="472.17,675.37 480.90,675.37 480.90,664.61 472.17,664.61" fill="#faffa8" />
  <polygon points="635.31,605.15 645.14,605.15 645.14,594.39 635.31,594.39" fill="#faffa8" />
  <polygon points="645.99,605.15 655.82,605.15 655.82,594.39 645.99,594.39" fill="#faffa8" />
  <polygon points="656.68,605.15 666.51,605.15 666.51,594.39 656.68,594.39" fill="#faffa8" />
  <polygon points="667.36,605.15 677.19,605.15 677.19,594.39 667.36,594.39" fill="#faffa8" />
  <polygon points="635.31,616.86 645.14,616.86 645.14,606.09 635.31,606.09" fill="#faffa8" />
  <polygon points="678.05,616.86 687.88,616.86 687.88,606.09 678.05,606.09" fill="#faffa8" />
  <polygon points="635.31,628.56 645.14,628.56 645.14,617.79 635.31,617.79" fill="#faffa8" />
  <polygon points="678.05,628.56 687.88,628.56 687.88,617.79 678.05,617.79" fill="#faffa8" />
  <polygon points="635.31,640.26 645.14,640.26 645.14,629.50 635.31,629.50" fill="#faffa8" />
  <polygon points="645.99,640.26 655.82,640.26 655.82,629.50 645.99,629.50" fill="#faffa8" />
  <polygon points="656.68,640.26 666.51,640.26 666.51,629.50 656.68,629.50" fill="#faffa8" />
  <polygon points="667.36,640.26 677.19,640.26 677.19,629.50 667.36,629.50" fill="#faffa8" />
  <polygon points="635.31,651.97 645.14,651.97 645.14,641.20 635.31,641.20" fill="#faffa8" />
  <polygon points="635.31,663.67 645.14,663.67 645.14,652.90 635.31,652.90" fill="#faffa8" />
  <polygon points="635.31,675.37 645.14,675.37 645.14,664.61 635.31,664.61" fill="#faffa8" />
  <polygon points="710.10,605.15 719.93,605.15 719.93,594.39 710.10,594.39" fill="#faffa8" />
  <polygon points="720.79,605.15 730.62,605.15 730.62,594.39 720.79,594.39" fill="#faffa8" />
  <polygon points="731.47,605.15 741.30,605.15 741.30,594.39 731.47,594.39" fill="#faffa8" />
  <polygon points="699.42,616.86 709.25,616.86 709.25,606.09 699.42,606.09" fill="#faffa8" />
  <polygon points="742.16,616.86 751.99,616.86 751.99,606.09 742.16,606.09" fill="#faffa8" />
  <polygon points="699.42,628.56 709.25,628.56 709.25,617.79 699.42,617.79" fill="#faffa8" />
  <polygon points="742.16,628.56 751.99,628.56 751.99,617.79 742.16,617.79" fill="#faffa8" />
  <polygon points="699.42,640.26 709.25,640.26 709.25,629.50 699.42,629.50" fill="#faffa8" />
  <polygon points="742.16,640.26 751.99,640.26 751.99,629.50 742.16,629.50" fill="#faffa8" />
  <polygon points="699.42,651.97 709.25,651.97 709.25,641.20 699.42,641.20" fill="#faffa8" />
  <polygon points="742.16,651.97 751.99,651.97 751.99,641.20 742.16,641.20" fill="#faffa8" />
  <polygon points="699.42,663.67 709.25,663.67 709.25,652.90 699.42,652.90" fill="#faffa8" />
  <polygon points="742.16,663.67 751.99,663.67 751.99,652.90 742.16,652.90" fill="#faffa8" />
  <polygon points="710.10,675.37 719.93,675.37 719.93,664.61 710.10,664.61" fill="#faffa8" />
  <polygon points="720.79,675.37 730.62,675.37 730.62,664.61 720.79,664.61" fill="#faffa8" />
  <polygon points="731.47,675.37 741.30,675.37 741.30,664.61 731.47,664.61" fill="#faffa8" />
  <polygon points="763.53,605.15 773.36,605.15 773.36,594.39 763.53,594.39" fill="#faffa8" />
  <polygon points="774.22,605.15 784.05,605.15 784.05,594.39 774.22,594.39" fill="#faffa8" />
  <polygon points="784.90,605.15 794.73,605.15 794.73,594.39 784.90,594.39" fill="#faffa8" />
  <polygon points="795.59,605.15 805.42,605.15 805.42,594.39 795.59,594.39" fill="#faffa8" />
  <polygon points="763.53,616.86 773.36,616.86 773.36,606.09 763.53,606.09" fill="#faffa8" />
  <polygon points="806.27,616.86 816.10,616.86 816.10,606.09 806.27,606.09" fill="#faffa8" />
  <polygon points="763.53,628.56 773.36,628.56 773.36,617.79 763.53,617.79" fill="#faffa8" />
  <polygon points="806.27,628.56 816.10,628.56 816.10,617.79 806.27,617.79" fill="#faffa8" />
  <polygon points="763.53,640.26 773.36,640.26 773.36,629.50 763.53,629.50" fill="#faffa8" />
  <polygon points="774.22,640.26 784.05,640.26 784.05,629.50 774.22,629.50" fill="#faffa8" />
  <polygon points="784.90,640.26 794.73,640.26 794.73,629.50 784.90,629.50" fill="#faffa8" />
  <polygon points="795.59,640.26 805.42,640.26 805.42,629.50 795.59,629.50" fill="#faffa8" />
  <polygon points="763.53,651.97 773.36,651.97 773.36,641.20 763.53,641.20" fill="#faffa8" />
  <polygon points="784.90,651.97 794.73,651.97 794.73,641.20 784.90,641.20" fill="#faffa8" />
  <polygon points="763.53,663.67 773.36,663.67 773.36,652.90 763.53,652.90" fill="#faffa8" />
  <polygon points="795.59,663.67 805.42,663.67 805.42,652.90 795.59,652.90" fill="#faffa8" />
  <polygon points="763.53,675.37 773.36,675.37 773.36,664.61 763.53,664.61" fill="#faffa8" />
  <polygon points="806.27,675.37 816.10,675.37 816.10,664.61 806.27,664.61" fill="#faffa8" />
  <polygon points="827.64,605.15 837.47,605.15 837.47,594.39 827.64,594.39" fill="#faffa8" />
  <polygon points="838.33,605.15 848.16,605.15 848.16,594.39 838.33,594.39" fill="#faffa8" />
  <polygon points="849.01,605.15 858.84,605.15 858.84,594.39 849.01,594.39" fill="#faffa8" />
  <polygon points="859.70,605.15 869.53,605.15 869.53,594.39 859.70,594.39" fill="#faffa8" />
  <polygon points="870.38,605.15 880.21,605.15 880.21,594.39 870.38,594.39" fill="#faffa8" />
  <polygon points="849.01,616.86 858.84,616.86 858.84,606.09 849.01,606.09" fill="#faffa8" />
  <polygon points="849.01,628.56 858.84,628.56 858.84,617.79 849.01,617.79" fill="#faffa8" />
  <polygon points="849.01,640.26 858.84,640.26 858.84,629.50 849.01,629.50" fill="#faffa8" />
  <polygon points="849.01,651.97 858.84,651.97 858.84,641.20 849.01,641.20" fill="#faffa8" />
  <polygon points="849.01,663.67 858.84,663.67 858.84,652.90 849.01,652.90" fill="#faffa8" />
  <polygon points="849.01,675.37 858.84,675.37 858.84,664.61 849.01,664.61" fill="#faffa8" />
  <polygon points="261.12,491.52 261.12,378.88 312.32,378.88 312.32,491.52" fill="#faffa8" />
  <polygon points="286.72,276.48 215.04,378.88 358.40,378.88" fill="#faffa8" />
  <polygon points="711.68,491.52 711.68,378.88 762.88,378.88 762.88,491.52" fill="#faffa8" />
  <polygon points="737.28,276.48 665.60,378.88 808.96,378.88" fill="#faffa8" />
</svg>
