<svg xmlns="http://www.w3.org/2000/svg" viewBox="0 0 1024 1024">
  <polygon points="165.48,1003.52 858.52,1003.52 993.28,590.64 810.39,276.07 512.00,20.48 213.61,276.07 30.72,590.64" fill="#faffa8" />
  <polygon points="209.72,942.08 814.28,942.08 931.84,590.64 772.30,276.07 512.00,81.92 251.70,276.07 92.16,590.64" fill="#bdff58" />
  <polygon points="428.96,666.59 446.09,666.59 446.09,655.83 428.96,655.83" fill="#faffa8" />
  <polygon points="447.58,666.59 464.71,666.59 464.71,655.83 447.58,655.83" fill="#faffa8" />
  <polygon points="466.20,666.59 483.33,666.59 483.33,655.83 466.20,655.83" fill="#faffa8" />
  <polygon points="410.34,678.30 427.47,678.30 427.47,667.53 410.34,667.53" fill="#faffa8" />
  <polygon points="484.82,678.30 501.95,678.30 501.95,667.53 484.82,667.53" fill="#faffa8" />
  <polygon points="410.34,690.00 427.47,690.00 427.47,679.23 410.34,679.23" fill="#faffa8" />
  <polygon points="410.34,701.70 427.47,701.70 427.47,690.94 410.34,690.94" fill="#faffa8" />
  <polygon points="410.34,713.41 427.47,713.41 427.47,702.64 410.34,702.64" fill="#faffa8" />
  <polygon points="410.34,725.11 427.47,725.11 427.47,714.34 410.34,714.34" fill="#faffa8" />
  <polygon points="484.82,725.11 501.95,725.11 501.95,714.34 484.82,714.34" fill="#faffa8" />
  <polygon points="428.96,736.81 446.09,736.81 446.09,726.05 428.96,726.05" fill="#faffa8" />
  <polygon points="447.58,736.81 464.71,736.81 464.71,726.05 447.58,726.05" fill="#faffa8" />
  <polygon points="466.20,736.81 483.33,736.81 483.33,726.05 466.20,726.05" fill="#faffa8" />
  <polygon points="559.29,666.59 576.42,666.59 576.42,655.83 559.29,655.83" fill="#faffa8" />
  <polygon points="540.67,678.30 557.80,678.30 557.80,667.53 540.67,667.53" fill="#faffa8" />
  <polygon points="577.91,678.30 595.04,678.30 595.04,667.53 577.91,667.53" fill="#faffa8" />
  <polygon points="522.05,690.00 539.18,690.00 539.18,679.23 522.05,679.23" fill="#faffa8" />
  <polygon points="596.53,690.00 613.66,690.00 613.66,679.23 596.53,679.23" fill="#faffa8" />
  <polygon points="522.05,701.70 539.18,701.70 539.18,690.94 522.05,690.94" fill="#faffa8" />
  <polygon points="596.53,701.70 613.66,701.70 613.66,690.94 596.53,690.94" fill="#faffa8" />
  <polygon points="522.05,713.41 539.18,713.41 539.18,702.64 522.05,702.64" fill="#faffa8" />
  <polygon points="540.67,713.41 557.80,713.41 557.80,702.64 540.67,702.64" fill="#faffa8" />
  <polygon points="559.29,713.41 576.42,713.41 576.42,702.64 559.29,702.64" fill="#faffa8" />
  <polygon points="577.91,713.41 595.04,713.41 595.04,702.64 577.91,702.64" fill="#faffa8" />
  <polygon points="596.53,713.41 613.66,713.41 613.66,702.64 596.53,702.64" fill="#faffa8" />
  <polygon points="522.05,725.11 539.18,725.11 539.18,714.34 522.05,714.34" fill="#faffa8" />
  <polygon points="596.53,725.11 613.66,725.11 613.66,714.34 596.53,714.34" fill="#faffa8" />
  <polygon points="522.05,736.81 539.18,736.81 539.18,726.05 522.05,726.05" fill="#faffa8" />
  <polygon points="596.53,736.81 613.66,736.81 613.66,726.05 596.53,726.05" fill="#faffa8" />
  <polygon points="341.24,314.81 362.30,314.81 362.30,287.89 341.24,287.89" fill="#faffa8" />
  <polygon points="364.13,314.81 385.19,314.81 385.19,287.89 364.13,287.89" fill="#faffa8" />
  <polygon points="387.02,314.81 408.08,314.81 408.08,287.89 387.02,287.89" fill="#faffa8" />
  <polygon points="318.36,344.06 339.41,344.06 339.41,317.15 318.36,317.15" fill="#faffa8" />
  <polygon points="409.91,344.06 430.97,344.06 430.97,317.15 409.91,317.15" fill="#faffa8" />
  <polygon points="409.91,373.32 430.97,373.32 430.97,346.40 409.91,346.40" fill="#faffa8" />
  <polygon points="387.02,402.58 408.08,402.58 408.08,375.66 387.02,375.66" fill="#faffa8" />
  <polygon points="364.13,431.84 385.19,431.84 385.19,404.92 364.13,404.92" fill="#faffa8" />
  <polygon points="341.24,461.09 362.30,461.09 362.30,434.18 341.24,434.18" fill="#faffa8" />
  <polygon points="318.36,490.35 339.41,490.35 339.41,463.43 318.36,463.43" fill="#faffa8" />
  <polygon points="341.24,490.35 362.30,490.35 362.30,463.43 341.24,463.43" fill="#faffa8" />
  <polygon points="364.13,490.35 385.19,490.35 385.19,463.43 364.13,463.43" fill="#faffa8" />
  <polygon points="387.02,490.35 408.08,490.35 408.08,463.43 387.02,463.43" fill="#faffa8" />
  <polygon points="409.91,490.35 430.97,490.35 430.97,463.43 409.91,463.43" fill="#faffa8" />
  <polygon points="478.58,314.81 499.64,314.81 499.64,287.89 478.58,287.89" fill="#faffa8" />
  <polygon points="501.47,314.81 522.53,314.81 522.53,287.89 501.47,287.89" fill="#faffa8" />
  <polygon points="524.36,314.81 545.42,314.81 545.42,287.89 524.36,287.89" fill="#faffa8" />
  <polygon points="455.69,344.06 476.75,344.06 476.75,317.15 455.69,317.15" fill="#faffa8" />
  <polygon points="547.25,344.06 568.31,344.06 568.31,317.15 547.25,317.15" fill="#faffa8" />
  <polygon points="455.69,373.32 476.75,373.32 476.75,346.40 455.69,346.40" fill="#faffa8" />
  <polygon points="547.25,373.32 568.31,373.32 568.31,346.40 547.25,346.40" fill="#faffa8" />
  <polygon points="478.58,402.58 499.64,402.58 499.64,375.66 478.58,375.66" fill="#faffa8" />
  <polygon points="501.47,402.58 522.53,402.58 522.53,375.66 501.47,375.66" fill="#faffa8" />
  <polygon points="524.36,402.58 545.42,402.58 545.42,375.66 524.36,375.66" fill="#faffa8" />
  <polygon points="455.69,431.84 476.75,431.84 476.75,404.92 455.69,404.92" fill="#faffa8" />
  <polygon points="547.25,431.84 568.31,431.84 568.31,404.92 547.25,404.92" fill="#faffa8" />
  <polygon points="455.69,461.09 476.75,461.09 476.75,434.18 455.69,434.18" fill="#faffa8" />
  <polygon points="547.25,461.09 568.31,461.09 568.31,434.18 547.25,434.18" fill="#faffa8" />
  <polygon points="478.58,490.35 499.64,490.35 499.64,463.43 478.58,463.43" fill="#faffa8" />
  <polygon points="501.47,490.35 522.53,490.35 522.53,463.43 501.47,463.43" fill="#faffa8" />
  <polygon points="524.36,490.35 545.42,490.35 545.42,463.43 524.36,463.43" fill="#faffa8" />
  <polygon points="615.92,314.81 636.98,314.81 636.98,287.89 615.92,287.89" fill="#faffa8" />
  <polygon points="638.81,314.81 659.87,314.81 659.87,287.89 638.81,287.89" fill="#faffa8" />
  <polygon points="661.70,314.81 682.76,314.81 682.76,287.89 661.70,287.89" fill="#faffa8" />
  <polygon points="593.03,344.06 614.09,344.06 614.09,317.15 593.03,317.15" fill="#faffa8" />
  <polygon points="684.59,344.06 705.64,344.06 705.64,317.15 684.59,317.15" fill="#faffa8" />
  <polygon points="593.03,373.32 614.09,373.32 614.09,346.40 593.03,346.40" fill="#faffa8" />
  <polygon points="661.70,373.32 682.76,373.32 682.76,346.40 661.70,346.40" fill="#faffa8" />
  <polygon points="684.59,373.32 705.64,373.32 705.64,346.40 684.59,346.40" fill="#faffa8" />
  <polygon points="593.03,402.58 614.09,402.58 614.09,375.66 593.03,375.66" fill="#faffa8" />
  <polygon points="638.81,402.58 659.87,402.58 659.87,375.66 638.81,375.66" fill="#faffa8" />
  <polygon points="684.59,402.58 705.64,402.58 705.64,375.66 684.59,375.66" fill="#faffa8" />
  <polygon points="593.03,431.84 614.09,431.84 614.09,404.92 593.03,404.92" fill="#faffa8" />
  <polygon points="615.92,431.84 636.98,431.84 636.98,404.92 615.92,404.92" fill="#faffa8" />
  <polygon points="684.59,431.84 705.64,431.84 705.64,404.92 684.59,404.92" fill="#faffa8" />
  <polygon points="593.03,461.09 614.09,461.09 614.09,434.18 593.03,434.18" fill="#faffa8" />
  <polygon points="684.59,461.09 705.64,461.09 705.64,434.18 684.59,434.18" fill="#faffa8" />
  <polygon points="615.92,490.35 636.98,490.35 636.98,463.43 615.92,463.43" fill="#faffa8" />
  <polygon points="638.81,490.35 659.87,490.35 659.87,463.43 638.81,463.43" fill="#faffa8" />
  <polygon points="661.70,490.35 682.76,490.35 682.76,463.43 661.70,463.43" fill="#faffa8" />
</svg>
