<svg xmlns="http://www.w3.org/2000/svg" viewBox="0 0 1024 1024">
  <polygon points="10.24,716.80 1013.76,716.80 1013.76,307.20 10.24,307.20" fill="#faffa8" />
  <polygon points="51.20,675.84 972.80,675.84 972.80,348.16 51.20,348.16" fill="#bdff58" />
  <polygon points="450.56,552.96 245.76,552.96 245.76,471.04 450.56,471.04" fill="#faffa8" />
  <polygon points="102.40,512.00 245.76,614.40 245.76,409.60" fill="#faffa8" />
  <polygon points="373.11,482.27 386.12,482.27 386.12,471.51 373.11,471.51" fill="#faffa8" />
  <polygon points="387.25,482.27 400.26,482.27 400.26,471.51 387.25,471.51" fill="#faffa8" />
  <polygon points="401.39,482.27 414.40,482.27 414.40,471.51 401.39,471.51" fill="#faffa8" />
  <polygon points="415.53,482.27 428.54,482.27 428.54,471.51 415.53,471.51" fill="#faffa8" />
  <polygon points="358.97,493.98 371.98,493.98 371.98,483.21 358.97,483.21" fill="#faffa8" />
  <polygon points="358.97,505.68 371.98,505.68 371.98,494.91 358.97,494.91" fill="#faffa8" />
  <polygon points="373.11,517.38 386.12,517.38 386.12,506.62 373.11,506.62" fill="#faffa8" />
  <polygon points="387.25,517.38 400.26,517.38 400.26,506.62 387.25,506.62" fill="#faffa8" />
  <polygon points="401.39,517.38 414.40,517.38 414.40,506.62 401.39,506.62" fill="#faffa8" />
  <polygon points="415.53,529.09 428.54,529.09 428.54,518.32 415.53,518.32" fill="#faffa8" />
  <polygon points="415.53,540.79 428.54,540.79 428.54,530.02 415.53,530.02" fill="#faffa8" />
  <polygon points="358.97,552.49 371.98,552.49 371.98,541.73 358.97,541.73" fill="#faffa8" />
  <polygon points="373.11,552.49 386.12,552.49 386.12,541.73 373.11,541.73" fill="#faffa8" />
  <polygon points="387.25,552.49 400.26,552.49 400.26,541.73 387.25,541.73" fill="#faffa8" />
  <polygon points="401.39,552.49 414.40,552.49 414.40,541.73 401.39,541.73" fill="#faffa8" />
  <polygon points="443.81,482.27 456.82,482.27 456.82,471.51 443.81,471.51" fill="#faffa8" />
  <polygon points="457.95,482.27 470.96,482.27 470.96,471.51 457.95,471.51" fill="#faffa8" />
  <polygon points="472.09,482.27 485.10,482.27 485.10,471.51 472.09,471.51" fill="#faffa8" />
  <polygon points="486.23,482.27 499.24,482.27 499.24,471.51 486.23,471.51" fill="#faffa8" />
  <polygon points="500.38,482.27 513.38,482.27 513.38,471.51 500.38,471.51" fill="#faffa8" />
  <polygon points="472.09,493.98 485.10,493.98 485.10,483.21 472.09,483.21" fill="#faffa8" />
  <polygon points="472.09,505.68 485.10,505.68 485.10,494.91 472.09,494.91" fill="#faffa8" />
  <polygon points="472.09,517.38 485.10,517.38 485.10,506.62 472.09,506.62" fill="#faffa8" />
  <polygon points="472.09,529.09 485.10,529.09 485.10,518.32 472.09,518.32" fill="#faffa8" />
  <polygon points="472.09,540.79 485.10,540.79 485.10,530.02 472.09,530.02" fill="#faffa8" />
  <polygon points="472.09,552.49 485.10,552.49 485.10,541.73 472.09,541.73" fill="#faffa8" />
  <polygon points="556.94,482.27 569.95,482.27 569.95,471.51 556.94,471.51" fill="#faffa8" />
  <polygon points="542.80,493.98 555.81,493.98 555.81,483.21 542.80,483.21" fill="#faffa8" />
  <polygon points="571.08,493.98 584.09,493.98 584.09,483.21 571.08,483.21" fill="#faffa8" />
  <polygon points="528.66,505.68 541.67,505.68 541.67,494.91 528.66,494.91" fill="#faffa8" />
  <polygon points="585.22,505.68 598.23,505.68 598.23,494.91 585.22,494.91" fill="#faffa8" />
  <polygon points="528.66,517.38 541.67,517.38 541.67,506.62 528.66,506.62" fill="#faffa8" />
  <polygon points="585.22,517.38 598.23,517.38 598.23,506.62 585.22,506.62" fill="#faffa8" />
  <polygon points="528.66,529.09 541.67,529.09 541.67,518.32 528.66,518.32" fill="#faffa8" />
  <polygon points="542.80,529.09 555.81,529.09 555.81,518.32 542.80,518.32" fill="#faffa8" />
  <polygon points="556.94,529.09 569.95,529.09 569.95,518.32 556.94,518.32" fill="#faffa8" />
  <polygon points="571.08,529.09 584.09,529.09 584.09,518.32 571.08,518.32" fill="#faffa8" />
  <polygon points="585.22,529.09 598.23,529.09 598.23,518.32 585.22,518.32" fill="#faffa8" />
  <polygon points="528.66,540.79 541.67,540.79 541.67,530.02 528.66,530.02" fill="#faffa8" />
  <polygon points="585.22,540.79 598.23,540.79 598.23,530.02 585.22,530.02" fill="#faffa8" />
  <polygon points="528.66,552.49 541.67,552.49 541.67,541.73 528.66,541.73" fill="#faffa8" />
  <polygon points="585.22,552.49 598.23,552.49 598.23,541.73 585.22,541.73" fill="#faffa8" />
  <polygon points="698.35,482.27 711.36,482.27 711.36,471.51 698.35,471.51" fill="#faffa8" />
  <polygon points="712.49,482.27 725.50,482.27 725.50,471.51 712.49,471.51" fill="#faffa8" />
  <polygon points="726.63,482.27 739.64,482.27 739.64,471.51 726.63,471.51" fill="#faffa8" />
  <polygon points="740.77,482.27 753.78,482.27 753.78,471.51 740.77,471.51" fill="#faffa8" />
  <polygon points="754.91,482.27 767.92,482.27 767.92,471.51 754.91,471.51" fill="#faffa8" />
  <polygon points="726.63,493.98 739.64,493.98 739.64,483.21 726.63,483.21" fill="#faffa8" />
  <polygon points="726.63,505.68 739.64,505.68 739.64,494.91 726.63,494.91" fill="#faffa8" />
  <polygon points="726.63,517.38 739.64,517.38 739.64,506.62 726.63,506.62" fill="#faffa8" />
  <polygon points="726.63,529.09 739.64,529.09 739.64,518.32 726.63,518.32" fill="#faffa8" />
  <polygon points="726.63,540.79 739.64,540.79 739.64,530.02 726.63,530.02" fill="#faffa8" />
  <polygon points="698.35,552.49 711.36,552.49 711.36,541.73 698.35,541.73" fill="#faffa8" />
  <polygon points="712.49,552.49 725.50,552.49 725.50,541.73 712.49,541.73" fill="#faffa8" />
  <polygon points="726.63,552.49 739.64,552.49 739.64,541.73 726.63,541.73" fill="#faffa8" />
  <polygon points="740.77,552.49 753.78,552.49 753.78,541.73 740.77,541.73" fill="#faffa8" />
  <polygon points="754.91,552.49 767.92,552.49 767.92,541.73 754.91,541.73" fill="#faffa8" />
  <polygon points="797.34,482.27 810.34,482.27 810.34,471.51 797.34,471.51" fill="#faffa8" />
  <polygon points="811.48,482.27 824.49,482.27 824.49,471.51 811.48,471.51" fill="#faffa8" />
  <polygon points="825.62,482.27 838.63,482.27 838.63,471.51 825.62,471.51" fill="#faffa8" />
  <polygon points="783.19,493.98 796.20,493.98 796.20,483.21 783.19,483.21" fill="#faffa8" />
  <polygon points="839.76,493.98 852.77,493.98 852.77,483.21 839.76,483.21" fill="#faffa8" />
  <polygon points="783.19,505.68 796.20,505.68 796.20,494.91 783.19,494.91" fill="#faffa8" />
  <polygon points="839.76,505.68 852.77,505.68 852.77,494.91 839.76,494.91" fill="#faffa8" />
  <polygon points="783.19,517.38 796.20,517.38 796.20,506.62 783.19,506.62" fill="#faffa8" />
  <polygon points="839.76,517.38 852.77,517.38 852.77,506.62 839.76,506.62" fill="#faffa8" />
  <polygon points="783.19,529.09 796.20,529.09 796.20,518.32 783.19,518.32" fill="#faffa8" />
  <polygon points="839.76,529.09 852.77,529.09 852.77,518.32 839.76,518.32" fill="#faffa8" />
  <polygon points="783.19,540.79 796.20,540.79 796.20,530.02 783.19,530.02" fill="#faffa8" />
  <polygon points="839.76,540.79 852.77,540.79 852.77,530.02 839.76,530.02" fill="#faffa8" />
  <polygon points="797.34,552.49 810.34,552.49 810.34,541.73 797.34,541.73" fill="#faffa8" />
  <polygon points="811.48,552.49 824.49,552.49 824.49,541.73 811.48,541.73" fill="#faffa8" />
  <polygon points="825.62,552.49 838.63,552.49 838.63,541.73 825.62,541.73" fill="#faffa8" />
  <polygon points="868.04,482.27 881.05,482.27 881.05,471.51 868.04,471.51" fill="#faffa8" />
  <polygon points="924.60,482.27 937.61,482.27 937.61,471.51 924.60,471.51" fill="#faffa8" />
  <polygon points="868.04,493.98 881.05,493.98 881.05,483.21 868.04,483.21" fill="#faffa8" />
  <polygon points="882.18,493.98 895.19,493.98 895.19,483.21 882.18,483.21" fill="#faffa8" />
  <polygon points="924.60,493.98 937.61,493.98 937.61,483.21 924.60,483.21" fill="#faffa8" />
  <polygon points="868.04,505.68 881.05,505.68 881.05,494.91 868.04,494.91" fill="#faffa8" />
  <polygon points="896.32,505.68 909.33,505.68 909.33,494.91 896.32,494.91" fill="#faffa8" />
  <polygon points="924.60,505.68 937.61,505.68 937.61,494.91 924.60,494.91" fill="#faffa8" />
  <polygon points="868.04,517.38 881.05,517.38 881.05,506.62 868.04,506.62" fill="#faffa8" />
  <polygon points="910.46,517.38 923.47,517.38 923.47,506.62 910.46,506.62" fill="#faffa8" />
  <polygon points="924.60,517.38 937.61,517.38 937.61,506.62 924.60,506.62" fill="#faffa8" />
  <polygon points="868.04,529.09 881.05,529.09 881.05,518.32 868.04,518.32" fill="#faffa8" />
  <polygon points="924.60,529.09 937.61,529.09 937.61,518.32 924.60,518.32" fill="#faffa8" />
  <polygon points="868.04,540.79 881.05,540.79 881.05,530.02 868.04,530.02" fill="#faffa8" />
  <polygon points="924.60,540.79 937.61,540.79 937.61,530.02 924.60,530.02" fill="#faffa8" />
  <polygon points="868.04,552.49 881.05,552.49 881.05,541.73 868.04,541.73" fill="#faffa8" />
  <polygon points="924.60,552.49 937.61,552.49 937.61,541.73 924.60,541.73" fill="#faffa8" />
  <polygon points="952.89,482.27 965.90,482.27 965.90,471.51 952.89,471.51" fill="#faffa8" />
  <polygon points="967.03,482.27 980.04,482.27 980.04,471.51 967.03,471.51" fill="#faffa8" />
  <polygon points="981.17,482.27 994.18,482.27 994.18,471.51 981.17,471.51" fill="#faffa8" />
  <polygon points="995.31,482.27 1008.32,482.27 1008.32,471.51 995.31,471.51" fill="#faffa8" />
  <polygon points="1009.45,482.27 1022.46,482.27 1022.46,471.51 1009.45,471.51" fill="#faffa8" />
  <polygon points="952.89,493.98 965.90,493.98 965.90,483.21 952.89,483.21" fill="#faffa8" />
  <polygon points="952.89,505.68 965.90,505.68 965.90,494.91 952.89,494.91" fill="#faffa8" />
  <polygon points="952.89,517.38 965.90,517.38 965.90,506.62 952.89,506.62" fill="#faffa8" />
  <polygon points="967.03,517.38 980.04,517.38 980.04,506.62 967.03,506.62" fill="#faffa8" />
  <polygon points="981.17,517.38 994.18,517.38 994.18,506.62 981.17,506.62" fill="#faffa8" />
  <polygon points="995.31,517.38 1008.32,517.38 1008.32,506.62 995.31,506.62" fill="#faffa8" />
  <polygon points="952.89,529.09 965.90,529.09 965.90,518.32 952.89,518.32" fill="#faffa8" />
  <polygon points="952.89,540.79 965.90,540.79 965.90,530.02 952.89,530.02" fill="#faffa8" />
  <polygon points="952.89,552.49 965.90,552.49 965.90,541.73 952.89,541.73" fill="#faffa8" />
  <polygon points="967.03,552.49 980.04,552.49 980.04,541.73 967.03,541.73" fill="#faffa8" />
  <polygon points="981.17,552.49 994.18,552.49 994.18,541.73 981.17,541.73" fill="#faffa8" />
  <polygon points="995.31,552.49 1008.32,552.49 1008.32,541.73 995.31,541.73" fill="#faffa8" />
  <polygon points="1009.45,552.49 1022.46,552.49 1022.46,541.73 1009.45,541.73" fill="#faffa8" />
</svg>
