<svg xmlns="http://www.w3.org/2000/svg" viewBox="0 0 1024 1024">
  <polygon points="51.20,972.80 972.80,972.80 972.80,51.20 51.20,51.20" fill="#65f2ff" />
  <polygon points="276.48,563.20 747.52,563.20 747.52,358.40 276.48,358.40" fill="#faffa8" />
  <polygon points="281.60,624.64 373.76,624.64 373.76,563.20 281.60,563.20" fill="#faffa8" />
  <polygon points="650.24,624.64 742.40,624.64 742.40,563.20 650.24,563.20" fill="#faffa8" />
  <polygon points="430.08,583.68 424.00,557.02 406.95,535.64 382.31,523.78 354.97,523.78 330.33,535.64 313.28,557.02 307.20,583.68 313.28,610.34 330.33,631.72 354.97,643.58 382.31,643.58 406.95,631.72 424.00,610.34" fill="#faffa8" />
  <polygon points="716.80,583.68 710.72,557.02 693.67,535.64 669.03,523.78 641.69,523.78 617.05,535.64 600.00,557.02 593.92,583.68 600.00,610.34 617.05,631.72 641.69,643.58 669.03,643.58 693.67,631.72 710.72,610.34" fill="#faffa8" />
  <polygon points="257.20,746.70 284.91,746.70 284.91,727.86 257.20,727.86" fill="#faffa8" />
  <polygon points="287.32,746.70 315.03,746.70 315.03,727.86 287.32,727.86" fill="#faffa8" />
  <polygon points="317.44,746.70 345.15,746.70 345.15,727.86 317.44,727.86" fill="#faffa8" />
  <polygon points="347.56,746.70 375.27,746.70 375.27,727.86 347.56,727.86" fill="#faffa8" />
  <polygon points="257.20,767.18 284.91,767.18 284.91,748.34 257.20,748.34" fill="#faffa8" />
  <polygon points="377.68,767.18 405.38,767.18 405.38,748.34 377.68,748.34" fill="#faffa8" />
  <polygon points="257.20,787.66 284.91,787.66 284.91,768.82 257.20,768.82" fill="#faffa8" />
  <polygon points="377.68,787.66 405.38,787.66 405.38,768.82 377.68,768.82" fill="#faffa8" />
  <polygon points="257.20,808.14 284.91,808.14 284.91,789.30 257.20,789.30" fill="#faffa8" />
  <polygon points="287.32,808.14 315.03,808.14 315.03,789.30 287.32,789.30" fill="#faffa8" />
  <polygon points="317.44,808.14 345.15,808.14 345.15,789.30 317.44,789.30" fill="#faffa8" />
  <polygon points="347.56,808.14 375.27,808.14 375.27,789.30 347.56,789.30" fill="#faffa8" />
  <polygon points="257.20,828.62 284.91,828.62 284.91,809.78 257.20,809.78" fill="#faffa8" />
  <polygon points="377.68,828.62 405.38,828.62 405.38,809.78 377.68,809.78" fill="#faffa8" />
  <polygon points="257.20,849.10 284.91,849.10 284.91,830.26 257.20,830.26" fill="#faffa8" />
  <polygon points="377.68,849.10 405.38,849.10 405.38,830.26 377.68,830.26" fill="#faffa8" />
  <polygon points="257.20,869.58 284.91,869.58 284.91,850.74 257.20,850.74" fill="#faffa8" />
  <polygon points="287.32,869.58 315.03,869.58 315.03,850.74 287.32,850.74" fill="#faffa8" />
  <polygon points="317.44,869.58 345.15,869.58 345.15,850.74 317.44,850.74" fill="#faffa8" />
  <polygon points="347.56,869.58 375.27,869.58 375.27,850.74 347.56,850.74" fill="#faffa8" />
  <polygon points="437.91,746.70 465.62,746.70 465.62,727.86 437.91,727.86" fill="#faffa8" />
  <polygon points="558.38,746.70 586.09,746.70 586.09,727.86 558.38,727.86" fill="#faffa8" />
  <polygon points="437.91,767.18 465.62,767.18 465.62,748.34 437.91,748.34" fill="#faffa8" />
  <polygon points="558.38,767.18 586.09,767.18 586.09,748.34 558.38,748.34" fill="#faffa8" />
  <polygon points="437.91,787.66 465.62,787.66 465.62,768.82 437.91,768.82" fill="#faffa8" />
  <polygon points="558.38,787.66 586.09,787.66 586.09,768.82 558.38,768.82" fill="#faffa8" />
  <polygon points="437.91,808.14 465.62,808.14 465.62,789.30 437.91,789.30" fill="#faffa8" />
  <polygon points="558.38,808.14 586.09,808.14 586.09,789.30 558.38,789.30" fill="#faffa8" />
  <polygon points="437.91,828.62 465.62,828.62 465.62,809.78 437.91,809.78" fill="#faffa8" />
  <polygon points="558.38,828.62 586.09,828.62 586.09,809.78 558.38,809.78" fill="#faffa8" />
  <polygon points="437.91,849.10 465.62,849.10 465.62,830.26 437.91,830.26" fill="#faffa8" />
  <polygon points="558.38,849.10 586.09,849.10 586.09,830.26 558.38,830.26" fill="#faffa8" />
  <polygon points="468.03,869.58 495.74,869.58 495.74,850.74 468.03,850.74" fill="#faffa8" />
  <polygon points="498.15,869.58 525.85,869.58 525.85,850.74 498.15,850.74" fill="#faffa8" />
  <polygon points="528.26,869.58 555.97,869.58 555.97,850.74 528.26,850.74" fill="#faffa8" />
  <polygon points="648.73,746.70 676.44,746.70 676.44,727.86 648.73,727.86" fill="#faffa8" />
  <polygon points="678.85,746.70 706.56,746.70 706.56,727.86 678.85,727.86" fill="#faffa8" />
  <polygon points="708.97,746.70 736.68,746.70 736.68,727.86 708.97,727.86" fill="#faffa8" />
  <polygon points="739.09,746.70 766.80,746.70 766.80,727.86 739.09,727.86" fill="#faffa8" />
  <polygon points="618.62,767.18 646.32,767.18 646.32,748.34 618.62,748.34" fill="#faffa8" />
  <polygon points="618.62,787.66 646.32,787.66 646.32,768.82 618.62,768.82" fill="#faffa8" />
  <polygon points="648.73,808.14 676.44,808.14 676.44,789.30 648.73,789.30" fill="#faffa8" />
  <polygon points="678.85,808.14 706.56,808.14 706.56,789.30 678.85,789.30" fill="#faffa8" />
  <polygon points="708.97,808.14 736.68,808.14 736.68,789.30 708.97,789.30" fill="#faffa8" />
  <polygon points="739.09,828.62 766.80,828.62 766.80,809.78 739.09,809.78" fill="#faffa8" />
  <polygon points="739.09,849.10 766.80,849.10 766.80,830.26 739.09,830.26" fill="#faffa8" />
  <polygon points="618.62,869.58 646.32,869.58 646.32,850.74 618.62,850.74" fill="#faffa8" />
  <polygon points="648.73,869.58 676.44,869.58 676.44,850.74 648.73,850.74" fill="#faffa8" />
  <polygon points="678.85,869.58 706.56,869.58 706.56,850.74 678.85,850.74" fill="#faffa8" />
  <polygon points="708.97,869.58 736.68,869.58 736.68,850.74 708.97,850.74" fill="#faffa8" />
</svg>
