<svg xmlns="http://www.w3.org/2000/svg" viewBox="0 0 1024 1024">
  <polygon points="25.60,706.56 998.40,706.56 998.40,317.44 25.60,317.44" fill="#faffa8" />
  <polygon points="66.56,665.60 957.44,665.60 957.44,358.40 66.56,358.40" fill="#bdff58" />
  <polygon points="654.75,534.73 942.69,534.73 942.69,489.27 654.75,489.27" fill="#faffa8" />
  <polygon points="980.58,512.00 904.81,451.38 904.81,572.62" fill="#faffa8" />
  <polygon points="770.98,526.16 634.58,404.92 659.75,376.60 796.15,497.84" fill="#faffa8" />
  <polygon points="796.15,526.16 659.75,647.40 634.58,619.08 770.98,497.84" fill="#faffa8" />
  <polygon points="832.54,502.30 908.32,411.37 931.60,430.77 855.83,521.70" fill="#faffa8" />
  <polygon points="855.83,502.30 931.60,593.23 908.32,612.63 832.54,521.70" fill="#faffa8" />
  <polygon points="223.72,482.27 232.25,482.27 232.25,471.51 223.72,471.51" fill="#faffa8" />
  <polygon points="214.44,493.98 222.98,493.98 222.98,483.21 214.44,483.21" fill="#faffa8" />
  <polygon points="232.99,493.98 241.52,493.98 241.52,483.21 232.99,483.21" fill="#faffa8" />
  <polygon points="205.17,505.68 213.70,505.68 213.70,494.91 205.17,494.91" fill="#faffa8" />
  <polygon points="242.27,505.68 250.80,505.68 250.80,494.91 242.27,494.91" fill="#faffa8" />
  <polygon points="205.17,517.38 213.70,517.38 213.70,506.62 205.17,506.62" fill="#faffa8" />
  <polygon points="242.27,517.38 250.80,517.38 250.80,506.62 242.27,506.62" fill="#faffa8" />
  <polygon points="205.17,529.09 213.70,529.09 213.70,518.32 205.17,518.32" fill="#faffa8" />
  <polygon points="214.44,529.09 222.98,529.09 222.98,518.32 214.44,518.32" fill="#faffa8" />
  <polygon points="223.72,529.09 232.25,529.09 232.25,518.32 223.72,518.32" fill="#faffa8" />
  <polygon points="232.99,529.09 241.52,529.09 241.52,518.32 232.99,518.32" fill="#faffa8" />
  <polygon points="242.27,529.09 250.80,529.09 250.80,518.32 242.27,518.32" fill="#faffa8" />
  <polygon points="205.17,540.79 213.70,540.79 213.70,530.02 205.17,530.02" fill="#faffa8" />
  <polygon points="242.27,540.79 250.80,540.79 250.80,530.02 242.27,530.02" fill="#faffa8" />
  <polygon points="205.17,552.49 213.70,552.49 213.70,541.73 205.17,541.73" fill="#faffa8" />
  <polygon points="242.27,552.49 250.80,552.49 250.80,541.73 242.27,541.73" fill="#faffa8" />
  <polygon points="260.81,482.27 269.35,482.27 269.35,471.51 260.81,471.51" fill="#faffa8" />
  <polygon points="270.09,482.27 278.62,482.27 278.62,471.51 270.09,471.51" fill="#faffa8" />
  <polygon points="279.36,482.27 287.89,482.27 287.89,471.51 279.36,471.51" fill="#faffa8" />
  <polygon points="288.64,482.27 297.17,482.27 297.17,471.51 288.64,471.51" fill="#faffa8" />
  <polygon points="297.91,482.27 306.44,482.27 306.44,471.51 297.91,471.51" fill="#faffa8" />
  <polygon points="260.81,493.98 269.35,493.98 269.35,483.21 260.81,483.21" fill="#faffa8" />
  <polygon points="260.81,505.68 269.35,505.68 269.35,494.91 260.81,494.91" fill="#faffa8" />
  <polygon points="260.81,517.38 269.35,517.38 269.35,506.62 260.81,506.62" fill="#faffa8" />
  <polygon points="270.09,517.38 278.62,517.38 278.62,506.62 270.09,506.62" fill="#faffa8" />
  <polygon points="279.36,517.38 287.89,517.38 287.89,506.62 279.36,506.62" fill="#faffa8" />
  <polygon points="288.64,517.38 297.17,517.38 297.17,506.62 288.64,506.62" fill="#faffa8" />
  <polygon points="260.81,529.09 269.35,529.09 269.35,518.32 260.81,518.32" fill="#faffa8" />
  <polygon points="260.81,540.79 269.35,540.79 269.35,530.02 260.81,530.02" fill="#faffa8" />
  <polygon points="260.81,552.49 269.35,552.49 269.35,541.73 260.81,541.73" fill="#faffa8" />
  <polygon points="270.09,552.49 278.62,552.49 278.62,541.73 270.09,541.73" fill="#faffa8" />
  <polygon points="279.36,552.49 287.89,552.49 287.89,541.73 279.36,541.73" fill="#faffa8" />
  <polygon points="288.64,552.49 297.17,552.49 297.17,541.73 288.64,541.73" fill="#faffa8" />
  <polygon points="297.91,552.49 306.44,552.49 306.44,541.73 297.91,541.73" fill="#faffa8" />
  <polygon points="316.46,482.27 324.99,482.27 324.99,471.51 316.46,471.51" fill="#faffa8" />
  <polygon points="325.73,482.27 334.26,482.27 334.26,471.51 325.73,471.51" fill="#faffa8" />
  <polygon points="335.01,482.27 343.54,482.27 343.54,471.51 335.01,471.51" fill="#faffa8" />
  <polygon points="344.28,482.27 352.81,482.27 352.81,471.51 344.28,471.51" fill="#faffa8" />
  <polygon points="316.46,493.98 324.99,493.98 324.99,483.21 316.46,483.21" fill="#faffa8" />
  <polygon points="353.55,493.98 362.09,493.98 362.09,483.21 353.55,483.21" fill="#faffa8" />
  <polygon points="316.46,505.68 324.99,505.68 324.99,494.91 316.46,494.91" fill="#faffa8" />
  <polygon points="353.55,505.68 362.09,505.68 362.09,494.91 353.55,494.91" fill="#faffa8" />
  <polygon points="316.46,517.38 324.99,517.38 324.99,506.62 316.46,506.62" fill="#faffa8" />
  <polygon points="325.73,517.38 334.26,517.38 334.26,506.62 325.73,506.62" fill="#faffa8" />
  <polygon points="335.01,517.38 343.54,517.38 343.54,506.62 335.01,506.62" fill="#faffa8" />
  <polygon points="344.28,517.38 352.81,517.38 352.81,506.62 344.28,506.62" fill="#faffa8" />
  <polygon points="316.46,529.09 324.99,529.09 324.99,518.32 316.46,518.32" fill="#faffa8" />
  <polygon points="335.01,529.09 343.54,529.09 343.54,518.32 335.01,518.32" fill="#faffa8" />
  <polygon points="316.46,540.79 324.99,540.79 324.99,530.02 316.46,530.02" fill="#faffa8" />
  <polygon points="344.28,540.79 352.81,540.79 352.81,530.02 344.28,530.02" fill="#faffa8" />
  <polygon points="316.46,552.49 324.99,552.49 324.99,541.73 316.46,541.73" fill="#faffa8" />
  <polygon points="353.55,552.49 362.09,552.49 362.09,541.73 353.55,541.73" fill="#faffa8" />
  <polygon points="381.38,482.27 389.91,482.27 389.91,471.51 381.38,471.51" fill="#faffa8" />
  <polygon points="390.65,482.27 399.18,482.27 399.18,471.51 390.65,471.51" fill="#faffa8" />
  <polygon points="399.92,482.27 408.46,482.27 408.46,471.51 399.92,471.51" fill="#faffa8" />
  <polygon points="372.10,493.98 380.63,493.98 380.63,483.21 372.10,483.21" fill="#faffa8" />
  <polygon points="409.20,493.98 417.73,493.98 417.73,483.21 409.20,483.21" fill="#faffa8" />
  <polygon points="372.10,505.68 380.63,505.68 380.63,494.91 372.10,494.91" fill="#faffa8" />
  <polygon points="409.20,505.68 417.73,505.68 417.73,494.91 409.20,494.91" fill="#faffa8" />
  <polygon points="372.10,517.38 380.63,517.38 380.63,506.62 372.10,506.62" fill="#faffa8" />
  <polygon points="409.20,517.38 417.73,517.38 417.73,506.62 409.20,506.62" fill="#faffa8" />
  <polygon points="372.10,529.09 380.63,529.09 380.63,518.32 372.10,518.32" fill="#faffa8" />
  <polygon points="409.20,529.09 417.73,529.09 417.73,518.32 409.20,518.32" fill="#faffa8" />
  <polygon points="372.10,540.79 380.63,540.79 380.63,530.02 372.10,530.02" fill="#faffa8" />
  <polygon points="409.20,540.79 417.73,540.79 417.73,530.02 409.20,530.02" fill="#faffa8" />
  <polygon points="381.38,552.49 389.91,552.49 389.91,541.73 381.38,541.73" fill="#faffa8" />
  <polygon points="390.65,552.49 399.18,552.49 399.18,541.73 390.65,541.73" fill="#faffa8" />
  <polygon points="399.92,552.49 408.46,552.49 408.46,541.73 399.92,541.73" fill="#faffa8" />
  <polygon points="427.75,482.27 436.28,482.27 436.28,471.51 427.75,471.51" fill="#faffa8" />
  <polygon points="437.02,482.27 445.55,482.27 445.55,471.51 437.02,471.51" fill="#faffa8" />
  <polygon points="446.29,482.27 454.83,482.27 454.83,471.51 446.29,471.51" fill="#faffa8" />
  <polygon points="455.57,482.27 464.10,482.27 464.10,471.51 455.57,471.51" fill="#faffa8" />
  <polygon points="427.75,493.98 436.28,493.98 436.28,483.21 427.75,483.21" fill="#faffa8" />
  <polygon points="464.84,493.98 473.37,493.98 473.37,483.21 464.84,483.21" fill="#faffa8" />
  <polygon points="427.75,505.68 436.28,505.68 436.28,494.91 427.75,494.91" fill="#faffa8" />
  <polygon points="464.84,505.68 473.37,505.68 473.37,494.91 464.84,494.91" fill="#faffa8" />
  <polygon points="427.75,517.38 436.28,517.38 436.28,506.62 427.75,506.62" fill="#faffa8" />
  <polygon points="437.02,517.38 445.55,517.38 445.55,506.62 437.02,506.62" fill="#faffa8" />
  <polygon points="446.29,517.38 454.83,517.38 454.83,506.62 446.29,506.62" fill="#faffa8" />
  <polygon points="455.57,517.38 464.10,517.38 464.10,506.62 455.57,506.62" fill="#faffa8" />
  <polygon points="427.75,529.09 436.28,529.09 436.28,518.32 427.75,518.32" fill="#faffa8" />
  <polygon points="427.75,540.79 436.28,540.79 436.28,530.02 427.75,530.02" fill="#faffa8" />
  <polygon points="427.75,552.49 436.28,552.49 436.28,541.73 427.75,541.73" fill="#faffa8" />
  <polygon points="492.66,482.27 501.20,482.27 501.20,471.51 492.66,471.51" fill="#faffa8" />
  <polygon points="501.94,482.27 510.47,482.27 510.47,471.51 501.94,471.51" fill="#faffa8" />
  <polygon points="511.21,482.27 519.74,482.27 519.74,471.51 511.21,471.51" fill="#faffa8" />
  <polygon points="483.39,493.98 491.92,493.98 491.92,483.21 483.39,483.21" fill="#faffa8" />
  <polygon points="520.49,493.98 529.02,493.98 529.02,483.21 520.49,483.21" fill="#faffa8" />
  <polygon points="483.39,505.68 491.92,505.68 491.92,494.91 483.39,494.91" fill="#faffa8" />
  <polygon points="520.49,505.68 529.02,505.68 529.02,494.91 520.49,494.91" fill="#faffa8" />
  <polygon points="483.39,517.38 491.92,517.38 491.92,506.62 483.39,506.62" fill="#faffa8" />
  <polygon points="520.49,517.38 529.02,517.38 529.02,506.62 520.49,506.62" fill="#faffa8" />
  <polygon points="483.39,529.09 491.92,529.09 491.92,518.32 483.39,518.32" fill="#faffa8" />
  <polygon points="520.49,529.09 529.02,529.09 529.02,518.32 520.49,518.32" fill="#faffa8" />
  <polygon points="483.39,540.79 491.92,540.79 491.92,530.02 483.39,530.02" fill="#faffa8" />
  <polygon points="520.49,540.79 529.02,540.79 529.02,530.02 520.49,530.02" fill="#faffa8" />
  <polygon points="492.66,552.49 501.20,552.49 501.20,541.73 492.66,541.73" fill="#faffa8" />
  <polygon points="501.94,552.49 510.47,552.49 510.47,541.73 501.94,541.73" fill="#faffa8" />
  <polygon points="511.21,552.49 519.74,552.49 519.74,541.73 511.21,541.73" fill="#faffa8" />
  <polygon points="539.03,482.27 547.57,482.27 547.57,471.51 539.03,471.51" fill="#faffa8" />
  <polygon points="548.31,482.27 556.84,482.27 556.84,471.51 548.31,471.51" fill="#faffa8" />
  <polygon points="557.58,482.27 566.11,482.27 566.11,471.51 557.58,471.51" fill="#faffa8" />
  <polygon points="566.86,482.27 575.39,482.27 575.39,471.51 566.86,471.51" fill="#faffa8" />
  <polygon points="539.03,493.98 547.57,493.98 547.57,483.21 539.03,483.21" fill="#faffa8" />
  <polygon points="576.13,493.98 584.66,493.98 584.66,483.21 576.13,483.21" fill="#faffa8" />
  <polygon points="539.03,505.68 547.57,505.68 547.57,494.91 539.03,494.91" fill="#faffa8" />
  <polygon points="576.13,505.68 584.66,505.68 584.66,494.91 576.13,494.91" fill="#faffa8" />
  <polygon points="539.03,517.38 547.57,517.38 547.57,506.62 539.03,506.62" fill="#faffa8" />
  <polygon points="548.31,517.38 556.84,517.38 556.84,506.62 548.31,506.62" fill="#faffa8" />
  <polygon points="557.58,517.38 566.11,517.38 566.11,506.62 557.58,506.62" fill="#faffa8" />
  <polygon points="566.86,517.38 575.39,517.38 575.39,506.62 566.86,506.62" fill="#faffa8" />
  <polygon points="539.03,529.09 547.57,529.09 547.57,518.32 539.03,518.32" fill="#faffa8" />
  <polygon points="557.58,529.09 566.11,529.09 566.11,518.32 557.58,518.32" fill="#faffa8" />
  <polygon points="539.03,540.79 547.57,540.79 547.57,530.02 539.03,530.02" fill="#faffa8" />
  <polygon points="566.86,540.79 575.39,540.79 575.39,530.02 566.86,530.02" fill="#faffa8" />
  <polygon points="539.03,552.49 547.57,552.49 547.57,541.73 539.03,541.73" fill="#faffa8" />
  <polygon points="576.13,552.49 584.66,552.49 584.66,541.73 576.13,541.73" fill="#faffa8" />
  <polygon points="594.68,482.27 603.21,482.27 603.21,471.51 594.68,471.51" fill="#faffa8" />
  <polygon points="603.95,482.27 612.48,482.27 612.48,471.51 603.95,471.51" fill="#faffa8" />
  <polygon points="613.23,482.27 621.76,482.27 621.76,471.51 613.23,471.51" fill="#faffa8" />
  <polygon points="622.50,482.27 631.03,482.27 631.03,471.51 622.50,471.51" fill="#faffa8" />
  <polygon points="631.77,482.27 640.31,482.27 640.31,471.51 631.77,471.51" fill="#faffa8" />
  <polygon points="613.23,493.98 621.76,493.98 621.76,483.21 613.23,483.21" fill="#faffa8" />
  <polygon points="613.23,505.68 621.76,505.68 621.76,494.91 613.23,494.91" fill="#faffa8" />
  <polygon points="613.23,517.38 621.76,517.38 621.76,506.62 613.23,506.62" fill="#faffa8" />
  <polygon points="613.23,529.09 621.76,529.09 621.76,518.32 613.23,518.32" fill="#faffa8" />
  <polygon points="613.23,540.79 621.76,540.79 621.76,530.02 613.23,530.02" fill="#faffa8" />
  <polygon points="613.23,552.49 621.76,552.49 621.76,541.73 613.23,541.73" fill="#faffa8" />
  <polygon points="659.60,482.27 668.13,482.27 668.13,471.51 659.60,471.51" fill="#faffa8" />
  <polygon points="668.87,482.27 677.40,482.27 677.40,471.51 668.87,471.51" fill="#faffa8" />
  <polygon points="678.14,482.27 686.68,482.27 686.68,471.51 678.14,471.51" fill="#faffa8" />
  <polygon points="650.32,493.98 658.85,493.98 658.85,483.21 650.32,483.21" fill="#faffa8" />
  <polygon points="687.42,493.98 695.95,493.98 695.95,483.21 687.42,483.21" fill="#faffa8" />
  <polygon points="650.32,505.68 658.85,505.68 658.85,494.91 650.32,494.91" fill="#faffa8" />
  <polygon points="687.42,505.68 695.95,505.68 695.95,494.91 687.42,494.91" fill="#faffa8" />
  <polygon points="650.32,517.38 658.85,517.38 658.85,506.62 650.32,506.62" fill="#faffa8" />
  <polygon points="687.42,517.38 695.95,517.38 695.95,506.62 687.42,506.62" fill="#faffa8" />
  <polygon points="650.32,529.09 658.85,529.09 658.85,518.32 650.32,518.32" fill="#faffa8" />
  <polygon points="687.42,529.09 695.95,529.09 695.95,518.32 687.42,518.32" fill="#faffa8" />
  <polygon points="650.32,540.79 658.85,540.79 658.85,530.02 650.32,530.02" fill="#faffa8" />
  <polygon points="687.42,540.79 695.95,540.79 695.95,530.02 687.42,530.02" fill="#faffa8" />
  <polygon points="659.60,552.49 668.13,552.49 668.13,541.73 659.60,541.73" fill="#faffa8" />
  <polygon points="668.87,552.49 677.40,552.49 677.40,541.73 668.87,541.73" fill="#faffa8" />
  <polygon points="678.14,552.49 686.68,552.49 686.68,541.73 678.14,541.73" fill="#faffa8" />
  <polygon points="471.04,552.96 266.24,552.96 266.24,471.04 471.04,471.04" fill="#faffa8" />
  <polygon points="122.88,512.00 266.24,614.40 266.24,409.60" fill="#faffa8" />
</svg>
