<svg xmlns="http://www.w3.org/2000/svg" viewBox="0 0 1024 1024">
  <polygon points="25.60,890.88 998.40,890.88 998.40,133.12 25.60,133.12" fill="#faffa8" />
  <polygon points="56.32,849.92 967.68,849.92 967.68,174.08 56.32,174.08" fill="#bdff58" />
  <polygon points="102.40,496.64 921.60,496.64 921.60,527.36 102.40,527.36" fill="#faffa8" />
  <polygon points="246.18,666.59 255.80,666.59 255.80,655.83 246.18,655.83" fill="#faffa8" />
  <polygon points="256.64,666.59 266.26,666.59 266.26,655.83 256.64,655.83" fill="#faffa8" />
  <polygon points="267.09,666.59 276.72,666.59 276.72,655.83 267.09,655.83" fill="#faffa8" />
  <polygon points="277.55,666.59 287.17,666.59 287.17,655.83 277.55,655.83" fill="#faffa8" />
  <polygon points="288.01,666.59 297.63,666.59 297.63,655.83 288.01,655.83" fill="#faffa8" />
  <polygon points="267.09,678.30 276.72,678.30 276.72,667.53 267.09,667.53" fill="#faffa8" />
  <polygon points="267.09,690.00 276.72,690.00 276.72,679.23 267.09,679.23" fill="#faffa8" />
  <polygon points="267.09,701.70 276.72,701.70 276.72,690.94 267.09,690.94" fill="#faffa8" />
  <polygon points="267.09,713.41 276.72,713.41 276.72,702.64 267.09,702.64" fill="#faffa8" />
  <polygon points="267.09,725.11 276.72,725.11 276.72,714.34 267.09,714.34" fill="#faffa8" />
  <polygon points="267.09,736.81 276.72,736.81 276.72,726.05 267.09,726.05" fill="#faffa8" />
  <polygon points="308.93,666.59 318.55,666.59 318.55,655.83 308.93,655.83" fill="#faffa8" />
  <polygon points="319.38,666.59 329.00,666.59 329.00,655.83 319.38,655.83" fill="#faffa8" />
  <polygon points="329.84,666.59 339.46,666.59 339.46,655.83 329.84,655.83" fill="#faffa8" />
  <polygon points="340.30,666.59 349.92,666.59 349.92,655.83 340.30,655.83" fill="#faffa8" />
  <polygon points="350.76,666.59 360.38,666.59 360.38,655.83 350.76,655.83" fill="#faffa8" />
  <polygon points="308.93,678.30 318.55,678.30 318.55,667.53 308.93,667.53" fill="#faffa8" />
  <polygon points="308.93,690.00 318.55,690.00 318.55,679.23 308.93,679.23" fill="#faffa8" />
  <polygon points="308.93,701.70 318.55,701.70 318.55,690.94 308.93,690.94" fill="#faffa8" />
  <polygon points="319.38,701.70 329.00,701.70 329.00,690.94 319.38,690.94" fill="#faffa8" />
  <polygon points="329.84,701.70 339.46,701.70 339.46,690.94 329.84,690.94" fill="#faffa8" />
  <polygon points="340.30,701.70 349.92,701.70 349.92,690.94 340.30,690.94" fill="#faffa8" />
  <polygon points="308.93,713.41 318.55,713.41 318.55,702.64 308.93,702.64" fill="#faffa8" />
  <polygon points="308.93,725.11 318.55,725.11 318.55,714.34 308.93,714.34" fill="#faffa8" />
  <polygon points="308.93,736.81 318.55,736.81 318.55,726.05 308.93,726.05" fill="#faffa8" />
  <polygon points="319.38,736.81 329.00,736.81 329.00,726.05 319.38,726.05" fill="#faffa8" />
  <polygon points="329.84,736.81 339.46,736.81 339.46,726.05 329.84,726.05" fill="#faffa8" />
  <polygon points="340.30,736.81 349.92,736.81 349.92,726.05 340.30,726.05" fill="#faffa8" />
  <polygon points="350.76,736.81 360.38,736.81 360.38,726.05 350.76,726.05" fill="#faffa8" />
  <polygon points="371.67,666.59 381.29,666.59 381.29,655.83 371.67,655.83" fill="#faffa8" />
  <polygon points="382.13,666.59 391.75,666.59 391.75,655.83 382.13,655.83" fill="#faffa8" />
  <polygon points="392.59,666.59 402.21,666.59 402.21,655.83 392.59,655.83" fill="#faffa8" />
  <polygon points="403.05,666.59 412.67,666.59 412.67,655.83 403.05,655.83" fill="#faffa8" />
  <polygon points="371.67,678.30 381.29,678.30 381.29,667.53 371.67,667.53" fill="#faffa8" />
  <polygon points="413.50,678.30 423.13,678.30 423.13,667.53 413.50,667.53" fill="#faffa8" />
  <polygon points="371.67,690.00 381.29,690.00 381.29,679.23 371.67,679.23" fill="#faffa8" />
  <polygon points="413.50,690.00 423.13,690.00 423.13,679.23 413.50,679.23" fill="#faffa8" />
  <polygon points="371.67,701.70 381.29,701.70 381.29,690.94 371.67,690.94" fill="#faffa8" />
  <polygon points="382.13,701.70 391.75,701.70 391.75,690.94 382.13,690.94" fill="#faffa8" />
  <polygon points="392.59,701.70 402.21,701.70 402.21,690.94 392.59,690.94" fill="#faffa8" />
  <polygon points="403.05,701.70 412.67,701.70 412.67,690.94 403.05,690.94" fill="#faffa8" />
  <polygon points="371.67,713.41 381.29,713.41 381.29,702.64 371.67,702.64" fill="#faffa8" />
  <polygon points="392.59,713.41 402.21,713.41 402.21,702.64 392.59,702.64" fill="#faffa8" />
  <polygon points="371.67,725.11 381.29,725.11 381.29,714.34 371.67,714.34" fill="#faffa8" />
  <polygon points="403.05,725.11 412.67,725.11 412.67,714.34 403.05,714.34" fill="#faffa8" />
  <polygon points="371.67,736.81 381.29,736.81 381.29,726.05 371.67,726.05" fill="#faffa8" />
  <polygon points="413.50,736.81 423.13,736.81 423.13,726.05 413.50,726.05" fill="#faffa8" />
  <polygon points="434.42,666.59 444.04,666.59 444.04,655.83 434.42,655.83" fill="#faffa8" />
  <polygon points="476.25,666.59 485.87,666.59 485.87,655.83 476.25,655.83" fill="#faffa8" />
  <polygon points="434.42,678.30 444.04,678.30 444.04,667.53 434.42,667.53" fill="#faffa8" />
  <polygon points="444.88,678.30 454.50,678.30 454.50,667.53 444.88,667.53" fill="#faffa8" />
  <polygon points="465.79,678.30 475.41,678.30 475.41,667.53 465.79,667.53" fill="#faffa8" />
  <polygon points="476.25,678.30 485.87,678.30 485.87,667.53 476.25,667.53" fill="#faffa8" />
  <polygon points="434.42,690.00 444.04,690.00 444.04,679.23 434.42,679.23" fill="#faffa8" />
  <polygon points="455.34,690.00 464.96,690.00 464.96,679.23 455.34,679.23" fill="#faffa8" />
  <polygon points="476.25,690.00 485.87,690.00 485.87,679.23 476.25,679.23" fill="#faffa8" />
  <polygon points="434.42,701.70 444.04,701.70 444.04,690.94 434.42,690.94" fill="#faffa8" />
  <polygon points="455.34,701.70 464.96,701.70 464.96,690.94 455.34,690.94" fill="#faffa8" />
  <polygon points="476.25,701.70 485.87,701.70 485.87,690.94 476.25,690.94" fill="#faffa8" />
  <polygon points="434.42,713.41 444.04,713.41 444.04,702.64 434.42,702.64" fill="#faffa8" />
  <polygon points="476.25,713.41 485.87,713.41 485.87,702.64 476.25,702.64" fill="#faffa8" />
  <polygon points="434.42,725.11 444.04,725.11 444.04,714.34 434.42,714.34" fill="#faffa8" />
  <polygon points="476.25,725.11 485.87,725.11 485.87,714.34 476.25,714.34" fill="#faffa8" />
  <polygon points="434.42,736.81 444.04,736.81 444.04,726.05 434.42,726.05" fill="#faffa8" />
  <polygon points="476.25,736.81 485.87,736.81 485.87,726.05 476.25,726.05" fill="#faffa8" />
  <polygon points="497.17,666.59 506.79,666.59 506.79,655.83 497.17,655.83" fill="#faffa8" />
  <polygon points="507.63,666.59 517.25,666.59 517.25,655.83 507.63,655.83" fill="#faffa8" />
  <polygon points="518.08,666.59 527.70,666.59 527.70,655.83 518.08,655.83" fill="#faffa8" />
  <polygon points="528.54,666.59 538.16,666.59 538.16,655.83 528.54,655.83" fill="#faffa8" />
  <polygon points="539.00,666.59 548.62,666.59 548.62,655.83 539.00,655.83" fill="#faffa8" />
  <polygon points="518.08,678.30 527.70,678.30 527.70,667.53 518.08,667.53" fill="#faffa8" />
  <polygon points="518.08,690.00 527.70,690.00 527.70,679.23 518.08,679.23" fill="#faffa8" />
  <polygon points="518.08,701.70 527.70,701.70 527.70,690.94 518.08,690.94" fill="#faffa8" />
  <polygon points="518.08,713.41 527.70,713.41 527.70,702.64 518.08,702.64" fill="#faffa8" />
  <polygon points="518.08,725.11 527.70,725.11 527.70,714.34 518.08,714.34" fill="#faffa8" />
  <polygon points="497.17,736.81 506.79,736.81 506.79,726.05 497.17,726.05" fill="#faffa8" />
  <polygon points="507.63,736.81 517.25,736.81 517.25,726.05 507.63,726.05" fill="#faffa8" />
  <polygon points="518.08,736.81 527.70,736.81 527.70,726.05 518.08,726.05" fill="#faffa8" />
  <polygon points="528.54,736.81 538.16,736.81 538.16,726.05 528.54,726.05" fill="#faffa8" />
  <polygon points="539.00,736.81 548.62,736.81 548.62,726.05 539.00,726.05" fill="#faffa8" />
  <polygon points="559.91,666.59 569.54,666.59 569.54,655.83 559.91,655.83" fill="#faffa8" />
  <polygon points="601.75,666.59 611.37,666.59 611.37,655.83 601.75,655.83" fill="#faffa8" />
  <polygon points="559.91,678.30 569.54,678.30 569.54,667.53 559.91,667.53" fill="#faffa8" />
  <polygon points="570.37,678.30 579.99,678.30 579.99,667.53 570.37,667.53" fill="#faffa8" />
  <polygon points="601.75,678.30 611.37,678.30 611.37,667.53 601.75,667.53" fill="#faffa8" />
  <polygon points="559.91,690.00 569.54,690.00 569.54,679.23 559.91,679.23" fill="#faffa8" />
  <polygon points="580.83,690.00 590.45,690.00 590.45,679.23 580.83,679.23" fill="#faffa8" />
  <polygon points="601.75,690.00 611.37,690.00 611.37,679.23 601.75,679.23" fill="#faffa8" />
  <polygon points="559.91,701.70 569.54,701.70 569.54,690.94 559.91,690.94" fill="#faffa8" />
  <polygon points="591.29,701.70 600.91,701.70 600.91,690.94 591.29,690.94" fill="#faffa8" />
  <polygon points="601.75,701.70 611.37,701.70 611.37,690.94 601.75,690.94" fill="#faffa8" />
  <polygon points="559.91,713.41 569.54,713.41 569.54,702.64 559.91,702.64" fill="#faffa8" />
  <polygon points="601.75,713.41 611.37,713.41 611.37,702.64 601.75,702.64" fill="#faffa8" />
  <polygon points="559.91,725.11 569.54,725.11 569.54,714.34 559.91,714.34" fill="#faffa8" />
  <polygon points="601.75,725.11 611.37,725.11 611.37,714.34 601.75,714.34" fill="#faffa8" />
  <polygon points="559.91,736.81 569.54,736.81 569.54,726.05 559.91,726.05" fill="#faffa8" />
  <polygon points="601.75,736.81 611.37,736.81 611.37,726.05 601.75,726.05" fill="#faffa8" />
  <polygon points="643.58,666.59 653.20,666.59 653.20,655.83 643.58,655.83" fill="#faffa8" />
  <polygon points="633.12,678.30 642.74,678.30 642.74,667.53 633.12,667.53" fill="#faffa8" />
  <polygon points="654.04,678.30 663.66,678.30 663.66,667.53 654.04,667.53" fill="#faffa8" />
  <polygon points="622.66,690.00 632.28,690.00 632.28,679.23 622.66,679.23" fill="#faffa8" />
  <polygon points="664.49,690.00 674.11,690.00 674.11,679.23 664.49,679.23" fill="#faffa8" />
  <polygon points="622.66,701.70 632.28,701.70 632.28,690.94 622.66,690.94" fill="#faffa8" />
  <polygon points="664.49,701.70 674.11,701.70 674.11,690.94 664.49,690.94" fill="#faffa8" />
  <polygon points="622.66,713.41 632.28,713.41 632.28,702.64 622.66,702.64" fill="#faffa8" />
  <polygon points="633.12,713.41 642.74,713.41 642.74,702.64 633.12,702.64" fill="#faffa8" />
  <polygon points="643.58,713.41 653.20,713.41 653.20,702.64 643.58,702.64" fill="#faffa8" />
  <polygon points="654.04,713.41 663.66,713.41 663.66,702.64 654.04,702.64" fill="#faffa8" />
  <polygon points="664.49,713.41 674.11,713.41 674.11,702.64 664.49,702.64" fill="#faffa8" />
  <polygon points="622.66,725.11 632.28,725.11 632.28,714.34 622.66,714.34" fill="#faffa8" />
  <polygon points="664.49,725.11 674.11,725.11 674.11,714.34 664.49,714.34" fill="#faffa8" />
  <polygon points="622.66,736.81 632.28,736.81 632.28,726.05 622.66,726.05" fill="#faffa8" />
  <polygon points="664.49,736.81 674.11,736.81 674.11,726.05 664.49,726.05" fill="#faffa8" />
  <polygon points="685.41,666.59 695.03,666.59 695.03,655.83 685.41,655.83" fill="#faffa8" />
  <polygon points="685.41,678.30 695.03,678.30 695.03,667.53 685.41,667.53" fill="#faffa8" />
  <polygon points="685.41,690.00 695.03,690.00 695.03,679.23 685.41,679.23" fill="#faffa8" />
  <polygon points="685.41,701.70 695.03,701.70 695.03,690.94 685.41,690.94" fill="#faffa8" />
  <polygon points="685.41,713.41 695.03,713.41 695.03,702.64 685.41,702.64" fill="#faffa8" />
  <polygon points="685.41,725.11 695.03,725.11 695.03,714.34 685.41,714.34" fill="#faffa8" />
  <polygon points="685.41,736.81 695.03,736.81 695.03,726.05 685.41,726.05" fill="#faffa8" />
  <polygon points="695.87,736.81 705.49,736.81 705.49,726.05 695.87,726.05" fill="#faffa8" />
  <polygon points="706.32,736.81 715.95,736.81 715.95,726.05 706.32,726.05" fill="#faffa8" />
  <polygon points="716.78,736.81 726.40,736.81 726.40,726.05 716.78,726.05" fill="#faffa8" />
  <polygon points="727.24,736.81 736.86,736.81 736.86,726.05 727.24,726.05" fill="#faffa8" />
  <polygon points="154.26,275.66 169.33,275.66 169.33,256.82 154.26,256.82" fill="#faffa8" />
  <polygon points="219.79,275.66 234.86,275.66 234.86,256.82 219.79,256.82" fill="#faffa8" />
  <polygon points="154.26,296.14 169.33,296.14 169.33,277.30 154.26,277.30" fill="#faffa8" />
  <polygon points="170.64,296.14 185.71,296.14 185.71,277.30 170.64,277.30" fill="#faffa8" />
  <polygon points="203.41,296.14 218.48,296.14 218.48,277.30 203.41,277.30" fill="#faffa8" />
  <polygon points="219.79,296.14 234.86,296.14 234.86,277.30 219.79,277.30" fill="#faffa8" />
  <polygon points="154.26,316.62 169.33,316.62 169.33,297.78 154.26,297.78" fill="#faffa8" />
  <polygon points="187.02,316.62 202.10,316.62 202.10,297.78 187.02,297.78" fill="#faffa8" />
  <polygon points="219.79,316.62 234.86,316.62 234.86,297.78 219.79,297.78" fill="#faffa8" />
  <polygon points="154.26,337.10 169.33,337.10 169.33,318.26 154.26,318.26" fill="#faffa8" />
  <polygon points="187.02,337.10 202.10,337.10 202.10,318.26 187.02,318.26" fill="#faffa8" />
  <polygon points="219.79,337.10 234.86,337.10 234.86,318.26 219.79,318.26" fill="#faffa8" />
  <polygon points="154.26,357.58 169.33,357.58 169.33,338.74 154.26,338.74" fill="#faffa8" />
  <polygon points="219.79,357.58 234.86,357.58 234.86,338.74 219.79,338.74" fill="#faffa8" />
  <polygon points="154.26,378.06 169.33,378.06 169.33,359.22 154.26,359.22" fill="#faffa8" />
  <polygon points="219.79,378.06 234.86,378.06 234.86,359.22 219.79,359.22" fill="#faffa8" />
  <polygon points="154.26,398.54 169.33,398.54 169.33,379.70 154.26,379.70" fill="#faffa8" />
  <polygon points="219.79,398.54 234.86,398.54 234.86,379.70 219.79,379.70" fill="#faffa8" />
  <polygon points="420.32,294.24 431.37,294.24 431.37,282.13 420.32,282.13" fill="#faffa8" />
  <polygon points="468.34,294.24 479.39,294.24 479.39,282.13 468.34,282.13" fill="#faffa8" />
  <polygon points="420.32,307.40 431.37,307.40 431.37,295.29 420.32,295.29" fill="#faffa8" />
  <polygon points="432.33,307.40 443.37,307.40 443.37,295.29 432.33,295.29" fill="#faffa8" />
  <polygon points="456.34,307.40 467.38,307.40 467.38,295.29 456.34,295.29" fill="#faffa8" />
  <polygon points="468.34,307.40 479.39,307.40 479.39,295.29 468.34,295.29" fill="#faffa8" />
  <polygon points="420.32,320.57 431.37,320.57 431.37,308.46 420.32,308.46" fill="#faffa8" />
  <polygon points="444.33,320.57 455.38,320.57 455.38,308.46 444.33,308.46" fill="#faffa8" />
  <polygon points="468.34,320.57 479.39,320.57 479.39,308.46 468.34,308.46" fill="#faffa8" />
  <polygon points="420.32,333.74 431.37,333.74 431.37,321.62 420.32,321.62" fill="#faffa8" />
  <polygon points="444.33,333.74 455.38,333.74 455.38,321.62 444.33,321.62" fill="#faffa8" />
  <polygon points="468.34,333.74 479.39,333.74 479.39,321.62 468.34,321.62" fill="#faffa8" />
  <polygon points="420.32,346.90 431.37,346.90 431.37,334.79 420.32,334.79" fill="#faffa8" />
  <polygon points="468.34,346.90 479.39,346.90 479.39,334.79 468.34,334.79" fill="#faffa8" />
  <polygon points="420.32,360.07 431.37,360.07 431.37,347.96 420.32,347.96" fill="#faffa8" />
  <polygon points="468.34,360.07 479.39,360.07 479.39,347.96 468.34,347.96" fill="#faffa8" />
  <polygon points="420.32,373.23 431.37,373.23 431.37,361.12 420.32,361.12" fill="#faffa8" />
  <polygon points="468.34,373.23 479.39,373.23 479.39,361.12 468.34,361.12" fill="#faffa8" />
  <polygon points="492.35,294.24 503.40,294.24 503.40,282.13 492.35,282.13" fill="#faffa8" />
  <polygon points="504.36,294.24 515.40,294.24 515.40,282.13 504.36,282.13" fill="#faffa8" />
  <polygon points="516.36,294.24 527.41,294.24 527.41,282.13 516.36,282.13" fill="#faffa8" />
  <polygon points="528.37,294.24 539.41,294.24 539.41,282.13 528.37,282.13" fill="#faffa8" />
  <polygon points="540.38,294.24 551.42,294.24 551.42,282.13 540.38,282.13" fill="#faffa8" />
  <polygon points="492.35,307.40 503.40,307.40 503.40,295.29 492.35,295.29" fill="#faffa8" />
  <polygon points="492.35,320.57 503.40,320.57 503.40,308.46 492.35,308.46" fill="#faffa8" />
  <polygon points="492.35,333.74 503.40,333.74 503.40,321.62 492.35,321.62" fill="#faffa8" />
  <polygon points="504.36,333.74 515.40,333.74 515.40,321.62 504.36,321.62" fill="#faffa8" />
  <polygon points="516.36,333.74 527.41,333.74 527.41,321.62 516.36,321.62" fill="#faffa8" />
  <polygon points="528.37,333.74 539.41,333.74 539.41,321.62 528.37,321.62" fill="#faffa8" />
  <polygon points="492.35,346.90 503.40,346.90 503.40,334.79 492.35,334.79" fill="#faffa8" />
  <polygon points="492.35,360.07 503.40,360.07 503.40,347.96 492.35,347.96" fill="#faffa8" />
  <polygon points="492.35,373.23 503.40,373.23 503.40,361.12 492.35,361.12" fill="#faffa8" />
  <polygon points="504.36,373.23 515.40,373.23 515.40,361.12 504.36,361.12" fill="#faffa8" />
  <polygon points="516.36,373.23 527.41,373.23 527.41,361.12 516.36,361.12" fill="#faffa8" />
  <polygon points="528.37,373.23 539.41,373.23 539.41,361.12 528.37,361.12" fill="#faffa8" />
  <polygon points="540.38,373.23 551.42,373.23 551.42,361.12 540.38,361.12" fill="#faffa8" />
  <polygon points="564.39,294.24 575.43,294.24 575.43,282.13 564.39,282.13" fill="#faffa8" />
  <polygon points="576.39,294.24 587.44,294.24 587.44,282.13 576.39,282.13" fill="#faffa8" />
  <polygon points="588.40,294.24 599.44,294.24 599.44,282.13 588.40,282.13" fill="#faffa8" />
  <polygon points="600.40,294.24 611.45,294.24 611.45,282.13 600.40,282.13" fill="#faffa8" />
  <polygon points="612.41,294.24 623.45,294.24 623.45,282.13 612.41,282.13" fill="#faffa8" />
  <polygon points="588.40,307.40 599.44,307.40 599.44,295.29 588.40,295.29" fill="#faffa8" />
  <polygon points="588.40,320.57 599.44,320.57 599.44,308.46 588.40,308.46" fill="#faffa8" />
  <polygon points="588.40,333.74 599.44,333.74 599.44,321.62 588.40,321.62" fill="#faffa8" />
  <polygon points="588.40,346.90 599.44,346.90 599.44,334.79 588.40,334.79" fill="#faffa8" />
  <polygon points="588.40,360.07 599.44,360.07 599.44,347.96 588.40,347.96" fill="#faffa8" />
  <polygon points="588.40,373.23 599.44,373.23 599.44,361.12 588.40,361.12" fill="#faffa8" />
  <polygon points="636.42,294.24 647.46,294.24 647.46,282.13 636.42,282.13" fill="#faffa8" />
  <polygon points="648.43,294.24 659.47,294.24 659.47,282.13 648.43,282.13" fill="#faffa8" />
  <polygon points="660.43,294.24 671.48,294.24 671.48,282.13 660.43,282.13" fill="#faffa8" />
  <polygon points="672.44,294.24 683.48,294.24 683.48,282.13 672.44,282.13" fill="#faffa8" />
  <polygon points="636.42,307.40 647.46,307.40 647.46,295.29 636.42,295.29" fill="#faffa8" />
  <polygon points="684.44,307.40 695.49,307.40 695.49,295.29 684.44,295.29" fill="#faffa8" />
  <polygon points="636.42,320.57 647.46,320.57 647.46,308.46 636.42,308.46" fill="#faffa8" />
  <polygon points="684.44,320.57 695.49,320.57 695.49,308.46 684.44,308.46" fill="#faffa8" />
  <polygon points="636.42,333.74 647.46,333.74 647.46,321.62 636.42,321.62" fill="#faffa8" />
  <polygon points="648.43,333.74 659.47,333.74 659.47,321.62 648.43,321.62" fill="#faffa8" />
  <polygon points="660.43,333.74 671.48,333.74 671.48,321.62 660.43,321.62" fill="#faffa8" />
  <polygon points="672.44,333.74 683.48,333.74 683.48,321.62 672.44,321.62" fill="#faffa8" />
  <polygon points="636.42,346.90 647.46,346.90 647.46,334.79 636.42,334.79" fill="#faffa8" />
  <polygon points="660.43,346.90 671.48,346.90 671.48,334.79 660.43,334.79" fill="#faffa8" />
  <polygon points="636.42,360.07 647.46,360.07 647.46,347.96 636.42,347.96" fill="#faffa8" />
  <polygon points="672.44,360.07 683.48,360.07 683.48,347.96 672.44,347.96" fill="#faffa8" />
  <polygon points="636.42,373.23 647.46,373.23 647.46,361.12 636.42,361.12" fill="#faffa8" />
  <polygon points="684.44,373.23 695.49,373.23 695.49,361.12 684.44,361.12" fill="#faffa8" />
  <polygon points="720.46,294.24 731.50,294.24 731.50,282.13 720.46,282.13" fill="#faffa8" />
  <polygon points="732.46,294.24 743.51,294.24 743.51,282.13 732.46,282.13" fill="#faffa8" />
  <polygon points="744.47,294.24 755.51,294.24 755.51,282.13 744.47,282.13" fill="#faffa8" />
  <polygon points="708.45,307.40 719.50,307.40 719.50,295.29 708.45,295.29" fill="#faffa8" />
  <polygon points="756.47,307.40 767.52,307.40 767.52,295.29 756.47,295.29" fill="#faffa8" />
  <polygon points="708.45,320.57 719.50,320.57 719.50,308.46 708.45,308.46" fill="#faffa8" />
  <polygon points="756.47,320.57 767.52,320.57 767.52,308.46 756.47,308.46" fill="#faffa8" />
  <polygon points="708.45,333.74 719.50,333.74 719.50,321.62 708.45,321.62" fill="#faffa8" />
  <polygon points="756.47,333.74 767.52,333.74 767.52,321.62 756.47,321.62" fill="#faffa8" />
  <polygon points="708.45,346.90 719.50,346.90 719.50,334.79 708.45,334.79" fill="#faffa8" />
  <polygon points="756.47,346.90 767.52,346.90 767.52,334.79 756.47,334.79" fill="#faffa8" />
  <polygon points="708.45,360.07 719.50,360.07 719.50,347.96 708.45,347.96" fill="#faffa8" />
  <polygon points="756.47,360.07 767.52,360.07 767.52,347.96 756.47,347.96" fill="#faffa8" />
  <polygon points="720.46,373.23 731.50,373.23 731.50,361.12 720.46,361.12" fill="#faffa8" />
  <polygon points="732.46,373.23 743.51,373.23 743.51,361.12 732.46,361.12" fill="#faffa8" />
  <polygon points="744.47,373.23 755.51,373.23 755.51,361.12 744.47,361.12" fill="#faffa8" />
  <polygon points="655.36,296.96 808.96,296.96 808.96,358.40 655.36,358.40" fill="#faffa8" />
  <polygon points="921.60,327.68 808.96,245.76 808.96,409.60" fill="#faffa8" />
</svg>
