<svg xmlns="http://www.w3.org/2000/svg" viewBox="0 0 1024 1024">
  <polygon points="845.08,178.92 178.92,178.92 178.92,845.08 845.08,845.08" fill="#fffe5d" />
  <polygon points="316.41,365.01 333.61,365.01 333.61,348.86 316.41,348.86" fill="#f9ffa8" />
  <polygon points="335.11,365.01 352.31,365.01 352.31,348.86 335.11,348.86" fill="#f9ffa8" />
  <polygon points="353.81,365.01 371.01,365.01 371.01,348.86 353.81,348.86" fill="#f9ffa8" />
  <polygon points="372.50,365.01 389.71,365.01 389.71,348.86 372.50,348.86" fill="#f9ffa8" />
  <polygon points="297.71,382.57 314.91,382.57 314.91,366.42 297.71,366.42" fill="#f9ffa8" />
  <polygon points="297.71,400.12 314.91,400.12 314.91,383.97 297.71,383.97" fill="#f9ffa8" />
  <polygon points="316.41,417.67 333.61,417.67 333.61,401.53 316.41,401.53" fill="#f9ffa8" />
  <polygon points="335.11,417.67 352.31,417.67 352.31,401.53 335.11,401.53" fill="#f9ffa8" />
  <polygon points="353.81,417.67 371.01,417.67 371.01,401.53 353.81,401.53" fill="#f9ffa8" />
  <polygon points="372.50,435.23 389.71,435.23 389.71,419.08 372.50,419.08" fill="#f9ffa8" />
  <polygon points="372.50,452.78 389.71,452.78 389.71,436.63 372.50,436.63" fill="#f9ffa8" />
  <polygon points="297.71,470.34 314.91,470.34 314.91,454.19 297.71,454.19" fill="#f9ffa8" />
  <polygon points="316.41,470.34 333.61,470.34 333.61,454.19 316.41,454.19" fill="#f9ffa8" />
  <polygon points="335.11,470.34 352.31,470.34 352.31,454.19 335.11,454.19" fill="#f9ffa8" />
  <polygon points="353.81,470.34 371.01,470.34 371.01,454.19 353.81,454.19" fill="#f9ffa8" />
  <polygon points="409.90,365.01 427.11,365.01 427.11,348.86 409.90,348.86" fill="#f9ffa8" />
  <polygon points="428.60,365.01 445.81,365.01 445.81,348.86 428.60,348.86" fill="#f9ffa8" />
  <polygon points="447.30,365.01 464.50,365.01 464.50,348.86 447.30,348.86" fill="#f9ffa8" />
  <polygon points="466.00,365.01 483.20,365.01 483.20,348.86 466.00,348.86" fill="#f9ffa8" />
  <polygon points="484.70,365.01 501.90,365.01 501.90,348.86 484.70,348.86" fill="#f9ffa8" />
  <polygon points="447.30,382.57 464.50,382.57 464.50,366.42 447.30,366.42" fill="#f9ffa8" />
  <polygon points="447.30,400.12 464.50,400.12 464.50,383.97 447.30,383.97" fill="#f9ffa8" />
  <polygon points="447.30,417.67 464.50,417.67 464.50,401.53 447.30,401.53" fill="#f9ffa8" />
  <polygon points="447.30,435.23 464.50,435.23 464.50,419.08 447.30,419.08" fill="#f9ffa8" />
  <polygon points="447.30,452.78 464.50,452.78 464.50,436.63 447.30,436.63" fill="#f9ffa8" />
  <polygon points="447.30,470.34 464.50,470.34 464.50,454.19 447.30,454.19" fill="#f9ffa8" />
  <polygon points="540.80,365.01 558.00,365.01 558.00,348.86 540.80,348.86" fill="#f9ffa8" />
  <polygon points="559.50,365.01 576.70,365.01 576.70,348.86 559.50,348.86" fill="#f9ffa8" />
  <polygon points="578.19,365.01 595.40,365.01 595.40,348.86 578.19,348.86" fill="#f9ffa8" />
  <polygon points="522.10,382.57 539.30,382.57 539.30,366.42 522.10,366.42" fill="#f9ffa8" />
  <polygon points="596.89,382.57 614.10,382.57 614.10,366.42 596.89,366.42" fill="#f9ffa8" />
  <polygon points="522.10,400.12 539.30,400.12 539.30,383.97 522.10,383.97" fill="#f9ffa8" />
  <polygon points="596.89,400.12 614.10,400.12 614.10,383.97 596.89,383.97" fill="#f9ffa8" />
  <polygon points="522.10,417.67 539.30,417.67 539.30,401.53 522.10,401.53" fill="#f9ffa8" />
  <polygon points="596.89,417.67 614.10,417.67 614.10,401.53 596.89,401.53" fill="#f9ffa8" />
  <polygon points="522.10,435.23 539.30,435.23 539.30,419.08 522.10,419.08" fill="#f9ffa8" />
  <polygon points="596.89,435.23 614.10,435.23 614.10,419.08 596.89,419.08" fill="#f9ffa8" />
  <polygon points="522.10,452.78 539.30,452.78 539.30,436.63 522.10,436.63" fill="#f9ffa8" />
  <polygon points="596.89,452.78 614.10,452.78 614.10,436.63 596.89,436.63" fill="#f9ffa8" />
  <polygon points="540.80,470.34 558.00,470.34 558.00,454.19 540.80,454.19" fill="#f9ffa8" />
  <polygon points="559.50,470.34 576.70,470.34 576.70,454.19 559.50,454.19" fill="#f9ffa8" />
  <polygon points="578.19,470.34 595.40,470.34 595.40,454.19 578.19,454.19" fill="#f9ffa8" />
  <polygon points="634.29,365.01 651.50,365.01 651.50,348.86 634.29,348.86" fill="#f9ffa8" />
  <polygon points="652.99,365.01 670.19,365.01 670.19,348.86 652.99,348.86" fill="#f9ffa8" />
  <polygon points="671.69,365.01 688.89,365.01 688.89,348.86 671.69,348.86" fill="#f9ffa8" />
  <polygon points="690.39,365.01 707.59,365.01 707.59,348.86 690.39,348.86" fill="#f9ffa8" />
  <polygon points="634.29,382.57 651.50,382.57 651.50,366.42 634.29,366.42" fill="#f9ffa8" />
  <polygon points="709.09,382.57 726.29,382.57 726.29,366.42 709.09,366.42" fill="#f9ffa8" />
  <polygon points="634.29,400.12 651.50,400.12 651.50,383.97 634.29,383.97" fill="#f9ffa8" />
  <polygon points="709.09,400.12 726.29,400.12 726.29,383.97 709.09,383.97" fill="#f9ffa8" />
  <polygon points="634.29,417.67 651.50,417.67 651.50,401.53 634.29,401.53" fill="#f9ffa8" />
  <polygon points="652.99,417.67 670.19,417.67 670.19,401.53 652.99,401.53" fill="#f9ffa8" />
  <polygon points="671.69,417.67 688.89,417.67 688.89,401.53 671.69,401.53" fill="#f9ffa8" />
  <polygon points="690.39,417.67 707.59,417.67 707.59,401.53 690.39,401.53" fill="#f9ffa8" />
  <polygon points="634.29,435.23 651.50,435.23 651.50,419.08 634.29,419.08" fill="#f9ffa8" />
  <polygon points="634.29,452.78 651.50,452.78 651.50,436.63 634.29,436.63" fill="#f9ffa8" />
  <polygon points="634.29,470.34 651.50,470.34 651.50,454.19 634.29,454.19" fill="#f9ffa8" />
  <polygon points="292.02,597.72 308.26,597.72 308.26,584.27 292.02,584.27" fill="#f9ffa8" />
  <polygon points="274.36,612.35 290.60,612.35 290.60,598.89 274.36,598.89" fill="#f9ffa8" />
  <polygon points="309.67,612.35 325.91,612.35 325.91,598.89 309.67,598.89" fill="#f9ffa8" />
  <polygon points="256.71,626.98 272.95,626.98 272.95,613.52 256.71,613.52" fill="#f9ffa8" />
  <polygon points="327.33,626.98 343.57,626.98 343.57,613.52 327.33,613.52" fill="#f9ffa8" />
  <polygon points="256.71,641.61 272.95,641.61 272.95,628.15 256.71,628.15" fill="#f9ffa8" />
  <polygon points="327.33,641.61 343.57,641.61 343.57,628.15 327.33,628.15" fill="#f9ffa8" />
  <polygon points="256.71,656.24 272.95,656.24 272.95,642.78 256.71,642.78" fill="#f9ffa8" />
  <polygon points="274.36,656.24 290.60,656.24 290.60,642.78 274.36,642.78" fill="#f9ffa8" />
  <polygon points="292.02,656.24 308.26,656.24 308.26,642.78 292.02,642.78" fill="#f9ffa8" />
  <polygon points="309.67,656.24 325.91,656.24 325.91,642.78 309.67,642.78" fill="#f9ffa8" />
  <polygon points="327.33,656.24 343.57,656.24 343.57,642.78 327.33,642.78" fill="#f9ffa8" />
  <polygon points="256.71,670.87 272.95,670.87 272.95,657.41 256.71,657.41" fill="#f9ffa8" />
  <polygon points="327.33,670.87 343.57,670.87 343.57,657.41 327.33,657.41" fill="#f9ffa8" />
  <polygon points="256.71,685.49 272.95,685.49 272.95,672.04 256.71,672.04" fill="#f9ffa8" />
  <polygon points="327.33,685.49 343.57,685.49 343.57,672.04 327.33,672.04" fill="#f9ffa8" />
  <polygon points="362.64,597.72 378.88,597.72 378.88,584.27 362.64,584.27" fill="#f9ffa8" />
  <polygon points="433.26,597.72 449.50,597.72 449.50,584.27 433.26,584.27" fill="#f9ffa8" />
  <polygon points="362.64,612.35 378.88,612.35 378.88,598.89 362.64,598.89" fill="#f9ffa8" />
  <polygon points="433.26,612.35 449.50,612.35 449.50,598.89 433.26,598.89" fill="#f9ffa8" />
  <polygon points="362.64,626.98 378.88,626.98 378.88,613.52 362.64,613.52" fill="#f9ffa8" />
  <polygon points="433.26,626.98 449.50,626.98 449.50,613.52 433.26,613.52" fill="#f9ffa8" />
  <polygon points="362.64,641.61 378.88,641.61 378.88,628.15 362.64,628.15" fill="#f9ffa8" />
  <polygon points="380.29,641.61 396.54,641.61 396.54,628.15 380.29,628.15" fill="#f9ffa8" />
  <polygon points="397.95,641.61 414.19,641.61 414.19,628.15 397.95,628.15" fill="#f9ffa8" />
  <polygon points="415.60,641.61 431.85,641.61 431.85,628.15 415.60,628.15" fill="#f9ffa8" />
  <polygon points="433.26,641.61 449.50,641.61 449.50,628.15 433.26,628.15" fill="#f9ffa8" />
  <polygon points="362.64,656.24 378.88,656.24 378.88,642.78 362.64,642.78" fill="#f9ffa8" />
  <polygon points="433.26,656.24 449.50,656.24 449.50,642.78 433.26,642.78" fill="#f9ffa8" />
  <polygon points="362.64,670.87 378.88,670.87 378.88,657.41 362.64,657.41" fill="#f9ffa8" />
  <polygon points="433.26,670.87 449.50,670.87 449.50,657.41 433.26,657.41" fill="#f9ffa8" />
  <polygon points="362.64,685.49 378.88,685.49 378.88,672.04 362.64,672.04" fill="#f9ffa8" />
  <polygon points="433.26,685.49 449.50,685.49 449.50,672.04 433.26,672.04" fill="#f9ffa8" />
  <polygon points="468.57,597.72 484.81,597.72 484.81,584.27 468.57,584.27" fill="#f9ffa8" />
  <polygon points="486.22,597.72 502.47,597.72 502.47,584.27 486.22,584.27" fill="#f9ffa8" />
  <polygon points="503.88,597.72 520.12,597.72 520.12,584.27 503.88,584.27" fill="#f9ffa8" />
  <polygon points="521.53,597.72 537.78,597.72 537.78,584.27 521.53,584.27" fill="#f9ffa8" />
  <polygon points="539.19,597.72 555.43,597.72 555.43,584.27 539.19,584.27" fill="#f9ffa8" />
  <polygon points="468.57,612.35 484.81,612.35 484.81,598.89 468.57,598.89" fill="#f9ffa8" />
  <polygon points="468.57,626.98 484.81,626.98 484.81,613.52 468.57,613.52" fill="#f9ffa8" />
  <polygon points="468.57,641.61 484.81,641.61 484.81,628.15 468.57,628.15" fill="#f9ffa8" />
  <polygon points="486.22,641.61 502.47,641.61 502.47,628.15 486.22,628.15" fill="#f9ffa8" />
  <polygon points="503.88,641.61 520.12,641.61 520.12,628.15 503.88,628.15" fill="#f9ffa8" />
  <polygon points="521.53,641.61 537.78,641.61 537.78,628.15 521.53,628.15" fill="#f9ffa8" />
  <polygon points="468.57,656.24 484.81,656.24 484.81,642.78 468.57,642.78" fill="#f9ffa8" />
  <polygon points="468.57,670.87 484.81,670.87 484.81,657.41 468.57,657.41" fill="#f9ffa8" />
  <polygon points="468.57,685.49 484.81,685.49 484.81,672.04 468.57,672.04" fill="#f9ffa8" />
  <polygon points="486.22,685.49 502.47,685.49 502.47,672.04 486.22,672.04" fill="#f9ffa8" />
  <polygon points="503.88,685.49 520.12,685.49 520.12,672.04 503.88,672.04" fill="#f9ffa8" />
  <polygon points="521.53,685.49 537.78,685.49 537.78,672.04 521.53,672.04" fill="#f9ffa8" />
  <polygon points="539.19,685.49 555.43,685.49 555.43,672.04 539.19,672.04" fill="#f9ffa8" />
  <polygon points="609.81,597.72 626.05,597.72 626.05,584.27 609.81,584.27" fill="#f9ffa8" />
  <polygon points="592.15,612.35 608.40,612.35 608.40,598.89 592.15,598.89" fill="#f9ffa8" />
  <polygon points="627.46,612.35 643.71,612.35 643.71,598.89 627.46,598.89" fill="#f9ffa8" />
  <polygon points="574.50,626.98 590.74,626.98 590.74,613.52 574.50,613.52" fill="#f9ffa8" />
  <polygon points="645.12,626.98 661.36,626.98 661.36,613.52 645.12,613.52" fill="#f9ffa8" />
  <polygon points="574.50,641.61 590.74,641.61 590.74,628.15 574.50,628.15" fill="#f9ffa8" />
  <polygon points="645.12,641.61 661.36,641.61 661.36,628.15 645.12,628.15" fill="#f9ffa8" />
  <polygon points="574.50,656.24 590.74,656.24 590.74,642.78 574.50,642.78" fill="#f9ffa8" />
  <polygon points="592.15,656.24 608.40,656.24 608.40,642.78 592.15,642.78" fill="#f9ffa8" />
  <polygon points="609.81,656.24 626.05,656.24 626.05,642.78 609.81,642.78" fill="#f9ffa8" />
  <polygon points="627.46,656.24 643.71,656.24 643.71,642.78 627.46,642.78" fill="#f9ffa8" />
  <polygon points="645.12,656.24 661.36,656.24 661.36,642.78 645.12,642.78" fill="#f9ffa8" />
  <polygon points="574.50,670.87 590.74,670.87 590.74,657.41 574.50,657.41" fill="#f9ffa8" />
  <polygon points="645.12,670.87 661.36,670.87 661.36,657.41 645.12,657.41" fill="#f9ffa8" />
  <polygon points="574.50,685.49 590.74,685.49 590.74,672.04 574.50,672.04" fill="#f9ffa8" />
  <polygon points="645.12,685.49 661.36,685.49 661.36,672.04 645.12,672.04" fill="#f9ffa8" />
  <polygon points="680.43,597.72 696.67,597.72 696.67,584.27 680.43,584.27" fill="#f9ffa8" />
  <polygon points="698.09,597.72 714.33,597.72 714.33,584.27 698.09,584.27" fill="#f9ffa8" />
  <polygon points="715.74,597.72 731.98,597.72 731.98,584.27 715.74,584.27" fill="#f9ffa8" />
  <polygon points="733.40,597.72 749.64,597.72 749.64,584.27 733.40,584.27" fill="#f9ffa8" />
  <polygon points="680.43,612.35 696.67,612.35 696.67,598.89 680.43,598.89" fill="#f9ffa8" />
  <polygon points="751.05,612.35 767.29,612.35 767.29,598.89 751.05,598.89" fill="#f9ffa8" />
  <polygon points="680.43,626.98 696.67,626.98 696.67,613.52 680.43,613.52" fill="#f9ffa8" />
  <polygon points="751.05,626.98 767.29,626.98 767.29,613.52 751.05,613.52" fill="#f9ffa8" />
  <polygon points="680.43,641.61 696.67,641.61 696.67,628.15 680.43,628.15" fill="#f9ffa8" />
  <polygon points="751.05,641.61 767.29,641.61 767.29,628.15 751.05,628.15" fill="#f9ffa8" />
  <polygon points="680.43,656.24 696.67,656.24 696.67,642.78 680.43,642.78" fill="#f9ffa8" />
  <polygon points="751.05,656.24 767.29,656.24 767.29,642.78 751.05,642.78" fill="#f9ffa8" />
  <polygon points="680.43,670.87 696.67,670.87 696.67,657.41 680.43,657.41" fill="#f9ffa8" />
  <polygon points="751.05,670.87 767.29,670.87 767.29,657.41 751.05,657.41" fill="#f9ffa8" />
  <polygon points="680.43,685.49 696.67,685.49 696.67,672.04 680.43,672.04" fill="#f9ffa8" />
  <polygon points="698.09,685.49 714.33,685.49 714.33,672.04 698.09,672.04" fill="#f9ffa8" />
  <polygon points="715.74,685.49 731.98,685.49 731.98,672.04 715.74,672.04" fill="#f9ffa8" />
  <polygon points="733.40,685.49 749.64,685.49 749.64,672.04 733.40,672.04" fill="#f9ffa8" />
</svg>
