<svg xmlns="http://www.w3.org/2000/svg" viewBox="0 0 1024 1024">
  <polygon points="25.60,890.88 998.40,890.88 998.40,133.12 25.60,133.12" fill="#faffa8" />
  <polygon points="56.32,849.92 967.68,849.92 967.68,174.08 56.32,174.08" fill="#bdff58" />
  <polygon points="102.40,496.64 921.60,496.64 921.60,527.36 102.40,527.36" fill="#faffa8" />
  <polygon points="35.23,770.05 374.37,770.05 374.37,622.59 35.23,622.59" fill="#faffa8" />
  <polygon points="38.91,814.28 105.27,814.28 105.27,770.05 38.91,770.05" fill="#faffa8" />
  <polygon points="304.33,814.28 370.69,814.28 370.69,770.05 304.33,770.05" fill="#faffa8" />
  <polygon points="145.82,784.79 141.44,765.60 129.16,750.21 111.42,741.67 91.74,741.67 74.00,750.21 61.72,765.60 57.34,784.79 61.72,803.99 74.00,819.38 91.74,827.92 111.42,827.92 129.16,819.38 141.44,803.99" fill="#faffa8" />
  <polygon points="352.26,784.79 347.88,765.60 335.60,750.21 317.86,741.67 298.18,741.67 280.44,750.21 268.16,765.60 263.78,784.79 268.16,803.99 280.44,819.38 298.18,827.92 317.86,827.92 335.60,819.38 347.88,803.99" fill="#faffa8" />
  <polygon points="461.23,662.88 471.21,662.88 471.21,650.77 461.23,650.77" fill="#faffa8" />
  <polygon points="472.08,662.88 482.05,662.88 482.05,650.77 472.08,650.77" fill="#faffa8" />
  <polygon points="482.92,662.88 492.89,662.88 492.89,650.77 482.92,650.77" fill="#faffa8" />
  <polygon points="493.76,662.88 503.74,662.88 503.74,650.77 493.76,650.77" fill="#faffa8" />
  <polygon points="461.23,676.04 471.21,676.04 471.21,663.93 461.23,663.93" fill="#faffa8" />
  <polygon points="504.60,676.04 514.58,676.04 514.58,663.93 504.60,663.93" fill="#faffa8" />
  <polygon points="461.23,689.21 471.21,689.21 471.21,677.10 461.23,677.10" fill="#faffa8" />
  <polygon points="504.60,689.21 514.58,689.21 514.58,677.10 504.60,677.10" fill="#faffa8" />
  <polygon points="461.23,702.38 471.21,702.38 471.21,690.26 461.23,690.26" fill="#faffa8" />
  <polygon points="472.08,702.38 482.05,702.38 482.05,690.26 472.08,690.26" fill="#faffa8" />
  <polygon points="482.92,702.38 492.89,702.38 492.89,690.26 482.92,690.26" fill="#faffa8" />
  <polygon points="493.76,702.38 503.74,702.38 503.74,690.26 493.76,690.26" fill="#faffa8" />
  <polygon points="461.23,715.54 471.21,715.54 471.21,703.43 461.23,703.43" fill="#faffa8" />
  <polygon points="504.60,715.54 514.58,715.54 514.58,703.43 504.60,703.43" fill="#faffa8" />
  <polygon points="461.23,728.71 471.21,728.71 471.21,716.60 461.23,716.60" fill="#faffa8" />
  <polygon points="504.60,728.71 514.58,728.71 514.58,716.60 504.60,716.60" fill="#faffa8" />
  <polygon points="461.23,741.87 471.21,741.87 471.21,729.76 461.23,729.76" fill="#faffa8" />
  <polygon points="472.08,741.87 482.05,741.87 482.05,729.76 472.08,729.76" fill="#faffa8" />
  <polygon points="482.92,741.87 492.89,741.87 492.89,729.76 482.92,729.76" fill="#faffa8" />
  <polygon points="493.76,741.87 503.74,741.87 503.74,729.76 493.76,729.76" fill="#faffa8" />
  <polygon points="526.29,662.88 536.26,662.88 536.26,650.77 526.29,650.77" fill="#faffa8" />
  <polygon points="569.66,662.88 579.63,662.88 579.63,650.77 569.66,650.77" fill="#faffa8" />
  <polygon points="526.29,676.04 536.26,676.04 536.26,663.93 526.29,663.93" fill="#faffa8" />
  <polygon points="569.66,676.04 579.63,676.04 579.63,663.93 569.66,663.93" fill="#faffa8" />
  <polygon points="526.29,689.21 536.26,689.21 536.26,677.10 526.29,677.10" fill="#faffa8" />
  <polygon points="569.66,689.21 579.63,689.21 579.63,677.10 569.66,677.10" fill="#faffa8" />
  <polygon points="526.29,702.38 536.26,702.38 536.26,690.26 526.29,690.26" fill="#faffa8" />
  <polygon points="569.66,702.38 579.63,702.38 579.63,690.26 569.66,690.26" fill="#faffa8" />
  <polygon points="526.29,715.54 536.26,715.54 536.26,703.43 526.29,703.43" fill="#faffa8" />
  <polygon points="569.66,715.54 579.63,715.54 579.63,703.43 569.66,703.43" fill="#faffa8" />
  <polygon points="526.29,728.71 536.26,728.71 536.26,716.60 526.29,716.60" fill="#faffa8" />
  <polygon points="569.66,728.71 579.63,728.71 579.63,716.60 569.66,716.60" fill="#faffa8" />
  <polygon points="537.13,741.87 547.11,741.87 547.11,729.76 537.13,729.76" fill="#faffa8" />
  <polygon points="547.97,741.87 557.95,741.87 557.95,729.76 547.97,729.76" fill="#faffa8" />
  <polygon points="558.81,741.87 568.79,741.87 568.79,729.76 558.81,729.76" fill="#faffa8" />
  <polygon points="602.18,662.88 612.16,662.88 612.16,650.77 602.18,650.77" fill="#faffa8" />
  <polygon points="613.03,662.88 623.00,662.88 623.00,650.77 613.03,650.77" fill="#faffa8" />
  <polygon points="623.87,662.88 633.84,662.88 633.84,650.77 623.87,650.77" fill="#faffa8" />
  <polygon points="634.71,662.88 644.69,662.88 644.69,650.77 634.71,650.77" fill="#faffa8" />
  <polygon points="591.34,676.04 601.32,676.04 601.32,663.93 591.34,663.93" fill="#faffa8" />
  <polygon points="591.34,689.21 601.32,689.21 601.32,677.10 591.34,677.10" fill="#faffa8" />
  <polygon points="602.18,702.38 612.16,702.38 612.16,690.26 602.18,690.26" fill="#faffa8" />
  <polygon points="613.03,702.38 623.00,702.38 623.00,690.26 613.03,690.26" fill="#faffa8" />
  <polygon points="623.87,702.38 633.84,702.38 633.84,690.26 623.87,690.26" fill="#faffa8" />
  <polygon points="634.71,715.54 644.69,715.54 644.69,703.43 634.71,703.43" fill="#faffa8" />
  <polygon points="634.71,728.71 644.69,728.71 644.69,716.60 634.71,716.60" fill="#faffa8" />
  <polygon points="591.34,741.87 601.32,741.87 601.32,729.76 591.34,729.76" fill="#faffa8" />
  <polygon points="602.18,741.87 612.16,741.87 612.16,729.76 602.18,729.76" fill="#faffa8" />
  <polygon points="613.03,741.87 623.00,741.87 623.00,729.76 613.03,729.76" fill="#faffa8" />
  <polygon points="623.87,741.87 633.84,741.87 633.84,729.76 623.87,729.76" fill="#faffa8" />
  <polygon points="507.46,294.24 520.81,294.24 520.81,282.13 507.46,282.13" fill="#faffa8" />
  <polygon points="521.97,294.24 535.31,294.24 535.31,282.13 521.97,282.13" fill="#faffa8" />
  <polygon points="536.47,294.24 549.82,294.24 549.82,282.13 536.47,282.13" fill="#faffa8" />
  <polygon points="550.98,294.24 564.33,294.24 564.33,282.13 550.98,282.13" fill="#faffa8" />
  <polygon points="565.49,294.24 578.83,294.24 578.83,282.13 565.49,282.13" fill="#faffa8" />
  <polygon points="507.46,307.40 520.81,307.40 520.81,295.29 507.46,295.29" fill="#faffa8" />
  <polygon points="507.46,320.57 520.81,320.57 520.81,308.46 507.46,308.46" fill="#faffa8" />
  <polygon points="507.46,333.74 520.81,333.74 520.81,321.62 507.46,321.62" fill="#faffa8" />
  <polygon points="521.97,333.74 535.31,333.74 535.31,321.62 521.97,321.62" fill="#faffa8" />
  <polygon points="536.47,333.74 549.82,333.74 549.82,321.62 536.47,321.62" fill="#faffa8" />
  <polygon points="550.98,333.74 564.33,333.74 564.33,321.62 550.98,321.62" fill="#faffa8" />
  <polygon points="507.46,346.90 520.81,346.90 520.81,334.79 507.46,334.79" fill="#faffa8" />
  <polygon points="507.46,360.07 520.81,360.07 520.81,347.96 507.46,347.96" fill="#faffa8" />
  <polygon points="507.46,373.23 520.81,373.23 520.81,361.12 507.46,361.12" fill="#faffa8" />
  <polygon points="521.97,373.23 535.31,373.23 535.31,361.12 521.97,361.12" fill="#faffa8" />
  <polygon points="536.47,373.23 549.82,373.23 549.82,361.12 536.47,361.12" fill="#faffa8" />
  <polygon points="550.98,373.23 564.33,373.23 564.33,361.12 550.98,361.12" fill="#faffa8" />
  <polygon points="565.49,373.23 578.83,373.23 578.83,361.12 565.49,361.12" fill="#faffa8" />
  <polygon points="594.50,294.24 607.85,294.24 607.85,282.13 594.50,282.13" fill="#faffa8" />
  <polygon points="609.01,294.24 622.35,294.24 622.35,282.13 609.01,282.13" fill="#faffa8" />
  <polygon points="623.51,294.24 636.86,294.24 636.86,282.13 623.51,282.13" fill="#faffa8" />
  <polygon points="638.02,294.24 651.37,294.24 651.37,282.13 638.02,282.13" fill="#faffa8" />
  <polygon points="594.50,307.40 607.85,307.40 607.85,295.29 594.50,295.29" fill="#faffa8" />
  <polygon points="652.53,307.40 665.87,307.40 665.87,295.29 652.53,295.29" fill="#faffa8" />
  <polygon points="594.50,320.57 607.85,320.57 607.85,308.46 594.50,308.46" fill="#faffa8" />
  <polygon points="652.53,320.57 665.87,320.57 665.87,308.46 652.53,308.46" fill="#faffa8" />
  <polygon points="594.50,333.74 607.85,333.74 607.85,321.62 594.50,321.62" fill="#faffa8" />
  <polygon points="609.01,333.74 622.35,333.74 622.35,321.62 609.01,321.62" fill="#faffa8" />
  <polygon points="623.51,333.74 636.86,333.74 636.86,321.62 623.51,321.62" fill="#faffa8" />
  <polygon points="638.02,333.74 651.37,333.74 651.37,321.62 638.02,321.62" fill="#faffa8" />
  <polygon points="594.50,346.90 607.85,346.90 607.85,334.79 594.50,334.79" fill="#faffa8" />
  <polygon points="623.51,346.90 636.86,346.90 636.86,334.79 623.51,334.79" fill="#faffa8" />
  <polygon points="594.50,360.07 607.85,360.07 607.85,347.96 594.50,347.96" fill="#faffa8" />
  <polygon points="638.02,360.07 651.37,360.07 651.37,347.96 638.02,347.96" fill="#faffa8" />
  <polygon points="594.50,373.23 607.85,373.23 607.85,361.12 594.50,361.12" fill="#faffa8" />
  <polygon points="652.53,373.23 665.87,373.23 665.87,361.12 652.53,361.12" fill="#faffa8" />
  <polygon points="681.54,294.24 694.89,294.24 694.89,282.13 681.54,282.13" fill="#faffa8" />
  <polygon points="696.05,294.24 709.39,294.24 709.39,282.13 696.05,282.13" fill="#faffa8" />
  <polygon points="710.55,294.24 723.90,294.24 723.90,282.13 710.55,282.13" fill="#faffa8" />
  <polygon points="725.06,294.24 738.41,294.24 738.41,282.13 725.06,282.13" fill="#faffa8" />
  <polygon points="681.54,307.40 694.89,307.40 694.89,295.29 681.54,295.29" fill="#faffa8" />
  <polygon points="739.57,307.40 752.91,307.40 752.91,295.29 739.57,295.29" fill="#faffa8" />
  <polygon points="681.54,320.57 694.89,320.57 694.89,308.46 681.54,308.46" fill="#faffa8" />
  <polygon points="739.57,320.57 752.91,320.57 752.91,308.46 739.57,308.46" fill="#faffa8" />
  <polygon points="681.54,333.74 694.89,333.74 694.89,321.62 681.54,321.62" fill="#faffa8" />
  <polygon points="696.05,333.74 709.39,333.74 709.39,321.62 696.05,321.62" fill="#faffa8" />
  <polygon points="710.55,333.74 723.90,333.74 723.90,321.62 710.55,321.62" fill="#faffa8" />
  <polygon points="725.06,333.74 738.41,333.74 738.41,321.62 725.06,321.62" fill="#faffa8" />
  <polygon points="681.54,346.90 694.89,346.90 694.89,334.79 681.54,334.79" fill="#faffa8" />
  <polygon points="710.55,346.90 723.90,346.90 723.90,334.79 710.55,334.79" fill="#faffa8" />
  <polygon points="681.54,360.07 694.89,360.07 694.89,347.96 681.54,347.96" fill="#faffa8" />
  <polygon points="725.06,360.07 738.41,360.07 738.41,347.96 725.06,347.96" fill="#faffa8" />
  <polygon points="681.54,373.23 694.89,373.23 694.89,361.12 681.54,361.12" fill="#faffa8" />
  <polygon points="739.57,373.23 752.91,373.23 752.91,361.12 739.57,361.12" fill="#faffa8" />
  <polygon points="768.58,294.24 781.93,294.24 781.93,282.13 768.58,282.13" fill="#faffa8" />
  <polygon points="826.61,294.24 839.95,294.24 839.95,282.13 826.61,282.13" fill="#faffa8" />
  <polygon points="768.58,307.40 781.93,307.40 781.93,295.29 768.58,295.29" fill="#faffa8" />
  <polygon points="826.61,307.40 839.95,307.40 839.95,295.29 826.61,295.29" fill="#faffa8" />
  <polygon points="783.09,320.57 796.43,320.57 796.43,308.46 783.09,308.46" fill="#faffa8" />
  <polygon points="812.10,320.57 825.45,320.57 825.45,308.46 812.10,308.46" fill="#faffa8" />
  <polygon points="797.59,333.74 810.94,333.74 810.94,321.62 797.59,321.62" fill="#faffa8" />
  <polygon points="797.59,346.90 810.94,346.90 810.94,334.79 797.59,334.79" fill="#faffa8" />
  <polygon points="797.59,360.07 810.94,360.07 810.94,347.96 797.59,347.96" fill="#faffa8" />
  <polygon points="797.59,373.23 810.94,373.23 810.94,361.12 797.59,361.12" fill="#faffa8" />
  <polygon points="655.36,296.96 808.96,296.96 808.96,358.40 655.36,358.40" fill="#faffa8" />
  <polygon points="921.60,327.68 808.96,245.76 808.96,409.60" fill="#faffa8" />
</svg>
