<svg xmlns="http://www.w3.org/2000/svg" viewBox="0 0 1024 1024">
  <polygon points="983.04,512.00 977.24,438.31 959.99,366.44 931.70,298.15 893.08,235.13 845.08,178.92 788.87,130.92 725.85,92.30 657.56,64.01 585.69,46.76 512.00,40.96 438.31,46.76 366.44,64.01 298.15,92.30 235.13,130.92 178.92,178.92 130.92,235.13 92.30,298.15 64.01,366.44 46.76,438.31 40.96,512.00 46.76,585.69 64.01,657.56 92.30,725.85 130.92,788.87 178.92,845.08 235.13,893.08 298.15,931.70 366.44,959.99 438.31,977.24 512.00,983.04 585.69,977.24 657.56,959.99 725.85,931.70 788.87,893.08 845.08,845.08 893.08,788.87 931.70,725.85 959.99,657.56 977.24,585.69" fill="#ff710f" />
  <polygon points="880.64,512.00 876.10,454.33 862.60,398.08 840.46,344.64 810.24,295.32 772.67,251.33 728.68,213.76 679.36,183.54 625.92,161.40 569.67,147.90 512.00,143.36 454.33,147.90 398.08,161.40 344.64,183.54 295.32,213.76 251.33,251.33 213.76,295.32 183.54,344.64 161.40,398.08 147.90,454.33 143.36,512.00 147.90,569.67 161.40,625.92 183.54,679.36 213.76,728.68 251.33,772.67 295.32,810.24 344.64,840.46 398.08,862.60 454.33,876.10 512.00,880.64 569.67,876.10 625.92,862.60 679.36,840.46 728.68,810.24 772.67,772.67 810.24,728.68 840.46,679.36 862.60,625.92 876.10,569.67" fill="#faffa8" />
  <polygon points="608.62,712.26 498.31,530.58 550.83,498.69 661.14,680.38" fill="#f9ffa8" />
  <polygon points="460.80,409.60 445.79,562.47 603.35,466.81" fill="#f9ffa8" />
  <polygon points="274.72,216.80 807.20,749.28 749.28,807.20 216.80,274.72" fill="#ff710f" />
</svg>
