<svg xmlns="http://www.w3.org/2000/svg" viewBox="0 0 1024 1024">
  <polygon points="845.08,178.92 178.92,178.92 178.92,845.08 845.08,845.08" fill="#fffe5d" />
  <polygon points="467.76,415.33 464.12,396.99 453.73,381.45 438.18,371.06 419.84,367.41 401.50,371.06 385.95,381.45 375.56,396.99 371.92,415.33 375.56,433.67 385.95,449.22 401.50,459.61 419.84,463.26 438.18,459.61 453.73,449.22 464.12,433.67" fill="#f9ffa8" />
  <polygon points="435.81,479.23 435.81,585.73 403.87,585.73 403.87,479.23" fill="#f9ffa8" />
  <polygon points="423.07,534.74 337.87,556.04 331.41,530.22 416.61,508.92" fill="#f9ffa8" />
  <polygon points="423.07,508.92 508.27,530.22 501.81,556.04 416.61,534.74" fill="#f9ffa8" />
  <polygon points="431.07,592.87 356.52,710.02 334.06,695.73 408.61,578.58" fill="#f9ffa8" />
  <polygon points="430.23,577.41 515.43,683.91 494.64,700.54 409.45,594.04" fill="#f9ffa8" />
  <polygon points="677.27,428.85 674.05,412.63 664.86,398.87 651.10,389.68 634.88,386.46 618.66,389.68 604.90,398.87 595.71,412.63 592.49,428.85 595.71,445.07 604.90,458.83 618.66,468.02 634.88,471.24 651.10,468.02 664.86,458.83 674.05,445.07" fill="#f9ffa8" />
  <polygon points="649.01,485.38 649.01,579.58 620.75,579.58 620.75,485.38" fill="#f9ffa8" />
  <polygon points="637.74,534.48 562.37,553.33 556.66,530.48 632.02,511.63" fill="#f9ffa8" />
  <polygon points="637.74,511.63 713.10,530.48 707.39,553.33 632.02,534.48" fill="#f9ffa8" />
  <polygon points="644.81,585.91 578.87,689.54 559.00,676.89 624.95,573.26" fill="#f9ffa8" />
  <polygon points="644.08,572.23 719.44,666.44 701.05,681.15 625.68,586.94" fill="#f9ffa8" />
</svg>
