<svg xmlns="http://www.w3.org/2000/svg" viewBox="0 0 1024 1024">
  <polygon points="983.04,512.00 977.24,438.31 959.99,366.44 931.70,298.15 893.08,235.13 845.08,178.92 788.87,130.92 725.85,92.30 657.56,64.01 585.69,46.76 512.00,40.96 438.31,46.76 366.44,64.01 298.15,92.30 235.13,130.92 178.92,178.92 130.92,235.13 92.30,298.15 64.01,366.44 46.76,438.31 40.96,512.00 46.76,585.69 64.01,657.56 92.30,725.85 130.92,788.87 178.92,845.08 235.13,893.08 298.15,931.70 366.44,959.99 438.31,977.24 512.00,983.04 585.69,977.24 657.56,959.99 725.85,931.70 788.87,893.08 845.08,845.08 893.08,788.87 931.70,725.85 959.99,657.56 977.24,585.69" fill="#ff710f" />
  <polygon points="880.64,512.00 876.10,454.33 862.60,398.08 840.46,344.64 810.24,295.32 772.67,251.33 728.68,213.76 679.36,183.54 625.92,161.40 569.67,147.90 512.00,143.36 454.33,147.90 398.08,161.40 344.64,183.54 295.32,213.76 251.33,251.33 213.76,295.32 183.54,344.64 161.40,398.08 147.90,454.33 143.36,512.00 147.90,569.67 161.40,625.92 183.54,679.36 213.76,728.68 251.33,772.67 295.32,810.24 344.64,840.46 398.08,862.60 454.33,876.10 512.00,880.64 569.67,876.10 625.92,862.60 679.36,840.46 728.68,810.24 772.67,772.67 810.24,728.68 840.46,679.36 862.60,625.92 876.10,569.67" fill="#faffa8" />
  <polygon points="339.19,407.96 368.30,407.96 368.30,370.28 339.19,370.28" fill="#f9ffa8" />
  <polygon points="370.84,407.96 399.96,407.96 399.96,370.28 370.84,370.28" fill="#f9ffa8" />
  <polygon points="402.49,407.96 431.61,407.96 431.61,370.28 402.49,370.28" fill="#f9ffa8" />
  <polygon points="434.14,407.96 463.26,407.96 463.26,370.28 434.14,370.28" fill="#f9ffa8" />
  <polygon points="465.79,407.96 494.91,407.96 494.91,370.28 465.79,370.28" fill="#f9ffa8" />
  <polygon points="339.19,448.92 368.30,448.92 368.30,411.24 339.19,411.24" fill="#f9ffa8" />
  <polygon points="339.19,489.88 368.30,489.88 368.30,452.20 339.19,452.20" fill="#f9ffa8" />
  <polygon points="370.84,489.88 399.96,489.88 399.96,452.20 370.84,452.20" fill="#f9ffa8" />
  <polygon points="402.49,489.88 431.61,489.88 431.61,452.20 402.49,452.20" fill="#f9ffa8" />
  <polygon points="434.14,489.88 463.26,489.88 463.26,452.20 434.14,452.20" fill="#f9ffa8" />
  <polygon points="465.79,530.84 494.91,530.84 494.91,493.16 465.79,493.16" fill="#f9ffa8" />
  <polygon points="465.79,571.80 494.91,571.80 494.91,534.12 465.79,534.12" fill="#f9ffa8" />
  <polygon points="339.19,612.76 368.30,612.76 368.30,575.08 339.19,575.08" fill="#f9ffa8" />
  <polygon points="465.79,612.76 494.91,612.76 494.91,575.08 465.79,575.08" fill="#f9ffa8" />
  <polygon points="370.84,653.72 399.96,653.72 399.96,616.04 370.84,616.04" fill="#f9ffa8" />
  <polygon points="402.49,653.72 431.61,653.72 431.61,616.04 402.49,616.04" fill="#f9ffa8" />
  <polygon points="434.14,653.72 463.26,653.72 463.26,616.04 434.14,616.04" fill="#f9ffa8" />
  <polygon points="560.74,407.96 589.86,407.96 589.86,370.28 560.74,370.28" fill="#f9ffa8" />
  <polygon points="592.39,407.96 621.51,407.96 621.51,370.28 592.39,370.28" fill="#f9ffa8" />
  <polygon points="624.04,407.96 653.16,407.96 653.16,370.28 624.04,370.28" fill="#f9ffa8" />
  <polygon points="529.09,448.92 558.21,448.92 558.21,411.24 529.09,411.24" fill="#f9ffa8" />
  <polygon points="655.70,448.92 684.81,448.92 684.81,411.24 655.70,411.24" fill="#f9ffa8" />
  <polygon points="529.09,489.88 558.21,489.88 558.21,452.20 529.09,452.20" fill="#f9ffa8" />
  <polygon points="624.04,489.88 653.16,489.88 653.16,452.20 624.04,452.20" fill="#f9ffa8" />
  <polygon points="655.70,489.88 684.81,489.88 684.81,452.20 655.70,452.20" fill="#f9ffa8" />
  <polygon points="529.09,530.84 558.21,530.84 558.21,493.16 529.09,493.16" fill="#f9ffa8" />
  <polygon points="592.39,530.84 621.51,530.84 621.51,493.16 592.39,493.16" fill="#f9ffa8" />
  <polygon points="655.70,530.84 684.81,530.84 684.81,493.16 655.70,493.16" fill="#f9ffa8" />
  <polygon points="529.09,571.80 558.21,571.80 558.21,534.12 529.09,534.12" fill="#f9ffa8" />
  <polygon points="560.74,571.80 589.86,571.80 589.86,534.12 560.74,534.12" fill="#f9ffa8" />
  <polygon points="655.70,571.80 684.81,571.80 684.81,534.12 655.70,534.12" fill="#f9ffa8" />
  <polygon points="529.09,612.76 558.21,612.76 558.21,575.08 529.09,575.08" fill="#f9ffa8" />
  <polygon points="655.70,612.76 684.81,612.76 684.81,575.08 655.70,575.08" fill="#f9ffa8" />
  <polygon points="560.74,653.72 589.86,653.72 589.86,616.04 560.74,616.04" fill="#f9ffa8" />
  <polygon points="592.39,653.72 621.51,653.72 621.51,616.04 592.39,616.04" fill="#f9ffa8" />
  <polygon points="624.04,653.72 653.16,653.72 653.16,616.04 624.04,616.04" fill="#f9ffa8" />
</svg>
