<svg xmlns="http://www.w3.org/2000/svg" viewBox="0 0 1024 1024">
  <polygon points="88.06,1003.52 935.94,1003.52 917.50,570.98 816.13,394.04 705.54,59.80 512.00,20.48 318.46,59.80 207.87,394.04 106.50,570.98" fill="#faffa8" />
  <polygon points="144.59,942.08 879.41,942.08 863.44,570.98 775.58,394.04 679.73,116.33 512.00,81.92 344.27,116.33 248.42,394.04 160.56,570.98" fill="#65f2ff" />
  <polygon points="163.84,901.12 860.16,901.12 860.16,696.32 163.84,696.32" fill="#ff710f" />
  <polygon points="471.70,768.99 486.77,768.99 486.77,758.23 471.70,758.23" fill="#faffa8" />
  <polygon points="488.08,768.99 503.15,768.99 503.15,758.23 488.08,758.23" fill="#faffa8" />
  <polygon points="504.46,768.99 519.54,768.99 519.54,758.23 504.46,758.23" fill="#faffa8" />
  <polygon points="520.85,768.99 535.92,768.99 535.92,758.23 520.85,758.23" fill="#faffa8" />
  <polygon points="537.23,768.99 552.30,768.99 552.30,758.23 537.23,758.23" fill="#faffa8" />
  <polygon points="504.46,780.70 519.54,780.70 519.54,769.93 504.46,769.93" fill="#faffa8" />
  <polygon points="504.46,792.40 519.54,792.40 519.54,781.63 504.46,781.63" fill="#faffa8" />
  <polygon points="504.46,804.10 519.54,804.10 519.54,793.34 504.46,793.34" fill="#faffa8" />
  <polygon points="504.46,815.81 519.54,815.81 519.54,805.04 504.46,805.04" fill="#faffa8" />
  <polygon points="504.46,827.51 519.54,827.51 519.54,816.74 504.46,816.74" fill="#faffa8" />
  <polygon points="471.70,839.21 486.77,839.21 486.77,828.45 471.70,828.45" fill="#faffa8" />
  <polygon points="488.08,839.21 503.15,839.21 503.15,828.45 488.08,828.45" fill="#faffa8" />
  <polygon points="504.46,839.21 519.54,839.21 519.54,828.45 504.46,828.45" fill="#faffa8" />
  <polygon points="520.85,839.21 535.92,839.21 535.92,828.45 520.85,828.45" fill="#faffa8" />
  <polygon points="537.23,839.21 552.30,839.21 552.30,828.45 537.23,828.45" fill="#faffa8" />
  <polygon points="370.84,327.86 399.96,327.86 399.96,298.25 370.84,298.25" fill="#faffa8" />
  <polygon points="402.49,327.86 431.61,327.86 431.61,298.25 402.49,298.25" fill="#faffa8" />
  <polygon points="434.14,327.86 463.26,327.86 463.26,298.25 434.14,298.25" fill="#faffa8" />
  <polygon points="339.19,360.04 368.30,360.04 368.30,330.43 339.19,330.43" fill="#faffa8" />
  <polygon points="465.79,360.04 494.91,360.04 494.91,330.43 465.79,330.43" fill="#faffa8" />
  <polygon points="339.19,392.22 368.30,392.22 368.30,362.61 339.19,362.61" fill="#faffa8" />
  <polygon points="465.79,392.22 494.91,392.22 494.91,362.61 465.79,362.61" fill="#faffa8" />
  <polygon points="370.84,424.40 399.96,424.40 399.96,394.80 370.84,394.80" fill="#faffa8" />
  <polygon points="402.49,424.40 431.61,424.40 431.61,394.80 402.49,394.80" fill="#faffa8" />
  <polygon points="434.14,424.40 463.26,424.40 463.26,394.80 434.14,394.80" fill="#faffa8" />
  <polygon points="339.19,456.59 368.30,456.59 368.30,426.98 339.19,426.98" fill="#faffa8" />
  <polygon points="465.79,456.59 494.91,456.59 494.91,426.98 465.79,426.98" fill="#faffa8" />
  <polygon points="339.19,488.77 368.30,488.77 368.30,459.16 339.19,459.16" fill="#faffa8" />
  <polygon points="465.79,488.77 494.91,488.77 494.91,459.16 465.79,459.16" fill="#faffa8" />
  <polygon points="370.84,520.95 399.96,520.95 399.96,491.34 370.84,491.34" fill="#faffa8" />
  <polygon points="402.49,520.95 431.61,520.95 431.61,491.34 402.49,491.34" fill="#faffa8" />
  <polygon points="434.14,520.95 463.26,520.95 463.26,491.34 434.14,491.34" fill="#faffa8" />
  <polygon points="560.74,327.86 589.86,327.86 589.86,298.25 560.74,298.25" fill="#faffa8" />
  <polygon points="592.39,327.86 621.51,327.86 621.51,298.25 592.39,298.25" fill="#faffa8" />
  <polygon points="624.04,327.86 653.16,327.86 653.16,298.25 624.04,298.25" fill="#faffa8" />
  <polygon points="529.09,360.04 558.21,360.04 558.21,330.43 529.09,330.43" fill="#faffa8" />
  <polygon points="655.70,360.04 684.81,360.04 684.81,330.43 655.70,330.43" fill="#faffa8" />
  <polygon points="529.09,392.22 558.21,392.22 558.21,362.61 529.09,362.61" fill="#faffa8" />
  <polygon points="624.04,392.22 653.16,392.22 653.16,362.61 624.04,362.61" fill="#faffa8" />
  <polygon points="655.70,392.22 684.81,392.22 684.81,362.61 655.70,362.61" fill="#faffa8" />
  <polygon points="529.09,424.40 558.21,424.40 558.21,394.80 529.09,394.80" fill="#faffa8" />
  <polygon points="592.39,424.40 621.51,424.40 621.51,394.80 592.39,394.80" fill="#faffa8" />
  <polygon points="655.70,424.40 684.81,424.40 684.81,394.80 655.70,394.80" fill="#faffa8" />
  <polygon points="529.09,456.59 558.21,456.59 558.21,426.98 529.09,426.98" fill="#faffa8" />
  <polygon points="560.74,456.59 589.86,456.59 589.86,426.98 560.74,426.98" fill="#faffa8" />
  <polygon points="655.70,456.59 684.81,456.59 684.81,426.98 655.70,426.98" fill="#faffa8" />
  <polygon points="529.09,488.77 558.21,488.77 558.21,459.16 529.09,459.16" fill="#faffa8" />
  <polygon points="655.70,488.77 684.81,488.77 684.81,459.16 655.70,459.16" fill="#faffa8" />
  <polygon points="560.74,520.95 589.86,520.95 589.86,491.34 560.74,491.34" fill="#faffa8" />
  <polygon points="592.39,520.95 621.51,520.95 621.51,491.34 592.39,491.34" fill="#faffa8" />
  <polygon points="624.04,520.95 653.16,520.95 653.16,491.34 624.04,491.34" fill="#faffa8" />
</svg>
