<svg xmlns="http://www.w3.org/2000/svg" viewBox="0 0 1024 1024">
  <polygon points="25.60,706.56 998.40,706.56 998.40,317.44 25.60,317.44" fill="#65f2ff" />
  <polygon points="697.30,445.12 719.91,445.12 719.91,420.89 697.30,420.89" fill="#faffa8" />
  <polygon points="721.88,445.12 744.49,445.12 744.49,420.89 721.88,420.89" fill="#faffa8" />
  <polygon points="746.46,445.12 769.06,445.12 769.06,420.89 746.46,420.89" fill="#faffa8" />
  <polygon points="771.03,445.12 793.64,445.12 793.64,420.89 771.03,420.89" fill="#faffa8" />
  <polygon points="697.30,471.45 719.91,471.45 719.91,447.22 697.30,447.22" fill="#faffa8" />
  <polygon points="795.61,471.45 818.22,471.45 818.22,447.22 795.61,447.22" fill="#faffa8" />
  <polygon points="697.30,497.78 719.91,497.78 719.91,473.56 697.30,473.56" fill="#faffa8" />
  <polygon points="795.61,497.78 818.22,497.78 818.22,473.56 795.61,473.56" fill="#faffa8" />
  <polygon points="697.30,524.11 719.91,524.11 719.91,499.89 697.30,499.89" fill="#faffa8" />
  <polygon points="721.88,524.11 744.49,524.11 744.49,499.89 721.88,499.89" fill="#faffa8" />
  <polygon points="746.46,524.11 769.06,524.11 769.06,499.89 746.46,499.89" fill="#faffa8" />
  <polygon points="771.03,524.11 793.64,524.11 793.64,499.89 771.03,499.89" fill="#faffa8" />
  <polygon points="697.30,550.44 719.91,550.44 719.91,526.22 697.30,526.22" fill="#faffa8" />
  <polygon points="697.30,576.78 719.91,576.78 719.91,552.55 697.30,552.55" fill="#faffa8" />
  <polygon points="697.30,603.11 719.91,603.11 719.91,578.88 697.30,578.88" fill="#faffa8" />
  <polygon points="491.52,552.96 266.24,552.96 266.24,471.04 491.52,471.04" fill="#faffa8" />
  <polygon points="122.88,512.00 266.24,614.40 266.24,409.60" fill="#faffa8" />
</svg>
