<svg xmlns="http://www.w3.org/2000/svg" viewBox="0 0 1024 1024">
  <polygon points="25.60,706.56 998.40,706.56 998.40,317.44 25.60,317.44" fill="#65f2ff" />
  <polygon points="33.79,604.16 457.73,604.16 457.73,419.84 33.79,419.84" fill="#faffa8" />
  <polygon points="38.40,659.46 121.34,659.46 121.34,604.16 38.40,604.16" fill="#faffa8" />
  <polygon points="370.18,659.46 453.12,659.46 453.12,604.16 370.18,604.16" fill="#faffa8" />
  <polygon points="172.03,622.59 166.56,598.60 151.21,579.36 129.04,568.68 104.43,568.68 82.26,579.36 66.92,598.60 61.44,622.59 66.92,646.58 82.26,665.82 104.43,676.50 129.04,676.50 151.21,665.82 166.56,646.58" fill="#faffa8" />
  <polygon points="430.08,622.59 424.60,598.60 409.26,579.36 387.09,568.68 362.48,568.68 340.31,579.36 324.96,598.60 319.49,622.59 324.96,646.58 340.31,665.82 362.48,676.50 387.09,676.50 409.26,665.82 424.60,646.58" fill="#faffa8" />
  <polygon points="326.27,482.27 334.08,482.27 334.08,471.51 326.27,471.51" fill="#faffa8" />
  <polygon points="334.76,482.27 342.58,482.27 342.58,471.51 334.76,471.51" fill="#faffa8" />
  <polygon points="343.25,482.27 351.07,482.27 351.07,471.51 343.25,471.51" fill="#faffa8" />
  <polygon points="351.75,482.27 359.56,482.27 359.56,471.51 351.75,471.51" fill="#faffa8" />
  <polygon points="317.78,493.98 325.59,493.98 325.59,483.21 317.78,483.21" fill="#faffa8" />
  <polygon points="317.78,505.68 325.59,505.68 325.59,494.91 317.78,494.91" fill="#faffa8" />
  <polygon points="326.27,517.38 334.08,517.38 334.08,506.62 326.27,506.62" fill="#faffa8" />
  <polygon points="334.76,517.38 342.58,517.38 342.58,506.62 334.76,506.62" fill="#faffa8" />
  <polygon points="343.25,517.38 351.07,517.38 351.07,506.62 343.25,506.62" fill="#faffa8" />
  <polygon points="351.75,529.09 359.56,529.09 359.56,518.32 351.75,518.32" fill="#faffa8" />
  <polygon points="351.75,540.79 359.56,540.79 359.56,530.02 351.75,530.02" fill="#faffa8" />
  <polygon points="317.78,552.49 325.59,552.49 325.59,541.73 317.78,541.73" fill="#faffa8" />
  <polygon points="326.27,552.49 334.08,552.49 334.08,541.73 326.27,541.73" fill="#faffa8" />
  <polygon points="334.76,552.49 342.58,552.49 342.58,541.73 334.76,541.73" fill="#faffa8" />
  <polygon points="343.25,552.49 351.07,552.49 351.07,541.73 343.25,541.73" fill="#faffa8" />
  <polygon points="368.73,482.27 376.54,482.27 376.54,471.51 368.73,471.51" fill="#faffa8" />
  <polygon points="377.22,482.27 385.03,482.27 385.03,471.51 377.22,471.51" fill="#faffa8" />
  <polygon points="385.71,482.27 393.53,482.27 393.53,471.51 385.71,471.51" fill="#faffa8" />
  <polygon points="394.21,482.27 402.02,482.27 402.02,471.51 394.21,471.51" fill="#faffa8" />
  <polygon points="402.70,482.27 410.51,482.27 410.51,471.51 402.70,471.51" fill="#faffa8" />
  <polygon points="385.71,493.98 393.53,493.98 393.53,483.21 385.71,483.21" fill="#faffa8" />
  <polygon points="385.71,505.68 393.53,505.68 393.53,494.91 385.71,494.91" fill="#faffa8" />
  <polygon points="385.71,517.38 393.53,517.38 393.53,506.62 385.71,506.62" fill="#faffa8" />
  <polygon points="385.71,529.09 393.53,529.09 393.53,518.32 385.71,518.32" fill="#faffa8" />
  <polygon points="385.71,540.79 393.53,540.79 393.53,530.02 385.71,530.02" fill="#faffa8" />
  <polygon points="385.71,552.49 393.53,552.49 393.53,541.73 385.71,541.73" fill="#faffa8" />
  <polygon points="436.66,482.27 444.48,482.27 444.48,471.51 436.66,471.51" fill="#faffa8" />
  <polygon points="428.17,493.98 435.98,493.98 435.98,483.21 428.17,483.21" fill="#faffa8" />
  <polygon points="445.16,493.98 452.97,493.98 452.97,483.21 445.16,483.21" fill="#faffa8" />
  <polygon points="419.68,505.68 427.49,505.68 427.49,494.91 419.68,494.91" fill="#faffa8" />
  <polygon points="453.65,505.68 461.46,505.68 461.46,494.91 453.65,494.91" fill="#faffa8" />
  <polygon points="419.68,517.38 427.49,517.38 427.49,506.62 419.68,506.62" fill="#faffa8" />
  <polygon points="453.65,517.38 461.46,517.38 461.46,506.62 453.65,506.62" fill="#faffa8" />
  <polygon points="419.68,529.09 427.49,529.09 427.49,518.32 419.68,518.32" fill="#faffa8" />
  <polygon points="428.17,529.09 435.98,529.09 435.98,518.32 428.17,518.32" fill="#faffa8" />
  <polygon points="436.66,529.09 444.48,529.09 444.48,518.32 436.66,518.32" fill="#faffa8" />
  <polygon points="445.16,529.09 452.97,529.09 452.97,518.32 445.16,518.32" fill="#faffa8" />
  <polygon points="453.65,529.09 461.46,529.09 461.46,518.32 453.65,518.32" fill="#faffa8" />
  <polygon points="419.68,540.79 427.49,540.79 427.49,530.02 419.68,530.02" fill="#faffa8" />
  <polygon points="453.65,540.79 461.46,540.79 461.46,530.02 453.65,530.02" fill="#faffa8" />
  <polygon points="419.68,552.49 427.49,552.49 427.49,541.73 419.68,541.73" fill="#faffa8" />
  <polygon points="453.65,552.49 461.46,552.49 461.46,541.73 453.65,541.73" fill="#faffa8" />
  <polygon points="470.63,482.27 478.44,482.27 478.44,471.51 470.63,471.51" fill="#faffa8" />
  <polygon points="479.12,482.27 486.93,482.27 486.93,471.51 479.12,471.51" fill="#faffa8" />
  <polygon points="487.61,482.27 495.43,482.27 495.43,471.51 487.61,471.51" fill="#faffa8" />
  <polygon points="496.11,482.27 503.92,482.27 503.92,471.51 496.11,471.51" fill="#faffa8" />
  <polygon points="504.60,482.27 512.41,482.27 512.41,471.51 504.60,471.51" fill="#faffa8" />
  <polygon points="487.61,493.98 495.43,493.98 495.43,483.21 487.61,483.21" fill="#faffa8" />
  <polygon points="487.61,505.68 495.43,505.68 495.43,494.91 487.61,494.91" fill="#faffa8" />
  <polygon points="487.61,517.38 495.43,517.38 495.43,506.62 487.61,506.62" fill="#faffa8" />
  <polygon points="487.61,529.09 495.43,529.09 495.43,518.32 487.61,518.32" fill="#faffa8" />
  <polygon points="487.61,540.79 495.43,540.79 495.43,530.02 487.61,530.02" fill="#faffa8" />
  <polygon points="487.61,552.49 495.43,552.49 495.43,541.73 487.61,541.73" fill="#faffa8" />
  <polygon points="521.58,482.27 529.39,482.27 529.39,471.51 521.58,471.51" fill="#faffa8" />
  <polygon points="530.07,482.27 537.88,482.27 537.88,471.51 530.07,471.51" fill="#faffa8" />
  <polygon points="538.56,482.27 546.38,482.27 546.38,471.51 538.56,471.51" fill="#faffa8" />
  <polygon points="547.06,482.27 554.87,482.27 554.87,471.51 547.06,471.51" fill="#faffa8" />
  <polygon points="555.55,482.27 563.36,482.27 563.36,471.51 555.55,471.51" fill="#faffa8" />
  <polygon points="538.56,493.98 546.38,493.98 546.38,483.21 538.56,483.21" fill="#faffa8" />
  <polygon points="538.56,505.68 546.38,505.68 546.38,494.91 538.56,494.91" fill="#faffa8" />
  <polygon points="538.56,517.38 546.38,517.38 546.38,506.62 538.56,506.62" fill="#faffa8" />
  <polygon points="538.56,529.09 546.38,529.09 546.38,518.32 538.56,518.32" fill="#faffa8" />
  <polygon points="538.56,540.79 546.38,540.79 546.38,530.02 538.56,530.02" fill="#faffa8" />
  <polygon points="521.58,552.49 529.39,552.49 529.39,541.73 521.58,541.73" fill="#faffa8" />
  <polygon points="530.07,552.49 537.88,552.49 537.88,541.73 530.07,541.73" fill="#faffa8" />
  <polygon points="538.56,552.49 546.38,552.49 546.38,541.73 538.56,541.73" fill="#faffa8" />
  <polygon points="547.06,552.49 554.87,552.49 554.87,541.73 547.06,541.73" fill="#faffa8" />
  <polygon points="555.55,552.49 563.36,552.49 563.36,541.73 555.55,541.73" fill="#faffa8" />
  <polygon points="581.02,482.27 588.83,482.27 588.83,471.51 581.02,471.51" fill="#faffa8" />
  <polygon points="589.51,482.27 597.33,482.27 597.33,471.51 589.51,471.51" fill="#faffa8" />
  <polygon points="598.01,482.27 605.82,482.27 605.82,471.51 598.01,471.51" fill="#faffa8" />
  <polygon points="572.53,493.98 580.34,493.98 580.34,483.21 572.53,483.21" fill="#faffa8" />
  <polygon points="606.50,493.98 614.31,493.98 614.31,483.21 606.50,483.21" fill="#faffa8" />
  <polygon points="572.53,505.68 580.34,505.68 580.34,494.91 572.53,494.91" fill="#faffa8" />
  <polygon points="606.50,505.68 614.31,505.68 614.31,494.91 606.50,494.91" fill="#faffa8" />
  <polygon points="572.53,517.38 580.34,517.38 580.34,506.62 572.53,506.62" fill="#faffa8" />
  <polygon points="606.50,517.38 614.31,517.38 614.31,506.62 606.50,506.62" fill="#faffa8" />
  <polygon points="572.53,529.09 580.34,529.09 580.34,518.32 572.53,518.32" fill="#faffa8" />
  <polygon points="606.50,529.09 614.31,529.09 614.31,518.32 606.50,518.32" fill="#faffa8" />
  <polygon points="572.53,540.79 580.34,540.79 580.34,530.02 572.53,530.02" fill="#faffa8" />
  <polygon points="606.50,540.79 614.31,540.79 614.31,530.02 606.50,530.02" fill="#faffa8" />
  <polygon points="581.02,552.49 588.83,552.49 588.83,541.73 581.02,541.73" fill="#faffa8" />
  <polygon points="589.51,552.49 597.33,552.49 597.33,541.73 589.51,541.73" fill="#faffa8" />
  <polygon points="598.01,552.49 605.82,552.49 605.82,541.73 598.01,541.73" fill="#faffa8" />
  <polygon points="623.48,482.27 631.29,482.27 631.29,471.51 623.48,471.51" fill="#faffa8" />
  <polygon points="657.45,482.27 665.26,482.27 665.26,471.51 657.45,471.51" fill="#faffa8" />
  <polygon points="623.48,493.98 631.29,493.98 631.29,483.21 623.48,483.21" fill="#faffa8" />
  <polygon points="631.97,493.98 639.79,493.98 639.79,483.21 631.97,483.21" fill="#faffa8" />
  <polygon points="657.45,493.98 665.26,493.98 665.26,483.21 657.45,483.21" fill="#faffa8" />
  <polygon points="623.48,505.68 631.29,505.68 631.29,494.91 623.48,494.91" fill="#faffa8" />
  <polygon points="640.46,505.68 648.28,505.68 648.28,494.91 640.46,494.91" fill="#faffa8" />
  <polygon points="657.45,505.68 665.26,505.68 665.26,494.91 657.45,494.91" fill="#faffa8" />
  <polygon points="623.48,517.38 631.29,517.38 631.29,506.62 623.48,506.62" fill="#faffa8" />
  <polygon points="648.96,517.38 656.77,517.38 656.77,506.62 648.96,506.62" fill="#faffa8" />
  <polygon points="657.45,517.38 665.26,517.38 665.26,506.62 657.45,506.62" fill="#faffa8" />
  <polygon points="623.48,529.09 631.29,529.09 631.29,518.32 623.48,518.32" fill="#faffa8" />
  <polygon points="657.45,529.09 665.26,529.09 665.26,518.32 657.45,518.32" fill="#faffa8" />
  <polygon points="623.48,540.79 631.29,540.79 631.29,530.02 623.48,530.02" fill="#faffa8" />
  <polygon points="657.45,540.79 665.26,540.79 665.26,530.02 657.45,530.02" fill="#faffa8" />
  <polygon points="623.48,552.49 631.29,552.49 631.29,541.73 623.48,541.73" fill="#faffa8" />
  <polygon points="657.45,552.49 665.26,552.49 665.26,541.73 657.45,541.73" fill="#faffa8" />
  <polygon points="696.32,471.04 778.24,471.04 778.24,552.96 696.32,552.96" fill="#faffa8" />
  <polygon points="921.60,512.00 778.24,409.60 778.24,614.40" fill="#faffa8" />
</svg>
