<svg xmlns="http://www.w3.org/2000/svg" viewBox="0 0 1024 1024">
  <polygon points="25.60,890.88 998.40,890.88 998.40,133.12 25.60,133.12" fill="#faffa8" />
  <polygon points="56.32,849.92 967.68,849.92 967.68,174.08 56.32,174.08" fill="#bdff58" />
  <polygon points="102.40,496.64 921.60,496.64 921.60,527.36 102.40,527.36" fill="#faffa8" />
  <polygon points="440.80,662.88 451.85,662.88 451.85,650.77 440.80,650.77" fill="#faffa8" />
  <polygon points="488.82,662.88 499.87,662.88 499.87,650.77 488.82,650.77" fill="#faffa8" />
  <polygon points="440.80,676.04 451.85,676.04 451.85,663.93 440.80,663.93" fill="#faffa8" />
  <polygon points="488.82,676.04 499.87,676.04 499.87,663.93 488.82,663.93" fill="#faffa8" />
  <polygon points="440.80,689.21 451.85,689.21 451.85,677.10 440.80,677.10" fill="#faffa8" />
  <polygon points="488.82,689.21 499.87,689.21 499.87,677.10 488.82,677.10" fill="#faffa8" />
  <polygon points="440.80,702.38 451.85,702.38 451.85,690.26 440.80,690.26" fill="#faffa8" />
  <polygon points="452.81,702.38 463.85,702.38 463.85,690.26 452.81,690.26" fill="#faffa8" />
  <polygon points="464.81,702.38 475.86,702.38 475.86,690.26 464.81,690.26" fill="#faffa8" />
  <polygon points="476.82,702.38 487.86,702.38 487.86,690.26 476.82,690.26" fill="#faffa8" />
  <polygon points="488.82,702.38 499.87,702.38 499.87,690.26 488.82,690.26" fill="#faffa8" />
  <polygon points="440.80,715.54 451.85,715.54 451.85,703.43 440.80,703.43" fill="#faffa8" />
  <polygon points="488.82,715.54 499.87,715.54 499.87,703.43 488.82,703.43" fill="#faffa8" />
  <polygon points="440.80,728.71 451.85,728.71 451.85,716.60 440.80,716.60" fill="#faffa8" />
  <polygon points="488.82,728.71 499.87,728.71 499.87,716.60 488.82,716.60" fill="#faffa8" />
  <polygon points="440.80,741.87 451.85,741.87 451.85,729.76 440.80,729.76" fill="#faffa8" />
  <polygon points="488.82,741.87 499.87,741.87 499.87,729.76 488.82,729.76" fill="#faffa8" />
  <polygon points="524.84,662.88 535.88,662.88 535.88,650.77 524.84,650.77" fill="#faffa8" />
  <polygon points="536.84,662.88 547.89,662.88 547.89,650.77 536.84,650.77" fill="#faffa8" />
  <polygon points="548.85,662.88 559.89,662.88 559.89,650.77 548.85,650.77" fill="#faffa8" />
  <polygon points="512.83,676.04 523.88,676.04 523.88,663.93 512.83,663.93" fill="#faffa8" />
  <polygon points="560.86,676.04 571.90,676.04 571.90,663.93 560.86,663.93" fill="#faffa8" />
  <polygon points="512.83,689.21 523.88,689.21 523.88,677.10 512.83,677.10" fill="#faffa8" />
  <polygon points="560.86,689.21 571.90,689.21 571.90,677.10 560.86,677.10" fill="#faffa8" />
  <polygon points="512.83,702.38 523.88,702.38 523.88,690.26 512.83,690.26" fill="#faffa8" />
  <polygon points="560.86,702.38 571.90,702.38 571.90,690.26 560.86,690.26" fill="#faffa8" />
  <polygon points="512.83,715.54 523.88,715.54 523.88,703.43 512.83,703.43" fill="#faffa8" />
  <polygon points="560.86,715.54 571.90,715.54 571.90,703.43 560.86,703.43" fill="#faffa8" />
  <polygon points="512.83,728.71 523.88,728.71 523.88,716.60 512.83,716.60" fill="#faffa8" />
  <polygon points="560.86,728.71 571.90,728.71 571.90,716.60 560.86,716.60" fill="#faffa8" />
  <polygon points="524.84,741.87 535.88,741.87 535.88,729.76 524.84,729.76" fill="#faffa8" />
  <polygon points="536.84,741.87 547.89,741.87 547.89,729.76 536.84,729.76" fill="#faffa8" />
  <polygon points="548.85,741.87 559.89,741.87 559.89,729.76 548.85,729.76" fill="#faffa8" />
  <polygon points="584.87,662.88 595.91,662.88 595.91,650.77 584.87,650.77" fill="#faffa8" />
  <polygon points="596.87,662.88 607.92,662.88 607.92,650.77 596.87,650.77" fill="#faffa8" />
  <polygon points="608.88,662.88 619.92,662.88 619.92,650.77 608.88,650.77" fill="#faffa8" />
  <polygon points="620.88,662.88 631.93,662.88 631.93,650.77 620.88,650.77" fill="#faffa8" />
  <polygon points="632.89,662.88 643.93,662.88 643.93,650.77 632.89,650.77" fill="#faffa8" />
  <polygon points="608.88,676.04 619.92,676.04 619.92,663.93 608.88,663.93" fill="#faffa8" />
  <polygon points="608.88,689.21 619.92,689.21 619.92,677.10 608.88,677.10" fill="#faffa8" />
  <polygon points="608.88,702.38 619.92,702.38 619.92,690.26 608.88,690.26" fill="#faffa8" />
  <polygon points="608.88,715.54 619.92,715.54 619.92,703.43 608.88,703.43" fill="#faffa8" />
  <polygon points="608.88,728.71 619.92,728.71 619.92,716.60 608.88,716.60" fill="#faffa8" />
  <polygon points="608.88,741.87 619.92,741.87 619.92,729.76 608.88,729.76" fill="#faffa8" />
  <polygon points="656.90,662.88 667.94,662.88 667.94,650.77 656.90,650.77" fill="#faffa8" />
  <polygon points="668.91,662.88 679.95,662.88 679.95,650.77 668.91,650.77" fill="#faffa8" />
  <polygon points="680.91,662.88 691.96,662.88 691.96,650.77 680.91,650.77" fill="#faffa8" />
  <polygon points="692.92,662.88 703.96,662.88 703.96,650.77 692.92,650.77" fill="#faffa8" />
  <polygon points="704.92,662.88 715.97,662.88 715.97,650.77 704.92,650.77" fill="#faffa8" />
  <polygon points="656.90,676.04 667.94,676.04 667.94,663.93 656.90,663.93" fill="#faffa8" />
  <polygon points="656.90,689.21 667.94,689.21 667.94,677.10 656.90,677.10" fill="#faffa8" />
  <polygon points="656.90,702.38 667.94,702.38 667.94,690.26 656.90,690.26" fill="#faffa8" />
  <polygon points="668.91,702.38 679.95,702.38 679.95,690.26 668.91,690.26" fill="#faffa8" />
  <polygon points="680.91,702.38 691.96,702.38 691.96,690.26 680.91,690.26" fill="#faffa8" />
  <polygon points="692.92,702.38 703.96,702.38 703.96,690.26 692.92,690.26" fill="#faffa8" />
  <polygon points="656.90,715.54 667.94,715.54 667.94,703.43 656.90,703.43" fill="#faffa8" />
  <polygon points="656.90,728.71 667.94,728.71 667.94,716.60 656.90,716.60" fill="#faffa8" />
  <polygon points="656.90,741.87 667.94,741.87 667.94,729.76 656.90,729.76" fill="#faffa8" />
  <polygon points="668.91,741.87 679.95,741.87 679.95,729.76 668.91,729.76" fill="#faffa8" />
  <polygon points="680.91,741.87 691.96,741.87 691.96,729.76 680.91,729.76" fill="#faffa8" />
  <polygon points="692.92,741.87 703.96,741.87 703.96,729.76 692.92,729.76" fill="#faffa8" />
  <polygon points="704.92,741.87 715.97,741.87 715.97,729.76 704.92,729.76" fill="#faffa8" />
  <polygon points="728.93,662.88 739.98,662.88 739.98,650.77 728.93,650.77" fill="#faffa8" />
  <polygon points="728.93,676.04 739.98,676.04 739.98,663.93 728.93,663.93" fill="#faffa8" />
  <polygon points="728.93,689.21 739.98,689.21 739.98,677.10 728.93,677.10" fill="#faffa8" />
  <polygon points="728.93,702.38 739.98,702.38 739.98,690.26 728.93,690.26" fill="#faffa8" />
  <polygon points="728.93,715.54 739.98,715.54 739.98,703.43 728.93,703.43" fill="#faffa8" />
  <polygon points="728.93,728.71 739.98,728.71 739.98,716.60 728.93,716.60" fill="#faffa8" />
  <polygon points="728.93,741.87 739.98,741.87 739.98,729.76 728.93,729.76" fill="#faffa8" />
  <polygon points="740.94,741.87 751.98,741.87 751.98,729.76 740.94,729.76" fill="#faffa8" />
  <polygon points="752.94,741.87 763.99,741.87 763.99,729.76 752.94,729.76" fill="#faffa8" />
  <polygon points="764.95,741.87 775.99,741.87 775.99,729.76 764.95,729.76" fill="#faffa8" />
  <polygon points="776.95,741.87 788.00,741.87 788.00,729.76 776.95,729.76" fill="#faffa8" />
  <polygon points="361.55,294.24 373.39,294.24 373.39,282.13 361.55,282.13" fill="#faffa8" />
  <polygon points="374.42,294.24 386.26,294.24 386.26,282.13 374.42,282.13" fill="#faffa8" />
  <polygon points="387.29,294.24 399.14,294.24 399.14,282.13 387.29,282.13" fill="#faffa8" />
  <polygon points="348.67,307.40 360.52,307.40 360.52,295.29 348.67,295.29" fill="#faffa8" />
  <polygon points="400.17,307.40 412.01,307.40 412.01,295.29 400.17,295.29" fill="#faffa8" />
  <polygon points="348.67,320.57 360.52,320.57 360.52,308.46 348.67,308.46" fill="#faffa8" />
  <polygon points="348.67,333.74 360.52,333.74 360.52,321.62 348.67,321.62" fill="#faffa8" />
  <polygon points="348.67,346.90 360.52,346.90 360.52,334.79 348.67,334.79" fill="#faffa8" />
  <polygon points="348.67,360.07 360.52,360.07 360.52,347.96 348.67,347.96" fill="#faffa8" />
  <polygon points="400.17,360.07 412.01,360.07 412.01,347.96 400.17,347.96" fill="#faffa8" />
  <polygon points="361.55,373.23 373.39,373.23 373.39,361.12 361.55,361.12" fill="#faffa8" />
  <polygon points="374.42,373.23 386.26,373.23 386.26,361.12 374.42,361.12" fill="#faffa8" />
  <polygon points="387.29,373.23 399.14,373.23 399.14,361.12 387.29,361.12" fill="#faffa8" />
  <polygon points="425.91,294.24 437.76,294.24 437.76,282.13 425.91,282.13" fill="#faffa8" />
  <polygon points="438.79,294.24 450.63,294.24 450.63,282.13 438.79,282.13" fill="#faffa8" />
  <polygon points="451.66,294.24 463.50,294.24 463.50,282.13 451.66,282.13" fill="#faffa8" />
  <polygon points="464.53,294.24 476.38,294.24 476.38,282.13 464.53,282.13" fill="#faffa8" />
  <polygon points="477.41,294.24 489.25,294.24 489.25,282.13 477.41,282.13" fill="#faffa8" />
  <polygon points="425.91,307.40 437.76,307.40 437.76,295.29 425.91,295.29" fill="#faffa8" />
  <polygon points="425.91,320.57 437.76,320.57 437.76,308.46 425.91,308.46" fill="#faffa8" />
  <polygon points="425.91,333.74 437.76,333.74 437.76,321.62 425.91,321.62" fill="#faffa8" />
  <polygon points="438.79,333.74 450.63,333.74 450.63,321.62 438.79,321.62" fill="#faffa8" />
  <polygon points="451.66,333.74 463.50,333.74 463.50,321.62 451.66,321.62" fill="#faffa8" />
  <polygon points="464.53,333.74 476.38,333.74 476.38,321.62 464.53,321.62" fill="#faffa8" />
  <polygon points="425.91,346.90 437.76,346.90 437.76,334.79 425.91,334.79" fill="#faffa8" />
  <polygon points="425.91,360.07 437.76,360.07 437.76,347.96 425.91,347.96" fill="#faffa8" />
  <polygon points="425.91,373.23 437.76,373.23 437.76,361.12 425.91,361.12" fill="#faffa8" />
  <polygon points="438.79,373.23 450.63,373.23 450.63,361.12 438.79,361.12" fill="#faffa8" />
  <polygon points="451.66,373.23 463.50,373.23 463.50,361.12 451.66,361.12" fill="#faffa8" />
  <polygon points="464.53,373.23 476.38,373.23 476.38,361.12 464.53,361.12" fill="#faffa8" />
  <polygon points="477.41,373.23 489.25,373.23 489.25,361.12 477.41,361.12" fill="#faffa8" />
  <polygon points="503.15,294.24 515.00,294.24 515.00,282.13 503.15,282.13" fill="#faffa8" />
  <polygon points="554.65,294.24 566.49,294.24 566.49,282.13 554.65,282.13" fill="#faffa8" />
  <polygon points="503.15,307.40 515.00,307.40 515.00,295.29 503.15,295.29" fill="#faffa8" />
  <polygon points="516.03,307.40 527.87,307.40 527.87,295.29 516.03,295.29" fill="#faffa8" />
  <polygon points="554.65,307.40 566.49,307.40 566.49,295.29 554.65,295.29" fill="#faffa8" />
  <polygon points="503.15,320.57 515.00,320.57 515.00,308.46 503.15,308.46" fill="#faffa8" />
  <polygon points="528.90,320.57 540.74,320.57 540.74,308.46 528.90,308.46" fill="#faffa8" />
  <polygon points="554.65,320.57 566.49,320.57 566.49,308.46 554.65,308.46" fill="#faffa8" />
  <polygon points="503.15,333.74 515.00,333.74 515.00,321.62 503.15,321.62" fill="#faffa8" />
  <polygon points="541.77,333.74 553.62,333.74 553.62,321.62 541.77,321.62" fill="#faffa8" />
  <polygon points="554.65,333.74 566.49,333.74 566.49,321.62 554.65,321.62" fill="#faffa8" />
  <polygon points="503.15,346.90 515.00,346.90 515.00,334.79 503.15,334.79" fill="#faffa8" />
  <polygon points="554.65,346.90 566.49,346.90 566.49,334.79 554.65,334.79" fill="#faffa8" />
  <polygon points="503.15,360.07 515.00,360.07 515.00,347.96 503.15,347.96" fill="#faffa8" />
  <polygon points="554.65,360.07 566.49,360.07 566.49,347.96 554.65,347.96" fill="#faffa8" />
  <polygon points="503.15,373.23 515.00,373.23 515.00,361.12 503.15,361.12" fill="#faffa8" />
  <polygon points="554.65,373.23 566.49,373.23 566.49,361.12 554.65,361.12" fill="#faffa8" />
  <polygon points="580.39,294.24 592.23,294.24 592.23,282.13 580.39,282.13" fill="#faffa8" />
  <polygon points="593.26,294.24 605.11,294.24 605.11,282.13 593.26,282.13" fill="#faffa8" />
  <polygon points="606.14,294.24 617.98,294.24 617.98,282.13 606.14,282.13" fill="#faffa8" />
  <polygon points="619.01,294.24 630.85,294.24 630.85,282.13 619.01,282.13" fill="#faffa8" />
  <polygon points="631.88,294.24 643.73,294.24 643.73,282.13 631.88,282.13" fill="#faffa8" />
  <polygon points="606.14,307.40 617.98,307.40 617.98,295.29 606.14,295.29" fill="#faffa8" />
  <polygon points="606.14,320.57 617.98,320.57 617.98,308.46 606.14,308.46" fill="#faffa8" />
  <polygon points="606.14,333.74 617.98,333.74 617.98,321.62 606.14,321.62" fill="#faffa8" />
  <polygon points="606.14,346.90 617.98,346.90 617.98,334.79 606.14,334.79" fill="#faffa8" />
  <polygon points="606.14,360.07 617.98,360.07 617.98,347.96 606.14,347.96" fill="#faffa8" />
  <polygon points="606.14,373.23 617.98,373.23 617.98,361.12 606.14,361.12" fill="#faffa8" />
  <polygon points="657.63,294.24 669.47,294.24 669.47,282.13 657.63,282.13" fill="#faffa8" />
  <polygon points="670.50,294.24 682.35,294.24 682.35,282.13 670.50,282.13" fill="#faffa8" />
  <polygon points="683.38,294.24 695.22,294.24 695.22,282.13 683.38,282.13" fill="#faffa8" />
  <polygon points="696.25,294.24 708.09,294.24 708.09,282.13 696.25,282.13" fill="#faffa8" />
  <polygon points="657.63,307.40 669.47,307.40 669.47,295.29 657.63,295.29" fill="#faffa8" />
  <polygon points="709.12,307.40 720.97,307.40 720.97,295.29 709.12,295.29" fill="#faffa8" />
  <polygon points="657.63,320.57 669.47,320.57 669.47,308.46 657.63,308.46" fill="#faffa8" />
  <polygon points="709.12,320.57 720.97,320.57 720.97,308.46 709.12,308.46" fill="#faffa8" />
  <polygon points="657.63,333.74 669.47,333.74 669.47,321.62 657.63,321.62" fill="#faffa8" />
  <polygon points="670.50,333.74 682.35,333.74 682.35,321.62 670.50,321.62" fill="#faffa8" />
  <polygon points="683.38,333.74 695.22,333.74 695.22,321.62 683.38,321.62" fill="#faffa8" />
  <polygon points="696.25,333.74 708.09,333.74 708.09,321.62 696.25,321.62" fill="#faffa8" />
  <polygon points="657.63,346.90 669.47,346.90 669.47,334.79 657.63,334.79" fill="#faffa8" />
  <polygon points="683.38,346.90 695.22,346.90 695.22,334.79 683.38,334.79" fill="#faffa8" />
  <polygon points="657.63,360.07 669.47,360.07 669.47,347.96 657.63,347.96" fill="#faffa8" />
  <polygon points="696.25,360.07 708.09,360.07 708.09,347.96 696.25,347.96" fill="#faffa8" />
  <polygon points="657.63,373.23 669.47,373.23 669.47,361.12 657.63,361.12" fill="#faffa8" />
  <polygon points="709.12,373.23 720.97,373.23 720.97,361.12 709.12,361.12" fill="#faffa8" />
  <polygon points="747.74,294.24 759.59,294.24 759.59,282.13 747.74,282.13" fill="#faffa8" />
  <polygon points="760.62,294.24 772.46,294.24 772.46,282.13 760.62,282.13" fill="#faffa8" />
  <polygon points="773.49,294.24 785.33,294.24 785.33,282.13 773.49,282.13" fill="#faffa8" />
  <polygon points="734.87,307.40 746.71,307.40 746.71,295.29 734.87,295.29" fill="#faffa8" />
  <polygon points="786.36,307.40 798.21,307.40 798.21,295.29 786.36,295.29" fill="#faffa8" />
  <polygon points="734.87,320.57 746.71,320.57 746.71,308.46 734.87,308.46" fill="#faffa8" />
  <polygon points="786.36,320.57 798.21,320.57 798.21,308.46 786.36,308.46" fill="#faffa8" />
  <polygon points="734.87,333.74 746.71,333.74 746.71,321.62 734.87,321.62" fill="#faffa8" />
  <polygon points="786.36,333.74 798.21,333.74 798.21,321.62 786.36,321.62" fill="#faffa8" />
  <polygon points="734.87,346.90 746.71,346.90 746.71,334.79 734.87,334.79" fill="#faffa8" />
  <polygon points="786.36,346.90 798.21,346.90 798.21,334.79 786.36,334.79" fill="#faffa8" />
  <polygon points="734.87,360.07 746.71,360.07 746.71,347.96 734.87,347.96" fill="#faffa8" />
  <polygon points="786.36,360.07 798.21,360.07 798.21,347.96 786.36,347.96" fill="#faffa8" />
  <polygon points="747.74,373.23 759.59,373.23 759.59,361.12 747.74,361.12" fill="#faffa8" />
  <polygon points="760.62,373.23 772.46,373.23 772.46,361.12 760.62,361.12" fill="#faffa8" />
  <polygon points="773.49,373.23 785.33,373.23 785.33,361.12 773.49,361.12" fill="#faffa8" />
  <polygon points="368.64,358.40 215.04,358.40 215.04,296.96 368.64,296.96" fill="#faffa8" />
  <polygon points="102.40,327.68 215.04,409.60 215.04,245.76" fill="#faffa8" />
</svg>
