<svg xmlns="http://www.w3.org/2000/svg" viewBox="0 0 1024 1024">
  <polygon points="25.60,870.40 998.40,870.40 998.40,153.60 25.60,153.60" fill="#faffa8" />
  <polygon points="66.56,829.44 957.44,829.44 957.44,194.56 66.56,194.56" fill="#bdff58" />
  <polygon points="122.88,496.64 901.12,496.64 901.12,527.36 122.88,527.36" fill="#faffa8" />
  <polygon points="32.56,710.04 336.08,710.04 336.08,662.12 32.56,662.12" fill="#faffa8" />
  <polygon points="376.01,686.08 296.14,622.18 296.14,749.98" fill="#faffa8" />
  <polygon points="155.08,701.00 11.31,573.21 37.84,543.36 181.61,671.16" fill="#faffa8" />
  <polygon points="181.61,701.00 37.84,828.80 11.31,798.95 155.08,671.16" fill="#faffa8" />
  <polygon points="219.97,675.85 299.84,580.01 324.39,600.46 244.52,696.31" fill="#faffa8" />
  <polygon points="244.52,675.85 324.39,771.70 299.84,792.15 219.97,696.31" fill="#faffa8" />
  <polygon points="359.32,652.64 368.97,652.64 368.97,640.53 359.32,640.53" fill="#faffa8" />
  <polygon points="348.83,665.80 358.48,665.80 358.48,653.69 348.83,653.69" fill="#faffa8" />
  <polygon points="369.81,665.80 379.46,665.80 379.46,653.69 369.81,653.69" fill="#faffa8" />
  <polygon points="338.34,678.97 347.99,678.97 347.99,666.86 338.34,666.86" fill="#faffa8" />
  <polygon points="380.30,678.97 389.95,678.97 389.95,666.86 380.30,666.86" fill="#faffa8" />
  <polygon points="338.34,692.14 347.99,692.14 347.99,680.02 338.34,680.02" fill="#faffa8" />
  <polygon points="380.30,692.14 389.95,692.14 389.95,680.02 380.30,680.02" fill="#faffa8" />
  <polygon points="338.34,705.30 347.99,705.30 347.99,693.19 338.34,693.19" fill="#faffa8" />
  <polygon points="348.83,705.30 358.48,705.30 358.48,693.19 348.83,693.19" fill="#faffa8" />
  <polygon points="359.32,705.30 368.97,705.30 368.97,693.19 359.32,693.19" fill="#faffa8" />
  <polygon points="369.81,705.30 379.46,705.30 379.46,693.19 369.81,693.19" fill="#faffa8" />
  <polygon points="380.30,705.30 389.95,705.30 389.95,693.19 380.30,693.19" fill="#faffa8" />
  <polygon points="338.34,718.47 347.99,718.47 347.99,706.36 338.34,706.36" fill="#faffa8" />
  <polygon points="380.30,718.47 389.95,718.47 389.95,706.36 380.30,706.36" fill="#faffa8" />
  <polygon points="338.34,731.63 347.99,731.63 347.99,719.52 338.34,719.52" fill="#faffa8" />
  <polygon points="380.30,731.63 389.95,731.63 389.95,719.52 380.30,719.52" fill="#faffa8" />
  <polygon points="401.28,652.64 410.93,652.64 410.93,640.53 401.28,640.53" fill="#faffa8" />
  <polygon points="411.77,652.64 421.42,652.64 421.42,640.53 411.77,640.53" fill="#faffa8" />
  <polygon points="422.26,652.64 431.91,652.64 431.91,640.53 422.26,640.53" fill="#faffa8" />
  <polygon points="432.75,652.64 442.40,652.64 442.40,640.53 432.75,640.53" fill="#faffa8" />
  <polygon points="443.24,652.64 452.89,652.64 452.89,640.53 443.24,640.53" fill="#faffa8" />
  <polygon points="422.26,665.80 431.91,665.80 431.91,653.69 422.26,653.69" fill="#faffa8" />
  <polygon points="422.26,678.97 431.91,678.97 431.91,666.86 422.26,666.86" fill="#faffa8" />
  <polygon points="422.26,692.14 431.91,692.14 431.91,680.02 422.26,680.02" fill="#faffa8" />
  <polygon points="422.26,705.30 431.91,705.30 431.91,693.19 422.26,693.19" fill="#faffa8" />
  <polygon points="422.26,718.47 431.91,718.47 431.91,706.36 422.26,706.36" fill="#faffa8" />
  <polygon points="401.28,731.63 410.93,731.63 410.93,719.52 401.28,719.52" fill="#faffa8" />
  <polygon points="411.77,731.63 421.42,731.63 421.42,719.52 411.77,719.52" fill="#faffa8" />
  <polygon points="422.26,731.63 431.91,731.63 431.91,719.52 422.26,719.52" fill="#faffa8" />
  <polygon points="432.75,731.63 442.40,731.63 442.40,719.52 432.75,719.52" fill="#faffa8" />
  <polygon points="443.24,731.63 452.89,731.63 452.89,719.52 443.24,719.52" fill="#faffa8" />
  <polygon points="464.22,652.64 473.87,652.64 473.87,640.53 464.22,640.53" fill="#faffa8" />
  <polygon points="474.71,652.64 484.36,652.64 484.36,640.53 474.71,640.53" fill="#faffa8" />
  <polygon points="485.20,652.64 494.85,652.64 494.85,640.53 485.20,640.53" fill="#faffa8" />
  <polygon points="495.69,652.64 505.34,652.64 505.34,640.53 495.69,640.53" fill="#faffa8" />
  <polygon points="464.22,665.80 473.87,665.80 473.87,653.69 464.22,653.69" fill="#faffa8" />
  <polygon points="506.18,665.80 515.83,665.80 515.83,653.69 506.18,653.69" fill="#faffa8" />
  <polygon points="464.22,678.97 473.87,678.97 473.87,666.86 464.22,666.86" fill="#faffa8" />
  <polygon points="506.18,678.97 515.83,678.97 515.83,666.86 506.18,666.86" fill="#faffa8" />
  <polygon points="464.22,692.14 473.87,692.14 473.87,680.02 464.22,680.02" fill="#faffa8" />
  <polygon points="474.71,692.14 484.36,692.14 484.36,680.02 474.71,680.02" fill="#faffa8" />
  <polygon points="485.20,692.14 494.85,692.14 494.85,680.02 485.20,680.02" fill="#faffa8" />
  <polygon points="495.69,692.14 505.34,692.14 505.34,680.02 495.69,680.02" fill="#faffa8" />
  <polygon points="464.22,705.30 473.87,705.30 473.87,693.19 464.22,693.19" fill="#faffa8" />
  <polygon points="485.20,705.30 494.85,705.30 494.85,693.19 485.20,693.19" fill="#faffa8" />
  <polygon points="464.22,718.47 473.87,718.47 473.87,706.36 464.22,706.36" fill="#faffa8" />
  <polygon points="495.69,718.47 505.34,718.47 505.34,706.36 495.69,706.36" fill="#faffa8" />
  <polygon points="464.22,731.63 473.87,731.63 473.87,719.52 464.22,719.52" fill="#faffa8" />
  <polygon points="506.18,731.63 515.83,731.63 515.83,719.52 506.18,719.52" fill="#faffa8" />
  <polygon points="527.16,652.64 536.81,652.64 536.81,640.53 527.16,640.53" fill="#faffa8" />
  <polygon points="537.64,652.64 547.30,652.64 547.30,640.53 537.64,640.53" fill="#faffa8" />
  <polygon points="548.13,652.64 557.79,652.64 557.79,640.53 548.13,640.53" fill="#faffa8" />
  <polygon points="558.62,652.64 568.28,652.64 568.28,640.53 558.62,640.53" fill="#faffa8" />
  <polygon points="527.16,665.80 536.81,665.80 536.81,653.69 527.16,653.69" fill="#faffa8" />
  <polygon points="569.11,665.80 578.76,665.80 578.76,653.69 569.11,653.69" fill="#faffa8" />
  <polygon points="527.16,678.97 536.81,678.97 536.81,666.86 527.16,666.86" fill="#faffa8" />
  <polygon points="569.11,678.97 578.76,678.97 578.76,666.86 569.11,666.86" fill="#faffa8" />
  <polygon points="527.16,692.14 536.81,692.14 536.81,680.02 527.16,680.02" fill="#faffa8" />
  <polygon points="537.64,692.14 547.30,692.14 547.30,680.02 537.64,680.02" fill="#faffa8" />
  <polygon points="548.13,692.14 557.79,692.14 557.79,680.02 548.13,680.02" fill="#faffa8" />
  <polygon points="558.62,692.14 568.28,692.14 568.28,680.02 558.62,680.02" fill="#faffa8" />
  <polygon points="527.16,705.30 536.81,705.30 536.81,693.19 527.16,693.19" fill="#faffa8" />
  <polygon points="527.16,718.47 536.81,718.47 536.81,706.36 527.16,706.36" fill="#faffa8" />
  <polygon points="527.16,731.63 536.81,731.63 536.81,719.52 527.16,719.52" fill="#faffa8" />
  <polygon points="600.58,652.64 610.23,652.64 610.23,640.53 600.58,640.53" fill="#faffa8" />
  <polygon points="611.07,652.64 620.72,652.64 620.72,640.53 611.07,640.53" fill="#faffa8" />
  <polygon points="621.56,652.64 631.21,652.64 631.21,640.53 621.56,640.53" fill="#faffa8" />
  <polygon points="590.09,665.80 599.74,665.80 599.74,653.69 590.09,653.69" fill="#faffa8" />
  <polygon points="632.05,665.80 641.70,665.80 641.70,653.69 632.05,653.69" fill="#faffa8" />
  <polygon points="590.09,678.97 599.74,678.97 599.74,666.86 590.09,666.86" fill="#faffa8" />
  <polygon points="632.05,678.97 641.70,678.97 641.70,666.86 632.05,666.86" fill="#faffa8" />
  <polygon points="590.09,692.14 599.74,692.14 599.74,680.02 590.09,680.02" fill="#faffa8" />
  <polygon points="632.05,692.14 641.70,692.14 641.70,680.02 632.05,680.02" fill="#faffa8" />
  <polygon points="590.09,705.30 599.74,705.30 599.74,693.19 590.09,693.19" fill="#faffa8" />
  <polygon points="632.05,705.30 641.70,705.30 641.70,693.19 632.05,693.19" fill="#faffa8" />
  <polygon points="590.09,718.47 599.74,718.47 599.74,706.36 590.09,706.36" fill="#faffa8" />
  <polygon points="632.05,718.47 641.70,718.47 641.70,706.36 632.05,706.36" fill="#faffa8" />
  <polygon points="600.58,731.63 610.23,731.63 610.23,719.52 600.58,719.52" fill="#faffa8" />
  <polygon points="611.07,731.63 620.72,731.63 620.72,719.52 611.07,719.52" fill="#faffa8" />
  <polygon points="621.56,731.63 631.21,731.63 631.21,719.52 621.56,719.52" fill="#faffa8" />
  <polygon points="653.03,652.64 662.68,652.64 662.68,640.53 653.03,640.53" fill="#faffa8" />
  <polygon points="663.52,652.64 673.17,652.64 673.17,640.53 663.52,640.53" fill="#faffa8" />
  <polygon points="674.01,652.64 683.66,652.64 683.66,640.53 674.01,640.53" fill="#faffa8" />
  <polygon points="684.50,652.64 694.15,652.64 694.15,640.53 684.50,640.53" fill="#faffa8" />
  <polygon points="653.03,665.80 662.68,665.80 662.68,653.69 653.03,653.69" fill="#faffa8" />
  <polygon points="694.99,665.80 704.64,665.80 704.64,653.69 694.99,653.69" fill="#faffa8" />
  <polygon points="653.03,678.97 662.68,678.97 662.68,666.86 653.03,666.86" fill="#faffa8" />
  <polygon points="694.99,678.97 704.64,678.97 704.64,666.86 694.99,666.86" fill="#faffa8" />
  <polygon points="653.03,692.14 662.68,692.14 662.68,680.02 653.03,680.02" fill="#faffa8" />
  <polygon points="663.52,692.14 673.17,692.14 673.17,680.02 663.52,680.02" fill="#faffa8" />
  <polygon points="674.01,692.14 683.66,692.14 683.66,680.02 674.01,680.02" fill="#faffa8" />
  <polygon points="684.50,692.14 694.15,692.14 694.15,680.02 684.50,680.02" fill="#faffa8" />
  <polygon points="653.03,705.30 662.68,705.30 662.68,693.19 653.03,693.19" fill="#faffa8" />
  <polygon points="674.01,705.30 683.66,705.30 683.66,693.19 674.01,693.19" fill="#faffa8" />
  <polygon points="653.03,718.47 662.68,718.47 662.68,706.36 653.03,706.36" fill="#faffa8" />
  <polygon points="684.50,718.47 694.15,718.47 694.15,706.36 684.50,706.36" fill="#faffa8" />
  <polygon points="653.03,731.63 662.68,731.63 662.68,719.52 653.03,719.52" fill="#faffa8" />
  <polygon points="694.99,731.63 704.64,731.63 704.64,719.52 694.99,719.52" fill="#faffa8" />
  <polygon points="715.97,652.64 725.62,652.64 725.62,640.53 715.97,640.53" fill="#faffa8" />
  <polygon points="726.46,652.64 736.11,652.64 736.11,640.53 726.46,640.53" fill="#faffa8" />
  <polygon points="736.95,652.64 746.60,652.64 746.60,640.53 736.95,640.53" fill="#faffa8" />
  <polygon points="747.44,652.64 757.09,652.64 757.09,640.53 747.44,640.53" fill="#faffa8" />
  <polygon points="757.93,652.64 767.58,652.64 767.58,640.53 757.93,640.53" fill="#faffa8" />
  <polygon points="736.95,665.80 746.60,665.80 746.60,653.69 736.95,653.69" fill="#faffa8" />
  <polygon points="736.95,678.97 746.60,678.97 746.60,666.86 736.95,666.86" fill="#faffa8" />
  <polygon points="736.95,692.14 746.60,692.14 746.60,680.02 736.95,680.02" fill="#faffa8" />
  <polygon points="736.95,705.30 746.60,705.30 746.60,693.19 736.95,693.19" fill="#faffa8" />
  <polygon points="736.95,718.47 746.60,718.47 746.60,706.36 736.95,706.36" fill="#faffa8" />
  <polygon points="736.95,731.63 746.60,731.63 746.60,719.52 736.95,719.52" fill="#faffa8" />
  <polygon points="227.82,304.48 239.12,304.48 239.12,292.37 227.82,292.37" fill="#faffa8" />
  <polygon points="240.11,304.48 251.41,304.48 251.41,292.37 240.11,292.37" fill="#faffa8" />
  <polygon points="252.40,304.48 263.70,304.48 263.70,292.37 252.40,292.37" fill="#faffa8" />
  <polygon points="215.53,317.64 226.84,317.64 226.84,305.53 215.53,305.53" fill="#faffa8" />
  <polygon points="264.68,317.64 275.99,317.64 275.99,305.53 264.68,305.53" fill="#faffa8" />
  <polygon points="215.53,330.81 226.84,330.81 226.84,318.70 215.53,318.70" fill="#faffa8" />
  <polygon points="215.53,343.98 226.84,343.98 226.84,331.86 215.53,331.86" fill="#faffa8" />
  <polygon points="215.53,357.14 226.84,357.14 226.84,345.03 215.53,345.03" fill="#faffa8" />
  <polygon points="215.53,370.31 226.84,370.31 226.84,358.20 215.53,358.20" fill="#faffa8" />
  <polygon points="264.68,370.31 275.99,370.31 275.99,358.20 264.68,358.20" fill="#faffa8" />
  <polygon points="227.82,383.47 239.12,383.47 239.12,371.36 227.82,371.36" fill="#faffa8" />
  <polygon points="240.11,383.47 251.41,383.47 251.41,371.36 240.11,371.36" fill="#faffa8" />
  <polygon points="252.40,383.47 263.70,383.47 263.70,371.36 252.40,371.36" fill="#faffa8" />
  <polygon points="289.26,304.48 300.56,304.48 300.56,292.37 289.26,292.37" fill="#faffa8" />
  <polygon points="301.55,304.48 312.85,304.48 312.85,292.37 301.55,292.37" fill="#faffa8" />
  <polygon points="313.84,304.48 325.14,304.48 325.14,292.37 313.84,292.37" fill="#faffa8" />
  <polygon points="326.12,304.48 337.43,304.48 337.43,292.37 326.12,292.37" fill="#faffa8" />
  <polygon points="338.41,304.48 349.72,304.48 349.72,292.37 338.41,292.37" fill="#faffa8" />
  <polygon points="289.26,317.64 300.56,317.64 300.56,305.53 289.26,305.53" fill="#faffa8" />
  <polygon points="289.26,330.81 300.56,330.81 300.56,318.70 289.26,318.70" fill="#faffa8" />
  <polygon points="289.26,343.98 300.56,343.98 300.56,331.86 289.26,331.86" fill="#faffa8" />
  <polygon points="301.55,343.98 312.85,343.98 312.85,331.86 301.55,331.86" fill="#faffa8" />
  <polygon points="313.84,343.98 325.14,343.98 325.14,331.86 313.84,331.86" fill="#faffa8" />
  <polygon points="326.12,343.98 337.43,343.98 337.43,331.86 326.12,331.86" fill="#faffa8" />
  <polygon points="289.26,357.14 300.56,357.14 300.56,345.03 289.26,345.03" fill="#faffa8" />
  <polygon points="289.26,370.31 300.56,370.31 300.56,358.20 289.26,358.20" fill="#faffa8" />
  <polygon points="289.26,383.47 300.56,383.47 300.56,371.36 289.26,371.36" fill="#faffa8" />
  <polygon points="301.55,383.47 312.85,383.47 312.85,371.36 301.55,371.36" fill="#faffa8" />
  <polygon points="313.84,383.47 325.14,383.47 325.14,371.36 313.84,371.36" fill="#faffa8" />
  <polygon points="326.12,383.47 337.43,383.47 337.43,371.36 326.12,371.36" fill="#faffa8" />
  <polygon points="338.41,383.47 349.72,383.47 349.72,371.36 338.41,371.36" fill="#faffa8" />
  <polygon points="362.99,304.48 374.29,304.48 374.29,292.37 362.99,292.37" fill="#faffa8" />
  <polygon points="412.14,304.48 423.44,304.48 423.44,292.37 412.14,292.37" fill="#faffa8" />
  <polygon points="362.99,317.64 374.29,317.64 374.29,305.53 362.99,305.53" fill="#faffa8" />
  <polygon points="375.28,317.64 386.58,317.64 386.58,305.53 375.28,305.53" fill="#faffa8" />
  <polygon points="412.14,317.64 423.44,317.64 423.44,305.53 412.14,305.53" fill="#faffa8" />
  <polygon points="362.99,330.81 374.29,330.81 374.29,318.70 362.99,318.70" fill="#faffa8" />
  <polygon points="387.56,330.81 398.87,330.81 398.87,318.70 387.56,318.70" fill="#faffa8" />
  <polygon points="412.14,330.81 423.44,330.81 423.44,318.70 412.14,318.70" fill="#faffa8" />
  <polygon points="362.99,343.98 374.29,343.98 374.29,331.86 362.99,331.86" fill="#faffa8" />
  <polygon points="399.85,343.98 411.16,343.98 411.16,331.86 399.85,331.86" fill="#faffa8" />
  <polygon points="412.14,343.98 423.44,343.98 423.44,331.86 412.14,331.86" fill="#faffa8" />
  <polygon points="362.99,357.14 374.29,357.14 374.29,345.03 362.99,345.03" fill="#faffa8" />
  <polygon points="412.14,357.14 423.44,357.14 423.44,345.03 412.14,345.03" fill="#faffa8" />
  <polygon points="362.99,370.31 374.29,370.31 374.29,358.20 362.99,358.20" fill="#faffa8" />
  <polygon points="412.14,370.31 423.44,370.31 423.44,358.20 412.14,358.20" fill="#faffa8" />
  <polygon points="362.99,383.47 374.29,383.47 374.29,371.36 362.99,371.36" fill="#faffa8" />
  <polygon points="412.14,383.47 423.44,383.47 423.44,371.36 412.14,371.36" fill="#faffa8" />
  <polygon points="436.72,304.48 448.02,304.48 448.02,292.37 436.72,292.37" fill="#faffa8" />
  <polygon points="449.00,304.48 460.31,304.48 460.31,292.37 449.00,292.37" fill="#faffa8" />
  <polygon points="461.29,304.48 472.60,304.48 472.60,292.37 461.29,292.37" fill="#faffa8" />
  <polygon points="473.58,304.48 484.88,304.48 484.88,292.37 473.58,292.37" fill="#faffa8" />
  <polygon points="485.87,304.48 497.17,304.48 497.17,292.37 485.87,292.37" fill="#faffa8" />
  <polygon points="461.29,317.64 472.60,317.64 472.60,305.53 461.29,305.53" fill="#faffa8" />
  <polygon points="461.29,330.81 472.60,330.81 472.60,318.70 461.29,318.70" fill="#faffa8" />
  <polygon points="461.29,343.98 472.60,343.98 472.60,331.86 461.29,331.86" fill="#faffa8" />
  <polygon points="461.29,357.14 472.60,357.14 472.60,345.03 461.29,345.03" fill="#faffa8" />
  <polygon points="461.29,370.31 472.60,370.31 472.60,358.20 461.29,358.20" fill="#faffa8" />
  <polygon points="461.29,383.47 472.60,383.47 472.60,371.36 461.29,371.36" fill="#faffa8" />
  <polygon points="510.44,304.48 521.75,304.48 521.75,292.37 510.44,292.37" fill="#faffa8" />
  <polygon points="522.73,304.48 534.04,304.48 534.04,292.37 522.73,292.37" fill="#faffa8" />
  <polygon points="535.02,304.48 546.32,304.48 546.32,292.37 535.02,292.37" fill="#faffa8" />
  <polygon points="547.31,304.48 558.61,304.48 558.61,292.37 547.31,292.37" fill="#faffa8" />
  <polygon points="510.44,317.64 521.75,317.64 521.75,305.53 510.44,305.53" fill="#faffa8" />
  <polygon points="559.60,317.64 570.90,317.64 570.90,305.53 559.60,305.53" fill="#faffa8" />
  <polygon points="510.44,330.81 521.75,330.81 521.75,318.70 510.44,318.70" fill="#faffa8" />
  <polygon points="559.60,330.81 570.90,330.81 570.90,318.70 559.60,318.70" fill="#faffa8" />
  <polygon points="510.44,343.98 521.75,343.98 521.75,331.86 510.44,331.86" fill="#faffa8" />
  <polygon points="522.73,343.98 534.04,343.98 534.04,331.86 522.73,331.86" fill="#faffa8" />
  <polygon points="535.02,343.98 546.32,343.98 546.32,331.86 535.02,331.86" fill="#faffa8" />
  <polygon points="547.31,343.98 558.61,343.98 558.61,331.86 547.31,331.86" fill="#faffa8" />
  <polygon points="510.44,357.14 521.75,357.14 521.75,345.03 510.44,345.03" fill="#faffa8" />
  <polygon points="535.02,357.14 546.32,357.14 546.32,345.03 535.02,345.03" fill="#faffa8" />
  <polygon points="510.44,370.31 521.75,370.31 521.75,358.20 510.44,358.20" fill="#faffa8" />
  <polygon points="547.31,370.31 558.61,370.31 558.61,358.20 547.31,358.20" fill="#faffa8" />
  <polygon points="510.44,383.47 521.75,383.47 521.75,371.36 510.44,371.36" fill="#faffa8" />
  <polygon points="559.60,383.47 570.90,383.47 570.90,371.36 559.60,371.36" fill="#faffa8" />
  <polygon points="584.17,304.48 595.48,304.48 595.48,292.37 584.17,292.37" fill="#faffa8" />
  <polygon points="596.46,304.48 607.76,304.48 607.76,292.37 596.46,292.37" fill="#faffa8" />
  <polygon points="608.75,304.48 620.05,304.48 620.05,292.37 608.75,292.37" fill="#faffa8" />
  <polygon points="621.04,304.48 632.34,304.48 632.34,292.37 621.04,292.37" fill="#faffa8" />
  <polygon points="633.32,304.48 644.63,304.48 644.63,292.37 633.32,292.37" fill="#faffa8" />
  <polygon points="584.17,317.64 595.48,317.64 595.48,305.53 584.17,305.53" fill="#faffa8" />
  <polygon points="584.17,330.81 595.48,330.81 595.48,318.70 584.17,318.70" fill="#faffa8" />
  <polygon points="584.17,343.98 595.48,343.98 595.48,331.86 584.17,331.86" fill="#faffa8" />
  <polygon points="596.46,343.98 607.76,343.98 607.76,331.86 596.46,331.86" fill="#faffa8" />
  <polygon points="608.75,343.98 620.05,343.98 620.05,331.86 608.75,331.86" fill="#faffa8" />
  <polygon points="621.04,343.98 632.34,343.98 632.34,331.86 621.04,331.86" fill="#faffa8" />
  <polygon points="584.17,357.14 595.48,357.14 595.48,345.03 584.17,345.03" fill="#faffa8" />
  <polygon points="584.17,370.31 595.48,370.31 595.48,358.20 584.17,358.20" fill="#faffa8" />
  <polygon points="584.17,383.47 595.48,383.47 595.48,371.36 584.17,371.36" fill="#faffa8" />
  <polygon points="596.46,383.47 607.76,383.47 607.76,371.36 596.46,371.36" fill="#faffa8" />
  <polygon points="608.75,383.47 620.05,383.47 620.05,371.36 608.75,371.36" fill="#faffa8" />
  <polygon points="621.04,383.47 632.34,383.47 632.34,371.36 621.04,371.36" fill="#faffa8" />
  <polygon points="633.32,383.47 644.63,383.47 644.63,371.36 633.32,371.36" fill="#faffa8" />
  <polygon points="655.36,307.20 788.48,307.20 788.48,368.64 655.36,368.64" fill="#faffa8" />
  <polygon points="901.12,337.92 788.48,256.00 788.48,419.84" fill="#faffa8" />
</svg>
