<svg xmlns="http://www.w3.org/2000/svg" viewBox="0 0 1024 1024">
  <polygon points="20.48,798.72 1003.52,798.72 1003.52,225.28 20.48,225.28" fill="#faffa8" />
  <polygon points="51.20,768.00 972.80,768.00 972.80,256.00 51.20,256.00" fill="#bdff58" />
  <polygon points="82.90,568.00 105.51,568.00 105.51,543.77 82.90,543.77" fill="#faffa8" />
  <polygon points="107.48,568.00 130.09,568.00 130.09,543.77 107.48,543.77" fill="#faffa8" />
  <polygon points="132.06,568.00 154.66,568.00 154.66,543.77 132.06,543.77" fill="#faffa8" />
  <polygon points="156.63,568.00 179.24,568.00 179.24,543.77 156.63,543.77" fill="#faffa8" />
  <polygon points="82.90,594.33 105.51,594.33 105.51,570.10 82.90,570.10" fill="#faffa8" />
  <polygon points="181.21,594.33 203.82,594.33 203.82,570.10 181.21,570.10" fill="#faffa8" />
  <polygon points="82.90,620.66 105.51,620.66 105.51,596.44 82.90,596.44" fill="#faffa8" />
  <polygon points="181.21,620.66 203.82,620.66 203.82,596.44 181.21,596.44" fill="#faffa8" />
  <polygon points="82.90,646.99 105.51,646.99 105.51,622.77 82.90,622.77" fill="#faffa8" />
  <polygon points="107.48,646.99 130.09,646.99 130.09,622.77 107.48,622.77" fill="#faffa8" />
  <polygon points="132.06,646.99 154.66,646.99 154.66,622.77 132.06,622.77" fill="#faffa8" />
  <polygon points="156.63,646.99 179.24,646.99 179.24,622.77 156.63,622.77" fill="#faffa8" />
  <polygon points="82.90,673.32 105.51,673.32 105.51,649.10 82.90,649.10" fill="#faffa8" />
  <polygon points="82.90,699.66 105.51,699.66 105.51,675.43 82.90,675.43" fill="#faffa8" />
  <polygon points="82.90,725.99 105.51,725.99 105.51,701.76 82.90,701.76" fill="#faffa8" />
  <polygon points="338.38,605.15 349.03,605.15 349.03,594.39 338.38,594.39" fill="#faffa8" />
  <polygon points="349.96,605.15 360.61,605.15 360.61,594.39 349.96,594.39" fill="#faffa8" />
  <polygon points="361.53,605.15 372.18,605.15 372.18,594.39 361.53,594.39" fill="#faffa8" />
  <polygon points="373.11,605.15 383.76,605.15 383.76,594.39 373.11,594.39" fill="#faffa8" />
  <polygon points="338.38,616.86 349.03,616.86 349.03,606.09 338.38,606.09" fill="#faffa8" />
  <polygon points="384.69,616.86 395.34,616.86 395.34,606.09 384.69,606.09" fill="#faffa8" />
  <polygon points="338.38,628.56 349.03,628.56 349.03,617.79 338.38,617.79" fill="#faffa8" />
  <polygon points="384.69,628.56 395.34,628.56 395.34,617.79 384.69,617.79" fill="#faffa8" />
  <polygon points="338.38,640.26 349.03,640.26 349.03,629.50 338.38,629.50" fill="#faffa8" />
  <polygon points="349.96,640.26 360.61,640.26 360.61,629.50 349.96,629.50" fill="#faffa8" />
  <polygon points="361.53,640.26 372.18,640.26 372.18,629.50 361.53,629.50" fill="#faffa8" />
  <polygon points="373.11,640.26 383.76,640.26 383.76,629.50 373.11,629.50" fill="#faffa8" />
  <polygon points="338.38,651.97 349.03,651.97 349.03,641.20 338.38,641.20" fill="#faffa8" />
  <polygon points="338.38,663.67 349.03,663.67 349.03,652.90 338.38,652.90" fill="#faffa8" />
  <polygon points="338.38,675.37 349.03,675.37 349.03,664.61 338.38,664.61" fill="#faffa8" />
  <polygon points="430.99,605.15 441.64,605.15 441.64,594.39 430.99,594.39" fill="#faffa8" />
  <polygon points="419.41,616.86 430.06,616.86 430.06,606.09 419.41,606.09" fill="#faffa8" />
  <polygon points="442.56,616.86 453.21,616.86 453.21,606.09 442.56,606.09" fill="#faffa8" />
  <polygon points="407.84,628.56 418.49,628.56 418.49,617.79 407.84,617.79" fill="#faffa8" />
  <polygon points="454.14,628.56 464.79,628.56 464.79,617.79 454.14,617.79" fill="#faffa8" />
  <polygon points="407.84,640.26 418.49,640.26 418.49,629.50 407.84,629.50" fill="#faffa8" />
  <polygon points="454.14,640.26 464.79,640.26 464.79,629.50 454.14,629.50" fill="#faffa8" />
  <polygon points="407.84,651.97 418.49,651.97 418.49,641.20 407.84,641.20" fill="#faffa8" />
  <polygon points="419.41,651.97 430.06,651.97 430.06,641.20 419.41,641.20" fill="#faffa8" />
  <polygon points="430.99,651.97 441.64,651.97 441.64,641.20 430.99,641.20" fill="#faffa8" />
  <polygon points="442.56,651.97 453.21,651.97 453.21,641.20 442.56,641.20" fill="#faffa8" />
  <polygon points="454.14,651.97 464.79,651.97 464.79,641.20 454.14,641.20" fill="#faffa8" />
  <polygon points="407.84,663.67 418.49,663.67 418.49,652.90 407.84,652.90" fill="#faffa8" />
  <polygon points="454.14,663.67 464.79,663.67 464.79,652.90 454.14,652.90" fill="#faffa8" />
  <polygon points="407.84,675.37 418.49,675.37 418.49,664.61 407.84,664.61" fill="#faffa8" />
  <polygon points="454.14,675.37 464.79,675.37 464.79,664.61 454.14,664.61" fill="#faffa8" />
  <polygon points="477.29,605.15 487.94,605.15 487.94,594.39 477.29,594.39" fill="#faffa8" />
  <polygon points="488.87,605.15 499.52,605.15 499.52,594.39 488.87,594.39" fill="#faffa8" />
  <polygon points="500.44,605.15 511.09,605.15 511.09,594.39 500.44,594.39" fill="#faffa8" />
  <polygon points="512.02,605.15 522.67,605.15 522.67,594.39 512.02,594.39" fill="#faffa8" />
  <polygon points="477.29,616.86 487.94,616.86 487.94,606.09 477.29,606.09" fill="#faffa8" />
  <polygon points="523.59,616.86 534.24,616.86 534.24,606.09 523.59,606.09" fill="#faffa8" />
  <polygon points="477.29,628.56 487.94,628.56 487.94,617.79 477.29,617.79" fill="#faffa8" />
  <polygon points="523.59,628.56 534.24,628.56 534.24,617.79 523.59,617.79" fill="#faffa8" />
  <polygon points="477.29,640.26 487.94,640.26 487.94,629.50 477.29,629.50" fill="#faffa8" />
  <polygon points="488.87,640.26 499.52,640.26 499.52,629.50 488.87,629.50" fill="#faffa8" />
  <polygon points="500.44,640.26 511.09,640.26 511.09,629.50 500.44,629.50" fill="#faffa8" />
  <polygon points="512.02,640.26 522.67,640.26 522.67,629.50 512.02,629.50" fill="#faffa8" />
  <polygon points="477.29,651.97 487.94,651.97 487.94,641.20 477.29,641.20" fill="#faffa8" />
  <polygon points="500.44,651.97 511.09,651.97 511.09,641.20 500.44,641.20" fill="#faffa8" />
  <polygon points="477.29,663.67 487.94,663.67 487.94,652.90 477.29,652.90" fill="#faffa8" />
  <polygon points="512.02,663.67 522.67,663.67 522.67,652.90 512.02,652.90" fill="#faffa8" />
  <polygon points="477.29,675.37 487.94,675.37 487.94,664.61 477.29,664.61" fill="#faffa8" />
  <polygon points="523.59,675.37 534.24,675.37 534.24,664.61 523.59,664.61" fill="#faffa8" />
  <polygon points="546.74,605.15 557.39,605.15 557.39,594.39 546.74,594.39" fill="#faffa8" />
  <polygon points="593.05,605.15 603.70,605.15 603.70,594.39 593.05,594.39" fill="#faffa8" />
  <polygon points="546.74,616.86 557.39,616.86 557.39,606.09 546.74,606.09" fill="#faffa8" />
  <polygon points="581.47,616.86 592.12,616.86 592.12,606.09 581.47,606.09" fill="#faffa8" />
  <polygon points="546.74,628.56 557.39,628.56 557.39,617.79 546.74,617.79" fill="#faffa8" />
  <polygon points="569.90,628.56 580.55,628.56 580.55,617.79 569.90,617.79" fill="#faffa8" />
  <polygon points="546.74,640.26 557.39,640.26 557.39,629.50 546.74,629.50" fill="#faffa8" />
  <polygon points="558.32,640.26 568.97,640.26 568.97,629.50 558.32,629.50" fill="#faffa8" />
  <polygon points="546.74,651.97 557.39,651.97 557.39,641.20 546.74,641.20" fill="#faffa8" />
  <polygon points="569.90,651.97 580.55,651.97 580.55,641.20 569.90,641.20" fill="#faffa8" />
  <polygon points="546.74,663.67 557.39,663.67 557.39,652.90 546.74,652.90" fill="#faffa8" />
  <polygon points="581.47,663.67 592.12,663.67 592.12,652.90 581.47,652.90" fill="#faffa8" />
  <polygon points="546.74,675.37 557.39,675.37 557.39,664.61 546.74,664.61" fill="#faffa8" />
  <polygon points="593.05,675.37 603.70,675.37 603.70,664.61 593.05,664.61" fill="#faffa8" />
  <polygon points="348.59,379.87 358.42,379.87 358.42,369.11 348.59,369.11" fill="#faffa8" />
  <polygon points="359.27,379.87 369.10,379.87 369.10,369.11 359.27,369.11" fill="#faffa8" />
  <polygon points="369.96,379.87 379.79,379.87 379.79,369.11 369.96,369.11" fill="#faffa8" />
  <polygon points="380.64,379.87 390.47,379.87 390.47,369.11 380.64,369.11" fill="#faffa8" />
  <polygon points="348.59,391.58 358.42,391.58 358.42,380.81 348.59,380.81" fill="#faffa8" />
  <polygon points="391.33,391.58 401.16,391.58 401.16,380.81 391.33,380.81" fill="#faffa8" />
  <polygon points="348.59,403.28 358.42,403.28 358.42,392.51 348.59,392.51" fill="#faffa8" />
  <polygon points="391.33,403.28 401.16,403.28 401.16,392.51 391.33,392.51" fill="#faffa8" />
  <polygon points="348.59,414.98 358.42,414.98 358.42,404.22 348.59,404.22" fill="#faffa8" />
  <polygon points="359.27,414.98 369.10,414.98 369.10,404.22 359.27,404.22" fill="#faffa8" />
  <polygon points="369.96,414.98 379.79,414.98 379.79,404.22 369.96,404.22" fill="#faffa8" />
  <polygon points="380.64,414.98 390.47,414.98 390.47,404.22 380.64,404.22" fill="#faffa8" />
  <polygon points="348.59,426.69 358.42,426.69 358.42,415.92 348.59,415.92" fill="#faffa8" />
  <polygon points="369.96,426.69 379.79,426.69 379.79,415.92 369.96,415.92" fill="#faffa8" />
  <polygon points="348.59,438.39 358.42,438.39 358.42,427.62 348.59,427.62" fill="#faffa8" />
  <polygon points="380.64,438.39 390.47,438.39 390.47,427.62 380.64,427.62" fill="#faffa8" />
  <polygon points="348.59,450.09 358.42,450.09 358.42,439.33 348.59,439.33" fill="#faffa8" />
  <polygon points="391.33,450.09 401.16,450.09 401.16,439.33 391.33,439.33" fill="#faffa8" />
  <polygon points="412.70,379.87 422.53,379.87 422.53,369.11 412.70,369.11" fill="#faffa8" />
  <polygon points="423.38,379.87 433.21,379.87 433.21,369.11 423.38,369.11" fill="#faffa8" />
  <polygon points="434.07,379.87 443.90,379.87 443.90,369.11 434.07,369.11" fill="#faffa8" />
  <polygon points="444.75,379.87 454.58,379.87 454.58,369.11 444.75,369.11" fill="#faffa8" />
  <polygon points="455.44,379.87 465.27,379.87 465.27,369.11 455.44,369.11" fill="#faffa8" />
  <polygon points="434.07,391.58 443.90,391.58 443.90,380.81 434.07,380.81" fill="#faffa8" />
  <polygon points="434.07,403.28 443.90,403.28 443.90,392.51 434.07,392.51" fill="#faffa8" />
  <polygon points="434.07,414.98 443.90,414.98 443.90,404.22 434.07,404.22" fill="#faffa8" />
  <polygon points="434.07,426.69 443.90,426.69 443.90,415.92 434.07,415.92" fill="#faffa8" />
  <polygon points="434.07,438.39 443.90,438.39 443.90,427.62 434.07,427.62" fill="#faffa8" />
  <polygon points="412.70,450.09 422.53,450.09 422.53,439.33 412.70,439.33" fill="#faffa8" />
  <polygon points="423.38,450.09 433.21,450.09 433.21,439.33 423.38,439.33" fill="#faffa8" />
  <polygon points="434.07,450.09 443.90,450.09 443.90,439.33 434.07,439.33" fill="#faffa8" />
  <polygon points="444.75,450.09 454.58,450.09 454.58,439.33 444.75,439.33" fill="#faffa8" />
  <polygon points="455.44,450.09 465.27,450.09 465.27,439.33 455.44,439.33" fill="#faffa8" />
  <polygon points="476.81,379.87 486.64,379.87 486.64,369.11 476.81,369.11" fill="#faffa8" />
  <polygon points="487.50,379.87 497.33,379.87 497.33,369.11 487.50,369.11" fill="#faffa8" />
  <polygon points="498.18,379.87 508.01,379.87 508.01,369.11 498.18,369.11" fill="#faffa8" />
  <polygon points="508.87,379.87 518.70,379.87 518.70,369.11 508.87,369.11" fill="#faffa8" />
  <polygon points="476.81,391.58 486.64,391.58 486.64,380.81 476.81,380.81" fill="#faffa8" />
  <polygon points="519.55,391.58 529.38,391.58 529.38,380.81 519.55,380.81" fill="#faffa8" />
  <polygon points="476.81,403.28 486.64,403.28 486.64,392.51 476.81,392.51" fill="#faffa8" />
  <polygon points="519.55,403.28 529.38,403.28 529.38,392.51 519.55,392.51" fill="#faffa8" />
  <polygon points="476.81,414.98 486.64,414.98 486.64,404.22 476.81,404.22" fill="#faffa8" />
  <polygon points="519.55,414.98 529.38,414.98 529.38,404.22 519.55,404.22" fill="#faffa8" />
  <polygon points="476.81,426.69 486.64,426.69 486.64,415.92 476.81,415.92" fill="#faffa8" />
  <polygon points="519.55,426.69 529.38,426.69 529.38,415.92 519.55,415.92" fill="#faffa8" />
  <polygon points="476.81,438.39 486.64,438.39 486.64,427.62 476.81,427.62" fill="#faffa8" />
  <polygon points="519.55,438.39 529.38,438.39 529.38,427.62 519.55,427.62" fill="#faffa8" />
  <polygon points="476.81,450.09 486.64,450.09 486.64,439.33 476.81,439.33" fill="#faffa8" />
  <polygon points="487.50,450.09 497.33,450.09 497.33,439.33 487.50,439.33" fill="#faffa8" />
  <polygon points="498.18,450.09 508.01,450.09 508.01,439.33 498.18,439.33" fill="#faffa8" />
  <polygon points="508.87,450.09 518.70,450.09 518.70,439.33 508.87,439.33" fill="#faffa8" />
  <polygon points="540.92,379.87 550.75,379.87 550.75,369.11 540.92,369.11" fill="#faffa8" />
  <polygon points="551.61,379.87 561.44,379.87 561.44,369.11 551.61,369.11" fill="#faffa8" />
  <polygon points="562.29,379.87 572.12,379.87 572.12,369.11 562.29,369.11" fill="#faffa8" />
  <polygon points="572.98,379.87 582.81,379.87 582.81,369.11 572.98,369.11" fill="#faffa8" />
  <polygon points="583.66,379.87 593.49,379.87 593.49,369.11 583.66,369.11" fill="#faffa8" />
  <polygon points="540.92,391.58 550.75,391.58 550.75,380.81 540.92,380.81" fill="#faffa8" />
  <polygon points="540.92,403.28 550.75,403.28 550.75,392.51 540.92,392.51" fill="#faffa8" />
  <polygon points="540.92,414.98 550.75,414.98 550.75,404.22 540.92,404.22" fill="#faffa8" />
  <polygon points="551.61,414.98 561.44,414.98 561.44,404.22 551.61,404.22" fill="#faffa8" />
  <polygon points="562.29,414.98 572.12,414.98 572.12,404.22 562.29,404.22" fill="#faffa8" />
  <polygon points="572.98,414.98 582.81,414.98 582.81,404.22 572.98,404.22" fill="#faffa8" />
  <polygon points="540.92,426.69 550.75,426.69 550.75,415.92 540.92,415.92" fill="#faffa8" />
  <polygon points="540.92,438.39 550.75,438.39 550.75,427.62 540.92,427.62" fill="#faffa8" />
  <polygon points="540.92,450.09 550.75,450.09 550.75,439.33 540.92,439.33" fill="#faffa8" />
  <polygon points="551.61,450.09 561.44,450.09 561.44,439.33 551.61,439.33" fill="#faffa8" />
  <polygon points="562.29,450.09 572.12,450.09 572.12,439.33 562.29,439.33" fill="#faffa8" />
  <polygon points="572.98,450.09 582.81,450.09 582.81,439.33 572.98,439.33" fill="#faffa8" />
  <polygon points="583.66,450.09 593.49,450.09 593.49,439.33 583.66,439.33" fill="#faffa8" />
  <polygon points="389.12,537.60 184.32,537.60 184.32,486.40 389.12,486.40" fill="#faffa8" />
  <polygon points="81.92,512.00 184.32,583.68 184.32,440.32" fill="#faffa8" />
  <polygon points="834.56,532.48 834.56,368.64 885.76,368.64 885.76,532.48" fill="#faffa8" />
  <polygon points="860.16,266.24 788.48,368.64 931.84,368.64" fill="#faffa8" />
</svg>
