<svg xmlns="http://www.w3.org/2000/svg" viewBox="0 0 1024 1024">
  <polygon points="51.20,972.80 972.80,972.80 972.80,51.20 51.20,51.20" fill="#65f2ff" />
  <polygon points="340.71,326.22 404.77,326.22 404.77,258.93 340.71,258.93" fill="#faffa8" />
  <polygon points="410.34,326.22 474.40,326.22 474.40,258.93 410.34,258.93" fill="#faffa8" />
  <polygon points="479.97,326.22 544.03,326.22 544.03,258.93 479.97,258.93" fill="#faffa8" />
  <polygon points="549.60,326.22 613.66,326.22 613.66,258.93 549.60,258.93" fill="#faffa8" />
  <polygon points="340.71,399.36 404.77,399.36 404.77,332.07 340.71,332.07" fill="#faffa8" />
  <polygon points="619.23,399.36 683.29,399.36 683.29,332.07 619.23,332.07" fill="#faffa8" />
  <polygon points="340.71,472.50 404.77,472.50 404.77,405.21 340.71,405.21" fill="#faffa8" />
  <polygon points="619.23,472.50 683.29,472.50 683.29,405.21 619.23,405.21" fill="#faffa8" />
  <polygon points="340.71,545.65 404.77,545.65 404.77,478.35 340.71,478.35" fill="#faffa8" />
  <polygon points="410.34,545.65 474.40,545.65 474.40,478.35 410.34,478.35" fill="#faffa8" />
  <polygon points="479.97,545.65 544.03,545.65 544.03,478.35 479.97,478.35" fill="#faffa8" />
  <polygon points="549.60,545.65 613.66,545.65 613.66,478.35 549.60,478.35" fill="#faffa8" />
  <polygon points="340.71,618.79 404.77,618.79 404.77,551.50 340.71,551.50" fill="#faffa8" />
  <polygon points="340.71,691.93 404.77,691.93 404.77,624.64 340.71,624.64" fill="#faffa8" />
  <polygon points="340.71,765.07 404.77,765.07 404.77,697.78 340.71,697.78" fill="#faffa8" />
</svg>
