<svg xmlns="http://www.w3.org/2000/svg" viewBox="0 0 1024 1024">
  <polygon points="20.48,798.72 1003.52,798.72 1003.52,225.28 20.48,225.28" fill="#faffa8" />
  <polygon points="51.20,768.00 972.80,768.00 972.80,256.00 51.20,256.00" fill="#bdff58" />
  <polygon points="92.98,547.52 111.82,547.52 111.82,523.29 92.98,523.29" fill="#faffa8" />
  <polygon points="174.90,547.52 193.74,547.52 193.74,523.29 174.90,523.29" fill="#faffa8" />
  <polygon points="92.98,573.85 111.82,573.85 111.82,549.62 92.98,549.62" fill="#faffa8" />
  <polygon points="113.46,573.85 132.30,573.85 132.30,549.62 113.46,549.62" fill="#faffa8" />
  <polygon points="154.42,573.85 173.26,573.85 173.26,549.62 154.42,549.62" fill="#faffa8" />
  <polygon points="174.90,573.85 193.74,573.85 193.74,549.62 174.90,549.62" fill="#faffa8" />
  <polygon points="92.98,600.18 111.82,600.18 111.82,575.96 92.98,575.96" fill="#faffa8" />
  <polygon points="133.94,600.18 152.78,600.18 152.78,575.96 133.94,575.96" fill="#faffa8" />
  <polygon points="174.90,600.18 193.74,600.18 193.74,575.96 174.90,575.96" fill="#faffa8" />
  <polygon points="92.98,626.51 111.82,626.51 111.82,602.29 92.98,602.29" fill="#faffa8" />
  <polygon points="133.94,626.51 152.78,626.51 152.78,602.29 133.94,602.29" fill="#faffa8" />
  <polygon points="174.90,626.51 193.74,626.51 193.74,602.29 174.90,602.29" fill="#faffa8" />
  <polygon points="92.98,652.84 111.82,652.84 111.82,628.62 92.98,628.62" fill="#faffa8" />
  <polygon points="174.90,652.84 193.74,652.84 193.74,628.62 174.90,628.62" fill="#faffa8" />
  <polygon points="92.98,679.18 111.82,679.18 111.82,654.95 92.98,654.95" fill="#faffa8" />
  <polygon points="174.90,679.18 193.74,679.18 193.74,654.95 174.90,654.95" fill="#faffa8" />
  <polygon points="92.98,705.51 111.82,705.51 111.82,681.28 92.98,681.28" fill="#faffa8" />
  <polygon points="174.90,705.51 193.74,705.51 193.74,681.28 174.90,681.28" fill="#faffa8" />
  <polygon points="297.38,584.67 307.13,584.67 307.13,573.91 297.38,573.91" fill="#faffa8" />
  <polygon points="339.76,584.67 349.50,584.67 349.50,573.91 339.76,573.91" fill="#faffa8" />
  <polygon points="297.38,596.38 307.13,596.38 307.13,585.61 297.38,585.61" fill="#faffa8" />
  <polygon points="307.98,596.38 317.72,596.38 317.72,585.61 307.98,585.61" fill="#faffa8" />
  <polygon points="329.16,596.38 338.91,596.38 338.91,585.61 329.16,585.61" fill="#faffa8" />
  <polygon points="339.76,596.38 349.50,596.38 349.50,585.61 339.76,585.61" fill="#faffa8" />
  <polygon points="297.38,608.08 307.13,608.08 307.13,597.31 297.38,597.31" fill="#faffa8" />
  <polygon points="318.57,608.08 328.32,608.08 328.32,597.31 318.57,597.31" fill="#faffa8" />
  <polygon points="339.76,608.08 349.50,608.08 349.50,597.31 339.76,597.31" fill="#faffa8" />
  <polygon points="297.38,619.78 307.13,619.78 307.13,609.02 297.38,609.02" fill="#faffa8" />
  <polygon points="318.57,619.78 328.32,619.78 328.32,609.02 318.57,609.02" fill="#faffa8" />
  <polygon points="339.76,619.78 349.50,619.78 349.50,609.02 339.76,609.02" fill="#faffa8" />
  <polygon points="297.38,631.49 307.13,631.49 307.13,620.72 297.38,620.72" fill="#faffa8" />
  <polygon points="339.76,631.49 349.50,631.49 349.50,620.72 339.76,620.72" fill="#faffa8" />
  <polygon points="297.38,643.19 307.13,643.19 307.13,632.42 297.38,632.42" fill="#faffa8" />
  <polygon points="339.76,643.19 349.50,643.19 349.50,632.42 339.76,632.42" fill="#faffa8" />
  <polygon points="297.38,654.89 307.13,654.89 307.13,644.13 297.38,644.13" fill="#faffa8" />
  <polygon points="339.76,654.89 349.50,654.89 349.50,644.13 339.76,644.13" fill="#faffa8" />
  <polygon points="360.94,584.67 370.69,584.67 370.69,573.91 360.94,573.91" fill="#faffa8" />
  <polygon points="371.54,584.67 381.28,584.67 381.28,573.91 371.54,573.91" fill="#faffa8" />
  <polygon points="382.13,584.67 391.87,584.67 391.87,573.91 382.13,573.91" fill="#faffa8" />
  <polygon points="392.72,584.67 402.47,584.67 402.47,573.91 392.72,573.91" fill="#faffa8" />
  <polygon points="403.31,584.67 413.06,584.67 413.06,573.91 403.31,573.91" fill="#faffa8" />
  <polygon points="360.94,596.38 370.69,596.38 370.69,585.61 360.94,585.61" fill="#faffa8" />
  <polygon points="360.94,608.08 370.69,608.08 370.69,597.31 360.94,597.31" fill="#faffa8" />
  <polygon points="360.94,619.78 370.69,619.78 370.69,609.02 360.94,609.02" fill="#faffa8" />
  <polygon points="371.54,619.78 381.28,619.78 381.28,609.02 371.54,609.02" fill="#faffa8" />
  <polygon points="382.13,619.78 391.87,619.78 391.87,609.02 382.13,609.02" fill="#faffa8" />
  <polygon points="392.72,619.78 402.47,619.78 402.47,609.02 392.72,609.02" fill="#faffa8" />
  <polygon points="360.94,631.49 370.69,631.49 370.69,620.72 360.94,620.72" fill="#faffa8" />
  <polygon points="360.94,643.19 370.69,643.19 370.69,632.42 360.94,632.42" fill="#faffa8" />
  <polygon points="360.94,654.89 370.69,654.89 370.69,644.13 360.94,644.13" fill="#faffa8" />
  <polygon points="371.54,654.89 381.28,654.89 381.28,644.13 371.54,644.13" fill="#faffa8" />
  <polygon points="382.13,654.89 391.87,654.89 391.87,644.13 382.13,644.13" fill="#faffa8" />
  <polygon points="392.72,654.89 402.47,654.89 402.47,644.13 392.72,644.13" fill="#faffa8" />
  <polygon points="403.31,654.89 413.06,654.89 413.06,644.13 403.31,644.13" fill="#faffa8" />
  <polygon points="424.50,584.67 434.25,584.67 434.25,573.91 424.50,573.91" fill="#faffa8" />
  <polygon points="435.09,584.67 444.84,584.67 444.84,573.91 435.09,573.91" fill="#faffa8" />
  <polygon points="445.69,584.67 455.43,584.67 455.43,573.91 445.69,573.91" fill="#faffa8" />
  <polygon points="456.28,584.67 466.03,584.67 466.03,573.91 456.28,573.91" fill="#faffa8" />
  <polygon points="466.87,584.67 476.62,584.67 476.62,573.91 466.87,573.91" fill="#faffa8" />
  <polygon points="445.69,596.38 455.43,596.38 455.43,585.61 445.69,585.61" fill="#faffa8" />
  <polygon points="445.69,608.08 455.43,608.08 455.43,597.31 445.69,597.31" fill="#faffa8" />
  <polygon points="445.69,619.78 455.43,619.78 455.43,609.02 445.69,609.02" fill="#faffa8" />
  <polygon points="445.69,631.49 455.43,631.49 455.43,620.72 445.69,620.72" fill="#faffa8" />
  <polygon points="445.69,643.19 455.43,643.19 455.43,632.42 445.69,632.42" fill="#faffa8" />
  <polygon points="445.69,654.89 455.43,654.89 455.43,644.13 445.69,644.13" fill="#faffa8" />
  <polygon points="488.06,584.67 497.81,584.67 497.81,573.91 488.06,573.91" fill="#faffa8" />
  <polygon points="498.65,584.67 508.40,584.67 508.40,573.91 498.65,573.91" fill="#faffa8" />
  <polygon points="509.25,584.67 518.99,584.67 518.99,573.91 509.25,573.91" fill="#faffa8" />
  <polygon points="519.84,584.67 529.58,584.67 529.58,573.91 519.84,573.91" fill="#faffa8" />
  <polygon points="488.06,596.38 497.81,596.38 497.81,585.61 488.06,585.61" fill="#faffa8" />
  <polygon points="530.43,596.38 540.18,596.38 540.18,585.61 530.43,585.61" fill="#faffa8" />
  <polygon points="488.06,608.08 497.81,608.08 497.81,597.31 488.06,597.31" fill="#faffa8" />
  <polygon points="530.43,608.08 540.18,608.08 540.18,597.31 530.43,597.31" fill="#faffa8" />
  <polygon points="488.06,619.78 497.81,619.78 497.81,609.02 488.06,609.02" fill="#faffa8" />
  <polygon points="498.65,619.78 508.40,619.78 508.40,609.02 498.65,609.02" fill="#faffa8" />
  <polygon points="509.25,619.78 518.99,619.78 518.99,609.02 509.25,609.02" fill="#faffa8" />
  <polygon points="519.84,619.78 529.58,619.78 529.58,609.02 519.84,609.02" fill="#faffa8" />
  <polygon points="488.06,631.49 497.81,631.49 497.81,620.72 488.06,620.72" fill="#faffa8" />
  <polygon points="509.25,631.49 518.99,631.49 518.99,620.72 509.25,620.72" fill="#faffa8" />
  <polygon points="488.06,643.19 497.81,643.19 497.81,632.42 488.06,632.42" fill="#faffa8" />
  <polygon points="519.84,643.19 529.58,643.19 529.58,632.42 519.84,632.42" fill="#faffa8" />
  <polygon points="488.06,654.89 497.81,654.89 497.81,644.13 488.06,644.13" fill="#faffa8" />
  <polygon points="530.43,654.89 540.18,654.89 540.18,644.13 530.43,644.13" fill="#faffa8" />
  <polygon points="562.21,584.67 571.96,584.67 571.96,573.91 562.21,573.91" fill="#faffa8" />
  <polygon points="572.80,584.67 582.55,584.67 582.55,573.91 572.80,573.91" fill="#faffa8" />
  <polygon points="583.40,584.67 593.14,584.67 593.14,573.91 583.40,573.91" fill="#faffa8" />
  <polygon points="551.62,596.38 561.36,596.38 561.36,585.61 551.62,585.61" fill="#faffa8" />
  <polygon points="593.99,596.38 603.74,596.38 603.74,585.61 593.99,585.61" fill="#faffa8" />
  <polygon points="551.62,608.08 561.36,608.08 561.36,597.31 551.62,597.31" fill="#faffa8" />
  <polygon points="593.99,608.08 603.74,608.08 603.74,597.31 593.99,597.31" fill="#faffa8" />
  <polygon points="551.62,619.78 561.36,619.78 561.36,609.02 551.62,609.02" fill="#faffa8" />
  <polygon points="593.99,619.78 603.74,619.78 603.74,609.02 593.99,609.02" fill="#faffa8" />
  <polygon points="551.62,631.49 561.36,631.49 561.36,620.72 551.62,620.72" fill="#faffa8" />
  <polygon points="593.99,631.49 603.74,631.49 603.74,620.72 593.99,620.72" fill="#faffa8" />
  <polygon points="551.62,643.19 561.36,643.19 561.36,632.42 551.62,632.42" fill="#faffa8" />
  <polygon points="593.99,643.19 603.74,643.19 603.74,632.42 593.99,632.42" fill="#faffa8" />
  <polygon points="562.21,654.89 571.96,654.89 571.96,644.13 562.21,644.13" fill="#faffa8" />
  <polygon points="572.80,654.89 582.55,654.89 582.55,644.13 572.80,644.13" fill="#faffa8" />
  <polygon points="583.40,654.89 593.14,654.89 593.14,644.13 583.40,644.13" fill="#faffa8" />
  <polygon points="133.94,322.24 152.78,322.24 152.78,298.01 133.94,298.01" fill="#faffa8" />
  <polygon points="154.42,322.24 173.26,322.24 173.26,298.01 154.42,298.01" fill="#faffa8" />
  <polygon points="174.90,322.24 193.74,322.24 193.74,298.01 174.90,298.01" fill="#faffa8" />
  <polygon points="195.38,322.24 214.22,322.24 214.22,298.01 195.38,298.01" fill="#faffa8" />
  <polygon points="133.94,348.57 152.78,348.57 152.78,324.34 133.94,324.34" fill="#faffa8" />
  <polygon points="215.86,348.57 234.70,348.57 234.70,324.34 215.86,324.34" fill="#faffa8" />
  <polygon points="133.94,374.90 152.78,374.90 152.78,350.68 133.94,350.68" fill="#faffa8" />
  <polygon points="215.86,374.90 234.70,374.90 234.70,350.68 215.86,350.68" fill="#faffa8" />
  <polygon points="133.94,401.23 152.78,401.23 152.78,377.01 133.94,377.01" fill="#faffa8" />
  <polygon points="154.42,401.23 173.26,401.23 173.26,377.01 154.42,377.01" fill="#faffa8" />
  <polygon points="174.90,401.23 193.74,401.23 193.74,377.01 174.90,377.01" fill="#faffa8" />
  <polygon points="195.38,401.23 214.22,401.23 214.22,377.01 195.38,377.01" fill="#faffa8" />
  <polygon points="133.94,427.56 152.78,427.56 152.78,403.34 133.94,403.34" fill="#faffa8" />
  <polygon points="133.94,453.90 152.78,453.90 152.78,429.67 133.94,429.67" fill="#faffa8" />
  <polygon points="133.94,480.23 152.78,480.23 152.78,456.00 133.94,456.00" fill="#faffa8" />
  <polygon points="348.59,359.39 358.42,359.39 358.42,348.63 348.59,348.63" fill="#faffa8" />
  <polygon points="359.27,359.39 369.10,359.39 369.10,348.63 359.27,348.63" fill="#faffa8" />
  <polygon points="369.96,359.39 379.79,359.39 379.79,348.63 369.96,348.63" fill="#faffa8" />
  <polygon points="380.64,359.39 390.47,359.39 390.47,348.63 380.64,348.63" fill="#faffa8" />
  <polygon points="348.59,371.10 358.42,371.10 358.42,360.33 348.59,360.33" fill="#faffa8" />
  <polygon points="391.33,371.10 401.16,371.10 401.16,360.33 391.33,360.33" fill="#faffa8" />
  <polygon points="348.59,382.80 358.42,382.80 358.42,372.03 348.59,372.03" fill="#faffa8" />
  <polygon points="391.33,382.80 401.16,382.80 401.16,372.03 391.33,372.03" fill="#faffa8" />
  <polygon points="348.59,394.50 358.42,394.50 358.42,383.74 348.59,383.74" fill="#faffa8" />
  <polygon points="359.27,394.50 369.10,394.50 369.10,383.74 359.27,383.74" fill="#faffa8" />
  <polygon points="369.96,394.50 379.79,394.50 379.79,383.74 369.96,383.74" fill="#faffa8" />
  <polygon points="380.64,394.50 390.47,394.50 390.47,383.74 380.64,383.74" fill="#faffa8" />
  <polygon points="348.59,406.21 358.42,406.21 358.42,395.44 348.59,395.44" fill="#faffa8" />
  <polygon points="348.59,417.91 358.42,417.91 358.42,407.14 348.59,407.14" fill="#faffa8" />
  <polygon points="348.59,429.61 358.42,429.61 358.42,418.85 348.59,418.85" fill="#faffa8" />
  <polygon points="434.07,359.39 443.90,359.39 443.90,348.63 434.07,348.63" fill="#faffa8" />
  <polygon points="423.38,371.10 433.21,371.10 433.21,360.33 423.38,360.33" fill="#faffa8" />
  <polygon points="444.75,371.10 454.58,371.10 454.58,360.33 444.75,360.33" fill="#faffa8" />
  <polygon points="412.70,382.80 422.53,382.80 422.53,372.03 412.70,372.03" fill="#faffa8" />
  <polygon points="455.44,382.80 465.27,382.80 465.27,372.03 455.44,372.03" fill="#faffa8" />
  <polygon points="412.70,394.50 422.53,394.50 422.53,383.74 412.70,383.74" fill="#faffa8" />
  <polygon points="455.44,394.50 465.27,394.50 465.27,383.74 455.44,383.74" fill="#faffa8" />
  <polygon points="412.70,406.21 422.53,406.21 422.53,395.44 412.70,395.44" fill="#faffa8" />
  <polygon points="423.38,406.21 433.21,406.21 433.21,395.44 423.38,395.44" fill="#faffa8" />
  <polygon points="434.07,406.21 443.90,406.21 443.90,395.44 434.07,395.44" fill="#faffa8" />
  <polygon points="444.75,406.21 454.58,406.21 454.58,395.44 444.75,395.44" fill="#faffa8" />
  <polygon points="455.44,406.21 465.27,406.21 465.27,395.44 455.44,395.44" fill="#faffa8" />
  <polygon points="412.70,417.91 422.53,417.91 422.53,407.14 412.70,407.14" fill="#faffa8" />
  <polygon points="455.44,417.91 465.27,417.91 465.27,407.14 455.44,407.14" fill="#faffa8" />
  <polygon points="412.70,429.61 422.53,429.61 422.53,418.85 412.70,418.85" fill="#faffa8" />
  <polygon points="455.44,429.61 465.27,429.61 465.27,418.85 455.44,418.85" fill="#faffa8" />
  <polygon points="476.81,359.39 486.64,359.39 486.64,348.63 476.81,348.63" fill="#faffa8" />
  <polygon points="487.50,359.39 497.33,359.39 497.33,348.63 487.50,348.63" fill="#faffa8" />
  <polygon points="498.18,359.39 508.01,359.39 508.01,348.63 498.18,348.63" fill="#faffa8" />
  <polygon points="508.87,359.39 518.70,359.39 518.70,348.63 508.87,348.63" fill="#faffa8" />
  <polygon points="476.81,371.10 486.64,371.10 486.64,360.33 476.81,360.33" fill="#faffa8" />
  <polygon points="519.55,371.10 529.38,371.10 529.38,360.33 519.55,360.33" fill="#faffa8" />
  <polygon points="476.81,382.80 486.64,382.80 486.64,372.03 476.81,372.03" fill="#faffa8" />
  <polygon points="519.55,382.80 529.38,382.80 529.38,372.03 519.55,372.03" fill="#faffa8" />
  <polygon points="476.81,394.50 486.64,394.50 486.64,383.74 476.81,383.74" fill="#faffa8" />
  <polygon points="487.50,394.50 497.33,394.50 497.33,383.74 487.50,383.74" fill="#faffa8" />
  <polygon points="498.18,394.50 508.01,394.50 508.01,383.74 498.18,383.74" fill="#faffa8" />
  <polygon points="508.87,394.50 518.70,394.50 518.70,383.74 508.87,383.74" fill="#faffa8" />
  <polygon points="476.81,406.21 486.64,406.21 486.64,395.44 476.81,395.44" fill="#faffa8" />
  <polygon points="498.18,406.21 508.01,406.21 508.01,395.44 498.18,395.44" fill="#faffa8" />
  <polygon points="476.81,417.91 486.64,417.91 486.64,407.14 476.81,407.14" fill="#faffa8" />
  <polygon points="508.87,417.91 518.70,417.91 518.70,407.14 508.87,407.14" fill="#faffa8" />
  <polygon points="476.81,429.61 486.64,429.61 486.64,418.85 476.81,418.85" fill="#faffa8" />
  <polygon points="519.55,429.61 529.38,429.61 529.38,418.85 519.55,418.85" fill="#faffa8" />
  <polygon points="540.92,359.39 550.75,359.39 550.75,348.63 540.92,348.63" fill="#faffa8" />
  <polygon points="583.66,359.39 593.49,359.39 593.49,348.63 583.66,348.63" fill="#faffa8" />
  <polygon points="540.92,371.10 550.75,371.10 550.75,360.33 540.92,360.33" fill="#faffa8" />
  <polygon points="572.98,371.10 582.81,371.10 582.81,360.33 572.98,360.33" fill="#faffa8" />
  <polygon points="540.92,382.80 550.75,382.80 550.75,372.03 540.92,372.03" fill="#faffa8" />
  <polygon points="562.29,382.80 572.12,382.80 572.12,372.03 562.29,372.03" fill="#faffa8" />
  <polygon points="540.92,394.50 550.75,394.50 550.75,383.74 540.92,383.74" fill="#faffa8" />
  <polygon points="551.61,394.50 561.44,394.50 561.44,383.74 551.61,383.74" fill="#faffa8" />
  <polygon points="540.92,406.21 550.75,406.21 550.75,395.44 540.92,395.44" fill="#faffa8" />
  <polygon points="562.29,406.21 572.12,406.21 572.12,395.44 562.29,395.44" fill="#faffa8" />
  <polygon points="540.92,417.91 550.75,417.91 550.75,407.14 540.92,407.14" fill="#faffa8" />
  <polygon points="572.98,417.91 582.81,417.91 582.81,407.14 572.98,407.14" fill="#faffa8" />
  <polygon points="540.92,429.61 550.75,429.61 550.75,418.85 540.92,418.85" fill="#faffa8" />
  <polygon points="583.66,429.61 593.49,429.61 593.49,418.85 583.66,418.85" fill="#faffa8" />
  <polygon points="675.84,486.40 860.16,486.40 860.16,537.60 675.84,537.60" fill="#faffa8" />
  <polygon points="962.56,512.00 860.16,440.32 860.16,583.68" fill="#faffa8" />
  <polygon points="834.56,532.48 834.56,368.64 885.76,368.64 885.76,532.48" fill="#faffa8" />
  <polygon points="860.16,266.24 788.48,368.64 931.84,368.64" fill="#faffa8" />
</svg>
