<svg xmlns="http://www.w3.org/2000/svg" viewBox="0 0 1024 1024">
  <polygon points="192.92,993.28 831.08,993.28 931.84,608.26 814.28,242.48 512.00,30.72 209.72,242.48 92.16,608.26" fill="#f9ffa8" />
  <polygon points="239.62,931.84 784.38,931.84 870.40,608.26 770.05,242.48 512.00,92.16 253.95,242.48 153.60,608.26" fill="#faffa8" />
  <polygon points="400.18,666.59 419.02,666.59 419.02,655.83 400.18,655.83" fill="#f9ffa8" />
  <polygon points="482.10,666.59 500.94,666.59 500.94,655.83 482.10,655.83" fill="#f9ffa8" />
  <polygon points="400.18,678.30 419.02,678.30 419.02,667.53 400.18,667.53" fill="#f9ffa8" />
  <polygon points="482.10,678.30 500.94,678.30 500.94,667.53 482.10,667.53" fill="#f9ffa8" />
  <polygon points="400.18,690.00 419.02,690.00 419.02,679.23 400.18,679.23" fill="#f9ffa8" />
  <polygon points="482.10,690.00 500.94,690.00 500.94,679.23 482.10,679.23" fill="#f9ffa8" />
  <polygon points="400.18,701.70 419.02,701.70 419.02,690.94 400.18,690.94" fill="#f9ffa8" />
  <polygon points="482.10,701.70 500.94,701.70 500.94,690.94 482.10,690.94" fill="#f9ffa8" />
  <polygon points="400.18,713.41 419.02,713.41 419.02,702.64 400.18,702.64" fill="#f9ffa8" />
  <polygon points="482.10,713.41 500.94,713.41 500.94,702.64 482.10,702.64" fill="#f9ffa8" />
  <polygon points="400.18,725.11 419.02,725.11 419.02,714.34 400.18,714.34" fill="#f9ffa8" />
  <polygon points="482.10,725.11 500.94,725.11 500.94,714.34 482.10,714.34" fill="#f9ffa8" />
  <polygon points="420.66,736.81 439.50,736.81 439.50,726.05 420.66,726.05" fill="#f9ffa8" />
  <polygon points="441.14,736.81 459.98,736.81 459.98,726.05 441.14,726.05" fill="#f9ffa8" />
  <polygon points="461.62,736.81 480.46,736.81 480.46,726.05 461.62,726.05" fill="#f9ffa8" />
  <polygon points="543.54,666.59 562.38,666.59 562.38,655.83 543.54,655.83" fill="#f9ffa8" />
  <polygon points="564.02,666.59 582.86,666.59 582.86,655.83 564.02,655.83" fill="#f9ffa8" />
  <polygon points="584.50,666.59 603.34,666.59 603.34,655.83 584.50,655.83" fill="#f9ffa8" />
  <polygon points="604.98,666.59 623.82,666.59 623.82,655.83 604.98,655.83" fill="#f9ffa8" />
  <polygon points="523.06,678.30 541.90,678.30 541.90,667.53 523.06,667.53" fill="#f9ffa8" />
  <polygon points="523.06,690.00 541.90,690.00 541.90,679.23 523.06,679.23" fill="#f9ffa8" />
  <polygon points="543.54,701.70 562.38,701.70 562.38,690.94 543.54,690.94" fill="#f9ffa8" />
  <polygon points="564.02,701.70 582.86,701.70 582.86,690.94 564.02,690.94" fill="#f9ffa8" />
  <polygon points="584.50,701.70 603.34,701.70 603.34,690.94 584.50,690.94" fill="#f9ffa8" />
  <polygon points="604.98,713.41 623.82,713.41 623.82,702.64 604.98,702.64" fill="#f9ffa8" />
  <polygon points="604.98,725.11 623.82,725.11 623.82,714.34 604.98,714.34" fill="#f9ffa8" />
  <polygon points="523.06,736.81 541.90,736.81 541.90,726.05 523.06,726.05" fill="#f9ffa8" />
  <polygon points="543.54,736.81 562.38,736.81 562.38,726.05 543.54,726.05" fill="#f9ffa8" />
  <polygon points="564.02,736.81 582.86,736.81 582.86,726.05 564.02,726.05" fill="#f9ffa8" />
  <polygon points="584.50,736.81 603.34,736.81 603.34,726.05 584.50,726.05" fill="#f9ffa8" />
  <polygon points="371.92,329.67 391.87,329.67 391.87,308.14 371.92,308.14" fill="#f9ffa8" />
  <polygon points="350.23,353.08 370.18,353.08 370.18,331.54 350.23,331.54" fill="#f9ffa8" />
  <polygon points="371.92,353.08 391.87,353.08 391.87,331.54 371.92,331.54" fill="#f9ffa8" />
  <polygon points="371.92,376.48 391.87,376.48 391.87,354.95 371.92,354.95" fill="#f9ffa8" />
  <polygon points="371.92,399.89 391.87,399.89 391.87,378.35 371.92,378.35" fill="#f9ffa8" />
  <polygon points="371.92,423.29 391.87,423.29 391.87,401.76 371.92,401.76" fill="#f9ffa8" />
  <polygon points="371.92,446.70 391.87,446.70 391.87,425.16 371.92,425.16" fill="#f9ffa8" />
  <polygon points="350.23,470.10 370.18,470.10 370.18,448.57 350.23,448.57" fill="#f9ffa8" />
  <polygon points="371.92,470.10 391.87,470.10 391.87,448.57 371.92,448.57" fill="#f9ffa8" />
  <polygon points="393.60,470.10 413.55,470.10 413.55,448.57 393.60,448.57" fill="#f9ffa8" />
  <polygon points="480.34,329.67 500.29,329.67 500.29,308.14 480.34,308.14" fill="#f9ffa8" />
  <polygon points="502.03,329.67 521.97,329.67 521.97,308.14 502.03,308.14" fill="#f9ffa8" />
  <polygon points="523.71,329.67 543.66,329.67 543.66,308.14 523.71,308.14" fill="#f9ffa8" />
  <polygon points="458.66,353.08 478.61,353.08 478.61,331.54 458.66,331.54" fill="#f9ffa8" />
  <polygon points="545.39,353.08 565.34,353.08 565.34,331.54 545.39,331.54" fill="#f9ffa8" />
  <polygon points="458.66,376.48 478.61,376.48 478.61,354.95 458.66,354.95" fill="#f9ffa8" />
  <polygon points="523.71,376.48 543.66,376.48 543.66,354.95 523.71,354.95" fill="#f9ffa8" />
  <polygon points="545.39,376.48 565.34,376.48 565.34,354.95 545.39,354.95" fill="#f9ffa8" />
  <polygon points="458.66,399.89 478.61,399.89 478.61,378.35 458.66,378.35" fill="#f9ffa8" />
  <polygon points="502.03,399.89 521.97,399.89 521.97,378.35 502.03,378.35" fill="#f9ffa8" />
  <polygon points="545.39,399.89 565.34,399.89 565.34,378.35 545.39,378.35" fill="#f9ffa8" />
  <polygon points="458.66,423.29 478.61,423.29 478.61,401.76 458.66,401.76" fill="#f9ffa8" />
  <polygon points="480.34,423.29 500.29,423.29 500.29,401.76 480.34,401.76" fill="#f9ffa8" />
  <polygon points="545.39,423.29 565.34,423.29 565.34,401.76 545.39,401.76" fill="#f9ffa8" />
  <polygon points="458.66,446.70 478.61,446.70 478.61,425.16 458.66,425.16" fill="#f9ffa8" />
  <polygon points="545.39,446.70 565.34,446.70 565.34,425.16 545.39,425.16" fill="#f9ffa8" />
  <polygon points="480.34,470.10 500.29,470.10 500.29,448.57 480.34,448.57" fill="#f9ffa8" />
  <polygon points="502.03,470.10 521.97,470.10 521.97,448.57 502.03,448.57" fill="#f9ffa8" />
  <polygon points="523.71,470.10 543.66,470.10 543.66,448.57 523.71,448.57" fill="#f9ffa8" />
  <polygon points="632.13,329.67 652.08,329.67 652.08,308.14 632.13,308.14" fill="#f9ffa8" />
  <polygon points="610.45,353.08 630.40,353.08 630.40,331.54 610.45,331.54" fill="#f9ffa8" />
  <polygon points="632.13,353.08 652.08,353.08 652.08,331.54 632.13,331.54" fill="#f9ffa8" />
  <polygon points="632.13,376.48 652.08,376.48 652.08,354.95 632.13,354.95" fill="#f9ffa8" />
  <polygon points="632.13,399.89 652.08,399.89 652.08,378.35 632.13,378.35" fill="#f9ffa8" />
  <polygon points="632.13,423.29 652.08,423.29 652.08,401.76 632.13,401.76" fill="#f9ffa8" />
  <polygon points="632.13,446.70 652.08,446.70 652.08,425.16 632.13,425.16" fill="#f9ffa8" />
  <polygon points="610.45,470.10 630.40,470.10 630.40,448.57 610.45,448.57" fill="#f9ffa8" />
  <polygon points="632.13,470.10 652.08,470.10 652.08,448.57 632.13,448.57" fill="#f9ffa8" />
  <polygon points="653.82,470.10 673.77,470.10 673.77,448.57 653.82,448.57" fill="#f9ffa8" />
</svg>
