<svg xmlns="http://www.w3.org/2000/svg" viewBox="0 0 1024 1024">
  <polygon points="25.60,870.40 998.40,870.40 998.40,153.60 25.60,153.60" fill="#faffa8" />
  <polygon points="66.56,829.44 957.44,829.44 957.44,194.56 66.56,194.56" fill="#bdff58" />
  <polygon points="122.88,496.64 901.12,496.64 901.12,527.36 122.88,527.36" fill="#faffa8" />
  <polygon points="32.56,710.04 336.08,710.04 336.08,662.12 32.56,662.12" fill="#faffa8" />
  <polygon points="376.01,686.08 296.14,622.18 296.14,749.98" fill="#faffa8" />
  <polygon points="155.08,701.00 11.31,573.21 37.84,543.36 181.61,671.16" fill="#faffa8" />
  <polygon points="181.61,701.00 37.84,828.80 11.31,798.95 155.08,671.16" fill="#faffa8" />
  <polygon points="219.97,675.85 299.84,580.01 324.39,600.46 244.52,696.31" fill="#faffa8" />
  <polygon points="244.52,675.85 324.39,771.70 299.84,792.15 219.97,696.31" fill="#faffa8" />
  <polygon points="359.32,652.64 368.97,652.64 368.97,640.53 359.32,640.53" fill="#faffa8" />
  <polygon points="348.83,665.80 358.48,665.80 358.48,653.69 348.83,653.69" fill="#faffa8" />
  <polygon points="369.81,665.80 379.46,665.80 379.46,653.69 369.81,653.69" fill="#faffa8" />
  <polygon points="338.34,678.97 347.99,678.97 347.99,666.86 338.34,666.86" fill="#faffa8" />
  <polygon points="380.30,678.97 389.95,678.97 389.95,666.86 380.30,666.86" fill="#faffa8" />
  <polygon points="338.34,692.14 347.99,692.14 347.99,680.02 338.34,680.02" fill="#faffa8" />
  <polygon points="380.30,692.14 389.95,692.14 389.95,680.02 380.30,680.02" fill="#faffa8" />
  <polygon points="338.34,705.30 347.99,705.30 347.99,693.19 338.34,693.19" fill="#faffa8" />
  <polygon points="348.83,705.30 358.48,705.30 358.48,693.19 348.83,693.19" fill="#faffa8" />
  <polygon points="359.32,705.30 368.97,705.30 368.97,693.19 359.32,693.19" fill="#faffa8" />
  <polygon points="369.81,705.30 379.46,705.30 379.46,693.19 369.81,693.19" fill="#faffa8" />
  <polygon points="380.30,705.30 389.95,705.30 389.95,693.19 380.30,693.19" fill="#faffa8" />
  <polygon points="338.34,718.47 347.99,718.47 347.99,706.36 338.34,706.36" fill="#faffa8" />
  <polygon points="380.30,718.47 389.95,718.47 389.95,706.36 380.30,706.36" fill="#faffa8" />
  <polygon points="338.34,731.63 347.99,731.63 347.99,719.52 338.34,719.52" fill="#faffa8" />
  <polygon points="380.30,731.63 389.95,731.63 389.95,719.52 380.30,719.52" fill="#faffa8" />
  <polygon points="401.28,652.64 410.93,652.64 410.93,640.53 401.28,640.53" fill="#faffa8" />
  <polygon points="411.77,652.64 421.42,652.64 421.42,640.53 411.77,640.53" fill="#faffa8" />
  <polygon points="422.26,652.64 431.91,652.64 431.91,640.53 422.26,640.53" fill="#faffa8" />
  <polygon points="432.75,652.64 442.40,652.64 442.40,640.53 432.75,640.53" fill="#faffa8" />
  <polygon points="443.24,652.64 452.89,652.64 452.89,640.53 443.24,640.53" fill="#faffa8" />
  <polygon points="422.26,665.80 431.91,665.80 431.91,653.69 422.26,653.69" fill="#faffa8" />
  <polygon points="422.26,678.97 431.91,678.97 431.91,666.86 422.26,666.86" fill="#faffa8" />
  <polygon points="422.26,692.14 431.91,692.14 431.91,680.02 422.26,680.02" fill="#faffa8" />
  <polygon points="422.26,705.30 431.91,705.30 431.91,693.19 422.26,693.19" fill="#faffa8" />
  <polygon points="422.26,718.47 431.91,718.47 431.91,706.36 422.26,706.36" fill="#faffa8" />
  <polygon points="401.28,731.63 410.93,731.63 410.93,719.52 401.28,719.52" fill="#faffa8" />
  <polygon points="411.77,731.63 421.42,731.63 421.42,719.52 411.77,719.52" fill="#faffa8" />
  <polygon points="422.26,731.63 431.91,731.63 431.91,719.52 422.26,719.52" fill="#faffa8" />
  <polygon points="432.75,731.63 442.40,731.63 442.40,719.52 432.75,719.52" fill="#faffa8" />
  <polygon points="443.24,731.63 452.89,731.63 452.89,719.52 443.24,719.52" fill="#faffa8" />
  <polygon points="464.22,652.64 473.87,652.64 473.87,640.53 464.22,640.53" fill="#faffa8" />
  <polygon points="474.71,652.64 484.36,652.64 484.36,640.53 474.71,640.53" fill="#faffa8" />
  <polygon points="485.20,652.64 494.85,652.64 494.85,640.53 485.20,640.53" fill="#faffa8" />
  <polygon points="495.69,652.64 505.34,652.64 505.34,640.53 495.69,640.53" fill="#faffa8" />
  <polygon points="464.22,665.80 473.87,665.80 473.87,653.69 464.22,653.69" fill="#faffa8" />
  <polygon points="506.18,665.80 515.83,665.80 515.83,653.69 506.18,653.69" fill="#faffa8" />
  <polygon points="464.22,678.97 473.87,678.97 473.87,666.86 464.22,666.86" fill="#faffa8" />
  <polygon points="506.18,678.97 515.83,678.97 515.83,666.86 506.18,666.86" fill="#faffa8" />
  <polygon points="464.22,692.14 473.87,692.14 473.87,680.02 464.22,680.02" fill="#faffa8" />
  <polygon points="474.71,692.14 484.36,692.14 484.36,680.02 474.71,680.02" fill="#faffa8" />
  <polygon points="485.20,692.14 494.85,692.14 494.85,680.02 485.20,680.02" fill="#faffa8" />
  <polygon points="495.69,692.14 505.34,692.14 505.34,680.02 495.69,680.02" fill="#faffa8" />
  <polygon points="464.22,705.30 473.87,705.30 473.87,693.19 464.22,693.19" fill="#faffa8" />
  <polygon points="485.20,705.30 494.85,705.30 494.85,693.19 485.20,693.19" fill="#faffa8" />
  <polygon points="464.22,718.47 473.87,718.47 473.87,706.36 464.22,706.36" fill="#faffa8" />
  <polygon points="495.69,718.47 505.34,718.47 505.34,706.36 495.69,706.36" fill="#faffa8" />
  <polygon points="464.22,731.63 473.87,731.63 473.87,719.52 464.22,719.52" fill="#faffa8" />
  <polygon points="506.18,731.63 515.83,731.63 515.83,719.52 506.18,719.52" fill="#faffa8" />
  <polygon points="527.16,652.64 536.81,652.64 536.81,640.53 527.16,640.53" fill="#faffa8" />
  <polygon points="537.64,652.64 547.30,652.64 547.30,640.53 537.64,640.53" fill="#faffa8" />
  <polygon points="548.13,652.64 557.79,652.64 557.79,640.53 548.13,640.53" fill="#faffa8" />
  <polygon points="558.62,652.64 568.28,652.64 568.28,640.53 558.62,640.53" fill="#faffa8" />
  <polygon points="527.16,665.80 536.81,665.80 536.81,653.69 527.16,653.69" fill="#faffa8" />
  <polygon points="569.11,665.80 578.76,665.80 578.76,653.69 569.11,653.69" fill="#faffa8" />
  <polygon points="527.16,678.97 536.81,678.97 536.81,666.86 527.16,666.86" fill="#faffa8" />
  <polygon points="569.11,678.97 578.76,678.97 578.76,666.86 569.11,666.86" fill="#faffa8" />
  <polygon points="527.16,692.14 536.81,692.14 536.81,680.02 527.16,680.02" fill="#faffa8" />
  <polygon points="537.64,692.14 547.30,692.14 547.30,680.02 537.64,680.02" fill="#faffa8" />
  <polygon points="548.13,692.14 557.79,692.14 557.79,680.02 548.13,680.02" fill="#faffa8" />
  <polygon points="558.62,692.14 568.28,692.14 568.28,680.02 558.62,680.02" fill="#faffa8" />
  <polygon points="527.16,705.30 536.81,705.30 536.81,693.19 527.16,693.19" fill="#faffa8" />
  <polygon points="527.16,718.47 536.81,718.47 536.81,706.36 527.16,706.36" fill="#faffa8" />
  <polygon points="527.16,731.63 536.81,731.63 536.81,719.52 527.16,719.52" fill="#faffa8" />
  <polygon points="600.58,652.64 610.23,652.64 610.23,640.53 600.58,640.53" fill="#faffa8" />
  <polygon points="611.07,652.64 620.72,652.64 620.72,640.53 611.07,640.53" fill="#faffa8" />
  <polygon points="621.56,652.64 631.21,652.64 631.21,640.53 621.56,640.53" fill="#faffa8" />
  <polygon points="590.09,665.80 599.74,665.80 599.74,653.69 590.09,653.69" fill="#faffa8" />
  <polygon points="632.05,665.80 641.70,665.80 641.70,653.69 632.05,653.69" fill="#faffa8" />
  <polygon points="590.09,678.97 599.74,678.97 599.74,666.86 590.09,666.86" fill="#faffa8" />
  <polygon points="632.05,678.97 641.70,678.97 641.70,666.86 632.05,666.86" fill="#faffa8" />
  <polygon points="590.09,692.14 599.74,692.14 599.74,680.02 590.09,680.02" fill="#faffa8" />
  <polygon points="632.05,692.14 641.70,692.14 641.70,680.02 632.05,680.02" fill="#faffa8" />
  <polygon points="590.09,705.30 599.74,705.30 599.74,693.19 590.09,693.19" fill="#faffa8" />
  <polygon points="632.05,705.30 641.70,705.30 641.70,693.19 632.05,693.19" fill="#faffa8" />
  <polygon points="590.09,718.47 599.74,718.47 599.74,706.36 590.09,706.36" fill="#faffa8" />
  <polygon points="632.05,718.47 641.70,718.47 641.70,706.36 632.05,706.36" fill="#faffa8" />
  <polygon points="600.58,731.63 610.23,731.63 610.23,719.52 600.58,719.52" fill="#faffa8" />
  <polygon points="611.07,731.63 620.72,731.63 620.72,719.52 611.07,719.52" fill="#faffa8" />
  <polygon points="621.56,731.63 631.21,731.63 631.21,719.52 621.56,719.52" fill="#faffa8" />
  <polygon points="653.03,652.64 662.68,652.64 662.68,640.53 653.03,640.53" fill="#faffa8" />
  <polygon points="663.52,652.64 673.17,652.64 673.17,640.53 663.52,640.53" fill="#faffa8" />
  <polygon points="674.01,652.64 683.66,652.64 683.66,640.53 674.01,640.53" fill="#faffa8" />
  <polygon points="684.50,652.64 694.15,652.64 694.15,640.53 684.50,640.53" fill="#faffa8" />
  <polygon points="653.03,665.80 662.68,665.80 662.68,653.69 653.03,653.69" fill="#faffa8" />
  <polygon points="694.99,665.80 704.64,665.80 704.64,653.69 694.99,653.69" fill="#faffa8" />
  <polygon points="653.03,678.97 662.68,678.97 662.68,666.86 653.03,666.86" fill="#faffa8" />
  <polygon points="694.99,678.97 704.64,678.97 704.64,666.86 694.99,666.86" fill="#faffa8" />
  <polygon points="653.03,692.14 662.68,692.14 662.68,680.02 653.03,680.02" fill="#faffa8" />
  <polygon points="663.52,692.14 673.17,692.14 673.17,680.02 663.52,680.02" fill="#faffa8" />
  <polygon points="674.01,692.14 683.66,692.14 683.66,680.02 674.01,680.02" fill="#faffa8" />
  <polygon points="684.50,692.14 694.15,692.14 694.15,680.02 684.50,680.02" fill="#faffa8" />
  <polygon points="653.03,705.30 662.68,705.30 662.68,693.19 653.03,693.19" fill="#faffa8" />
  <polygon points="674.01,705.30 683.66,705.30 683.66,693.19 674.01,693.19" fill="#faffa8" />
  <polygon points="653.03,718.47 662.68,718.47 662.68,706.36 653.03,706.36" fill="#faffa8" />
  <polygon points="684.50,718.47 694.15,718.47 694.15,706.36 684.50,706.36" fill="#faffa8" />
  <polygon points="653.03,731.63 662.68,731.63 662.68,719.52 653.03,719.52" fill="#faffa8" />
  <polygon points="694.99,731.63 704.64,731.63 704.64,719.52 694.99,719.52" fill="#faffa8" />
  <polygon points="715.97,652.64 725.62,652.64 725.62,640.53 715.97,640.53" fill="#faffa8" />
  <polygon points="726.46,652.64 736.11,652.64 736.11,640.53 726.46,640.53" fill="#faffa8" />
  <polygon points="736.95,652.64 746.60,652.64 746.60,640.53 736.95,640.53" fill="#faffa8" />
  <polygon points="747.44,652.64 757.09,652.64 757.09,640.53 747.44,640.53" fill="#faffa8" />
  <polygon points="757.93,652.64 767.58,652.64 767.58,640.53 757.93,640.53" fill="#faffa8" />
  <polygon points="736.95,665.80 746.60,665.80 746.60,653.69 736.95,653.69" fill="#faffa8" />
  <polygon points="736.95,678.97 746.60,678.97 746.60,666.86 736.95,666.86" fill="#faffa8" />
  <polygon points="736.95,692.14 746.60,692.14 746.60,680.02 736.95,680.02" fill="#faffa8" />
  <polygon points="736.95,705.30 746.60,705.30 746.60,693.19 736.95,693.19" fill="#faffa8" />
  <polygon points="736.95,718.47 746.60,718.47 746.60,706.36 736.95,706.36" fill="#faffa8" />
  <polygon points="736.95,731.63 746.60,731.63 746.60,719.52 736.95,719.52" fill="#faffa8" />
  <polygon points="113.46,274.75 132.30,274.75 132.30,251.87 113.46,251.87" fill="#faffa8" />
  <polygon points="133.94,274.75 152.78,274.75 152.78,251.87 133.94,251.87" fill="#faffa8" />
  <polygon points="154.42,274.75 173.26,274.75 173.26,251.87 154.42,251.87" fill="#faffa8" />
  <polygon points="174.90,274.75 193.74,274.75 193.74,251.87 174.90,251.87" fill="#faffa8" />
  <polygon points="113.46,299.62 132.30,299.62 132.30,276.74 113.46,276.74" fill="#faffa8" />
  <polygon points="195.38,299.62 214.22,299.62 214.22,276.74 195.38,276.74" fill="#faffa8" />
  <polygon points="113.46,324.49 132.30,324.49 132.30,301.61 113.46,301.61" fill="#faffa8" />
  <polygon points="195.38,324.49 214.22,324.49 214.22,301.61 195.38,301.61" fill="#faffa8" />
  <polygon points="113.46,349.36 132.30,349.36 132.30,326.48 113.46,326.48" fill="#faffa8" />
  <polygon points="133.94,349.36 152.78,349.36 152.78,326.48 133.94,326.48" fill="#faffa8" />
  <polygon points="154.42,349.36 173.26,349.36 173.26,326.48 154.42,326.48" fill="#faffa8" />
  <polygon points="174.90,349.36 193.74,349.36 193.74,326.48 174.90,326.48" fill="#faffa8" />
  <polygon points="113.46,374.23 132.30,374.23 132.30,351.35 113.46,351.35" fill="#faffa8" />
  <polygon points="113.46,399.10 132.30,399.10 132.30,376.22 113.46,376.22" fill="#faffa8" />
  <polygon points="113.46,423.97 132.30,423.97 132.30,401.09 113.46,401.09" fill="#faffa8" />
  <polygon points="317.92,304.48 328.91,304.48 328.91,292.37 317.92,292.37" fill="#faffa8" />
  <polygon points="329.86,304.48 340.86,304.48 340.86,292.37 329.86,292.37" fill="#faffa8" />
  <polygon points="341.81,304.48 352.80,304.48 352.80,292.37 341.81,292.37" fill="#faffa8" />
  <polygon points="353.76,304.48 364.75,304.48 364.75,292.37 353.76,292.37" fill="#faffa8" />
  <polygon points="317.92,317.64 328.91,317.64 328.91,305.53 317.92,305.53" fill="#faffa8" />
  <polygon points="365.70,317.64 376.70,317.64 376.70,305.53 365.70,305.53" fill="#faffa8" />
  <polygon points="317.92,330.81 328.91,330.81 328.91,318.70 317.92,318.70" fill="#faffa8" />
  <polygon points="365.70,330.81 376.70,330.81 376.70,318.70 365.70,318.70" fill="#faffa8" />
  <polygon points="317.92,343.98 328.91,343.98 328.91,331.86 317.92,331.86" fill="#faffa8" />
  <polygon points="329.86,343.98 340.86,343.98 340.86,331.86 329.86,331.86" fill="#faffa8" />
  <polygon points="341.81,343.98 352.80,343.98 352.80,331.86 341.81,331.86" fill="#faffa8" />
  <polygon points="353.76,343.98 364.75,343.98 364.75,331.86 353.76,331.86" fill="#faffa8" />
  <polygon points="317.92,357.14 328.91,357.14 328.91,345.03 317.92,345.03" fill="#faffa8" />
  <polygon points="317.92,370.31 328.91,370.31 328.91,358.20 317.92,358.20" fill="#faffa8" />
  <polygon points="317.92,383.47 328.91,383.47 328.91,371.36 317.92,371.36" fill="#faffa8" />
  <polygon points="413.49,304.48 424.48,304.48 424.48,292.37 413.49,292.37" fill="#faffa8" />
  <polygon points="401.54,317.64 412.54,317.64 412.54,305.53 401.54,305.53" fill="#faffa8" />
  <polygon points="425.44,317.64 436.43,317.64 436.43,305.53 425.44,305.53" fill="#faffa8" />
  <polygon points="389.60,330.81 400.59,330.81 400.59,318.70 389.60,318.70" fill="#faffa8" />
  <polygon points="437.38,330.81 448.38,330.81 448.38,318.70 437.38,318.70" fill="#faffa8" />
  <polygon points="389.60,343.98 400.59,343.98 400.59,331.86 389.60,331.86" fill="#faffa8" />
  <polygon points="437.38,343.98 448.38,343.98 448.38,331.86 437.38,331.86" fill="#faffa8" />
  <polygon points="389.60,357.14 400.59,357.14 400.59,345.03 389.60,345.03" fill="#faffa8" />
  <polygon points="401.54,357.14 412.54,357.14 412.54,345.03 401.54,345.03" fill="#faffa8" />
  <polygon points="413.49,357.14 424.48,357.14 424.48,345.03 413.49,345.03" fill="#faffa8" />
  <polygon points="425.44,357.14 436.43,357.14 436.43,345.03 425.44,345.03" fill="#faffa8" />
  <polygon points="437.38,357.14 448.38,357.14 448.38,345.03 437.38,345.03" fill="#faffa8" />
  <polygon points="389.60,370.31 400.59,370.31 400.59,358.20 389.60,358.20" fill="#faffa8" />
  <polygon points="437.38,370.31 448.38,370.31 448.38,358.20 437.38,358.20" fill="#faffa8" />
  <polygon points="389.60,383.47 400.59,383.47 400.59,371.36 389.60,371.36" fill="#faffa8" />
  <polygon points="437.38,383.47 448.38,383.47 448.38,371.36 437.38,371.36" fill="#faffa8" />
  <polygon points="461.28,304.48 472.27,304.48 472.27,292.37 461.28,292.37" fill="#faffa8" />
  <polygon points="473.22,304.48 484.22,304.48 484.22,292.37 473.22,292.37" fill="#faffa8" />
  <polygon points="485.17,304.48 496.16,304.48 496.16,292.37 485.17,292.37" fill="#faffa8" />
  <polygon points="497.12,304.48 508.11,304.48 508.11,292.37 497.12,292.37" fill="#faffa8" />
  <polygon points="461.28,317.64 472.27,317.64 472.27,305.53 461.28,305.53" fill="#faffa8" />
  <polygon points="509.06,317.64 520.06,317.64 520.06,305.53 509.06,305.53" fill="#faffa8" />
  <polygon points="461.28,330.81 472.27,330.81 472.27,318.70 461.28,318.70" fill="#faffa8" />
  <polygon points="509.06,330.81 520.06,330.81 520.06,318.70 509.06,318.70" fill="#faffa8" />
  <polygon points="461.28,343.98 472.27,343.98 472.27,331.86 461.28,331.86" fill="#faffa8" />
  <polygon points="473.22,343.98 484.22,343.98 484.22,331.86 473.22,331.86" fill="#faffa8" />
  <polygon points="485.17,343.98 496.16,343.98 496.16,331.86 485.17,331.86" fill="#faffa8" />
  <polygon points="497.12,343.98 508.11,343.98 508.11,331.86 497.12,331.86" fill="#faffa8" />
  <polygon points="461.28,357.14 472.27,357.14 472.27,345.03 461.28,345.03" fill="#faffa8" />
  <polygon points="485.17,357.14 496.16,357.14 496.16,345.03 485.17,345.03" fill="#faffa8" />
  <polygon points="461.28,370.31 472.27,370.31 472.27,358.20 461.28,358.20" fill="#faffa8" />
  <polygon points="497.12,370.31 508.11,370.31 508.11,358.20 497.12,358.20" fill="#faffa8" />
  <polygon points="461.28,383.47 472.27,383.47 472.27,371.36 461.28,371.36" fill="#faffa8" />
  <polygon points="509.06,383.47 520.06,383.47 520.06,371.36 509.06,371.36" fill="#faffa8" />
  <polygon points="532.96,304.48 543.95,304.48 543.95,292.37 532.96,292.37" fill="#faffa8" />
  <polygon points="580.74,304.48 591.74,304.48 591.74,292.37 580.74,292.37" fill="#faffa8" />
  <polygon points="532.96,317.64 543.95,317.64 543.95,305.53 532.96,305.53" fill="#faffa8" />
  <polygon points="568.80,317.64 579.79,317.64 579.79,305.53 568.80,305.53" fill="#faffa8" />
  <polygon points="532.96,330.81 543.95,330.81 543.95,318.70 532.96,318.70" fill="#faffa8" />
  <polygon points="556.85,330.81 567.84,330.81 567.84,318.70 556.85,318.70" fill="#faffa8" />
  <polygon points="532.96,343.98 543.95,343.98 543.95,331.86 532.96,331.86" fill="#faffa8" />
  <polygon points="544.90,343.98 555.90,343.98 555.90,331.86 544.90,331.86" fill="#faffa8" />
  <polygon points="532.96,357.14 543.95,357.14 543.95,345.03 532.96,345.03" fill="#faffa8" />
  <polygon points="556.85,357.14 567.84,357.14 567.84,345.03 556.85,345.03" fill="#faffa8" />
  <polygon points="532.96,370.31 543.95,370.31 543.95,358.20 532.96,358.20" fill="#faffa8" />
  <polygon points="568.80,370.31 579.79,370.31 579.79,358.20 568.80,358.20" fill="#faffa8" />
  <polygon points="532.96,383.47 543.95,383.47 543.95,371.36 532.96,371.36" fill="#faffa8" />
  <polygon points="580.74,383.47 591.74,383.47 591.74,371.36 580.74,371.36" fill="#faffa8" />
  <polygon points="604.64,304.48 615.63,304.48 615.63,292.37 604.64,292.37" fill="#faffa8" />
  <polygon points="616.58,304.48 627.58,304.48 627.58,292.37 616.58,292.37" fill="#faffa8" />
  <polygon points="628.53,304.48 639.52,304.48 639.52,292.37 628.53,292.37" fill="#faffa8" />
  <polygon points="640.48,304.48 651.47,304.48 651.47,292.37 640.48,292.37" fill="#faffa8" />
  <polygon points="652.42,304.48 663.42,304.48 663.42,292.37 652.42,292.37" fill="#faffa8" />
  <polygon points="628.53,317.64 639.52,317.64 639.52,305.53 628.53,305.53" fill="#faffa8" />
  <polygon points="628.53,330.81 639.52,330.81 639.52,318.70 628.53,318.70" fill="#faffa8" />
  <polygon points="628.53,343.98 639.52,343.98 639.52,331.86 628.53,331.86" fill="#faffa8" />
  <polygon points="628.53,357.14 639.52,357.14 639.52,345.03 628.53,345.03" fill="#faffa8" />
  <polygon points="628.53,370.31 639.52,370.31 639.52,358.20 628.53,358.20" fill="#faffa8" />
  <polygon points="604.64,383.47 615.63,383.47 615.63,371.36 604.64,371.36" fill="#faffa8" />
  <polygon points="616.58,383.47 627.58,383.47 627.58,371.36 616.58,371.36" fill="#faffa8" />
  <polygon points="628.53,383.47 639.52,383.47 639.52,371.36 628.53,371.36" fill="#faffa8" />
  <polygon points="640.48,383.47 651.47,383.47 651.47,371.36 640.48,371.36" fill="#faffa8" />
  <polygon points="652.42,383.47 663.42,383.47 663.42,371.36 652.42,371.36" fill="#faffa8" />
  <polygon points="676.32,304.48 687.31,304.48 687.31,292.37 676.32,292.37" fill="#faffa8" />
  <polygon points="724.10,304.48 735.10,304.48 735.10,292.37 724.10,292.37" fill="#faffa8" />
  <polygon points="676.32,317.64 687.31,317.64 687.31,305.53 676.32,305.53" fill="#faffa8" />
  <polygon points="688.26,317.64 699.26,317.64 699.26,305.53 688.26,305.53" fill="#faffa8" />
  <polygon points="724.10,317.64 735.10,317.64 735.10,305.53 724.10,305.53" fill="#faffa8" />
  <polygon points="676.32,330.81 687.31,330.81 687.31,318.70 676.32,318.70" fill="#faffa8" />
  <polygon points="700.21,330.81 711.20,330.81 711.20,318.70 700.21,318.70" fill="#faffa8" />
  <polygon points="724.10,330.81 735.10,330.81 735.10,318.70 724.10,318.70" fill="#faffa8" />
  <polygon points="676.32,343.98 687.31,343.98 687.31,331.86 676.32,331.86" fill="#faffa8" />
  <polygon points="712.16,343.98 723.15,343.98 723.15,331.86 712.16,331.86" fill="#faffa8" />
  <polygon points="724.10,343.98 735.10,343.98 735.10,331.86 724.10,331.86" fill="#faffa8" />
  <polygon points="676.32,357.14 687.31,357.14 687.31,345.03 676.32,345.03" fill="#faffa8" />
  <polygon points="724.10,357.14 735.10,357.14 735.10,345.03 724.10,345.03" fill="#faffa8" />
  <polygon points="676.32,370.31 687.31,370.31 687.31,358.20 676.32,358.20" fill="#faffa8" />
  <polygon points="724.10,370.31 735.10,370.31 735.10,358.20 724.10,358.20" fill="#faffa8" />
  <polygon points="676.32,383.47 687.31,383.47 687.31,371.36 676.32,371.36" fill="#faffa8" />
  <polygon points="724.10,383.47 735.10,383.47 735.10,371.36 724.10,371.36" fill="#faffa8" />
  <polygon points="716.80,307.20 788.48,307.20 788.48,368.64 716.80,368.64" fill="#faffa8" />
  <polygon points="901.12,337.92 788.48,256.00 788.48,419.84" fill="#faffa8" />
</svg>
