<svg xmlns="http://www.w3.org/2000/svg" viewBox="0 0 1024 1024">
  <polygon points="983.04,512.00 977.24,438.31 959.99,366.44 931.70,298.15 893.08,235.13 845.08,178.92 788.87,130.92 725.85,92.30 657.56,64.01 585.69,46.76 512.00,40.96 438.31,46.76 366.44,64.01 298.15,92.30 235.13,130.92 178.92,178.92 130.92,235.13 92.30,298.15 64.01,366.44 46.76,438.31 40.96,512.00 46.76,585.69 64.01,657.56 92.30,725.85 130.92,788.87 178.92,845.08 235.13,893.08 298.15,931.70 366.44,959.99 438.31,977.24 512.00,983.04 585.69,977.24 657.56,959.99 725.85,931.70 788.87,893.08 845.08,845.08 893.08,788.87 931.70,725.85 959.99,657.56 977.24,585.69" fill="#ff710f" />
  <polygon points="266.24,573.44 757.76,573.44 757.76,450.56 266.24,450.56" fill="#faffa8" />
  <polygon points="286.72,348.16 737.28,348.16 737.28,225.28 286.72,225.28" fill="#fff385" />
  <polygon points="248.63,769.82 468.98,722.98 447.69,622.82 227.34,669.66" fill="#fff385" />
  <polygon points="262.32,407.31 712.88,734.99 679.76,780.53 229.20,452.85" fill="#fff385" />
</svg>
