<svg xmlns="http://www.w3.org/2000/svg" viewBox="0 0 1024 1024">
  <polygon points="845.08,178.92 178.92,178.92 178.92,845.08 845.08,845.08" fill="#ffc437" />
  <polygon points="550.09,321.95 545.32,297.96 531.74,277.63 511.41,264.05 487.42,259.28 463.44,264.05 443.11,277.63 429.53,297.96 424.76,321.95 429.53,345.93 443.11,366.26 463.44,379.84 487.42,384.61 511.41,379.84 531.74,366.26 545.32,345.93" fill="#f9ffa8" />
  <polygon points="508.31,405.50 508.31,544.77 466.53,544.77 466.53,405.50" fill="#f9ffa8" />
  <polygon points="491.65,478.10 380.23,505.95 371.79,472.17 483.20,444.32" fill="#f9ffa8" />
  <polygon points="491.65,444.32 603.06,472.17 594.61,505.95 483.20,478.10" fill="#f9ffa8" />
  <polygon points="502.11,554.11 404.63,707.30 375.25,688.61 472.74,535.42" fill="#f9ffa8" />
  <polygon points="501.02,533.89 612.43,673.16 585.24,694.91 473.83,555.64" fill="#f9ffa8" />
  <polygon points="543.69,518.87 674.76,666.33 644.15,693.54 513.08,546.09" fill="#f9ffa8" />
  <polygon points="593.92,659.46 675.84,659.46 675.84,700.42 593.92,700.42" fill="#f9ffa8" />
</svg>
