<svg xmlns="http://www.w3.org/2000/svg" viewBox="0 0 1024 1024">
  <polygon points="20.48,798.72 1003.52,798.72 1003.52,225.28 20.48,225.28" fill="#faffa8" />
  <polygon points="51.20,768.00 972.80,768.00 972.80,256.00 51.20,256.00" fill="#bdff58" />
  <polygon points="496.64,737.28 496.64,286.72 527.36,286.72 527.36,737.28" fill="#faffa8" />
  <polygon points="63.69,653.93 304.95,653.93 304.95,615.83 63.69,615.83" fill="#faffa8" />
  <polygon points="336.69,634.88 273.20,584.09 273.20,685.67" fill="#faffa8" />
  <polygon points="161.08,646.74 46.80,545.16 67.89,521.44 182.17,623.02" fill="#faffa8" />
  <polygon points="182.17,646.74 67.89,748.32 46.80,724.60 161.08,623.02" fill="#faffa8" />
  <polygon points="212.66,626.75 276.15,550.57 295.66,566.82 232.17,643.01" fill="#faffa8" />
  <polygon points="232.17,626.75 295.66,702.94 276.15,719.19 212.66,643.01" fill="#faffa8" />
  <polygon points="241.58,608.87 248.94,608.87 248.94,599.45 241.58,599.45" fill="#faffa8" />
  <polygon points="233.59,619.11 240.94,619.11 240.94,609.69 233.59,609.69" fill="#faffa8" />
  <polygon points="249.58,619.11 256.93,619.11 256.93,609.69 249.58,609.69" fill="#faffa8" />
  <polygon points="225.60,629.35 232.95,629.35 232.95,619.93 225.60,619.93" fill="#faffa8" />
  <polygon points="257.57,629.35 264.92,629.35 264.92,619.93 257.57,619.93" fill="#faffa8" />
  <polygon points="225.60,639.59 232.95,639.59 232.95,630.17 225.60,630.17" fill="#faffa8" />
  <polygon points="257.57,639.59 264.92,639.59 264.92,630.17 257.57,630.17" fill="#faffa8" />
  <polygon points="225.60,649.83 232.95,649.83 232.95,640.41 225.60,640.41" fill="#faffa8" />
  <polygon points="233.59,649.83 240.94,649.83 240.94,640.41 233.59,640.41" fill="#faffa8" />
  <polygon points="241.58,649.83 248.94,649.83 248.94,640.41 241.58,640.41" fill="#faffa8" />
  <polygon points="249.58,649.83 256.93,649.83 256.93,640.41 249.58,640.41" fill="#faffa8" />
  <polygon points="257.57,649.83 264.92,649.83 264.92,640.41 257.57,640.41" fill="#faffa8" />
  <polygon points="225.60,660.07 232.95,660.07 232.95,650.65 225.60,650.65" fill="#faffa8" />
  <polygon points="257.57,660.07 264.92,660.07 264.92,650.65 257.57,650.65" fill="#faffa8" />
  <polygon points="225.60,670.31 232.95,670.31 232.95,660.89 225.60,660.89" fill="#faffa8" />
  <polygon points="257.57,670.31 264.92,670.31 264.92,660.89 257.57,660.89" fill="#faffa8" />
  <polygon points="273.55,608.87 280.91,608.87 280.91,599.45 273.55,599.45" fill="#faffa8" />
  <polygon points="281.55,608.87 288.90,608.87 288.90,599.45 281.55,599.45" fill="#faffa8" />
  <polygon points="289.54,608.87 296.89,608.87 296.89,599.45 289.54,599.45" fill="#faffa8" />
  <polygon points="297.53,608.87 304.88,608.87 304.88,599.45 297.53,599.45" fill="#faffa8" />
  <polygon points="305.52,608.87 312.87,608.87 312.87,599.45 305.52,599.45" fill="#faffa8" />
  <polygon points="289.54,619.11 296.89,619.11 296.89,609.69 289.54,609.69" fill="#faffa8" />
  <polygon points="289.54,629.35 296.89,629.35 296.89,619.93 289.54,619.93" fill="#faffa8" />
  <polygon points="289.54,639.59 296.89,639.59 296.89,630.17 289.54,630.17" fill="#faffa8" />
  <polygon points="289.54,649.83 296.89,649.83 296.89,640.41 289.54,640.41" fill="#faffa8" />
  <polygon points="289.54,660.07 296.89,660.07 296.89,650.65 289.54,650.65" fill="#faffa8" />
  <polygon points="273.55,670.31 280.91,670.31 280.91,660.89 273.55,660.89" fill="#faffa8" />
  <polygon points="281.55,670.31 288.90,670.31 288.90,660.89 281.55,660.89" fill="#faffa8" />
  <polygon points="289.54,670.31 296.89,670.31 296.89,660.89 289.54,660.89" fill="#faffa8" />
  <polygon points="297.53,670.31 304.88,670.31 304.88,660.89 297.53,660.89" fill="#faffa8" />
  <polygon points="305.52,670.31 312.87,670.31 312.87,660.89 305.52,660.89" fill="#faffa8" />
  <polygon points="321.51,608.87 328.86,608.87 328.86,599.45 321.51,599.45" fill="#faffa8" />
  <polygon points="329.50,608.87 336.85,608.87 336.85,599.45 329.50,599.45" fill="#faffa8" />
  <polygon points="337.49,608.87 344.84,608.87 344.84,599.45 337.49,599.45" fill="#faffa8" />
  <polygon points="345.48,608.87 352.84,608.87 352.84,599.45 345.48,599.45" fill="#faffa8" />
  <polygon points="321.51,619.11 328.86,619.11 328.86,609.69 321.51,609.69" fill="#faffa8" />
  <polygon points="353.47,619.11 360.83,619.11 360.83,609.69 353.47,609.69" fill="#faffa8" />
  <polygon points="321.51,629.35 328.86,629.35 328.86,619.93 321.51,619.93" fill="#faffa8" />
  <polygon points="353.47,629.35 360.83,629.35 360.83,619.93 353.47,619.93" fill="#faffa8" />
  <polygon points="321.51,639.59 328.86,639.59 328.86,630.17 321.51,630.17" fill="#faffa8" />
  <polygon points="329.50,639.59 336.85,639.59 336.85,630.17 329.50,630.17" fill="#faffa8" />
  <polygon points="337.49,639.59 344.84,639.59 344.84,630.17 337.49,630.17" fill="#faffa8" />
  <polygon points="345.48,639.59 352.84,639.59 352.84,630.17 345.48,630.17" fill="#faffa8" />
  <polygon points="321.51,649.83 328.86,649.83 328.86,640.41 321.51,640.41" fill="#faffa8" />
  <polygon points="337.49,649.83 344.84,649.83 344.84,640.41 337.49,640.41" fill="#faffa8" />
  <polygon points="321.51,660.07 328.86,660.07 328.86,650.65 321.51,650.65" fill="#faffa8" />
  <polygon points="345.48,660.07 352.84,660.07 352.84,650.65 345.48,650.65" fill="#faffa8" />
  <polygon points="321.51,670.31 328.86,670.31 328.86,660.89 321.51,660.89" fill="#faffa8" />
  <polygon points="353.47,670.31 360.83,670.31 360.83,660.89 353.47,660.89" fill="#faffa8" />
  <polygon points="369.46,608.87 376.81,608.87 376.81,599.45 369.46,599.45" fill="#faffa8" />
  <polygon points="377.45,608.87 384.80,608.87 384.80,599.45 377.45,599.45" fill="#faffa8" />
  <polygon points="385.44,608.87 392.80,608.87 392.80,599.45 385.44,599.45" fill="#faffa8" />
  <polygon points="393.44,608.87 400.79,608.87 400.79,599.45 393.44,599.45" fill="#faffa8" />
  <polygon points="369.46,619.11 376.81,619.11 376.81,609.69 369.46,609.69" fill="#faffa8" />
  <polygon points="401.43,619.11 408.78,619.11 408.78,609.69 401.43,609.69" fill="#faffa8" />
  <polygon points="369.46,629.35 376.81,629.35 376.81,619.93 369.46,619.93" fill="#faffa8" />
  <polygon points="401.43,629.35 408.78,629.35 408.78,619.93 401.43,619.93" fill="#faffa8" />
  <polygon points="369.46,639.59 376.81,639.59 376.81,630.17 369.46,630.17" fill="#faffa8" />
  <polygon points="377.45,639.59 384.80,639.59 384.80,630.17 377.45,630.17" fill="#faffa8" />
  <polygon points="385.44,639.59 392.80,639.59 392.80,630.17 385.44,630.17" fill="#faffa8" />
  <polygon points="393.44,639.59 400.79,639.59 400.79,630.17 393.44,630.17" fill="#faffa8" />
  <polygon points="369.46,649.83 376.81,649.83 376.81,640.41 369.46,640.41" fill="#faffa8" />
  <polygon points="369.46,660.07 376.81,660.07 376.81,650.65 369.46,650.65" fill="#faffa8" />
  <polygon points="369.46,670.31 376.81,670.31 376.81,660.89 369.46,660.89" fill="#faffa8" />
  <polygon points="425.40,608.87 432.76,608.87 432.76,599.45 425.40,599.45" fill="#faffa8" />
  <polygon points="433.40,608.87 440.75,608.87 440.75,599.45 433.40,599.45" fill="#faffa8" />
  <polygon points="441.39,608.87 448.74,608.87 448.74,599.45 441.39,599.45" fill="#faffa8" />
  <polygon points="417.41,619.11 424.77,619.11 424.77,609.69 417.41,609.69" fill="#faffa8" />
  <polygon points="449.38,619.11 456.73,619.11 456.73,609.69 449.38,609.69" fill="#faffa8" />
  <polygon points="417.41,629.35 424.77,629.35 424.77,619.93 417.41,619.93" fill="#faffa8" />
  <polygon points="449.38,629.35 456.73,629.35 456.73,619.93 449.38,619.93" fill="#faffa8" />
  <polygon points="417.41,639.59 424.77,639.59 424.77,630.17 417.41,630.17" fill="#faffa8" />
  <polygon points="449.38,639.59 456.73,639.59 456.73,630.17 449.38,630.17" fill="#faffa8" />
  <polygon points="417.41,649.83 424.77,649.83 424.77,640.41 417.41,640.41" fill="#faffa8" />
  <polygon points="449.38,649.83 456.73,649.83 456.73,640.41 449.38,640.41" fill="#faffa8" />
  <polygon points="417.41,660.07 424.77,660.07 424.77,650.65 417.41,650.65" fill="#faffa8" />
  <polygon points="449.38,660.07 456.73,660.07 456.73,650.65 449.38,650.65" fill="#faffa8" />
  <polygon points="425.40,670.31 432.76,670.31 432.76,660.89 425.40,660.89" fill="#faffa8" />
  <polygon points="433.40,670.31 440.75,670.31 440.75,660.89 433.40,660.89" fill="#faffa8" />
  <polygon points="441.39,670.31 448.74,670.31 448.74,660.89 441.39,660.89" fill="#faffa8" />
  <polygon points="465.37,608.87 472.72,608.87 472.72,599.45 465.37,599.45" fill="#faffa8" />
  <polygon points="473.36,608.87 480.71,608.87 480.71,599.45 473.36,599.45" fill="#faffa8" />
  <polygon points="481.35,608.87 488.70,608.87 488.70,599.45 481.35,599.45" fill="#faffa8" />
  <polygon points="489.34,608.87 496.69,608.87 496.69,599.45 489.34,599.45" fill="#faffa8" />
  <polygon points="465.37,619.11 472.72,619.11 472.72,609.69 465.37,609.69" fill="#faffa8" />
  <polygon points="497.33,619.11 504.69,619.11 504.69,609.69 497.33,609.69" fill="#faffa8" />
  <polygon points="465.37,629.35 472.72,629.35 472.72,619.93 465.37,619.93" fill="#faffa8" />
  <polygon points="497.33,629.35 504.69,629.35 504.69,619.93 497.33,619.93" fill="#faffa8" />
  <polygon points="465.37,639.59 472.72,639.59 472.72,630.17 465.37,630.17" fill="#faffa8" />
  <polygon points="473.36,639.59 480.71,639.59 480.71,630.17 473.36,630.17" fill="#faffa8" />
  <polygon points="481.35,639.59 488.70,639.59 488.70,630.17 481.35,630.17" fill="#faffa8" />
  <polygon points="489.34,639.59 496.69,639.59 496.69,630.17 489.34,630.17" fill="#faffa8" />
  <polygon points="465.37,649.83 472.72,649.83 472.72,640.41 465.37,640.41" fill="#faffa8" />
  <polygon points="481.35,649.83 488.70,649.83 488.70,640.41 481.35,640.41" fill="#faffa8" />
  <polygon points="465.37,660.07 472.72,660.07 472.72,650.65 465.37,650.65" fill="#faffa8" />
  <polygon points="489.34,660.07 496.69,660.07 496.69,650.65 489.34,650.65" fill="#faffa8" />
  <polygon points="465.37,670.31 472.72,670.31 472.72,660.89 465.37,660.89" fill="#faffa8" />
  <polygon points="497.33,670.31 504.69,670.31 504.69,660.89 497.33,660.89" fill="#faffa8" />
  <polygon points="513.32,608.87 520.67,608.87 520.67,599.45 513.32,599.45" fill="#faffa8" />
  <polygon points="521.31,608.87 528.66,608.87 528.66,599.45 521.31,599.45" fill="#faffa8" />
  <polygon points="529.30,608.87 536.66,608.87 536.66,599.45 529.30,599.45" fill="#faffa8" />
  <polygon points="537.30,608.87 544.65,608.87 544.65,599.45 537.30,599.45" fill="#faffa8" />
  <polygon points="545.29,608.87 552.64,608.87 552.64,599.45 545.29,599.45" fill="#faffa8" />
  <polygon points="529.30,619.11 536.66,619.11 536.66,609.69 529.30,609.69" fill="#faffa8" />
  <polygon points="529.30,629.35 536.66,629.35 536.66,619.93 529.30,619.93" fill="#faffa8" />
  <polygon points="529.30,639.59 536.66,639.59 536.66,630.17 529.30,630.17" fill="#faffa8" />
  <polygon points="529.30,649.83 536.66,649.83 536.66,640.41 529.30,640.41" fill="#faffa8" />
  <polygon points="529.30,660.07 536.66,660.07 536.66,650.65 529.30,650.65" fill="#faffa8" />
  <polygon points="529.30,670.31 536.66,670.31 536.66,660.89 529.30,660.89" fill="#faffa8" />
  <polygon points="634.99,605.15 644.14,605.15 644.14,594.39 634.99,594.39" fill="#faffa8" />
  <polygon points="644.93,605.15 654.08,605.15 654.08,594.39 644.93,594.39" fill="#faffa8" />
  <polygon points="654.88,605.15 664.03,605.15 664.03,594.39 654.88,594.39" fill="#faffa8" />
  <polygon points="625.04,616.86 634.19,616.86 634.19,606.09 625.04,606.09" fill="#faffa8" />
  <polygon points="664.83,616.86 673.98,616.86 673.98,606.09 664.83,606.09" fill="#faffa8" />
  <polygon points="625.04,628.56 634.19,628.56 634.19,617.79 625.04,617.79" fill="#faffa8" />
  <polygon points="625.04,640.26 634.19,640.26 634.19,629.50 625.04,629.50" fill="#faffa8" />
  <polygon points="625.04,651.97 634.19,651.97 634.19,641.20 625.04,641.20" fill="#faffa8" />
  <polygon points="625.04,663.67 634.19,663.67 634.19,652.90 625.04,652.90" fill="#faffa8" />
  <polygon points="664.83,663.67 673.98,663.67 673.98,652.90 664.83,652.90" fill="#faffa8" />
  <polygon points="634.99,675.37 644.14,675.37 644.14,664.61 634.99,664.61" fill="#faffa8" />
  <polygon points="644.93,675.37 654.08,675.37 654.08,664.61 644.93,664.61" fill="#faffa8" />
  <polygon points="654.88,675.37 664.03,675.37 664.03,664.61 654.88,664.61" fill="#faffa8" />
  <polygon points="684.72,605.15 693.87,605.15 693.87,594.39 684.72,594.39" fill="#faffa8" />
  <polygon points="694.67,605.15 703.82,605.15 703.82,594.39 694.67,594.39" fill="#faffa8" />
  <polygon points="704.62,605.15 713.77,605.15 713.77,594.39 704.62,594.39" fill="#faffa8" />
  <polygon points="714.56,605.15 723.72,605.15 723.72,594.39 714.56,594.39" fill="#faffa8" />
  <polygon points="724.51,605.15 733.66,605.15 733.66,594.39 724.51,594.39" fill="#faffa8" />
  <polygon points="684.72,616.86 693.87,616.86 693.87,606.09 684.72,606.09" fill="#faffa8" />
  <polygon points="684.72,628.56 693.87,628.56 693.87,617.79 684.72,617.79" fill="#faffa8" />
  <polygon points="684.72,640.26 693.87,640.26 693.87,629.50 684.72,629.50" fill="#faffa8" />
  <polygon points="694.67,640.26 703.82,640.26 703.82,629.50 694.67,629.50" fill="#faffa8" />
  <polygon points="704.62,640.26 713.77,640.26 713.77,629.50 704.62,629.50" fill="#faffa8" />
  <polygon points="714.56,640.26 723.72,640.26 723.72,629.50 714.56,629.50" fill="#faffa8" />
  <polygon points="684.72,651.97 693.87,651.97 693.87,641.20 684.72,641.20" fill="#faffa8" />
  <polygon points="684.72,663.67 693.87,663.67 693.87,652.90 684.72,652.90" fill="#faffa8" />
  <polygon points="684.72,675.37 693.87,675.37 693.87,664.61 684.72,664.61" fill="#faffa8" />
  <polygon points="694.67,675.37 703.82,675.37 703.82,664.61 694.67,664.61" fill="#faffa8" />
  <polygon points="704.62,675.37 713.77,675.37 713.77,664.61 704.62,664.61" fill="#faffa8" />
  <polygon points="714.56,675.37 723.72,675.37 723.72,664.61 714.56,664.61" fill="#faffa8" />
  <polygon points="724.51,675.37 733.66,675.37 733.66,664.61 724.51,664.61" fill="#faffa8" />
  <polygon points="744.41,605.15 753.56,605.15 753.56,594.39 744.41,594.39" fill="#faffa8" />
  <polygon points="784.20,605.15 793.35,605.15 793.35,594.39 784.20,594.39" fill="#faffa8" />
  <polygon points="744.41,616.86 753.56,616.86 753.56,606.09 744.41,606.09" fill="#faffa8" />
  <polygon points="754.35,616.86 763.51,616.86 763.51,606.09 754.35,606.09" fill="#faffa8" />
  <polygon points="784.20,616.86 793.35,616.86 793.35,606.09 784.20,606.09" fill="#faffa8" />
  <polygon points="744.41,628.56 753.56,628.56 753.56,617.79 744.41,617.79" fill="#faffa8" />
  <polygon points="764.30,628.56 773.45,628.56 773.45,617.79 764.30,617.79" fill="#faffa8" />
  <polygon points="784.20,628.56 793.35,628.56 793.35,617.79 784.20,617.79" fill="#faffa8" />
  <polygon points="744.41,640.26 753.56,640.26 753.56,629.50 744.41,629.50" fill="#faffa8" />
  <polygon points="774.25,640.26 783.40,640.26 783.40,629.50 774.25,629.50" fill="#faffa8" />
  <polygon points="784.20,640.26 793.35,640.26 793.35,629.50 784.20,629.50" fill="#faffa8" />
  <polygon points="744.41,651.97 753.56,651.97 753.56,641.20 744.41,641.20" fill="#faffa8" />
  <polygon points="784.20,651.97 793.35,651.97 793.35,641.20 784.20,641.20" fill="#faffa8" />
  <polygon points="744.41,663.67 753.56,663.67 753.56,652.90 744.41,652.90" fill="#faffa8" />
  <polygon points="784.20,663.67 793.35,663.67 793.35,652.90 784.20,652.90" fill="#faffa8" />
  <polygon points="744.41,675.37 753.56,675.37 753.56,664.61 744.41,664.61" fill="#faffa8" />
  <polygon points="784.20,675.37 793.35,675.37 793.35,664.61 784.20,664.61" fill="#faffa8" />
  <polygon points="804.09,605.15 813.24,605.15 813.24,594.39 804.09,594.39" fill="#faffa8" />
  <polygon points="814.04,605.15 823.19,605.15 823.19,594.39 814.04,594.39" fill="#faffa8" />
  <polygon points="823.99,605.15 833.14,605.15 833.14,594.39 823.99,594.39" fill="#faffa8" />
  <polygon points="833.93,605.15 843.09,605.15 843.09,594.39 833.93,594.39" fill="#faffa8" />
  <polygon points="843.88,605.15 853.03,605.15 853.03,594.39 843.88,594.39" fill="#faffa8" />
  <polygon points="823.99,616.86 833.14,616.86 833.14,606.09 823.99,606.09" fill="#faffa8" />
  <polygon points="823.99,628.56 833.14,628.56 833.14,617.79 823.99,617.79" fill="#faffa8" />
  <polygon points="823.99,640.26 833.14,640.26 833.14,629.50 823.99,629.50" fill="#faffa8" />
  <polygon points="823.99,651.97 833.14,651.97 833.14,641.20 823.99,641.20" fill="#faffa8" />
  <polygon points="823.99,663.67 833.14,663.67 833.14,652.90 823.99,652.90" fill="#faffa8" />
  <polygon points="823.99,675.37 833.14,675.37 833.14,664.61 823.99,664.61" fill="#faffa8" />
  <polygon points="863.78,605.15 872.93,605.15 872.93,594.39 863.78,594.39" fill="#faffa8" />
  <polygon points="873.72,605.15 882.88,605.15 882.88,594.39 873.72,594.39" fill="#faffa8" />
  <polygon points="883.67,605.15 892.82,605.15 892.82,594.39 883.67,594.39" fill="#faffa8" />
  <polygon points="893.62,605.15 902.77,605.15 902.77,594.39 893.62,594.39" fill="#faffa8" />
  <polygon points="863.78,616.86 872.93,616.86 872.93,606.09 863.78,606.09" fill="#faffa8" />
  <polygon points="903.57,616.86 912.72,616.86 912.72,606.09 903.57,606.09" fill="#faffa8" />
  <polygon points="863.78,628.56 872.93,628.56 872.93,617.79 863.78,617.79" fill="#faffa8" />
  <polygon points="903.57,628.56 912.72,628.56 912.72,617.79 903.57,617.79" fill="#faffa8" />
  <polygon points="863.78,640.26 872.93,640.26 872.93,629.50 863.78,629.50" fill="#faffa8" />
  <polygon points="873.72,640.26 882.88,640.26 882.88,629.50 873.72,629.50" fill="#faffa8" />
  <polygon points="883.67,640.26 892.82,640.26 892.82,629.50 883.67,629.50" fill="#faffa8" />
  <polygon points="893.62,640.26 902.77,640.26 902.77,629.50 893.62,629.50" fill="#faffa8" />
  <polygon points="863.78,651.97 872.93,651.97 872.93,641.20 863.78,641.20" fill="#faffa8" />
  <polygon points="883.67,651.97 892.82,651.97 892.82,641.20 883.67,641.20" fill="#faffa8" />
  <polygon points="863.78,663.67 872.93,663.67 872.93,652.90 863.78,652.90" fill="#faffa8" />
  <polygon points="893.62,663.67 902.77,663.67 902.77,652.90 893.62,652.90" fill="#faffa8" />
  <polygon points="863.78,675.37 872.93,675.37 872.93,664.61 863.78,664.61" fill="#faffa8" />
  <polygon points="903.57,675.37 912.72,675.37 912.72,664.61 903.57,664.61" fill="#faffa8" />
  <polygon points="923.46,605.15 932.61,605.15 932.61,594.39 923.46,594.39" fill="#faffa8" />
  <polygon points="933.41,605.15 942.56,605.15 942.56,594.39 933.41,594.39" fill="#faffa8" />
  <polygon points="943.36,605.15 952.51,605.15 952.51,594.39 943.36,594.39" fill="#faffa8" />
  <polygon points="953.30,605.15 962.45,605.15 962.45,594.39 953.30,594.39" fill="#faffa8" />
  <polygon points="963.25,605.15 972.40,605.15 972.40,594.39 963.25,594.39" fill="#faffa8" />
  <polygon points="923.46,616.86 932.61,616.86 932.61,606.09 923.46,606.09" fill="#faffa8" />
  <polygon points="923.46,628.56 932.61,628.56 932.61,617.79 923.46,617.79" fill="#faffa8" />
  <polygon points="923.46,640.26 932.61,640.26 932.61,629.50 923.46,629.50" fill="#faffa8" />
  <polygon points="933.41,640.26 942.56,640.26 942.56,629.50 933.41,629.50" fill="#faffa8" />
  <polygon points="943.36,640.26 952.51,640.26 952.51,629.50 943.36,629.50" fill="#faffa8" />
  <polygon points="953.30,640.26 962.45,640.26 962.45,629.50 953.30,629.50" fill="#faffa8" />
  <polygon points="923.46,651.97 932.61,651.97 932.61,641.20 923.46,641.20" fill="#faffa8" />
  <polygon points="923.46,663.67 932.61,663.67 932.61,652.90 923.46,652.90" fill="#faffa8" />
  <polygon points="923.46,675.37 932.61,675.37 932.61,664.61 923.46,664.61" fill="#faffa8" />
  <polygon points="933.41,675.37 942.56,675.37 942.56,664.61 933.41,664.61" fill="#faffa8" />
  <polygon points="943.36,675.37 952.51,675.37 952.51,664.61 943.36,664.61" fill="#faffa8" />
  <polygon points="953.30,675.37 962.45,675.37 962.45,664.61 953.30,664.61" fill="#faffa8" />
  <polygon points="963.25,675.37 972.40,675.37 972.40,664.61 963.25,664.61" fill="#faffa8" />
  <polygon points="220.16,491.52 220.16,378.88 271.36,378.88 271.36,491.52" fill="#faffa8" />
  <polygon points="245.76,276.48 174.08,378.88 317.44,378.88" fill="#faffa8" />
  <polygon points="752.64,491.52 752.64,378.88 803.84,378.88 803.84,491.52" fill="#faffa8" />
  <polygon points="778.24,276.48 706.56,378.88 849.92,378.88" fill="#faffa8" />
</svg>
