<svg xmlns="http://www.w3.org/2000/svg" viewBox="0 0 1024 1024">
  <polygon points="-20.48,716.80 1044.48,716.80 1044.48,307.20 -20.48,307.20" fill="#65f2ff" />
  <polygon points="102.83,580.96 112.66,580.96 112.66,568.85 102.83,568.85" fill="#faffa8" />
  <polygon points="113.51,580.96 123.34,580.96 123.34,568.85 113.51,568.85" fill="#faffa8" />
  <polygon points="124.20,580.96 134.03,580.96 134.03,568.85 124.20,568.85" fill="#faffa8" />
  <polygon points="134.88,580.96 144.71,580.96 144.71,568.85 134.88,568.85" fill="#faffa8" />
  <polygon points="145.57,580.96 155.40,580.96 155.40,568.85 145.57,568.85" fill="#faffa8" />
  <polygon points="124.20,594.12 134.03,594.12 134.03,582.01 124.20,582.01" fill="#faffa8" />
  <polygon points="124.20,607.29 134.03,607.29 134.03,595.18 124.20,595.18" fill="#faffa8" />
  <polygon points="124.20,620.46 134.03,620.46 134.03,608.34 124.20,608.34" fill="#faffa8" />
  <polygon points="124.20,633.62 134.03,633.62 134.03,621.51 124.20,621.51" fill="#faffa8" />
  <polygon points="124.20,646.79 134.03,646.79 134.03,634.68 124.20,634.68" fill="#faffa8" />
  <polygon points="124.20,659.95 134.03,659.95 134.03,647.84 124.20,647.84" fill="#faffa8" />
  <polygon points="166.94,580.96 176.77,580.96 176.77,568.85 166.94,568.85" fill="#faffa8" />
  <polygon points="177.62,580.96 187.45,580.96 187.45,568.85 177.62,568.85" fill="#faffa8" />
  <polygon points="188.31,580.96 198.14,580.96 198.14,568.85 188.31,568.85" fill="#faffa8" />
  <polygon points="198.99,580.96 208.82,580.96 208.82,568.85 198.99,568.85" fill="#faffa8" />
  <polygon points="166.94,594.12 176.77,594.12 176.77,582.01 166.94,582.01" fill="#faffa8" />
  <polygon points="209.68,594.12 219.51,594.12 219.51,582.01 209.68,582.01" fill="#faffa8" />
  <polygon points="166.94,607.29 176.77,607.29 176.77,595.18 166.94,595.18" fill="#faffa8" />
  <polygon points="209.68,607.29 219.51,607.29 219.51,595.18 209.68,595.18" fill="#faffa8" />
  <polygon points="166.94,620.46 176.77,620.46 176.77,608.34 166.94,608.34" fill="#faffa8" />
  <polygon points="177.62,620.46 187.45,620.46 187.45,608.34 177.62,608.34" fill="#faffa8" />
  <polygon points="188.31,620.46 198.14,620.46 198.14,608.34 188.31,608.34" fill="#faffa8" />
  <polygon points="198.99,620.46 208.82,620.46 208.82,608.34 198.99,608.34" fill="#faffa8" />
  <polygon points="166.94,633.62 176.77,633.62 176.77,621.51 166.94,621.51" fill="#faffa8" />
  <polygon points="188.31,633.62 198.14,633.62 198.14,621.51 188.31,621.51" fill="#faffa8" />
  <polygon points="166.94,646.79 176.77,646.79 176.77,634.68 166.94,634.68" fill="#faffa8" />
  <polygon points="198.99,646.79 208.82,646.79 208.82,634.68 198.99,634.68" fill="#faffa8" />
  <polygon points="166.94,659.95 176.77,659.95 176.77,647.84 166.94,647.84" fill="#faffa8" />
  <polygon points="209.68,659.95 219.51,659.95 219.51,647.84 209.68,647.84" fill="#faffa8" />
  <polygon points="252.42,580.96 262.25,580.96 262.25,568.85 252.42,568.85" fill="#faffa8" />
  <polygon points="241.74,594.12 251.57,594.12 251.57,582.01 241.74,582.01" fill="#faffa8" />
  <polygon points="263.11,594.12 272.94,594.12 272.94,582.01 263.11,582.01" fill="#faffa8" />
  <polygon points="231.05,607.29 240.88,607.29 240.88,595.18 231.05,595.18" fill="#faffa8" />
  <polygon points="273.79,607.29 283.62,607.29 283.62,595.18 273.79,595.18" fill="#faffa8" />
  <polygon points="231.05,620.46 240.88,620.46 240.88,608.34 231.05,608.34" fill="#faffa8" />
  <polygon points="273.79,620.46 283.62,620.46 283.62,608.34 273.79,608.34" fill="#faffa8" />
  <polygon points="231.05,633.62 240.88,633.62 240.88,621.51 231.05,621.51" fill="#faffa8" />
  <polygon points="241.74,633.62 251.57,633.62 251.57,621.51 241.74,621.51" fill="#faffa8" />
  <polygon points="252.42,633.62 262.25,633.62 262.25,621.51 252.42,621.51" fill="#faffa8" />
  <polygon points="263.11,633.62 272.94,633.62 272.94,621.51 263.11,621.51" fill="#faffa8" />
  <polygon points="273.79,633.62 283.62,633.62 283.62,621.51 273.79,621.51" fill="#faffa8" />
  <polygon points="231.05,646.79 240.88,646.79 240.88,634.68 231.05,634.68" fill="#faffa8" />
  <polygon points="273.79,646.79 283.62,646.79 283.62,634.68 273.79,634.68" fill="#faffa8" />
  <polygon points="231.05,659.95 240.88,659.95 240.88,647.84 231.05,647.84" fill="#faffa8" />
  <polygon points="273.79,659.95 283.62,659.95 283.62,647.84 273.79,647.84" fill="#faffa8" />
  <polygon points="295.16,580.96 304.99,580.96 304.99,568.85 295.16,568.85" fill="#faffa8" />
  <polygon points="337.90,580.96 347.73,580.96 347.73,568.85 337.90,568.85" fill="#faffa8" />
  <polygon points="295.16,594.12 304.99,594.12 304.99,582.01 295.16,582.01" fill="#faffa8" />
  <polygon points="305.85,594.12 315.68,594.12 315.68,582.01 305.85,582.01" fill="#faffa8" />
  <polygon points="327.22,594.12 337.05,594.12 337.05,582.01 327.22,582.01" fill="#faffa8" />
  <polygon points="337.90,594.12 347.73,594.12 347.73,582.01 337.90,582.01" fill="#faffa8" />
  <polygon points="295.16,607.29 304.99,607.29 304.99,595.18 295.16,595.18" fill="#faffa8" />
  <polygon points="316.53,607.29 326.36,607.29 326.36,595.18 316.53,595.18" fill="#faffa8" />
  <polygon points="337.90,607.29 347.73,607.29 347.73,595.18 337.90,595.18" fill="#faffa8" />
  <polygon points="295.16,620.46 304.99,620.46 304.99,608.34 295.16,608.34" fill="#faffa8" />
  <polygon points="316.53,620.46 326.36,620.46 326.36,608.34 316.53,608.34" fill="#faffa8" />
  <polygon points="337.90,620.46 347.73,620.46 347.73,608.34 337.90,608.34" fill="#faffa8" />
  <polygon points="295.16,633.62 304.99,633.62 304.99,621.51 295.16,621.51" fill="#faffa8" />
  <polygon points="337.90,633.62 347.73,633.62 347.73,621.51 337.90,621.51" fill="#faffa8" />
  <polygon points="295.16,646.79 304.99,646.79 304.99,634.68 295.16,634.68" fill="#faffa8" />
  <polygon points="337.90,646.79 347.73,646.79 347.73,634.68 337.90,634.68" fill="#faffa8" />
  <polygon points="295.16,659.95 304.99,659.95 304.99,647.84 295.16,647.84" fill="#faffa8" />
  <polygon points="337.90,659.95 347.73,659.95 347.73,647.84 337.90,647.84" fill="#faffa8" />
  <polygon points="276.93,359.39 287.25,359.39 287.25,348.63 276.93,348.63" fill="#faffa8" />
  <polygon points="288.14,359.39 298.46,359.39 298.46,348.63 288.14,348.63" fill="#faffa8" />
  <polygon points="299.36,359.39 309.68,359.39 309.68,348.63 299.36,348.63" fill="#faffa8" />
  <polygon points="310.57,359.39 320.89,359.39 320.89,348.63 310.57,348.63" fill="#faffa8" />
  <polygon points="276.93,371.10 287.25,371.10 287.25,360.33 276.93,360.33" fill="#faffa8" />
  <polygon points="321.79,371.10 332.11,371.10 332.11,360.33 321.79,360.33" fill="#faffa8" />
  <polygon points="276.93,382.80 287.25,382.80 287.25,372.03 276.93,372.03" fill="#faffa8" />
  <polygon points="321.79,382.80 332.11,382.80 332.11,372.03 321.79,372.03" fill="#faffa8" />
  <polygon points="276.93,394.50 287.25,394.50 287.25,383.74 276.93,383.74" fill="#faffa8" />
  <polygon points="288.14,394.50 298.46,394.50 298.46,383.74 288.14,383.74" fill="#faffa8" />
  <polygon points="299.36,394.50 309.68,394.50 309.68,383.74 299.36,383.74" fill="#faffa8" />
  <polygon points="310.57,394.50 320.89,394.50 320.89,383.74 310.57,383.74" fill="#faffa8" />
  <polygon points="276.93,406.21 287.25,406.21 287.25,395.44 276.93,395.44" fill="#faffa8" />
  <polygon points="276.93,417.91 287.25,417.91 287.25,407.14 276.93,407.14" fill="#faffa8" />
  <polygon points="276.93,429.61 287.25,429.61 287.25,418.85 276.93,418.85" fill="#faffa8" />
  <polygon points="344.22,359.39 354.54,359.39 354.54,348.63 344.22,348.63" fill="#faffa8" />
  <polygon points="344.22,371.10 354.54,371.10 354.54,360.33 344.22,360.33" fill="#faffa8" />
  <polygon points="344.22,382.80 354.54,382.80 354.54,372.03 344.22,372.03" fill="#faffa8" />
  <polygon points="344.22,394.50 354.54,394.50 354.54,383.74 344.22,383.74" fill="#faffa8" />
  <polygon points="344.22,406.21 354.54,406.21 354.54,395.44 344.22,395.44" fill="#faffa8" />
  <polygon points="344.22,417.91 354.54,417.91 354.54,407.14 344.22,407.14" fill="#faffa8" />
  <polygon points="344.22,429.61 354.54,429.61 354.54,418.85 344.22,418.85" fill="#faffa8" />
  <polygon points="355.44,429.61 365.75,429.61 365.75,418.85 355.44,418.85" fill="#faffa8" />
  <polygon points="366.65,429.61 376.97,429.61 376.97,418.85 366.65,418.85" fill="#faffa8" />
  <polygon points="377.87,429.61 388.18,429.61 388.18,418.85 377.87,418.85" fill="#faffa8" />
  <polygon points="389.08,429.61 399.40,429.61 399.40,418.85 389.08,418.85" fill="#faffa8" />
  <polygon points="433.94,359.39 444.26,359.39 444.26,348.63 433.94,348.63" fill="#faffa8" />
  <polygon points="422.73,371.10 433.04,371.10 433.04,360.33 422.73,360.33" fill="#faffa8" />
  <polygon points="445.16,371.10 455.48,371.10 455.48,360.33 445.16,360.33" fill="#faffa8" />
  <polygon points="411.51,382.80 421.83,382.80 421.83,372.03 411.51,372.03" fill="#faffa8" />
  <polygon points="456.37,382.80 466.69,382.80 466.69,372.03 456.37,372.03" fill="#faffa8" />
  <polygon points="411.51,394.50 421.83,394.50 421.83,383.74 411.51,383.74" fill="#faffa8" />
  <polygon points="456.37,394.50 466.69,394.50 466.69,383.74 456.37,383.74" fill="#faffa8" />
  <polygon points="411.51,406.21 421.83,406.21 421.83,395.44 411.51,395.44" fill="#faffa8" />
  <polygon points="422.73,406.21 433.04,406.21 433.04,395.44 422.73,395.44" fill="#faffa8" />
  <polygon points="433.94,406.21 444.26,406.21 444.26,395.44 433.94,395.44" fill="#faffa8" />
  <polygon points="445.16,406.21 455.48,406.21 455.48,395.44 445.16,395.44" fill="#faffa8" />
  <polygon points="456.37,406.21 466.69,406.21 466.69,395.44 456.37,395.44" fill="#faffa8" />
  <polygon points="411.51,417.91 421.83,417.91 421.83,407.14 411.51,407.14" fill="#faffa8" />
  <polygon points="456.37,417.91 466.69,417.91 466.69,407.14 456.37,407.14" fill="#faffa8" />
  <polygon points="411.51,429.61 421.83,429.61 421.83,418.85 411.51,418.85" fill="#faffa8" />
  <polygon points="456.37,429.61 466.69,429.61 466.69,418.85 456.37,418.85" fill="#faffa8" />
  <polygon points="478.80,359.39 489.12,359.39 489.12,348.63 478.80,348.63" fill="#faffa8" />
  <polygon points="490.02,359.39 500.34,359.39 500.34,348.63 490.02,348.63" fill="#faffa8" />
  <polygon points="501.23,359.39 511.55,359.39 511.55,348.63 501.23,348.63" fill="#faffa8" />
  <polygon points="512.45,359.39 522.77,359.39 522.77,348.63 512.45,348.63" fill="#faffa8" />
  <polygon points="523.66,359.39 533.98,359.39 533.98,348.63 523.66,348.63" fill="#faffa8" />
  <polygon points="501.23,371.10 511.55,371.10 511.55,360.33 501.23,360.33" fill="#faffa8" />
  <polygon points="501.23,382.80 511.55,382.80 511.55,372.03 501.23,372.03" fill="#faffa8" />
  <polygon points="501.23,394.50 511.55,394.50 511.55,383.74 501.23,383.74" fill="#faffa8" />
  <polygon points="501.23,406.21 511.55,406.21 511.55,395.44 501.23,395.44" fill="#faffa8" />
  <polygon points="501.23,417.91 511.55,417.91 511.55,407.14 501.23,407.14" fill="#faffa8" />
  <polygon points="501.23,429.61 511.55,429.61 511.55,418.85 501.23,418.85" fill="#faffa8" />
  <polygon points="624.60,359.39 634.92,359.39 634.92,348.63 624.60,348.63" fill="#faffa8" />
  <polygon points="635.82,359.39 646.13,359.39 646.13,348.63 635.82,348.63" fill="#faffa8" />
  <polygon points="647.03,359.39 657.35,359.39 657.35,348.63 647.03,348.63" fill="#faffa8" />
  <polygon points="613.39,371.10 623.70,371.10 623.70,360.33 613.39,360.33" fill="#faffa8" />
  <polygon points="658.25,371.10 668.56,371.10 668.56,360.33 658.25,360.33" fill="#faffa8" />
  <polygon points="613.39,382.80 623.70,382.80 623.70,372.03 613.39,372.03" fill="#faffa8" />
  <polygon points="658.25,382.80 668.56,382.80 668.56,372.03 658.25,372.03" fill="#faffa8" />
  <polygon points="613.39,394.50 623.70,394.50 623.70,383.74 613.39,383.74" fill="#faffa8" />
  <polygon points="658.25,394.50 668.56,394.50 668.56,383.74 658.25,383.74" fill="#faffa8" />
  <polygon points="613.39,406.21 623.70,406.21 623.70,395.44 613.39,395.44" fill="#faffa8" />
  <polygon points="658.25,406.21 668.56,406.21 668.56,395.44 658.25,395.44" fill="#faffa8" />
  <polygon points="613.39,417.91 623.70,417.91 623.70,407.14 613.39,407.14" fill="#faffa8" />
  <polygon points="658.25,417.91 668.56,417.91 668.56,407.14 658.25,407.14" fill="#faffa8" />
  <polygon points="624.60,429.61 634.92,429.61 634.92,418.85 624.60,418.85" fill="#faffa8" />
  <polygon points="635.82,429.61 646.13,429.61 646.13,418.85 635.82,418.85" fill="#faffa8" />
  <polygon points="647.03,429.61 657.35,429.61 657.35,418.85 647.03,418.85" fill="#faffa8" />
  <polygon points="680.68,359.39 691.00,359.39 691.00,348.63 680.68,348.63" fill="#faffa8" />
  <polygon points="691.89,359.39 702.21,359.39 702.21,348.63 691.89,348.63" fill="#faffa8" />
  <polygon points="703.11,359.39 713.43,359.39 713.43,348.63 703.11,348.63" fill="#faffa8" />
  <polygon points="714.32,359.39 724.64,359.39 724.64,348.63 714.32,348.63" fill="#faffa8" />
  <polygon points="680.68,371.10 691.00,371.10 691.00,360.33 680.68,360.33" fill="#faffa8" />
  <polygon points="725.54,371.10 735.86,371.10 735.86,360.33 725.54,360.33" fill="#faffa8" />
  <polygon points="680.68,382.80 691.00,382.80 691.00,372.03 680.68,372.03" fill="#faffa8" />
  <polygon points="725.54,382.80 735.86,382.80 735.86,372.03 725.54,372.03" fill="#faffa8" />
  <polygon points="680.68,394.50 691.00,394.50 691.00,383.74 680.68,383.74" fill="#faffa8" />
  <polygon points="691.89,394.50 702.21,394.50 702.21,383.74 691.89,383.74" fill="#faffa8" />
  <polygon points="703.11,394.50 713.43,394.50 713.43,383.74 703.11,383.74" fill="#faffa8" />
  <polygon points="714.32,394.50 724.64,394.50 724.64,383.74 714.32,383.74" fill="#faffa8" />
  <polygon points="680.68,406.21 691.00,406.21 691.00,395.44 680.68,395.44" fill="#faffa8" />
  <polygon points="703.11,406.21 713.43,406.21 713.43,395.44 703.11,395.44" fill="#faffa8" />
  <polygon points="680.68,417.91 691.00,417.91 691.00,407.14 680.68,407.14" fill="#faffa8" />
  <polygon points="714.32,417.91 724.64,417.91 724.64,407.14 714.32,407.14" fill="#faffa8" />
  <polygon points="680.68,429.61 691.00,429.61 691.00,418.85 680.68,418.85" fill="#faffa8" />
  <polygon points="725.54,429.61 735.86,429.61 735.86,418.85 725.54,418.85" fill="#faffa8" />
  <polygon points="747.97,359.39 758.29,359.39 758.29,348.63 747.97,348.63" fill="#faffa8" />
  <polygon points="792.83,359.39 803.15,359.39 803.15,348.63 792.83,348.63" fill="#faffa8" />
  <polygon points="747.97,371.10 758.29,371.10 758.29,360.33 747.97,360.33" fill="#faffa8" />
  <polygon points="759.18,371.10 769.50,371.10 769.50,360.33 759.18,360.33" fill="#faffa8" />
  <polygon points="781.61,371.10 791.93,371.10 791.93,360.33 781.61,360.33" fill="#faffa8" />
  <polygon points="792.83,371.10 803.15,371.10 803.15,360.33 792.83,360.33" fill="#faffa8" />
  <polygon points="747.97,382.80 758.29,382.80 758.29,372.03 747.97,372.03" fill="#faffa8" />
  <polygon points="770.40,382.80 780.72,382.80 780.72,372.03 770.40,372.03" fill="#faffa8" />
  <polygon points="792.83,382.80 803.15,382.80 803.15,372.03 792.83,372.03" fill="#faffa8" />
  <polygon points="747.97,394.50 758.29,394.50 758.29,383.74 747.97,383.74" fill="#faffa8" />
  <polygon points="770.40,394.50 780.72,394.50 780.72,383.74 770.40,383.74" fill="#faffa8" />
  <polygon points="792.83,394.50 803.15,394.50 803.15,383.74 792.83,383.74" fill="#faffa8" />
  <polygon points="747.97,406.21 758.29,406.21 758.29,395.44 747.97,395.44" fill="#faffa8" />
  <polygon points="792.83,406.21 803.15,406.21 803.15,395.44 792.83,395.44" fill="#faffa8" />
  <polygon points="747.97,417.91 758.29,417.91 758.29,407.14 747.97,407.14" fill="#faffa8" />
  <polygon points="792.83,417.91 803.15,417.91 803.15,407.14 792.83,407.14" fill="#faffa8" />
  <polygon points="747.97,429.61 758.29,429.61 758.29,418.85 747.97,418.85" fill="#faffa8" />
  <polygon points="792.83,429.61 803.15,429.61 803.15,418.85 792.83,418.85" fill="#faffa8" />
  <polygon points="696.32,471.04 798.72,471.04 798.72,552.96 696.32,552.96" fill="#faffa8" />
  <polygon points="942.08,512.00 798.72,409.60 798.72,614.40" fill="#faffa8" />
</svg>
