<svg xmlns="http://www.w3.org/2000/svg" viewBox="0 0 1024 1024">
  <polygon points="202.34,1003.52 821.66,1003.52 942.08,590.64 778.65,276.07 512.00,20.48 245.35,276.07 81.92,590.64" fill="#faffa8" />
  <polygon points="246.58,942.08 777.42,942.08 880.64,590.64 740.56,276.07 512.00,81.92 283.44,276.07 143.36,590.64" fill="#bdff58" />
  <polygon points="428.96,666.59 446.09,666.59 446.09,655.83 428.96,655.83" fill="#faffa8" />
  <polygon points="447.58,666.59 464.71,666.59 464.71,655.83 447.58,655.83" fill="#faffa8" />
  <polygon points="466.20,666.59 483.33,666.59 483.33,655.83 466.20,655.83" fill="#faffa8" />
  <polygon points="410.34,678.30 427.47,678.30 427.47,667.53 410.34,667.53" fill="#faffa8" />
  <polygon points="484.82,678.30 501.95,678.30 501.95,667.53 484.82,667.53" fill="#faffa8" />
  <polygon points="410.34,690.00 427.47,690.00 427.47,679.23 410.34,679.23" fill="#faffa8" />
  <polygon points="410.34,701.70 427.47,701.70 427.47,690.94 410.34,690.94" fill="#faffa8" />
  <polygon points="410.34,713.41 427.47,713.41 427.47,702.64 410.34,702.64" fill="#faffa8" />
  <polygon points="410.34,725.11 427.47,725.11 427.47,714.34 410.34,714.34" fill="#faffa8" />
  <polygon points="484.82,725.11 501.95,725.11 501.95,714.34 484.82,714.34" fill="#faffa8" />
  <polygon points="428.96,736.81 446.09,736.81 446.09,726.05 428.96,726.05" fill="#faffa8" />
  <polygon points="447.58,736.81 464.71,736.81 464.71,726.05 447.58,726.05" fill="#faffa8" />
  <polygon points="466.20,736.81 483.33,736.81 483.33,726.05 466.20,726.05" fill="#faffa8" />
  <polygon points="559.29,666.59 576.42,666.59 576.42,655.83 559.29,655.83" fill="#faffa8" />
  <polygon points="540.67,678.30 557.80,678.30 557.80,667.53 540.67,667.53" fill="#faffa8" />
  <polygon points="577.91,678.30 595.04,678.30 595.04,667.53 577.91,667.53" fill="#faffa8" />
  <polygon points="522.05,690.00 539.18,690.00 539.18,679.23 522.05,679.23" fill="#faffa8" />
  <polygon points="596.53,690.00 613.66,690.00 613.66,679.23 596.53,679.23" fill="#faffa8" />
  <polygon points="522.05,701.70 539.18,701.70 539.18,690.94 522.05,690.94" fill="#faffa8" />
  <polygon points="596.53,701.70 613.66,701.70 613.66,690.94 596.53,690.94" fill="#faffa8" />
  <polygon points="522.05,713.41 539.18,713.41 539.18,702.64 522.05,702.64" fill="#faffa8" />
  <polygon points="540.67,713.41 557.80,713.41 557.80,702.64 540.67,702.64" fill="#faffa8" />
  <polygon points="559.29,713.41 576.42,713.41 576.42,702.64 559.29,702.64" fill="#faffa8" />
  <polygon points="577.91,713.41 595.04,713.41 595.04,702.64 577.91,702.64" fill="#faffa8" />
  <polygon points="596.53,713.41 613.66,713.41 613.66,702.64 596.53,702.64" fill="#faffa8" />
  <polygon points="522.05,725.11 539.18,725.11 539.18,714.34 522.05,714.34" fill="#faffa8" />
  <polygon points="596.53,725.11 613.66,725.11 613.66,714.34 596.53,714.34" fill="#faffa8" />
  <polygon points="522.05,736.81 539.18,736.81 539.18,726.05 522.05,726.05" fill="#faffa8" />
  <polygon points="596.53,736.81 613.66,736.81 613.66,726.05 596.53,726.05" fill="#faffa8" />
  <polygon points="498.81,299.94 525.19,299.94 525.19,267.64 498.81,267.64" fill="#faffa8" />
  <polygon points="470.14,335.05 496.52,335.05 496.52,302.75 470.14,302.75" fill="#faffa8" />
  <polygon points="498.81,335.05 525.19,335.05 525.19,302.75 498.81,302.75" fill="#faffa8" />
  <polygon points="498.81,370.16 525.19,370.16 525.19,337.86 498.81,337.86" fill="#faffa8" />
  <polygon points="498.81,405.27 525.19,405.27 525.19,372.97 498.81,372.97" fill="#faffa8" />
  <polygon points="498.81,440.38 525.19,440.38 525.19,408.08 498.81,408.08" fill="#faffa8" />
  <polygon points="498.81,475.49 525.19,475.49 525.19,443.19 498.81,443.19" fill="#faffa8" />
  <polygon points="470.14,510.60 496.52,510.60 496.52,478.30 470.14,478.30" fill="#faffa8" />
  <polygon points="498.81,510.60 525.19,510.60 525.19,478.30 498.81,478.30" fill="#faffa8" />
  <polygon points="527.48,510.60 553.86,510.60 553.86,478.30 527.48,478.30" fill="#faffa8" />
</svg>
