<svg xmlns="http://www.w3.org/2000/svg" viewBox="0 0 1024 1024">
  <polygon points="25.60,788.48 998.40,788.48 998.40,235.52 25.60,235.52" fill="#f9ffa8" />
  <polygon points="161.28,412.16 207.36,412.16 207.36,366.08 161.28,366.08" fill="#ff9c00" />
  <polygon points="325.12,412.16 371.20,412.16 371.20,366.08 325.12,366.08" fill="#ff9c00" />
  <polygon points="488.96,412.16 535.04,412.16 535.04,366.08 488.96,366.08" fill="#ff9c00" />
  <polygon points="652.80,412.16 698.88,412.16 698.88,366.08 652.80,366.08" fill="#ff9c00" />
  <polygon points="816.64,412.16 862.72,412.16 862.72,366.08 816.64,366.08" fill="#ff9c00" />
  <polygon points="243.20,494.08 289.28,494.08 289.28,448.00 243.20,448.00" fill="#ff9c00" />
  <polygon points="407.04,494.08 453.12,494.08 453.12,448.00 407.04,448.00" fill="#ff9c00" />
  <polygon points="570.88,494.08 616.96,494.08 616.96,448.00 570.88,448.00" fill="#ff9c00" />
  <polygon points="734.72,494.08 780.80,494.08 780.80,448.00 734.72,448.00" fill="#ff9c00" />
  <polygon points="161.28,576.00 207.36,576.00 207.36,529.92 161.28,529.92" fill="#ff9c00" />
  <polygon points="325.12,576.00 371.20,576.00 371.20,529.92 325.12,529.92" fill="#ff9c00" />
  <polygon points="488.96,576.00 535.04,576.00 535.04,529.92 488.96,529.92" fill="#ff9c00" />
  <polygon points="652.80,576.00 698.88,576.00 698.88,529.92 652.80,529.92" fill="#ff9c00" />
  <polygon points="816.64,576.00 862.72,576.00 862.72,529.92 816.64,529.92" fill="#ff9c00" />
  <polygon points="243.20,657.92 289.28,657.92 289.28,611.84 243.20,611.84" fill="#ff9c00" />
  <polygon points="407.04,657.92 453.12,657.92 453.12,611.84 407.04,611.84" fill="#ff9c00" />
  <polygon points="570.88,657.92 616.96,657.92 616.96,611.84 570.88,611.84" fill="#ff9c00" />
  <polygon points="734.72,657.92 780.80,657.92 780.80,611.84 734.72,611.84" fill="#ff9c00" />
</svg>
