<svg xmlns="http://www.w3.org/2000/svg" viewBox="0 0 1024 1024">
  <polygon points="20.48,798.72 1003.52,798.72 1003.52,225.28 20.48,225.28" fill="#faffa8" />
  <polygon points="51.20,768.00 972.80,768.00 972.80,256.00 51.20,256.00" fill="#bdff58" />
  <polygon points="6.14,660.48 206.85,660.48 206.85,560.13 6.14,560.13" fill="#faffa8" />
  <polygon points="242.69,674.82 343.04,674.82 343.04,588.80 242.69,588.80" fill="#faffa8" />
  <polygon points="285.70,624.64 328.70,624.64 328.70,595.97 285.70,595.97" fill="#faffa8" />
  <polygon points="113.66,696.32 110.11,680.77 100.17,668.30 85.80,661.38 69.85,661.38 55.48,668.30 45.53,680.77 41.98,696.32 45.53,711.87 55.48,724.34 69.85,731.26 85.80,731.26 100.17,724.34 110.11,711.87" fill="#faffa8" />
  <polygon points="257.02,696.32 253.47,680.77 243.53,668.30 229.16,661.38 213.21,661.38 198.84,668.30 188.89,680.77 185.34,696.32 188.89,711.87 198.84,724.34 213.21,731.26 229.16,731.26 243.53,724.34 253.47,711.87" fill="#faffa8" />
  <polygon points="371.71,696.32 368.16,680.77 358.22,668.30 343.85,661.38 327.90,661.38 313.53,668.30 303.58,680.77 300.03,696.32 303.58,711.87 313.53,724.34 327.90,731.26 343.85,731.26 358.22,724.34 368.16,711.87" fill="#faffa8" />
  <polygon points="307.60,594.91 316.69,594.91 316.69,584.15 307.60,584.15" fill="#faffa8" />
  <polygon points="317.48,594.91 326.58,594.91 326.58,584.15 317.48,584.15" fill="#faffa8" />
  <polygon points="327.37,594.91 336.47,594.91 336.47,584.15 327.37,584.15" fill="#faffa8" />
  <polygon points="337.26,594.91 346.35,594.91 346.35,584.15 337.26,584.15" fill="#faffa8" />
  <polygon points="347.14,594.91 356.24,594.91 356.24,584.15 347.14,584.15" fill="#faffa8" />
  <polygon points="327.37,606.62 336.47,606.62 336.47,595.85 327.37,595.85" fill="#faffa8" />
  <polygon points="327.37,618.32 336.47,618.32 336.47,607.55 327.37,607.55" fill="#faffa8" />
  <polygon points="327.37,630.02 336.47,630.02 336.47,619.26 327.37,619.26" fill="#faffa8" />
  <polygon points="327.37,641.73 336.47,641.73 336.47,630.96 327.37,630.96" fill="#faffa8" />
  <polygon points="327.37,653.43 336.47,653.43 336.47,642.66 327.37,642.66" fill="#faffa8" />
  <polygon points="327.37,665.13 336.47,665.13 336.47,654.37 327.37,654.37" fill="#faffa8" />
  <polygon points="366.92,594.91 376.01,594.91 376.01,584.15 366.92,584.15" fill="#faffa8" />
  <polygon points="376.80,594.91 385.90,594.91 385.90,584.15 376.80,584.15" fill="#faffa8" />
  <polygon points="386.69,594.91 395.79,594.91 395.79,584.15 386.69,584.15" fill="#faffa8" />
  <polygon points="396.58,594.91 405.67,594.91 405.67,584.15 396.58,584.15" fill="#faffa8" />
  <polygon points="366.92,606.62 376.01,606.62 376.01,595.85 366.92,595.85" fill="#faffa8" />
  <polygon points="406.46,606.62 415.56,606.62 415.56,595.85 406.46,595.85" fill="#faffa8" />
  <polygon points="366.92,618.32 376.01,618.32 376.01,607.55 366.92,607.55" fill="#faffa8" />
  <polygon points="406.46,618.32 415.56,618.32 415.56,607.55 406.46,607.55" fill="#faffa8" />
  <polygon points="366.92,630.02 376.01,630.02 376.01,619.26 366.92,619.26" fill="#faffa8" />
  <polygon points="376.80,630.02 385.90,630.02 385.90,619.26 376.80,619.26" fill="#faffa8" />
  <polygon points="386.69,630.02 395.79,630.02 395.79,619.26 386.69,619.26" fill="#faffa8" />
  <polygon points="396.58,630.02 405.67,630.02 405.67,619.26 396.58,619.26" fill="#faffa8" />
  <polygon points="366.92,641.73 376.01,641.73 376.01,630.96 366.92,630.96" fill="#faffa8" />
  <polygon points="386.69,641.73 395.79,641.73 395.79,630.96 386.69,630.96" fill="#faffa8" />
  <polygon points="366.92,653.43 376.01,653.43 376.01,642.66 366.92,642.66" fill="#faffa8" />
  <polygon points="396.58,653.43 405.67,653.43 405.67,642.66 396.58,642.66" fill="#faffa8" />
  <polygon points="366.92,665.13 376.01,665.13 376.01,654.37 366.92,654.37" fill="#faffa8" />
  <polygon points="406.46,665.13 415.56,665.13 415.56,654.37 406.46,654.37" fill="#faffa8" />
  <polygon points="426.24,594.91 435.33,594.91 435.33,584.15 426.24,584.15" fill="#faffa8" />
  <polygon points="465.79,594.91 474.88,594.91 474.88,584.15 465.79,584.15" fill="#faffa8" />
  <polygon points="426.24,606.62 435.33,606.62 435.33,595.85 426.24,595.85" fill="#faffa8" />
  <polygon points="465.79,606.62 474.88,606.62 474.88,595.85 465.79,595.85" fill="#faffa8" />
  <polygon points="426.24,618.32 435.33,618.32 435.33,607.55 426.24,607.55" fill="#faffa8" />
  <polygon points="465.79,618.32 474.88,618.32 474.88,607.55 465.79,607.55" fill="#faffa8" />
  <polygon points="426.24,630.02 435.33,630.02 435.33,619.26 426.24,619.26" fill="#faffa8" />
  <polygon points="465.79,630.02 474.88,630.02 474.88,619.26 465.79,619.26" fill="#faffa8" />
  <polygon points="426.24,641.73 435.33,641.73 435.33,630.96 426.24,630.96" fill="#faffa8" />
  <polygon points="465.79,641.73 474.88,641.73 474.88,630.96 465.79,630.96" fill="#faffa8" />
  <polygon points="426.24,653.43 435.33,653.43 435.33,642.66 426.24,642.66" fill="#faffa8" />
  <polygon points="465.79,653.43 474.88,653.43 474.88,642.66 465.79,642.66" fill="#faffa8" />
  <polygon points="436.13,665.13 445.22,665.13 445.22,654.37 436.13,654.37" fill="#faffa8" />
  <polygon points="446.01,665.13 455.11,665.13 455.11,654.37 446.01,654.37" fill="#faffa8" />
  <polygon points="455.90,665.13 464.99,665.13 464.99,654.37 455.90,654.37" fill="#faffa8" />
  <polygon points="495.45,594.91 504.54,594.91 504.54,584.15 495.45,584.15" fill="#faffa8" />
  <polygon points="505.33,594.91 514.43,594.91 514.43,584.15 505.33,584.15" fill="#faffa8" />
  <polygon points="515.22,594.91 524.32,594.91 524.32,584.15 515.22,584.15" fill="#faffa8" />
  <polygon points="485.56,606.62 494.66,606.62 494.66,595.85 485.56,595.85" fill="#faffa8" />
  <polygon points="525.11,606.62 534.20,606.62 534.20,595.85 525.11,595.85" fill="#faffa8" />
  <polygon points="485.56,618.32 494.66,618.32 494.66,607.55 485.56,607.55" fill="#faffa8" />
  <polygon points="485.56,630.02 494.66,630.02 494.66,619.26 485.56,619.26" fill="#faffa8" />
  <polygon points="485.56,641.73 494.66,641.73 494.66,630.96 485.56,630.96" fill="#faffa8" />
  <polygon points="485.56,653.43 494.66,653.43 494.66,642.66 485.56,642.66" fill="#faffa8" />
  <polygon points="525.11,653.43 534.20,653.43 534.20,642.66 525.11,642.66" fill="#faffa8" />
  <polygon points="495.45,665.13 504.54,665.13 504.54,654.37 495.45,654.37" fill="#faffa8" />
  <polygon points="505.33,665.13 514.43,665.13 514.43,654.37 505.33,654.37" fill="#faffa8" />
  <polygon points="515.22,665.13 524.32,665.13 524.32,654.37 515.22,654.37" fill="#faffa8" />
  <polygon points="544.88,594.91 553.98,594.91 553.98,584.15 544.88,584.15" fill="#faffa8" />
  <polygon points="584.43,594.91 593.52,594.91 593.52,584.15 584.43,584.15" fill="#faffa8" />
  <polygon points="544.88,606.62 553.98,606.62 553.98,595.85 544.88,595.85" fill="#faffa8" />
  <polygon points="574.54,606.62 583.64,606.62 583.64,595.85 574.54,595.85" fill="#faffa8" />
  <polygon points="544.88,618.32 553.98,618.32 553.98,607.55 544.88,607.55" fill="#faffa8" />
  <polygon points="564.65,618.32 573.75,618.32 573.75,607.55 564.65,607.55" fill="#faffa8" />
  <polygon points="544.88,630.02 553.98,630.02 553.98,619.26 544.88,619.26" fill="#faffa8" />
  <polygon points="554.77,630.02 563.86,630.02 563.86,619.26 554.77,619.26" fill="#faffa8" />
  <polygon points="544.88,641.73 553.98,641.73 553.98,630.96 544.88,630.96" fill="#faffa8" />
  <polygon points="564.65,641.73 573.75,641.73 573.75,630.96 564.65,630.96" fill="#faffa8" />
  <polygon points="544.88,653.43 553.98,653.43 553.98,642.66 544.88,642.66" fill="#faffa8" />
  <polygon points="574.54,653.43 583.64,653.43 583.64,642.66 574.54,642.66" fill="#faffa8" />
  <polygon points="544.88,665.13 553.98,665.13 553.98,654.37 544.88,654.37" fill="#faffa8" />
  <polygon points="584.43,665.13 593.52,665.13 593.52,654.37 584.43,654.37" fill="#faffa8" />
  <polygon points="317.84,369.63 326.99,369.63 326.99,358.87 317.84,358.87" fill="#faffa8" />
  <polygon points="327.79,369.63 336.94,369.63 336.94,358.87 327.79,358.87" fill="#faffa8" />
  <polygon points="337.73,369.63 346.88,369.63 346.88,358.87 337.73,358.87" fill="#faffa8" />
  <polygon points="347.68,369.63 356.83,369.63 356.83,358.87 347.68,358.87" fill="#faffa8" />
  <polygon points="317.84,381.34 326.99,381.34 326.99,370.57 317.84,370.57" fill="#faffa8" />
  <polygon points="357.63,381.34 366.78,381.34 366.78,370.57 357.63,370.57" fill="#faffa8" />
  <polygon points="317.84,393.04 326.99,393.04 326.99,382.27 317.84,382.27" fill="#faffa8" />
  <polygon points="357.63,393.04 366.78,393.04 366.78,382.27 357.63,382.27" fill="#faffa8" />
  <polygon points="317.84,404.74 326.99,404.74 326.99,393.98 317.84,393.98" fill="#faffa8" />
  <polygon points="327.79,404.74 336.94,404.74 336.94,393.98 327.79,393.98" fill="#faffa8" />
  <polygon points="337.73,404.74 346.88,404.74 346.88,393.98 337.73,393.98" fill="#faffa8" />
  <polygon points="347.68,404.74 356.83,404.74 356.83,393.98 347.68,393.98" fill="#faffa8" />
  <polygon points="317.84,416.45 326.99,416.45 326.99,405.68 317.84,405.68" fill="#faffa8" />
  <polygon points="357.63,416.45 366.78,416.45 366.78,405.68 357.63,405.68" fill="#faffa8" />
  <polygon points="317.84,428.15 326.99,428.15 326.99,417.38 317.84,417.38" fill="#faffa8" />
  <polygon points="357.63,428.15 366.78,428.15 366.78,417.38 357.63,417.38" fill="#faffa8" />
  <polygon points="317.84,439.85 326.99,439.85 326.99,429.09 317.84,429.09" fill="#faffa8" />
  <polygon points="327.79,439.85 336.94,439.85 336.94,429.09 327.79,429.09" fill="#faffa8" />
  <polygon points="337.73,439.85 346.88,439.85 346.88,429.09 337.73,429.09" fill="#faffa8" />
  <polygon points="347.68,439.85 356.83,439.85 356.83,429.09 347.68,429.09" fill="#faffa8" />
  <polygon points="377.52,369.63 386.67,369.63 386.67,358.87 377.52,358.87" fill="#faffa8" />
  <polygon points="417.31,369.63 426.46,369.63 426.46,358.87 417.31,358.87" fill="#faffa8" />
  <polygon points="377.52,381.34 386.67,381.34 386.67,370.57 377.52,370.57" fill="#faffa8" />
  <polygon points="417.31,381.34 426.46,381.34 426.46,370.57 417.31,370.57" fill="#faffa8" />
  <polygon points="387.47,393.04 396.62,393.04 396.62,382.27 387.47,382.27" fill="#faffa8" />
  <polygon points="407.36,393.04 416.52,393.04 416.52,382.27 407.36,382.27" fill="#faffa8" />
  <polygon points="397.42,404.74 406.57,404.74 406.57,393.98 397.42,393.98" fill="#faffa8" />
  <polygon points="397.42,416.45 406.57,416.45 406.57,405.68 397.42,405.68" fill="#faffa8" />
  <polygon points="397.42,428.15 406.57,428.15 406.57,417.38 397.42,417.38" fill="#faffa8" />
  <polygon points="397.42,439.85 406.57,439.85 406.57,429.09 397.42,429.09" fill="#faffa8" />
  <polygon points="437.21,369.63 446.36,369.63 446.36,358.87 437.21,358.87" fill="#faffa8" />
  <polygon points="447.15,369.63 456.31,369.63 456.31,358.87 447.15,358.87" fill="#faffa8" />
  <polygon points="457.10,369.63 466.25,369.63 466.25,358.87 457.10,358.87" fill="#faffa8" />
  <polygon points="467.05,369.63 476.20,369.63 476.20,358.87 467.05,358.87" fill="#faffa8" />
  <polygon points="437.21,381.34 446.36,381.34 446.36,370.57 437.21,370.57" fill="#faffa8" />
  <polygon points="477.00,381.34 486.15,381.34 486.15,370.57 477.00,370.57" fill="#faffa8" />
  <polygon points="437.21,393.04 446.36,393.04 446.36,382.27 437.21,382.27" fill="#faffa8" />
  <polygon points="477.00,393.04 486.15,393.04 486.15,382.27 477.00,382.27" fill="#faffa8" />
  <polygon points="437.21,404.74 446.36,404.74 446.36,393.98 437.21,393.98" fill="#faffa8" />
  <polygon points="447.15,404.74 456.31,404.74 456.31,393.98 447.15,393.98" fill="#faffa8" />
  <polygon points="457.10,404.74 466.25,404.74 466.25,393.98 457.10,393.98" fill="#faffa8" />
  <polygon points="467.05,404.74 476.20,404.74 476.20,393.98 467.05,393.98" fill="#faffa8" />
  <polygon points="437.21,416.45 446.36,416.45 446.36,405.68 437.21,405.68" fill="#faffa8" />
  <polygon points="437.21,428.15 446.36,428.15 446.36,417.38 437.21,417.38" fill="#faffa8" />
  <polygon points="437.21,439.85 446.36,439.85 446.36,429.09 437.21,429.09" fill="#faffa8" />
  <polygon points="516.79,369.63 525.94,369.63 525.94,358.87 516.79,358.87" fill="#faffa8" />
  <polygon points="506.84,381.34 515.99,381.34 515.99,370.57 506.84,370.57" fill="#faffa8" />
  <polygon points="526.73,381.34 535.89,381.34 535.89,370.57 526.73,370.57" fill="#faffa8" />
  <polygon points="496.89,393.04 506.04,393.04 506.04,382.27 496.89,382.27" fill="#faffa8" />
  <polygon points="536.68,393.04 545.83,393.04 545.83,382.27 536.68,382.27" fill="#faffa8" />
  <polygon points="496.89,404.74 506.04,404.74 506.04,393.98 496.89,393.98" fill="#faffa8" />
  <polygon points="536.68,404.74 545.83,404.74 545.83,393.98 536.68,393.98" fill="#faffa8" />
  <polygon points="496.89,416.45 506.04,416.45 506.04,405.68 496.89,405.68" fill="#faffa8" />
  <polygon points="506.84,416.45 515.99,416.45 515.99,405.68 506.84,405.68" fill="#faffa8" />
  <polygon points="516.79,416.45 525.94,416.45 525.94,405.68 516.79,405.68" fill="#faffa8" />
  <polygon points="526.73,416.45 535.89,416.45 535.89,405.68 526.73,405.68" fill="#faffa8" />
  <polygon points="536.68,416.45 545.83,416.45 545.83,405.68 536.68,405.68" fill="#faffa8" />
  <polygon points="496.89,428.15 506.04,428.15 506.04,417.38 496.89,417.38" fill="#faffa8" />
  <polygon points="536.68,428.15 545.83,428.15 545.83,417.38 536.68,417.38" fill="#faffa8" />
  <polygon points="496.89,439.85 506.04,439.85 506.04,429.09 496.89,429.09" fill="#faffa8" />
  <polygon points="536.68,439.85 545.83,439.85 545.83,429.09 536.68,429.09" fill="#faffa8" />
  <polygon points="566.52,369.63 575.68,369.63 575.68,358.87 566.52,358.87" fill="#faffa8" />
  <polygon points="576.47,369.63 585.62,369.63 585.62,358.87 576.47,358.87" fill="#faffa8" />
  <polygon points="586.42,369.63 595.57,369.63 595.57,358.87 586.42,358.87" fill="#faffa8" />
  <polygon points="596.37,369.63 605.52,369.63 605.52,358.87 596.37,358.87" fill="#faffa8" />
  <polygon points="556.58,381.34 565.73,381.34 565.73,370.57 556.58,370.57" fill="#faffa8" />
  <polygon points="556.58,393.04 565.73,393.04 565.73,382.27 556.58,382.27" fill="#faffa8" />
  <polygon points="566.52,404.74 575.68,404.74 575.68,393.98 566.52,393.98" fill="#faffa8" />
  <polygon points="576.47,404.74 585.62,404.74 585.62,393.98 576.47,393.98" fill="#faffa8" />
  <polygon points="586.42,404.74 595.57,404.74 595.57,393.98 586.42,393.98" fill="#faffa8" />
  <polygon points="596.37,416.45 605.52,416.45 605.52,405.68 596.37,405.68" fill="#faffa8" />
  <polygon points="596.37,428.15 605.52,428.15 605.52,417.38 596.37,417.38" fill="#faffa8" />
  <polygon points="556.58,439.85 565.73,439.85 565.73,429.09 556.58,429.09" fill="#faffa8" />
  <polygon points="566.52,439.85 575.68,439.85 575.68,429.09 566.52,429.09" fill="#faffa8" />
  <polygon points="576.47,439.85 585.62,439.85 585.62,429.09 576.47,429.09" fill="#faffa8" />
  <polygon points="586.42,439.85 595.57,439.85 595.57,429.09 586.42,429.09" fill="#faffa8" />
  <polygon points="626.21,369.63 635.36,369.63 635.36,358.87 626.21,358.87" fill="#faffa8" />
  <polygon points="636.16,369.63 645.31,369.63 645.31,358.87 636.16,358.87" fill="#faffa8" />
  <polygon points="646.10,369.63 655.25,369.63 655.25,358.87 646.10,358.87" fill="#faffa8" />
  <polygon points="656.05,369.63 665.20,369.63 665.20,358.87 656.05,358.87" fill="#faffa8" />
  <polygon points="616.26,381.34 625.41,381.34 625.41,370.57 616.26,370.57" fill="#faffa8" />
  <polygon points="616.26,393.04 625.41,393.04 625.41,382.27 616.26,382.27" fill="#faffa8" />
  <polygon points="626.21,404.74 635.36,404.74 635.36,393.98 626.21,393.98" fill="#faffa8" />
  <polygon points="636.16,404.74 645.31,404.74 645.31,393.98 636.16,393.98" fill="#faffa8" />
  <polygon points="646.10,404.74 655.25,404.74 655.25,393.98 646.10,393.98" fill="#faffa8" />
  <polygon points="656.05,416.45 665.20,416.45 665.20,405.68 656.05,405.68" fill="#faffa8" />
  <polygon points="656.05,428.15 665.20,428.15 665.20,417.38 656.05,417.38" fill="#faffa8" />
  <polygon points="616.26,439.85 625.41,439.85 625.41,429.09 616.26,429.09" fill="#faffa8" />
  <polygon points="626.21,439.85 635.36,439.85 635.36,429.09 626.21,429.09" fill="#faffa8" />
  <polygon points="636.16,439.85 645.31,439.85 645.31,429.09 636.16,429.09" fill="#faffa8" />
  <polygon points="646.10,439.85 655.25,439.85 655.25,429.09 646.10,429.09" fill="#faffa8" />
  <polygon points="696.32,486.40 880.64,486.40 880.64,537.60 696.32,537.60" fill="#faffa8" />
  <polygon points="983.04,512.00 880.64,440.32 880.64,583.68" fill="#faffa8" />
  <polygon points="834.56,532.48 834.56,368.64 885.76,368.64 885.76,532.48" fill="#faffa8" />
  <polygon points="860.16,266.24 788.48,368.64 931.84,368.64" fill="#faffa8" />
</svg>
