<svg xmlns="http://www.w3.org/2000/svg" viewBox="0 0 1024 1024">
  <polygon points="25.60,706.56 998.40,706.56 998.40,317.44 25.60,317.44" fill="#65f2ff" />
  <polygon points="102.40,563.20 389.12,563.20 389.12,419.84 102.40,419.84" fill="#faffa8" />
  <polygon points="440.32,583.68 583.68,583.68 583.68,460.80 440.32,460.80" fill="#faffa8" />
  <polygon points="501.76,512.00 563.20,512.00 563.20,471.04 501.76,471.04" fill="#faffa8" />
  <polygon points="256.00,614.40 250.93,592.19 236.72,574.37 216.19,564.48 193.41,564.48 172.88,574.37 158.67,592.19 153.60,614.40 158.67,636.61 172.88,654.43 193.41,664.32 216.19,664.32 236.72,654.43 250.93,636.61" fill="#faffa8" />
  <polygon points="460.80,614.40 455.73,592.19 441.52,574.37 420.99,564.48 398.21,564.48 377.68,574.37 363.47,592.19 358.40,614.40 363.47,636.61 377.68,654.43 398.21,664.32 420.99,664.32 441.52,654.43 455.73,636.61" fill="#faffa8" />
  <polygon points="624.64,614.40 619.57,592.19 605.36,574.37 584.83,564.48 562.05,564.48 541.52,574.37 527.31,592.19 522.24,614.40 527.31,636.61 541.52,654.43 562.05,664.32 584.83,664.32 605.36,654.43 619.57,636.61" fill="#faffa8" />
  <polygon points="532.48,471.04 757.76,471.04 757.76,552.96 532.48,552.96" fill="#faffa8" />
  <polygon points="901.12,512.00 757.76,409.60 757.76,614.40" fill="#faffa8" />
</svg>
