<svg xmlns="http://www.w3.org/2000/svg" viewBox="0 0 1024 1024">
  <polygon points="983.04,512.00 977.24,438.31 959.99,366.44 931.70,298.15 893.08,235.13 845.08,178.92 788.87,130.92 725.85,92.30 657.56,64.01 585.69,46.76 512.00,40.96 438.31,46.76 366.44,64.01 298.15,92.30 235.13,130.92 178.92,178.92 130.92,235.13 92.30,298.15 64.01,366.44 46.76,438.31 40.96,512.00 46.76,585.69 64.01,657.56 92.30,725.85 130.92,788.87 178.92,845.08 235.13,893.08 298.15,931.70 366.44,959.99 438.31,977.24 512.00,983.04 585.69,977.24 657.56,959.99 725.85,931.70 788.87,893.08 845.08,845.08 893.08,788.87 931.70,725.85 959.99,657.56 977.24,585.69" fill="#65f2ff" />
  <polygon points="471.04,660.48 552.96,660.48 552.96,732.16 471.04,732.16" fill="#faffa8" />
  <polygon points="655.36,696.32 552.96,614.40 552.96,778.24" fill="#faffa8" />
  <polygon points="661.07,473.23 620.11,402.29 682.18,366.45 723.14,437.39" fill="#faffa8" />
  <polygon points="599.95,295.69 580.20,425.33 722.09,343.41" fill="#faffa8" />
  <polygon points="403.89,402.29 362.93,473.23 300.86,437.39 341.82,366.45" fill="#faffa8" />
  <polygon points="280.69,543.99 402.84,496.27 260.95,414.35" fill="#faffa8" />
</svg>
