<svg xmlns="http://www.w3.org/2000/svg" viewBox="0 0 1024 1024">
  <polygon points="25.60,706.56 998.40,706.56 998.40,317.44 25.60,317.44" fill="#65f2ff" />
  <polygon points="491.52,552.96 266.24,552.96 266.24,471.04 491.52,471.04" fill="#faffa8" />
  <polygon points="122.88,512.00 266.24,614.40 266.24,409.60" fill="#faffa8" />
  <polygon points="495.28,474.84 507.66,474.84 507.66,461.39 495.28,461.39" fill="#faffa8" />
  <polygon points="508.73,474.84 521.12,474.84 521.12,461.39 508.73,461.39" fill="#faffa8" />
  <polygon points="522.19,474.84 534.57,474.84 534.57,461.39 522.19,461.39" fill="#faffa8" />
  <polygon points="481.82,489.47 494.20,489.47 494.20,476.01 481.82,476.01" fill="#faffa8" />
  <polygon points="535.65,489.47 548.03,489.47 548.03,476.01 535.65,476.01" fill="#faffa8" />
  <polygon points="481.82,504.10 494.20,504.10 494.20,490.64 481.82,490.64" fill="#faffa8" />
  <polygon points="481.82,518.73 494.20,518.73 494.20,505.27 481.82,505.27" fill="#faffa8" />
  <polygon points="481.82,533.36 494.20,533.36 494.20,519.90 481.82,519.90" fill="#faffa8" />
  <polygon points="481.82,547.99 494.20,547.99 494.20,534.53 481.82,534.53" fill="#faffa8" />
  <polygon points="535.65,547.99 548.03,547.99 548.03,534.53 535.65,534.53" fill="#faffa8" />
  <polygon points="495.28,562.61 507.66,562.61 507.66,549.16 495.28,549.16" fill="#faffa8" />
  <polygon points="508.73,562.61 521.12,562.61 521.12,549.16 508.73,549.16" fill="#faffa8" />
  <polygon points="522.19,562.61 534.57,562.61 534.57,549.16 522.19,549.16" fill="#faffa8" />
  <polygon points="562.57,474.84 574.95,474.84 574.95,461.39 562.57,461.39" fill="#faffa8" />
  <polygon points="576.03,474.84 588.41,474.84 588.41,461.39 576.03,461.39" fill="#faffa8" />
  <polygon points="589.48,474.84 601.87,474.84 601.87,461.39 589.48,461.39" fill="#faffa8" />
  <polygon points="602.94,474.84 615.32,474.84 615.32,461.39 602.94,461.39" fill="#faffa8" />
  <polygon points="616.40,474.84 628.78,474.84 628.78,461.39 616.40,461.39" fill="#faffa8" />
  <polygon points="562.57,489.47 574.95,489.47 574.95,476.01 562.57,476.01" fill="#faffa8" />
  <polygon points="562.57,504.10 574.95,504.10 574.95,490.64 562.57,490.64" fill="#faffa8" />
  <polygon points="562.57,518.73 574.95,518.73 574.95,505.27 562.57,505.27" fill="#faffa8" />
  <polygon points="576.03,518.73 588.41,518.73 588.41,505.27 576.03,505.27" fill="#faffa8" />
  <polygon points="589.48,518.73 601.87,518.73 601.87,505.27 589.48,505.27" fill="#faffa8" />
  <polygon points="602.94,518.73 615.32,518.73 615.32,505.27 602.94,505.27" fill="#faffa8" />
  <polygon points="562.57,533.36 574.95,533.36 574.95,519.90 562.57,519.90" fill="#faffa8" />
  <polygon points="562.57,547.99 574.95,547.99 574.95,534.53 562.57,534.53" fill="#faffa8" />
  <polygon points="562.57,562.61 574.95,562.61 574.95,549.16 562.57,549.16" fill="#faffa8" />
  <polygon points="576.03,562.61 588.41,562.61 588.41,549.16 576.03,549.16" fill="#faffa8" />
  <polygon points="589.48,562.61 601.87,562.61 601.87,549.16 589.48,549.16" fill="#faffa8" />
  <polygon points="602.94,562.61 615.32,562.61 615.32,549.16 602.94,549.16" fill="#faffa8" />
  <polygon points="616.40,562.61 628.78,562.61 628.78,549.16 616.40,549.16" fill="#faffa8" />
  <polygon points="643.32,474.84 655.70,474.84 655.70,461.39 643.32,461.39" fill="#faffa8" />
  <polygon points="697.15,474.84 709.53,474.84 709.53,461.39 697.15,461.39" fill="#faffa8" />
  <polygon points="643.32,489.47 655.70,489.47 655.70,476.01 643.32,476.01" fill="#faffa8" />
  <polygon points="656.78,489.47 669.16,489.47 669.16,476.01 656.78,476.01" fill="#faffa8" />
  <polygon points="697.15,489.47 709.53,489.47 709.53,476.01 697.15,476.01" fill="#faffa8" />
  <polygon points="643.32,504.10 655.70,504.10 655.70,490.64 643.32,490.64" fill="#faffa8" />
  <polygon points="670.23,504.10 682.62,504.10 682.62,490.64 670.23,490.64" fill="#faffa8" />
  <polygon points="697.15,504.10 709.53,504.10 709.53,490.64 697.15,490.64" fill="#faffa8" />
  <polygon points="643.32,518.73 655.70,518.73 655.70,505.27 643.32,505.27" fill="#faffa8" />
  <polygon points="683.69,518.73 696.07,518.73 696.07,505.27 683.69,505.27" fill="#faffa8" />
  <polygon points="697.15,518.73 709.53,518.73 709.53,505.27 697.15,505.27" fill="#faffa8" />
  <polygon points="643.32,533.36 655.70,533.36 655.70,519.90 643.32,519.90" fill="#faffa8" />
  <polygon points="697.15,533.36 709.53,533.36 709.53,519.90 697.15,519.90" fill="#faffa8" />
  <polygon points="643.32,547.99 655.70,547.99 655.70,534.53 643.32,534.53" fill="#faffa8" />
  <polygon points="697.15,547.99 709.53,547.99 709.53,534.53 697.15,534.53" fill="#faffa8" />
  <polygon points="643.32,562.61 655.70,562.61 655.70,549.16 643.32,549.16" fill="#faffa8" />
  <polygon points="697.15,562.61 709.53,562.61 709.53,549.16 697.15,549.16" fill="#faffa8" />
  <polygon points="724.07,474.84 736.45,474.84 736.45,461.39 724.07,461.39" fill="#faffa8" />
  <polygon points="737.53,474.84 749.91,474.84 749.91,461.39 737.53,461.39" fill="#faffa8" />
  <polygon points="750.98,474.84 763.37,474.84 763.37,461.39 750.98,461.39" fill="#faffa8" />
  <polygon points="764.44,474.84 776.82,474.84 776.82,461.39 764.44,461.39" fill="#faffa8" />
  <polygon points="777.90,474.84 790.28,474.84 790.28,461.39 777.90,461.39" fill="#faffa8" />
  <polygon points="750.98,489.47 763.37,489.47 763.37,476.01 750.98,476.01" fill="#faffa8" />
  <polygon points="750.98,504.10 763.37,504.10 763.37,490.64 750.98,490.64" fill="#faffa8" />
  <polygon points="750.98,518.73 763.37,518.73 763.37,505.27 750.98,505.27" fill="#faffa8" />
  <polygon points="750.98,533.36 763.37,533.36 763.37,519.90 750.98,519.90" fill="#faffa8" />
  <polygon points="750.98,547.99 763.37,547.99 763.37,534.53 750.98,534.53" fill="#faffa8" />
  <polygon points="750.98,562.61 763.37,562.61 763.37,549.16 750.98,549.16" fill="#faffa8" />
  <polygon points="804.82,474.84 817.20,474.84 817.20,461.39 804.82,461.39" fill="#faffa8" />
  <polygon points="818.28,474.84 830.66,474.84 830.66,461.39 818.28,461.39" fill="#faffa8" />
  <polygon points="831.73,474.84 844.12,474.84 844.12,461.39 831.73,461.39" fill="#faffa8" />
  <polygon points="845.19,474.84 857.57,474.84 857.57,461.39 845.19,461.39" fill="#faffa8" />
  <polygon points="804.82,489.47 817.20,489.47 817.20,476.01 804.82,476.01" fill="#faffa8" />
  <polygon points="858.65,489.47 871.03,489.47 871.03,476.01 858.65,476.01" fill="#faffa8" />
  <polygon points="804.82,504.10 817.20,504.10 817.20,490.64 804.82,490.64" fill="#faffa8" />
  <polygon points="858.65,504.10 871.03,504.10 871.03,490.64 858.65,490.64" fill="#faffa8" />
  <polygon points="804.82,518.73 817.20,518.73 817.20,505.27 804.82,505.27" fill="#faffa8" />
  <polygon points="818.28,518.73 830.66,518.73 830.66,505.27 818.28,505.27" fill="#faffa8" />
  <polygon points="831.73,518.73 844.12,518.73 844.12,505.27 831.73,505.27" fill="#faffa8" />
  <polygon points="845.19,518.73 857.57,518.73 857.57,505.27 845.19,505.27" fill="#faffa8" />
  <polygon points="804.82,533.36 817.20,533.36 817.20,519.90 804.82,519.90" fill="#faffa8" />
  <polygon points="831.73,533.36 844.12,533.36 844.12,519.90 831.73,519.90" fill="#faffa8" />
  <polygon points="804.82,547.99 817.20,547.99 817.20,534.53 804.82,534.53" fill="#faffa8" />
  <polygon points="845.19,547.99 857.57,547.99 857.57,534.53 845.19,534.53" fill="#faffa8" />
  <polygon points="804.82,562.61 817.20,562.61 817.20,549.16 804.82,549.16" fill="#faffa8" />
  <polygon points="858.65,562.61 871.03,562.61 871.03,549.16 858.65,549.16" fill="#faffa8" />
  <polygon points="885.57,474.84 897.95,474.84 897.95,461.39 885.57,461.39" fill="#faffa8" />
  <polygon points="899.03,474.84 911.41,474.84 911.41,461.39 899.03,461.39" fill="#faffa8" />
  <polygon points="912.48,474.84 924.87,474.84 924.87,461.39 912.48,461.39" fill="#faffa8" />
  <polygon points="925.94,474.84 938.32,474.84 938.32,461.39 925.94,461.39" fill="#faffa8" />
  <polygon points="939.40,474.84 951.78,474.84 951.78,461.39 939.40,461.39" fill="#faffa8" />
  <polygon points="885.57,489.47 897.95,489.47 897.95,476.01 885.57,476.01" fill="#faffa8" />
  <polygon points="885.57,504.10 897.95,504.10 897.95,490.64 885.57,490.64" fill="#faffa8" />
  <polygon points="885.57,518.73 897.95,518.73 897.95,505.27 885.57,505.27" fill="#faffa8" />
  <polygon points="899.03,518.73 911.41,518.73 911.41,505.27 899.03,505.27" fill="#faffa8" />
  <polygon points="912.48,518.73 924.87,518.73 924.87,505.27 912.48,505.27" fill="#faffa8" />
  <polygon points="925.94,518.73 938.32,518.73 938.32,505.27 925.94,505.27" fill="#faffa8" />
  <polygon points="885.57,533.36 897.95,533.36 897.95,519.90 885.57,519.90" fill="#faffa8" />
  <polygon points="885.57,547.99 897.95,547.99 897.95,534.53 885.57,534.53" fill="#faffa8" />
  <polygon points="885.57,562.61 897.95,562.61 897.95,549.16 885.57,549.16" fill="#faffa8" />
  <polygon points="899.03,562.61 911.41,562.61 911.41,549.16 899.03,549.16" fill="#faffa8" />
  <polygon points="912.48,562.61 924.87,562.61 924.87,549.16 912.48,549.16" fill="#faffa8" />
  <polygon points="925.94,562.61 938.32,562.61 938.32,549.16 925.94,549.16" fill="#faffa8" />
  <polygon points="939.40,562.61 951.78,562.61 951.78,549.16 939.40,549.16" fill="#faffa8" />
</svg>
