<svg xmlns="http://www.w3.org/2000/svg" viewBox="0 0 1024 1024">
  <polygon points="10.24,890.88 1013.76,890.88 1013.76,133.12 10.24,133.12" fill="#faffa8" />
  <polygon points="51.20,849.92 972.80,849.92 972.80,174.08 51.20,174.08" fill="#bdff58" />
  <polygon points="102.40,496.64 921.60,496.64 921.60,527.36 102.40,527.36" fill="#faffa8" />
  <polygon points="522.70,662.88 533.35,662.88 533.35,650.77 522.70,650.77" fill="#faffa8" />
  <polygon points="534.28,662.88 544.93,662.88 544.93,650.77 534.28,650.77" fill="#faffa8" />
  <polygon points="545.85,662.88 556.50,662.88 556.50,650.77 545.85,650.77" fill="#faffa8" />
  <polygon points="557.43,662.88 568.08,662.88 568.08,650.77 557.43,650.77" fill="#faffa8" />
  <polygon points="569.01,662.88 579.66,662.88 579.66,650.77 569.01,650.77" fill="#faffa8" />
  <polygon points="545.85,676.04 556.50,676.04 556.50,663.93 545.85,663.93" fill="#faffa8" />
  <polygon points="545.85,689.21 556.50,689.21 556.50,677.10 545.85,677.10" fill="#faffa8" />
  <polygon points="545.85,702.38 556.50,702.38 556.50,690.26 545.85,690.26" fill="#faffa8" />
  <polygon points="545.85,715.54 556.50,715.54 556.50,703.43 545.85,703.43" fill="#faffa8" />
  <polygon points="545.85,728.71 556.50,728.71 556.50,716.60 545.85,716.60" fill="#faffa8" />
  <polygon points="545.85,741.87 556.50,741.87 556.50,729.76 545.85,729.76" fill="#faffa8" />
  <polygon points="592.16,662.88 602.81,662.88 602.81,650.77 592.16,650.77" fill="#faffa8" />
  <polygon points="603.73,662.88 614.38,662.88 614.38,650.77 603.73,650.77" fill="#faffa8" />
  <polygon points="615.31,662.88 625.96,662.88 625.96,650.77 615.31,650.77" fill="#faffa8" />
  <polygon points="626.88,662.88 637.53,662.88 637.53,650.77 626.88,650.77" fill="#faffa8" />
  <polygon points="592.16,676.04 602.81,676.04 602.81,663.93 592.16,663.93" fill="#faffa8" />
  <polygon points="638.46,676.04 649.11,676.04 649.11,663.93 638.46,663.93" fill="#faffa8" />
  <polygon points="592.16,689.21 602.81,689.21 602.81,677.10 592.16,677.10" fill="#faffa8" />
  <polygon points="638.46,689.21 649.11,689.21 649.11,677.10 638.46,677.10" fill="#faffa8" />
  <polygon points="592.16,702.38 602.81,702.38 602.81,690.26 592.16,690.26" fill="#faffa8" />
  <polygon points="603.73,702.38 614.38,702.38 614.38,690.26 603.73,690.26" fill="#faffa8" />
  <polygon points="615.31,702.38 625.96,702.38 625.96,690.26 615.31,690.26" fill="#faffa8" />
  <polygon points="626.88,702.38 637.53,702.38 637.53,690.26 626.88,690.26" fill="#faffa8" />
  <polygon points="592.16,715.54 602.81,715.54 602.81,703.43 592.16,703.43" fill="#faffa8" />
  <polygon points="615.31,715.54 625.96,715.54 625.96,703.43 615.31,703.43" fill="#faffa8" />
  <polygon points="592.16,728.71 602.81,728.71 602.81,716.60 592.16,716.60" fill="#faffa8" />
  <polygon points="626.88,728.71 637.53,728.71 637.53,716.60 626.88,716.60" fill="#faffa8" />
  <polygon points="592.16,741.87 602.81,741.87 602.81,729.76 592.16,729.76" fill="#faffa8" />
  <polygon points="638.46,741.87 649.11,741.87 649.11,729.76 638.46,729.76" fill="#faffa8" />
  <polygon points="684.76,662.88 695.41,662.88 695.41,650.77 684.76,650.77" fill="#faffa8" />
  <polygon points="673.19,676.04 683.84,676.04 683.84,663.93 673.19,663.93" fill="#faffa8" />
  <polygon points="696.34,676.04 706.99,676.04 706.99,663.93 696.34,663.93" fill="#faffa8" />
  <polygon points="661.61,689.21 672.26,689.21 672.26,677.10 661.61,677.10" fill="#faffa8" />
  <polygon points="707.91,689.21 718.56,689.21 718.56,677.10 707.91,677.10" fill="#faffa8" />
  <polygon points="661.61,702.38 672.26,702.38 672.26,690.26 661.61,690.26" fill="#faffa8" />
  <polygon points="707.91,702.38 718.56,702.38 718.56,690.26 707.91,690.26" fill="#faffa8" />
  <polygon points="661.61,715.54 672.26,715.54 672.26,703.43 661.61,703.43" fill="#faffa8" />
  <polygon points="673.19,715.54 683.84,715.54 683.84,703.43 673.19,703.43" fill="#faffa8" />
  <polygon points="684.76,715.54 695.41,715.54 695.41,703.43 684.76,703.43" fill="#faffa8" />
  <polygon points="696.34,715.54 706.99,715.54 706.99,703.43 696.34,703.43" fill="#faffa8" />
  <polygon points="707.91,715.54 718.56,715.54 718.56,703.43 707.91,703.43" fill="#faffa8" />
  <polygon points="661.61,728.71 672.26,728.71 672.26,716.60 661.61,716.60" fill="#faffa8" />
  <polygon points="707.91,728.71 718.56,728.71 718.56,716.60 707.91,716.60" fill="#faffa8" />
  <polygon points="661.61,741.87 672.26,741.87 672.26,729.76 661.61,729.76" fill="#faffa8" />
  <polygon points="707.91,741.87 718.56,741.87 718.56,729.76 707.91,729.76" fill="#faffa8" />
  <polygon points="731.06,662.88 741.71,662.88 741.71,650.77 731.06,650.77" fill="#faffa8" />
  <polygon points="777.37,662.88 788.02,662.88 788.02,650.77 777.37,650.77" fill="#faffa8" />
  <polygon points="731.06,676.04 741.71,676.04 741.71,663.93 731.06,663.93" fill="#faffa8" />
  <polygon points="742.64,676.04 753.29,676.04 753.29,663.93 742.64,663.93" fill="#faffa8" />
  <polygon points="765.79,676.04 776.44,676.04 776.44,663.93 765.79,663.93" fill="#faffa8" />
  <polygon points="777.37,676.04 788.02,676.04 788.02,663.93 777.37,663.93" fill="#faffa8" />
  <polygon points="731.06,689.21 741.71,689.21 741.71,677.10 731.06,677.10" fill="#faffa8" />
  <polygon points="754.22,689.21 764.87,689.21 764.87,677.10 754.22,677.10" fill="#faffa8" />
  <polygon points="777.37,689.21 788.02,689.21 788.02,677.10 777.37,677.10" fill="#faffa8" />
  <polygon points="731.06,702.38 741.71,702.38 741.71,690.26 731.06,690.26" fill="#faffa8" />
  <polygon points="754.22,702.38 764.87,702.38 764.87,690.26 754.22,690.26" fill="#faffa8" />
  <polygon points="777.37,702.38 788.02,702.38 788.02,690.26 777.37,690.26" fill="#faffa8" />
  <polygon points="731.06,715.54 741.71,715.54 741.71,703.43 731.06,703.43" fill="#faffa8" />
  <polygon points="777.37,715.54 788.02,715.54 788.02,703.43 777.37,703.43" fill="#faffa8" />
  <polygon points="731.06,728.71 741.71,728.71 741.71,716.60 731.06,716.60" fill="#faffa8" />
  <polygon points="777.37,728.71 788.02,728.71 788.02,716.60 777.37,716.60" fill="#faffa8" />
  <polygon points="731.06,741.87 741.71,741.87 741.71,729.76 731.06,729.76" fill="#faffa8" />
  <polygon points="777.37,741.87 788.02,741.87 788.02,729.76 777.37,729.76" fill="#faffa8" />
  <polygon points="522.83,294.24 536.44,294.24 536.44,282.13 522.83,282.13" fill="#faffa8" />
  <polygon points="537.62,294.24 551.23,294.24 551.23,282.13 537.62,282.13" fill="#faffa8" />
  <polygon points="552.41,294.24 566.02,294.24 566.02,282.13 552.41,282.13" fill="#faffa8" />
  <polygon points="567.20,294.24 580.81,294.24 580.81,282.13 567.20,282.13" fill="#faffa8" />
  <polygon points="582.00,294.24 595.60,294.24 595.60,282.13 582.00,282.13" fill="#faffa8" />
  <polygon points="552.41,307.40 566.02,307.40 566.02,295.29 552.41,295.29" fill="#faffa8" />
  <polygon points="552.41,320.57 566.02,320.57 566.02,308.46 552.41,308.46" fill="#faffa8" />
  <polygon points="552.41,333.74 566.02,333.74 566.02,321.62 552.41,321.62" fill="#faffa8" />
  <polygon points="552.41,346.90 566.02,346.90 566.02,334.79 552.41,334.79" fill="#faffa8" />
  <polygon points="552.41,360.07 566.02,360.07 566.02,347.96 552.41,347.96" fill="#faffa8" />
  <polygon points="552.41,373.23 566.02,373.23 566.02,361.12 552.41,361.12" fill="#faffa8" />
  <polygon points="641.16,294.24 654.77,294.24 654.77,282.13 641.16,282.13" fill="#faffa8" />
  <polygon points="626.37,307.40 639.98,307.40 639.98,295.29 626.37,295.29" fill="#faffa8" />
  <polygon points="655.95,307.40 669.56,307.40 669.56,295.29 655.95,295.29" fill="#faffa8" />
  <polygon points="611.58,320.57 625.19,320.57 625.19,308.46 611.58,308.46" fill="#faffa8" />
  <polygon points="670.74,320.57 684.35,320.57 684.35,308.46 670.74,308.46" fill="#faffa8" />
  <polygon points="611.58,333.74 625.19,333.74 625.19,321.62 611.58,321.62" fill="#faffa8" />
  <polygon points="670.74,333.74 684.35,333.74 684.35,321.62 670.74,321.62" fill="#faffa8" />
  <polygon points="611.58,346.90 625.19,346.90 625.19,334.79 611.58,334.79" fill="#faffa8" />
  <polygon points="626.37,346.90 639.98,346.90 639.98,334.79 626.37,334.79" fill="#faffa8" />
  <polygon points="641.16,346.90 654.77,346.90 654.77,334.79 641.16,334.79" fill="#faffa8" />
  <polygon points="655.95,346.90 669.56,346.90 669.56,334.79 655.95,334.79" fill="#faffa8" />
  <polygon points="670.74,346.90 684.35,346.90 684.35,334.79 670.74,334.79" fill="#faffa8" />
  <polygon points="611.58,360.07 625.19,360.07 625.19,347.96 611.58,347.96" fill="#faffa8" />
  <polygon points="670.74,360.07 684.35,360.07 684.35,347.96 670.74,347.96" fill="#faffa8" />
  <polygon points="611.58,373.23 625.19,373.23 625.19,361.12 611.58,361.12" fill="#faffa8" />
  <polygon points="670.74,373.23 684.35,373.23 684.35,361.12 670.74,361.12" fill="#faffa8" />
  <polygon points="789.07,294.24 802.68,294.24 802.68,282.13 789.07,282.13" fill="#faffa8" />
  <polygon points="803.86,294.24 817.47,294.24 817.47,282.13 803.86,282.13" fill="#faffa8" />
  <polygon points="818.65,294.24 832.26,294.24 832.26,282.13 818.65,282.13" fill="#faffa8" />
  <polygon points="833.44,294.24 847.05,294.24 847.05,282.13 833.44,282.13" fill="#faffa8" />
  <polygon points="848.24,294.24 861.84,294.24 861.84,282.13 848.24,282.13" fill="#faffa8" />
  <polygon points="818.65,307.40 832.26,307.40 832.26,295.29 818.65,295.29" fill="#faffa8" />
  <polygon points="818.65,320.57 832.26,320.57 832.26,308.46 818.65,308.46" fill="#faffa8" />
  <polygon points="818.65,333.74 832.26,333.74 832.26,321.62 818.65,321.62" fill="#faffa8" />
  <polygon points="818.65,346.90 832.26,346.90 832.26,334.79 818.65,334.79" fill="#faffa8" />
  <polygon points="818.65,360.07 832.26,360.07 832.26,347.96 818.65,347.96" fill="#faffa8" />
  <polygon points="789.07,373.23 802.68,373.23 802.68,361.12 789.07,361.12" fill="#faffa8" />
  <polygon points="803.86,373.23 817.47,373.23 817.47,361.12 803.86,361.12" fill="#faffa8" />
  <polygon points="818.65,373.23 832.26,373.23 832.26,361.12 818.65,361.12" fill="#faffa8" />
  <polygon points="833.44,373.23 847.05,373.23 847.05,361.12 833.44,361.12" fill="#faffa8" />
  <polygon points="848.24,373.23 861.84,373.23 861.84,361.12 848.24,361.12" fill="#faffa8" />
  <polygon points="368.64,358.40 215.04,358.40 215.04,296.96 368.64,296.96" fill="#faffa8" />
  <polygon points="102.40,327.68 215.04,409.60 215.04,245.76" fill="#faffa8" />
</svg>
