<svg xmlns="http://www.w3.org/2000/svg" viewBox="0 0 1024 1024">
  <polygon points="187.60,1003.52 836.40,1003.52 962.56,590.64 791.35,276.07 512.00,20.48 232.65,276.07 61.44,590.64" fill="#faffa8" />
  <polygon points="231.83,942.08 792.17,942.08 901.12,590.64 753.25,276.07 512.00,81.92 270.75,276.07 122.88,590.64" fill="#bdff58" />
  <polygon points="428.96,666.59 446.09,666.59 446.09,655.83 428.96,655.83" fill="#faffa8" />
  <polygon points="447.58,666.59 464.71,666.59 464.71,655.83 447.58,655.83" fill="#faffa8" />
  <polygon points="466.20,666.59 483.33,666.59 483.33,655.83 466.20,655.83" fill="#faffa8" />
  <polygon points="410.34,678.30 427.47,678.30 427.47,667.53 410.34,667.53" fill="#faffa8" />
  <polygon points="484.82,678.30 501.95,678.30 501.95,667.53 484.82,667.53" fill="#faffa8" />
  <polygon points="410.34,690.00 427.47,690.00 427.47,679.23 410.34,679.23" fill="#faffa8" />
  <polygon points="410.34,701.70 427.47,701.70 427.47,690.94 410.34,690.94" fill="#faffa8" />
  <polygon points="410.34,713.41 427.47,713.41 427.47,702.64 410.34,702.64" fill="#faffa8" />
  <polygon points="410.34,725.11 427.47,725.11 427.47,714.34 410.34,714.34" fill="#faffa8" />
  <polygon points="484.82,725.11 501.95,725.11 501.95,714.34 484.82,714.34" fill="#faffa8" />
  <polygon points="428.96,736.81 446.09,736.81 446.09,726.05 428.96,726.05" fill="#faffa8" />
  <polygon points="447.58,736.81 464.71,736.81 464.71,726.05 447.58,726.05" fill="#faffa8" />
  <polygon points="466.20,736.81 483.33,736.81 483.33,726.05 466.20,726.05" fill="#faffa8" />
  <polygon points="559.29,666.59 576.42,666.59 576.42,655.83 559.29,655.83" fill="#faffa8" />
  <polygon points="540.67,678.30 557.80,678.30 557.80,667.53 540.67,667.53" fill="#faffa8" />
  <polygon points="577.91,678.30 595.04,678.30 595.04,667.53 577.91,667.53" fill="#faffa8" />
  <polygon points="522.05,690.00 539.18,690.00 539.18,679.23 522.05,679.23" fill="#faffa8" />
  <polygon points="596.53,690.00 613.66,690.00 613.66,679.23 596.53,679.23" fill="#faffa8" />
  <polygon points="522.05,701.70 539.18,701.70 539.18,690.94 522.05,690.94" fill="#faffa8" />
  <polygon points="596.53,701.70 613.66,701.70 613.66,690.94 596.53,690.94" fill="#faffa8" />
  <polygon points="522.05,713.41 539.18,713.41 539.18,702.64 522.05,702.64" fill="#faffa8" />
  <polygon points="540.67,713.41 557.80,713.41 557.80,702.64 540.67,702.64" fill="#faffa8" />
  <polygon points="559.29,713.41 576.42,713.41 576.42,702.64 559.29,702.64" fill="#faffa8" />
  <polygon points="577.91,713.41 595.04,713.41 595.04,702.64 577.91,702.64" fill="#faffa8" />
  <polygon points="596.53,713.41 613.66,713.41 613.66,702.64 596.53,702.64" fill="#faffa8" />
  <polygon points="522.05,725.11 539.18,725.11 539.18,714.34 522.05,714.34" fill="#faffa8" />
  <polygon points="596.53,725.11 613.66,725.11 613.66,714.34 596.53,714.34" fill="#faffa8" />
  <polygon points="522.05,736.81 539.18,736.81 539.18,726.05 522.05,726.05" fill="#faffa8" />
  <polygon points="596.53,736.81 613.66,736.81 613.66,726.05 596.53,726.05" fill="#faffa8" />
  <polygon points="434.70,307.38 455.25,307.38 455.25,277.77 434.70,277.77" fill="#faffa8" />
  <polygon points="412.36,339.56 432.91,339.56 432.91,309.95 412.36,309.95" fill="#faffa8" />
  <polygon points="434.70,339.56 455.25,339.56 455.25,309.95 434.70,309.95" fill="#faffa8" />
  <polygon points="434.70,371.74 455.25,371.74 455.25,342.13 434.70,342.13" fill="#faffa8" />
  <polygon points="434.70,403.92 455.25,403.92 455.25,374.32 434.70,374.32" fill="#faffa8" />
  <polygon points="434.70,436.11 455.25,436.11 455.25,406.50 434.70,406.50" fill="#faffa8" />
  <polygon points="434.70,468.29 455.25,468.29 455.25,438.68 434.70,438.68" fill="#faffa8" />
  <polygon points="412.36,500.47 432.91,500.47 432.91,470.86 412.36,470.86" fill="#faffa8" />
  <polygon points="434.70,500.47 455.25,500.47 455.25,470.86 434.70,470.86" fill="#faffa8" />
  <polygon points="457.04,500.47 477.59,500.47 477.59,470.86 457.04,470.86" fill="#faffa8" />
  <polygon points="524.06,307.38 544.62,307.38 544.62,277.77 524.06,277.77" fill="#faffa8" />
  <polygon points="546.41,307.38 566.96,307.38 566.96,277.77 546.41,277.77" fill="#faffa8" />
  <polygon points="568.75,307.38 589.30,307.38 589.30,277.77 568.75,277.77" fill="#faffa8" />
  <polygon points="591.09,307.38 611.64,307.38 611.64,277.77 591.09,277.77" fill="#faffa8" />
  <polygon points="613.43,307.38 633.99,307.38 633.99,277.77 613.43,277.77" fill="#faffa8" />
  <polygon points="613.43,339.56 633.99,339.56 633.99,309.95 613.43,309.95" fill="#faffa8" />
  <polygon points="591.09,371.74 611.64,371.74 611.64,342.13 591.09,342.13" fill="#faffa8" />
  <polygon points="568.75,403.92 589.30,403.92 589.30,374.32 568.75,374.32" fill="#faffa8" />
  <polygon points="546.41,436.11 566.96,436.11 566.96,406.50 546.41,406.50" fill="#faffa8" />
  <polygon points="546.41,468.29 566.96,468.29 566.96,438.68 546.41,438.68" fill="#faffa8" />
  <polygon points="546.41,500.47 566.96,500.47 566.96,470.86 546.41,470.86" fill="#faffa8" />
</svg>
