<svg xmlns="http://www.w3.org/2000/svg" viewBox="0 0 1024 1024">
  <polygon points="845.08,178.92 178.92,178.92 178.92,845.08 845.08,845.08" fill="#fffe5d" />
  <polygon points="389.12,788.48 634.88,788.48 634.88,235.52 389.12,235.52" fill="#f9ffa8" />
  <polygon points="573.44,348.16 569.73,327.15 559.07,308.67 542.72,294.95 522.67,287.65 501.33,287.65 481.28,294.95 464.93,308.67 454.27,327.15 450.56,348.16 454.27,369.17 464.93,387.65 481.28,401.37 501.33,408.67 522.67,408.67 542.72,401.37 559.07,387.65 569.73,369.17" fill="#f9ffa8" />
  <polygon points="573.44,512.00 569.73,490.99 559.07,472.51 542.72,458.79 522.67,451.49 501.33,451.49 481.28,458.79 464.93,472.51 454.27,490.99 450.56,512.00 454.27,533.01 464.93,551.49 481.28,565.21 501.33,572.51 522.67,572.51 542.72,565.21 559.07,551.49 569.73,533.01" fill="#f9ffa8" />
  <polygon points="573.44,675.84 569.73,654.83 559.07,636.35 542.72,622.63 522.67,615.33 501.33,615.33 481.28,622.63 464.93,636.35 454.27,654.83 450.56,675.84 454.27,696.85 464.93,715.33 481.28,729.05 501.33,736.35 522.67,736.35 542.72,729.05 559.07,715.33 569.73,696.85" fill="#f9ffa8" />
</svg>
