<svg xmlns="http://www.w3.org/2000/svg" viewBox="0 0 1024 1024">
  <polygon points="10.24,716.80 1013.76,716.80 1013.76,307.20 10.24,307.20" fill="#65f2ff" />
  <polygon points="154.19,474.84 167.84,474.84 167.84,461.39 154.19,461.39" fill="#faffa8" />
  <polygon points="169.02,474.84 182.67,474.84 182.67,461.39 169.02,461.39" fill="#faffa8" />
  <polygon points="183.85,474.84 197.50,474.84 197.50,461.39 183.85,461.39" fill="#faffa8" />
  <polygon points="198.68,474.84 212.33,474.84 212.33,461.39 198.68,461.39" fill="#faffa8" />
  <polygon points="154.19,489.47 167.84,489.47 167.84,476.01 154.19,476.01" fill="#faffa8" />
  <polygon points="213.51,489.47 227.16,489.47 227.16,476.01 213.51,476.01" fill="#faffa8" />
  <polygon points="154.19,504.10 167.84,504.10 167.84,490.64 154.19,490.64" fill="#faffa8" />
  <polygon points="213.51,504.10 227.16,504.10 227.16,490.64 213.51,490.64" fill="#faffa8" />
  <polygon points="154.19,518.73 167.84,518.73 167.84,505.27 154.19,505.27" fill="#faffa8" />
  <polygon points="169.02,518.73 182.67,518.73 182.67,505.27 169.02,505.27" fill="#faffa8" />
  <polygon points="183.85,518.73 197.50,518.73 197.50,505.27 183.85,505.27" fill="#faffa8" />
  <polygon points="198.68,518.73 212.33,518.73 212.33,505.27 198.68,505.27" fill="#faffa8" />
  <polygon points="154.19,533.36 167.84,533.36 167.84,519.90 154.19,519.90" fill="#faffa8" />
  <polygon points="154.19,547.99 167.84,547.99 167.84,534.53 154.19,534.53" fill="#faffa8" />
  <polygon points="154.19,562.61 167.84,562.61 167.84,549.16 154.19,549.16" fill="#faffa8" />
  <polygon points="258.01,474.84 271.65,474.84 271.65,461.39 258.01,461.39" fill="#faffa8" />
  <polygon points="272.84,474.84 286.48,474.84 286.48,461.39 272.84,461.39" fill="#faffa8" />
  <polygon points="287.67,474.84 301.31,474.84 301.31,461.39 287.67,461.39" fill="#faffa8" />
  <polygon points="243.18,489.47 256.82,489.47 256.82,476.01 243.18,476.01" fill="#faffa8" />
  <polygon points="302.50,489.47 316.14,489.47 316.14,476.01 302.50,476.01" fill="#faffa8" />
  <polygon points="243.18,504.10 256.82,504.10 256.82,490.64 243.18,490.64" fill="#faffa8" />
  <polygon points="302.50,504.10 316.14,504.10 316.14,490.64 302.50,490.64" fill="#faffa8" />
  <polygon points="243.18,518.73 256.82,518.73 256.82,505.27 243.18,505.27" fill="#faffa8" />
  <polygon points="302.50,518.73 316.14,518.73 316.14,505.27 302.50,505.27" fill="#faffa8" />
  <polygon points="243.18,533.36 256.82,533.36 256.82,519.90 243.18,519.90" fill="#faffa8" />
  <polygon points="302.50,533.36 316.14,533.36 316.14,519.90 302.50,519.90" fill="#faffa8" />
  <polygon points="243.18,547.99 256.82,547.99 256.82,534.53 243.18,534.53" fill="#faffa8" />
  <polygon points="302.50,547.99 316.14,547.99 316.14,534.53 302.50,534.53" fill="#faffa8" />
  <polygon points="258.01,562.61 271.65,562.61 271.65,549.16 258.01,549.16" fill="#faffa8" />
  <polygon points="272.84,562.61 286.48,562.61 286.48,549.16 272.84,549.16" fill="#faffa8" />
  <polygon points="287.67,562.61 301.31,562.61 301.31,549.16 287.67,549.16" fill="#faffa8" />
  <polygon points="332.16,474.84 345.80,474.84 345.80,461.39 332.16,461.39" fill="#faffa8" />
  <polygon points="346.99,474.84 360.63,474.84 360.63,461.39 346.99,461.39" fill="#faffa8" />
  <polygon points="361.82,474.84 375.46,474.84 375.46,461.39 361.82,461.39" fill="#faffa8" />
  <polygon points="376.65,474.84 390.29,474.84 390.29,461.39 376.65,461.39" fill="#faffa8" />
  <polygon points="332.16,489.47 345.80,489.47 345.80,476.01 332.16,476.01" fill="#faffa8" />
  <polygon points="391.48,489.47 405.12,489.47 405.12,476.01 391.48,476.01" fill="#faffa8" />
  <polygon points="332.16,504.10 345.80,504.10 345.80,490.64 332.16,490.64" fill="#faffa8" />
  <polygon points="391.48,504.10 405.12,504.10 405.12,490.64 391.48,490.64" fill="#faffa8" />
  <polygon points="332.16,518.73 345.80,518.73 345.80,505.27 332.16,505.27" fill="#faffa8" />
  <polygon points="346.99,518.73 360.63,518.73 360.63,505.27 346.99,505.27" fill="#faffa8" />
  <polygon points="361.82,518.73 375.46,518.73 375.46,505.27 361.82,505.27" fill="#faffa8" />
  <polygon points="376.65,518.73 390.29,518.73 390.29,505.27 376.65,505.27" fill="#faffa8" />
  <polygon points="332.16,533.36 345.80,533.36 345.80,519.90 332.16,519.90" fill="#faffa8" />
  <polygon points="361.82,533.36 375.46,533.36 375.46,519.90 361.82,519.90" fill="#faffa8" />
  <polygon points="332.16,547.99 345.80,547.99 345.80,534.53 332.16,534.53" fill="#faffa8" />
  <polygon points="376.65,547.99 390.29,547.99 390.29,534.53 376.65,534.53" fill="#faffa8" />
  <polygon points="332.16,562.61 345.80,562.61 345.80,549.16 332.16,549.16" fill="#faffa8" />
  <polygon points="391.48,562.61 405.12,562.61 405.12,549.16 391.48,549.16" fill="#faffa8" />
  <polygon points="421.14,474.84 434.78,474.84 434.78,461.39 421.14,461.39" fill="#faffa8" />
  <polygon points="435.97,474.84 449.61,474.84 449.61,461.39 435.97,461.39" fill="#faffa8" />
  <polygon points="450.80,474.84 464.44,474.84 464.44,461.39 450.80,461.39" fill="#faffa8" />
  <polygon points="465.63,474.84 479.27,474.84 479.27,461.39 465.63,461.39" fill="#faffa8" />
  <polygon points="480.46,474.84 494.10,474.84 494.10,461.39 480.46,461.39" fill="#faffa8" />
  <polygon points="450.80,489.47 464.44,489.47 464.44,476.01 450.80,476.01" fill="#faffa8" />
  <polygon points="450.80,504.10 464.44,504.10 464.44,490.64 450.80,490.64" fill="#faffa8" />
  <polygon points="450.80,518.73 464.44,518.73 464.44,505.27 450.80,505.27" fill="#faffa8" />
  <polygon points="450.80,533.36 464.44,533.36 464.44,519.90 450.80,519.90" fill="#faffa8" />
  <polygon points="450.80,547.99 464.44,547.99 464.44,534.53 450.80,534.53" fill="#faffa8" />
  <polygon points="450.80,562.61 464.44,562.61 464.44,549.16 450.80,549.16" fill="#faffa8" />
  <polygon points="524.95,474.84 538.60,474.84 538.60,461.39 524.95,461.39" fill="#faffa8" />
  <polygon points="539.78,474.84 553.43,474.84 553.43,461.39 539.78,461.39" fill="#faffa8" />
  <polygon points="554.61,474.84 568.26,474.84 568.26,461.39 554.61,461.39" fill="#faffa8" />
  <polygon points="510.12,489.47 523.77,489.47 523.77,476.01 510.12,476.01" fill="#faffa8" />
  <polygon points="569.44,489.47 583.09,489.47 583.09,476.01 569.44,476.01" fill="#faffa8" />
  <polygon points="510.12,504.10 523.77,504.10 523.77,490.64 510.12,490.64" fill="#faffa8" />
  <polygon points="569.44,504.10 583.09,504.10 583.09,490.64 569.44,490.64" fill="#faffa8" />
  <polygon points="510.12,518.73 523.77,518.73 523.77,505.27 510.12,505.27" fill="#faffa8" />
  <polygon points="569.44,518.73 583.09,518.73 583.09,505.27 569.44,505.27" fill="#faffa8" />
  <polygon points="510.12,533.36 523.77,533.36 523.77,519.90 510.12,519.90" fill="#faffa8" />
  <polygon points="569.44,533.36 583.09,533.36 583.09,519.90 569.44,519.90" fill="#faffa8" />
  <polygon points="510.12,547.99 523.77,547.99 523.77,534.53 510.12,534.53" fill="#faffa8" />
  <polygon points="569.44,547.99 583.09,547.99 583.09,534.53 569.44,534.53" fill="#faffa8" />
  <polygon points="524.95,562.61 538.60,562.61 538.60,549.16 524.95,549.16" fill="#faffa8" />
  <polygon points="539.78,562.61 553.43,562.61 553.43,549.16 539.78,549.16" fill="#faffa8" />
  <polygon points="554.61,562.61 568.26,562.61 568.26,549.16 554.61,549.16" fill="#faffa8" />
  <polygon points="593.92,471.04 778.24,471.04 778.24,552.96 593.92,552.96" fill="#faffa8" />
  <polygon points="921.60,512.00 778.24,409.60 778.24,614.40" fill="#faffa8" />
</svg>
