<svg xmlns="http://www.w3.org/2000/svg" viewBox="0 0 1024 1024">
  <polygon points="25.60,890.88 998.40,890.88 998.40,133.12 25.60,133.12" fill="#faffa8" />
  <polygon points="56.32,849.92 967.68,849.92 967.68,174.08 56.32,174.08" fill="#bdff58" />
  <polygon points="102.40,496.64 921.60,496.64 921.60,527.36 102.40,527.36" fill="#faffa8" />
  <polygon points="164.50,644.30 179.57,644.30 179.57,625.46 164.50,625.46" fill="#faffa8" />
  <polygon points="230.03,644.30 245.10,644.30 245.10,625.46 230.03,625.46" fill="#faffa8" />
  <polygon points="164.50,664.78 179.57,664.78 179.57,645.94 164.50,645.94" fill="#faffa8" />
  <polygon points="180.88,664.78 195.95,664.78 195.95,645.94 180.88,645.94" fill="#faffa8" />
  <polygon points="213.65,664.78 228.72,664.78 228.72,645.94 213.65,645.94" fill="#faffa8" />
  <polygon points="230.03,664.78 245.10,664.78 245.10,645.94 230.03,645.94" fill="#faffa8" />
  <polygon points="164.50,685.26 179.57,685.26 179.57,666.42 164.50,666.42" fill="#faffa8" />
  <polygon points="197.26,685.26 212.34,685.26 212.34,666.42 197.26,666.42" fill="#faffa8" />
  <polygon points="230.03,685.26 245.10,685.26 245.10,666.42 230.03,666.42" fill="#faffa8" />
  <polygon points="164.50,705.74 179.57,705.74 179.57,686.90 164.50,686.90" fill="#faffa8" />
  <polygon points="197.26,705.74 212.34,705.74 212.34,686.90 197.26,686.90" fill="#faffa8" />
  <polygon points="230.03,705.74 245.10,705.74 245.10,686.90 230.03,686.90" fill="#faffa8" />
  <polygon points="164.50,726.22 179.57,726.22 179.57,707.38 164.50,707.38" fill="#faffa8" />
  <polygon points="230.03,726.22 245.10,726.22 245.10,707.38 230.03,707.38" fill="#faffa8" />
  <polygon points="164.50,746.70 179.57,746.70 179.57,727.86 164.50,727.86" fill="#faffa8" />
  <polygon points="230.03,746.70 245.10,746.70 245.10,727.86 230.03,727.86" fill="#faffa8" />
  <polygon points="164.50,767.18 179.57,767.18 179.57,748.34 164.50,748.34" fill="#faffa8" />
  <polygon points="230.03,767.18 245.10,767.18 245.10,748.34 230.03,748.34" fill="#faffa8" />
  <polygon points="420.32,662.88 431.37,662.88 431.37,650.77 420.32,650.77" fill="#faffa8" />
  <polygon points="468.34,662.88 479.39,662.88 479.39,650.77 468.34,650.77" fill="#faffa8" />
  <polygon points="420.32,676.04 431.37,676.04 431.37,663.93 420.32,663.93" fill="#faffa8" />
  <polygon points="432.33,676.04 443.37,676.04 443.37,663.93 432.33,663.93" fill="#faffa8" />
  <polygon points="456.34,676.04 467.38,676.04 467.38,663.93 456.34,663.93" fill="#faffa8" />
  <polygon points="468.34,676.04 479.39,676.04 479.39,663.93 468.34,663.93" fill="#faffa8" />
  <polygon points="420.32,689.21 431.37,689.21 431.37,677.10 420.32,677.10" fill="#faffa8" />
  <polygon points="444.33,689.21 455.38,689.21 455.38,677.10 444.33,677.10" fill="#faffa8" />
  <polygon points="468.34,689.21 479.39,689.21 479.39,677.10 468.34,677.10" fill="#faffa8" />
  <polygon points="420.32,702.38 431.37,702.38 431.37,690.26 420.32,690.26" fill="#faffa8" />
  <polygon points="444.33,702.38 455.38,702.38 455.38,690.26 444.33,690.26" fill="#faffa8" />
  <polygon points="468.34,702.38 479.39,702.38 479.39,690.26 468.34,690.26" fill="#faffa8" />
  <polygon points="420.32,715.54 431.37,715.54 431.37,703.43 420.32,703.43" fill="#faffa8" />
  <polygon points="468.34,715.54 479.39,715.54 479.39,703.43 468.34,703.43" fill="#faffa8" />
  <polygon points="420.32,728.71 431.37,728.71 431.37,716.60 420.32,716.60" fill="#faffa8" />
  <polygon points="468.34,728.71 479.39,728.71 479.39,716.60 468.34,716.60" fill="#faffa8" />
  <polygon points="420.32,741.87 431.37,741.87 431.37,729.76 420.32,729.76" fill="#faffa8" />
  <polygon points="468.34,741.87 479.39,741.87 479.39,729.76 468.34,729.76" fill="#faffa8" />
  <polygon points="492.35,662.88 503.40,662.88 503.40,650.77 492.35,650.77" fill="#faffa8" />
  <polygon points="504.36,662.88 515.40,662.88 515.40,650.77 504.36,650.77" fill="#faffa8" />
  <polygon points="516.36,662.88 527.41,662.88 527.41,650.77 516.36,650.77" fill="#faffa8" />
  <polygon points="528.37,662.88 539.41,662.88 539.41,650.77 528.37,650.77" fill="#faffa8" />
  <polygon points="540.38,662.88 551.42,662.88 551.42,650.77 540.38,650.77" fill="#faffa8" />
  <polygon points="492.35,676.04 503.40,676.04 503.40,663.93 492.35,663.93" fill="#faffa8" />
  <polygon points="492.35,689.21 503.40,689.21 503.40,677.10 492.35,677.10" fill="#faffa8" />
  <polygon points="492.35,702.38 503.40,702.38 503.40,690.26 492.35,690.26" fill="#faffa8" />
  <polygon points="504.36,702.38 515.40,702.38 515.40,690.26 504.36,690.26" fill="#faffa8" />
  <polygon points="516.36,702.38 527.41,702.38 527.41,690.26 516.36,690.26" fill="#faffa8" />
  <polygon points="528.37,702.38 539.41,702.38 539.41,690.26 528.37,690.26" fill="#faffa8" />
  <polygon points="492.35,715.54 503.40,715.54 503.40,703.43 492.35,703.43" fill="#faffa8" />
  <polygon points="492.35,728.71 503.40,728.71 503.40,716.60 492.35,716.60" fill="#faffa8" />
  <polygon points="492.35,741.87 503.40,741.87 503.40,729.76 492.35,729.76" fill="#faffa8" />
  <polygon points="504.36,741.87 515.40,741.87 515.40,729.76 504.36,729.76" fill="#faffa8" />
  <polygon points="516.36,741.87 527.41,741.87 527.41,729.76 516.36,729.76" fill="#faffa8" />
  <polygon points="528.37,741.87 539.41,741.87 539.41,729.76 528.37,729.76" fill="#faffa8" />
  <polygon points="540.38,741.87 551.42,741.87 551.42,729.76 540.38,729.76" fill="#faffa8" />
  <polygon points="564.39,662.88 575.43,662.88 575.43,650.77 564.39,650.77" fill="#faffa8" />
  <polygon points="576.39,662.88 587.44,662.88 587.44,650.77 576.39,650.77" fill="#faffa8" />
  <polygon points="588.40,662.88 599.44,662.88 599.44,650.77 588.40,650.77" fill="#faffa8" />
  <polygon points="600.40,662.88 611.45,662.88 611.45,650.77 600.40,650.77" fill="#faffa8" />
  <polygon points="612.41,662.88 623.45,662.88 623.45,650.77 612.41,650.77" fill="#faffa8" />
  <polygon points="588.40,676.04 599.44,676.04 599.44,663.93 588.40,663.93" fill="#faffa8" />
  <polygon points="588.40,689.21 599.44,689.21 599.44,677.10 588.40,677.10" fill="#faffa8" />
  <polygon points="588.40,702.38 599.44,702.38 599.44,690.26 588.40,690.26" fill="#faffa8" />
  <polygon points="588.40,715.54 599.44,715.54 599.44,703.43 588.40,703.43" fill="#faffa8" />
  <polygon points="588.40,728.71 599.44,728.71 599.44,716.60 588.40,716.60" fill="#faffa8" />
  <polygon points="588.40,741.87 599.44,741.87 599.44,729.76 588.40,729.76" fill="#faffa8" />
  <polygon points="636.42,662.88 647.46,662.88 647.46,650.77 636.42,650.77" fill="#faffa8" />
  <polygon points="648.43,662.88 659.47,662.88 659.47,650.77 648.43,650.77" fill="#faffa8" />
  <polygon points="660.43,662.88 671.48,662.88 671.48,650.77 660.43,650.77" fill="#faffa8" />
  <polygon points="672.44,662.88 683.48,662.88 683.48,650.77 672.44,650.77" fill="#faffa8" />
  <polygon points="636.42,676.04 647.46,676.04 647.46,663.93 636.42,663.93" fill="#faffa8" />
  <polygon points="684.44,676.04 695.49,676.04 695.49,663.93 684.44,663.93" fill="#faffa8" />
  <polygon points="636.42,689.21 647.46,689.21 647.46,677.10 636.42,677.10" fill="#faffa8" />
  <polygon points="684.44,689.21 695.49,689.21 695.49,677.10 684.44,677.10" fill="#faffa8" />
  <polygon points="636.42,702.38 647.46,702.38 647.46,690.26 636.42,690.26" fill="#faffa8" />
  <polygon points="648.43,702.38 659.47,702.38 659.47,690.26 648.43,690.26" fill="#faffa8" />
  <polygon points="660.43,702.38 671.48,702.38 671.48,690.26 660.43,690.26" fill="#faffa8" />
  <polygon points="672.44,702.38 683.48,702.38 683.48,690.26 672.44,690.26" fill="#faffa8" />
  <polygon points="636.42,715.54 647.46,715.54 647.46,703.43 636.42,703.43" fill="#faffa8" />
  <polygon points="660.43,715.54 671.48,715.54 671.48,703.43 660.43,703.43" fill="#faffa8" />
  <polygon points="636.42,728.71 647.46,728.71 647.46,716.60 636.42,716.60" fill="#faffa8" />
  <polygon points="672.44,728.71 683.48,728.71 683.48,716.60 672.44,716.60" fill="#faffa8" />
  <polygon points="636.42,741.87 647.46,741.87 647.46,729.76 636.42,729.76" fill="#faffa8" />
  <polygon points="684.44,741.87 695.49,741.87 695.49,729.76 684.44,729.76" fill="#faffa8" />
  <polygon points="720.46,662.88 731.50,662.88 731.50,650.77 720.46,650.77" fill="#faffa8" />
  <polygon points="732.46,662.88 743.51,662.88 743.51,650.77 732.46,650.77" fill="#faffa8" />
  <polygon points="744.47,662.88 755.51,662.88 755.51,650.77 744.47,650.77" fill="#faffa8" />
  <polygon points="708.45,676.04 719.50,676.04 719.50,663.93 708.45,663.93" fill="#faffa8" />
  <polygon points="756.47,676.04 767.52,676.04 767.52,663.93 756.47,663.93" fill="#faffa8" />
  <polygon points="708.45,689.21 719.50,689.21 719.50,677.10 708.45,677.10" fill="#faffa8" />
  <polygon points="756.47,689.21 767.52,689.21 767.52,677.10 756.47,677.10" fill="#faffa8" />
  <polygon points="708.45,702.38 719.50,702.38 719.50,690.26 708.45,690.26" fill="#faffa8" />
  <polygon points="756.47,702.38 767.52,702.38 767.52,690.26 756.47,690.26" fill="#faffa8" />
  <polygon points="708.45,715.54 719.50,715.54 719.50,703.43 708.45,703.43" fill="#faffa8" />
  <polygon points="756.47,715.54 767.52,715.54 767.52,703.43 756.47,703.43" fill="#faffa8" />
  <polygon points="708.45,728.71 719.50,728.71 719.50,716.60 708.45,716.60" fill="#faffa8" />
  <polygon points="756.47,728.71 767.52,728.71 767.52,716.60 756.47,716.60" fill="#faffa8" />
  <polygon points="720.46,741.87 731.50,741.87 731.50,729.76 720.46,729.76" fill="#faffa8" />
  <polygon points="732.46,741.87 743.51,741.87 743.51,729.76 732.46,729.76" fill="#faffa8" />
  <polygon points="744.47,741.87 755.51,741.87 755.51,729.76 744.47,729.76" fill="#faffa8" />
  <polygon points="461.33,294.24 473.62,294.24 473.62,282.13 461.33,282.13" fill="#faffa8" />
  <polygon points="474.69,294.24 486.98,294.24 486.98,282.13 474.69,282.13" fill="#faffa8" />
  <polygon points="488.05,294.24 500.34,294.24 500.34,282.13 488.05,282.13" fill="#faffa8" />
  <polygon points="501.40,294.24 513.69,294.24 513.69,282.13 501.40,282.13" fill="#faffa8" />
  <polygon points="461.33,307.40 473.62,307.40 473.62,295.29 461.33,295.29" fill="#faffa8" />
  <polygon points="514.76,307.40 527.05,307.40 527.05,295.29 514.76,295.29" fill="#faffa8" />
  <polygon points="461.33,320.57 473.62,320.57 473.62,308.46 461.33,308.46" fill="#faffa8" />
  <polygon points="514.76,320.57 527.05,320.57 527.05,308.46 514.76,308.46" fill="#faffa8" />
  <polygon points="461.33,333.74 473.62,333.74 473.62,321.62 461.33,321.62" fill="#faffa8" />
  <polygon points="474.69,333.74 486.98,333.74 486.98,321.62 474.69,321.62" fill="#faffa8" />
  <polygon points="488.05,333.74 500.34,333.74 500.34,321.62 488.05,321.62" fill="#faffa8" />
  <polygon points="501.40,333.74 513.69,333.74 513.69,321.62 501.40,321.62" fill="#faffa8" />
  <polygon points="461.33,346.90 473.62,346.90 473.62,334.79 461.33,334.79" fill="#faffa8" />
  <polygon points="461.33,360.07 473.62,360.07 473.62,347.96 461.33,347.96" fill="#faffa8" />
  <polygon points="461.33,373.23 473.62,373.23 473.62,361.12 461.33,361.12" fill="#faffa8" />
  <polygon points="554.83,294.24 567.12,294.24 567.12,282.13 554.83,282.13" fill="#faffa8" />
  <polygon points="568.19,294.24 580.47,294.24 580.47,282.13 568.19,282.13" fill="#faffa8" />
  <polygon points="581.54,294.24 593.83,294.24 593.83,282.13 581.54,282.13" fill="#faffa8" />
  <polygon points="541.47,307.40 553.76,307.40 553.76,295.29 541.47,295.29" fill="#faffa8" />
  <polygon points="594.90,307.40 607.19,307.40 607.19,295.29 594.90,295.29" fill="#faffa8" />
  <polygon points="541.47,320.57 553.76,320.57 553.76,308.46 541.47,308.46" fill="#faffa8" />
  <polygon points="594.90,320.57 607.19,320.57 607.19,308.46 594.90,308.46" fill="#faffa8" />
  <polygon points="541.47,333.74 553.76,333.74 553.76,321.62 541.47,321.62" fill="#faffa8" />
  <polygon points="594.90,333.74 607.19,333.74 607.19,321.62 594.90,321.62" fill="#faffa8" />
  <polygon points="541.47,346.90 553.76,346.90 553.76,334.79 541.47,334.79" fill="#faffa8" />
  <polygon points="594.90,346.90 607.19,346.90 607.19,334.79 594.90,334.79" fill="#faffa8" />
  <polygon points="541.47,360.07 553.76,360.07 553.76,347.96 541.47,347.96" fill="#faffa8" />
  <polygon points="594.90,360.07 607.19,360.07 607.19,347.96 594.90,347.96" fill="#faffa8" />
  <polygon points="554.83,373.23 567.12,373.23 567.12,361.12 554.83,361.12" fill="#faffa8" />
  <polygon points="568.19,373.23 580.47,373.23 580.47,361.12 568.19,361.12" fill="#faffa8" />
  <polygon points="581.54,373.23 593.83,373.23 593.83,361.12 581.54,361.12" fill="#faffa8" />
  <polygon points="621.61,294.24 633.90,294.24 633.90,282.13 621.61,282.13" fill="#faffa8" />
  <polygon points="634.97,294.24 647.26,294.24 647.26,282.13 634.97,282.13" fill="#faffa8" />
  <polygon points="648.33,294.24 660.61,294.24 660.61,282.13 648.33,282.13" fill="#faffa8" />
  <polygon points="661.68,294.24 673.97,294.24 673.97,282.13 661.68,282.13" fill="#faffa8" />
  <polygon points="621.61,307.40 633.90,307.40 633.90,295.29 621.61,295.29" fill="#faffa8" />
  <polygon points="675.04,307.40 687.33,307.40 687.33,295.29 675.04,295.29" fill="#faffa8" />
  <polygon points="621.61,320.57 633.90,320.57 633.90,308.46 621.61,308.46" fill="#faffa8" />
  <polygon points="675.04,320.57 687.33,320.57 687.33,308.46 675.04,308.46" fill="#faffa8" />
  <polygon points="621.61,333.74 633.90,333.74 633.90,321.62 621.61,321.62" fill="#faffa8" />
  <polygon points="634.97,333.74 647.26,333.74 647.26,321.62 634.97,321.62" fill="#faffa8" />
  <polygon points="648.33,333.74 660.61,333.74 660.61,321.62 648.33,321.62" fill="#faffa8" />
  <polygon points="661.68,333.74 673.97,333.74 673.97,321.62 661.68,321.62" fill="#faffa8" />
  <polygon points="621.61,346.90 633.90,346.90 633.90,334.79 621.61,334.79" fill="#faffa8" />
  <polygon points="648.33,346.90 660.61,346.90 660.61,334.79 648.33,334.79" fill="#faffa8" />
  <polygon points="621.61,360.07 633.90,360.07 633.90,347.96 621.61,347.96" fill="#faffa8" />
  <polygon points="661.68,360.07 673.97,360.07 673.97,347.96 661.68,347.96" fill="#faffa8" />
  <polygon points="621.61,373.23 633.90,373.23 633.90,361.12 621.61,361.12" fill="#faffa8" />
  <polygon points="675.04,373.23 687.33,373.23 687.33,361.12 675.04,361.12" fill="#faffa8" />
  <polygon points="701.75,294.24 714.04,294.24 714.04,282.13 701.75,282.13" fill="#faffa8" />
  <polygon points="715.11,294.24 727.40,294.24 727.40,282.13 715.11,282.13" fill="#faffa8" />
  <polygon points="728.46,294.24 740.75,294.24 740.75,282.13 728.46,282.13" fill="#faffa8" />
  <polygon points="741.82,294.24 754.11,294.24 754.11,282.13 741.82,282.13" fill="#faffa8" />
  <polygon points="755.18,294.24 767.47,294.24 767.47,282.13 755.18,282.13" fill="#faffa8" />
  <polygon points="728.46,307.40 740.75,307.40 740.75,295.29 728.46,295.29" fill="#faffa8" />
  <polygon points="728.46,320.57 740.75,320.57 740.75,308.46 728.46,308.46" fill="#faffa8" />
  <polygon points="728.46,333.74 740.75,333.74 740.75,321.62 728.46,321.62" fill="#faffa8" />
  <polygon points="728.46,346.90 740.75,346.90 740.75,334.79 728.46,334.79" fill="#faffa8" />
  <polygon points="728.46,360.07 740.75,360.07 740.75,347.96 728.46,347.96" fill="#faffa8" />
  <polygon points="728.46,373.23 740.75,373.23 740.75,361.12 728.46,361.12" fill="#faffa8" />
  <polygon points="368.64,358.40 215.04,358.40 215.04,296.96 368.64,296.96" fill="#faffa8" />
  <polygon points="102.40,327.68 215.04,409.60 215.04,245.76" fill="#faffa8" />
</svg>
