<svg xmlns="http://www.w3.org/2000/svg" viewBox="0 0 1024 1024">
  <polygon points="25.60,706.56 998.40,706.56 998.40,317.44 25.60,317.44" fill="#65f2ff" />
  <polygon points="491.52,552.96 266.24,552.96 266.24,471.04 491.52,471.04" fill="#faffa8" />
  <polygon points="122.88,512.00 266.24,614.40 266.24,409.60" fill="#faffa8" />
  <polygon points="493.84,474.84 504.95,474.84 504.95,461.39 493.84,461.39" fill="#faffa8" />
  <polygon points="505.92,474.84 517.03,474.84 517.03,461.39 505.92,461.39" fill="#faffa8" />
  <polygon points="518.00,474.84 529.11,474.84 529.11,461.39 518.00,461.39" fill="#faffa8" />
  <polygon points="481.76,489.47 492.87,489.47 492.87,476.01 481.76,476.01" fill="#faffa8" />
  <polygon points="530.07,489.47 541.19,489.47 541.19,476.01 530.07,476.01" fill="#faffa8" />
  <polygon points="481.76,504.10 492.87,504.10 492.87,490.64 481.76,490.64" fill="#faffa8" />
  <polygon points="530.07,504.10 541.19,504.10 541.19,490.64 530.07,490.64" fill="#faffa8" />
  <polygon points="481.76,518.73 492.87,518.73 492.87,505.27 481.76,505.27" fill="#faffa8" />
  <polygon points="530.07,518.73 541.19,518.73 541.19,505.27 530.07,505.27" fill="#faffa8" />
  <polygon points="481.76,533.36 492.87,533.36 492.87,519.90 481.76,519.90" fill="#faffa8" />
  <polygon points="530.07,533.36 541.19,533.36 541.19,519.90 530.07,519.90" fill="#faffa8" />
  <polygon points="481.76,547.99 492.87,547.99 492.87,534.53 481.76,534.53" fill="#faffa8" />
  <polygon points="530.07,547.99 541.19,547.99 541.19,534.53 530.07,534.53" fill="#faffa8" />
  <polygon points="493.84,562.61 504.95,562.61 504.95,549.16 493.84,549.16" fill="#faffa8" />
  <polygon points="505.92,562.61 517.03,562.61 517.03,549.16 505.92,549.16" fill="#faffa8" />
  <polygon points="518.00,562.61 529.11,562.61 529.11,549.16 518.00,549.16" fill="#faffa8" />
  <polygon points="554.23,474.84 565.34,474.84 565.34,461.39 554.23,461.39" fill="#faffa8" />
  <polygon points="602.54,474.84 613.65,474.84 613.65,461.39 602.54,461.39" fill="#faffa8" />
  <polygon points="554.23,489.47 565.34,489.47 565.34,476.01 554.23,476.01" fill="#faffa8" />
  <polygon points="566.31,489.47 577.42,489.47 577.42,476.01 566.31,476.01" fill="#faffa8" />
  <polygon points="602.54,489.47 613.65,489.47 613.65,476.01 602.54,476.01" fill="#faffa8" />
  <polygon points="554.23,504.10 565.34,504.10 565.34,490.64 554.23,490.64" fill="#faffa8" />
  <polygon points="578.39,504.10 589.50,504.10 589.50,490.64 578.39,490.64" fill="#faffa8" />
  <polygon points="602.54,504.10 613.65,504.10 613.65,490.64 602.54,490.64" fill="#faffa8" />
  <polygon points="554.23,518.73 565.34,518.73 565.34,505.27 554.23,505.27" fill="#faffa8" />
  <polygon points="590.46,518.73 601.58,518.73 601.58,505.27 590.46,505.27" fill="#faffa8" />
  <polygon points="602.54,518.73 613.65,518.73 613.65,505.27 602.54,505.27" fill="#faffa8" />
  <polygon points="554.23,533.36 565.34,533.36 565.34,519.90 554.23,519.90" fill="#faffa8" />
  <polygon points="602.54,533.36 613.65,533.36 613.65,519.90 602.54,519.90" fill="#faffa8" />
  <polygon points="554.23,547.99 565.34,547.99 565.34,534.53 554.23,534.53" fill="#faffa8" />
  <polygon points="602.54,547.99 613.65,547.99 613.65,534.53 602.54,534.53" fill="#faffa8" />
  <polygon points="554.23,562.61 565.34,562.61 565.34,549.16 554.23,549.16" fill="#faffa8" />
  <polygon points="602.54,562.61 613.65,562.61 613.65,549.16 602.54,549.16" fill="#faffa8" />
  <polygon points="626.70,474.84 637.81,474.84 637.81,461.39 626.70,461.39" fill="#faffa8" />
  <polygon points="638.78,474.84 649.89,474.84 649.89,461.39 638.78,461.39" fill="#faffa8" />
  <polygon points="650.85,474.84 661.97,474.84 661.97,461.39 650.85,461.39" fill="#faffa8" />
  <polygon points="662.93,474.84 674.04,474.84 674.04,461.39 662.93,461.39" fill="#faffa8" />
  <polygon points="675.01,474.84 686.12,474.84 686.12,461.39 675.01,461.39" fill="#faffa8" />
  <polygon points="626.70,489.47 637.81,489.47 637.81,476.01 626.70,476.01" fill="#faffa8" />
  <polygon points="626.70,504.10 637.81,504.10 637.81,490.64 626.70,490.64" fill="#faffa8" />
  <polygon points="626.70,518.73 637.81,518.73 637.81,505.27 626.70,505.27" fill="#faffa8" />
  <polygon points="638.78,518.73 649.89,518.73 649.89,505.27 638.78,505.27" fill="#faffa8" />
  <polygon points="650.85,518.73 661.97,518.73 661.97,505.27 650.85,505.27" fill="#faffa8" />
  <polygon points="662.93,518.73 674.04,518.73 674.04,505.27 662.93,505.27" fill="#faffa8" />
  <polygon points="626.70,533.36 637.81,533.36 637.81,519.90 626.70,519.90" fill="#faffa8" />
  <polygon points="626.70,547.99 637.81,547.99 637.81,534.53 626.70,534.53" fill="#faffa8" />
  <polygon points="626.70,562.61 637.81,562.61 637.81,549.16 626.70,549.16" fill="#faffa8" />
  <polygon points="638.78,562.61 649.89,562.61 649.89,549.16 638.78,549.16" fill="#faffa8" />
  <polygon points="650.85,562.61 661.97,562.61 661.97,549.16 650.85,549.16" fill="#faffa8" />
  <polygon points="662.93,562.61 674.04,562.61 674.04,549.16 662.93,549.16" fill="#faffa8" />
  <polygon points="675.01,562.61 686.12,562.61 686.12,549.16 675.01,549.16" fill="#faffa8" />
  <polygon points="747.48,474.84 758.59,474.84 758.59,461.39 747.48,461.39" fill="#faffa8" />
  <polygon points="795.79,474.84 806.90,474.84 806.90,461.39 795.79,461.39" fill="#faffa8" />
  <polygon points="747.48,489.47 758.59,489.47 758.59,476.01 747.48,476.01" fill="#faffa8" />
  <polygon points="795.79,489.47 806.90,489.47 806.90,476.01 795.79,476.01" fill="#faffa8" />
  <polygon points="747.48,504.10 758.59,504.10 758.59,490.64 747.48,490.64" fill="#faffa8" />
  <polygon points="795.79,504.10 806.90,504.10 806.90,490.64 795.79,490.64" fill="#faffa8" />
  <polygon points="747.48,518.73 758.59,518.73 758.59,505.27 747.48,505.27" fill="#faffa8" />
  <polygon points="771.63,518.73 782.75,518.73 782.75,505.27 771.63,505.27" fill="#faffa8" />
  <polygon points="795.79,518.73 806.90,518.73 806.90,505.27 795.79,505.27" fill="#faffa8" />
  <polygon points="747.48,533.36 758.59,533.36 758.59,519.90 747.48,519.90" fill="#faffa8" />
  <polygon points="771.63,533.36 782.75,533.36 782.75,519.90 771.63,519.90" fill="#faffa8" />
  <polygon points="795.79,533.36 806.90,533.36 806.90,519.90 795.79,519.90" fill="#faffa8" />
  <polygon points="747.48,547.99 758.59,547.99 758.59,534.53 747.48,534.53" fill="#faffa8" />
  <polygon points="771.63,547.99 782.75,547.99 782.75,534.53 771.63,534.53" fill="#faffa8" />
  <polygon points="795.79,547.99 806.90,547.99 806.90,534.53 795.79,534.53" fill="#faffa8" />
  <polygon points="759.56,562.61 770.67,562.61 770.67,549.16 759.56,549.16" fill="#faffa8" />
  <polygon points="783.71,562.61 794.82,562.61 794.82,549.16 783.71,549.16" fill="#faffa8" />
  <polygon points="844.10,474.84 855.21,474.84 855.21,461.39 844.10,461.39" fill="#faffa8" />
  <polygon points="832.02,489.47 843.14,489.47 843.14,476.01 832.02,476.01" fill="#faffa8" />
  <polygon points="856.18,489.47 867.29,489.47 867.29,476.01 856.18,476.01" fill="#faffa8" />
  <polygon points="819.95,504.10 831.06,504.10 831.06,490.64 819.95,490.64" fill="#faffa8" />
  <polygon points="868.26,504.10 879.37,504.10 879.37,490.64 868.26,490.64" fill="#faffa8" />
  <polygon points="819.95,518.73 831.06,518.73 831.06,505.27 819.95,505.27" fill="#faffa8" />
  <polygon points="868.26,518.73 879.37,518.73 879.37,505.27 868.26,505.27" fill="#faffa8" />
  <polygon points="819.95,533.36 831.06,533.36 831.06,519.90 819.95,519.90" fill="#faffa8" />
  <polygon points="832.02,533.36 843.14,533.36 843.14,519.90 832.02,519.90" fill="#faffa8" />
  <polygon points="844.10,533.36 855.21,533.36 855.21,519.90 844.10,519.90" fill="#faffa8" />
  <polygon points="856.18,533.36 867.29,533.36 867.29,519.90 856.18,519.90" fill="#faffa8" />
  <polygon points="868.26,533.36 879.37,533.36 879.37,519.90 868.26,519.90" fill="#faffa8" />
  <polygon points="819.95,547.99 831.06,547.99 831.06,534.53 819.95,534.53" fill="#faffa8" />
  <polygon points="868.26,547.99 879.37,547.99 879.37,534.53 868.26,534.53" fill="#faffa8" />
  <polygon points="819.95,562.61 831.06,562.61 831.06,549.16 819.95,549.16" fill="#faffa8" />
  <polygon points="868.26,562.61 879.37,562.61 879.37,549.16 868.26,549.16" fill="#faffa8" />
  <polygon points="892.41,474.84 903.53,474.84 903.53,461.39 892.41,461.39" fill="#faffa8" />
  <polygon points="940.73,474.84 951.84,474.84 951.84,461.39 940.73,461.39" fill="#faffa8" />
  <polygon points="892.41,489.47 903.53,489.47 903.53,476.01 892.41,476.01" fill="#faffa8" />
  <polygon points="940.73,489.47 951.84,489.47 951.84,476.01 940.73,476.01" fill="#faffa8" />
  <polygon points="904.49,504.10 915.60,504.10 915.60,490.64 904.49,490.64" fill="#faffa8" />
  <polygon points="928.65,504.10 939.76,504.10 939.76,490.64 928.65,490.64" fill="#faffa8" />
  <polygon points="916.57,518.73 927.68,518.73 927.68,505.27 916.57,505.27" fill="#faffa8" />
  <polygon points="916.57,533.36 927.68,533.36 927.68,519.90 916.57,519.90" fill="#faffa8" />
  <polygon points="916.57,547.99 927.68,547.99 927.68,534.53 916.57,534.53" fill="#faffa8" />
  <polygon points="916.57,562.61 927.68,562.61 927.68,549.16 916.57,549.16" fill="#faffa8" />
</svg>
