<svg xmlns="http://www.w3.org/2000/svg" viewBox="0 0 1024 1024">
  <polygon points="25.60,706.56 998.40,706.56 998.40,317.44 25.60,317.44" fill="#65f2ff" />
  <polygon points="205.78,445.12 228.39,445.12 228.39,420.89 205.78,420.89" fill="#faffa8" />
  <polygon points="304.09,445.12 326.70,445.12 326.70,420.89 304.09,420.89" fill="#faffa8" />
  <polygon points="205.78,471.45 228.39,471.45 228.39,447.22 205.78,447.22" fill="#faffa8" />
  <polygon points="304.09,471.45 326.70,471.45 326.70,447.22 304.09,447.22" fill="#faffa8" />
  <polygon points="205.78,497.78 228.39,497.78 228.39,473.56 205.78,473.56" fill="#faffa8" />
  <polygon points="304.09,497.78 326.70,497.78 326.70,473.56 304.09,473.56" fill="#faffa8" />
  <polygon points="205.78,524.11 228.39,524.11 228.39,499.89 205.78,499.89" fill="#faffa8" />
  <polygon points="230.36,524.11 252.97,524.11 252.97,499.89 230.36,499.89" fill="#faffa8" />
  <polygon points="254.94,524.11 277.54,524.11 277.54,499.89 254.94,499.89" fill="#faffa8" />
  <polygon points="279.51,524.11 302.12,524.11 302.12,499.89 279.51,499.89" fill="#faffa8" />
  <polygon points="304.09,524.11 326.70,524.11 326.70,499.89 304.09,499.89" fill="#faffa8" />
  <polygon points="205.78,550.44 228.39,550.44 228.39,526.22 205.78,526.22" fill="#faffa8" />
  <polygon points="304.09,550.44 326.70,550.44 326.70,526.22 304.09,526.22" fill="#faffa8" />
  <polygon points="205.78,576.78 228.39,576.78 228.39,552.55 205.78,552.55" fill="#faffa8" />
  <polygon points="304.09,576.78 326.70,576.78 326.70,552.55 304.09,552.55" fill="#faffa8" />
  <polygon points="205.78,603.11 228.39,603.11 228.39,578.88 205.78,578.88" fill="#faffa8" />
  <polygon points="304.09,603.11 326.70,603.11 326.70,578.88 304.09,578.88" fill="#faffa8" />
  <polygon points="532.48,471.04 757.76,471.04 757.76,552.96 532.48,552.96" fill="#faffa8" />
  <polygon points="901.12,512.00 757.76,409.60 757.76,614.40" fill="#faffa8" />
</svg>
