<svg xmlns="http://www.w3.org/2000/svg" viewBox="0 0 1024 1024">
  <polygon points="10.24,716.80 1013.76,716.80 1013.76,307.20 10.24,307.20" fill="#faffa8" />
  <polygon points="51.20,675.84 972.80,675.84 972.80,348.16 51.20,348.16" fill="#bdff58" />
  <polygon points="450.56,552.96 245.76,552.96 245.76,471.04 450.56,471.04" fill="#faffa8" />
  <polygon points="102.40,512.00 245.76,614.40 245.76,409.60" fill="#faffa8" />
  <polygon points="423.11,474.84 435.06,474.84 435.06,461.39 423.11,461.39" fill="#faffa8" />
  <polygon points="436.09,474.84 448.04,474.84 448.04,461.39 436.09,461.39" fill="#faffa8" />
  <polygon points="449.08,474.84 461.03,474.84 461.03,461.39 449.08,461.39" fill="#faffa8" />
  <polygon points="410.12,489.47 422.07,489.47 422.07,476.01 410.12,476.01" fill="#faffa8" />
  <polygon points="462.07,489.47 474.02,489.47 474.02,476.01 462.07,476.01" fill="#faffa8" />
  <polygon points="410.12,504.10 422.07,504.10 422.07,490.64 410.12,490.64" fill="#faffa8" />
  <polygon points="410.12,518.73 422.07,518.73 422.07,505.27 410.12,505.27" fill="#faffa8" />
  <polygon points="410.12,533.36 422.07,533.36 422.07,519.90 410.12,519.90" fill="#faffa8" />
  <polygon points="410.12,547.99 422.07,547.99 422.07,534.53 410.12,534.53" fill="#faffa8" />
  <polygon points="462.07,547.99 474.02,547.99 474.02,534.53 462.07,534.53" fill="#faffa8" />
  <polygon points="423.11,562.61 435.06,562.61 435.06,549.16 423.11,549.16" fill="#faffa8" />
  <polygon points="436.09,562.61 448.04,562.61 448.04,549.16 436.09,549.16" fill="#faffa8" />
  <polygon points="449.08,562.61 461.03,562.61 461.03,549.16 449.08,549.16" fill="#faffa8" />
  <polygon points="488.04,474.84 499.99,474.84 499.99,461.39 488.04,461.39" fill="#faffa8" />
  <polygon points="501.03,474.84 512.98,474.84 512.98,461.39 501.03,461.39" fill="#faffa8" />
  <polygon points="514.02,474.84 525.97,474.84 525.97,461.39 514.02,461.39" fill="#faffa8" />
  <polygon points="527.01,474.84 538.95,474.84 538.95,461.39 527.01,461.39" fill="#faffa8" />
  <polygon points="539.99,474.84 551.94,474.84 551.94,461.39 539.99,461.39" fill="#faffa8" />
  <polygon points="488.04,489.47 499.99,489.47 499.99,476.01 488.04,476.01" fill="#faffa8" />
  <polygon points="488.04,504.10 499.99,504.10 499.99,490.64 488.04,490.64" fill="#faffa8" />
  <polygon points="488.04,518.73 499.99,518.73 499.99,505.27 488.04,505.27" fill="#faffa8" />
  <polygon points="501.03,518.73 512.98,518.73 512.98,505.27 501.03,505.27" fill="#faffa8" />
  <polygon points="514.02,518.73 525.97,518.73 525.97,505.27 514.02,505.27" fill="#faffa8" />
  <polygon points="527.01,518.73 538.95,518.73 538.95,505.27 527.01,505.27" fill="#faffa8" />
  <polygon points="488.04,533.36 499.99,533.36 499.99,519.90 488.04,519.90" fill="#faffa8" />
  <polygon points="488.04,547.99 499.99,547.99 499.99,534.53 488.04,534.53" fill="#faffa8" />
  <polygon points="488.04,562.61 499.99,562.61 499.99,549.16 488.04,549.16" fill="#faffa8" />
  <polygon points="501.03,562.61 512.98,562.61 512.98,549.16 501.03,549.16" fill="#faffa8" />
  <polygon points="514.02,562.61 525.97,562.61 525.97,549.16 514.02,549.16" fill="#faffa8" />
  <polygon points="527.01,562.61 538.95,562.61 538.95,549.16 527.01,549.16" fill="#faffa8" />
  <polygon points="539.99,562.61 551.94,562.61 551.94,549.16 539.99,549.16" fill="#faffa8" />
  <polygon points="565.97,474.84 577.92,474.84 577.92,461.39 565.97,461.39" fill="#faffa8" />
  <polygon points="617.92,474.84 629.86,474.84 629.86,461.39 617.92,461.39" fill="#faffa8" />
  <polygon points="565.97,489.47 577.92,489.47 577.92,476.01 565.97,476.01" fill="#faffa8" />
  <polygon points="578.95,489.47 590.90,489.47 590.90,476.01 578.95,476.01" fill="#faffa8" />
  <polygon points="617.92,489.47 629.86,489.47 629.86,476.01 617.92,476.01" fill="#faffa8" />
  <polygon points="565.97,504.10 577.92,504.10 577.92,490.64 565.97,490.64" fill="#faffa8" />
  <polygon points="591.94,504.10 603.89,504.10 603.89,490.64 591.94,490.64" fill="#faffa8" />
  <polygon points="617.92,504.10 629.86,504.10 629.86,490.64 617.92,490.64" fill="#faffa8" />
  <polygon points="565.97,518.73 577.92,518.73 577.92,505.27 565.97,505.27" fill="#faffa8" />
  <polygon points="604.93,518.73 616.88,518.73 616.88,505.27 604.93,505.27" fill="#faffa8" />
  <polygon points="617.92,518.73 629.86,518.73 629.86,505.27 617.92,505.27" fill="#faffa8" />
  <polygon points="565.97,533.36 577.92,533.36 577.92,519.90 565.97,519.90" fill="#faffa8" />
  <polygon points="617.92,533.36 629.86,533.36 629.86,519.90 617.92,519.90" fill="#faffa8" />
  <polygon points="565.97,547.99 577.92,547.99 577.92,534.53 565.97,534.53" fill="#faffa8" />
  <polygon points="617.92,547.99 629.86,547.99 629.86,534.53 617.92,534.53" fill="#faffa8" />
  <polygon points="565.97,562.61 577.92,562.61 577.92,549.16 565.97,549.16" fill="#faffa8" />
  <polygon points="617.92,562.61 629.86,562.61 629.86,549.16 617.92,549.16" fill="#faffa8" />
  <polygon points="643.89,474.84 655.84,474.84 655.84,461.39 643.89,461.39" fill="#faffa8" />
  <polygon points="656.88,474.84 668.83,474.84 668.83,461.39 656.88,461.39" fill="#faffa8" />
  <polygon points="669.87,474.84 681.81,474.84 681.81,461.39 669.87,461.39" fill="#faffa8" />
  <polygon points="682.85,474.84 694.80,474.84 694.80,461.39 682.85,461.39" fill="#faffa8" />
  <polygon points="695.84,474.84 707.79,474.84 707.79,461.39 695.84,461.39" fill="#faffa8" />
  <polygon points="669.87,489.47 681.81,489.47 681.81,476.01 669.87,476.01" fill="#faffa8" />
  <polygon points="669.87,504.10 681.81,504.10 681.81,490.64 669.87,490.64" fill="#faffa8" />
  <polygon points="669.87,518.73 681.81,518.73 681.81,505.27 669.87,505.27" fill="#faffa8" />
  <polygon points="669.87,533.36 681.81,533.36 681.81,519.90 669.87,519.90" fill="#faffa8" />
  <polygon points="669.87,547.99 681.81,547.99 681.81,534.53 669.87,534.53" fill="#faffa8" />
  <polygon points="669.87,562.61 681.81,562.61 681.81,549.16 669.87,549.16" fill="#faffa8" />
  <polygon points="721.82,474.84 733.76,474.84 733.76,461.39 721.82,461.39" fill="#faffa8" />
  <polygon points="734.80,474.84 746.75,474.84 746.75,461.39 734.80,461.39" fill="#faffa8" />
  <polygon points="747.79,474.84 759.74,474.84 759.74,461.39 747.79,461.39" fill="#faffa8" />
  <polygon points="760.78,474.84 772.73,474.84 772.73,461.39 760.78,461.39" fill="#faffa8" />
  <polygon points="721.82,489.47 733.76,489.47 733.76,476.01 721.82,476.01" fill="#faffa8" />
  <polygon points="773.76,489.47 785.71,489.47 785.71,476.01 773.76,476.01" fill="#faffa8" />
  <polygon points="721.82,504.10 733.76,504.10 733.76,490.64 721.82,490.64" fill="#faffa8" />
  <polygon points="773.76,504.10 785.71,504.10 785.71,490.64 773.76,490.64" fill="#faffa8" />
  <polygon points="721.82,518.73 733.76,518.73 733.76,505.27 721.82,505.27" fill="#faffa8" />
  <polygon points="734.80,518.73 746.75,518.73 746.75,505.27 734.80,505.27" fill="#faffa8" />
  <polygon points="747.79,518.73 759.74,518.73 759.74,505.27 747.79,505.27" fill="#faffa8" />
  <polygon points="760.78,518.73 772.73,518.73 772.73,505.27 760.78,505.27" fill="#faffa8" />
  <polygon points="721.82,533.36 733.76,533.36 733.76,519.90 721.82,519.90" fill="#faffa8" />
  <polygon points="747.79,533.36 759.74,533.36 759.74,519.90 747.79,519.90" fill="#faffa8" />
  <polygon points="721.82,547.99 733.76,547.99 733.76,534.53 721.82,534.53" fill="#faffa8" />
  <polygon points="760.78,547.99 772.73,547.99 772.73,534.53 760.78,534.53" fill="#faffa8" />
  <polygon points="721.82,562.61 733.76,562.61 733.76,549.16 721.82,549.16" fill="#faffa8" />
  <polygon points="773.76,562.61 785.71,562.61 785.71,549.16 773.76,549.16" fill="#faffa8" />
  <polygon points="799.74,474.84 811.69,474.84 811.69,461.39 799.74,461.39" fill="#faffa8" />
  <polygon points="851.69,474.84 863.64,474.84 863.64,461.39 851.69,461.39" fill="#faffa8" />
  <polygon points="799.74,489.47 811.69,489.47 811.69,476.01 799.74,476.01" fill="#faffa8" />
  <polygon points="851.69,489.47 863.64,489.47 863.64,476.01 851.69,476.01" fill="#faffa8" />
  <polygon points="799.74,504.10 811.69,504.10 811.69,490.64 799.74,490.64" fill="#faffa8" />
  <polygon points="851.69,504.10 863.64,504.10 863.64,490.64 851.69,490.64" fill="#faffa8" />
  <polygon points="799.74,518.73 811.69,518.73 811.69,505.27 799.74,505.27" fill="#faffa8" />
  <polygon points="851.69,518.73 863.64,518.73 863.64,505.27 851.69,505.27" fill="#faffa8" />
  <polygon points="799.74,533.36 811.69,533.36 811.69,519.90 799.74,519.90" fill="#faffa8" />
  <polygon points="851.69,533.36 863.64,533.36 863.64,519.90 851.69,519.90" fill="#faffa8" />
  <polygon points="799.74,547.99 811.69,547.99 811.69,534.53 799.74,534.53" fill="#faffa8" />
  <polygon points="851.69,547.99 863.64,547.99 863.64,534.53 851.69,534.53" fill="#faffa8" />
  <polygon points="812.73,562.61 824.67,562.61 824.67,549.16 812.73,549.16" fill="#faffa8" />
  <polygon points="825.71,562.61 837.66,562.61 837.66,549.16 825.71,549.16" fill="#faffa8" />
  <polygon points="838.70,562.61 850.65,562.61 850.65,549.16 838.70,549.16" fill="#faffa8" />
  <polygon points="877.66,474.84 889.61,474.84 889.61,461.39 877.66,461.39" fill="#faffa8" />
  <polygon points="929.61,474.84 941.56,474.84 941.56,461.39 929.61,461.39" fill="#faffa8" />
  <polygon points="877.66,489.47 889.61,489.47 889.61,476.01 877.66,476.01" fill="#faffa8" />
  <polygon points="890.65,489.47 902.60,489.47 902.60,476.01 890.65,476.01" fill="#faffa8" />
  <polygon points="916.62,489.47 928.57,489.47 928.57,476.01 916.62,476.01" fill="#faffa8" />
  <polygon points="929.61,489.47 941.56,489.47 941.56,476.01 929.61,476.01" fill="#faffa8" />
  <polygon points="877.66,504.10 889.61,504.10 889.61,490.64 877.66,490.64" fill="#faffa8" />
  <polygon points="903.64,504.10 915.59,504.10 915.59,490.64 903.64,490.64" fill="#faffa8" />
  <polygon points="929.61,504.10 941.56,504.10 941.56,490.64 929.61,490.64" fill="#faffa8" />
  <polygon points="877.66,518.73 889.61,518.73 889.61,505.27 877.66,505.27" fill="#faffa8" />
  <polygon points="903.64,518.73 915.59,518.73 915.59,505.27 903.64,505.27" fill="#faffa8" />
  <polygon points="929.61,518.73 941.56,518.73 941.56,505.27 929.61,505.27" fill="#faffa8" />
  <polygon points="877.66,533.36 889.61,533.36 889.61,519.90 877.66,519.90" fill="#faffa8" />
  <polygon points="929.61,533.36 941.56,533.36 941.56,519.90 929.61,519.90" fill="#faffa8" />
  <polygon points="877.66,547.99 889.61,547.99 889.61,534.53 877.66,534.53" fill="#faffa8" />
  <polygon points="929.61,547.99 941.56,547.99 941.56,534.53 929.61,534.53" fill="#faffa8" />
  <polygon points="877.66,562.61 889.61,562.61 889.61,549.16 877.66,549.16" fill="#faffa8" />
  <polygon points="929.61,562.61 941.56,562.61 941.56,549.16 929.61,549.16" fill="#faffa8" />
</svg>
