<svg xmlns="http://www.w3.org/2000/svg" viewBox="0 0 1024 1024">
  <polygon points="187.60,1003.52 836.40,1003.52 962.56,590.64 791.35,276.07 512.00,20.48 232.65,276.07 61.44,590.64" fill="#faffa8" />
  <polygon points="231.83,942.08 792.17,942.08 901.12,590.64 753.25,276.07 512.00,81.92 270.75,276.07 122.88,590.64" fill="#bdff58" />
  <polygon points="428.96,666.59 446.09,666.59 446.09,655.83 428.96,655.83" fill="#faffa8" />
  <polygon points="447.58,666.59 464.71,666.59 464.71,655.83 447.58,655.83" fill="#faffa8" />
  <polygon points="466.20,666.59 483.33,666.59 483.33,655.83 466.20,655.83" fill="#faffa8" />
  <polygon points="410.34,678.30 427.47,678.30 427.47,667.53 410.34,667.53" fill="#faffa8" />
  <polygon points="484.82,678.30 501.95,678.30 501.95,667.53 484.82,667.53" fill="#faffa8" />
  <polygon points="410.34,690.00 427.47,690.00 427.47,679.23 410.34,679.23" fill="#faffa8" />
  <polygon points="410.34,701.70 427.47,701.70 427.47,690.94 410.34,690.94" fill="#faffa8" />
  <polygon points="410.34,713.41 427.47,713.41 427.47,702.64 410.34,702.64" fill="#faffa8" />
  <polygon points="410.34,725.11 427.47,725.11 427.47,714.34 410.34,714.34" fill="#faffa8" />
  <polygon points="484.82,725.11 501.95,725.11 501.95,714.34 484.82,714.34" fill="#faffa8" />
  <polygon points="428.96,736.81 446.09,736.81 446.09,726.05 428.96,726.05" fill="#faffa8" />
  <polygon points="447.58,736.81 464.71,736.81 464.71,726.05 447.58,726.05" fill="#faffa8" />
  <polygon points="466.20,736.81 483.33,736.81 483.33,726.05 466.20,726.05" fill="#faffa8" />
  <polygon points="559.29,666.59 576.42,666.59 576.42,655.83 559.29,655.83" fill="#faffa8" />
  <polygon points="540.67,678.30 557.80,678.30 557.80,667.53 540.67,667.53" fill="#faffa8" />
  <polygon points="577.91,678.30 595.04,678.30 595.04,667.53 577.91,667.53" fill="#faffa8" />
  <polygon points="522.05,690.00 539.18,690.00 539.18,679.23 522.05,679.23" fill="#faffa8" />
  <polygon points="596.53,690.00 613.66,690.00 613.66,679.23 596.53,679.23" fill="#faffa8" />
  <polygon points="522.05,701.70 539.18,701.70 539.18,690.94 522.05,690.94" fill="#faffa8" />
  <polygon points="596.53,701.70 613.66,701.70 613.66,690.94 596.53,690.94" fill="#faffa8" />
  <polygon points="522.05,713.41 539.18,713.41 539.18,702.64 522.05,702.64" fill="#faffa8" />
  <polygon points="540.67,713.41 557.80,713.41 557.80,702.64 540.67,702.64" fill="#faffa8" />
  <polygon points="559.29,713.41 576.42,713.41 576.42,702.64 559.29,702.64" fill="#faffa8" />
  <polygon points="577.91,713.41 595.04,713.41 595.04,702.64 577.91,702.64" fill="#faffa8" />
  <polygon points="596.53,713.41 613.66,713.41 613.66,702.64 596.53,702.64" fill="#faffa8" />
  <polygon points="522.05,725.11 539.18,725.11 539.18,714.34 522.05,714.34" fill="#faffa8" />
  <polygon points="596.53,725.11 613.66,725.11 613.66,714.34 596.53,714.34" fill="#faffa8" />
  <polygon points="522.05,736.81 539.18,736.81 539.18,726.05 522.05,726.05" fill="#faffa8" />
  <polygon points="596.53,736.81 613.66,736.81 613.66,726.05 596.53,726.05" fill="#faffa8" />
  <polygon points="404.05,307.38 426.32,307.38 426.32,277.77 404.05,277.77" fill="#faffa8" />
  <polygon points="428.26,307.38 450.52,307.38 450.52,277.77 428.26,277.77" fill="#faffa8" />
  <polygon points="452.46,307.38 474.73,307.38 474.73,277.77 452.46,277.77" fill="#faffa8" />
  <polygon points="379.85,339.56 402.12,339.56 402.12,309.95 379.85,309.95" fill="#faffa8" />
  <polygon points="476.66,339.56 498.93,339.56 498.93,309.95 476.66,309.95" fill="#faffa8" />
  <polygon points="379.85,371.74 402.12,371.74 402.12,342.13 379.85,342.13" fill="#faffa8" />
  <polygon points="476.66,371.74 498.93,371.74 498.93,342.13 476.66,342.13" fill="#faffa8" />
  <polygon points="404.05,403.92 426.32,403.92 426.32,374.32 404.05,374.32" fill="#faffa8" />
  <polygon points="428.26,403.92 450.52,403.92 450.52,374.32 428.26,374.32" fill="#faffa8" />
  <polygon points="452.46,403.92 474.73,403.92 474.73,374.32 452.46,374.32" fill="#faffa8" />
  <polygon points="379.85,436.11 402.12,436.11 402.12,406.50 379.85,406.50" fill="#faffa8" />
  <polygon points="476.66,436.11 498.93,436.11 498.93,406.50 476.66,406.50" fill="#faffa8" />
  <polygon points="379.85,468.29 402.12,468.29 402.12,438.68 379.85,438.68" fill="#faffa8" />
  <polygon points="476.66,468.29 498.93,468.29 498.93,438.68 476.66,438.68" fill="#faffa8" />
  <polygon points="404.05,500.47 426.32,500.47 426.32,470.86 404.05,470.86" fill="#faffa8" />
  <polygon points="428.26,500.47 450.52,500.47 450.52,470.86 428.26,470.86" fill="#faffa8" />
  <polygon points="452.46,500.47 474.73,500.47 474.73,470.86 452.46,470.86" fill="#faffa8" />
  <polygon points="549.27,307.38 571.54,307.38 571.54,277.77 549.27,277.77" fill="#faffa8" />
  <polygon points="573.48,307.38 595.74,307.38 595.74,277.77 573.48,277.77" fill="#faffa8" />
  <polygon points="597.68,307.38 619.95,307.38 619.95,277.77 597.68,277.77" fill="#faffa8" />
  <polygon points="525.07,339.56 547.34,339.56 547.34,309.95 525.07,309.95" fill="#faffa8" />
  <polygon points="621.88,339.56 644.15,339.56 644.15,309.95 621.88,309.95" fill="#faffa8" />
  <polygon points="621.88,371.74 644.15,371.74 644.15,342.13 621.88,342.13" fill="#faffa8" />
  <polygon points="597.68,403.92 619.95,403.92 619.95,374.32 597.68,374.32" fill="#faffa8" />
  <polygon points="573.48,436.11 595.74,436.11 595.74,406.50 573.48,406.50" fill="#faffa8" />
  <polygon points="549.27,468.29 571.54,468.29 571.54,438.68 549.27,438.68" fill="#faffa8" />
  <polygon points="525.07,500.47 547.34,500.47 547.34,470.86 525.07,470.86" fill="#faffa8" />
  <polygon points="549.27,500.47 571.54,500.47 571.54,470.86 549.27,470.86" fill="#faffa8" />
  <polygon points="573.48,500.47 595.74,500.47 595.74,470.86 573.48,470.86" fill="#faffa8" />
  <polygon points="597.68,500.47 619.95,500.47 619.95,470.86 597.68,470.86" fill="#faffa8" />
  <polygon points="621.88,500.47 644.15,500.47 644.15,470.86 621.88,470.86" fill="#faffa8" />
</svg>
