<svg xmlns="http://www.w3.org/2000/svg" viewBox="0 0 1024 1024">
  <polygon points="88.06,1003.52 935.94,1003.52 917.50,570.98 816.13,394.04 705.54,59.80 512.00,20.48 318.46,59.80 207.87,394.04 106.50,570.98" fill="#faffa8" />
  <polygon points="144.59,942.08 879.41,942.08 863.44,570.98 775.58,394.04 679.73,116.33 512.00,81.92 344.27,116.33 248.42,394.04 160.56,570.98" fill="#65f2ff" />
  <polygon points="163.84,901.12 860.16,901.12 860.16,696.32 163.84,696.32" fill="#ff710f" />
  <polygon points="471.70,768.99 486.77,768.99 486.77,758.23 471.70,758.23" fill="#faffa8" />
  <polygon points="488.08,768.99 503.15,768.99 503.15,758.23 488.08,758.23" fill="#faffa8" />
  <polygon points="504.46,768.99 519.54,768.99 519.54,758.23 504.46,758.23" fill="#faffa8" />
  <polygon points="520.85,768.99 535.92,768.99 535.92,758.23 520.85,758.23" fill="#faffa8" />
  <polygon points="537.23,768.99 552.30,768.99 552.30,758.23 537.23,758.23" fill="#faffa8" />
  <polygon points="504.46,780.70 519.54,780.70 519.54,769.93 504.46,769.93" fill="#faffa8" />
  <polygon points="504.46,792.40 519.54,792.40 519.54,781.63 504.46,781.63" fill="#faffa8" />
  <polygon points="504.46,804.10 519.54,804.10 519.54,793.34 504.46,793.34" fill="#faffa8" />
  <polygon points="504.46,815.81 519.54,815.81 519.54,805.04 504.46,805.04" fill="#faffa8" />
  <polygon points="504.46,827.51 519.54,827.51 519.54,816.74 504.46,816.74" fill="#faffa8" />
  <polygon points="471.70,839.21 486.77,839.21 486.77,828.45 471.70,828.45" fill="#faffa8" />
  <polygon points="488.08,839.21 503.15,839.21 503.15,828.45 488.08,828.45" fill="#faffa8" />
  <polygon points="504.46,839.21 519.54,839.21 519.54,828.45 504.46,828.45" fill="#faffa8" />
  <polygon points="520.85,839.21 535.92,839.21 535.92,828.45 520.85,828.45" fill="#faffa8" />
  <polygon points="537.23,839.21 552.30,839.21 552.30,828.45 537.23,828.45" fill="#faffa8" />
  <polygon points="373.87,327.86 397.14,327.86 397.14,298.25 373.87,298.25" fill="#faffa8" />
  <polygon points="348.57,360.04 371.84,360.04 371.84,330.43 348.57,330.43" fill="#faffa8" />
  <polygon points="373.87,360.04 397.14,360.04 397.14,330.43 373.87,330.43" fill="#faffa8" />
  <polygon points="323.27,392.22 346.55,392.22 346.55,362.61 323.27,362.61" fill="#faffa8" />
  <polygon points="373.87,392.22 397.14,392.22 397.14,362.61 373.87,362.61" fill="#faffa8" />
  <polygon points="297.97,424.40 321.25,424.40 321.25,394.80 297.97,394.80" fill="#faffa8" />
  <polygon points="373.87,424.40 397.14,424.40 397.14,394.80 373.87,394.80" fill="#faffa8" />
  <polygon points="297.97,456.59 321.25,456.59 321.25,426.98 297.97,426.98" fill="#faffa8" />
  <polygon points="323.27,456.59 346.55,456.59 346.55,426.98 323.27,426.98" fill="#faffa8" />
  <polygon points="348.57,456.59 371.84,456.59 371.84,426.98 348.57,426.98" fill="#faffa8" />
  <polygon points="373.87,456.59 397.14,456.59 397.14,426.98 373.87,426.98" fill="#faffa8" />
  <polygon points="399.17,456.59 422.44,456.59 422.44,426.98 399.17,426.98" fill="#faffa8" />
  <polygon points="373.87,488.77 397.14,488.77 397.14,459.16 373.87,459.16" fill="#faffa8" />
  <polygon points="373.87,520.95 397.14,520.95 397.14,491.34 373.87,491.34" fill="#faffa8" />
  <polygon points="475.06,327.86 498.34,327.86 498.34,298.25 475.06,298.25" fill="#faffa8" />
  <polygon points="500.36,327.86 523.64,327.86 523.64,298.25 500.36,298.25" fill="#faffa8" />
  <polygon points="525.66,327.86 548.94,327.86 548.94,298.25 525.66,298.25" fill="#faffa8" />
  <polygon points="449.76,360.04 473.04,360.04 473.04,330.43 449.76,330.43" fill="#faffa8" />
  <polygon points="550.96,360.04 574.24,360.04 574.24,330.43 550.96,330.43" fill="#faffa8" />
  <polygon points="449.76,392.22 473.04,392.22 473.04,362.61 449.76,362.61" fill="#faffa8" />
  <polygon points="525.66,392.22 548.94,392.22 548.94,362.61 525.66,362.61" fill="#faffa8" />
  <polygon points="550.96,392.22 574.24,392.22 574.24,362.61 550.96,362.61" fill="#faffa8" />
  <polygon points="449.76,424.40 473.04,424.40 473.04,394.80 449.76,394.80" fill="#faffa8" />
  <polygon points="500.36,424.40 523.64,424.40 523.64,394.80 500.36,394.80" fill="#faffa8" />
  <polygon points="550.96,424.40 574.24,424.40 574.24,394.80 550.96,394.80" fill="#faffa8" />
  <polygon points="449.76,456.59 473.04,456.59 473.04,426.98 449.76,426.98" fill="#faffa8" />
  <polygon points="475.06,456.59 498.34,456.59 498.34,426.98 475.06,426.98" fill="#faffa8" />
  <polygon points="550.96,456.59 574.24,456.59 574.24,426.98 550.96,426.98" fill="#faffa8" />
  <polygon points="449.76,488.77 473.04,488.77 473.04,459.16 449.76,459.16" fill="#faffa8" />
  <polygon points="550.96,488.77 574.24,488.77 574.24,459.16 550.96,459.16" fill="#faffa8" />
  <polygon points="475.06,520.95 498.34,520.95 498.34,491.34 475.06,491.34" fill="#faffa8" />
  <polygon points="500.36,520.95 523.64,520.95 523.64,491.34 500.36,491.34" fill="#faffa8" />
  <polygon points="525.66,520.95 548.94,520.95 548.94,491.34 525.66,491.34" fill="#faffa8" />
  <polygon points="601.56,327.86 624.83,327.86 624.83,298.25 601.56,298.25" fill="#faffa8" />
  <polygon points="626.86,327.86 650.13,327.86 650.13,298.25 626.86,298.25" fill="#faffa8" />
  <polygon points="652.16,327.86 675.43,327.86 675.43,298.25 652.16,298.25" fill="#faffa8" />
  <polygon points="677.45,327.86 700.73,327.86 700.73,298.25 677.45,298.25" fill="#faffa8" />
  <polygon points="702.75,327.86 726.03,327.86 726.03,298.25 702.75,298.25" fill="#faffa8" />
  <polygon points="601.56,360.04 624.83,360.04 624.83,330.43 601.56,330.43" fill="#faffa8" />
  <polygon points="601.56,392.22 624.83,392.22 624.83,362.61 601.56,362.61" fill="#faffa8" />
  <polygon points="626.86,392.22 650.13,392.22 650.13,362.61 626.86,362.61" fill="#faffa8" />
  <polygon points="652.16,392.22 675.43,392.22 675.43,362.61 652.16,362.61" fill="#faffa8" />
  <polygon points="677.45,392.22 700.73,392.22 700.73,362.61 677.45,362.61" fill="#faffa8" />
  <polygon points="702.75,424.40 726.03,424.40 726.03,394.80 702.75,394.80" fill="#faffa8" />
  <polygon points="702.75,456.59 726.03,456.59 726.03,426.98 702.75,426.98" fill="#faffa8" />
  <polygon points="601.56,488.77 624.83,488.77 624.83,459.16 601.56,459.16" fill="#faffa8" />
  <polygon points="702.75,488.77 726.03,488.77 726.03,459.16 702.75,459.16" fill="#faffa8" />
  <polygon points="626.86,520.95 650.13,520.95 650.13,491.34 626.86,491.34" fill="#faffa8" />
  <polygon points="652.16,520.95 675.43,520.95 675.43,491.34 652.16,491.34" fill="#faffa8" />
  <polygon points="677.45,520.95 700.73,520.95 700.73,491.34 677.45,491.34" fill="#faffa8" />
</svg>
