<svg xmlns="http://www.w3.org/2000/svg" viewBox="0 0 1024 1024">
  <polygon points="10.24,798.72 1013.76,798.72 1013.76,225.28 10.24,225.28" fill="#faffa8" />
  <polygon points="40.96,768.00 983.04,768.00 983.04,256.00 40.96,256.00" fill="#bdff58" />
  <polygon points="496.64,737.28 496.64,286.72 527.36,286.72 527.36,737.28" fill="#faffa8" />
  <polygon points="112.97,608.87 120.60,608.87 120.60,599.45 112.97,599.45" fill="#faffa8" />
  <polygon points="121.26,608.87 128.89,608.87 128.89,599.45 121.26,599.45" fill="#faffa8" />
  <polygon points="129.55,608.87 137.18,608.87 137.18,599.45 129.55,599.45" fill="#faffa8" />
  <polygon points="137.84,608.87 145.47,608.87 145.47,599.45 137.84,599.45" fill="#faffa8" />
  <polygon points="112.97,619.11 120.60,619.11 120.60,609.69 112.97,609.69" fill="#faffa8" />
  <polygon points="146.13,619.11 153.76,619.11 153.76,609.69 146.13,609.69" fill="#faffa8" />
  <polygon points="112.97,629.35 120.60,629.35 120.60,619.93 112.97,619.93" fill="#faffa8" />
  <polygon points="146.13,629.35 153.76,629.35 153.76,619.93 146.13,619.93" fill="#faffa8" />
  <polygon points="112.97,639.59 120.60,639.59 120.60,630.17 112.97,630.17" fill="#faffa8" />
  <polygon points="121.26,639.59 128.89,639.59 128.89,630.17 121.26,630.17" fill="#faffa8" />
  <polygon points="129.55,639.59 137.18,639.59 137.18,630.17 129.55,630.17" fill="#faffa8" />
  <polygon points="137.84,639.59 145.47,639.59 145.47,630.17 137.84,630.17" fill="#faffa8" />
  <polygon points="112.97,649.83 120.60,649.83 120.60,640.41 112.97,640.41" fill="#faffa8" />
  <polygon points="112.97,660.07 120.60,660.07 120.60,650.65 112.97,650.65" fill="#faffa8" />
  <polygon points="112.97,670.31 120.60,670.31 120.60,660.89 112.97,660.89" fill="#faffa8" />
  <polygon points="162.71,608.87 170.34,608.87 170.34,599.45 162.71,599.45" fill="#faffa8" />
  <polygon points="162.71,619.11 170.34,619.11 170.34,609.69 162.71,609.69" fill="#faffa8" />
  <polygon points="162.71,629.35 170.34,629.35 170.34,619.93 162.71,619.93" fill="#faffa8" />
  <polygon points="162.71,639.59 170.34,639.59 170.34,630.17 162.71,630.17" fill="#faffa8" />
  <polygon points="162.71,649.83 170.34,649.83 170.34,640.41 162.71,640.41" fill="#faffa8" />
  <polygon points="162.71,660.07 170.34,660.07 170.34,650.65 162.71,650.65" fill="#faffa8" />
  <polygon points="162.71,670.31 170.34,670.31 170.34,660.89 162.71,660.89" fill="#faffa8" />
  <polygon points="171.00,670.31 178.62,670.31 178.62,660.89 171.00,660.89" fill="#faffa8" />
  <polygon points="179.29,670.31 186.91,670.31 186.91,660.89 179.29,660.89" fill="#faffa8" />
  <polygon points="187.58,670.31 195.20,670.31 195.20,660.89 187.58,660.89" fill="#faffa8" />
  <polygon points="195.87,670.31 203.49,670.31 203.49,660.89 195.87,660.89" fill="#faffa8" />
  <polygon points="229.02,608.87 236.65,608.87 236.65,599.45 229.02,599.45" fill="#faffa8" />
  <polygon points="220.74,619.11 228.36,619.11 228.36,609.69 220.74,609.69" fill="#faffa8" />
  <polygon points="237.31,619.11 244.94,619.11 244.94,609.69 237.31,609.69" fill="#faffa8" />
  <polygon points="212.45,629.35 220.07,629.35 220.07,619.93 212.45,619.93" fill="#faffa8" />
  <polygon points="245.60,629.35 253.23,629.35 253.23,619.93 245.60,619.93" fill="#faffa8" />
  <polygon points="212.45,639.59 220.07,639.59 220.07,630.17 212.45,630.17" fill="#faffa8" />
  <polygon points="245.60,639.59 253.23,639.59 253.23,630.17 245.60,630.17" fill="#faffa8" />
  <polygon points="212.45,649.83 220.07,649.83 220.07,640.41 212.45,640.41" fill="#faffa8" />
  <polygon points="220.74,649.83 228.36,649.83 228.36,640.41 220.74,640.41" fill="#faffa8" />
  <polygon points="229.02,649.83 236.65,649.83 236.65,640.41 229.02,640.41" fill="#faffa8" />
  <polygon points="237.31,649.83 244.94,649.83 244.94,640.41 237.31,640.41" fill="#faffa8" />
  <polygon points="245.60,649.83 253.23,649.83 253.23,640.41 245.60,640.41" fill="#faffa8" />
  <polygon points="212.45,660.07 220.07,660.07 220.07,650.65 212.45,650.65" fill="#faffa8" />
  <polygon points="245.60,660.07 253.23,660.07 253.23,650.65 245.60,650.65" fill="#faffa8" />
  <polygon points="212.45,670.31 220.07,670.31 220.07,660.89 212.45,660.89" fill="#faffa8" />
  <polygon points="245.60,670.31 253.23,670.31 253.23,660.89 245.60,660.89" fill="#faffa8" />
  <polygon points="262.18,608.87 269.81,608.87 269.81,599.45 262.18,599.45" fill="#faffa8" />
  <polygon points="270.47,608.87 278.10,608.87 278.10,599.45 270.47,599.45" fill="#faffa8" />
  <polygon points="278.76,608.87 286.39,608.87 286.39,599.45 278.76,599.45" fill="#faffa8" />
  <polygon points="287.05,608.87 294.68,608.87 294.68,599.45 287.05,599.45" fill="#faffa8" />
  <polygon points="295.34,608.87 302.97,608.87 302.97,599.45 295.34,599.45" fill="#faffa8" />
  <polygon points="278.76,619.11 286.39,619.11 286.39,609.69 278.76,609.69" fill="#faffa8" />
  <polygon points="278.76,629.35 286.39,629.35 286.39,619.93 278.76,619.93" fill="#faffa8" />
  <polygon points="278.76,639.59 286.39,639.59 286.39,630.17 278.76,630.17" fill="#faffa8" />
  <polygon points="278.76,649.83 286.39,649.83 286.39,640.41 278.76,640.41" fill="#faffa8" />
  <polygon points="278.76,660.07 286.39,660.07 286.39,650.65 278.76,650.65" fill="#faffa8" />
  <polygon points="278.76,670.31 286.39,670.31 286.39,660.89 278.76,660.89" fill="#faffa8" />
  <polygon points="369.95,608.87 377.57,608.87 377.57,599.45 369.95,599.45" fill="#faffa8" />
  <polygon points="378.24,608.87 385.86,608.87 385.86,599.45 378.24,599.45" fill="#faffa8" />
  <polygon points="386.53,608.87 394.15,608.87 394.15,599.45 386.53,599.45" fill="#faffa8" />
  <polygon points="361.66,619.11 369.28,619.11 369.28,609.69 361.66,609.69" fill="#faffa8" />
  <polygon points="394.82,619.11 402.44,619.11 402.44,609.69 394.82,609.69" fill="#faffa8" />
  <polygon points="361.66,629.35 369.28,629.35 369.28,619.93 361.66,619.93" fill="#faffa8" />
  <polygon points="394.82,629.35 402.44,629.35 402.44,619.93 394.82,619.93" fill="#faffa8" />
  <polygon points="361.66,639.59 369.28,639.59 369.28,630.17 361.66,630.17" fill="#faffa8" />
  <polygon points="394.82,639.59 402.44,639.59 402.44,630.17 394.82,630.17" fill="#faffa8" />
  <polygon points="361.66,649.83 369.28,649.83 369.28,640.41 361.66,640.41" fill="#faffa8" />
  <polygon points="394.82,649.83 402.44,649.83 402.44,640.41 394.82,640.41" fill="#faffa8" />
  <polygon points="361.66,660.07 369.28,660.07 369.28,650.65 361.66,650.65" fill="#faffa8" />
  <polygon points="394.82,660.07 402.44,660.07 402.44,650.65 394.82,650.65" fill="#faffa8" />
  <polygon points="369.95,670.31 377.57,670.31 377.57,660.89 369.95,660.89" fill="#faffa8" />
  <polygon points="378.24,670.31 385.86,670.31 385.86,660.89 378.24,660.89" fill="#faffa8" />
  <polygon points="386.53,670.31 394.15,670.31 394.15,660.89 386.53,660.89" fill="#faffa8" />
  <polygon points="411.39,608.87 419.02,608.87 419.02,599.45 411.39,599.45" fill="#faffa8" />
  <polygon points="419.68,608.87 427.31,608.87 427.31,599.45 419.68,599.45" fill="#faffa8" />
  <polygon points="427.97,608.87 435.60,608.87 435.60,599.45 427.97,599.45" fill="#faffa8" />
  <polygon points="436.26,608.87 443.89,608.87 443.89,599.45 436.26,599.45" fill="#faffa8" />
  <polygon points="411.39,619.11 419.02,619.11 419.02,609.69 411.39,609.69" fill="#faffa8" />
  <polygon points="444.55,619.11 452.18,619.11 452.18,609.69 444.55,609.69" fill="#faffa8" />
  <polygon points="411.39,629.35 419.02,629.35 419.02,619.93 411.39,619.93" fill="#faffa8" />
  <polygon points="444.55,629.35 452.18,629.35 452.18,619.93 444.55,619.93" fill="#faffa8" />
  <polygon points="411.39,639.59 419.02,639.59 419.02,630.17 411.39,630.17" fill="#faffa8" />
  <polygon points="419.68,639.59 427.31,639.59 427.31,630.17 419.68,630.17" fill="#faffa8" />
  <polygon points="427.97,639.59 435.60,639.59 435.60,630.17 427.97,630.17" fill="#faffa8" />
  <polygon points="436.26,639.59 443.89,639.59 443.89,630.17 436.26,630.17" fill="#faffa8" />
  <polygon points="411.39,649.83 419.02,649.83 419.02,640.41 411.39,640.41" fill="#faffa8" />
  <polygon points="427.97,649.83 435.60,649.83 435.60,640.41 427.97,640.41" fill="#faffa8" />
  <polygon points="411.39,660.07 419.02,660.07 419.02,650.65 411.39,650.65" fill="#faffa8" />
  <polygon points="436.26,660.07 443.89,660.07 443.89,650.65 436.26,650.65" fill="#faffa8" />
  <polygon points="411.39,670.31 419.02,670.31 419.02,660.89 411.39,660.89" fill="#faffa8" />
  <polygon points="444.55,670.31 452.18,670.31 452.18,660.89 444.55,660.89" fill="#faffa8" />
  <polygon points="461.13,608.87 468.76,608.87 468.76,599.45 461.13,599.45" fill="#faffa8" />
  <polygon points="494.29,608.87 501.92,608.87 501.92,599.45 494.29,599.45" fill="#faffa8" />
  <polygon points="461.13,619.11 468.76,619.11 468.76,609.69 461.13,609.69" fill="#faffa8" />
  <polygon points="469.42,619.11 477.05,619.11 477.05,609.69 469.42,609.69" fill="#faffa8" />
  <polygon points="486.00,619.11 493.63,619.11 493.63,609.69 486.00,609.69" fill="#faffa8" />
  <polygon points="494.29,619.11 501.92,619.11 501.92,609.69 494.29,609.69" fill="#faffa8" />
  <polygon points="461.13,629.35 468.76,629.35 468.76,619.93 461.13,619.93" fill="#faffa8" />
  <polygon points="477.71,629.35 485.34,629.35 485.34,619.93 477.71,619.93" fill="#faffa8" />
  <polygon points="494.29,629.35 501.92,629.35 501.92,619.93 494.29,619.93" fill="#faffa8" />
  <polygon points="461.13,639.59 468.76,639.59 468.76,630.17 461.13,630.17" fill="#faffa8" />
  <polygon points="477.71,639.59 485.34,639.59 485.34,630.17 477.71,630.17" fill="#faffa8" />
  <polygon points="494.29,639.59 501.92,639.59 501.92,630.17 494.29,630.17" fill="#faffa8" />
  <polygon points="461.13,649.83 468.76,649.83 468.76,640.41 461.13,640.41" fill="#faffa8" />
  <polygon points="494.29,649.83 501.92,649.83 501.92,640.41 494.29,640.41" fill="#faffa8" />
  <polygon points="461.13,660.07 468.76,660.07 468.76,650.65 461.13,650.65" fill="#faffa8" />
  <polygon points="494.29,660.07 501.92,660.07 501.92,650.65 494.29,650.65" fill="#faffa8" />
  <polygon points="461.13,670.31 468.76,670.31 468.76,660.89 461.13,660.89" fill="#faffa8" />
  <polygon points="494.29,670.31 501.92,670.31 501.92,660.89 494.29,660.89" fill="#faffa8" />
  <polygon points="594.38,605.15 604.93,605.15 604.93,594.39 594.38,594.39" fill="#faffa8" />
  <polygon points="605.85,605.15 616.40,605.15 616.40,594.39 605.85,594.39" fill="#faffa8" />
  <polygon points="617.32,605.15 627.87,605.15 627.87,594.39 617.32,594.39" fill="#faffa8" />
  <polygon points="628.79,605.15 639.34,605.15 639.34,594.39 628.79,594.39" fill="#faffa8" />
  <polygon points="594.38,616.86 604.93,616.86 604.93,606.09 594.38,606.09" fill="#faffa8" />
  <polygon points="640.25,616.86 650.81,616.86 650.81,606.09 640.25,606.09" fill="#faffa8" />
  <polygon points="594.38,628.56 604.93,628.56 604.93,617.79 594.38,617.79" fill="#faffa8" />
  <polygon points="640.25,628.56 650.81,628.56 650.81,617.79 640.25,617.79" fill="#faffa8" />
  <polygon points="594.38,640.26 604.93,640.26 604.93,629.50 594.38,629.50" fill="#faffa8" />
  <polygon points="605.85,640.26 616.40,640.26 616.40,629.50 605.85,629.50" fill="#faffa8" />
  <polygon points="617.32,640.26 627.87,640.26 627.87,629.50 617.32,629.50" fill="#faffa8" />
  <polygon points="628.79,640.26 639.34,640.26 639.34,629.50 628.79,629.50" fill="#faffa8" />
  <polygon points="594.38,651.97 604.93,651.97 604.93,641.20 594.38,641.20" fill="#faffa8" />
  <polygon points="617.32,651.97 627.87,651.97 627.87,641.20 617.32,641.20" fill="#faffa8" />
  <polygon points="594.38,663.67 604.93,663.67 604.93,652.90 594.38,652.90" fill="#faffa8" />
  <polygon points="628.79,663.67 639.34,663.67 639.34,652.90 628.79,652.90" fill="#faffa8" />
  <polygon points="594.38,675.37 604.93,675.37 604.93,664.61 594.38,664.61" fill="#faffa8" />
  <polygon points="640.25,675.37 650.81,675.37 650.81,664.61 640.25,664.61" fill="#faffa8" />
  <polygon points="663.19,605.15 673.74,605.15 673.74,594.39 663.19,594.39" fill="#faffa8" />
  <polygon points="674.66,605.15 685.21,605.15 685.21,594.39 674.66,594.39" fill="#faffa8" />
  <polygon points="686.13,605.15 696.68,605.15 696.68,594.39 686.13,594.39" fill="#faffa8" />
  <polygon points="697.60,605.15 708.15,605.15 708.15,594.39 697.60,594.39" fill="#faffa8" />
  <polygon points="709.07,605.15 719.62,605.15 719.62,594.39 709.07,594.39" fill="#faffa8" />
  <polygon points="663.19,616.86 673.74,616.86 673.74,606.09 663.19,606.09" fill="#faffa8" />
  <polygon points="663.19,628.56 673.74,628.56 673.74,617.79 663.19,617.79" fill="#faffa8" />
  <polygon points="663.19,640.26 673.74,640.26 673.74,629.50 663.19,629.50" fill="#faffa8" />
  <polygon points="674.66,640.26 685.21,640.26 685.21,629.50 674.66,629.50" fill="#faffa8" />
  <polygon points="686.13,640.26 696.68,640.26 696.68,629.50 686.13,629.50" fill="#faffa8" />
  <polygon points="697.60,640.26 708.15,640.26 708.15,629.50 697.60,629.50" fill="#faffa8" />
  <polygon points="663.19,651.97 673.74,651.97 673.74,641.20 663.19,641.20" fill="#faffa8" />
  <polygon points="663.19,663.67 673.74,663.67 673.74,652.90 663.19,652.90" fill="#faffa8" />
  <polygon points="663.19,675.37 673.74,675.37 673.74,664.61 663.19,664.61" fill="#faffa8" />
  <polygon points="674.66,675.37 685.21,675.37 685.21,664.61 674.66,664.61" fill="#faffa8" />
  <polygon points="686.13,675.37 696.68,675.37 696.68,664.61 686.13,664.61" fill="#faffa8" />
  <polygon points="697.60,675.37 708.15,675.37 708.15,664.61 697.60,664.61" fill="#faffa8" />
  <polygon points="709.07,675.37 719.62,675.37 719.62,664.61 709.07,664.61" fill="#faffa8" />
  <polygon points="800.82,605.15 811.37,605.15 811.37,594.39 800.82,594.39" fill="#faffa8" />
  <polygon points="846.69,605.15 857.24,605.15 857.24,594.39 846.69,594.39" fill="#faffa8" />
  <polygon points="800.82,616.86 811.37,616.86 811.37,606.09 800.82,606.09" fill="#faffa8" />
  <polygon points="846.69,616.86 857.24,616.86 857.24,606.09 846.69,606.09" fill="#faffa8" />
  <polygon points="800.82,628.56 811.37,628.56 811.37,617.79 800.82,617.79" fill="#faffa8" />
  <polygon points="846.69,628.56 857.24,628.56 857.24,617.79 846.69,617.79" fill="#faffa8" />
  <polygon points="800.82,640.26 811.37,640.26 811.37,629.50 800.82,629.50" fill="#faffa8" />
  <polygon points="846.69,640.26 857.24,640.26 857.24,629.50 846.69,629.50" fill="#faffa8" />
  <polygon points="800.82,651.97 811.37,651.97 811.37,641.20 800.82,641.20" fill="#faffa8" />
  <polygon points="846.69,651.97 857.24,651.97 857.24,641.20 846.69,641.20" fill="#faffa8" />
  <polygon points="800.82,663.67 811.37,663.67 811.37,652.90 800.82,652.90" fill="#faffa8" />
  <polygon points="846.69,663.67 857.24,663.67 857.24,652.90 846.69,652.90" fill="#faffa8" />
  <polygon points="812.29,675.37 822.84,675.37 822.84,664.61 812.29,664.61" fill="#faffa8" />
  <polygon points="823.75,675.37 834.31,675.37 834.31,664.61 823.75,664.61" fill="#faffa8" />
  <polygon points="835.22,675.37 845.77,675.37 845.77,664.61 835.22,664.61" fill="#faffa8" />
  <polygon points="938.44,605.15 948.99,605.15 948.99,594.39 938.44,594.39" fill="#faffa8" />
  <polygon points="949.91,605.15 960.46,605.15 960.46,594.39 949.91,594.39" fill="#faffa8" />
  <polygon points="961.38,605.15 971.93,605.15 971.93,594.39 961.38,594.39" fill="#faffa8" />
  <polygon points="972.85,605.15 983.40,605.15 983.40,594.39 972.85,594.39" fill="#faffa8" />
  <polygon points="984.32,605.15 994.87,605.15 994.87,594.39 984.32,594.39" fill="#faffa8" />
  <polygon points="938.44,616.86 948.99,616.86 948.99,606.09 938.44,606.09" fill="#faffa8" />
  <polygon points="938.44,628.56 948.99,628.56 948.99,617.79 938.44,617.79" fill="#faffa8" />
  <polygon points="938.44,640.26 948.99,640.26 948.99,629.50 938.44,629.50" fill="#faffa8" />
  <polygon points="949.91,640.26 960.46,640.26 960.46,629.50 949.91,629.50" fill="#faffa8" />
  <polygon points="961.38,640.26 971.93,640.26 971.93,629.50 961.38,629.50" fill="#faffa8" />
  <polygon points="972.85,640.26 983.40,640.26 983.40,629.50 972.85,629.50" fill="#faffa8" />
  <polygon points="938.44,651.97 948.99,651.97 948.99,641.20 938.44,641.20" fill="#faffa8" />
  <polygon points="938.44,663.67 948.99,663.67 948.99,652.90 938.44,652.90" fill="#faffa8" />
  <polygon points="938.44,675.37 948.99,675.37 948.99,664.61 938.44,664.61" fill="#faffa8" />
  <polygon points="949.91,675.37 960.46,675.37 960.46,664.61 949.91,664.61" fill="#faffa8" />
  <polygon points="961.38,675.37 971.93,675.37 971.93,664.61 961.38,664.61" fill="#faffa8" />
  <polygon points="972.85,675.37 983.40,675.37 983.40,664.61 972.85,664.61" fill="#faffa8" />
  <polygon points="984.32,675.37 994.87,675.37 994.87,664.61 984.32,664.61" fill="#faffa8" />
  <polygon points="261.12,491.52 261.12,378.88 312.32,378.88 312.32,491.52" fill="#faffa8" />
  <polygon points="286.72,276.48 215.04,378.88 358.40,378.88" fill="#faffa8" />
  <polygon points="711.68,491.52 711.68,378.88 762.88,378.88 762.88,491.52" fill="#faffa8" />
  <polygon points="737.28,276.48 665.60,378.88 808.96,378.88" fill="#faffa8" />
</svg>
