<svg xmlns="http://www.w3.org/2000/svg" viewBox="0 0 1024 1024">
  <polygon points="20.48,798.72 1003.52,798.72 1003.52,225.28 20.48,225.28" fill="#faffa8" />
  <polygon points="51.20,768.00 972.80,768.00 972.80,256.00 51.20,256.00" fill="#bdff58" />
  <polygon points="496.64,737.28 496.64,286.72 527.36,286.72 527.36,737.28" fill="#faffa8" />
  <polygon points="47.10,653.31 280.58,653.31 280.58,616.45 47.10,616.45" fill="#faffa8" />
  <polygon points="311.30,634.88 249.86,585.73 249.86,684.03" fill="#faffa8" />
  <polygon points="141.35,646.36 30.76,548.06 51.16,525.10 161.76,623.40" fill="#faffa8" />
  <polygon points="161.76,646.36 51.16,744.66 30.76,721.70 141.35,623.40" fill="#faffa8" />
  <polygon points="191.26,627.01 252.70,553.29 271.58,569.02 210.14,642.75" fill="#faffa8" />
  <polygon points="210.14,627.01 271.58,700.74 252.70,716.47 191.26,642.75" fill="#faffa8" />
  <polygon points="237.89,608.87 243.58,608.87 243.58,599.45 237.89,599.45" fill="#faffa8" />
  <polygon points="231.71,619.11 237.40,619.11 237.40,609.69 231.71,609.69" fill="#faffa8" />
  <polygon points="244.08,619.11 249.76,619.11 249.76,609.69 244.08,609.69" fill="#faffa8" />
  <polygon points="225.53,629.35 231.22,629.35 231.22,619.93 225.53,619.93" fill="#faffa8" />
  <polygon points="250.26,629.35 255.95,629.35 255.95,619.93 250.26,619.93" fill="#faffa8" />
  <polygon points="225.53,639.59 231.22,639.59 231.22,630.17 225.53,630.17" fill="#faffa8" />
  <polygon points="250.26,639.59 255.95,639.59 255.95,630.17 250.26,630.17" fill="#faffa8" />
  <polygon points="225.53,649.83 231.22,649.83 231.22,640.41 225.53,640.41" fill="#faffa8" />
  <polygon points="231.71,649.83 237.40,649.83 237.40,640.41 231.71,640.41" fill="#faffa8" />
  <polygon points="237.89,649.83 243.58,649.83 243.58,640.41 237.89,640.41" fill="#faffa8" />
  <polygon points="244.08,649.83 249.76,649.83 249.76,640.41 244.08,640.41" fill="#faffa8" />
  <polygon points="250.26,649.83 255.95,649.83 255.95,640.41 250.26,640.41" fill="#faffa8" />
  <polygon points="225.53,660.07 231.22,660.07 231.22,650.65 225.53,650.65" fill="#faffa8" />
  <polygon points="250.26,660.07 255.95,660.07 255.95,650.65 250.26,650.65" fill="#faffa8" />
  <polygon points="225.53,670.31 231.22,670.31 231.22,660.89 225.53,660.89" fill="#faffa8" />
  <polygon points="250.26,670.31 255.95,670.31 255.95,660.89 250.26,660.89" fill="#faffa8" />
  <polygon points="262.62,608.87 268.31,608.87 268.31,599.45 262.62,599.45" fill="#faffa8" />
  <polygon points="268.81,608.87 274.49,608.87 274.49,599.45 268.81,599.45" fill="#faffa8" />
  <polygon points="274.99,608.87 280.68,608.87 280.68,599.45 274.99,599.45" fill="#faffa8" />
  <polygon points="281.17,608.87 286.86,608.87 286.86,599.45 281.17,599.45" fill="#faffa8" />
  <polygon points="287.35,608.87 293.04,608.87 293.04,599.45 287.35,599.45" fill="#faffa8" />
  <polygon points="262.62,619.11 268.31,619.11 268.31,609.69 262.62,609.69" fill="#faffa8" />
  <polygon points="262.62,629.35 268.31,629.35 268.31,619.93 262.62,619.93" fill="#faffa8" />
  <polygon points="262.62,639.59 268.31,639.59 268.31,630.17 262.62,630.17" fill="#faffa8" />
  <polygon points="268.81,639.59 274.49,639.59 274.49,630.17 268.81,630.17" fill="#faffa8" />
  <polygon points="274.99,639.59 280.68,639.59 280.68,630.17 274.99,630.17" fill="#faffa8" />
  <polygon points="281.17,639.59 286.86,639.59 286.86,630.17 281.17,630.17" fill="#faffa8" />
  <polygon points="262.62,649.83 268.31,649.83 268.31,640.41 262.62,640.41" fill="#faffa8" />
  <polygon points="262.62,660.07 268.31,660.07 268.31,650.65 262.62,650.65" fill="#faffa8" />
  <polygon points="262.62,670.31 268.31,670.31 268.31,660.89 262.62,660.89" fill="#faffa8" />
  <polygon points="268.81,670.31 274.49,670.31 274.49,660.89 268.81,660.89" fill="#faffa8" />
  <polygon points="274.99,670.31 280.68,670.31 280.68,660.89 274.99,660.89" fill="#faffa8" />
  <polygon points="281.17,670.31 286.86,670.31 286.86,660.89 281.17,660.89" fill="#faffa8" />
  <polygon points="287.35,670.31 293.04,670.31 293.04,660.89 287.35,660.89" fill="#faffa8" />
  <polygon points="299.72,608.87 305.41,608.87 305.41,599.45 299.72,599.45" fill="#faffa8" />
  <polygon points="305.90,608.87 311.59,608.87 311.59,599.45 305.90,599.45" fill="#faffa8" />
  <polygon points="312.08,608.87 317.77,608.87 317.77,599.45 312.08,599.45" fill="#faffa8" />
  <polygon points="318.27,608.87 323.95,608.87 323.95,599.45 318.27,599.45" fill="#faffa8" />
  <polygon points="299.72,619.11 305.41,619.11 305.41,609.69 299.72,609.69" fill="#faffa8" />
  <polygon points="324.45,619.11 330.14,619.11 330.14,609.69 324.45,609.69" fill="#faffa8" />
  <polygon points="299.72,629.35 305.41,629.35 305.41,619.93 299.72,619.93" fill="#faffa8" />
  <polygon points="324.45,629.35 330.14,629.35 330.14,619.93 324.45,619.93" fill="#faffa8" />
  <polygon points="299.72,639.59 305.41,639.59 305.41,630.17 299.72,630.17" fill="#faffa8" />
  <polygon points="305.90,639.59 311.59,639.59 311.59,630.17 305.90,630.17" fill="#faffa8" />
  <polygon points="312.08,639.59 317.77,639.59 317.77,630.17 312.08,630.17" fill="#faffa8" />
  <polygon points="318.27,639.59 323.95,639.59 323.95,630.17 318.27,630.17" fill="#faffa8" />
  <polygon points="299.72,649.83 305.41,649.83 305.41,640.41 299.72,640.41" fill="#faffa8" />
  <polygon points="312.08,649.83 317.77,649.83 317.77,640.41 312.08,640.41" fill="#faffa8" />
  <polygon points="299.72,660.07 305.41,660.07 305.41,650.65 299.72,650.65" fill="#faffa8" />
  <polygon points="318.27,660.07 323.95,660.07 323.95,650.65 318.27,650.65" fill="#faffa8" />
  <polygon points="299.72,670.31 305.41,670.31 305.41,660.89 299.72,660.89" fill="#faffa8" />
  <polygon points="324.45,670.31 330.14,670.31 330.14,660.89 324.45,660.89" fill="#faffa8" />
  <polygon points="343.00,608.87 348.69,608.87 348.69,599.45 343.00,599.45" fill="#faffa8" />
  <polygon points="349.18,608.87 354.87,608.87 354.87,599.45 349.18,599.45" fill="#faffa8" />
  <polygon points="355.36,608.87 361.05,608.87 361.05,599.45 355.36,599.45" fill="#faffa8" />
  <polygon points="336.81,619.11 342.50,619.11 342.50,609.69 336.81,609.69" fill="#faffa8" />
  <polygon points="361.55,619.11 367.23,619.11 367.23,609.69 361.55,609.69" fill="#faffa8" />
  <polygon points="336.81,629.35 342.50,629.35 342.50,619.93 336.81,619.93" fill="#faffa8" />
  <polygon points="361.55,629.35 367.23,629.35 367.23,619.93 361.55,619.93" fill="#faffa8" />
  <polygon points="336.81,639.59 342.50,639.59 342.50,630.17 336.81,630.17" fill="#faffa8" />
  <polygon points="361.55,639.59 367.23,639.59 367.23,630.17 361.55,630.17" fill="#faffa8" />
  <polygon points="336.81,649.83 342.50,649.83 342.50,640.41 336.81,640.41" fill="#faffa8" />
  <polygon points="361.55,649.83 367.23,649.83 367.23,640.41 361.55,640.41" fill="#faffa8" />
  <polygon points="336.81,660.07 342.50,660.07 342.50,650.65 336.81,650.65" fill="#faffa8" />
  <polygon points="361.55,660.07 367.23,660.07 367.23,650.65 361.55,650.65" fill="#faffa8" />
  <polygon points="343.00,670.31 348.69,670.31 348.69,660.89 343.00,660.89" fill="#faffa8" />
  <polygon points="349.18,670.31 354.87,670.31 354.87,660.89 349.18,660.89" fill="#faffa8" />
  <polygon points="355.36,670.31 361.05,670.31 361.05,660.89 355.36,660.89" fill="#faffa8" />
  <polygon points="373.91,608.87 379.60,608.87 379.60,599.45 373.91,599.45" fill="#faffa8" />
  <polygon points="380.09,608.87 385.78,608.87 385.78,599.45 380.09,599.45" fill="#faffa8" />
  <polygon points="386.28,608.87 391.96,608.87 391.96,599.45 386.28,599.45" fill="#faffa8" />
  <polygon points="392.46,608.87 398.15,608.87 398.15,599.45 392.46,599.45" fill="#faffa8" />
  <polygon points="373.91,619.11 379.60,619.11 379.60,609.69 373.91,609.69" fill="#faffa8" />
  <polygon points="398.64,619.11 404.33,619.11 404.33,609.69 398.64,609.69" fill="#faffa8" />
  <polygon points="373.91,629.35 379.60,629.35 379.60,619.93 373.91,619.93" fill="#faffa8" />
  <polygon points="398.64,629.35 404.33,629.35 404.33,619.93 398.64,619.93" fill="#faffa8" />
  <polygon points="373.91,639.59 379.60,639.59 379.60,630.17 373.91,630.17" fill="#faffa8" />
  <polygon points="380.09,639.59 385.78,639.59 385.78,630.17 380.09,630.17" fill="#faffa8" />
  <polygon points="386.28,639.59 391.96,639.59 391.96,630.17 386.28,630.17" fill="#faffa8" />
  <polygon points="392.46,639.59 398.15,639.59 398.15,630.17 392.46,630.17" fill="#faffa8" />
  <polygon points="373.91,649.83 379.60,649.83 379.60,640.41 373.91,640.41" fill="#faffa8" />
  <polygon points="373.91,660.07 379.60,660.07 379.60,650.65 373.91,650.65" fill="#faffa8" />
  <polygon points="373.91,670.31 379.60,670.31 379.60,660.89 373.91,660.89" fill="#faffa8" />
  <polygon points="417.19,608.87 422.88,608.87 422.88,599.45 417.19,599.45" fill="#faffa8" />
  <polygon points="423.37,608.87 429.06,608.87 429.06,599.45 423.37,599.45" fill="#faffa8" />
  <polygon points="429.55,608.87 435.24,608.87 435.24,599.45 429.55,599.45" fill="#faffa8" />
  <polygon points="411.01,619.11 416.69,619.11 416.69,609.69 411.01,609.69" fill="#faffa8" />
  <polygon points="435.74,619.11 441.43,619.11 441.43,609.69 435.74,609.69" fill="#faffa8" />
  <polygon points="411.01,629.35 416.69,629.35 416.69,619.93 411.01,619.93" fill="#faffa8" />
  <polygon points="435.74,629.35 441.43,629.35 441.43,619.93 435.74,619.93" fill="#faffa8" />
  <polygon points="411.01,639.59 416.69,639.59 416.69,630.17 411.01,630.17" fill="#faffa8" />
  <polygon points="435.74,639.59 441.43,639.59 441.43,630.17 435.74,630.17" fill="#faffa8" />
  <polygon points="411.01,649.83 416.69,649.83 416.69,640.41 411.01,640.41" fill="#faffa8" />
  <polygon points="435.74,649.83 441.43,649.83 441.43,640.41 435.74,640.41" fill="#faffa8" />
  <polygon points="411.01,660.07 416.69,660.07 416.69,650.65 411.01,650.65" fill="#faffa8" />
  <polygon points="435.74,660.07 441.43,660.07 441.43,650.65 435.74,650.65" fill="#faffa8" />
  <polygon points="417.19,670.31 422.88,670.31 422.88,660.89 417.19,660.89" fill="#faffa8" />
  <polygon points="423.37,670.31 429.06,670.31 429.06,660.89 423.37,660.89" fill="#faffa8" />
  <polygon points="429.55,670.31 435.24,670.31 435.24,660.89 429.55,660.89" fill="#faffa8" />
  <polygon points="448.10,608.87 453.79,608.87 453.79,599.45 448.10,599.45" fill="#faffa8" />
  <polygon points="454.29,608.87 459.97,608.87 459.97,599.45 454.29,599.45" fill="#faffa8" />
  <polygon points="460.47,608.87 466.16,608.87 466.16,599.45 460.47,599.45" fill="#faffa8" />
  <polygon points="466.65,608.87 472.34,608.87 472.34,599.45 466.65,599.45" fill="#faffa8" />
  <polygon points="448.10,619.11 453.79,619.11 453.79,609.69 448.10,609.69" fill="#faffa8" />
  <polygon points="472.83,619.11 478.52,619.11 478.52,609.69 472.83,609.69" fill="#faffa8" />
  <polygon points="448.10,629.35 453.79,629.35 453.79,619.93 448.10,619.93" fill="#faffa8" />
  <polygon points="472.83,629.35 478.52,629.35 478.52,619.93 472.83,619.93" fill="#faffa8" />
  <polygon points="448.10,639.59 453.79,639.59 453.79,630.17 448.10,630.17" fill="#faffa8" />
  <polygon points="454.29,639.59 459.97,639.59 459.97,630.17 454.29,630.17" fill="#faffa8" />
  <polygon points="460.47,639.59 466.16,639.59 466.16,630.17 460.47,630.17" fill="#faffa8" />
  <polygon points="466.65,639.59 472.34,639.59 472.34,630.17 466.65,630.17" fill="#faffa8" />
  <polygon points="448.10,649.83 453.79,649.83 453.79,640.41 448.10,640.41" fill="#faffa8" />
  <polygon points="460.47,649.83 466.16,649.83 466.16,640.41 460.47,640.41" fill="#faffa8" />
  <polygon points="448.10,660.07 453.79,660.07 453.79,650.65 448.10,650.65" fill="#faffa8" />
  <polygon points="466.65,660.07 472.34,660.07 472.34,650.65 466.65,650.65" fill="#faffa8" />
  <polygon points="448.10,670.31 453.79,670.31 453.79,660.89 448.10,660.89" fill="#faffa8" />
  <polygon points="472.83,670.31 478.52,670.31 478.52,660.89 472.83,660.89" fill="#faffa8" />
  <polygon points="485.20,608.87 490.89,608.87 490.89,599.45 485.20,599.45" fill="#faffa8" />
  <polygon points="491.38,608.87 497.07,608.87 497.07,599.45 491.38,599.45" fill="#faffa8" />
  <polygon points="497.56,608.87 503.25,608.87 503.25,599.45 497.56,599.45" fill="#faffa8" />
  <polygon points="503.75,608.87 509.43,608.87 509.43,599.45 503.75,599.45" fill="#faffa8" />
  <polygon points="509.93,608.87 515.62,608.87 515.62,599.45 509.93,599.45" fill="#faffa8" />
  <polygon points="497.56,619.11 503.25,619.11 503.25,609.69 497.56,609.69" fill="#faffa8" />
  <polygon points="497.56,629.35 503.25,629.35 503.25,619.93 497.56,619.93" fill="#faffa8" />
  <polygon points="497.56,639.59 503.25,639.59 503.25,630.17 497.56,630.17" fill="#faffa8" />
  <polygon points="497.56,649.83 503.25,649.83 503.25,640.41 497.56,640.41" fill="#faffa8" />
  <polygon points="497.56,660.07 503.25,660.07 503.25,650.65 497.56,650.65" fill="#faffa8" />
  <polygon points="497.56,670.31 503.25,670.31 503.25,660.89 497.56,660.89" fill="#faffa8" />
  <polygon points="528.48,608.87 534.16,608.87 534.16,599.45 528.48,599.45" fill="#faffa8" />
  <polygon points="534.66,608.87 540.35,608.87 540.35,599.45 534.66,599.45" fill="#faffa8" />
  <polygon points="540.84,608.87 546.53,608.87 546.53,599.45 540.84,599.45" fill="#faffa8" />
  <polygon points="522.29,619.11 527.98,619.11 527.98,609.69 522.29,609.69" fill="#faffa8" />
  <polygon points="547.02,619.11 552.71,619.11 552.71,609.69 547.02,609.69" fill="#faffa8" />
  <polygon points="522.29,629.35 527.98,629.35 527.98,619.93 522.29,619.93" fill="#faffa8" />
  <polygon points="547.02,629.35 552.71,629.35 552.71,619.93 547.02,619.93" fill="#faffa8" />
  <polygon points="522.29,639.59 527.98,639.59 527.98,630.17 522.29,630.17" fill="#faffa8" />
  <polygon points="547.02,639.59 552.71,639.59 552.71,630.17 547.02,630.17" fill="#faffa8" />
  <polygon points="522.29,649.83 527.98,649.83 527.98,640.41 522.29,640.41" fill="#faffa8" />
  <polygon points="547.02,649.83 552.71,649.83 552.71,640.41 547.02,640.41" fill="#faffa8" />
  <polygon points="522.29,660.07 527.98,660.07 527.98,650.65 522.29,650.65" fill="#faffa8" />
  <polygon points="547.02,660.07 552.71,660.07 552.71,650.65 547.02,650.65" fill="#faffa8" />
  <polygon points="528.48,670.31 534.16,670.31 534.16,660.89 528.48,660.89" fill="#faffa8" />
  <polygon points="534.66,670.31 540.35,670.31 540.35,660.89 534.66,660.89" fill="#faffa8" />
  <polygon points="540.84,670.31 546.53,670.31 546.53,660.89 540.84,660.89" fill="#faffa8" />
  <polygon points="634.99,605.15 644.14,605.15 644.14,594.39 634.99,594.39" fill="#faffa8" />
  <polygon points="644.93,605.15 654.08,605.15 654.08,594.39 644.93,594.39" fill="#faffa8" />
  <polygon points="654.88,605.15 664.03,605.15 664.03,594.39 654.88,594.39" fill="#faffa8" />
  <polygon points="625.04,616.86 634.19,616.86 634.19,606.09 625.04,606.09" fill="#faffa8" />
  <polygon points="664.83,616.86 673.98,616.86 673.98,606.09 664.83,606.09" fill="#faffa8" />
  <polygon points="625.04,628.56 634.19,628.56 634.19,617.79 625.04,617.79" fill="#faffa8" />
  <polygon points="625.04,640.26 634.19,640.26 634.19,629.50 625.04,629.50" fill="#faffa8" />
  <polygon points="625.04,651.97 634.19,651.97 634.19,641.20 625.04,641.20" fill="#faffa8" />
  <polygon points="625.04,663.67 634.19,663.67 634.19,652.90 625.04,652.90" fill="#faffa8" />
  <polygon points="664.83,663.67 673.98,663.67 673.98,652.90 664.83,652.90" fill="#faffa8" />
  <polygon points="634.99,675.37 644.14,675.37 644.14,664.61 634.99,664.61" fill="#faffa8" />
  <polygon points="644.93,675.37 654.08,675.37 654.08,664.61 644.93,664.61" fill="#faffa8" />
  <polygon points="654.88,675.37 664.03,675.37 664.03,664.61 654.88,664.61" fill="#faffa8" />
  <polygon points="684.72,605.15 693.87,605.15 693.87,594.39 684.72,594.39" fill="#faffa8" />
  <polygon points="694.67,605.15 703.82,605.15 703.82,594.39 694.67,594.39" fill="#faffa8" />
  <polygon points="704.62,605.15 713.77,605.15 713.77,594.39 704.62,594.39" fill="#faffa8" />
  <polygon points="714.56,605.15 723.72,605.15 723.72,594.39 714.56,594.39" fill="#faffa8" />
  <polygon points="724.51,605.15 733.66,605.15 733.66,594.39 724.51,594.39" fill="#faffa8" />
  <polygon points="684.72,616.86 693.87,616.86 693.87,606.09 684.72,606.09" fill="#faffa8" />
  <polygon points="684.72,628.56 693.87,628.56 693.87,617.79 684.72,617.79" fill="#faffa8" />
  <polygon points="684.72,640.26 693.87,640.26 693.87,629.50 684.72,629.50" fill="#faffa8" />
  <polygon points="694.67,640.26 703.82,640.26 703.82,629.50 694.67,629.50" fill="#faffa8" />
  <polygon points="704.62,640.26 713.77,640.26 713.77,629.50 704.62,629.50" fill="#faffa8" />
  <polygon points="714.56,640.26 723.72,640.26 723.72,629.50 714.56,629.50" fill="#faffa8" />
  <polygon points="684.72,651.97 693.87,651.97 693.87,641.20 684.72,641.20" fill="#faffa8" />
  <polygon points="684.72,663.67 693.87,663.67 693.87,652.90 684.72,652.90" fill="#faffa8" />
  <polygon points="684.72,675.37 693.87,675.37 693.87,664.61 684.72,664.61" fill="#faffa8" />
  <polygon points="694.67,675.37 703.82,675.37 703.82,664.61 694.67,664.61" fill="#faffa8" />
  <polygon points="704.62,675.37 713.77,675.37 713.77,664.61 704.62,664.61" fill="#faffa8" />
  <polygon points="714.56,675.37 723.72,675.37 723.72,664.61 714.56,664.61" fill="#faffa8" />
  <polygon points="724.51,675.37 733.66,675.37 733.66,664.61 724.51,664.61" fill="#faffa8" />
  <polygon points="744.41,605.15 753.56,605.15 753.56,594.39 744.41,594.39" fill="#faffa8" />
  <polygon points="784.20,605.15 793.35,605.15 793.35,594.39 784.20,594.39" fill="#faffa8" />
  <polygon points="744.41,616.86 753.56,616.86 753.56,606.09 744.41,606.09" fill="#faffa8" />
  <polygon points="754.35,616.86 763.51,616.86 763.51,606.09 754.35,606.09" fill="#faffa8" />
  <polygon points="784.20,616.86 793.35,616.86 793.35,606.09 784.20,606.09" fill="#faffa8" />
  <polygon points="744.41,628.56 753.56,628.56 753.56,617.79 744.41,617.79" fill="#faffa8" />
  <polygon points="764.30,628.56 773.45,628.56 773.45,617.79 764.30,617.79" fill="#faffa8" />
  <polygon points="784.20,628.56 793.35,628.56 793.35,617.79 784.20,617.79" fill="#faffa8" />
  <polygon points="744.41,640.26 753.56,640.26 753.56,629.50 744.41,629.50" fill="#faffa8" />
  <polygon points="774.25,640.26 783.40,640.26 783.40,629.50 774.25,629.50" fill="#faffa8" />
  <polygon points="784.20,640.26 793.35,640.26 793.35,629.50 784.20,629.50" fill="#faffa8" />
  <polygon points="744.41,651.97 753.56,651.97 753.56,641.20 744.41,641.20" fill="#faffa8" />
  <polygon points="784.20,651.97 793.35,651.97 793.35,641.20 784.20,641.20" fill="#faffa8" />
  <polygon points="744.41,663.67 753.56,663.67 753.56,652.90 744.41,652.90" fill="#faffa8" />
  <polygon points="784.20,663.67 793.35,663.67 793.35,652.90 784.20,652.90" fill="#faffa8" />
  <polygon points="744.41,675.37 753.56,675.37 753.56,664.61 744.41,664.61" fill="#faffa8" />
  <polygon points="784.20,675.37 793.35,675.37 793.35,664.61 784.20,664.61" fill="#faffa8" />
  <polygon points="804.09,605.15 813.24,605.15 813.24,594.39 804.09,594.39" fill="#faffa8" />
  <polygon points="814.04,605.15 823.19,605.15 823.19,594.39 814.04,594.39" fill="#faffa8" />
  <polygon points="823.99,605.15 833.14,605.15 833.14,594.39 823.99,594.39" fill="#faffa8" />
  <polygon points="833.93,605.15 843.09,605.15 843.09,594.39 833.93,594.39" fill="#faffa8" />
  <polygon points="843.88,605.15 853.03,605.15 853.03,594.39 843.88,594.39" fill="#faffa8" />
  <polygon points="823.99,616.86 833.14,616.86 833.14,606.09 823.99,606.09" fill="#faffa8" />
  <polygon points="823.99,628.56 833.14,628.56 833.14,617.79 823.99,617.79" fill="#faffa8" />
  <polygon points="823.99,640.26 833.14,640.26 833.14,629.50 823.99,629.50" fill="#faffa8" />
  <polygon points="823.99,651.97 833.14,651.97 833.14,641.20 823.99,641.20" fill="#faffa8" />
  <polygon points="823.99,663.67 833.14,663.67 833.14,652.90 823.99,652.90" fill="#faffa8" />
  <polygon points="823.99,675.37 833.14,675.37 833.14,664.61 823.99,664.61" fill="#faffa8" />
  <polygon points="863.78,605.15 872.93,605.15 872.93,594.39 863.78,594.39" fill="#faffa8" />
  <polygon points="873.72,605.15 882.88,605.15 882.88,594.39 873.72,594.39" fill="#faffa8" />
  <polygon points="883.67,605.15 892.82,605.15 892.82,594.39 883.67,594.39" fill="#faffa8" />
  <polygon points="893.62,605.15 902.77,605.15 902.77,594.39 893.62,594.39" fill="#faffa8" />
  <polygon points="863.78,616.86 872.93,616.86 872.93,606.09 863.78,606.09" fill="#faffa8" />
  <polygon points="903.57,616.86 912.72,616.86 912.72,606.09 903.57,606.09" fill="#faffa8" />
  <polygon points="863.78,628.56 872.93,628.56 872.93,617.79 863.78,617.79" fill="#faffa8" />
  <polygon points="903.57,628.56 912.72,628.56 912.72,617.79 903.57,617.79" fill="#faffa8" />
  <polygon points="863.78,640.26 872.93,640.26 872.93,629.50 863.78,629.50" fill="#faffa8" />
  <polygon points="873.72,640.26 882.88,640.26 882.88,629.50 873.72,629.50" fill="#faffa8" />
  <polygon points="883.67,640.26 892.82,640.26 892.82,629.50 883.67,629.50" fill="#faffa8" />
  <polygon points="893.62,640.26 902.77,640.26 902.77,629.50 893.62,629.50" fill="#faffa8" />
  <polygon points="863.78,651.97 872.93,651.97 872.93,641.20 863.78,641.20" fill="#faffa8" />
  <polygon points="883.67,651.97 892.82,651.97 892.82,641.20 883.67,641.20" fill="#faffa8" />
  <polygon points="863.78,663.67 872.93,663.67 872.93,652.90 863.78,652.90" fill="#faffa8" />
  <polygon points="893.62,663.67 902.77,663.67 902.77,652.90 893.62,652.90" fill="#faffa8" />
  <polygon points="863.78,675.37 872.93,675.37 872.93,664.61 863.78,664.61" fill="#faffa8" />
  <polygon points="903.57,675.37 912.72,675.37 912.72,664.61 903.57,664.61" fill="#faffa8" />
  <polygon points="933.41,605.15 942.56,605.15 942.56,594.39 933.41,594.39" fill="#faffa8" />
  <polygon points="943.36,605.15 952.51,605.15 952.51,594.39 943.36,594.39" fill="#faffa8" />
  <polygon points="953.30,605.15 962.45,605.15 962.45,594.39 953.30,594.39" fill="#faffa8" />
  <polygon points="923.46,616.86 932.61,616.86 932.61,606.09 923.46,606.09" fill="#faffa8" />
  <polygon points="963.25,616.86 972.40,616.86 972.40,606.09 963.25,606.09" fill="#faffa8" />
  <polygon points="923.46,628.56 932.61,628.56 932.61,617.79 923.46,617.79" fill="#faffa8" />
  <polygon points="963.25,628.56 972.40,628.56 972.40,617.79 963.25,617.79" fill="#faffa8" />
  <polygon points="923.46,640.26 932.61,640.26 932.61,629.50 923.46,629.50" fill="#faffa8" />
  <polygon points="963.25,640.26 972.40,640.26 972.40,629.50 963.25,629.50" fill="#faffa8" />
  <polygon points="923.46,651.97 932.61,651.97 932.61,641.20 923.46,641.20" fill="#faffa8" />
  <polygon points="963.25,651.97 972.40,651.97 972.40,641.20 963.25,641.20" fill="#faffa8" />
  <polygon points="923.46,663.67 932.61,663.67 932.61,652.90 923.46,652.90" fill="#faffa8" />
  <polygon points="963.25,663.67 972.40,663.67 972.40,652.90 963.25,652.90" fill="#faffa8" />
  <polygon points="933.41,675.37 942.56,675.37 942.56,664.61 933.41,664.61" fill="#faffa8" />
  <polygon points="943.36,675.37 952.51,675.37 952.51,664.61 943.36,664.61" fill="#faffa8" />
  <polygon points="953.30,675.37 962.45,675.37 962.45,664.61 953.30,664.61" fill="#faffa8" />
  <polygon points="220.16,491.52 220.16,378.88 271.36,378.88 271.36,491.52" fill="#faffa8" />
  <polygon points="245.76,276.48 174.08,378.88 317.44,378.88" fill="#faffa8" />
  <polygon points="752.64,491.52 752.64,378.88 803.84,378.88 803.84,491.52" fill="#faffa8" />
  <polygon points="778.24,276.48 706.56,378.88 849.92,378.88" fill="#faffa8" />
</svg>
