<svg xmlns="http://www.w3.org/2000/svg" viewBox="0 0 1024 1024">
  <polygon points="10.24,716.80 1013.76,716.80 1013.76,307.20 10.24,307.20" fill="#65f2ff" />
  <polygon points="261.84,474.84 278.32,474.84 278.32,461.39 261.84,461.39" fill="#faffa8" />
  <polygon points="279.76,474.84 296.24,474.84 296.24,461.39 279.76,461.39" fill="#faffa8" />
  <polygon points="297.68,474.84 314.16,474.84 314.16,461.39 297.68,461.39" fill="#faffa8" />
  <polygon points="315.60,474.84 332.08,474.84 332.08,461.39 315.60,461.39" fill="#faffa8" />
  <polygon points="333.52,474.84 350.00,474.84 350.00,461.39 333.52,461.39" fill="#faffa8" />
  <polygon points="261.84,489.47 278.32,489.47 278.32,476.01 261.84,476.01" fill="#faffa8" />
  <polygon points="261.84,504.10 278.32,504.10 278.32,490.64 261.84,490.64" fill="#faffa8" />
  <polygon points="261.84,518.73 278.32,518.73 278.32,505.27 261.84,505.27" fill="#faffa8" />
  <polygon points="279.76,518.73 296.24,518.73 296.24,505.27 279.76,505.27" fill="#faffa8" />
  <polygon points="297.68,518.73 314.16,518.73 314.16,505.27 297.68,505.27" fill="#faffa8" />
  <polygon points="315.60,518.73 332.08,518.73 332.08,505.27 315.60,505.27" fill="#faffa8" />
  <polygon points="261.84,533.36 278.32,533.36 278.32,519.90 261.84,519.90" fill="#faffa8" />
  <polygon points="261.84,547.99 278.32,547.99 278.32,534.53 261.84,534.53" fill="#faffa8" />
  <polygon points="261.84,562.61 278.32,562.61 278.32,549.16 261.84,549.16" fill="#faffa8" />
  <polygon points="279.76,562.61 296.24,562.61 296.24,549.16 279.76,549.16" fill="#faffa8" />
  <polygon points="297.68,562.61 314.16,562.61 314.16,549.16 297.68,549.16" fill="#faffa8" />
  <polygon points="315.60,562.61 332.08,562.61 332.08,549.16 315.60,549.16" fill="#faffa8" />
  <polygon points="333.52,562.61 350.00,562.61 350.00,549.16 333.52,549.16" fill="#faffa8" />
  <polygon points="369.36,474.84 385.84,474.84 385.84,461.39 369.36,461.39" fill="#faffa8" />
  <polygon points="387.28,474.84 403.76,474.84 403.76,461.39 387.28,461.39" fill="#faffa8" />
  <polygon points="405.20,474.84 421.68,474.84 421.68,461.39 405.20,461.39" fill="#faffa8" />
  <polygon points="423.12,474.84 439.60,474.84 439.60,461.39 423.12,461.39" fill="#faffa8" />
  <polygon points="369.36,489.47 385.84,489.47 385.84,476.01 369.36,476.01" fill="#faffa8" />
  <polygon points="441.04,489.47 457.52,489.47 457.52,476.01 441.04,476.01" fill="#faffa8" />
  <polygon points="369.36,504.10 385.84,504.10 385.84,490.64 369.36,490.64" fill="#faffa8" />
  <polygon points="441.04,504.10 457.52,504.10 457.52,490.64 441.04,490.64" fill="#faffa8" />
  <polygon points="369.36,518.73 385.84,518.73 385.84,505.27 369.36,505.27" fill="#faffa8" />
  <polygon points="387.28,518.73 403.76,518.73 403.76,505.27 387.28,505.27" fill="#faffa8" />
  <polygon points="405.20,518.73 421.68,518.73 421.68,505.27 405.20,505.27" fill="#faffa8" />
  <polygon points="423.12,518.73 439.60,518.73 439.60,505.27 423.12,505.27" fill="#faffa8" />
  <polygon points="369.36,533.36 385.84,533.36 385.84,519.90 369.36,519.90" fill="#faffa8" />
  <polygon points="405.20,533.36 421.68,533.36 421.68,519.90 405.20,519.90" fill="#faffa8" />
  <polygon points="369.36,547.99 385.84,547.99 385.84,534.53 369.36,534.53" fill="#faffa8" />
  <polygon points="423.12,547.99 439.60,547.99 439.60,534.53 423.12,534.53" fill="#faffa8" />
  <polygon points="369.36,562.61 385.84,562.61 385.84,549.16 369.36,549.16" fill="#faffa8" />
  <polygon points="441.04,562.61 457.52,562.61 457.52,549.16 441.04,549.16" fill="#faffa8" />
  <polygon points="476.88,474.84 493.36,474.84 493.36,461.39 476.88,461.39" fill="#faffa8" />
  <polygon points="494.80,474.84 511.28,474.84 511.28,461.39 494.80,461.39" fill="#faffa8" />
  <polygon points="512.72,474.84 529.20,474.84 529.20,461.39 512.72,461.39" fill="#faffa8" />
  <polygon points="530.64,474.84 547.12,474.84 547.12,461.39 530.64,461.39" fill="#faffa8" />
  <polygon points="476.88,489.47 493.36,489.47 493.36,476.01 476.88,476.01" fill="#faffa8" />
  <polygon points="548.56,489.47 565.04,489.47 565.04,476.01 548.56,476.01" fill="#faffa8" />
  <polygon points="476.88,504.10 493.36,504.10 493.36,490.64 476.88,490.64" fill="#faffa8" />
  <polygon points="548.56,504.10 565.04,504.10 565.04,490.64 548.56,490.64" fill="#faffa8" />
  <polygon points="476.88,518.73 493.36,518.73 493.36,505.27 476.88,505.27" fill="#faffa8" />
  <polygon points="494.80,518.73 511.28,518.73 511.28,505.27 494.80,505.27" fill="#faffa8" />
  <polygon points="512.72,518.73 529.20,518.73 529.20,505.27 512.72,505.27" fill="#faffa8" />
  <polygon points="530.64,518.73 547.12,518.73 547.12,505.27 530.64,505.27" fill="#faffa8" />
  <polygon points="476.88,533.36 493.36,533.36 493.36,519.90 476.88,519.90" fill="#faffa8" />
  <polygon points="512.72,533.36 529.20,533.36 529.20,519.90 512.72,519.90" fill="#faffa8" />
  <polygon points="476.88,547.99 493.36,547.99 493.36,534.53 476.88,534.53" fill="#faffa8" />
  <polygon points="530.64,547.99 547.12,547.99 547.12,534.53 530.64,534.53" fill="#faffa8" />
  <polygon points="476.88,562.61 493.36,562.61 493.36,549.16 476.88,549.16" fill="#faffa8" />
  <polygon points="548.56,562.61 565.04,562.61 565.04,549.16 548.56,549.16" fill="#faffa8" />
  <polygon points="584.40,474.84 600.88,474.84 600.88,461.39 584.40,461.39" fill="#faffa8" />
  <polygon points="656.08,474.84 672.56,474.84 672.56,461.39 656.08,461.39" fill="#faffa8" />
  <polygon points="584.40,489.47 600.88,489.47 600.88,476.01 584.40,476.01" fill="#faffa8" />
  <polygon points="656.08,489.47 672.56,489.47 672.56,476.01 656.08,476.01" fill="#faffa8" />
  <polygon points="602.32,504.10 618.80,504.10 618.80,490.64 602.32,490.64" fill="#faffa8" />
  <polygon points="638.16,504.10 654.64,504.10 654.64,490.64 638.16,490.64" fill="#faffa8" />
  <polygon points="620.24,518.73 636.72,518.73 636.72,505.27 620.24,505.27" fill="#faffa8" />
  <polygon points="620.24,533.36 636.72,533.36 636.72,519.90 620.24,519.90" fill="#faffa8" />
  <polygon points="620.24,547.99 636.72,547.99 636.72,534.53 620.24,534.53" fill="#faffa8" />
  <polygon points="620.24,562.61 636.72,562.61 636.72,549.16 620.24,549.16" fill="#faffa8" />
  <polygon points="593.92,471.04 778.24,471.04 778.24,552.96 593.92,552.96" fill="#faffa8" />
  <polygon points="921.60,512.00 778.24,409.60 778.24,614.40" fill="#faffa8" />
</svg>
