<svg xmlns="http://www.w3.org/2000/svg" viewBox="0 0 1024 1024">
  <polygon points="25.60,706.56 998.40,706.56 998.40,317.44 25.60,317.44" fill="#65f2ff" />
  <polygon points="532.48,471.04 757.76,471.04 757.76,552.96 532.48,552.96" fill="#faffa8" />
  <polygon points="901.12,512.00 757.76,409.60 757.76,614.40" fill="#faffa8" />
  <polygon points="92.70,474.84 105.08,474.84 105.08,461.39 92.70,461.39" fill="#faffa8" />
  <polygon points="106.16,474.84 118.54,474.84 118.54,461.39 106.16,461.39" fill="#faffa8" />
  <polygon points="119.61,474.84 132.00,474.84 132.00,461.39 119.61,461.39" fill="#faffa8" />
  <polygon points="133.07,474.84 145.45,474.84 145.45,461.39 133.07,461.39" fill="#faffa8" />
  <polygon points="92.70,489.47 105.08,489.47 105.08,476.01 92.70,476.01" fill="#faffa8" />
  <polygon points="146.53,489.47 158.91,489.47 158.91,476.01 146.53,476.01" fill="#faffa8" />
  <polygon points="92.70,504.10 105.08,504.10 105.08,490.64 92.70,490.64" fill="#faffa8" />
  <polygon points="146.53,504.10 158.91,504.10 158.91,490.64 146.53,490.64" fill="#faffa8" />
  <polygon points="92.70,518.73 105.08,518.73 105.08,505.27 92.70,505.27" fill="#faffa8" />
  <polygon points="106.16,518.73 118.54,518.73 118.54,505.27 106.16,505.27" fill="#faffa8" />
  <polygon points="119.61,518.73 132.00,518.73 132.00,505.27 119.61,505.27" fill="#faffa8" />
  <polygon points="133.07,518.73 145.45,518.73 145.45,505.27 133.07,505.27" fill="#faffa8" />
  <polygon points="92.70,533.36 105.08,533.36 105.08,519.90 92.70,519.90" fill="#faffa8" />
  <polygon points="146.53,533.36 158.91,533.36 158.91,519.90 146.53,519.90" fill="#faffa8" />
  <polygon points="92.70,547.99 105.08,547.99 105.08,534.53 92.70,534.53" fill="#faffa8" />
  <polygon points="146.53,547.99 158.91,547.99 158.91,534.53 146.53,534.53" fill="#faffa8" />
  <polygon points="92.70,562.61 105.08,562.61 105.08,549.16 92.70,549.16" fill="#faffa8" />
  <polygon points="106.16,562.61 118.54,562.61 118.54,549.16 106.16,549.16" fill="#faffa8" />
  <polygon points="119.61,562.61 132.00,562.61 132.00,549.16 119.61,549.16" fill="#faffa8" />
  <polygon points="133.07,562.61 145.45,562.61 145.45,549.16 133.07,549.16" fill="#faffa8" />
  <polygon points="173.45,474.84 185.83,474.84 185.83,461.39 173.45,461.39" fill="#faffa8" />
  <polygon points="227.28,474.84 239.66,474.84 239.66,461.39 227.28,461.39" fill="#faffa8" />
  <polygon points="173.45,489.47 185.83,489.47 185.83,476.01 173.45,476.01" fill="#faffa8" />
  <polygon points="227.28,489.47 239.66,489.47 239.66,476.01 227.28,476.01" fill="#faffa8" />
  <polygon points="186.91,504.10 199.29,504.10 199.29,490.64 186.91,490.64" fill="#faffa8" />
  <polygon points="213.82,504.10 226.20,504.10 226.20,490.64 213.82,490.64" fill="#faffa8" />
  <polygon points="200.36,518.73 212.75,518.73 212.75,505.27 200.36,505.27" fill="#faffa8" />
  <polygon points="200.36,533.36 212.75,533.36 212.75,519.90 200.36,519.90" fill="#faffa8" />
  <polygon points="200.36,547.99 212.75,547.99 212.75,534.53 200.36,534.53" fill="#faffa8" />
  <polygon points="200.36,562.61 212.75,562.61 212.75,549.16 200.36,549.16" fill="#faffa8" />
  <polygon points="254.20,474.84 266.58,474.84 266.58,461.39 254.20,461.39" fill="#faffa8" />
  <polygon points="267.66,474.84 280.04,474.84 280.04,461.39 267.66,461.39" fill="#faffa8" />
  <polygon points="281.11,474.84 293.50,474.84 293.50,461.39 281.11,461.39" fill="#faffa8" />
  <polygon points="294.57,474.84 306.95,474.84 306.95,461.39 294.57,461.39" fill="#faffa8" />
  <polygon points="254.20,489.47 266.58,489.47 266.58,476.01 254.20,476.01" fill="#faffa8" />
  <polygon points="308.03,489.47 320.41,489.47 320.41,476.01 308.03,476.01" fill="#faffa8" />
  <polygon points="254.20,504.10 266.58,504.10 266.58,490.64 254.20,490.64" fill="#faffa8" />
  <polygon points="308.03,504.10 320.41,504.10 320.41,490.64 308.03,490.64" fill="#faffa8" />
  <polygon points="254.20,518.73 266.58,518.73 266.58,505.27 254.20,505.27" fill="#faffa8" />
  <polygon points="267.66,518.73 280.04,518.73 280.04,505.27 267.66,505.27" fill="#faffa8" />
  <polygon points="281.11,518.73 293.50,518.73 293.50,505.27 281.11,505.27" fill="#faffa8" />
  <polygon points="294.57,518.73 306.95,518.73 306.95,505.27 294.57,505.27" fill="#faffa8" />
  <polygon points="254.20,533.36 266.58,533.36 266.58,519.90 254.20,519.90" fill="#faffa8" />
  <polygon points="254.20,547.99 266.58,547.99 266.58,534.53 254.20,534.53" fill="#faffa8" />
  <polygon points="254.20,562.61 266.58,562.61 266.58,549.16 254.20,549.16" fill="#faffa8" />
  <polygon points="361.86,474.84 374.25,474.84 374.25,461.39 361.86,461.39" fill="#faffa8" />
  <polygon points="348.41,489.47 360.79,489.47 360.79,476.01 348.41,476.01" fill="#faffa8" />
  <polygon points="375.32,489.47 387.70,489.47 387.70,476.01 375.32,476.01" fill="#faffa8" />
  <polygon points="334.95,504.10 347.33,504.10 347.33,490.64 334.95,490.64" fill="#faffa8" />
  <polygon points="388.78,504.10 401.16,504.10 401.16,490.64 388.78,490.64" fill="#faffa8" />
  <polygon points="334.95,518.73 347.33,518.73 347.33,505.27 334.95,505.27" fill="#faffa8" />
  <polygon points="388.78,518.73 401.16,518.73 401.16,505.27 388.78,505.27" fill="#faffa8" />
  <polygon points="334.95,533.36 347.33,533.36 347.33,519.90 334.95,519.90" fill="#faffa8" />
  <polygon points="348.41,533.36 360.79,533.36 360.79,519.90 348.41,519.90" fill="#faffa8" />
  <polygon points="361.86,533.36 374.25,533.36 374.25,519.90 361.86,519.90" fill="#faffa8" />
  <polygon points="375.32,533.36 387.70,533.36 387.70,519.90 375.32,519.90" fill="#faffa8" />
  <polygon points="388.78,533.36 401.16,533.36 401.16,519.90 388.78,519.90" fill="#faffa8" />
  <polygon points="334.95,547.99 347.33,547.99 347.33,534.53 334.95,534.53" fill="#faffa8" />
  <polygon points="388.78,547.99 401.16,547.99 401.16,534.53 388.78,534.53" fill="#faffa8" />
  <polygon points="334.95,562.61 347.33,562.61 347.33,549.16 334.95,549.16" fill="#faffa8" />
  <polygon points="388.78,562.61 401.16,562.61 401.16,549.16 388.78,549.16" fill="#faffa8" />
  <polygon points="429.16,474.84 441.54,474.84 441.54,461.39 429.16,461.39" fill="#faffa8" />
  <polygon points="442.61,474.84 455.00,474.84 455.00,461.39 442.61,461.39" fill="#faffa8" />
  <polygon points="456.07,474.84 468.45,474.84 468.45,461.39 456.07,461.39" fill="#faffa8" />
  <polygon points="469.53,474.84 481.91,474.84 481.91,461.39 469.53,461.39" fill="#faffa8" />
  <polygon points="415.70,489.47 428.08,489.47 428.08,476.01 415.70,476.01" fill="#faffa8" />
  <polygon points="415.70,504.10 428.08,504.10 428.08,490.64 415.70,490.64" fill="#faffa8" />
  <polygon points="429.16,518.73 441.54,518.73 441.54,505.27 429.16,505.27" fill="#faffa8" />
  <polygon points="442.61,518.73 455.00,518.73 455.00,505.27 442.61,505.27" fill="#faffa8" />
  <polygon points="456.07,518.73 468.45,518.73 468.45,505.27 456.07,505.27" fill="#faffa8" />
  <polygon points="469.53,533.36 481.91,533.36 481.91,519.90 469.53,519.90" fill="#faffa8" />
  <polygon points="469.53,547.99 481.91,547.99 481.91,534.53 469.53,534.53" fill="#faffa8" />
  <polygon points="415.70,562.61 428.08,562.61 428.08,549.16 415.70,549.16" fill="#faffa8" />
  <polygon points="429.16,562.61 441.54,562.61 441.54,549.16 429.16,549.16" fill="#faffa8" />
  <polygon points="442.61,562.61 455.00,562.61 455.00,549.16 442.61,549.16" fill="#faffa8" />
  <polygon points="456.07,562.61 468.45,562.61 468.45,549.16 456.07,549.16" fill="#faffa8" />
  <polygon points="509.91,474.84 522.29,474.84 522.29,461.39 509.91,461.39" fill="#faffa8" />
  <polygon points="523.36,474.84 535.75,474.84 535.75,461.39 523.36,461.39" fill="#faffa8" />
  <polygon points="536.82,474.84 549.20,474.84 549.20,461.39 536.82,461.39" fill="#faffa8" />
  <polygon points="550.28,474.84 562.66,474.84 562.66,461.39 550.28,461.39" fill="#faffa8" />
  <polygon points="496.45,489.47 508.83,489.47 508.83,476.01 496.45,476.01" fill="#faffa8" />
  <polygon points="496.45,504.10 508.83,504.10 508.83,490.64 496.45,490.64" fill="#faffa8" />
  <polygon points="509.91,518.73 522.29,518.73 522.29,505.27 509.91,505.27" fill="#faffa8" />
  <polygon points="523.36,518.73 535.75,518.73 535.75,505.27 523.36,505.27" fill="#faffa8" />
  <polygon points="536.82,518.73 549.20,518.73 549.20,505.27 536.82,505.27" fill="#faffa8" />
  <polygon points="550.28,533.36 562.66,533.36 562.66,519.90 550.28,519.90" fill="#faffa8" />
  <polygon points="550.28,547.99 562.66,547.99 562.66,534.53 550.28,534.53" fill="#faffa8" />
  <polygon points="496.45,562.61 508.83,562.61 508.83,549.16 496.45,549.16" fill="#faffa8" />
  <polygon points="509.91,562.61 522.29,562.61 522.29,549.16 509.91,549.16" fill="#faffa8" />
  <polygon points="523.36,562.61 535.75,562.61 535.75,549.16 523.36,549.16" fill="#faffa8" />
  <polygon points="536.82,562.61 549.20,562.61 549.20,549.16 536.82,549.16" fill="#faffa8" />
</svg>
