<svg xmlns="http://www.w3.org/2000/svg" viewBox="0 0 1024 1024">
  <polygon points="25.60,706.56 998.40,706.56 998.40,317.44 25.60,317.44" fill="#65f2ff" />
  <polygon points="532.48,471.04 757.76,471.04 757.76,552.96 532.48,552.96" fill="#faffa8" />
  <polygon points="901.12,512.00 757.76,409.60 757.76,614.40" fill="#faffa8" />
  <polygon points="84.24,474.84 95.35,474.84 95.35,461.39 84.24,461.39" fill="#faffa8" />
  <polygon points="96.32,474.84 107.43,474.84 107.43,461.39 96.32,461.39" fill="#faffa8" />
  <polygon points="108.40,474.84 119.51,474.84 119.51,461.39 108.40,461.39" fill="#faffa8" />
  <polygon points="72.16,489.47 83.27,489.47 83.27,476.01 72.16,476.01" fill="#faffa8" />
  <polygon points="120.47,489.47 131.59,489.47 131.59,476.01 120.47,476.01" fill="#faffa8" />
  <polygon points="72.16,504.10 83.27,504.10 83.27,490.64 72.16,490.64" fill="#faffa8" />
  <polygon points="120.47,504.10 131.59,504.10 131.59,490.64 120.47,490.64" fill="#faffa8" />
  <polygon points="72.16,518.73 83.27,518.73 83.27,505.27 72.16,505.27" fill="#faffa8" />
  <polygon points="120.47,518.73 131.59,518.73 131.59,505.27 120.47,505.27" fill="#faffa8" />
  <polygon points="72.16,533.36 83.27,533.36 83.27,519.90 72.16,519.90" fill="#faffa8" />
  <polygon points="120.47,533.36 131.59,533.36 131.59,519.90 120.47,519.90" fill="#faffa8" />
  <polygon points="72.16,547.99 83.27,547.99 83.27,534.53 72.16,534.53" fill="#faffa8" />
  <polygon points="120.47,547.99 131.59,547.99 131.59,534.53 120.47,534.53" fill="#faffa8" />
  <polygon points="84.24,562.61 95.35,562.61 95.35,549.16 84.24,549.16" fill="#faffa8" />
  <polygon points="96.32,562.61 107.43,562.61 107.43,549.16 96.32,549.16" fill="#faffa8" />
  <polygon points="108.40,562.61 119.51,562.61 119.51,549.16 108.40,549.16" fill="#faffa8" />
  <polygon points="144.63,474.84 155.74,474.84 155.74,461.39 144.63,461.39" fill="#faffa8" />
  <polygon points="192.94,474.84 204.05,474.84 204.05,461.39 192.94,461.39" fill="#faffa8" />
  <polygon points="144.63,489.47 155.74,489.47 155.74,476.01 144.63,476.01" fill="#faffa8" />
  <polygon points="156.71,489.47 167.82,489.47 167.82,476.01 156.71,476.01" fill="#faffa8" />
  <polygon points="192.94,489.47 204.05,489.47 204.05,476.01 192.94,476.01" fill="#faffa8" />
  <polygon points="144.63,504.10 155.74,504.10 155.74,490.64 144.63,490.64" fill="#faffa8" />
  <polygon points="168.79,504.10 179.90,504.10 179.90,490.64 168.79,490.64" fill="#faffa8" />
  <polygon points="192.94,504.10 204.05,504.10 204.05,490.64 192.94,490.64" fill="#faffa8" />
  <polygon points="144.63,518.73 155.74,518.73 155.74,505.27 144.63,505.27" fill="#faffa8" />
  <polygon points="180.86,518.73 191.98,518.73 191.98,505.27 180.86,505.27" fill="#faffa8" />
  <polygon points="192.94,518.73 204.05,518.73 204.05,505.27 192.94,505.27" fill="#faffa8" />
  <polygon points="144.63,533.36 155.74,533.36 155.74,519.90 144.63,519.90" fill="#faffa8" />
  <polygon points="192.94,533.36 204.05,533.36 204.05,519.90 192.94,519.90" fill="#faffa8" />
  <polygon points="144.63,547.99 155.74,547.99 155.74,534.53 144.63,534.53" fill="#faffa8" />
  <polygon points="192.94,547.99 204.05,547.99 204.05,534.53 192.94,534.53" fill="#faffa8" />
  <polygon points="144.63,562.61 155.74,562.61 155.74,549.16 144.63,549.16" fill="#faffa8" />
  <polygon points="192.94,562.61 204.05,562.61 204.05,549.16 192.94,549.16" fill="#faffa8" />
  <polygon points="217.10,474.84 228.21,474.84 228.21,461.39 217.10,461.39" fill="#faffa8" />
  <polygon points="229.18,474.84 240.29,474.84 240.29,461.39 229.18,461.39" fill="#faffa8" />
  <polygon points="241.25,474.84 252.37,474.84 252.37,461.39 241.25,461.39" fill="#faffa8" />
  <polygon points="253.33,474.84 264.44,474.84 264.44,461.39 253.33,461.39" fill="#faffa8" />
  <polygon points="265.41,474.84 276.52,474.84 276.52,461.39 265.41,461.39" fill="#faffa8" />
  <polygon points="217.10,489.47 228.21,489.47 228.21,476.01 217.10,476.01" fill="#faffa8" />
  <polygon points="217.10,504.10 228.21,504.10 228.21,490.64 217.10,490.64" fill="#faffa8" />
  <polygon points="217.10,518.73 228.21,518.73 228.21,505.27 217.10,505.27" fill="#faffa8" />
  <polygon points="229.18,518.73 240.29,518.73 240.29,505.27 229.18,505.27" fill="#faffa8" />
  <polygon points="241.25,518.73 252.37,518.73 252.37,505.27 241.25,505.27" fill="#faffa8" />
  <polygon points="253.33,518.73 264.44,518.73 264.44,505.27 253.33,505.27" fill="#faffa8" />
  <polygon points="217.10,533.36 228.21,533.36 228.21,519.90 217.10,519.90" fill="#faffa8" />
  <polygon points="217.10,547.99 228.21,547.99 228.21,534.53 217.10,534.53" fill="#faffa8" />
  <polygon points="217.10,562.61 228.21,562.61 228.21,549.16 217.10,549.16" fill="#faffa8" />
  <polygon points="229.18,562.61 240.29,562.61 240.29,549.16 229.18,549.16" fill="#faffa8" />
  <polygon points="241.25,562.61 252.37,562.61 252.37,549.16 241.25,549.16" fill="#faffa8" />
  <polygon points="253.33,562.61 264.44,562.61 264.44,549.16 253.33,549.16" fill="#faffa8" />
  <polygon points="265.41,562.61 276.52,562.61 276.52,549.16 265.41,549.16" fill="#faffa8" />
  <polygon points="337.88,474.84 348.99,474.84 348.99,461.39 337.88,461.39" fill="#faffa8" />
  <polygon points="386.19,474.84 397.30,474.84 397.30,461.39 386.19,461.39" fill="#faffa8" />
  <polygon points="337.88,489.47 348.99,489.47 348.99,476.01 337.88,476.01" fill="#faffa8" />
  <polygon points="386.19,489.47 397.30,489.47 397.30,476.01 386.19,476.01" fill="#faffa8" />
  <polygon points="337.88,504.10 348.99,504.10 348.99,490.64 337.88,490.64" fill="#faffa8" />
  <polygon points="386.19,504.10 397.30,504.10 397.30,490.64 386.19,490.64" fill="#faffa8" />
  <polygon points="337.88,518.73 348.99,518.73 348.99,505.27 337.88,505.27" fill="#faffa8" />
  <polygon points="362.03,518.73 373.15,518.73 373.15,505.27 362.03,505.27" fill="#faffa8" />
  <polygon points="386.19,518.73 397.30,518.73 397.30,505.27 386.19,505.27" fill="#faffa8" />
  <polygon points="337.88,533.36 348.99,533.36 348.99,519.90 337.88,519.90" fill="#faffa8" />
  <polygon points="362.03,533.36 373.15,533.36 373.15,519.90 362.03,519.90" fill="#faffa8" />
  <polygon points="386.19,533.36 397.30,533.36 397.30,519.90 386.19,519.90" fill="#faffa8" />
  <polygon points="337.88,547.99 348.99,547.99 348.99,534.53 337.88,534.53" fill="#faffa8" />
  <polygon points="362.03,547.99 373.15,547.99 373.15,534.53 362.03,534.53" fill="#faffa8" />
  <polygon points="386.19,547.99 397.30,547.99 397.30,534.53 386.19,534.53" fill="#faffa8" />
  <polygon points="349.96,562.61 361.07,562.61 361.07,549.16 349.96,549.16" fill="#faffa8" />
  <polygon points="374.11,562.61 385.22,562.61 385.22,549.16 374.11,549.16" fill="#faffa8" />
  <polygon points="434.50,474.84 445.61,474.84 445.61,461.39 434.50,461.39" fill="#faffa8" />
  <polygon points="422.42,489.47 433.54,489.47 433.54,476.01 422.42,476.01" fill="#faffa8" />
  <polygon points="446.58,489.47 457.69,489.47 457.69,476.01 446.58,476.01" fill="#faffa8" />
  <polygon points="410.35,504.10 421.46,504.10 421.46,490.64 410.35,490.64" fill="#faffa8" />
  <polygon points="458.66,504.10 469.77,504.10 469.77,490.64 458.66,490.64" fill="#faffa8" />
  <polygon points="410.35,518.73 421.46,518.73 421.46,505.27 410.35,505.27" fill="#faffa8" />
  <polygon points="458.66,518.73 469.77,518.73 469.77,505.27 458.66,505.27" fill="#faffa8" />
  <polygon points="410.35,533.36 421.46,533.36 421.46,519.90 410.35,519.90" fill="#faffa8" />
  <polygon points="422.42,533.36 433.54,533.36 433.54,519.90 422.42,519.90" fill="#faffa8" />
  <polygon points="434.50,533.36 445.61,533.36 445.61,519.90 434.50,519.90" fill="#faffa8" />
  <polygon points="446.58,533.36 457.69,533.36 457.69,519.90 446.58,519.90" fill="#faffa8" />
  <polygon points="458.66,533.36 469.77,533.36 469.77,519.90 458.66,519.90" fill="#faffa8" />
  <polygon points="410.35,547.99 421.46,547.99 421.46,534.53 410.35,534.53" fill="#faffa8" />
  <polygon points="458.66,547.99 469.77,547.99 469.77,534.53 458.66,534.53" fill="#faffa8" />
  <polygon points="410.35,562.61 421.46,562.61 421.46,549.16 410.35,549.16" fill="#faffa8" />
  <polygon points="458.66,562.61 469.77,562.61 469.77,549.16 458.66,549.16" fill="#faffa8" />
  <polygon points="482.81,474.84 493.93,474.84 493.93,461.39 482.81,461.39" fill="#faffa8" />
  <polygon points="531.13,474.84 542.24,474.84 542.24,461.39 531.13,461.39" fill="#faffa8" />
  <polygon points="482.81,489.47 493.93,489.47 493.93,476.01 482.81,476.01" fill="#faffa8" />
  <polygon points="531.13,489.47 542.24,489.47 542.24,476.01 531.13,476.01" fill="#faffa8" />
  <polygon points="494.89,504.10 506.00,504.10 506.00,490.64 494.89,490.64" fill="#faffa8" />
  <polygon points="519.05,504.10 530.16,504.10 530.16,490.64 519.05,490.64" fill="#faffa8" />
  <polygon points="506.97,518.73 518.08,518.73 518.08,505.27 506.97,505.27" fill="#faffa8" />
  <polygon points="506.97,533.36 518.08,533.36 518.08,519.90 506.97,519.90" fill="#faffa8" />
  <polygon points="506.97,547.99 518.08,547.99 518.08,534.53 506.97,534.53" fill="#faffa8" />
  <polygon points="506.97,562.61 518.08,562.61 518.08,549.16 506.97,549.16" fill="#faffa8" />
</svg>
