<svg xmlns="http://www.w3.org/2000/svg" viewBox="0 0 1024 1024">
  <polygon points="20.48,716.80 1003.52,716.80 1003.52,307.20 20.48,307.20" fill="#faffa8" />
  <polygon points="61.44,675.84 962.56,675.84 962.56,348.16 61.44,348.16" fill="#65f2ff" />
  <polygon points="349.35,463.70 376.76,463.70 376.76,446.20 349.35,446.20" fill="#faffa8" />
  <polygon points="468.51,463.70 495.91,463.70 495.91,446.20 468.51,446.20" fill="#faffa8" />
  <polygon points="349.35,482.71 376.76,482.71 376.76,465.22 349.35,465.22" fill="#faffa8" />
  <polygon points="379.14,482.71 406.55,482.71 406.55,465.22 379.14,465.22" fill="#faffa8" />
  <polygon points="438.72,482.71 466.12,482.71 466.12,465.22 438.72,465.22" fill="#faffa8" />
  <polygon points="468.51,482.71 495.91,482.71 495.91,465.22 468.51,465.22" fill="#faffa8" />
  <polygon points="349.35,501.73 376.76,501.73 376.76,484.23 349.35,484.23" fill="#faffa8" />
  <polygon points="408.93,501.73 436.34,501.73 436.34,484.23 408.93,484.23" fill="#faffa8" />
  <polygon points="468.51,501.73 495.91,501.73 495.91,484.23 468.51,484.23" fill="#faffa8" />
  <polygon points="349.35,520.75 376.76,520.75 376.76,503.25 349.35,503.25" fill="#faffa8" />
  <polygon points="408.93,520.75 436.34,520.75 436.34,503.25 408.93,503.25" fill="#faffa8" />
  <polygon points="468.51,520.75 495.91,520.75 495.91,503.25 468.51,503.25" fill="#faffa8" />
  <polygon points="349.35,539.77 376.76,539.77 376.76,522.27 349.35,522.27" fill="#faffa8" />
  <polygon points="468.51,539.77 495.91,539.77 495.91,522.27 468.51,522.27" fill="#faffa8" />
  <polygon points="349.35,558.78 376.76,558.78 376.76,541.29 349.35,541.29" fill="#faffa8" />
  <polygon points="468.51,558.78 495.91,558.78 495.91,541.29 468.51,541.29" fill="#faffa8" />
  <polygon points="349.35,577.80 376.76,577.80 376.76,560.30 349.35,560.30" fill="#faffa8" />
  <polygon points="468.51,577.80 495.91,577.80 495.91,560.30 468.51,560.30" fill="#faffa8" />
  <polygon points="587.66,463.70 615.07,463.70 615.07,446.20 587.66,446.20" fill="#faffa8" />
  <polygon points="557.88,482.71 585.28,482.71 585.28,465.22 557.88,465.22" fill="#faffa8" />
  <polygon points="587.66,482.71 615.07,482.71 615.07,465.22 587.66,465.22" fill="#faffa8" />
  <polygon points="587.66,501.73 615.07,501.73 615.07,484.23 587.66,484.23" fill="#faffa8" />
  <polygon points="587.66,520.75 615.07,520.75 615.07,503.25 587.66,503.25" fill="#faffa8" />
  <polygon points="587.66,539.77 615.07,539.77 615.07,522.27 587.66,522.27" fill="#faffa8" />
  <polygon points="587.66,558.78 615.07,558.78 615.07,541.29 587.66,541.29" fill="#faffa8" />
  <polygon points="557.88,577.80 585.28,577.80 585.28,560.30 557.88,560.30" fill="#faffa8" />
  <polygon points="587.66,577.80 615.07,577.80 615.07,560.30 587.66,560.30" fill="#faffa8" />
  <polygon points="617.45,577.80 644.86,577.80 644.86,560.30 617.45,560.30" fill="#faffa8" />
</svg>
