<svg xmlns="http://www.w3.org/2000/svg" viewBox="0 0 1024 1024">
  <polygon points="25.60,706.56 998.40,706.56 998.40,317.44 25.60,317.44" fill="#faffa8" />
  <polygon points="76.80,655.36 947.20,655.36 947.20,368.64 76.80,368.64" fill="#bdff58" />
  <polygon points="277.59,467.41 303.08,467.41 303.08,451.26 277.59,451.26" fill="#faffa8" />
  <polygon points="305.30,467.41 330.79,467.41 330.79,451.26 305.30,451.26" fill="#faffa8" />
  <polygon points="333.00,467.41 358.50,467.41 358.50,451.26 333.00,451.26" fill="#faffa8" />
  <polygon points="360.71,467.41 386.20,467.41 386.20,451.26 360.71,451.26" fill="#faffa8" />
  <polygon points="388.42,467.41 413.91,467.41 413.91,451.26 388.42,451.26" fill="#faffa8" />
  <polygon points="277.59,484.97 303.08,484.97 303.08,468.82 277.59,468.82" fill="#faffa8" />
  <polygon points="277.59,502.52 303.08,502.52 303.08,486.37 277.59,486.37" fill="#faffa8" />
  <polygon points="277.59,520.07 303.08,520.07 303.08,503.93 277.59,503.93" fill="#faffa8" />
  <polygon points="305.30,520.07 330.79,520.07 330.79,503.93 305.30,503.93" fill="#faffa8" />
  <polygon points="333.00,520.07 358.50,520.07 358.50,503.93 333.00,503.93" fill="#faffa8" />
  <polygon points="360.71,520.07 386.20,520.07 386.20,503.93 360.71,503.93" fill="#faffa8" />
  <polygon points="277.59,537.63 303.08,537.63 303.08,521.48 277.59,521.48" fill="#faffa8" />
  <polygon points="277.59,555.18 303.08,555.18 303.08,539.03 277.59,539.03" fill="#faffa8" />
  <polygon points="277.59,572.74 303.08,572.74 303.08,556.59 277.59,556.59" fill="#faffa8" />
  <polygon points="305.30,572.74 330.79,572.74 330.79,556.59 305.30,556.59" fill="#faffa8" />
  <polygon points="333.00,572.74 358.50,572.74 358.50,556.59 333.00,556.59" fill="#faffa8" />
  <polygon points="360.71,572.74 386.20,572.74 386.20,556.59 360.71,556.59" fill="#faffa8" />
  <polygon points="388.42,572.74 413.91,572.74 413.91,556.59 388.42,556.59" fill="#faffa8" />
  <polygon points="526.96,467.41 552.45,467.41 552.45,451.26 526.96,451.26" fill="#faffa8" />
  <polygon points="499.25,484.97 524.75,484.97 524.75,468.82 499.25,468.82" fill="#faffa8" />
  <polygon points="526.96,484.97 552.45,484.97 552.45,468.82 526.96,468.82" fill="#faffa8" />
  <polygon points="471.55,502.52 497.04,502.52 497.04,486.37 471.55,486.37" fill="#faffa8" />
  <polygon points="526.96,502.52 552.45,502.52 552.45,486.37 526.96,486.37" fill="#faffa8" />
  <polygon points="443.84,520.07 469.33,520.07 469.33,503.93 443.84,503.93" fill="#faffa8" />
  <polygon points="526.96,520.07 552.45,520.07 552.45,503.93 526.96,503.93" fill="#faffa8" />
  <polygon points="443.84,537.63 469.33,537.63 469.33,521.48 443.84,521.48" fill="#faffa8" />
  <polygon points="471.55,537.63 497.04,537.63 497.04,521.48 471.55,521.48" fill="#faffa8" />
  <polygon points="499.25,537.63 524.75,537.63 524.75,521.48 499.25,521.48" fill="#faffa8" />
  <polygon points="526.96,537.63 552.45,537.63 552.45,521.48 526.96,521.48" fill="#faffa8" />
  <polygon points="554.67,537.63 580.16,537.63 580.16,521.48 554.67,521.48" fill="#faffa8" />
  <polygon points="526.96,555.18 552.45,555.18 552.45,539.03 526.96,539.03" fill="#faffa8" />
  <polygon points="526.96,572.74 552.45,572.74 552.45,556.59 526.96,556.59" fill="#faffa8" />
  <polygon points="610.09,467.41 635.58,467.41 635.58,451.26 610.09,451.26" fill="#faffa8" />
  <polygon points="637.80,467.41 663.29,467.41 663.29,451.26 637.80,451.26" fill="#faffa8" />
  <polygon points="665.50,467.41 691.00,467.41 691.00,451.26 665.50,451.26" fill="#faffa8" />
  <polygon points="693.21,467.41 718.70,467.41 718.70,451.26 693.21,451.26" fill="#faffa8" />
  <polygon points="720.92,467.41 746.41,467.41 746.41,451.26 720.92,451.26" fill="#faffa8" />
  <polygon points="610.09,484.97 635.58,484.97 635.58,468.82 610.09,468.82" fill="#faffa8" />
  <polygon points="610.09,502.52 635.58,502.52 635.58,486.37 610.09,486.37" fill="#faffa8" />
  <polygon points="637.80,502.52 663.29,502.52 663.29,486.37 637.80,486.37" fill="#faffa8" />
  <polygon points="665.50,502.52 691.00,502.52 691.00,486.37 665.50,486.37" fill="#faffa8" />
  <polygon points="693.21,502.52 718.70,502.52 718.70,486.37 693.21,486.37" fill="#faffa8" />
  <polygon points="720.92,520.07 746.41,520.07 746.41,503.93 720.92,503.93" fill="#faffa8" />
  <polygon points="720.92,537.63 746.41,537.63 746.41,521.48 720.92,521.48" fill="#faffa8" />
  <polygon points="610.09,555.18 635.58,555.18 635.58,539.03 610.09,539.03" fill="#faffa8" />
  <polygon points="720.92,555.18 746.41,555.18 746.41,539.03 720.92,539.03" fill="#faffa8" />
  <polygon points="637.80,572.74 663.29,572.74 663.29,556.59 637.80,556.59" fill="#faffa8" />
  <polygon points="665.50,572.74 691.00,572.74 691.00,556.59 665.50,556.59" fill="#faffa8" />
  <polygon points="693.21,572.74 718.70,572.74 718.70,556.59 693.21,556.59" fill="#faffa8" />
</svg>
