<svg xmlns="http://www.w3.org/2000/svg" viewBox="0 0 1024 1024">
  <polygon points="25.60,706.56 998.40,706.56 998.40,317.44 25.60,317.44" fill="#65f2ff" />
  <polygon points="133.12,542.72 522.24,542.72 522.24,481.28 133.12,481.28" fill="#faffa8" />
  <polygon points="573.44,512.00 471.04,430.08 471.04,593.92" fill="#faffa8" />
  <polygon points="290.19,531.13 105.87,367.29 139.89,329.03 324.21,492.87" fill="#faffa8" />
  <polygon points="324.21,531.13 139.89,694.97 105.87,656.71 290.19,492.87" fill="#faffa8" />
  <polygon points="373.39,498.89 475.79,376.01 507.25,402.23 404.85,525.11" fill="#faffa8" />
  <polygon points="404.85,498.89 507.25,621.77 475.79,647.99 373.39,525.11" fill="#faffa8" />
  <polygon points="532.48,471.04 757.76,471.04 757.76,552.96 532.48,552.96" fill="#faffa8" />
  <polygon points="901.12,512.00 757.76,409.60 757.76,614.40" fill="#faffa8" />
</svg>
