<svg xmlns="http://www.w3.org/2000/svg" viewBox="0 0 1024 1024">
  <polygon points="25.60,706.56 998.40,706.56 998.40,317.44 25.60,317.44" fill="#faffa8" />
  <polygon points="66.56,665.60 957.44,665.60 957.44,358.40 66.56,358.40" fill="#bdff58" />
  <polygon points="188.08,474.84 200.46,474.84 200.46,461.39 188.08,461.39" fill="#faffa8" />
  <polygon points="201.53,474.84 213.92,474.84 213.92,461.39 201.53,461.39" fill="#faffa8" />
  <polygon points="214.99,474.84 227.37,474.84 227.37,461.39 214.99,461.39" fill="#faffa8" />
  <polygon points="174.62,489.47 187.00,489.47 187.00,476.01 174.62,476.01" fill="#faffa8" />
  <polygon points="228.45,489.47 240.83,489.47 240.83,476.01 228.45,476.01" fill="#faffa8" />
  <polygon points="174.62,504.10 187.00,504.10 187.00,490.64 174.62,490.64" fill="#faffa8" />
  <polygon points="174.62,518.73 187.00,518.73 187.00,505.27 174.62,505.27" fill="#faffa8" />
  <polygon points="174.62,533.36 187.00,533.36 187.00,519.90 174.62,519.90" fill="#faffa8" />
  <polygon points="174.62,547.99 187.00,547.99 187.00,534.53 174.62,534.53" fill="#faffa8" />
  <polygon points="228.45,547.99 240.83,547.99 240.83,534.53 228.45,534.53" fill="#faffa8" />
  <polygon points="188.08,562.61 200.46,562.61 200.46,549.16 188.08,549.16" fill="#faffa8" />
  <polygon points="201.53,562.61 213.92,562.61 213.92,549.16 201.53,549.16" fill="#faffa8" />
  <polygon points="214.99,562.61 227.37,562.61 227.37,549.16 214.99,549.16" fill="#faffa8" />
  <polygon points="255.37,474.84 267.75,474.84 267.75,461.39 255.37,461.39" fill="#faffa8" />
  <polygon points="268.83,474.84 281.21,474.84 281.21,461.39 268.83,461.39" fill="#faffa8" />
  <polygon points="282.28,474.84 294.67,474.84 294.67,461.39 282.28,461.39" fill="#faffa8" />
  <polygon points="295.74,474.84 308.12,474.84 308.12,461.39 295.74,461.39" fill="#faffa8" />
  <polygon points="309.20,474.84 321.58,474.84 321.58,461.39 309.20,461.39" fill="#faffa8" />
  <polygon points="255.37,489.47 267.75,489.47 267.75,476.01 255.37,476.01" fill="#faffa8" />
  <polygon points="255.37,504.10 267.75,504.10 267.75,490.64 255.37,490.64" fill="#faffa8" />
  <polygon points="255.37,518.73 267.75,518.73 267.75,505.27 255.37,505.27" fill="#faffa8" />
  <polygon points="268.83,518.73 281.21,518.73 281.21,505.27 268.83,505.27" fill="#faffa8" />
  <polygon points="282.28,518.73 294.67,518.73 294.67,505.27 282.28,505.27" fill="#faffa8" />
  <polygon points="295.74,518.73 308.12,518.73 308.12,505.27 295.74,505.27" fill="#faffa8" />
  <polygon points="255.37,533.36 267.75,533.36 267.75,519.90 255.37,519.90" fill="#faffa8" />
  <polygon points="255.37,547.99 267.75,547.99 267.75,534.53 255.37,534.53" fill="#faffa8" />
  <polygon points="255.37,562.61 267.75,562.61 267.75,549.16 255.37,549.16" fill="#faffa8" />
  <polygon points="268.83,562.61 281.21,562.61 281.21,549.16 268.83,549.16" fill="#faffa8" />
  <polygon points="282.28,562.61 294.67,562.61 294.67,549.16 282.28,549.16" fill="#faffa8" />
  <polygon points="295.74,562.61 308.12,562.61 308.12,549.16 295.74,549.16" fill="#faffa8" />
  <polygon points="309.20,562.61 321.58,562.61 321.58,549.16 309.20,549.16" fill="#faffa8" />
  <polygon points="336.12,474.84 348.50,474.84 348.50,461.39 336.12,461.39" fill="#faffa8" />
  <polygon points="389.95,474.84 402.33,474.84 402.33,461.39 389.95,461.39" fill="#faffa8" />
  <polygon points="336.12,489.47 348.50,489.47 348.50,476.01 336.12,476.01" fill="#faffa8" />
  <polygon points="349.58,489.47 361.96,489.47 361.96,476.01 349.58,476.01" fill="#faffa8" />
  <polygon points="389.95,489.47 402.33,489.47 402.33,476.01 389.95,476.01" fill="#faffa8" />
  <polygon points="336.12,504.10 348.50,504.10 348.50,490.64 336.12,490.64" fill="#faffa8" />
  <polygon points="363.03,504.10 375.42,504.10 375.42,490.64 363.03,490.64" fill="#faffa8" />
  <polygon points="389.95,504.10 402.33,504.10 402.33,490.64 389.95,490.64" fill="#faffa8" />
  <polygon points="336.12,518.73 348.50,518.73 348.50,505.27 336.12,505.27" fill="#faffa8" />
  <polygon points="376.49,518.73 388.87,518.73 388.87,505.27 376.49,505.27" fill="#faffa8" />
  <polygon points="389.95,518.73 402.33,518.73 402.33,505.27 389.95,505.27" fill="#faffa8" />
  <polygon points="336.12,533.36 348.50,533.36 348.50,519.90 336.12,519.90" fill="#faffa8" />
  <polygon points="389.95,533.36 402.33,533.36 402.33,519.90 389.95,519.90" fill="#faffa8" />
  <polygon points="336.12,547.99 348.50,547.99 348.50,534.53 336.12,534.53" fill="#faffa8" />
  <polygon points="389.95,547.99 402.33,547.99 402.33,534.53 389.95,534.53" fill="#faffa8" />
  <polygon points="336.12,562.61 348.50,562.61 348.50,549.16 336.12,549.16" fill="#faffa8" />
  <polygon points="389.95,562.61 402.33,562.61 402.33,549.16 389.95,549.16" fill="#faffa8" />
  <polygon points="416.87,474.84 429.25,474.84 429.25,461.39 416.87,461.39" fill="#faffa8" />
  <polygon points="430.33,474.84 442.71,474.84 442.71,461.39 430.33,461.39" fill="#faffa8" />
  <polygon points="443.78,474.84 456.17,474.84 456.17,461.39 443.78,461.39" fill="#faffa8" />
  <polygon points="457.24,474.84 469.62,474.84 469.62,461.39 457.24,461.39" fill="#faffa8" />
  <polygon points="470.70,474.84 483.08,474.84 483.08,461.39 470.70,461.39" fill="#faffa8" />
  <polygon points="443.78,489.47 456.17,489.47 456.17,476.01 443.78,476.01" fill="#faffa8" />
  <polygon points="443.78,504.10 456.17,504.10 456.17,490.64 443.78,490.64" fill="#faffa8" />
  <polygon points="443.78,518.73 456.17,518.73 456.17,505.27 443.78,505.27" fill="#faffa8" />
  <polygon points="443.78,533.36 456.17,533.36 456.17,519.90 443.78,519.90" fill="#faffa8" />
  <polygon points="443.78,547.99 456.17,547.99 456.17,534.53 443.78,534.53" fill="#faffa8" />
  <polygon points="443.78,562.61 456.17,562.61 456.17,549.16 443.78,549.16" fill="#faffa8" />
  <polygon points="497.62,474.84 510.00,474.84 510.00,461.39 497.62,461.39" fill="#faffa8" />
  <polygon points="511.08,474.84 523.46,474.84 523.46,461.39 511.08,461.39" fill="#faffa8" />
  <polygon points="524.53,474.84 536.92,474.84 536.92,461.39 524.53,461.39" fill="#faffa8" />
  <polygon points="537.99,474.84 550.37,474.84 550.37,461.39 537.99,461.39" fill="#faffa8" />
  <polygon points="497.62,489.47 510.00,489.47 510.00,476.01 497.62,476.01" fill="#faffa8" />
  <polygon points="551.45,489.47 563.83,489.47 563.83,476.01 551.45,476.01" fill="#faffa8" />
  <polygon points="497.62,504.10 510.00,504.10 510.00,490.64 497.62,490.64" fill="#faffa8" />
  <polygon points="551.45,504.10 563.83,504.10 563.83,490.64 551.45,490.64" fill="#faffa8" />
  <polygon points="497.62,518.73 510.00,518.73 510.00,505.27 497.62,505.27" fill="#faffa8" />
  <polygon points="511.08,518.73 523.46,518.73 523.46,505.27 511.08,505.27" fill="#faffa8" />
  <polygon points="524.53,518.73 536.92,518.73 536.92,505.27 524.53,505.27" fill="#faffa8" />
  <polygon points="537.99,518.73 550.37,518.73 550.37,505.27 537.99,505.27" fill="#faffa8" />
  <polygon points="497.62,533.36 510.00,533.36 510.00,519.90 497.62,519.90" fill="#faffa8" />
  <polygon points="524.53,533.36 536.92,533.36 536.92,519.90 524.53,519.90" fill="#faffa8" />
  <polygon points="497.62,547.99 510.00,547.99 510.00,534.53 497.62,534.53" fill="#faffa8" />
  <polygon points="537.99,547.99 550.37,547.99 550.37,534.53 537.99,534.53" fill="#faffa8" />
  <polygon points="497.62,562.61 510.00,562.61 510.00,549.16 497.62,549.16" fill="#faffa8" />
  <polygon points="551.45,562.61 563.83,562.61 563.83,549.16 551.45,549.16" fill="#faffa8" />
  <polygon points="591.83,474.84 604.21,474.84 604.21,461.39 591.83,461.39" fill="#faffa8" />
  <polygon points="605.28,474.84 617.67,474.84 617.67,461.39 605.28,461.39" fill="#faffa8" />
  <polygon points="618.74,474.84 631.12,474.84 631.12,461.39 618.74,461.39" fill="#faffa8" />
  <polygon points="578.37,489.47 590.75,489.47 590.75,476.01 578.37,476.01" fill="#faffa8" />
  <polygon points="632.20,489.47 644.58,489.47 644.58,476.01 632.20,476.01" fill="#faffa8" />
  <polygon points="578.37,504.10 590.75,504.10 590.75,490.64 578.37,490.64" fill="#faffa8" />
  <polygon points="632.20,504.10 644.58,504.10 644.58,490.64 632.20,490.64" fill="#faffa8" />
  <polygon points="578.37,518.73 590.75,518.73 590.75,505.27 578.37,505.27" fill="#faffa8" />
  <polygon points="632.20,518.73 644.58,518.73 644.58,505.27 632.20,505.27" fill="#faffa8" />
  <polygon points="578.37,533.36 590.75,533.36 590.75,519.90 578.37,519.90" fill="#faffa8" />
  <polygon points="632.20,533.36 644.58,533.36 644.58,519.90 632.20,519.90" fill="#faffa8" />
  <polygon points="578.37,547.99 590.75,547.99 590.75,534.53 578.37,534.53" fill="#faffa8" />
  <polygon points="632.20,547.99 644.58,547.99 644.58,534.53 632.20,534.53" fill="#faffa8" />
  <polygon points="591.83,562.61 604.21,562.61 604.21,549.16 591.83,549.16" fill="#faffa8" />
  <polygon points="605.28,562.61 617.67,562.61 617.67,549.16 605.28,549.16" fill="#faffa8" />
  <polygon points="618.74,562.61 631.12,562.61 631.12,549.16 618.74,549.16" fill="#faffa8" />
  <polygon points="634.88,471.04 757.76,471.04 757.76,552.96 634.88,552.96" fill="#faffa8" />
  <polygon points="901.12,512.00 757.76,409.60 757.76,614.40" fill="#faffa8" />
</svg>
