<svg xmlns="http://www.w3.org/2000/svg" viewBox="0 0 1024 1024">
  <polygon points="20.48,798.72 1003.52,798.72 1003.52,225.28 20.48,225.28" fill="#faffa8" />
  <polygon points="51.20,768.00 972.80,768.00 972.80,256.00 51.20,256.00" fill="#bdff58" />
  <polygon points="496.64,737.28 496.64,286.72 527.36,286.72 527.36,737.28" fill="#faffa8" />
  <polygon points="82.33,605.15 91.75,605.15 91.75,594.39 82.33,594.39" fill="#faffa8" />
  <polygon points="92.57,605.15 101.99,605.15 101.99,594.39 92.57,594.39" fill="#faffa8" />
  <polygon points="102.81,605.15 112.23,605.15 112.23,594.39 102.81,594.39" fill="#faffa8" />
  <polygon points="113.05,605.15 122.47,605.15 122.47,594.39 113.05,594.39" fill="#faffa8" />
  <polygon points="72.09,616.86 81.51,616.86 81.51,606.09 72.09,606.09" fill="#faffa8" />
  <polygon points="72.09,628.56 81.51,628.56 81.51,617.79 72.09,617.79" fill="#faffa8" />
  <polygon points="82.33,640.26 91.75,640.26 91.75,629.50 82.33,629.50" fill="#faffa8" />
  <polygon points="92.57,640.26 101.99,640.26 101.99,629.50 92.57,629.50" fill="#faffa8" />
  <polygon points="102.81,640.26 112.23,640.26 112.23,629.50 102.81,629.50" fill="#faffa8" />
  <polygon points="113.05,651.97 122.47,651.97 122.47,641.20 113.05,641.20" fill="#faffa8" />
  <polygon points="113.05,663.67 122.47,663.67 122.47,652.90 113.05,652.90" fill="#faffa8" />
  <polygon points="72.09,675.37 81.51,675.37 81.51,664.61 72.09,664.61" fill="#faffa8" />
  <polygon points="82.33,675.37 91.75,675.37 91.75,664.61 82.33,664.61" fill="#faffa8" />
  <polygon points="92.57,675.37 101.99,675.37 101.99,664.61 92.57,664.61" fill="#faffa8" />
  <polygon points="102.81,675.37 112.23,675.37 112.23,664.61 102.81,664.61" fill="#faffa8" />
  <polygon points="133.53,605.15 142.95,605.15 142.95,594.39 133.53,594.39" fill="#faffa8" />
  <polygon points="143.77,605.15 153.19,605.15 153.19,594.39 143.77,594.39" fill="#faffa8" />
  <polygon points="154.01,605.15 163.43,605.15 163.43,594.39 154.01,594.39" fill="#faffa8" />
  <polygon points="164.25,605.15 173.67,605.15 173.67,594.39 164.25,594.39" fill="#faffa8" />
  <polygon points="174.49,605.15 183.91,605.15 183.91,594.39 174.49,594.39" fill="#faffa8" />
  <polygon points="154.01,616.86 163.43,616.86 163.43,606.09 154.01,606.09" fill="#faffa8" />
  <polygon points="154.01,628.56 163.43,628.56 163.43,617.79 154.01,617.79" fill="#faffa8" />
  <polygon points="154.01,640.26 163.43,640.26 163.43,629.50 154.01,629.50" fill="#faffa8" />
  <polygon points="154.01,651.97 163.43,651.97 163.43,641.20 154.01,641.20" fill="#faffa8" />
  <polygon points="154.01,663.67 163.43,663.67 163.43,652.90 154.01,652.90" fill="#faffa8" />
  <polygon points="154.01,675.37 163.43,675.37 163.43,664.61 154.01,664.61" fill="#faffa8" />
  <polygon points="215.45,605.15 224.87,605.15 224.87,594.39 215.45,594.39" fill="#faffa8" />
  <polygon points="205.21,616.86 214.63,616.86 214.63,606.09 205.21,606.09" fill="#faffa8" />
  <polygon points="225.69,616.86 235.11,616.86 235.11,606.09 225.69,606.09" fill="#faffa8" />
  <polygon points="194.97,628.56 204.39,628.56 204.39,617.79 194.97,617.79" fill="#faffa8" />
  <polygon points="235.93,628.56 245.35,628.56 245.35,617.79 235.93,617.79" fill="#faffa8" />
  <polygon points="194.97,640.26 204.39,640.26 204.39,629.50 194.97,629.50" fill="#faffa8" />
  <polygon points="235.93,640.26 245.35,640.26 245.35,629.50 235.93,629.50" fill="#faffa8" />
  <polygon points="194.97,651.97 204.39,651.97 204.39,641.20 194.97,641.20" fill="#faffa8" />
  <polygon points="205.21,651.97 214.63,651.97 214.63,641.20 205.21,641.20" fill="#faffa8" />
  <polygon points="215.45,651.97 224.87,651.97 224.87,641.20 215.45,641.20" fill="#faffa8" />
  <polygon points="225.69,651.97 235.11,651.97 235.11,641.20 225.69,641.20" fill="#faffa8" />
  <polygon points="235.93,651.97 245.35,651.97 245.35,641.20 235.93,641.20" fill="#faffa8" />
  <polygon points="194.97,663.67 204.39,663.67 204.39,652.90 194.97,652.90" fill="#faffa8" />
  <polygon points="235.93,663.67 245.35,663.67 245.35,652.90 235.93,652.90" fill="#faffa8" />
  <polygon points="194.97,675.37 204.39,675.37 204.39,664.61 194.97,664.61" fill="#faffa8" />
  <polygon points="235.93,675.37 245.35,675.37 245.35,664.61 235.93,664.61" fill="#faffa8" />
  <polygon points="317.85,605.15 327.27,605.15 327.27,594.39 317.85,594.39" fill="#faffa8" />
  <polygon points="328.09,605.15 337.51,605.15 337.51,594.39 328.09,594.39" fill="#faffa8" />
  <polygon points="338.33,605.15 347.75,605.15 347.75,594.39 338.33,594.39" fill="#faffa8" />
  <polygon points="348.57,605.15 357.99,605.15 357.99,594.39 348.57,594.39" fill="#faffa8" />
  <polygon points="358.81,605.15 368.23,605.15 368.23,594.39 358.81,594.39" fill="#faffa8" />
  <polygon points="338.33,616.86 347.75,616.86 347.75,606.09 338.33,606.09" fill="#faffa8" />
  <polygon points="338.33,628.56 347.75,628.56 347.75,617.79 338.33,617.79" fill="#faffa8" />
  <polygon points="338.33,640.26 347.75,640.26 347.75,629.50 338.33,629.50" fill="#faffa8" />
  <polygon points="338.33,651.97 347.75,651.97 347.75,641.20 338.33,641.20" fill="#faffa8" />
  <polygon points="338.33,663.67 347.75,663.67 347.75,652.90 338.33,652.90" fill="#faffa8" />
  <polygon points="317.85,675.37 327.27,675.37 327.27,664.61 317.85,664.61" fill="#faffa8" />
  <polygon points="328.09,675.37 337.51,675.37 337.51,664.61 328.09,664.61" fill="#faffa8" />
  <polygon points="338.33,675.37 347.75,675.37 347.75,664.61 338.33,664.61" fill="#faffa8" />
  <polygon points="348.57,675.37 357.99,675.37 357.99,664.61 348.57,664.61" fill="#faffa8" />
  <polygon points="358.81,675.37 368.23,675.37 368.23,664.61 358.81,664.61" fill="#faffa8" />
  <polygon points="389.53,605.15 398.95,605.15 398.95,594.39 389.53,594.39" fill="#faffa8" />
  <polygon points="399.77,605.15 409.19,605.15 409.19,594.39 399.77,594.39" fill="#faffa8" />
  <polygon points="410.01,605.15 419.43,605.15 419.43,594.39 410.01,594.39" fill="#faffa8" />
  <polygon points="379.29,616.86 388.71,616.86 388.71,606.09 379.29,606.09" fill="#faffa8" />
  <polygon points="420.25,616.86 429.67,616.86 429.67,606.09 420.25,606.09" fill="#faffa8" />
  <polygon points="379.29,628.56 388.71,628.56 388.71,617.79 379.29,617.79" fill="#faffa8" />
  <polygon points="420.25,628.56 429.67,628.56 429.67,617.79 420.25,617.79" fill="#faffa8" />
  <polygon points="379.29,640.26 388.71,640.26 388.71,629.50 379.29,629.50" fill="#faffa8" />
  <polygon points="420.25,640.26 429.67,640.26 429.67,629.50 420.25,629.50" fill="#faffa8" />
  <polygon points="379.29,651.97 388.71,651.97 388.71,641.20 379.29,641.20" fill="#faffa8" />
  <polygon points="420.25,651.97 429.67,651.97 429.67,641.20 420.25,641.20" fill="#faffa8" />
  <polygon points="379.29,663.67 388.71,663.67 388.71,652.90 379.29,652.90" fill="#faffa8" />
  <polygon points="420.25,663.67 429.67,663.67 429.67,652.90 420.25,652.90" fill="#faffa8" />
  <polygon points="389.53,675.37 398.95,675.37 398.95,664.61 389.53,664.61" fill="#faffa8" />
  <polygon points="399.77,675.37 409.19,675.37 409.19,664.61 399.77,664.61" fill="#faffa8" />
  <polygon points="410.01,675.37 419.43,675.37 419.43,664.61 410.01,664.61" fill="#faffa8" />
  <polygon points="440.73,605.15 450.15,605.15 450.15,594.39 440.73,594.39" fill="#faffa8" />
  <polygon points="481.69,605.15 491.11,605.15 491.11,594.39 481.69,594.39" fill="#faffa8" />
  <polygon points="440.73,616.86 450.15,616.86 450.15,606.09 440.73,606.09" fill="#faffa8" />
  <polygon points="450.97,616.86 460.39,616.86 460.39,606.09 450.97,606.09" fill="#faffa8" />
  <polygon points="481.69,616.86 491.11,616.86 491.11,606.09 481.69,606.09" fill="#faffa8" />
  <polygon points="440.73,628.56 450.15,628.56 450.15,617.79 440.73,617.79" fill="#faffa8" />
  <polygon points="461.21,628.56 470.63,628.56 470.63,617.79 461.21,617.79" fill="#faffa8" />
  <polygon points="481.69,628.56 491.11,628.56 491.11,617.79 481.69,617.79" fill="#faffa8" />
  <polygon points="440.73,640.26 450.15,640.26 450.15,629.50 440.73,629.50" fill="#faffa8" />
  <polygon points="471.45,640.26 480.87,640.26 480.87,629.50 471.45,629.50" fill="#faffa8" />
  <polygon points="481.69,640.26 491.11,640.26 491.11,629.50 481.69,629.50" fill="#faffa8" />
  <polygon points="440.73,651.97 450.15,651.97 450.15,641.20 440.73,641.20" fill="#faffa8" />
  <polygon points="481.69,651.97 491.11,651.97 491.11,641.20 481.69,641.20" fill="#faffa8" />
  <polygon points="440.73,663.67 450.15,663.67 450.15,652.90 440.73,652.90" fill="#faffa8" />
  <polygon points="481.69,663.67 491.11,663.67 491.11,652.90 481.69,652.90" fill="#faffa8" />
  <polygon points="440.73,675.37 450.15,675.37 450.15,664.61 440.73,664.61" fill="#faffa8" />
  <polygon points="481.69,675.37 491.11,675.37 491.11,664.61 481.69,664.61" fill="#faffa8" />
  <polygon points="502.17,605.15 511.59,605.15 511.59,594.39 502.17,594.39" fill="#faffa8" />
  <polygon points="512.41,605.15 521.83,605.15 521.83,594.39 512.41,594.39" fill="#faffa8" />
  <polygon points="522.65,605.15 532.07,605.15 532.07,594.39 522.65,594.39" fill="#faffa8" />
  <polygon points="532.89,605.15 542.31,605.15 542.31,594.39 532.89,594.39" fill="#faffa8" />
  <polygon points="543.13,605.15 552.55,605.15 552.55,594.39 543.13,594.39" fill="#faffa8" />
  <polygon points="502.17,616.86 511.59,616.86 511.59,606.09 502.17,606.09" fill="#faffa8" />
  <polygon points="502.17,628.56 511.59,628.56 511.59,617.79 502.17,617.79" fill="#faffa8" />
  <polygon points="502.17,640.26 511.59,640.26 511.59,629.50 502.17,629.50" fill="#faffa8" />
  <polygon points="512.41,640.26 521.83,640.26 521.83,629.50 512.41,629.50" fill="#faffa8" />
  <polygon points="522.65,640.26 532.07,640.26 532.07,629.50 522.65,629.50" fill="#faffa8" />
  <polygon points="532.89,640.26 542.31,640.26 542.31,629.50 532.89,629.50" fill="#faffa8" />
  <polygon points="502.17,651.97 511.59,651.97 511.59,641.20 502.17,641.20" fill="#faffa8" />
  <polygon points="502.17,663.67 511.59,663.67 511.59,652.90 502.17,652.90" fill="#faffa8" />
  <polygon points="502.17,675.37 511.59,675.37 511.59,664.61 502.17,664.61" fill="#faffa8" />
  <polygon points="512.41,675.37 521.83,675.37 521.83,664.61 512.41,664.61" fill="#faffa8" />
  <polygon points="522.65,675.37 532.07,675.37 532.07,664.61 522.65,664.61" fill="#faffa8" />
  <polygon points="532.89,675.37 542.31,675.37 542.31,664.61 532.89,664.61" fill="#faffa8" />
  <polygon points="543.13,675.37 552.55,675.37 552.55,664.61 543.13,664.61" fill="#faffa8" />
  <polygon points="614.80,605.15 623.89,605.15 623.89,594.39 614.80,594.39" fill="#faffa8" />
  <polygon points="624.68,605.15 633.78,605.15 633.78,594.39 624.68,594.39" fill="#faffa8" />
  <polygon points="634.57,605.15 643.67,605.15 643.67,594.39 634.57,594.39" fill="#faffa8" />
  <polygon points="644.46,605.15 653.55,605.15 653.55,594.39 644.46,594.39" fill="#faffa8" />
  <polygon points="614.80,616.86 623.89,616.86 623.89,606.09 614.80,606.09" fill="#faffa8" />
  <polygon points="654.34,616.86 663.44,616.86 663.44,606.09 654.34,606.09" fill="#faffa8" />
  <polygon points="614.80,628.56 623.89,628.56 623.89,617.79 614.80,617.79" fill="#faffa8" />
  <polygon points="654.34,628.56 663.44,628.56 663.44,617.79 654.34,617.79" fill="#faffa8" />
  <polygon points="614.80,640.26 623.89,640.26 623.89,629.50 614.80,629.50" fill="#faffa8" />
  <polygon points="624.68,640.26 633.78,640.26 633.78,629.50 624.68,629.50" fill="#faffa8" />
  <polygon points="634.57,640.26 643.67,640.26 643.67,629.50 634.57,629.50" fill="#faffa8" />
  <polygon points="644.46,640.26 653.55,640.26 653.55,629.50 644.46,629.50" fill="#faffa8" />
  <polygon points="614.80,651.97 623.89,651.97 623.89,641.20 614.80,641.20" fill="#faffa8" />
  <polygon points="614.80,663.67 623.89,663.67 623.89,652.90 614.80,652.90" fill="#faffa8" />
  <polygon points="614.80,675.37 623.89,675.37 623.89,664.61 614.80,664.61" fill="#faffa8" />
  <polygon points="684.00,605.15 693.10,605.15 693.10,594.39 684.00,594.39" fill="#faffa8" />
  <polygon points="693.89,605.15 702.99,605.15 702.99,594.39 693.89,594.39" fill="#faffa8" />
  <polygon points="703.78,605.15 712.87,605.15 712.87,594.39 703.78,594.39" fill="#faffa8" />
  <polygon points="674.12,616.86 683.21,616.86 683.21,606.09 674.12,606.09" fill="#faffa8" />
  <polygon points="713.66,616.86 722.76,616.86 722.76,606.09 713.66,606.09" fill="#faffa8" />
  <polygon points="674.12,628.56 683.21,628.56 683.21,617.79 674.12,617.79" fill="#faffa8" />
  <polygon points="713.66,628.56 722.76,628.56 722.76,617.79 713.66,617.79" fill="#faffa8" />
  <polygon points="674.12,640.26 683.21,640.26 683.21,629.50 674.12,629.50" fill="#faffa8" />
  <polygon points="713.66,640.26 722.76,640.26 722.76,629.50 713.66,629.50" fill="#faffa8" />
  <polygon points="674.12,651.97 683.21,651.97 683.21,641.20 674.12,641.20" fill="#faffa8" />
  <polygon points="713.66,651.97 722.76,651.97 722.76,641.20 713.66,641.20" fill="#faffa8" />
  <polygon points="674.12,663.67 683.21,663.67 683.21,652.90 674.12,652.90" fill="#faffa8" />
  <polygon points="713.66,663.67 722.76,663.67 722.76,652.90 713.66,652.90" fill="#faffa8" />
  <polygon points="684.00,675.37 693.10,675.37 693.10,664.61 684.00,664.61" fill="#faffa8" />
  <polygon points="693.89,675.37 702.99,675.37 702.99,664.61 693.89,664.61" fill="#faffa8" />
  <polygon points="703.78,675.37 712.87,675.37 712.87,664.61 703.78,664.61" fill="#faffa8" />
  <polygon points="733.44,605.15 742.53,605.15 742.53,594.39 733.44,594.39" fill="#faffa8" />
  <polygon points="743.33,605.15 752.42,605.15 752.42,594.39 743.33,594.39" fill="#faffa8" />
  <polygon points="753.21,605.15 762.31,605.15 762.31,594.39 753.21,594.39" fill="#faffa8" />
  <polygon points="763.10,605.15 772.19,605.15 772.19,594.39 763.10,594.39" fill="#faffa8" />
  <polygon points="733.44,616.86 742.53,616.86 742.53,606.09 733.44,606.09" fill="#faffa8" />
  <polygon points="772.99,616.86 782.08,616.86 782.08,606.09 772.99,606.09" fill="#faffa8" />
  <polygon points="733.44,628.56 742.53,628.56 742.53,617.79 733.44,617.79" fill="#faffa8" />
  <polygon points="772.99,628.56 782.08,628.56 782.08,617.79 772.99,617.79" fill="#faffa8" />
  <polygon points="733.44,640.26 742.53,640.26 742.53,629.50 733.44,629.50" fill="#faffa8" />
  <polygon points="743.33,640.26 752.42,640.26 752.42,629.50 743.33,629.50" fill="#faffa8" />
  <polygon points="753.21,640.26 762.31,640.26 762.31,629.50 753.21,629.50" fill="#faffa8" />
  <polygon points="763.10,640.26 772.19,640.26 772.19,629.50 763.10,629.50" fill="#faffa8" />
  <polygon points="733.44,651.97 742.53,651.97 742.53,641.20 733.44,641.20" fill="#faffa8" />
  <polygon points="753.21,651.97 762.31,651.97 762.31,641.20 753.21,641.20" fill="#faffa8" />
  <polygon points="733.44,663.67 742.53,663.67 742.53,652.90 733.44,652.90" fill="#faffa8" />
  <polygon points="763.10,663.67 772.19,663.67 772.19,652.90 763.10,652.90" fill="#faffa8" />
  <polygon points="733.44,675.37 742.53,675.37 742.53,664.61 733.44,664.61" fill="#faffa8" />
  <polygon points="772.99,675.37 782.08,675.37 782.08,664.61 772.99,664.61" fill="#faffa8" />
  <polygon points="792.76,605.15 801.86,605.15 801.86,594.39 792.76,594.39" fill="#faffa8" />
  <polygon points="802.65,605.15 811.74,605.15 811.74,594.39 802.65,594.39" fill="#faffa8" />
  <polygon points="812.53,605.15 821.63,605.15 821.63,594.39 812.53,594.39" fill="#faffa8" />
  <polygon points="822.42,605.15 831.52,605.15 831.52,594.39 822.42,594.39" fill="#faffa8" />
  <polygon points="832.31,605.15 841.40,605.15 841.40,594.39 832.31,594.39" fill="#faffa8" />
  <polygon points="812.53,616.86 821.63,616.86 821.63,606.09 812.53,606.09" fill="#faffa8" />
  <polygon points="812.53,628.56 821.63,628.56 821.63,617.79 812.53,617.79" fill="#faffa8" />
  <polygon points="812.53,640.26 821.63,640.26 821.63,629.50 812.53,629.50" fill="#faffa8" />
  <polygon points="812.53,651.97 821.63,651.97 821.63,641.20 812.53,641.20" fill="#faffa8" />
  <polygon points="812.53,663.67 821.63,663.67 821.63,652.90 812.53,652.90" fill="#faffa8" />
  <polygon points="812.53,675.37 821.63,675.37 821.63,664.61 812.53,664.61" fill="#faffa8" />
  <polygon points="861.97,605.15 871.06,605.15 871.06,594.39 861.97,594.39" fill="#faffa8" />
  <polygon points="871.85,605.15 880.95,605.15 880.95,594.39 871.85,594.39" fill="#faffa8" />
  <polygon points="881.74,605.15 890.84,605.15 890.84,594.39 881.74,594.39" fill="#faffa8" />
  <polygon points="852.08,616.86 861.18,616.86 861.18,606.09 852.08,606.09" fill="#faffa8" />
  <polygon points="891.63,616.86 900.72,616.86 900.72,606.09 891.63,606.09" fill="#faffa8" />
  <polygon points="852.08,628.56 861.18,628.56 861.18,617.79 852.08,617.79" fill="#faffa8" />
  <polygon points="891.63,628.56 900.72,628.56 900.72,617.79 891.63,617.79" fill="#faffa8" />
  <polygon points="852.08,640.26 861.18,640.26 861.18,629.50 852.08,629.50" fill="#faffa8" />
  <polygon points="891.63,640.26 900.72,640.26 900.72,629.50 891.63,629.50" fill="#faffa8" />
  <polygon points="852.08,651.97 861.18,651.97 861.18,641.20 852.08,641.20" fill="#faffa8" />
  <polygon points="891.63,651.97 900.72,651.97 900.72,641.20 891.63,641.20" fill="#faffa8" />
  <polygon points="852.08,663.67 861.18,663.67 861.18,652.90 852.08,652.90" fill="#faffa8" />
  <polygon points="891.63,663.67 900.72,663.67 900.72,652.90 891.63,652.90" fill="#faffa8" />
  <polygon points="861.97,675.37 871.06,675.37 871.06,664.61 861.97,664.61" fill="#faffa8" />
  <polygon points="871.85,675.37 880.95,675.37 880.95,664.61 871.85,664.61" fill="#faffa8" />
  <polygon points="881.74,675.37 890.84,675.37 890.84,664.61 881.74,664.61" fill="#faffa8" />
  <polygon points="261.12,491.52 261.12,378.88 312.32,378.88 312.32,491.52" fill="#faffa8" />
  <polygon points="286.72,276.48 215.04,378.88 358.40,378.88" fill="#faffa8" />
  <polygon points="711.68,491.52 711.68,378.88 762.88,378.88 762.88,491.52" fill="#faffa8" />
  <polygon points="737.28,276.48 665.60,378.88 808.96,378.88" fill="#faffa8" />
</svg>
