<svg xmlns="http://www.w3.org/2000/svg" viewBox="0 0 1024 1024">
  <polygon points="192.92,993.28 831.08,993.28 931.84,608.26 814.28,242.48 512.00,30.72 209.72,242.48 92.16,608.26" fill="#f9ffa8" />
  <polygon points="239.62,931.84 784.38,931.84 870.40,608.26 770.05,242.48 512.00,92.16 253.95,242.48 153.60,608.26" fill="#faffa8" />
  <polygon points="400.18,666.59 419.02,666.59 419.02,655.83 400.18,655.83" fill="#f9ffa8" />
  <polygon points="482.10,666.59 500.94,666.59 500.94,655.83 482.10,655.83" fill="#f9ffa8" />
  <polygon points="400.18,678.30 419.02,678.30 419.02,667.53 400.18,667.53" fill="#f9ffa8" />
  <polygon points="482.10,678.30 500.94,678.30 500.94,667.53 482.10,667.53" fill="#f9ffa8" />
  <polygon points="400.18,690.00 419.02,690.00 419.02,679.23 400.18,679.23" fill="#f9ffa8" />
  <polygon points="482.10,690.00 500.94,690.00 500.94,679.23 482.10,679.23" fill="#f9ffa8" />
  <polygon points="400.18,701.70 419.02,701.70 419.02,690.94 400.18,690.94" fill="#f9ffa8" />
  <polygon points="482.10,701.70 500.94,701.70 500.94,690.94 482.10,690.94" fill="#f9ffa8" />
  <polygon points="400.18,713.41 419.02,713.41 419.02,702.64 400.18,702.64" fill="#f9ffa8" />
  <polygon points="482.10,713.41 500.94,713.41 500.94,702.64 482.10,702.64" fill="#f9ffa8" />
  <polygon points="400.18,725.11 419.02,725.11 419.02,714.34 400.18,714.34" fill="#f9ffa8" />
  <polygon points="482.10,725.11 500.94,725.11 500.94,714.34 482.10,714.34" fill="#f9ffa8" />
  <polygon points="420.66,736.81 439.50,736.81 439.50,726.05 420.66,726.05" fill="#f9ffa8" />
  <polygon points="441.14,736.81 459.98,736.81 459.98,726.05 441.14,726.05" fill="#f9ffa8" />
  <polygon points="461.62,736.81 480.46,736.81 480.46,726.05 461.62,726.05" fill="#f9ffa8" />
  <polygon points="543.54,666.59 562.38,666.59 562.38,655.83 543.54,655.83" fill="#f9ffa8" />
  <polygon points="564.02,666.59 582.86,666.59 582.86,655.83 564.02,655.83" fill="#f9ffa8" />
  <polygon points="584.50,666.59 603.34,666.59 603.34,655.83 584.50,655.83" fill="#f9ffa8" />
  <polygon points="604.98,666.59 623.82,666.59 623.82,655.83 604.98,655.83" fill="#f9ffa8" />
  <polygon points="523.06,678.30 541.90,678.30 541.90,667.53 523.06,667.53" fill="#f9ffa8" />
  <polygon points="523.06,690.00 541.90,690.00 541.90,679.23 523.06,679.23" fill="#f9ffa8" />
  <polygon points="543.54,701.70 562.38,701.70 562.38,690.94 543.54,690.94" fill="#f9ffa8" />
  <polygon points="564.02,701.70 582.86,701.70 582.86,690.94 564.02,690.94" fill="#f9ffa8" />
  <polygon points="584.50,701.70 603.34,701.70 603.34,690.94 584.50,690.94" fill="#f9ffa8" />
  <polygon points="604.98,713.41 623.82,713.41 623.82,702.64 604.98,702.64" fill="#f9ffa8" />
  <polygon points="604.98,725.11 623.82,725.11 623.82,714.34 604.98,714.34" fill="#f9ffa8" />
  <polygon points="523.06,736.81 541.90,736.81 541.90,726.05 523.06,726.05" fill="#f9ffa8" />
  <polygon points="543.54,736.81 562.38,736.81 562.38,726.05 543.54,726.05" fill="#f9ffa8" />
  <polygon points="564.02,736.81 582.86,736.81 582.86,726.05 564.02,726.05" fill="#f9ffa8" />
  <polygon points="584.50,736.81 603.34,736.81 603.34,726.05 584.50,726.05" fill="#f9ffa8" />
  <polygon points="421.81,329.67 445.79,329.67 445.79,308.14 421.81,308.14" fill="#f9ffa8" />
  <polygon points="447.88,329.67 471.86,329.67 471.86,308.14 447.88,308.14" fill="#f9ffa8" />
  <polygon points="395.75,353.08 419.73,353.08 419.73,331.54 395.75,331.54" fill="#f9ffa8" />
  <polygon points="369.68,376.48 393.66,376.48 393.66,354.95 369.68,354.95" fill="#f9ffa8" />
  <polygon points="369.68,399.89 393.66,399.89 393.66,378.35 369.68,378.35" fill="#f9ffa8" />
  <polygon points="395.75,399.89 419.73,399.89 419.73,378.35 395.75,378.35" fill="#f9ffa8" />
  <polygon points="421.81,399.89 445.79,399.89 445.79,378.35 421.81,378.35" fill="#f9ffa8" />
  <polygon points="447.88,399.89 471.86,399.89 471.86,378.35 447.88,378.35" fill="#f9ffa8" />
  <polygon points="369.68,423.29 393.66,423.29 393.66,401.76 369.68,401.76" fill="#f9ffa8" />
  <polygon points="473.94,423.29 497.92,423.29 497.92,401.76 473.94,401.76" fill="#f9ffa8" />
  <polygon points="369.68,446.70 393.66,446.70 393.66,425.16 369.68,425.16" fill="#f9ffa8" />
  <polygon points="473.94,446.70 497.92,446.70 497.92,425.16 473.94,425.16" fill="#f9ffa8" />
  <polygon points="395.75,470.10 419.73,470.10 419.73,448.57 395.75,448.57" fill="#f9ffa8" />
  <polygon points="421.81,470.10 445.79,470.10 445.79,448.57 421.81,448.57" fill="#f9ffa8" />
  <polygon points="447.88,470.10 471.86,470.10 471.86,448.57 447.88,448.57" fill="#f9ffa8" />
  <polygon points="578.21,329.67 602.19,329.67 602.19,308.14 578.21,308.14" fill="#f9ffa8" />
  <polygon points="604.27,329.67 628.25,329.67 628.25,308.14 604.27,308.14" fill="#f9ffa8" />
  <polygon points="552.14,353.08 576.12,353.08 576.12,331.54 552.14,331.54" fill="#f9ffa8" />
  <polygon points="526.08,376.48 550.06,376.48 550.06,354.95 526.08,354.95" fill="#f9ffa8" />
  <polygon points="526.08,399.89 550.06,399.89 550.06,378.35 526.08,378.35" fill="#f9ffa8" />
  <polygon points="552.14,399.89 576.12,399.89 576.12,378.35 552.14,378.35" fill="#f9ffa8" />
  <polygon points="578.21,399.89 602.19,399.89 602.19,378.35 578.21,378.35" fill="#f9ffa8" />
  <polygon points="604.27,399.89 628.25,399.89 628.25,378.35 604.27,378.35" fill="#f9ffa8" />
  <polygon points="526.08,423.29 550.06,423.29 550.06,401.76 526.08,401.76" fill="#f9ffa8" />
  <polygon points="630.34,423.29 654.32,423.29 654.32,401.76 630.34,401.76" fill="#f9ffa8" />
  <polygon points="526.08,446.70 550.06,446.70 550.06,425.16 526.08,425.16" fill="#f9ffa8" />
  <polygon points="630.34,446.70 654.32,446.70 654.32,425.16 630.34,425.16" fill="#f9ffa8" />
  <polygon points="552.14,470.10 576.12,470.10 576.12,448.57 552.14,448.57" fill="#f9ffa8" />
  <polygon points="578.21,470.10 602.19,470.10 602.19,448.57 578.21,448.57" fill="#f9ffa8" />
  <polygon points="604.27,470.10 628.25,470.10 628.25,448.57 604.27,448.57" fill="#f9ffa8" />
</svg>
