<svg xmlns="http://www.w3.org/2000/svg" viewBox="0 0 1024 1024">
  <polygon points="-20.48,911.36 1044.48,911.36 1044.48,112.64 -20.48,112.64" fill="#faffa8" />
  <polygon points="20.48,870.40 1003.52,870.40 1003.52,153.60 20.48,153.60" fill="#bdff58" />
  <polygon points="81.92,496.64 942.08,496.64 942.08,527.36 81.92,527.36" fill="#faffa8" />
  <polygon points="246.23,666.59 256.99,666.59 256.99,655.83 246.23,655.83" fill="#faffa8" />
  <polygon points="257.93,666.59 268.70,666.59 268.70,655.83 257.93,655.83" fill="#faffa8" />
  <polygon points="269.63,666.59 280.40,666.59 280.40,655.83 269.63,655.83" fill="#faffa8" />
  <polygon points="281.34,666.59 292.10,666.59 292.10,655.83 281.34,655.83" fill="#faffa8" />
  <polygon points="246.23,678.30 256.99,678.30 256.99,667.53 246.23,667.53" fill="#faffa8" />
  <polygon points="293.04,678.30 303.81,678.30 303.81,667.53 293.04,667.53" fill="#faffa8" />
  <polygon points="246.23,690.00 256.99,690.00 256.99,679.23 246.23,679.23" fill="#faffa8" />
  <polygon points="293.04,690.00 303.81,690.00 303.81,679.23 293.04,679.23" fill="#faffa8" />
  <polygon points="246.23,701.70 256.99,701.70 256.99,690.94 246.23,690.94" fill="#faffa8" />
  <polygon points="257.93,701.70 268.70,701.70 268.70,690.94 257.93,690.94" fill="#faffa8" />
  <polygon points="269.63,701.70 280.40,701.70 280.40,690.94 269.63,690.94" fill="#faffa8" />
  <polygon points="281.34,701.70 292.10,701.70 292.10,690.94 281.34,690.94" fill="#faffa8" />
  <polygon points="246.23,713.41 256.99,713.41 256.99,702.64 246.23,702.64" fill="#faffa8" />
  <polygon points="246.23,725.11 256.99,725.11 256.99,714.34 246.23,714.34" fill="#faffa8" />
  <polygon points="246.23,736.81 256.99,736.81 256.99,726.05 246.23,726.05" fill="#faffa8" />
  <polygon points="316.45,666.59 327.21,666.59 327.21,655.83 316.45,655.83" fill="#faffa8" />
  <polygon points="316.45,678.30 327.21,678.30 327.21,667.53 316.45,667.53" fill="#faffa8" />
  <polygon points="316.45,690.00 327.21,690.00 327.21,679.23 316.45,679.23" fill="#faffa8" />
  <polygon points="316.45,701.70 327.21,701.70 327.21,690.94 316.45,690.94" fill="#faffa8" />
  <polygon points="316.45,713.41 327.21,713.41 327.21,702.64 316.45,702.64" fill="#faffa8" />
  <polygon points="316.45,725.11 327.21,725.11 327.21,714.34 316.45,714.34" fill="#faffa8" />
  <polygon points="316.45,736.81 327.21,736.81 327.21,726.05 316.45,726.05" fill="#faffa8" />
  <polygon points="328.15,736.81 338.91,736.81 338.91,726.05 328.15,726.05" fill="#faffa8" />
  <polygon points="339.85,736.81 350.62,736.81 350.62,726.05 339.85,726.05" fill="#faffa8" />
  <polygon points="351.55,736.81 362.32,736.81 362.32,726.05 351.55,726.05" fill="#faffa8" />
  <polygon points="363.26,736.81 374.02,736.81 374.02,726.05 363.26,726.05" fill="#faffa8" />
  <polygon points="410.07,666.59 420.83,666.59 420.83,655.83 410.07,655.83" fill="#faffa8" />
  <polygon points="398.37,678.30 409.13,678.30 409.13,667.53 398.37,667.53" fill="#faffa8" />
  <polygon points="421.77,678.30 432.54,678.30 432.54,667.53 421.77,667.53" fill="#faffa8" />
  <polygon points="386.66,690.00 397.43,690.00 397.43,679.23 386.66,679.23" fill="#faffa8" />
  <polygon points="433.47,690.00 444.24,690.00 444.24,679.23 433.47,679.23" fill="#faffa8" />
  <polygon points="386.66,701.70 397.43,701.70 397.43,690.94 386.66,690.94" fill="#faffa8" />
  <polygon points="433.47,701.70 444.24,701.70 444.24,690.94 433.47,690.94" fill="#faffa8" />
  <polygon points="386.66,713.41 397.43,713.41 397.43,702.64 386.66,702.64" fill="#faffa8" />
  <polygon points="398.37,713.41 409.13,713.41 409.13,702.64 398.37,702.64" fill="#faffa8" />
  <polygon points="410.07,713.41 420.83,713.41 420.83,702.64 410.07,702.64" fill="#faffa8" />
  <polygon points="421.77,713.41 432.54,713.41 432.54,702.64 421.77,702.64" fill="#faffa8" />
  <polygon points="433.47,713.41 444.24,713.41 444.24,702.64 433.47,702.64" fill="#faffa8" />
  <polygon points="386.66,725.11 397.43,725.11 397.43,714.34 386.66,714.34" fill="#faffa8" />
  <polygon points="433.47,725.11 444.24,725.11 444.24,714.34 433.47,714.34" fill="#faffa8" />
  <polygon points="386.66,736.81 397.43,736.81 397.43,726.05 386.66,726.05" fill="#faffa8" />
  <polygon points="433.47,736.81 444.24,736.81 444.24,726.05 433.47,726.05" fill="#faffa8" />
  <polygon points="456.88,666.59 467.65,666.59 467.65,655.83 456.88,655.83" fill="#faffa8" />
  <polygon points="468.58,666.59 479.35,666.59 479.35,655.83 468.58,655.83" fill="#faffa8" />
  <polygon points="480.29,666.59 491.05,666.59 491.05,655.83 480.29,655.83" fill="#faffa8" />
  <polygon points="491.99,666.59 502.75,666.59 502.75,655.83 491.99,655.83" fill="#faffa8" />
  <polygon points="503.69,666.59 514.46,666.59 514.46,655.83 503.69,655.83" fill="#faffa8" />
  <polygon points="480.29,678.30 491.05,678.30 491.05,667.53 480.29,667.53" fill="#faffa8" />
  <polygon points="480.29,690.00 491.05,690.00 491.05,679.23 480.29,679.23" fill="#faffa8" />
  <polygon points="480.29,701.70 491.05,701.70 491.05,690.94 480.29,690.94" fill="#faffa8" />
  <polygon points="480.29,713.41 491.05,713.41 491.05,702.64 480.29,702.64" fill="#faffa8" />
  <polygon points="480.29,725.11 491.05,725.11 491.05,714.34 480.29,714.34" fill="#faffa8" />
  <polygon points="480.29,736.81 491.05,736.81 491.05,726.05 480.29,726.05" fill="#faffa8" />
  <polygon points="609.02,666.59 619.78,666.59 619.78,655.83 609.02,655.83" fill="#faffa8" />
  <polygon points="620.72,666.59 631.49,666.59 631.49,655.83 620.72,655.83" fill="#faffa8" />
  <polygon points="632.42,666.59 643.19,666.59 643.19,655.83 632.42,655.83" fill="#faffa8" />
  <polygon points="597.31,678.30 608.08,678.30 608.08,667.53 597.31,667.53" fill="#faffa8" />
  <polygon points="644.13,678.30 654.89,678.30 654.89,667.53 644.13,667.53" fill="#faffa8" />
  <polygon points="597.31,690.00 608.08,690.00 608.08,679.23 597.31,679.23" fill="#faffa8" />
  <polygon points="644.13,690.00 654.89,690.00 654.89,679.23 644.13,679.23" fill="#faffa8" />
  <polygon points="597.31,701.70 608.08,701.70 608.08,690.94 597.31,690.94" fill="#faffa8" />
  <polygon points="644.13,701.70 654.89,701.70 654.89,690.94 644.13,690.94" fill="#faffa8" />
  <polygon points="597.31,713.41 608.08,713.41 608.08,702.64 597.31,702.64" fill="#faffa8" />
  <polygon points="644.13,713.41 654.89,713.41 654.89,702.64 644.13,702.64" fill="#faffa8" />
  <polygon points="597.31,725.11 608.08,725.11 608.08,714.34 597.31,714.34" fill="#faffa8" />
  <polygon points="644.13,725.11 654.89,725.11 654.89,714.34 644.13,714.34" fill="#faffa8" />
  <polygon points="609.02,736.81 619.78,736.81 619.78,726.05 609.02,726.05" fill="#faffa8" />
  <polygon points="620.72,736.81 631.49,736.81 631.49,726.05 620.72,726.05" fill="#faffa8" />
  <polygon points="632.42,736.81 643.19,736.81 643.19,726.05 632.42,726.05" fill="#faffa8" />
  <polygon points="667.53,666.59 678.30,666.59 678.30,655.83 667.53,655.83" fill="#faffa8" />
  <polygon points="679.23,666.59 690.00,666.59 690.00,655.83 679.23,655.83" fill="#faffa8" />
  <polygon points="690.94,666.59 701.70,666.59 701.70,655.83 690.94,655.83" fill="#faffa8" />
  <polygon points="702.64,666.59 713.41,666.59 713.41,655.83 702.64,655.83" fill="#faffa8" />
  <polygon points="667.53,678.30 678.30,678.30 678.30,667.53 667.53,667.53" fill="#faffa8" />
  <polygon points="714.34,678.30 725.11,678.30 725.11,667.53 714.34,667.53" fill="#faffa8" />
  <polygon points="667.53,690.00 678.30,690.00 678.30,679.23 667.53,679.23" fill="#faffa8" />
  <polygon points="714.34,690.00 725.11,690.00 725.11,679.23 714.34,679.23" fill="#faffa8" />
  <polygon points="667.53,701.70 678.30,701.70 678.30,690.94 667.53,690.94" fill="#faffa8" />
  <polygon points="679.23,701.70 690.00,701.70 690.00,690.94 679.23,690.94" fill="#faffa8" />
  <polygon points="690.94,701.70 701.70,701.70 701.70,690.94 690.94,690.94" fill="#faffa8" />
  <polygon points="702.64,701.70 713.41,701.70 713.41,690.94 702.64,690.94" fill="#faffa8" />
  <polygon points="667.53,713.41 678.30,713.41 678.30,702.64 667.53,702.64" fill="#faffa8" />
  <polygon points="690.94,713.41 701.70,713.41 701.70,702.64 690.94,702.64" fill="#faffa8" />
  <polygon points="667.53,725.11 678.30,725.11 678.30,714.34 667.53,714.34" fill="#faffa8" />
  <polygon points="702.64,725.11 713.41,725.11 713.41,714.34 702.64,714.34" fill="#faffa8" />
  <polygon points="667.53,736.81 678.30,736.81 678.30,726.05 667.53,726.05" fill="#faffa8" />
  <polygon points="714.34,736.81 725.11,736.81 725.11,726.05 714.34,726.05" fill="#faffa8" />
  <polygon points="737.75,666.59 748.51,666.59 748.51,655.83 737.75,655.83" fill="#faffa8" />
  <polygon points="784.56,666.59 795.33,666.59 795.33,655.83 784.56,655.83" fill="#faffa8" />
  <polygon points="737.75,678.30 748.51,678.30 748.51,667.53 737.75,667.53" fill="#faffa8" />
  <polygon points="749.45,678.30 760.22,678.30 760.22,667.53 749.45,667.53" fill="#faffa8" />
  <polygon points="772.86,678.30 783.62,678.30 783.62,667.53 772.86,667.53" fill="#faffa8" />
  <polygon points="784.56,678.30 795.33,678.30 795.33,667.53 784.56,667.53" fill="#faffa8" />
  <polygon points="737.75,690.00 748.51,690.00 748.51,679.23 737.75,679.23" fill="#faffa8" />
  <polygon points="761.15,690.00 771.92,690.00 771.92,679.23 761.15,679.23" fill="#faffa8" />
  <polygon points="784.56,690.00 795.33,690.00 795.33,679.23 784.56,679.23" fill="#faffa8" />
  <polygon points="737.75,701.70 748.51,701.70 748.51,690.94 737.75,690.94" fill="#faffa8" />
  <polygon points="761.15,701.70 771.92,701.70 771.92,690.94 761.15,690.94" fill="#faffa8" />
  <polygon points="784.56,701.70 795.33,701.70 795.33,690.94 784.56,690.94" fill="#faffa8" />
  <polygon points="737.75,713.41 748.51,713.41 748.51,702.64 737.75,702.64" fill="#faffa8" />
  <polygon points="784.56,713.41 795.33,713.41 795.33,702.64 784.56,702.64" fill="#faffa8" />
  <polygon points="737.75,725.11 748.51,725.11 748.51,714.34 737.75,714.34" fill="#faffa8" />
  <polygon points="784.56,725.11 795.33,725.11 795.33,714.34 784.56,714.34" fill="#faffa8" />
  <polygon points="737.75,736.81 748.51,736.81 748.51,726.05 737.75,726.05" fill="#faffa8" />
  <polygon points="784.56,736.81 795.33,736.81 795.33,726.05 784.56,726.05" fill="#faffa8" />
  <polygon points="297.58,294.24 311.90,294.24 311.90,282.13 297.58,282.13" fill="#faffa8" />
  <polygon points="313.15,294.24 327.47,294.24 327.47,282.13 313.15,282.13" fill="#faffa8" />
  <polygon points="328.71,294.24 343.03,294.24 343.03,282.13 328.71,282.13" fill="#faffa8" />
  <polygon points="344.28,294.24 358.60,294.24 358.60,282.13 344.28,282.13" fill="#faffa8" />
  <polygon points="297.58,307.40 311.90,307.40 311.90,295.29 297.58,295.29" fill="#faffa8" />
  <polygon points="359.84,307.40 374.16,307.40 374.16,295.29 359.84,295.29" fill="#faffa8" />
  <polygon points="297.58,320.57 311.90,320.57 311.90,308.46 297.58,308.46" fill="#faffa8" />
  <polygon points="359.84,320.57 374.16,320.57 374.16,308.46 359.84,308.46" fill="#faffa8" />
  <polygon points="297.58,333.74 311.90,333.74 311.90,321.62 297.58,321.62" fill="#faffa8" />
  <polygon points="313.15,333.74 327.47,333.74 327.47,321.62 313.15,321.62" fill="#faffa8" />
  <polygon points="328.71,333.74 343.03,333.74 343.03,321.62 328.71,321.62" fill="#faffa8" />
  <polygon points="344.28,333.74 358.60,333.74 358.60,321.62 344.28,321.62" fill="#faffa8" />
  <polygon points="297.58,346.90 311.90,346.90 311.90,334.79 297.58,334.79" fill="#faffa8" />
  <polygon points="328.71,346.90 343.03,346.90 343.03,334.79 328.71,334.79" fill="#faffa8" />
  <polygon points="297.58,360.07 311.90,360.07 311.90,347.96 297.58,347.96" fill="#faffa8" />
  <polygon points="344.28,360.07 358.60,360.07 358.60,347.96 344.28,347.96" fill="#faffa8" />
  <polygon points="297.58,373.23 311.90,373.23 311.90,361.12 297.58,361.12" fill="#faffa8" />
  <polygon points="359.84,373.23 374.16,373.23 374.16,361.12 359.84,361.12" fill="#faffa8" />
  <polygon points="390.97,294.24 405.29,294.24 405.29,282.13 390.97,282.13" fill="#faffa8" />
  <polygon points="406.54,294.24 420.86,294.24 420.86,282.13 406.54,282.13" fill="#faffa8" />
  <polygon points="422.10,294.24 436.42,294.24 436.42,282.13 422.10,282.13" fill="#faffa8" />
  <polygon points="437.67,294.24 451.99,294.24 451.99,282.13 437.67,282.13" fill="#faffa8" />
  <polygon points="453.23,294.24 467.55,294.24 467.55,282.13 453.23,282.13" fill="#faffa8" />
  <polygon points="390.97,307.40 405.29,307.40 405.29,295.29 390.97,295.29" fill="#faffa8" />
  <polygon points="390.97,320.57 405.29,320.57 405.29,308.46 390.97,308.46" fill="#faffa8" />
  <polygon points="390.97,333.74 405.29,333.74 405.29,321.62 390.97,321.62" fill="#faffa8" />
  <polygon points="406.54,333.74 420.86,333.74 420.86,321.62 406.54,321.62" fill="#faffa8" />
  <polygon points="422.10,333.74 436.42,333.74 436.42,321.62 422.10,321.62" fill="#faffa8" />
  <polygon points="437.67,333.74 451.99,333.74 451.99,321.62 437.67,321.62" fill="#faffa8" />
  <polygon points="390.97,346.90 405.29,346.90 405.29,334.79 390.97,334.79" fill="#faffa8" />
  <polygon points="390.97,360.07 405.29,360.07 405.29,347.96 390.97,347.96" fill="#faffa8" />
  <polygon points="390.97,373.23 405.29,373.23 405.29,361.12 390.97,361.12" fill="#faffa8" />
  <polygon points="406.54,373.23 420.86,373.23 420.86,361.12 406.54,361.12" fill="#faffa8" />
  <polygon points="422.10,373.23 436.42,373.23 436.42,361.12 422.10,361.12" fill="#faffa8" />
  <polygon points="437.67,373.23 451.99,373.23 451.99,361.12 437.67,361.12" fill="#faffa8" />
  <polygon points="453.23,373.23 467.55,373.23 467.55,361.12 453.23,361.12" fill="#faffa8" />
  <polygon points="577.75,294.24 592.07,294.24 592.07,282.13 577.75,282.13" fill="#faffa8" />
  <polygon points="640.01,294.24 654.33,294.24 654.33,282.13 640.01,282.13" fill="#faffa8" />
  <polygon points="577.75,307.40 592.07,307.40 592.07,295.29 577.75,295.29" fill="#faffa8" />
  <polygon points="640.01,307.40 654.33,307.40 654.33,295.29 640.01,295.29" fill="#faffa8" />
  <polygon points="577.75,320.57 592.07,320.57 592.07,308.46 577.75,308.46" fill="#faffa8" />
  <polygon points="640.01,320.57 654.33,320.57 654.33,308.46 640.01,308.46" fill="#faffa8" />
  <polygon points="577.75,333.74 592.07,333.74 592.07,321.62 577.75,321.62" fill="#faffa8" />
  <polygon points="640.01,333.74 654.33,333.74 654.33,321.62 640.01,321.62" fill="#faffa8" />
  <polygon points="577.75,346.90 592.07,346.90 592.07,334.79 577.75,334.79" fill="#faffa8" />
  <polygon points="640.01,346.90 654.33,346.90 654.33,334.79 640.01,334.79" fill="#faffa8" />
  <polygon points="577.75,360.07 592.07,360.07 592.07,347.96 577.75,347.96" fill="#faffa8" />
  <polygon points="640.01,360.07 654.33,360.07 654.33,347.96 640.01,347.96" fill="#faffa8" />
  <polygon points="593.31,373.23 607.63,373.23 607.63,361.12 593.31,361.12" fill="#faffa8" />
  <polygon points="608.88,373.23 623.20,373.23 623.20,361.12 608.88,361.12" fill="#faffa8" />
  <polygon points="624.44,373.23 638.76,373.23 638.76,361.12 624.44,361.12" fill="#faffa8" />
  <polygon points="764.53,294.24 778.85,294.24 778.85,282.13 764.53,282.13" fill="#faffa8" />
  <polygon points="780.09,294.24 794.41,294.24 794.41,282.13 780.09,282.13" fill="#faffa8" />
  <polygon points="795.66,294.24 809.98,294.24 809.98,282.13 795.66,282.13" fill="#faffa8" />
  <polygon points="811.22,294.24 825.54,294.24 825.54,282.13 811.22,282.13" fill="#faffa8" />
  <polygon points="826.79,294.24 841.11,294.24 841.11,282.13 826.79,282.13" fill="#faffa8" />
  <polygon points="764.53,307.40 778.85,307.40 778.85,295.29 764.53,295.29" fill="#faffa8" />
  <polygon points="764.53,320.57 778.85,320.57 778.85,308.46 764.53,308.46" fill="#faffa8" />
  <polygon points="764.53,333.74 778.85,333.74 778.85,321.62 764.53,321.62" fill="#faffa8" />
  <polygon points="780.09,333.74 794.41,333.74 794.41,321.62 780.09,321.62" fill="#faffa8" />
  <polygon points="795.66,333.74 809.98,333.74 809.98,321.62 795.66,321.62" fill="#faffa8" />
  <polygon points="811.22,333.74 825.54,333.74 825.54,321.62 811.22,321.62" fill="#faffa8" />
  <polygon points="764.53,346.90 778.85,346.90 778.85,334.79 764.53,334.79" fill="#faffa8" />
  <polygon points="764.53,360.07 778.85,360.07 778.85,347.96 764.53,347.96" fill="#faffa8" />
  <polygon points="764.53,373.23 778.85,373.23 778.85,361.12 764.53,361.12" fill="#faffa8" />
  <polygon points="780.09,373.23 794.41,373.23 794.41,361.12 780.09,361.12" fill="#faffa8" />
  <polygon points="795.66,373.23 809.98,373.23 809.98,361.12 795.66,361.12" fill="#faffa8" />
  <polygon points="811.22,373.23 825.54,373.23 825.54,361.12 811.22,361.12" fill="#faffa8" />
  <polygon points="826.79,373.23 841.11,373.23 841.11,361.12 826.79,361.12" fill="#faffa8" />
  <polygon points="675.84,296.96 829.44,296.96 829.44,358.40 675.84,358.40" fill="#faffa8" />
  <polygon points="942.08,327.68 829.44,245.76 829.44,409.60" fill="#faffa8" />
</svg>
