<svg xmlns="http://www.w3.org/2000/svg" viewBox="0 0 1024 1024">
  <polygon points="25.60,870.40 998.40,870.40 998.40,153.60 25.60,153.60" fill="#faffa8" />
  <polygon points="66.56,829.44 957.44,829.44 957.44,194.56 66.56,194.56" fill="#bdff58" />
  <polygon points="122.88,496.64 901.12,496.64 901.12,527.36 122.88,527.36" fill="#faffa8" />
  <polygon points="31.54,730.11 278.12,730.11 278.12,606.82 31.54,606.82" fill="#faffa8" />
  <polygon points="322.15,747.72 445.44,747.72 445.44,642.05 322.15,642.05" fill="#faffa8" />
  <polygon points="374.99,686.08 427.83,686.08 427.83,650.85 374.99,650.85" fill="#faffa8" />
  <polygon points="163.64,774.14 159.27,755.04 147.06,739.72 129.40,731.22 109.81,731.22 92.15,739.72 79.93,755.04 75.57,774.14 79.93,793.25 92.15,808.57 109.81,817.07 129.40,817.07 147.06,808.57 159.27,793.25" fill="#faffa8" />
  <polygon points="339.76,774.14 335.40,755.04 323.18,739.72 305.53,731.22 285.93,731.22 268.28,739.72 256.06,755.04 251.70,774.14 256.06,793.25 268.28,808.57 285.93,817.07 305.53,817.07 323.18,808.57 335.40,793.25" fill="#faffa8" />
  <polygon points="480.67,774.14 476.31,755.04 464.09,739.72 446.43,731.22 426.84,731.22 409.18,739.72 396.96,755.04 392.60,774.14 396.96,793.25 409.18,808.57 426.84,817.07 446.43,817.07 464.09,808.57 476.31,793.25" fill="#faffa8" />
  <polygon points="410.11,652.64 421.80,652.64 421.80,640.53 410.11,640.53" fill="#faffa8" />
  <polygon points="422.82,652.64 434.51,652.64 434.51,640.53 422.82,640.53" fill="#faffa8" />
  <polygon points="435.53,652.64 447.23,652.64 447.23,640.53 435.53,640.53" fill="#faffa8" />
  <polygon points="448.24,652.64 459.94,652.64 459.94,640.53 448.24,640.53" fill="#faffa8" />
  <polygon points="460.96,652.64 472.65,652.64 472.65,640.53 460.96,640.53" fill="#faffa8" />
  <polygon points="435.53,665.80 447.23,665.80 447.23,653.69 435.53,653.69" fill="#faffa8" />
  <polygon points="435.53,678.97 447.23,678.97 447.23,666.86 435.53,666.86" fill="#faffa8" />
  <polygon points="435.53,692.14 447.23,692.14 447.23,680.02 435.53,680.02" fill="#faffa8" />
  <polygon points="435.53,705.30 447.23,705.30 447.23,693.19 435.53,693.19" fill="#faffa8" />
  <polygon points="435.53,718.47 447.23,718.47 447.23,706.36 435.53,706.36" fill="#faffa8" />
  <polygon points="435.53,731.63 447.23,731.63 447.23,719.52 435.53,719.52" fill="#faffa8" />
  <polygon points="486.38,652.64 498.07,652.64 498.07,640.53 486.38,640.53" fill="#faffa8" />
  <polygon points="499.09,652.64 510.79,652.64 510.79,640.53 499.09,640.53" fill="#faffa8" />
  <polygon points="511.80,652.64 523.50,652.64 523.50,640.53 511.80,640.53" fill="#faffa8" />
  <polygon points="524.51,652.64 536.21,652.64 536.21,640.53 524.51,640.53" fill="#faffa8" />
  <polygon points="486.38,665.80 498.07,665.80 498.07,653.69 486.38,653.69" fill="#faffa8" />
  <polygon points="537.23,665.80 548.92,665.80 548.92,653.69 537.23,653.69" fill="#faffa8" />
  <polygon points="486.38,678.97 498.07,678.97 498.07,666.86 486.38,666.86" fill="#faffa8" />
  <polygon points="537.23,678.97 548.92,678.97 548.92,666.86 537.23,666.86" fill="#faffa8" />
  <polygon points="486.38,692.14 498.07,692.14 498.07,680.02 486.38,680.02" fill="#faffa8" />
  <polygon points="499.09,692.14 510.79,692.14 510.79,680.02 499.09,680.02" fill="#faffa8" />
  <polygon points="511.80,692.14 523.50,692.14 523.50,680.02 511.80,680.02" fill="#faffa8" />
  <polygon points="524.51,692.14 536.21,692.14 536.21,680.02 524.51,680.02" fill="#faffa8" />
  <polygon points="486.38,705.30 498.07,705.30 498.07,693.19 486.38,693.19" fill="#faffa8" />
  <polygon points="511.80,705.30 523.50,705.30 523.50,693.19 511.80,693.19" fill="#faffa8" />
  <polygon points="486.38,718.47 498.07,718.47 498.07,706.36 486.38,706.36" fill="#faffa8" />
  <polygon points="524.51,718.47 536.21,718.47 536.21,706.36 524.51,706.36" fill="#faffa8" />
  <polygon points="486.38,731.63 498.07,731.63 498.07,719.52 486.38,719.52" fill="#faffa8" />
  <polygon points="537.23,731.63 548.92,731.63 548.92,719.52 537.23,719.52" fill="#faffa8" />
  <polygon points="562.65,652.64 574.34,652.64 574.34,640.53 562.65,640.53" fill="#faffa8" />
  <polygon points="613.50,652.64 625.19,652.64 625.19,640.53 613.50,640.53" fill="#faffa8" />
  <polygon points="562.65,665.80 574.34,665.80 574.34,653.69 562.65,653.69" fill="#faffa8" />
  <polygon points="613.50,665.80 625.19,665.80 625.19,653.69 613.50,653.69" fill="#faffa8" />
  <polygon points="562.65,678.97 574.34,678.97 574.34,666.86 562.65,666.86" fill="#faffa8" />
  <polygon points="613.50,678.97 625.19,678.97 625.19,666.86 613.50,666.86" fill="#faffa8" />
  <polygon points="562.65,692.14 574.34,692.14 574.34,680.02 562.65,680.02" fill="#faffa8" />
  <polygon points="613.50,692.14 625.19,692.14 625.19,680.02 613.50,680.02" fill="#faffa8" />
  <polygon points="562.65,705.30 574.34,705.30 574.34,693.19 562.65,693.19" fill="#faffa8" />
  <polygon points="613.50,705.30 625.19,705.30 625.19,693.19 613.50,693.19" fill="#faffa8" />
  <polygon points="562.65,718.47 574.34,718.47 574.34,706.36 562.65,706.36" fill="#faffa8" />
  <polygon points="613.50,718.47 625.19,718.47 625.19,706.36 613.50,706.36" fill="#faffa8" />
  <polygon points="575.36,731.63 587.06,731.63 587.06,719.52 575.36,719.52" fill="#faffa8" />
  <polygon points="588.07,731.63 599.77,731.63 599.77,719.52 588.07,719.52" fill="#faffa8" />
  <polygon points="600.78,731.63 612.48,731.63 612.48,719.52 600.78,719.52" fill="#faffa8" />
  <polygon points="651.63,652.64 663.33,652.64 663.33,640.53 651.63,640.53" fill="#faffa8" />
  <polygon points="664.34,652.64 676.04,652.64 676.04,640.53 664.34,640.53" fill="#faffa8" />
  <polygon points="677.05,652.64 688.75,652.64 688.75,640.53 677.05,640.53" fill="#faffa8" />
  <polygon points="638.92,665.80 650.61,665.80 650.61,653.69 638.92,653.69" fill="#faffa8" />
  <polygon points="689.77,665.80 701.46,665.80 701.46,653.69 689.77,653.69" fill="#faffa8" />
  <polygon points="638.92,678.97 650.61,678.97 650.61,666.86 638.92,666.86" fill="#faffa8" />
  <polygon points="638.92,692.14 650.61,692.14 650.61,680.02 638.92,680.02" fill="#faffa8" />
  <polygon points="638.92,705.30 650.61,705.30 650.61,693.19 638.92,693.19" fill="#faffa8" />
  <polygon points="638.92,718.47 650.61,718.47 650.61,706.36 638.92,706.36" fill="#faffa8" />
  <polygon points="689.77,718.47 701.46,718.47 701.46,706.36 689.77,706.36" fill="#faffa8" />
  <polygon points="651.63,731.63 663.33,731.63 663.33,719.52 651.63,719.52" fill="#faffa8" />
  <polygon points="664.34,731.63 676.04,731.63 676.04,719.52 664.34,719.52" fill="#faffa8" />
  <polygon points="677.05,731.63 688.75,731.63 688.75,719.52 677.05,719.52" fill="#faffa8" />
  <polygon points="715.19,652.64 726.88,652.64 726.88,640.53 715.19,640.53" fill="#faffa8" />
  <polygon points="766.04,652.64 777.73,652.64 777.73,640.53 766.04,640.53" fill="#faffa8" />
  <polygon points="715.19,665.80 726.88,665.80 726.88,653.69 715.19,653.69" fill="#faffa8" />
  <polygon points="753.33,665.80 765.02,665.80 765.02,653.69 753.33,653.69" fill="#faffa8" />
  <polygon points="715.19,678.97 726.88,678.97 726.88,666.86 715.19,666.86" fill="#faffa8" />
  <polygon points="740.61,678.97 752.31,678.97 752.31,666.86 740.61,666.86" fill="#faffa8" />
  <polygon points="715.19,692.14 726.88,692.14 726.88,680.02 715.19,680.02" fill="#faffa8" />
  <polygon points="727.90,692.14 739.60,692.14 739.60,680.02 727.90,680.02" fill="#faffa8" />
  <polygon points="715.19,705.30 726.88,705.30 726.88,693.19 715.19,693.19" fill="#faffa8" />
  <polygon points="740.61,705.30 752.31,705.30 752.31,693.19 740.61,693.19" fill="#faffa8" />
  <polygon points="715.19,718.47 726.88,718.47 726.88,706.36 715.19,706.36" fill="#faffa8" />
  <polygon points="753.33,718.47 765.02,718.47 765.02,706.36 753.33,706.36" fill="#faffa8" />
  <polygon points="715.19,731.63 726.88,731.63 726.88,719.52 715.19,719.52" fill="#faffa8" />
  <polygon points="766.04,731.63 777.73,731.63 777.73,719.52 766.04,719.52" fill="#faffa8" />
  <polygon points="215.53,304.48 226.84,304.48 226.84,292.37 215.53,292.37" fill="#faffa8" />
  <polygon points="227.82,304.48 239.12,304.48 239.12,292.37 227.82,292.37" fill="#faffa8" />
  <polygon points="240.11,304.48 251.41,304.48 251.41,292.37 240.11,292.37" fill="#faffa8" />
  <polygon points="252.40,304.48 263.70,304.48 263.70,292.37 252.40,292.37" fill="#faffa8" />
  <polygon points="215.53,317.64 226.84,317.64 226.84,305.53 215.53,305.53" fill="#faffa8" />
  <polygon points="264.68,317.64 275.99,317.64 275.99,305.53 264.68,305.53" fill="#faffa8" />
  <polygon points="215.53,330.81 226.84,330.81 226.84,318.70 215.53,318.70" fill="#faffa8" />
  <polygon points="264.68,330.81 275.99,330.81 275.99,318.70 264.68,318.70" fill="#faffa8" />
  <polygon points="215.53,343.98 226.84,343.98 226.84,331.86 215.53,331.86" fill="#faffa8" />
  <polygon points="227.82,343.98 239.12,343.98 239.12,331.86 227.82,331.86" fill="#faffa8" />
  <polygon points="240.11,343.98 251.41,343.98 251.41,331.86 240.11,331.86" fill="#faffa8" />
  <polygon points="252.40,343.98 263.70,343.98 263.70,331.86 252.40,331.86" fill="#faffa8" />
  <polygon points="215.53,357.14 226.84,357.14 226.84,345.03 215.53,345.03" fill="#faffa8" />
  <polygon points="264.68,357.14 275.99,357.14 275.99,345.03 264.68,345.03" fill="#faffa8" />
  <polygon points="215.53,370.31 226.84,370.31 226.84,358.20 215.53,358.20" fill="#faffa8" />
  <polygon points="264.68,370.31 275.99,370.31 275.99,358.20 264.68,358.20" fill="#faffa8" />
  <polygon points="215.53,383.47 226.84,383.47 226.84,371.36 215.53,371.36" fill="#faffa8" />
  <polygon points="227.82,383.47 239.12,383.47 239.12,371.36 227.82,371.36" fill="#faffa8" />
  <polygon points="240.11,383.47 251.41,383.47 251.41,371.36 240.11,371.36" fill="#faffa8" />
  <polygon points="252.40,383.47 263.70,383.47 263.70,371.36 252.40,371.36" fill="#faffa8" />
  <polygon points="289.26,304.48 300.56,304.48 300.56,292.37 289.26,292.37" fill="#faffa8" />
  <polygon points="338.41,304.48 349.72,304.48 349.72,292.37 338.41,292.37" fill="#faffa8" />
  <polygon points="289.26,317.64 300.56,317.64 300.56,305.53 289.26,305.53" fill="#faffa8" />
  <polygon points="338.41,317.64 349.72,317.64 349.72,305.53 338.41,305.53" fill="#faffa8" />
  <polygon points="301.55,330.81 312.85,330.81 312.85,318.70 301.55,318.70" fill="#faffa8" />
  <polygon points="326.12,330.81 337.43,330.81 337.43,318.70 326.12,318.70" fill="#faffa8" />
  <polygon points="313.84,343.98 325.14,343.98 325.14,331.86 313.84,331.86" fill="#faffa8" />
  <polygon points="313.84,357.14 325.14,357.14 325.14,345.03 313.84,345.03" fill="#faffa8" />
  <polygon points="313.84,370.31 325.14,370.31 325.14,358.20 313.84,358.20" fill="#faffa8" />
  <polygon points="313.84,383.47 325.14,383.47 325.14,371.36 313.84,371.36" fill="#faffa8" />
  <polygon points="362.99,304.48 374.29,304.48 374.29,292.37 362.99,292.37" fill="#faffa8" />
  <polygon points="375.28,304.48 386.58,304.48 386.58,292.37 375.28,292.37" fill="#faffa8" />
  <polygon points="387.56,304.48 398.87,304.48 398.87,292.37 387.56,292.37" fill="#faffa8" />
  <polygon points="399.85,304.48 411.16,304.48 411.16,292.37 399.85,292.37" fill="#faffa8" />
  <polygon points="362.99,317.64 374.29,317.64 374.29,305.53 362.99,305.53" fill="#faffa8" />
  <polygon points="412.14,317.64 423.44,317.64 423.44,305.53 412.14,305.53" fill="#faffa8" />
  <polygon points="362.99,330.81 374.29,330.81 374.29,318.70 362.99,318.70" fill="#faffa8" />
  <polygon points="412.14,330.81 423.44,330.81 423.44,318.70 412.14,318.70" fill="#faffa8" />
  <polygon points="362.99,343.98 374.29,343.98 374.29,331.86 362.99,331.86" fill="#faffa8" />
  <polygon points="375.28,343.98 386.58,343.98 386.58,331.86 375.28,331.86" fill="#faffa8" />
  <polygon points="387.56,343.98 398.87,343.98 398.87,331.86 387.56,331.86" fill="#faffa8" />
  <polygon points="399.85,343.98 411.16,343.98 411.16,331.86 399.85,331.86" fill="#faffa8" />
  <polygon points="362.99,357.14 374.29,357.14 374.29,345.03 362.99,345.03" fill="#faffa8" />
  <polygon points="362.99,370.31 374.29,370.31 374.29,358.20 362.99,358.20" fill="#faffa8" />
  <polygon points="362.99,383.47 374.29,383.47 374.29,371.36 362.99,371.36" fill="#faffa8" />
  <polygon points="461.29,304.48 472.60,304.48 472.60,292.37 461.29,292.37" fill="#faffa8" />
  <polygon points="449.00,317.64 460.31,317.64 460.31,305.53 449.00,305.53" fill="#faffa8" />
  <polygon points="473.58,317.64 484.88,317.64 484.88,305.53 473.58,305.53" fill="#faffa8" />
  <polygon points="436.72,330.81 448.02,330.81 448.02,318.70 436.72,318.70" fill="#faffa8" />
  <polygon points="485.87,330.81 497.17,330.81 497.17,318.70 485.87,318.70" fill="#faffa8" />
  <polygon points="436.72,343.98 448.02,343.98 448.02,331.86 436.72,331.86" fill="#faffa8" />
  <polygon points="485.87,343.98 497.17,343.98 497.17,331.86 485.87,331.86" fill="#faffa8" />
  <polygon points="436.72,357.14 448.02,357.14 448.02,345.03 436.72,345.03" fill="#faffa8" />
  <polygon points="449.00,357.14 460.31,357.14 460.31,345.03 449.00,345.03" fill="#faffa8" />
  <polygon points="461.29,357.14 472.60,357.14 472.60,345.03 461.29,345.03" fill="#faffa8" />
  <polygon points="473.58,357.14 484.88,357.14 484.88,345.03 473.58,345.03" fill="#faffa8" />
  <polygon points="485.87,357.14 497.17,357.14 497.17,345.03 485.87,345.03" fill="#faffa8" />
  <polygon points="436.72,370.31 448.02,370.31 448.02,358.20 436.72,358.20" fill="#faffa8" />
  <polygon points="485.87,370.31 497.17,370.31 497.17,358.20 485.87,358.20" fill="#faffa8" />
  <polygon points="436.72,383.47 448.02,383.47 448.02,371.36 436.72,371.36" fill="#faffa8" />
  <polygon points="485.87,383.47 497.17,383.47 497.17,371.36 485.87,371.36" fill="#faffa8" />
  <polygon points="522.73,304.48 534.04,304.48 534.04,292.37 522.73,292.37" fill="#faffa8" />
  <polygon points="535.02,304.48 546.32,304.48 546.32,292.37 535.02,292.37" fill="#faffa8" />
  <polygon points="547.31,304.48 558.61,304.48 558.61,292.37 547.31,292.37" fill="#faffa8" />
  <polygon points="559.60,304.48 570.90,304.48 570.90,292.37 559.60,292.37" fill="#faffa8" />
  <polygon points="510.44,317.64 521.75,317.64 521.75,305.53 510.44,305.53" fill="#faffa8" />
  <polygon points="510.44,330.81 521.75,330.81 521.75,318.70 510.44,318.70" fill="#faffa8" />
  <polygon points="522.73,343.98 534.04,343.98 534.04,331.86 522.73,331.86" fill="#faffa8" />
  <polygon points="535.02,343.98 546.32,343.98 546.32,331.86 535.02,331.86" fill="#faffa8" />
  <polygon points="547.31,343.98 558.61,343.98 558.61,331.86 547.31,331.86" fill="#faffa8" />
  <polygon points="559.60,357.14 570.90,357.14 570.90,345.03 559.60,345.03" fill="#faffa8" />
  <polygon points="559.60,370.31 570.90,370.31 570.90,358.20 559.60,358.20" fill="#faffa8" />
  <polygon points="510.44,383.47 521.75,383.47 521.75,371.36 510.44,371.36" fill="#faffa8" />
  <polygon points="522.73,383.47 534.04,383.47 534.04,371.36 522.73,371.36" fill="#faffa8" />
  <polygon points="535.02,383.47 546.32,383.47 546.32,371.36 535.02,371.36" fill="#faffa8" />
  <polygon points="547.31,383.47 558.61,383.47 558.61,371.36 547.31,371.36" fill="#faffa8" />
  <polygon points="596.46,304.48 607.76,304.48 607.76,292.37 596.46,292.37" fill="#faffa8" />
  <polygon points="608.75,304.48 620.05,304.48 620.05,292.37 608.75,292.37" fill="#faffa8" />
  <polygon points="621.04,304.48 632.34,304.48 632.34,292.37 621.04,292.37" fill="#faffa8" />
  <polygon points="633.32,304.48 644.63,304.48 644.63,292.37 633.32,292.37" fill="#faffa8" />
  <polygon points="584.17,317.64 595.48,317.64 595.48,305.53 584.17,305.53" fill="#faffa8" />
  <polygon points="584.17,330.81 595.48,330.81 595.48,318.70 584.17,318.70" fill="#faffa8" />
  <polygon points="596.46,343.98 607.76,343.98 607.76,331.86 596.46,331.86" fill="#faffa8" />
  <polygon points="608.75,343.98 620.05,343.98 620.05,331.86 608.75,331.86" fill="#faffa8" />
  <polygon points="621.04,343.98 632.34,343.98 632.34,331.86 621.04,331.86" fill="#faffa8" />
  <polygon points="633.32,357.14 644.63,357.14 644.63,345.03 633.32,345.03" fill="#faffa8" />
  <polygon points="633.32,370.31 644.63,370.31 644.63,358.20 633.32,358.20" fill="#faffa8" />
  <polygon points="584.17,383.47 595.48,383.47 595.48,371.36 584.17,371.36" fill="#faffa8" />
  <polygon points="596.46,383.47 607.76,383.47 607.76,371.36 596.46,371.36" fill="#faffa8" />
  <polygon points="608.75,383.47 620.05,383.47 620.05,371.36 608.75,371.36" fill="#faffa8" />
  <polygon points="621.04,383.47 632.34,383.47 632.34,371.36 621.04,371.36" fill="#faffa8" />
  <polygon points="829.44,266.24 829.44,378.88 768.00,378.88 768.00,266.24" fill="#faffa8" />
  <polygon points="798.72,491.52 880.64,378.88 716.80,378.88" fill="#faffa8" />
</svg>
