<svg xmlns="http://www.w3.org/2000/svg" viewBox="0 0 1024 1024">
  <polygon points="10.24,716.80 1013.76,716.80 1013.76,307.20 10.24,307.20" fill="#65f2ff" />
  <polygon points="246.40,471.13 261.05,471.13 261.05,456.32 246.40,456.32" fill="#faffa8" />
  <polygon points="262.33,471.13 276.98,471.13 276.98,456.32 262.33,456.32" fill="#faffa8" />
  <polygon points="278.25,471.13 292.91,471.13 292.91,456.32 278.25,456.32" fill="#faffa8" />
  <polygon points="294.18,471.13 308.84,471.13 308.84,456.32 294.18,456.32" fill="#faffa8" />
  <polygon points="310.11,471.13 324.77,471.13 324.77,456.32 310.11,456.32" fill="#faffa8" />
  <polygon points="278.25,487.22 292.91,487.22 292.91,472.42 278.25,472.42" fill="#faffa8" />
  <polygon points="278.25,503.31 292.91,503.31 292.91,488.51 278.25,488.51" fill="#faffa8" />
  <polygon points="278.25,519.40 292.91,519.40 292.91,504.60 278.25,504.60" fill="#faffa8" />
  <polygon points="278.25,535.49 292.91,535.49 292.91,520.69 278.25,520.69" fill="#faffa8" />
  <polygon points="278.25,551.58 292.91,551.58 292.91,536.78 278.25,536.78" fill="#faffa8" />
  <polygon points="278.25,567.68 292.91,567.68 292.91,552.87 278.25,552.87" fill="#faffa8" />
  <polygon points="373.83,471.13 388.48,471.13 388.48,456.32 373.83,456.32" fill="#faffa8" />
  <polygon points="357.90,487.22 372.55,487.22 372.55,472.42 357.90,472.42" fill="#faffa8" />
  <polygon points="389.76,487.22 404.41,487.22 404.41,472.42 389.76,472.42" fill="#faffa8" />
  <polygon points="341.97,503.31 356.63,503.31 356.63,488.51 341.97,488.51" fill="#faffa8" />
  <polygon points="405.69,503.31 420.34,503.31 420.34,488.51 405.69,488.51" fill="#faffa8" />
  <polygon points="341.97,519.40 356.63,519.40 356.63,504.60 341.97,504.60" fill="#faffa8" />
  <polygon points="405.69,519.40 420.34,519.40 420.34,504.60 405.69,504.60" fill="#faffa8" />
  <polygon points="341.97,535.49 356.63,535.49 356.63,520.69 341.97,520.69" fill="#faffa8" />
  <polygon points="357.90,535.49 372.55,535.49 372.55,520.69 357.90,520.69" fill="#faffa8" />
  <polygon points="373.83,535.49 388.48,535.49 388.48,520.69 373.83,520.69" fill="#faffa8" />
  <polygon points="389.76,535.49 404.41,535.49 404.41,520.69 389.76,520.69" fill="#faffa8" />
  <polygon points="405.69,535.49 420.34,535.49 420.34,520.69 405.69,520.69" fill="#faffa8" />
  <polygon points="341.97,551.58 356.63,551.58 356.63,536.78 341.97,536.78" fill="#faffa8" />
  <polygon points="405.69,551.58 420.34,551.58 420.34,536.78 405.69,536.78" fill="#faffa8" />
  <polygon points="341.97,567.68 356.63,567.68 356.63,552.87 341.97,552.87" fill="#faffa8" />
  <polygon points="405.69,567.68 420.34,567.68 420.34,552.87 405.69,552.87" fill="#faffa8" />
  <polygon points="533.12,471.13 547.77,471.13 547.77,456.32 533.12,456.32" fill="#faffa8" />
  <polygon points="549.05,471.13 563.70,471.13 563.70,456.32 549.05,456.32" fill="#faffa8" />
  <polygon points="564.97,471.13 579.63,471.13 579.63,456.32 564.97,456.32" fill="#faffa8" />
  <polygon points="580.90,471.13 595.56,471.13 595.56,456.32 580.90,456.32" fill="#faffa8" />
  <polygon points="596.83,471.13 611.49,471.13 611.49,456.32 596.83,456.32" fill="#faffa8" />
  <polygon points="564.97,487.22 579.63,487.22 579.63,472.42 564.97,472.42" fill="#faffa8" />
  <polygon points="564.97,503.31 579.63,503.31 579.63,488.51 564.97,488.51" fill="#faffa8" />
  <polygon points="564.97,519.40 579.63,519.40 579.63,504.60 564.97,504.60" fill="#faffa8" />
  <polygon points="564.97,535.49 579.63,535.49 579.63,520.69 564.97,520.69" fill="#faffa8" />
  <polygon points="564.97,551.58 579.63,551.58 579.63,536.78 564.97,536.78" fill="#faffa8" />
  <polygon points="533.12,567.68 547.77,567.68 547.77,552.87 533.12,552.87" fill="#faffa8" />
  <polygon points="549.05,567.68 563.70,567.68 563.70,552.87 549.05,552.87" fill="#faffa8" />
  <polygon points="564.97,567.68 579.63,567.68 579.63,552.87 564.97,552.87" fill="#faffa8" />
  <polygon points="580.90,567.68 595.56,567.68 595.56,552.87 580.90,552.87" fill="#faffa8" />
  <polygon points="596.83,567.68 611.49,567.68 611.49,552.87 596.83,552.87" fill="#faffa8" />
  <polygon points="614.40,471.04 798.72,471.04 798.72,552.96 614.40,552.96" fill="#faffa8" />
  <polygon points="942.08,512.00 798.72,409.60 798.72,614.40" fill="#faffa8" />
</svg>
