<svg xmlns="http://www.w3.org/2000/svg" viewBox="0 0 1024 1024">
  <polygon points="25.60,706.56 998.40,706.56 998.40,317.44 25.60,317.44" fill="#faffa8" />
  <polygon points="66.56,665.60 957.44,665.60 957.44,358.40 66.56,358.40" fill="#65f2ff" />
  <polygon points="123.70,452.55 142.54,452.55 142.54,431.02 123.70,431.02" fill="#faffa8" />
  <polygon points="205.62,452.55 224.46,452.55 224.46,431.02 205.62,431.02" fill="#faffa8" />
  <polygon points="123.70,475.96 142.54,475.96 142.54,454.42 123.70,454.42" fill="#faffa8" />
  <polygon points="144.18,475.96 163.02,475.96 163.02,454.42 144.18,454.42" fill="#faffa8" />
  <polygon points="185.14,475.96 203.98,475.96 203.98,454.42 185.14,454.42" fill="#faffa8" />
  <polygon points="205.62,475.96 224.46,475.96 224.46,454.42 205.62,454.42" fill="#faffa8" />
  <polygon points="123.70,499.36 142.54,499.36 142.54,477.83 123.70,477.83" fill="#faffa8" />
  <polygon points="164.66,499.36 183.50,499.36 183.50,477.83 164.66,477.83" fill="#faffa8" />
  <polygon points="205.62,499.36 224.46,499.36 224.46,477.83 205.62,477.83" fill="#faffa8" />
  <polygon points="123.70,522.77 142.54,522.77 142.54,501.23 123.70,501.23" fill="#faffa8" />
  <polygon points="164.66,522.77 183.50,522.77 183.50,501.23 164.66,501.23" fill="#faffa8" />
  <polygon points="205.62,522.77 224.46,522.77 224.46,501.23 205.62,501.23" fill="#faffa8" />
  <polygon points="123.70,546.17 142.54,546.17 142.54,524.64 123.70,524.64" fill="#faffa8" />
  <polygon points="205.62,546.17 224.46,546.17 224.46,524.64 205.62,524.64" fill="#faffa8" />
  <polygon points="123.70,569.58 142.54,569.58 142.54,548.04 123.70,548.04" fill="#faffa8" />
  <polygon points="205.62,569.58 224.46,569.58 224.46,548.04 205.62,548.04" fill="#faffa8" />
  <polygon points="123.70,592.98 142.54,592.98 142.54,571.45 123.70,571.45" fill="#faffa8" />
  <polygon points="205.62,592.98 224.46,592.98 224.46,571.45 205.62,571.45" fill="#faffa8" />
  <polygon points="338.40,478.56 349.45,478.56 349.45,466.45 338.40,466.45" fill="#faffa8" />
  <polygon points="386.42,478.56 397.47,478.56 397.47,466.45 386.42,466.45" fill="#faffa8" />
  <polygon points="338.40,491.72 349.45,491.72 349.45,479.61 338.40,479.61" fill="#faffa8" />
  <polygon points="350.41,491.72 361.45,491.72 361.45,479.61 350.41,479.61" fill="#faffa8" />
  <polygon points="374.42,491.72 385.46,491.72 385.46,479.61 374.42,479.61" fill="#faffa8" />
  <polygon points="386.42,491.72 397.47,491.72 397.47,479.61 386.42,479.61" fill="#faffa8" />
  <polygon points="338.40,504.89 349.45,504.89 349.45,492.78 338.40,492.78" fill="#faffa8" />
  <polygon points="362.41,504.89 373.46,504.89 373.46,492.78 362.41,492.78" fill="#faffa8" />
  <polygon points="386.42,504.89 397.47,504.89 397.47,492.78 386.42,492.78" fill="#faffa8" />
  <polygon points="338.40,518.06 349.45,518.06 349.45,505.94 338.40,505.94" fill="#faffa8" />
  <polygon points="362.41,518.06 373.46,518.06 373.46,505.94 362.41,505.94" fill="#faffa8" />
  <polygon points="386.42,518.06 397.47,518.06 397.47,505.94 386.42,505.94" fill="#faffa8" />
  <polygon points="338.40,531.22 349.45,531.22 349.45,519.11 338.40,519.11" fill="#faffa8" />
  <polygon points="386.42,531.22 397.47,531.22 397.47,519.11 386.42,519.11" fill="#faffa8" />
  <polygon points="338.40,544.39 349.45,544.39 349.45,532.28 338.40,532.28" fill="#faffa8" />
  <polygon points="386.42,544.39 397.47,544.39 397.47,532.28 386.42,532.28" fill="#faffa8" />
  <polygon points="338.40,557.55 349.45,557.55 349.45,545.44 338.40,545.44" fill="#faffa8" />
  <polygon points="386.42,557.55 397.47,557.55 397.47,545.44 386.42,545.44" fill="#faffa8" />
  <polygon points="410.43,478.56 421.48,478.56 421.48,466.45 410.43,466.45" fill="#faffa8" />
  <polygon points="422.44,478.56 433.48,478.56 433.48,466.45 422.44,466.45" fill="#faffa8" />
  <polygon points="434.44,478.56 445.49,478.56 445.49,466.45 434.44,466.45" fill="#faffa8" />
  <polygon points="446.45,478.56 457.49,478.56 457.49,466.45 446.45,466.45" fill="#faffa8" />
  <polygon points="458.46,478.56 469.50,478.56 469.50,466.45 458.46,466.45" fill="#faffa8" />
  <polygon points="410.43,491.72 421.48,491.72 421.48,479.61 410.43,479.61" fill="#faffa8" />
  <polygon points="410.43,504.89 421.48,504.89 421.48,492.78 410.43,492.78" fill="#faffa8" />
  <polygon points="410.43,518.06 421.48,518.06 421.48,505.94 410.43,505.94" fill="#faffa8" />
  <polygon points="422.44,518.06 433.48,518.06 433.48,505.94 422.44,505.94" fill="#faffa8" />
  <polygon points="434.44,518.06 445.49,518.06 445.49,505.94 434.44,505.94" fill="#faffa8" />
  <polygon points="446.45,518.06 457.49,518.06 457.49,505.94 446.45,505.94" fill="#faffa8" />
  <polygon points="410.43,531.22 421.48,531.22 421.48,519.11 410.43,519.11" fill="#faffa8" />
  <polygon points="410.43,544.39 421.48,544.39 421.48,532.28 410.43,532.28" fill="#faffa8" />
  <polygon points="410.43,557.55 421.48,557.55 421.48,545.44 410.43,545.44" fill="#faffa8" />
  <polygon points="422.44,557.55 433.48,557.55 433.48,545.44 422.44,545.44" fill="#faffa8" />
  <polygon points="434.44,557.55 445.49,557.55 445.49,545.44 434.44,545.44" fill="#faffa8" />
  <polygon points="446.45,557.55 457.49,557.55 457.49,545.44 446.45,545.44" fill="#faffa8" />
  <polygon points="458.46,557.55 469.50,557.55 469.50,545.44 458.46,545.44" fill="#faffa8" />
  <polygon points="482.47,478.56 493.51,478.56 493.51,466.45 482.47,466.45" fill="#faffa8" />
  <polygon points="494.47,478.56 505.52,478.56 505.52,466.45 494.47,466.45" fill="#faffa8" />
  <polygon points="506.48,478.56 517.52,478.56 517.52,466.45 506.48,466.45" fill="#faffa8" />
  <polygon points="518.48,478.56 529.53,478.56 529.53,466.45 518.48,466.45" fill="#faffa8" />
  <polygon points="530.49,478.56 541.53,478.56 541.53,466.45 530.49,466.45" fill="#faffa8" />
  <polygon points="506.48,491.72 517.52,491.72 517.52,479.61 506.48,479.61" fill="#faffa8" />
  <polygon points="506.48,504.89 517.52,504.89 517.52,492.78 506.48,492.78" fill="#faffa8" />
  <polygon points="506.48,518.06 517.52,518.06 517.52,505.94 506.48,505.94" fill="#faffa8" />
  <polygon points="506.48,531.22 517.52,531.22 517.52,519.11 506.48,519.11" fill="#faffa8" />
  <polygon points="506.48,544.39 517.52,544.39 517.52,532.28 506.48,532.28" fill="#faffa8" />
  <polygon points="506.48,557.55 517.52,557.55 517.52,545.44 506.48,545.44" fill="#faffa8" />
  <polygon points="554.50,478.56 565.54,478.56 565.54,466.45 554.50,466.45" fill="#faffa8" />
  <polygon points="566.51,478.56 577.55,478.56 577.55,466.45 566.51,466.45" fill="#faffa8" />
  <polygon points="578.51,478.56 589.56,478.56 589.56,466.45 578.51,466.45" fill="#faffa8" />
  <polygon points="590.52,478.56 601.56,478.56 601.56,466.45 590.52,466.45" fill="#faffa8" />
  <polygon points="554.50,491.72 565.54,491.72 565.54,479.61 554.50,479.61" fill="#faffa8" />
  <polygon points="602.52,491.72 613.57,491.72 613.57,479.61 602.52,479.61" fill="#faffa8" />
  <polygon points="554.50,504.89 565.54,504.89 565.54,492.78 554.50,492.78" fill="#faffa8" />
  <polygon points="602.52,504.89 613.57,504.89 613.57,492.78 602.52,492.78" fill="#faffa8" />
  <polygon points="554.50,518.06 565.54,518.06 565.54,505.94 554.50,505.94" fill="#faffa8" />
  <polygon points="566.51,518.06 577.55,518.06 577.55,505.94 566.51,505.94" fill="#faffa8" />
  <polygon points="578.51,518.06 589.56,518.06 589.56,505.94 578.51,505.94" fill="#faffa8" />
  <polygon points="590.52,518.06 601.56,518.06 601.56,505.94 590.52,505.94" fill="#faffa8" />
  <polygon points="554.50,531.22 565.54,531.22 565.54,519.11 554.50,519.11" fill="#faffa8" />
  <polygon points="578.51,531.22 589.56,531.22 589.56,519.11 578.51,519.11" fill="#faffa8" />
  <polygon points="554.50,544.39 565.54,544.39 565.54,532.28 554.50,532.28" fill="#faffa8" />
  <polygon points="590.52,544.39 601.56,544.39 601.56,532.28 590.52,532.28" fill="#faffa8" />
  <polygon points="554.50,557.55 565.54,557.55 565.54,545.44 554.50,545.44" fill="#faffa8" />
  <polygon points="602.52,557.55 613.57,557.55 613.57,545.44 602.52,545.44" fill="#faffa8" />
  <polygon points="638.54,478.56 649.58,478.56 649.58,466.45 638.54,466.45" fill="#faffa8" />
  <polygon points="650.54,478.56 661.59,478.56 661.59,466.45 650.54,466.45" fill="#faffa8" />
  <polygon points="662.55,478.56 673.59,478.56 673.59,466.45 662.55,466.45" fill="#faffa8" />
  <polygon points="626.53,491.72 637.58,491.72 637.58,479.61 626.53,479.61" fill="#faffa8" />
  <polygon points="674.55,491.72 685.60,491.72 685.60,479.61 674.55,479.61" fill="#faffa8" />
  <polygon points="626.53,504.89 637.58,504.89 637.58,492.78 626.53,492.78" fill="#faffa8" />
  <polygon points="674.55,504.89 685.60,504.89 685.60,492.78 674.55,492.78" fill="#faffa8" />
  <polygon points="626.53,518.06 637.58,518.06 637.58,505.94 626.53,505.94" fill="#faffa8" />
  <polygon points="674.55,518.06 685.60,518.06 685.60,505.94 674.55,505.94" fill="#faffa8" />
  <polygon points="626.53,531.22 637.58,531.22 637.58,519.11 626.53,519.11" fill="#faffa8" />
  <polygon points="674.55,531.22 685.60,531.22 685.60,519.11 674.55,519.11" fill="#faffa8" />
  <polygon points="626.53,544.39 637.58,544.39 637.58,532.28 626.53,532.28" fill="#faffa8" />
  <polygon points="674.55,544.39 685.60,544.39 685.60,532.28 674.55,532.28" fill="#faffa8" />
  <polygon points="638.54,557.55 649.58,557.55 649.58,545.44 638.54,545.44" fill="#faffa8" />
  <polygon points="650.54,557.55 661.59,557.55 661.59,545.44 650.54,545.44" fill="#faffa8" />
  <polygon points="662.55,557.55 673.59,557.55 673.59,545.44 662.55,545.44" fill="#faffa8" />
  <polygon points="471.04,552.96 266.24,552.96 266.24,471.04 471.04,471.04" fill="#faffa8" />
  <polygon points="122.88,512.00 266.24,614.40 266.24,409.60" fill="#faffa8" />
</svg>
