<svg xmlns="http://www.w3.org/2000/svg" viewBox="0 0 1024 1024">
  <polygon points="25.60,870.40 998.40,870.40 998.40,153.60 25.60,153.60" fill="#faffa8" />
  <polygon points="66.56,829.44 957.44,829.44 957.44,194.56 66.56,194.56" fill="#bdff58" />
  <polygon points="122.88,496.64 901.12,496.64 901.12,527.36 122.88,527.36" fill="#faffa8" />
  <polygon points="410.11,652.64 421.80,652.64 421.80,640.53 410.11,640.53" fill="#faffa8" />
  <polygon points="460.96,652.64 472.65,652.64 472.65,640.53 460.96,640.53" fill="#faffa8" />
  <polygon points="410.11,665.80 421.80,665.80 421.80,653.69 410.11,653.69" fill="#faffa8" />
  <polygon points="460.96,665.80 472.65,665.80 472.65,653.69 460.96,653.69" fill="#faffa8" />
  <polygon points="410.11,678.97 421.80,678.97 421.80,666.86 410.11,666.86" fill="#faffa8" />
  <polygon points="460.96,678.97 472.65,678.97 472.65,666.86 460.96,666.86" fill="#faffa8" />
  <polygon points="410.11,692.14 421.80,692.14 421.80,680.02 410.11,680.02" fill="#faffa8" />
  <polygon points="422.82,692.14 434.51,692.14 434.51,680.02 422.82,680.02" fill="#faffa8" />
  <polygon points="435.53,692.14 447.23,692.14 447.23,680.02 435.53,680.02" fill="#faffa8" />
  <polygon points="448.24,692.14 459.94,692.14 459.94,680.02 448.24,680.02" fill="#faffa8" />
  <polygon points="460.96,692.14 472.65,692.14 472.65,680.02 460.96,680.02" fill="#faffa8" />
  <polygon points="410.11,705.30 421.80,705.30 421.80,693.19 410.11,693.19" fill="#faffa8" />
  <polygon points="460.96,705.30 472.65,705.30 472.65,693.19 460.96,693.19" fill="#faffa8" />
  <polygon points="410.11,718.47 421.80,718.47 421.80,706.36 410.11,706.36" fill="#faffa8" />
  <polygon points="460.96,718.47 472.65,718.47 472.65,706.36 460.96,706.36" fill="#faffa8" />
  <polygon points="410.11,731.63 421.80,731.63 421.80,719.52 410.11,719.52" fill="#faffa8" />
  <polygon points="460.96,731.63 472.65,731.63 472.65,719.52 460.96,719.52" fill="#faffa8" />
  <polygon points="499.09,652.64 510.79,652.64 510.79,640.53 499.09,640.53" fill="#faffa8" />
  <polygon points="511.80,652.64 523.50,652.64 523.50,640.53 511.80,640.53" fill="#faffa8" />
  <polygon points="524.51,652.64 536.21,652.64 536.21,640.53 524.51,640.53" fill="#faffa8" />
  <polygon points="486.38,665.80 498.07,665.80 498.07,653.69 486.38,653.69" fill="#faffa8" />
  <polygon points="537.23,665.80 548.92,665.80 548.92,653.69 537.23,653.69" fill="#faffa8" />
  <polygon points="486.38,678.97 498.07,678.97 498.07,666.86 486.38,666.86" fill="#faffa8" />
  <polygon points="537.23,678.97 548.92,678.97 548.92,666.86 537.23,666.86" fill="#faffa8" />
  <polygon points="486.38,692.14 498.07,692.14 498.07,680.02 486.38,680.02" fill="#faffa8" />
  <polygon points="537.23,692.14 548.92,692.14 548.92,680.02 537.23,680.02" fill="#faffa8" />
  <polygon points="486.38,705.30 498.07,705.30 498.07,693.19 486.38,693.19" fill="#faffa8" />
  <polygon points="537.23,705.30 548.92,705.30 548.92,693.19 537.23,693.19" fill="#faffa8" />
  <polygon points="486.38,718.47 498.07,718.47 498.07,706.36 486.38,706.36" fill="#faffa8" />
  <polygon points="537.23,718.47 548.92,718.47 548.92,706.36 537.23,706.36" fill="#faffa8" />
  <polygon points="499.09,731.63 510.79,731.63 510.79,719.52 499.09,719.52" fill="#faffa8" />
  <polygon points="511.80,731.63 523.50,731.63 523.50,719.52 511.80,719.52" fill="#faffa8" />
  <polygon points="524.51,731.63 536.21,731.63 536.21,719.52 524.51,719.52" fill="#faffa8" />
  <polygon points="562.65,652.64 574.34,652.64 574.34,640.53 562.65,640.53" fill="#faffa8" />
  <polygon points="575.36,652.64 587.06,652.64 587.06,640.53 575.36,640.53" fill="#faffa8" />
  <polygon points="588.07,652.64 599.77,652.64 599.77,640.53 588.07,640.53" fill="#faffa8" />
  <polygon points="600.78,652.64 612.48,652.64 612.48,640.53 600.78,640.53" fill="#faffa8" />
  <polygon points="613.50,652.64 625.19,652.64 625.19,640.53 613.50,640.53" fill="#faffa8" />
  <polygon points="588.07,665.80 599.77,665.80 599.77,653.69 588.07,653.69" fill="#faffa8" />
  <polygon points="588.07,678.97 599.77,678.97 599.77,666.86 588.07,666.86" fill="#faffa8" />
  <polygon points="588.07,692.14 599.77,692.14 599.77,680.02 588.07,680.02" fill="#faffa8" />
  <polygon points="588.07,705.30 599.77,705.30 599.77,693.19 588.07,693.19" fill="#faffa8" />
  <polygon points="588.07,718.47 599.77,718.47 599.77,706.36 588.07,706.36" fill="#faffa8" />
  <polygon points="588.07,731.63 599.77,731.63 599.77,719.52 588.07,719.52" fill="#faffa8" />
  <polygon points="638.92,652.64 650.61,652.64 650.61,640.53 638.92,640.53" fill="#faffa8" />
  <polygon points="651.63,652.64 663.33,652.64 663.33,640.53 651.63,640.53" fill="#faffa8" />
  <polygon points="664.34,652.64 676.04,652.64 676.04,640.53 664.34,640.53" fill="#faffa8" />
  <polygon points="677.05,652.64 688.75,652.64 688.75,640.53 677.05,640.53" fill="#faffa8" />
  <polygon points="689.77,652.64 701.46,652.64 701.46,640.53 689.77,640.53" fill="#faffa8" />
  <polygon points="638.92,665.80 650.61,665.80 650.61,653.69 638.92,653.69" fill="#faffa8" />
  <polygon points="638.92,678.97 650.61,678.97 650.61,666.86 638.92,666.86" fill="#faffa8" />
  <polygon points="638.92,692.14 650.61,692.14 650.61,680.02 638.92,680.02" fill="#faffa8" />
  <polygon points="651.63,692.14 663.33,692.14 663.33,680.02 651.63,680.02" fill="#faffa8" />
  <polygon points="664.34,692.14 676.04,692.14 676.04,680.02 664.34,680.02" fill="#faffa8" />
  <polygon points="677.05,692.14 688.75,692.14 688.75,680.02 677.05,680.02" fill="#faffa8" />
  <polygon points="638.92,705.30 650.61,705.30 650.61,693.19 638.92,693.19" fill="#faffa8" />
  <polygon points="638.92,718.47 650.61,718.47 650.61,706.36 638.92,706.36" fill="#faffa8" />
  <polygon points="638.92,731.63 650.61,731.63 650.61,719.52 638.92,719.52" fill="#faffa8" />
  <polygon points="651.63,731.63 663.33,731.63 663.33,719.52 651.63,719.52" fill="#faffa8" />
  <polygon points="664.34,731.63 676.04,731.63 676.04,719.52 664.34,719.52" fill="#faffa8" />
  <polygon points="677.05,731.63 688.75,731.63 688.75,719.52 677.05,719.52" fill="#faffa8" />
  <polygon points="689.77,731.63 701.46,731.63 701.46,719.52 689.77,719.52" fill="#faffa8" />
  <polygon points="715.19,652.64 726.88,652.64 726.88,640.53 715.19,640.53" fill="#faffa8" />
  <polygon points="715.19,665.80 726.88,665.80 726.88,653.69 715.19,653.69" fill="#faffa8" />
  <polygon points="715.19,678.97 726.88,678.97 726.88,666.86 715.19,666.86" fill="#faffa8" />
  <polygon points="715.19,692.14 726.88,692.14 726.88,680.02 715.19,680.02" fill="#faffa8" />
  <polygon points="715.19,705.30 726.88,705.30 726.88,693.19 715.19,693.19" fill="#faffa8" />
  <polygon points="715.19,718.47 726.88,718.47 726.88,706.36 715.19,706.36" fill="#faffa8" />
  <polygon points="715.19,731.63 726.88,731.63 726.88,719.52 715.19,719.52" fill="#faffa8" />
  <polygon points="727.90,731.63 739.60,731.63 739.60,719.52 727.90,719.52" fill="#faffa8" />
  <polygon points="740.61,731.63 752.31,731.63 752.31,719.52 740.61,719.52" fill="#faffa8" />
  <polygon points="753.33,731.63 765.02,731.63 765.02,719.52 753.33,719.52" fill="#faffa8" />
  <polygon points="766.04,731.63 777.73,731.63 777.73,719.52 766.04,719.52" fill="#faffa8" />
  <polygon points="461.33,304.48 473.62,304.48 473.62,292.37 461.33,292.37" fill="#faffa8" />
  <polygon points="474.69,304.48 486.98,304.48 486.98,292.37 474.69,292.37" fill="#faffa8" />
  <polygon points="488.05,304.48 500.34,304.48 500.34,292.37 488.05,292.37" fill="#faffa8" />
  <polygon points="501.40,304.48 513.69,304.48 513.69,292.37 501.40,292.37" fill="#faffa8" />
  <polygon points="461.33,317.64 473.62,317.64 473.62,305.53 461.33,305.53" fill="#faffa8" />
  <polygon points="514.76,317.64 527.05,317.64 527.05,305.53 514.76,305.53" fill="#faffa8" />
  <polygon points="461.33,330.81 473.62,330.81 473.62,318.70 461.33,318.70" fill="#faffa8" />
  <polygon points="514.76,330.81 527.05,330.81 527.05,318.70 514.76,318.70" fill="#faffa8" />
  <polygon points="461.33,343.98 473.62,343.98 473.62,331.86 461.33,331.86" fill="#faffa8" />
  <polygon points="474.69,343.98 486.98,343.98 486.98,331.86 474.69,331.86" fill="#faffa8" />
  <polygon points="488.05,343.98 500.34,343.98 500.34,331.86 488.05,331.86" fill="#faffa8" />
  <polygon points="501.40,343.98 513.69,343.98 513.69,331.86 501.40,331.86" fill="#faffa8" />
  <polygon points="461.33,357.14 473.62,357.14 473.62,345.03 461.33,345.03" fill="#faffa8" />
  <polygon points="461.33,370.31 473.62,370.31 473.62,358.20 461.33,358.20" fill="#faffa8" />
  <polygon points="461.33,383.47 473.62,383.47 473.62,371.36 461.33,371.36" fill="#faffa8" />
  <polygon points="568.19,304.48 580.47,304.48 580.47,292.37 568.19,292.37" fill="#faffa8" />
  <polygon points="554.83,317.64 567.12,317.64 567.12,305.53 554.83,305.53" fill="#faffa8" />
  <polygon points="581.54,317.64 593.83,317.64 593.83,305.53 581.54,305.53" fill="#faffa8" />
  <polygon points="541.47,330.81 553.76,330.81 553.76,318.70 541.47,318.70" fill="#faffa8" />
  <polygon points="594.90,330.81 607.19,330.81 607.19,318.70 594.90,318.70" fill="#faffa8" />
  <polygon points="541.47,343.98 553.76,343.98 553.76,331.86 541.47,331.86" fill="#faffa8" />
  <polygon points="594.90,343.98 607.19,343.98 607.19,331.86 594.90,331.86" fill="#faffa8" />
  <polygon points="541.47,357.14 553.76,357.14 553.76,345.03 541.47,345.03" fill="#faffa8" />
  <polygon points="554.83,357.14 567.12,357.14 567.12,345.03 554.83,345.03" fill="#faffa8" />
  <polygon points="568.19,357.14 580.47,357.14 580.47,345.03 568.19,345.03" fill="#faffa8" />
  <polygon points="581.54,357.14 593.83,357.14 593.83,345.03 581.54,345.03" fill="#faffa8" />
  <polygon points="594.90,357.14 607.19,357.14 607.19,345.03 594.90,345.03" fill="#faffa8" />
  <polygon points="541.47,370.31 553.76,370.31 553.76,358.20 541.47,358.20" fill="#faffa8" />
  <polygon points="594.90,370.31 607.19,370.31 607.19,358.20 594.90,358.20" fill="#faffa8" />
  <polygon points="541.47,383.47 553.76,383.47 553.76,371.36 541.47,371.36" fill="#faffa8" />
  <polygon points="594.90,383.47 607.19,383.47 607.19,371.36 594.90,371.36" fill="#faffa8" />
  <polygon points="621.61,304.48 633.90,304.48 633.90,292.37 621.61,292.37" fill="#faffa8" />
  <polygon points="634.97,304.48 647.26,304.48 647.26,292.37 634.97,292.37" fill="#faffa8" />
  <polygon points="648.33,304.48 660.61,304.48 660.61,292.37 648.33,292.37" fill="#faffa8" />
  <polygon points="661.68,304.48 673.97,304.48 673.97,292.37 661.68,292.37" fill="#faffa8" />
  <polygon points="621.61,317.64 633.90,317.64 633.90,305.53 621.61,305.53" fill="#faffa8" />
  <polygon points="675.04,317.64 687.33,317.64 687.33,305.53 675.04,305.53" fill="#faffa8" />
  <polygon points="621.61,330.81 633.90,330.81 633.90,318.70 621.61,318.70" fill="#faffa8" />
  <polygon points="675.04,330.81 687.33,330.81 687.33,318.70 675.04,318.70" fill="#faffa8" />
  <polygon points="621.61,343.98 633.90,343.98 633.90,331.86 621.61,331.86" fill="#faffa8" />
  <polygon points="634.97,343.98 647.26,343.98 647.26,331.86 634.97,331.86" fill="#faffa8" />
  <polygon points="648.33,343.98 660.61,343.98 660.61,331.86 648.33,331.86" fill="#faffa8" />
  <polygon points="661.68,343.98 673.97,343.98 673.97,331.86 661.68,331.86" fill="#faffa8" />
  <polygon points="621.61,357.14 633.90,357.14 633.90,345.03 621.61,345.03" fill="#faffa8" />
  <polygon points="648.33,357.14 660.61,357.14 660.61,345.03 648.33,345.03" fill="#faffa8" />
  <polygon points="621.61,370.31 633.90,370.31 633.90,358.20 621.61,358.20" fill="#faffa8" />
  <polygon points="661.68,370.31 673.97,370.31 673.97,358.20 661.68,358.20" fill="#faffa8" />
  <polygon points="621.61,383.47 633.90,383.47 633.90,371.36 621.61,371.36" fill="#faffa8" />
  <polygon points="675.04,383.47 687.33,383.47 687.33,371.36 675.04,371.36" fill="#faffa8" />
  <polygon points="701.75,304.48 714.04,304.48 714.04,292.37 701.75,292.37" fill="#faffa8" />
  <polygon points="755.18,304.48 767.47,304.48 767.47,292.37 755.18,292.37" fill="#faffa8" />
  <polygon points="701.75,317.64 714.04,317.64 714.04,305.53 701.75,305.53" fill="#faffa8" />
  <polygon points="741.82,317.64 754.11,317.64 754.11,305.53 741.82,305.53" fill="#faffa8" />
  <polygon points="701.75,330.81 714.04,330.81 714.04,318.70 701.75,318.70" fill="#faffa8" />
  <polygon points="728.46,330.81 740.75,330.81 740.75,318.70 728.46,318.70" fill="#faffa8" />
  <polygon points="701.75,343.98 714.04,343.98 714.04,331.86 701.75,331.86" fill="#faffa8" />
  <polygon points="715.11,343.98 727.40,343.98 727.40,331.86 715.11,331.86" fill="#faffa8" />
  <polygon points="701.75,357.14 714.04,357.14 714.04,345.03 701.75,345.03" fill="#faffa8" />
  <polygon points="728.46,357.14 740.75,357.14 740.75,345.03 728.46,345.03" fill="#faffa8" />
  <polygon points="701.75,370.31 714.04,370.31 714.04,358.20 701.75,358.20" fill="#faffa8" />
  <polygon points="741.82,370.31 754.11,370.31 754.11,358.20 741.82,358.20" fill="#faffa8" />
  <polygon points="701.75,383.47 714.04,383.47 714.04,371.36 701.75,371.36" fill="#faffa8" />
  <polygon points="755.18,383.47 767.47,383.47 767.47,371.36 755.18,371.36" fill="#faffa8" />
  <polygon points="389.12,368.64 235.52,368.64 235.52,307.20 389.12,307.20" fill="#faffa8" />
  <polygon points="122.88,337.92 235.52,419.84 235.52,256.00" fill="#faffa8" />
</svg>
